<svg width="123" height="121" viewBox="0 0 123 121" fill="none" xmlns="http://www.w3.org/2000/svg">
<path d="M21.0475 4.80087C21.4852 4.62698 21.9341 4.47954 22.3963 4.38071C24.3961 3.94639 26.5771 4.23139 28.4599 5.33428C30.339 6.43637 31.5643 8.14559 32.0266 10.0228C32.4832 11.8955 32.1861 13.9397 31.0087 15.7005C29.8313 17.4612 27.9968 18.6045 25.9978 19.039C23.9924 19.4699 21.8134 19.1865 19.9343 18.0855C18.7232 17.3755 17.8166 16.3989 17.1789 15.3049L15.8112 15.8946C16.5676 17.2243 17.6882 18.3961 19.1524 19.2543C21.3768 20.5567 23.9558 20.8922 26.3226 20.3802C28.6987 19.8724 30.8618 18.5136 32.2552 16.4307C33.6474 14.3478 34.0078 11.9329 33.4571 9.71137C32.9158 7.49251 31.4659 5.46864 29.2424 4.16542C27.2916 3.02273 25.073 2.62287 22.9608 2.8833L20.3461 3.7327L21.0475 4.80087Z" fill="#EF3834"/>
<path d="M16.049 23.8952C19.6411 26.0003 23.8076 26.5414 27.6374 25.7169C31.4671 24.8923 34.9622 22.6996 37.212 19.3357C39.4609 15.9714 40.041 12.0695 39.1589 8.48654C38.6176 6.28451 37.5204 4.2032 35.9253 2.43629L31.839 0L30.8465 0.32133C31.085 0.4442 31.3267 0.557988 31.5616 0.694747C34.8095 2.59762 36.9289 5.55557 37.7205 8.79265C38.5157 12.0324 37.995 15.5598 35.9601 18.6024C33.9264 21.6435 30.7654 23.6249 27.3035 24.3709C23.8481 25.1196 20.0788 24.6287 16.8309 22.726C14.1708 21.1667 12.288 18.9037 11.2484 16.3606L9.64587 16.3067C9.64787 16.312 9.65072 16.3173 9.65244 16.3227L9.7155 16.3537L9.66471 16.3529C10.7636 19.3706 12.9335 22.0692 16.049 23.8952Z" fill="#EF3834"/>
<path d="M39.6088 25.3392L40.3852 27.6366V22.2234C37.4911 26.1323 33.2567 28.7099 28.6165 29.7067C23.6981 30.7671 18.3485 30.0724 13.7292 27.3661C10.9766 25.7538 8.80989 23.6028 7.25612 21.1595L7.00814 23.0111L6.97333 23.275L7.00158 23.3164C8.51939 25.2872 10.4476 27.0268 12.7615 28.4147L12.4334 31.1758L13.7021 33.0116L14.1595 29.168C14.7102 29.446 15.2687 29.6976 15.8348 29.9255L15.6847 35.8812L17.1109 37.9446L17.2987 30.464C17.8637 30.6467 18.4307 30.8155 19.0031 30.9504L20.1049 42.2781L21.8322 44.7777L20.5161 31.2495C21.298 31.3785 22.083 31.4774 22.8697 31.5225L25.7875 50.5013L27.708 53.28L24.3659 31.5412C25.0187 31.5359 25.6696 31.5006 26.3174 31.4389L32.1687 59.7358L34.3174 62.8446L27.783 31.249C28.1725 31.1862 28.5649 31.1352 28.9498 31.0521C29.3131 30.9736 29.6666 30.8649 30.0251 30.7695L39.2156 69.9331L40.3844 71.625V68.4656L31.4381 30.3448C32.1373 30.1074 32.8201 29.8328 33.4907 29.5272L40.3844 56.308V50.4017L34.8416 28.8667C35.4169 28.555 35.9782 28.2187 36.5235 27.8549L40.3844 40.6651V35.5703L37.8441 27.1422C37.8244 27.076 37.7848 27.0204 37.7471 26.9646C38.3969 26.4598 39.0212 25.9231 39.6088 25.3392Z" fill="#EF3834"/>
<path d="M30.009 3.01701C32.5721 4.51816 34.2435 6.85001 34.8718 9.4097C35.5019 11.9667 35.0878 14.7481 33.4824 17.1499C31.877 19.5507 29.3847 21.1162 26.6518 21.7036C23.9181 22.2918 20.9467 21.905 18.3839 20.4038C16.6697 19.399 15.3671 18.0234 14.4965 16.4621L14.4805 16.4691L12.824 16.4135C13.7936 18.4708 15.4087 20.2879 17.6017 21.5735C20.5089 23.2758 23.8804 23.7146 26.982 23.0479C30.0807 22.3796 32.9117 20.6055 34.7331 17.8826C36.5546 15.1587 37.0217 12.0001 36.3094 9.09959C35.5943 6.1972 33.6984 3.55016 30.7921 1.84681C30.1817 1.48916 29.5479 1.20041 28.9044 0.952271L26.5802 1.70712C27.7621 1.95473 28.9224 2.37943 30.009 3.01701Z" fill="#EF3834"/>
<path d="M22.2548 14.6145C23.0935 15.1054 24.0583 15.2379 24.9563 15.0595C24.9743 15.056 24.996 15.0533 25.0156 15.048C25.9296 14.8527 26.7655 14.3311 27.3022 13.5292C27.8247 12.746 27.9654 11.8373 27.773 10.9952C27.7702 10.9767 27.7665 10.958 27.7628 10.9404C27.5525 10.0849 26.994 9.30597 26.1394 8.80434C25.3019 8.3134 24.3302 8.17824 23.435 8.35854C23.4199 8.36041 23.4048 8.36308 23.3897 8.36548L24.2443 9.66523C24.6244 9.67324 25.0074 9.76753 25.3584 9.9724C25.8686 10.2726 26.2036 10.7406 26.3263 11.2484L26.3386 11.2908C26.4518 11.7906 26.3631 12.3291 26.0509 12.7955C25.731 13.2749 25.2339 13.5885 24.6849 13.7042L24.6424 13.7148C24.1065 13.8163 23.5332 13.7359 23.037 13.4456C22.8295 13.3246 22.6606 13.171 22.5133 13.0033L21.1473 13.593C21.4273 13.991 21.7942 14.3444 22.2548 14.6145Z" fill="#EF3834"/>
<path d="M14.4977 26.2155C18.7738 28.7197 23.7356 29.3677 28.2944 28.385C32.8496 27.4004 37.0124 24.7929 39.6913 20.7879C39.9461 20.4065 40.1659 20.0154 40.3847 19.6233V15.3752C40.0546 16.9814 39.4405 18.5584 38.4406 20.055C35.9777 23.7371 32.1536 26.137 27.9623 27.0401C23.7664 27.9408 19.2104 27.3491 15.2796 25.0453C11.7072 22.9528 9.28307 19.81 8.13793 16.3144L7.90479 16.3083L7.57092 18.8116C9.0037 21.761 11.3413 24.3656 14.4977 26.2155Z" fill="#EF3834"/>
<path d="M40.3854 9.4041V5.09432L39.991 4.85953L38.5006 3.97113C39.244 5.33258 39.7864 6.79045 40.1551 8.28545C40.2467 8.6562 40.3163 9.02988 40.3854 9.4041Z" fill="#EF3834"/>
<path d="M27.6911 6.48476C26.147 5.5806 24.3612 5.34928 22.719 5.7024L22.7182 5.70427L22.7173 5.70507C22.4108 5.77131 22.1175 5.87815 21.8241 5.98313L22.6109 7.18137C22.757 7.13623 22.8985 7.0764 23.0486 7.04461L23.0506 7.04728C24.327 6.7743 25.7087 6.9538 26.9078 7.65576C28.102 8.35504 28.8839 9.44297 29.1775 10.6348L29.1766 10.6367C29.4691 11.8288 29.2794 13.1285 28.5306 14.249C27.7815 15.3688 26.6156 16.0972 25.3423 16.3725L25.2969 16.3848C24.0319 16.641 22.6688 16.458 21.486 15.7659C20.7757 15.3493 20.2333 14.7894 19.8323 14.1606L18.4957 14.7381C19.0165 15.6009 19.7419 16.3707 20.7041 16.9351C22.2248 17.8259 23.9849 18.0609 25.6083 17.7236C25.6319 17.7236 25.6508 17.719 25.6733 17.7164C27.3175 17.364 28.8117 16.4212 29.7756 14.9782C30.7407 13.5353 30.9944 11.8656 30.6131 10.3268H30.6094L30.6103 10.326C30.2322 8.78829 29.2286 7.38518 27.6911 6.48476Z" fill="#EF3834"/>
<path d="M53.1577 22.3391L53.9408 25.6582C54.0067 25.9416 54.3069 26.12 54.6096 26.0581C54.9124 25.9953 55.103 25.7146 55.0368 25.4312L54.2538 22.1129C54.1867 21.8295 53.8877 21.6503 53.5849 21.713C53.2821 21.7747 53.0907 22.0557 53.1577 22.3391Z" fill="#0EA2C8"/>
<path d="M53.8859 39.0587L54.6678 42.3778C54.7349 42.6612 55.0348 42.8404 55.3376 42.7776C55.6403 42.7148 55.8309 42.4349 55.7647 42.1515L54.9817 38.8324C54.9158 38.549 54.6156 38.3698 54.3128 38.4326C54.0104 38.4943 53.8189 38.7753 53.8859 39.0587Z" fill="#0EA2C8"/>
<path d="M45.7212 17.8744L53.2704 49.9009C53.3363 50.1843 53.6365 50.3635 53.9392 50.3007C54.242 50.2379 54.4335 49.958 54.3664 49.6746L46.8173 17.6484C46.7502 17.365 46.4512 17.1858 46.1484 17.2486C45.8459 17.3111 45.6545 17.591 45.7212 17.8744Z" fill="#0EA2C8"/>
<path d="M52.8984 34.8676C52.9655 35.151 53.2645 35.3302 53.5673 35.2675C53.8701 35.2047 54.0615 34.9248 53.9945 34.6414L48.1167 9.70528L46.7789 8.90796L52.8984 34.8676Z" fill="#0EA2C8"/>
<path d="M44.7327 13.6839C44.7997 13.9673 45.0988 14.1466 45.4015 14.0838C45.7051 14.021 45.8958 13.7403 45.8287 13.4577L44.4259 7.50466L43.0873 6.70654L44.7327 13.6839Z" fill="#0EA2C8"/>
<path d="M52.1704 18.148C52.2375 18.4314 52.5374 18.6106 52.8402 18.5479C53.1429 18.4851 53.3344 18.2052 53.2673 17.9218L51.8563 11.9351L50.5176 11.1378L52.1704 18.148Z" fill="#0EA2C8"/>
<path d="M45.2294 42.0152C44.9266 42.078 44.7351 42.3579 44.8022 42.6413L47.1869 52.7594C47.254 53.0436 47.5539 53.222 47.8567 53.1592C48.1594 53.0965 48.3501 52.8165 48.283 52.5331L45.8991 42.4151C45.8312 42.132 45.5313 41.9527 45.2294 42.0152Z" fill="#0EA2C8"/>
<path d="M50.6626 65.065C50.9645 65.0023 51.156 64.7223 51.0898 64.4389L49.2712 56.7243C49.2042 56.4409 48.9051 56.2617 48.6024 56.3245C48.2987 56.3873 48.1081 56.668 48.174 56.9514L49.9938 64.6652C50.0597 64.9483 50.3596 65.1275 50.6626 65.065Z" fill="#0EA2C8"/>
<path d="M60.2083 33.7357L59.4252 30.4174C59.3582 30.134 59.0591 29.9548 58.7564 30.0165C58.4536 30.0793 58.2621 30.36 58.3292 30.6434L59.1111 33.9617C59.1781 34.2451 59.478 34.4243 59.7808 34.3615C60.0836 34.3001 60.275 34.0191 60.2083 33.7357Z" fill="#0EA2C8"/>
<path d="M59.5485 44.5697L56.0244 29.6226C55.9585 29.3392 55.6583 29.16 55.3566 29.2227H55.3558C55.053 29.2855 54.8624 29.5654 54.9286 29.8488L58.4528 44.7959C58.5198 45.0793 58.8177 45.2585 59.1216 45.1958C59.4238 45.1338 59.6156 44.8531 59.5485 44.5697Z" fill="#0EA2C8"/>
<path d="M55.9434 69.9969L54.1331 62.3168C54.0661 62.0334 53.7662 61.8549 53.4634 61.9169C53.1606 61.9797 52.9692 62.2604 53.0371 62.5438L54.8462 70.2231C54.9141 70.5073 55.2132 70.6858 55.516 70.623C55.8187 70.5602 56.0105 70.2803 55.9434 69.9969Z" fill="#0EA2C8"/>
<path d="M56.0838 45.9426C55.7811 46.0053 55.5896 46.2852 55.6566 46.5686L59.1799 61.5165C59.247 61.7999 59.5469 61.9792 59.8497 61.9164C60.1516 61.8536 60.3431 61.5729 60.276 61.2895L56.7527 46.3424C56.6868 46.0593 56.3866 45.88 56.0838 45.9426Z" fill="#0EA2C8"/>
<path d="M49.7466 73.0956L47.0931 61.8386C47.0272 61.5552 46.727 61.3768 46.4242 61.4387C46.1214 61.5015 45.93 61.7822 45.997 62.0656L48.6497 73.3218C48.7168 73.606 49.0167 73.7845 49.3194 73.7217C49.6222 73.6589 49.8137 73.379 49.7466 73.0956Z" fill="#0EA2C8"/>
<path d="M55.5945 14.1653L54.2568 13.3672L57.3403 26.4528C57.4083 26.7362 57.7073 26.9146 58.0101 26.8527C58.3128 26.7899 58.5043 26.5092 58.4373 26.2258L55.5945 14.1653Z" fill="#0EA2C8"/>
<path d="M43.9966 34.3448C43.9296 34.0614 43.6297 33.8821 43.3269 33.9449C43.0242 34.0077 42.8327 34.2884 42.8997 34.571L43.8149 38.4507C43.8819 38.7341 44.181 38.9134 44.4838 38.8506C44.7865 38.7878 44.978 38.5071 44.9109 38.2237L43.9966 34.3448Z" fill="#0EA2C8"/>
<path d="M49.0772 43.3036C49.3799 43.2409 49.5714 42.9609 49.5043 42.6775L47.8516 35.6684C47.7856 35.385 47.4854 35.2057 47.1827 35.2685C46.8799 35.3313 46.6893 35.6112 46.7555 35.8946L48.4071 42.9038C48.4742 43.1872 48.7744 43.3664 49.0772 43.3036Z" fill="#0EA2C8"/>
<path d="M42.7944 48.4796L45.0082 57.8746C45.0761 58.158 45.376 58.3364 45.6779 58.2744C45.9807 58.2117 46.1722 57.9309 46.1051 57.6475L43.8913 48.2526C43.8242 47.9692 43.5243 47.7907 43.2216 47.8535C42.9188 47.9155 42.7273 48.1962 42.7944 48.4796Z" fill="#0EA2C8"/>
<path d="M52.7186 58.7523C53.0214 58.6896 53.2128 58.4096 53.1458 58.1262L50.4922 46.8682C50.4252 46.5848 50.1261 46.4063 49.8234 46.4691C49.5195 46.5308 49.3291 46.8118 49.3962 47.0952L52.0497 58.3522C52.1159 58.6359 52.4158 58.8151 52.7186 58.7523Z" fill="#0EA2C8"/>
<path d="M50.7342 77.2867C50.6671 77.0033 50.3681 76.8241 50.0653 76.8869C49.7617 76.9496 49.5711 77.2304 49.6381 77.5138L50.6012 81.6002L51.52 80.6175L50.7342 77.2867Z" fill="#0EA2C8"/>
<path d="M59.3324 16.3946L57.9947 15.5964L62.3895 34.2432V29.3648L59.3324 16.3946Z" fill="#0EA2C8"/>
<path d="M60.5365 48.761C60.4694 48.4776 60.1704 48.2983 59.8668 48.3611C59.564 48.4239 59.3725 48.7038 59.4396 48.9872L61.2422 56.6329C61.3093 56.9163 61.6083 57.0955 61.9111 57.0328C62.2138 56.971 62.4065 56.6901 62.3383 56.4067L60.5365 48.761Z" fill="#0EA2C8"/>
<path d="M61.1947 37.9272C61.1277 37.6438 60.8286 37.4645 60.5258 37.5273C60.2231 37.5901 60.0316 37.8708 60.0987 38.1542L62.3889 47.874V42.9955L61.1947 37.9272Z" fill="#0EA2C8"/>
<path d="M61.3136 79.1484L55.3539 53.8661C55.288 53.5827 54.9889 53.4035 54.6862 53.4663C54.3825 53.529 54.1919 53.809 54.259 54.0924L60.2178 79.3746C60.2227 79.3931 60.2358 79.4072 60.2415 79.4249L61.2405 79.5405C61.3153 79.4273 61.3464 79.2886 61.3136 79.1484Z" fill="#0EA2C8"/>
<path d="M60.5946 65.0809C60.2918 65.1437 60.1003 65.4236 60.1674 65.707L61.97 73.3527C62.0171 73.5557 62.1869 73.7015 62.3897 73.7464V70.2569L61.2643 65.4808C61.1972 65.1976 60.8973 65.0184 60.5946 65.0809Z" fill="#0EA2C8"/>
<path d="M62.3893 20.612V17.5093L61.6385 17.4254L62.3893 20.612Z" fill="#0EA2C8"/>
<path d="M41.9117 30.3799C41.9787 30.6633 42.2778 30.8426 42.5814 30.7798C42.8842 30.717 43.0757 30.4371 43.0077 30.1537L41.6429 24.3577V29.2362L41.9117 30.3799Z" fill="#0EA2C8"/>
<path d="M41.8073 44.2882C41.8744 44.5716 42.1734 44.7508 42.4762 44.688C42.779 44.6252 42.9704 44.3445 42.9034 44.0611L41.6421 38.7101V43.5886L41.8073 44.2882Z" fill="#0EA2C8"/>
<path d="M56.9315 74.188C56.8645 73.9046 56.5654 73.7253 56.2618 73.7881C55.9599 73.8509 55.7684 74.1316 55.8355 74.4142L56.9258 79.0418L58.1078 79.1786L56.9315 74.188Z" fill="#0EA2C8"/>
<path d="M43.7507 65.6779C44.0534 65.6152 44.2449 65.3352 44.1778 65.0518L42.3687 57.3762C42.2933 57.0576 41.9792 56.858 41.6413 56.8799V59.1704L43.0818 65.2781C43.148 65.5615 43.4479 65.7407 43.7507 65.6779Z" fill="#0EA2C8"/>
<path d="M45.768 31.7041C45.8351 31.9875 46.1341 32.1667 46.4369 32.104C46.7405 32.0412 46.9311 31.7605 46.8641 31.4779L41.642 9.32208V14.2005L45.768 31.7041Z" fill="#0EA2C8"/>
<path d="M52.0778 68.6303C52.0108 68.3469 51.7109 68.1677 51.409 68.2304C51.1053 68.2932 50.9139 68.5739 50.9806 68.8565L53.3032 78.7107L53.3768 78.6321L54.4646 78.7574L52.0778 68.6303Z" fill="#0EA2C8"/>
<path d="M45.1665 69.2429C45.0994 68.9595 44.8004 68.7803 44.4976 68.843C44.194 68.9058 44.0034 69.1857 44.0704 69.4691L46.7485 80.8322L48.4938 83.3574L45.1665 69.2429Z" fill="#0EA2C8"/>
<path d="M41.6421 68.7921V73.4435L43.306 75.8515L41.6421 68.7921Z" fill="#0EA2C8"/>
<path d="M86.4581 33.6145L85.7704 32.7474C85.6325 32.8588 85.493 32.9691 85.358 33.0829V34.5566C85.711 34.2248 86.0837 33.9192 86.4581 33.6145Z" fill="#1AA94B"/>
<path d="M85.358 38.4229C85.6129 38.121 85.8531 37.8163 86.1174 37.5152C86.7172 36.8344 87.3815 36.2251 88.0738 35.6495L87.3861 34.7841C86.6692 35.3738 85.9832 36.0026 85.358 36.6984V38.4229Z" fill="#1AA94B"/>
<path d="M85.358 40.8118V42.6706C86.2315 41.4865 87.172 40.299 88.205 39.1237C88.6625 38.6037 89.1653 38.1322 89.6889 37.6845L89.0003 36.8175C88.4051 37.3199 87.8344 37.8507 87.3156 38.4386C86.6239 39.2249 85.9787 40.018 85.358 40.8118Z" fill="#1AA94B"/>
<path d="M85.358 45.302V47.3681C86.7295 45.1914 88.3503 42.9418 90.2933 40.7326C90.6092 40.3733 90.9488 40.0376 91.3026 39.7197L90.6149 38.8527C90.1894 39.2261 89.7799 39.619 89.4027 40.0474C87.8709 41.7903 86.5371 43.5599 85.358 45.302Z" fill="#1AA94B"/>
<path d="M114.946 54.8122L115.27 52.8362C114.978 52.2437 114.678 51.6601 114.37 51.088L113.023 50.9785C113.7 52.2063 114.36 53.5018 114.946 54.8122Z" fill="#1AA94B"/>
<path d="M85.358 52.7127C87.0031 49.5066 89.2803 45.8651 92.3801 42.3411C92.5547 42.1424 92.7462 41.9597 92.9357 41.777L92.2394 40.8993C91.98 41.1402 91.7263 41.3884 91.4915 41.656C88.9296 44.568 86.9241 47.5588 85.358 50.333V52.7127Z" fill="#1AA94B"/>
<path d="M109.817 50.7173C111.427 53.4643 113.069 56.7075 113.896 59.6777C113.949 59.8685 113.999 60.0626 114.051 60.2544L114.466 57.7292C113.627 55.3885 112.418 52.9824 111.188 50.8287L109.817 50.7173Z" fill="#1AA94B"/>
<path d="M85.358 59.3437C86.7277 55.606 89.4709 49.6308 94.4675 43.95C94.5014 43.912 94.5403 43.8795 94.5742 43.8423L93.8762 42.963C93.7772 43.0637 93.6733 43.158 93.5792 43.2648C89.5616 47.8324 86.9666 52.5962 85.3583 56.2861L85.358 59.3437Z" fill="#1AA94B"/>
<path d="M86.7977 63.822C86.8034 63.7921 86.8279 63.6596 86.8336 63.6374C86.9195 63.2568 89.0146 54.3431 96.2373 45.938L95.5262 45.0408C87.9779 53.709 85.7961 63.019 85.7065 63.412C85.7016 63.4315 85.6631 63.6379 85.6631 63.6379C85.6611 63.6425 85.6602 63.6459 85.6602 63.6502C85.1717 66.5932 85.4234 69.1433 86.0517 71.3074L87.178 71.0646C86.5788 69.0226 86.3345 66.6111 86.7977 63.822Z" fill="#1AA94B"/>
<path d="M107.955 50.5656L106.556 50.4518C108.332 53.3082 110.361 57.0168 111.279 60.3155C111.776 62.0966 112.207 63.8617 112.341 65.6398L113.195 65.4552L113.256 65.0922L113.174 65.0727L113.257 65.0922L113.367 64.4132C113.16 62.9511 112.8 61.5012 112.394 60.0433C111.517 56.8912 109.665 53.3868 107.955 50.5656Z" fill="#1AA94B"/>
<path d="M89.4637 64.24L89.4846 64.1323C89.7043 63.2025 91.6673 55.5435 97.9075 48.0428L97.1964 47.1467C90.6214 54.9371 88.5726 62.9944 88.3577 63.9101C88.3557 63.917 88.3548 63.9234 88.3528 63.9304L88.3292 64.0567C88.3283 64.0602 88.3272 64.0647 88.3263 64.0701C87.9028 66.6501 88.1462 68.8612 88.7055 70.7357L89.8281 70.4937C89.2988 68.7405 89.0665 66.6656 89.4637 64.24Z" fill="#1AA94B"/>
<path d="M104.66 50.2979L103.239 50.1823C105.307 53.3344 107.716 57.5542 108.663 60.9544C109.175 62.7945 109.6 64.5251 109.673 66.2151L110.812 65.9696C110.711 64.254 110.289 62.5181 109.777 60.6823C108.868 57.4129 106.665 53.4332 104.66 50.2979Z" fill="#1AA94B"/>
<path d="M106.978 66.7962L108.136 66.5465C108.11 64.9297 107.692 63.2309 107.161 61.3211C106.643 59.4615 105.605 57.1552 104.073 54.4665C103.061 52.6908 102.053 51.1352 101.301 50.0243L99.8507 49.9059C102.206 53.2771 105.077 58.108 106.046 61.5922C106.583 63.5231 106.996 65.2192 106.978 66.7962Z" fill="#1AA94B"/>
<path d="M92.132 64.6566L92.1349 64.6363C92.3423 63.7869 94.18 56.7777 99.7813 49.9002L99.355 49.8658L98.8693 49.2538C93.1028 56.3407 91.2106 63.582 91.0106 64.4066C91.0077 64.4135 91.0068 64.4207 91.006 64.4277L90.9974 64.4675C90.9966 64.4736 90.9946 64.4798 90.9946 64.4859C90.6362 66.6978 90.8539 68.5831 91.3419 70.167L92.4653 69.925C92.0056 68.464 91.7999 66.7147 92.132 64.6566Z" fill="#1AA94B"/>
<path d="M94.7918 65.1199C94.9596 64.4665 96.2614 59.7179 99.6848 54.5048C100.949 56.5682 102.739 59.7497 103.43 62.2309C103.997 64.2686 104.415 65.9842 104.233 67.3882L105.415 67.1331C105.511 65.6365 105.094 63.935 104.545 61.9589C103.725 59.0186 101.472 55.204 100.2 53.1919C100.099 53.0303 99.9151 52.928 99.715 52.9262C99.7113 52.9262 99.7076 52.9254 99.7048 52.9254C99.5096 52.9254 99.3275 53.0188 99.2199 53.1727C95.4515 58.6268 93.9574 63.7966 93.694 64.7804C93.6769 64.8677 93.6592 64.9543 93.6404 65.0416C93.3781 66.8278 93.5716 68.3412 93.9791 69.5987L95.1045 69.3559C94.7181 68.2007 94.5352 66.7941 94.7918 65.1199Z" fill="#1AA94B"/>
<path d="M97.4519 65.5964C97.6376 64.9059 98.2771 62.7373 99.6488 59.9383C100.193 61.0695 100.59 62.0698 100.814 62.869C101.335 64.7427 101.778 66.4971 101.49 67.3855C101.441 67.5401 101.335 67.7634 101.111 68.061L102.569 67.7466C102.574 67.7306 102.588 67.713 102.594 67.698C102.968 66.5377 102.535 64.778 101.928 62.597C101.618 61.48 101.026 60.0814 100.17 58.44C100.074 58.2555 99.8734 58.1379 99.6534 58.1371H99.6525C99.4337 58.1371 99.2328 58.2536 99.1355 58.4382C97.33 61.8641 96.5282 64.6057 96.3253 65.3643C96.3204 65.3846 96.3167 65.4041 96.3139 65.4233C96.1081 66.867 96.2893 68.0589 96.6297 69.0269L97.7561 68.7841C97.4453 67.9424 97.2727 66.8881 97.4519 65.5964Z" fill="#1AA94B"/>
<path d="M99.5384 64.3121C99.2213 64.2988 98.9505 64.5277 98.9346 64.8242L98.7411 68.5714L99.9071 68.3198L100.085 64.8763C100.101 64.579 99.8554 64.3263 99.5384 64.3121Z" fill="#1AA94B"/>
<path d="M71.3094 65.8715C72.9827 63.8717 72.529 64.3432 72.9884 63.8584C73.5828 64.4067 73.0469 63.9078 74.8626 65.883L71.3094 65.8715ZM76.0948 65.8408C76.0326 65.7879 75.9704 65.7367 75.9136 65.6774L73.3374 62.9764C73.2393 62.8791 73.1017 62.8254 72.959 62.8316C72.8166 62.8361 72.6825 62.897 72.5921 63.0001C71.8033 63.8909 71.0677 65.0716 70.0641 65.8176C69.8866 65.9482 69.817 66.168 69.9009 66.3641C69.9856 66.5601 70.1999 66.6785 70.4233 66.6536L75.7398 66.6518C75.9681 66.6579 76.1699 66.5219 76.2349 66.3197C76.292 66.1464 76.2344 65.96 76.0948 65.8408Z" fill="#F1B71C"/>
<path d="M67.0862 18.0313L65.3515 17.8387C64.7571 18.1654 64.1856 18.5238 63.6479 18.9293V20.1777C64.6712 19.2992 65.8232 18.5655 67.0862 18.0313Z" fill="#F1B71C"/>
<path d="M63.6479 22.5027V24.1195C65.4468 21.3592 68.6097 19.5915 72.0934 19.4811C72.1744 19.4785 72.3 19.4769 72.4378 19.4769C73.5387 19.4769 74.6139 19.6633 75.6384 19.9793L74.7706 18.8863L74.7715 18.8836L74.7072 18.8783L71.8859 18.5647C68.6363 18.714 65.6534 20.1762 63.6479 22.5027Z" fill="#F1B71C"/>
<path d="M72.147 21.0777C69.0492 21.1758 66.2344 22.8348 64.8016 25.4089L63.6479 27.4811V29.5023L65.6865 25.8405C66.9524 23.565 69.4418 22.0975 72.1841 22.011C72.2492 22.0083 72.3351 22.0075 72.439 22.0075C75.0737 22.0075 77.5631 23.3153 78.9365 25.4204L82.8559 31.4308C82.9766 31.6154 83.2163 31.6985 83.436 31.6311L84.0992 31.4289V30.6412L83.9748 30.4842L83.5022 30.629L80.7922 26.4736L78.1133 23.0963C76.5586 21.8238 74.5449 21.0735 72.4392 21.0735C72.3197 21.0732 72.2224 21.0751 72.147 21.0777Z" fill="#F1B71C"/>
<path d="M77.4798 26.2525C76.414 24.6191 74.483 23.6044 72.4387 23.6044C72.3699 23.6044 72.3 23.6052 72.2386 23.6078C70.1133 23.6741 68.1814 24.813 67.1995 26.5791L63.6479 32.9587V34.9118C63.6696 34.887 63.7056 34.8766 63.7224 34.8475L68.0844 27.0103C68.9014 25.5428 70.5059 24.5961 72.2746 24.5406C72.3265 24.5387 72.3822 24.5379 72.4387 24.5379C74.1377 24.5379 75.7422 25.382 76.628 26.7391L81.6623 34.457C81.7813 34.6423 82.0215 34.7246 82.2424 34.6583L84.0989 34.0915V33.1089L82.3075 33.6564L77.4798 26.2525Z" fill="#F1B71C"/>
<path d="M75.1712 27.5708C74.594 26.6851 73.5458 26.1351 72.4384 26.1351C72.4007 26.1351 72.3648 26.1359 72.3291 26.137C71.1774 26.1733 70.1301 26.7903 69.5974 27.7485L64.4298 37.0313L63.6479 36.8467V37.8101L64.5677 38.0265C64.7922 38.0794 65.0251 37.9814 65.1327 37.7898L70.4822 28.1796C70.8492 27.5209 71.5697 27.0954 72.3642 27.0705C73.1518 27.0441 73.9094 27.4282 74.3197 28.0586L80.4672 37.4843C80.5879 37.6688 80.8276 37.7519 81.0473 37.6857L84.0989 36.7543V35.7716L81.1132 36.6827L75.1712 27.5708Z" fill="#F1B71C"/>
<path d="M72.863 28.8899C72.7697 28.7459 72.5999 28.6621 72.4207 28.6674C72.2406 28.6728 72.0783 28.7681 71.9952 28.9172L65.8401 39.9746L63.6479 39.4572V40.4196L65.9787 40.9696C66.2022 41.0225 66.4362 40.9236 66.5429 40.7321L72.4715 30.0818L79.2727 40.5107C79.3934 40.6953 79.6331 40.7783 79.8537 40.7121L84.0986 39.4158V38.4331L79.9187 39.7091L72.863 28.8899Z" fill="#F1B71C"/>
<path d="M79.739 42.2801C78.9711 42.2801 78.2457 41.8994 77.8456 41.2859L73.0508 33.9332C72.9563 33.7885 72.7857 33.7027 72.6056 33.7081C72.4244 33.7142 72.2612 33.8104 72.1773 33.9605L68.0287 41.4136C67.6458 42.1033 66.891 42.5306 66.0629 42.5306C65.88 42.5306 65.6968 42.5095 65.5205 42.4679L63.6479 42.0263V42.9949L65.2742 43.3782C65.5316 43.4391 65.7978 43.47 66.0629 43.47C67.2674 43.47 68.3618 42.8485 68.9182 41.8479L72.6564 35.132L76.989 41.7747C77.57 42.6655 78.6238 43.2192 79.7387 43.2192C80.0782 43.2192 80.4141 43.169 80.7377 43.0699L84.0986 42.044V41.0567L80.4264 42.1772C80.2038 42.2456 79.9727 42.2801 79.739 42.2801Z" fill="#F1B71C"/>
<path d="M72.1165 78.3147C71.6742 78.3147 71.2422 78.3986 70.8336 78.5636L66.8377 80.1874L68.7987 80.4144L71.2333 79.4256C71.5144 79.3118 71.8115 79.2533 72.1162 79.2533C72.5163 79.2533 72.9021 79.3575 73.2405 79.5439L73.7716 78.7527C73.2751 78.4726 72.7072 78.3147 72.1165 78.3147Z" fill="#F1B71C"/>
<path d="M82.839 55.5731C83.2171 55.8397 83.6465 56.0147 84.0991 56.1047V55.1377C83.8651 55.068 83.6434 54.9647 83.4425 54.8234C82.702 54.3006 82.385 53.393 82.6538 52.562L84.0988 48.1003V44.8616L81.6944 52.289C81.3032 53.4956 81.7638 54.8148 82.839 55.5731Z" fill="#F1B71C"/>
<path d="M69.7435 76.3096L66.0704 77.802C65.5818 76.7186 64.7337 75.8198 63.6479 75.2086V76.3486C64.4204 76.92 65.0017 77.6847 65.3025 78.5747C65.3467 78.7011 65.444 78.8052 65.5733 78.8608C65.6403 78.8891 65.7111 78.9033 65.7818 78.9033C65.8506 78.9033 65.9185 78.8899 65.9827 78.8645L70.1435 77.1737C70.7708 76.9194 71.4331 76.7904 72.1142 76.7904L75.03 76.8804L75.6489 75.9579L72.1145 75.8491C71.2932 75.8489 70.4962 76.0033 69.7435 76.3096Z" fill="#F1B71C"/>
<path d="M81.6197 44.5021L81.2887 44.6028C80.7925 44.7548 80.2766 44.8315 79.7549 44.8315C78.0419 44.8315 76.4231 43.9813 75.5299 42.6126L73.2377 39.0983C73.1432 38.9527 72.9726 38.867 72.7914 38.8731C72.6102 38.8785 72.4469 38.9746 72.363 39.1255L70.434 42.5904C69.5785 44.1277 67.8966 45.0831 66.0449 45.0831C65.6366 45.0831 65.23 45.0353 64.8356 44.9426L63.6479 44.6619V47.4812L65.1147 52.8372C65.575 54.5176 64.9957 56.2551 63.6479 57.4032V58.5953C63.7139 58.5539 63.7858 58.5229 63.8497 58.4777C65.8164 57.1224 66.6956 54.817 66.0892 52.6043L64.2167 45.7674L64.5893 45.8548C65.0639 45.967 65.5544 46.0244 66.0449 46.0244C68.273 46.0244 70.2965 44.8748 71.3266 43.025L72.8436 40.2992L74.6716 43.1028C75.7459 44.7495 77.6938 45.7728 79.7549 45.7728C80.1833 45.7728 80.6087 45.7295 81.0256 45.6448L79.1052 51.5733C78.3835 53.8028 79.2336 56.2415 81.2211 57.6428C82.0586 58.2336 83.0605 58.5929 84.0992 58.7112V57.7691C83.2785 57.6569 82.4901 57.3594 81.8258 56.8914C80.175 55.7268 79.4676 53.6995 80.0674 51.8471L82.2569 45.086C82.3117 44.9191 82.2618 44.7364 82.1277 44.6135C81.9933 44.4907 81.7978 44.4474 81.6197 44.5021Z" fill="#F1B71C"/>
<path d="M64.8553 59.5291C64.4741 59.7922 64.0666 60.0094 63.6479 60.2001V61.2191C64.278 60.9718 64.8893 60.6761 65.4525 60.2885C68.323 58.3098 69.6068 54.9429 68.7222 51.7111L67.7468 48.1535C69.8588 47.7606 71.7238 46.6543 73.0048 45.0375C74.1311 46.3319 75.6244 47.3199 77.3477 47.7799L76.5004 50.5727C75.4469 53.8264 76.6873 57.3874 79.5889 59.4351C80.8935 60.3542 82.4744 60.8876 84.0989 61.0174V60.0745C82.6915 59.9474 81.3267 59.4786 80.1955 58.6813C77.6299 56.8722 76.5335 53.7235 77.4647 50.8457L78.4654 47.5795C78.5059 47.4542 78.4891 47.3172 78.4172 47.2042C78.3464 47.0904 78.2277 47.01 78.0899 46.9825C76.1683 46.5915 74.5015 45.4736 73.4017 43.961C73.3084 43.832 73.1526 43.7543 72.9857 43.7543C72.982 43.7543 72.9791 43.7551 72.9754 43.7551C72.8048 43.7577 72.6481 43.8416 72.5577 43.9776C71.3426 45.8089 69.3383 47.0221 67.0574 47.3055C66.9139 47.3231 66.7866 47.3974 66.7064 47.5085C66.6262 47.6207 66.6 47.7593 66.6356 47.8899L67.7468 51.9446C68.5296 54.8034 67.3938 57.7798 64.8553 59.5291Z" fill="#F1B71C"/>
<path d="M64.3111 73.4763C65.18 73.9309 65.9354 74.5263 66.5543 75.2467C66.6967 75.411 66.9393 75.4673 67.1476 75.3827L69.0512 74.6102C70.0237 74.2146 71.053 74.0151 72.1114 74.0151L75.6743 74.1246C76.0593 74.1246 76.4394 74.166 76.8166 74.2191L77.3959 73.3574C76.83 73.2498 76.2565 73.1817 75.6743 73.1817L72.1114 73.0722C70.9143 73.0722 69.7495 73.2982 68.6503 73.745L67.0899 74.3781C66.439 73.6868 65.6711 73.1074 64.8025 72.6536L63.6479 72.0489V73.1296L64.3111 73.4763Z" fill="#F1B71C"/>
<path d="M67.3019 72.3052C67.4463 72.4193 67.6464 72.4457 67.8199 72.376L68.0142 72.2964C69.3189 71.7675 70.6997 71.4983 72.1205 71.4983L75.6484 71.607C76.868 71.607 78.0679 71.8073 79.2142 72.2013L79.9358 72.4503C79.9923 72.4698 80.0508 72.4786 80.1085 72.4786C80.234 72.4786 80.3585 72.4345 80.4529 72.3506C80.8367 72.009 81.2548 71.6911 81.6954 71.4059L84.0989 69.8484V68.7129L81.1275 70.6387C80.7314 70.8949 80.3522 71.1756 79.9955 71.4759L79.5586 71.3249C78.301 70.8922 76.9853 70.6732 75.6486 70.6732L72.1208 70.5656C70.5927 70.5656 69.106 70.849 67.7014 71.4069C67.2306 71.0608 66.7281 70.7464 66.2025 70.4718L63.6479 69.1349V70.205L65.7156 71.2865C66.2784 71.5803 66.8114 71.9238 67.3019 72.3052Z" fill="#F1B71C"/>
<path d="M66.5392 61.7227C65.6486 62.3362 64.6752 62.8052 63.6479 63.1212V64.0801C64.8875 63.7348 66.0655 63.2086 67.1307 62.4748C70.8652 59.9002 72.5348 55.5196 71.384 51.314L70.9708 49.8588L72.6196 48.7084L74.0817 49.5596L73.9291 50.1168C72.5577 54.3507 74.1234 58.9493 77.8984 61.6123C79.685 62.8723 81.8677 63.5823 84.0986 63.6971V62.7638C82.0837 62.6501 80.1131 62.0045 78.4982 60.8663C75.0562 58.4391 73.6337 54.2492 74.8836 50.3871L75.0976 49.6083C75.1675 49.3911 75.0608 49.1632 74.8542 49.0617C74.8468 49.0572 74.8411 49.0511 74.8334 49.0476L73.0296 47.9455C73.0165 47.9386 73.0088 47.9287 72.9948 47.9217C72.9874 47.9183 72.9797 47.9148 72.9723 47.911L72.9572 47.9022C72.9469 47.8961 72.9326 47.8915 72.9195 47.8862C72.6978 47.7839 72.4723 47.7139 72.2789 47.8579L70.2026 49.3529C70.0479 49.4667 69.98 49.6558 70.0291 49.835L70.4178 51.5461C71.4679 55.3812 69.9446 59.3758 66.5392 61.7227Z" fill="#F1B71C"/>
<path d="M79.5132 68.5704C79.4727 68.5968 79.4322 68.6233 79.3917 68.6508C78.1664 68.3257 76.9005 68.1617 75.6241 68.1617L72.1425 68.0548C70.7916 68.0548 69.4587 68.2375 68.1777 68.5971C67.9891 68.4876 67.7976 68.3807 67.6033 68.28L64.4056 66.6058C65.9799 66.1864 67.4535 65.5082 68.7995 64.5803C70.4805 63.4219 71.8605 61.4052 72.8313 59.6992C73.7293 61.0545 74.8728 62.7471 76.2396 63.7122C78.2337 65.118 80.6278 65.9946 83.103 66.2455L79.5132 68.5704ZM73.2308 58.5007C73.1421 58.3452 72.9657 58.2517 72.7791 58.256C72.5913 58.2621 72.4235 58.3682 72.3462 58.5287C71.4445 60.4201 70.0163 62.5965 68.2154 63.838C66.8288 64.7935 65.291 65.446 63.6479 65.8194V67.2647L67.1222 69.0837C67.3664 69.2109 67.607 69.3468 67.8381 69.4863C67.9617 69.5605 68.1146 69.5798 68.2542 69.5376C69.5069 69.1649 70.8153 68.9761 72.1425 68.9761L75.6241 69.0829C76.8862 69.0829 78.137 69.2552 79.3417 69.5961C79.3888 69.6094 79.4359 69.6164 79.485 69.6164C79.5877 69.6164 79.6896 69.5854 79.7755 69.5271C79.8802 69.4548 79.9772 69.3904 80.0725 69.3284L84.0986 66.7193V65.379C81.4865 65.2889 78.9217 64.45 76.8314 62.9755C75.3288 61.9162 74.1174 60.0646 73.2308 58.5007Z" fill="#F1B71C"/>
<path d="M5.62726 92.6887C6.13663 92.6887 6.58093 93.0897 6.58093 93.5814C6.58093 94.0582 6.15375 94.4733 5.62726 94.4733C5.0848 94.4733 4.67446 94.0734 4.67446 93.5814C4.67446 93.1035 5.10192 92.6887 5.62726 92.6887ZM3.13039 92.6887C3.67285 92.6887 4.0832 93.0736 4.0832 93.5814C4.0832 94.0731 3.67285 94.4733 3.13039 94.4733C2.58792 94.4733 2.19385 94.0734 2.19385 93.5814C2.19356 93.1035 2.6039 92.6887 3.13039 92.6887ZM6.16973 97.1644C6.16973 97.1644 5.4472 96.8422 4.36228 96.8422C2.98229 96.8422 2.14448 97.7958 2.14448 99.1794C2.14448 100.764 2.94919 101.579 4.88847 101.579H6.16944L6.16973 97.1644ZM4.67446 102.917C1.503 102.917 0.32019 101.533 0.32019 99.333C0.32019 97.319 1.6511 95.5035 4.54348 95.5035C6.43283 95.5035 7.9281 96.0423 7.9281 96.0423V101.579H9.85055V102.917H4.67446Z" fill="#818385"/>
<path d="M13.8764 104.194C14.3857 104.194 14.8292 104.594 14.8292 105.087C14.8292 105.563 14.402 105.979 13.8764 105.979C13.3339 105.979 12.9236 105.579 12.9236 105.087C12.9236 104.594 13.3499 104.194 13.8764 104.194ZM11.3786 104.194C11.9051 104.194 12.3323 104.594 12.3323 105.087C12.3323 105.563 11.9211 105.979 11.3786 105.979C10.8533 105.979 10.4418 105.579 10.4418 105.087C10.4418 104.594 10.853 104.194 11.3786 104.194ZM9.60428 102.917C9.27612 102.917 8.61865 102.671 8.61865 102.241C8.61865 101.841 9.27612 101.58 9.60428 101.58H11.7898V95.6882H13.5802V102.917H9.60428Z" fill="#818385"/>
<path d="M15.9144 101.579H21.0083C20.9262 98.9953 19.7434 97.503 16.9822 96.7799L17.4265 95.3653C21.0083 96.3189 22.7827 98.1953 22.7827 102.04V102.917H15.9144V101.579Z" fill="#818385"/>
<path d="M30.7019 97.165C30.7019 97.165 29.9794 96.8418 28.8945 96.8418C27.5145 96.8418 26.6767 97.7953 26.6767 99.1798C26.6767 100.764 27.4814 101.579 29.4207 101.579H30.7016L30.7019 97.165ZM24.9677 106.578L25.0998 105.178C25.0998 105.178 26.4298 105.47 27.6948 105.47C29.4372 105.47 30.7022 104.855 30.7022 103.225V102.918H29.2069C26.0355 102.918 24.8527 101.533 24.8527 99.3336C24.8527 97.3196 26.1836 95.5033 29.0759 95.5033C30.9653 95.5033 32.4606 96.0418 32.4606 96.0418V101.579H34.383V102.917H32.4606V103.102C32.4606 105.039 31.0966 106.809 27.5148 106.809C26.2658 106.809 24.9677 106.578 24.9677 106.578Z" fill="#818385"/>
<path d="M40.2003 100.179C41.0218 99.5797 41.4493 98.8574 41.4493 98.1335C41.4493 97.3496 40.9228 96.7189 39.74 96.7189C38.7213 96.7189 37.5385 97.3803 36.8648 97.8111C38.1628 98.2879 39.1325 99.3184 40.2003 100.179ZM34.1367 102.917C33.8086 102.917 33.1511 102.671 33.1511 102.24C33.1511 101.841 33.8086 101.579 34.1367 101.579H34.5479C36.2564 101.579 37.6695 101.333 38.7701 100.918C37.6532 99.9491 36.6014 98.8876 35.0402 98.4418L35.1883 97.2419C36.4864 96.3661 38.3107 95.4582 39.9538 95.4582C42.2865 95.4582 43.2394 96.6262 43.2394 97.919C43.2394 98.9795 42.5987 100.103 41.3828 101.01C42.0072 101.348 42.6977 101.579 43.5193 101.579H44.324V102.917H43.2893C41.8753 102.917 40.8404 102.472 39.9538 101.856C38.5398 102.503 36.7004 102.917 34.4817 102.917H34.1367Z" fill="#818385"/>
<path d="M51.5878 101.764C51.2925 102.425 50.4701 103.041 49.0898 103.041C47.9889 103.041 47.1674 102.533 46.9371 101.764C46.6089 102.502 45.9515 102.917 44.7356 102.917H44.0781C43.7499 102.917 43.0925 102.671 43.0925 102.241C43.0925 101.841 43.7499 101.579 44.0781 101.579H44.7356C45.8693 101.579 46.3458 101.133 46.3458 99.5642V96.6105H48.1533V99.4413C48.1533 100.934 48.2523 101.703 49.4183 101.703C50.356 101.703 50.9635 101.194 50.9635 99.4562V95.9959H52.7047V99.9021C52.7047 101.332 53.264 101.579 54.9234 101.579H55.4168C55.4989 100.933 55.5318 100.102 55.5318 99.5636C55.5318 97.9637 55.3177 96.5333 55.0224 95.3802L56.7799 95.1339C57.1092 96.3188 57.3392 97.841 57.3392 99.441C57.3392 100.102 57.3061 100.856 57.2402 101.579H59.0805V102.916H54.8412C52.9359 102.917 52.0473 102.671 51.5878 101.764Z" fill="#818385"/>
<path d="M58.8348 102.917C58.5066 102.917 57.8492 102.671 57.8492 102.241C57.8492 101.841 58.5066 101.579 58.8348 101.579H61.0204V92.0733H62.8115V102.917H58.8348Z" fill="#818385"/>
<path d="M66.0315 93.3658C65.6532 93.3049 65.226 93.2432 64.7985 93.2122V92.1817C65.7522 92.089 66.721 92.0281 67.8387 92.058V102.917H66.0313V93.3658H66.0315Z" fill="#818385"/>
<path d="M80.2453 99.2256C80.2453 97.5338 79.5057 96.8417 78.257 96.8417C76.8938 96.8417 76.0383 97.7961 76.0383 99.1789C76.0383 100.795 76.8598 101.579 78.7994 101.579H80.2456V99.2256H80.2453ZM78.7172 102.918C77.1401 102.918 76.4666 102.502 76.0061 101.964V102.964C76.0551 105.148 75.0204 106.963 72.0621 106.963L72.1281 105.625C74.1647 105.625 74.2477 104.04 74.2477 102.918V99.6111C74.2477 97.1651 75.7099 95.5043 78.4219 95.5043C80.8697 95.5043 82.0197 96.811 82.0197 98.9956V101.579H83.4328V102.918H78.7172Z" fill="#818385"/>
<path d="M83.1861 102.917C82.8568 102.917 82.2004 102.671 82.2004 102.241C82.2004 101.841 82.857 101.579 83.1861 101.579H83.8435C84.9772 101.579 85.4538 101.133 85.4538 99.5646V96.6109H87.2612V99.4409C87.2612 100.933 87.3594 101.702 88.5262 101.702C89.4631 101.702 90.0714 101.194 90.0714 99.457V95.9966H91.8127V99.9028C91.8127 101.333 92.3711 101.579 94.0305 101.579H94.5239C94.6061 100.933 94.6389 100.102 94.6389 99.5646C94.6389 97.9646 94.4257 96.5343 94.1295 95.3812L95.8879 95.1349C96.216 96.319 96.4472 97.842 96.4472 99.4412C96.4472 100.518 96.3482 101.856 96.2001 102.918H93.9483C92.0418 102.918 91.1552 102.671 90.6949 101.765C90.3996 102.426 89.5781 103.04 88.1981 103.04C87.0972 103.04 86.2748 102.533 86.0453 101.765C85.716 102.503 85.0586 102.918 83.8438 102.918H83.1861V102.917Z" fill="#818385"/>
<path d="M99.4866 93.3658C99.1094 93.3049 98.6811 93.2432 98.2536 93.2122V92.1817C99.2073 92.089 100.177 92.0281 101.294 92.058V102.917H99.4863L99.4866 93.3658Z" fill="#818385"/>
<path d="M109.593 97.165C109.593 97.165 108.87 96.8418 107.785 96.8418C106.405 96.8418 105.567 97.7953 105.567 99.1798C105.567 100.764 106.372 101.579 108.312 101.579H109.593V97.165ZM103.859 106.578L103.99 105.178C103.99 105.178 105.321 105.47 106.586 105.47C108.328 105.47 109.593 104.855 109.593 103.225V102.918H108.098C104.926 102.918 103.743 101.533 103.743 99.3336C103.743 97.3196 105.074 95.5033 107.965 95.5033C109.856 95.5033 111.351 96.0418 111.351 96.0418V101.579H113.273V102.917H111.351V103.102C111.351 105.039 109.987 106.809 106.405 106.809C105.156 106.809 103.859 106.578 103.859 106.578Z" fill="#818385"/>
<path d="M120.438 99.2256C120.438 97.5338 119.699 96.8417 118.45 96.8417C117.053 96.8417 116.215 97.7961 116.215 99.1789C116.215 100.795 117.037 101.579 118.976 101.579H120.438V99.2256H120.438ZM113.028 102.918C112.698 102.918 112.041 102.671 112.041 102.24C112.041 101.841 112.698 101.579 113.028 101.579H114.555C115.13 101.579 115.492 101.672 115.492 101.672C114.786 101.226 114.408 100.457 114.408 99.2569C114.408 97.2728 115.821 95.5043 118.598 95.5043C121.046 95.5043 122.197 96.811 122.197 98.9956V102.918H113.028V102.918Z" fill="#818385"/>
<path d="M16.0212 111.185C15.4296 111.001 14.7394 110.893 14.0987 110.893C12.7187 110.893 12.045 111.431 12.045 112.293C12.045 114.4 16.9908 113.692 16.9908 117.061C16.9908 118.876 15.5118 120.199 12.8166 120.199C11.9129 120.199 11.0092 120.091 10.2866 119.922L10.4998 118.306C11.2232 118.568 12.0941 118.752 12.9316 118.752C14.1806 118.752 15.1012 118.306 15.1012 117.23C15.1012 115.046 10.1876 115.815 10.1876 112.462C10.1876 110.723 11.6498 109.509 14.2137 109.509C14.8381 109.509 15.5937 109.586 16.2021 109.709L16.0212 111.185Z" fill="#818385"/>
<path d="M23.2187 116.553C20.7869 116.553 20.1123 117.153 20.1123 117.876C20.1123 118.461 20.5395 118.907 21.2301 118.907C22.4129 118.907 23.2185 117.814 23.2185 116.784L23.2187 116.553ZM26.4065 119.922C25.4868 120.029 24.3028 120.09 23.3332 120.06C23.3332 119.552 23.3503 119.045 23.4162 118.63L23.3991 118.614C23.0047 119.522 21.986 120.183 20.7042 120.183C19.2919 120.183 18.4045 119.306 18.4045 118.077C18.4045 116.354 20.2119 115.43 23.219 115.43V115.046C23.219 114.031 22.8078 113.523 21.6088 113.523C20.8523 113.523 19.8995 113.739 19.127 114.047L18.8317 112.77C19.7354 112.478 20.8192 112.247 21.8059 112.247C24.2209 112.247 24.9774 113.246 24.9774 114.924V118.768C25.3706 118.83 25.9302 118.891 26.4065 118.922V119.922Z" fill="#818385"/>
<path d="M36.5444 119.921C35.6247 120.029 34.4248 120.091 33.4551 120.06C33.4551 119.644 33.4882 118.999 33.5701 118.537H33.537C33.0608 119.522 32.0749 120.183 30.7109 120.183C28.8375 120.183 28.2631 119.091 28.2631 117.753V113.676C27.8687 113.616 27.3094 113.555 26.8331 113.524V112.523C27.7859 112.416 29.0018 112.355 30.0214 112.385V117.307C30.0214 118.26 30.3005 118.814 31.2373 118.814C32.4524 118.814 33.3729 117.615 33.3729 116.076V112.4H35.1153V118.767C35.5097 118.829 36.0681 118.891 36.5444 118.922V119.921Z" fill="#818385"/>
<path d="M42.9368 113.723C42.4933 113.631 42.0661 113.585 41.6387 113.585C40.2416 113.585 39.289 114.385 39.289 116.43C39.289 117.984 39.7984 118.845 40.9161 118.845C42.2302 118.845 42.9368 117.415 42.9368 116.076V113.723ZM46.1079 119.922C45.2042 120.029 43.9883 120.091 43.0187 120.06C43.0187 119.629 43.0518 119.045 43.1337 118.614H43.1006C42.6571 119.553 41.6883 120.198 40.4396 120.198C38.4341 120.198 37.4485 118.814 37.4485 116.615C37.4485 113.969 39.0756 112.277 41.7209 112.277C42.1152 112.277 42.4933 112.292 42.9368 112.354V110.094C42.5424 110.031 41.984 109.97 41.5077 109.939V108.94C42.4274 108.832 43.6102 108.77 44.6792 108.801V118.767C45.0724 118.829 45.632 118.891 46.1082 118.922V119.922H46.1079Z" fill="#818385"/>
<path d="M48.9671 111.047C48.3596 111.047 47.8502 110.601 47.8502 110.032C47.8502 109.463 48.3596 108.986 48.9671 108.986C49.5915 108.986 50.1011 109.448 50.1011 110.032C50.1009 110.586 49.5915 111.047 48.9671 111.047ZM48.0962 120.044V113.677C47.7019 113.616 47.1434 113.554 46.666 113.523V112.524C47.5866 112.415 48.7697 112.355 49.8375 112.385V120.045H48.0962V120.044Z" fill="#818385"/>
<path d="M61.2903 111.185C60.6988 111.001 60.0085 110.893 59.3679 110.893C57.9879 110.893 57.3133 111.431 57.3133 112.293C57.3133 114.4 62.26 113.692 62.26 117.061C62.26 118.876 60.781 120.199 58.0858 120.199C57.1821 120.199 56.2783 120.091 55.5558 119.922L55.769 118.306C56.4915 118.568 57.3633 118.752 58.2008 118.752C59.4498 118.752 60.3704 118.306 60.3704 117.23C60.3704 115.046 55.4568 115.815 55.4568 112.462C55.4568 110.723 56.919 109.509 59.4829 109.509C60.1073 109.509 60.8629 109.586 61.4713 109.709L61.2903 111.185Z" fill="#818385"/>
<path d="M68.8995 115.338C68.9326 114.124 68.2911 113.477 67.2562 113.477C66.2705 113.477 65.5469 114.154 65.4159 115.338H68.8995ZM70.3945 119.722C69.4908 120.014 68.488 120.184 67.5352 120.184C64.9884 120.184 63.5913 118.968 63.5913 116.276C63.5913 113.985 64.9884 112.262 67.354 112.262C69.6877 112.262 70.6576 113.693 70.6576 115.445C70.6576 115.969 70.6077 116.461 70.6077 116.461H65.3828C65.3657 118.091 66.1224 118.892 67.7487 118.892C68.5542 118.892 69.359 118.753 70.1965 118.491L70.3945 119.722Z" fill="#818385"/>
<path d="M76.8678 116.553C74.4369 116.553 73.7626 117.153 73.7626 117.876C73.7626 118.461 74.1897 118.907 74.8803 118.907C76.0631 118.907 76.8678 117.814 76.8678 116.784V116.553ZM80.0561 119.922C79.1356 120.029 77.9525 120.09 76.9828 120.06C76.9828 119.552 76.9999 119.045 77.0659 118.63L77.0487 118.614C76.6544 119.522 75.6357 120.183 74.3538 120.183C72.9407 120.183 72.0541 119.306 72.0541 118.077C72.0541 116.354 73.8616 115.43 76.8678 115.43V115.046C76.8678 114.031 76.4575 113.523 75.2584 113.523C74.5019 113.523 73.5491 113.739 72.7767 114.047L72.4813 112.77C73.385 112.478 74.4688 112.247 75.4547 112.247C77.8706 112.247 78.6262 113.246 78.6262 114.924V118.768C79.0206 118.83 79.5799 118.891 80.0564 118.922V119.922H80.0561Z" fill="#818385"/>
<path d="M85.8068 113.723C85.3465 113.584 84.7881 113.492 84.2627 113.492C83.3262 113.492 82.8496 113.845 82.8496 114.4C82.8496 115.891 86.4973 115.169 86.4973 117.783C86.4973 119.122 85.3305 120.183 83.0457 120.183C82.3722 120.183 81.6665 120.105 81.14 119.983L81.255 118.583C81.7804 118.767 82.536 118.89 83.1604 118.89C84.13 118.89 84.6725 118.537 84.6725 117.937C84.6725 116.415 81.0579 117.168 81.0579 114.538C81.0579 113.276 82.1416 112.246 84.3774 112.246C84.8868 112.246 85.4452 112.307 85.9215 112.384L85.8068 113.723Z" fill="#818385"/>
<path d="M91.7563 113.63C90.4745 113.63 89.6367 114.508 89.6367 116.215C89.6367 117.891 90.4083 118.798 91.7232 118.798C92.9231 118.798 93.8097 117.998 93.8097 116.231C93.8097 114.554 93.0373 113.63 91.7563 113.63ZM91.5751 120.183C89.3074 120.183 87.8284 118.983 87.8284 116.368C87.8284 114.046 89.2583 112.261 91.8705 112.261C94.155 112.261 95.6332 113.461 95.6332 116.076C95.6332 118.398 94.2041 120.183 91.5751 120.183Z" fill="#818385"/>
<path d="M103.11 120.045V115.139C103.11 114.184 102.831 113.631 101.894 113.631C100.661 113.631 99.7413 114.832 99.7413 116.369V120.045H98.0001V113.678C97.6057 113.616 97.0464 113.554 96.5701 113.523V112.525C97.4898 112.416 98.6738 112.354 99.6754 112.386C99.6754 112.816 99.6434 113.462 99.5441 113.908H99.5772C100.053 112.924 101.039 112.262 102.403 112.262C104.26 112.262 104.851 113.355 104.851 114.693V120.045H103.11V120.045Z" fill="#818385"/>
<path d="M111.638 113.723C111.178 113.584 110.619 113.492 110.094 113.492C109.157 113.492 108.68 113.845 108.68 114.4C108.68 115.891 112.328 115.169 112.328 117.783C112.328 119.122 111.161 120.183 108.878 120.183C108.204 120.183 107.498 120.105 106.971 119.983L107.086 118.583C107.613 118.767 108.368 118.89 108.993 118.89C109.961 118.89 110.504 118.537 110.504 117.937C110.504 116.415 106.889 117.168 106.889 114.538C106.889 113.276 107.973 112.246 110.209 112.246C110.718 112.246 111.277 112.307 111.753 112.384L111.638 113.723Z" fill="#818385"/>
</svg>
