<svg width="218" height="48" viewBox="0 0 218 48" fill="none" xmlns="http://www.w3.org/2000/svg">
<path d="M198.697 0.330566C188.197 0.330566 179.697 8.83057 179.697 19.3306C179.697 29.8306 188.197 38.3306 198.697 38.3306C209.197 38.3306 217.697 29.8306 217.697 19.3306C217.697 8.83057 209.097 0.330566 198.697 0.330566ZM213.997 26.6306C212.897 29.1306 210.697 30.8306 207.997 31.3306C206.397 31.6306 204.797 31.3306 203.397 30.5306C201.697 29.5306 200.097 28.3306 198.697 27.0306C196.797 25.4306 194.597 24.1306 192.197 23.3306C190.597 22.8306 188.997 22.6306 187.297 22.7306C187.197 22.7306 187.197 22.6306 187.197 22.6306C187.197 22.5306 187.297 22.5306 187.297 22.5306C189.197 22.0306 191.097 21.8306 193.097 22.1306C194.697 22.3306 196.197 22.7306 197.697 23.3306C197.897 21.1306 197.797 19.0306 197.497 16.8306C196.097 17.3306 194.997 18.3306 194.397 19.6306C194.397 19.7306 194.297 19.7306 194.197 19.7306L194.097 19.6306C194.197 17.8306 195.097 16.1306 196.497 15.0306C194.297 14.5306 191.997 15.8306 190.597 17.4306C190.597 17.5306 190.497 17.5306 190.397 17.4306C190.297 17.4306 190.297 17.3306 190.397 17.2306C191.397 14.7306 193.597 12.8306 196.197 12.2306C195.097 11.1306 192.897 11.3306 191.397 11.6306C191.297 11.6306 191.297 11.6306 191.197 11.5306C191.197 11.4306 191.197 11.4306 191.297 11.3306C193.097 10.1306 195.297 9.13056 197.397 9.93056C197.497 8.73057 197.997 7.53057 198.697 6.53057C198.697 6.43057 198.797 6.43057 198.897 6.53057C199.597 7.53057 199.997 8.73057 200.197 9.93056C202.297 9.13056 204.597 10.1306 206.297 11.3306C206.397 11.3306 206.397 11.4306 206.397 11.5306C206.397 11.6306 206.297 11.6306 206.197 11.6306C204.697 11.3306 202.497 11.1306 201.397 12.2306C203.997 12.8306 206.197 14.7306 207.197 17.2306C207.197 17.3306 207.197 17.3306 207.197 17.4306C207.097 17.4306 207.097 17.4306 206.997 17.4306C205.597 15.8306 203.197 14.5306 201.097 15.0306C202.497 16.2306 203.297 17.8306 203.497 19.6306C203.497 19.7306 203.497 19.7306 203.397 19.7306C203.297 19.7306 203.297 19.7306 203.297 19.6306C202.597 18.3306 201.497 17.3306 200.097 16.9306C199.797 19.0306 199.697 21.2306 199.897 23.4306C201.397 22.8306 202.897 22.4306 204.497 22.2306C206.397 22.0306 208.397 22.1306 210.297 22.6306C210.397 22.6306 210.397 22.7306 210.397 22.7306C210.397 22.8306 210.297 22.8306 210.297 22.8306C208.597 22.7306 206.997 22.9306 205.397 23.4306C203.997 23.8306 202.697 24.4306 201.497 25.3306C201.197 25.5306 200.897 25.7306 200.597 26.0306L201.397 26.7306C202.397 27.6306 203.397 28.3306 204.597 29.0306C205.597 29.6306 206.797 29.8306 207.997 29.6306C209.997 29.2306 211.697 27.8306 212.597 25.9306C214.397 22.0306 214.497 17.6306 212.797 13.6306C211.297 10.0306 208.397 7.13057 204.797 5.63057C202.997 4.83057 200.997 4.43057 198.997 4.43057C196.997 4.43057 194.997 4.83057 193.097 5.63057C187.497 7.93057 183.897 13.4306 183.897 19.4306C183.897 22.1306 184.697 26.0306 186.997 28.1306C188.097 29.2306 189.697 29.7306 191.197 29.6306C193.097 29.5306 194.597 28.2306 196.297 26.9306C196.797 27.3306 197.297 27.7306 197.797 28.2306C196.897 29.0306 195.997 29.7306 194.997 30.4306C193.897 31.1306 192.697 31.5306 191.397 31.6306H190.897C188.997 31.6306 187.197 30.9306 185.797 29.6306C184.497 28.3306 183.497 26.6306 182.897 24.8306C182.297 23.1306 181.997 21.2306 181.997 19.4306C181.997 10.0306 189.597 2.43057 198.997 2.43057C201.297 2.43057 203.497 2.93057 205.597 3.73057C209.697 5.43057 212.897 8.73057 214.697 12.8306C215.597 14.9306 216.097 17.1306 216.097 19.4306C216.097 20.6306 215.997 21.9306 215.697 23.1306C215.097 24.2306 214.697 25.4306 213.997 26.6306Z" fill="#093B71"/>
<path d="M198.697 31.2306L193.197 35.3306H204.097L198.697 31.2306Z" fill="#00B189"/>
<path d="M120.997 5.63055H119.197V17.4306H120.997V5.63055Z" fill="#093B71"/>
<path d="M115.297 15.7306H112.097V9.53056C110.397 9.53056 108.397 9.33055 106.897 10.3306C105.797 11.0306 105.297 12.3306 105.297 13.5306C105.197 14.5306 105.597 15.6306 106.397 16.3306C107.497 17.2306 108.897 17.6306 110.297 17.5306C110.297 18.1306 109.797 18.7306 109.197 18.8306L109.497 20.6306C110.997 20.4306 112.097 19.1306 112.197 17.6306H117.197V5.63055H115.397L115.297 15.7306ZM110.297 15.7306C109.297 15.8306 108.397 15.6306 107.697 15.0306C107.297 14.6306 107.097 14.0306 107.197 13.5306C107.097 12.8306 107.397 12.2306 107.997 11.8306C108.697 11.4306 109.497 11.2306 110.297 11.3306H110.397L110.297 15.7306Z" fill="#093B71"/>
<path d="M138.397 10.8306H134.097L136.697 7.33059L135.297 6.23059L131.997 10.6306C131.697 11.0306 131.597 11.5306 131.797 12.0306C131.997 12.5306 132.397 12.8306 132.897 12.8306H138.297C139.197 12.8306 139.897 12.8306 140.197 13.1306C140.597 13.5306 140.597 14.9306 140.597 15.9306H130.097C129.897 15.9306 129.697 15.9306 129.497 15.8306C129.097 15.6306 129.097 15.4306 129.097 15.3306V9.83059H127.297V17.7306C127.297 18.0306 127.197 18.2306 127.097 18.4306C126.697 18.6306 126.297 18.7306 125.897 18.5306L125.597 20.3306C126.697 20.6306 127.797 20.3306 128.597 19.5306C128.997 18.9306 129.197 18.3306 129.197 17.5306C129.497 17.6306 129.897 17.7306 130.197 17.7306H141.597H142.497V16.9306C142.597 14.1306 142.297 12.7306 141.597 11.9306C140.897 11.1306 139.497 10.9306 138.397 10.8306Z" fill="#093B71"/>
<path d="M162.697 15.7306H160.097C159.197 15.5306 159.397 14.4306 159.397 13.6306C159.497 11.3306 157.797 9.43055 155.497 9.33055C153.197 9.23056 151.297 10.9306 151.197 13.2306C151.197 13.3306 151.197 13.5306 151.197 13.6306C151.197 14.4306 151.397 15.5306 150.497 15.7306H148.097C147.697 15.7306 147.297 15.5306 146.997 15.2306V9.63055H145.197V17.5306C145.197 17.8306 145.097 18.0306 144.997 18.2306C144.597 18.4306 144.197 18.5306 143.797 18.3306L143.497 20.1306C144.597 20.4306 145.697 20.1306 146.497 19.3306C146.897 18.7306 147.097 18.0306 147.097 17.3306C147.397 17.4306 147.797 17.5306 148.197 17.5306H150.497C151.397 17.5306 151.697 16.9306 151.997 16.1306C153.197 18.0306 155.597 18.5306 157.497 17.4306C157.997 17.1306 158.397 16.7306 158.797 16.1306C158.997 16.9306 159.397 17.5306 160.297 17.5306H164.597V5.63055H162.697V15.7306ZM157.497 14.6306C157.097 15.8306 155.897 16.4306 154.697 16.1306C153.997 15.9306 153.397 15.3306 153.197 14.6306C152.797 13.7306 152.997 12.6306 153.697 11.8306C154.097 11.4306 154.697 11.1306 155.297 11.1306C155.897 11.1306 156.497 11.4306 156.897 11.8306C157.597 12.6306 157.797 13.7306 157.497 14.6306Z" fill="#093B71"/>
<path d="M168.697 5.63055H166.897V17.4306H168.697V5.63055Z" fill="#093B71"/>
<path d="M99.4967 9.53059H94.2967V5.73059H92.4967V15.8306H89.9967C89.5967 15.8306 88.9967 15.6306 88.9967 15.1306V9.63059H87.0967V15.1306C87.0967 15.6306 86.4967 15.8306 86.0967 15.8306H82.9967V9.83059H79.9967C79.2967 9.83059 78.4967 10.1306 77.8967 10.5306C77.0967 11.0306 76.6967 11.9306 76.6967 12.8306V15.8306C75.4967 15.8306 73.8967 15.8306 73.3967 15.7306C72.7967 15.6306 72.1967 15.5306 71.6967 15.2306L70.8967 16.8306C71.5967 17.2306 72.4967 17.5306 73.2967 17.5306C75.0967 17.7306 76.8967 17.6306 78.5967 17.6306V12.8306C78.5967 12.0306 79.5967 11.6306 79.9967 11.6306H81.1967V17.6306H86.1967C86.8967 17.6306 87.5967 17.4306 88.1967 17.0306C88.7967 17.4306 89.3967 17.7306 90.0967 17.6306H103.697V16.7306C103.797 13.4306 103.397 11.6306 102.397 10.5306C101.697 9.83059 100.597 9.43059 99.4967 9.53059ZM94.3967 15.8306V11.3306H99.5967C100.197 11.2306 100.697 11.4306 101.197 11.8306C101.697 12.4306 101.997 13.6306 101.997 15.8306H94.3967Z" fill="#093B71"/>
<path d="M64.4968 15.7306H61.8968C61.4968 15.7306 60.8968 15.5306 60.8968 15.0306V5.63055H58.9968V15.0306C58.9968 15.5306 58.3968 15.7306 57.9968 15.7306H56.1968C55.7968 15.7306 55.1968 15.5306 55.1968 15.0306V9.53056H53.2968V15.0306C53.2968 15.5306 52.6968 15.7306 52.2968 15.7306H50.0968C49.6968 15.7306 48.9968 15.5306 48.9968 15.0306V9.53056H47.1968V15.0306C47.1968 15.5306 46.5968 15.7306 46.1968 15.7306H42.8968V5.63055H41.0968V17.5306H46.1968C46.8968 17.5306 47.5968 17.3306 48.1968 16.9306C48.7968 17.3306 49.3968 17.6306 50.1968 17.5306H52.2968C52.9968 17.5306 53.6968 17.3306 54.2968 16.9306C54.8968 17.3306 55.5968 17.6306 56.2968 17.5306H57.9968C58.6968 17.5306 59.3968 17.3306 59.9968 16.9306C60.5968 17.3306 61.2968 17.6306 61.9968 17.5306H66.3968V5.63055H64.4968V15.7306Z" fill="#093B71"/>
<path d="M36.9968 9.53055C35.7968 9.43055 34.6968 9.73055 33.6968 10.3305C32.5968 11.0305 32.0968 12.3305 32.0968 13.5305C32.0968 14.3305 32.2968 15.0306 32.5968 15.7306H30.1968C29.7968 15.7306 29.1968 15.5305 29.1968 15.0305V9.53055H27.3968V15.0305C27.3968 15.5305 26.7968 15.7306 26.3968 15.7306H25.8968C25.4968 15.7306 24.8968 15.5305 24.8968 15.0305V10.3305H22.9968V15.0305C22.9968 15.5305 22.3968 15.7306 21.9968 15.7306H21.4968C21.0968 15.7306 20.4968 15.5305 20.4968 15.0305V11.1305H18.5968V15.0305C18.5968 15.5305 17.9968 15.7306 17.5968 15.7306H15.4968C15.0968 15.7306 14.4968 15.5305 14.4968 15.0305V9.53055H12.6968V15.0305C12.6968 15.5305 12.0968 15.7306 11.6968 15.7306H9.9968C9.1968 15.7306 8.0968 15.3305 8.0968 14.3305V9.53055H5.6968C4.5968 9.43055 3.4968 9.63055 2.4968 10.0305C1.1968 10.6305 0.296798 12.0305 0.396798 13.5305C0.396798 14.6305 0.796797 15.7305 1.5968 16.4305C3.1968 17.7305 5.3968 17.6305 6.9968 16.3305C7.7968 17.1305 8.8968 17.6305 9.9968 17.5305H11.5968C12.2968 17.5305 12.9968 17.3305 13.5968 16.8305C14.0968 17.2305 14.7968 17.4305 15.3968 17.5305H17.5968C18.2968 17.5305 18.9968 17.3305 19.5968 16.8305C20.1968 17.2305 20.7968 17.5305 21.5968 17.5305H22.0968C22.7968 17.5305 23.4968 17.3305 24.0968 16.8305C24.6968 17.2305 25.2968 17.5305 26.0968 17.5305H26.5968C27.2968 17.5305 27.9968 17.3305 28.5968 16.8305C29.1968 17.2305 29.7968 17.5305 30.5968 17.5305H39.0968V9.53055C38.1968 9.53055 37.5968 9.53055 36.9968 9.53055ZM6.0968 13.7306C6.0968 14.7306 5.2968 15.5305 4.2968 15.5305C4.1968 15.5305 4.1968 15.5305 4.0968 15.5305C3.5968 15.5305 3.0968 15.3305 2.6968 15.0305C2.2968 14.6305 2.0968 14.1305 2.0968 13.5305C1.9968 12.7305 2.4968 11.9305 3.1968 11.6305C3.9968 11.3305 4.8968 11.2306 5.6968 11.2306H6.0968V13.7306ZM36.9968 11.3305V15.7306H36.8968C35.9968 15.8306 35.0968 15.6305 34.3968 15.0305C33.9968 14.6305 33.8968 14.0305 33.8968 13.5305C33.7968 12.8305 34.0968 12.2305 34.6968 11.8305C35.3968 11.4305 36.1968 11.3305 36.9968 11.3305Z" fill="#093B71"/>
<path d="M87.5968 8.33054C88.0968 8.63054 88.6968 8.53054 88.9968 8.03054C89.2968 7.53054 89.1968 6.93054 88.6968 6.63054C88.1968 6.33054 87.5968 6.43054 87.2968 6.93054C86.9968 7.43054 87.0968 8.03054 87.5968 8.33054Z" fill="#093B71"/>
<path d="M127.497 8.33054C127.997 8.63054 128.597 8.53054 128.897 8.03054C129.197 7.53054 129.097 6.93054 128.597 6.63054C128.097 6.33054 127.497 6.43054 127.197 6.93054C126.897 7.43054 126.997 8.03054 127.497 8.33054Z" fill="#093B71"/>
<path d="M73.8968 18.6306C73.3968 18.8306 73.1968 19.4306 73.3968 19.9306C73.5968 20.4306 74.1968 20.6306 74.6968 20.4306C75.1968 20.2306 75.3968 19.6306 75.1968 19.1306C74.9968 18.6306 74.3968 18.3306 73.8968 18.6306Z" fill="#093B71"/>
<path d="M76.3968 18.6306C75.8968 18.8306 75.6968 19.4306 75.8968 19.9306C76.0968 20.4306 76.6968 20.6306 77.1968 20.4306C77.6968 20.2306 77.8968 19.6306 77.6968 19.1306C77.4968 18.6306 76.8968 18.4306 76.3968 18.6306Z" fill="#093B71"/>
<path d="M53.2967 7.93054C53.7967 7.73054 54.0967 7.13054 53.8967 6.63054C53.6967 6.13054 53.0967 5.83054 52.5967 6.03054C52.0967 6.23054 51.7967 6.83054 51.9967 7.33054C52.1967 7.93054 52.7967 8.13054 53.2967 7.93054Z" fill="#093B71"/>
<path d="M55.7967 8.03058C56.2967 7.83058 56.5967 7.23058 56.3967 6.73058C56.1967 6.23058 55.5967 5.93058 55.0967 6.13058C54.5967 6.33058 54.2967 6.93058 54.4967 7.43058C54.6967 7.93058 55.2967 8.23058 55.7967 8.03058Z" fill="#093B71"/>
<path d="M11.2968 18.6306C10.7968 18.8306 10.4968 19.4306 10.7968 19.9306C10.9968 20.4306 11.5968 20.7306 12.0968 20.4306C12.5968 20.2306 12.8968 19.6306 12.5968 19.1306C12.3968 18.6306 11.7968 18.4306 11.2968 18.6306Z" fill="#093B71"/>
<path d="M13.7968 18.6306C13.2968 18.8306 13.0968 19.4306 13.2968 19.9306C13.4968 20.4306 14.0968 20.6306 14.5968 20.4306C15.0968 20.2306 15.2968 19.6306 15.0968 19.1306C14.8968 18.6306 14.2968 18.4306 13.7968 18.6306Z" fill="#093B71"/>
<path d="M4.79681 7.9306C5.29681 7.73059 5.49681 7.1306 5.29681 6.6306C5.09681 6.1306 4.49681 5.9306 3.99681 6.1306C3.49681 6.3306 3.29681 6.9306 3.49681 7.4306C3.59681 7.9306 4.19681 8.2306 4.79681 7.9306Z" fill="#093B71"/>
<path d="M7.19679 7.93056C7.69679 7.73056 7.99679 7.13056 7.69679 6.63056C7.49679 6.13056 6.89679 5.83056 6.39679 6.13056C5.89679 6.33056 5.59679 6.93056 5.89679 7.43056C6.09679 7.93056 6.69679 8.23056 7.19679 7.93056Z" fill="#093B71"/>
<path d="M36.3967 7.93058C36.8967 8.23058 37.4967 8.13058 37.7967 7.63058C38.0967 7.13058 37.9967 6.53058 37.4967 6.23058C36.9967 5.93058 36.3967 6.03058 36.0967 6.53058C35.7967 7.03058 35.8967 7.63058 36.3967 7.93058Z" fill="#093B71"/>
<path d="M48.1968 8.03058C48.7968 8.03058 49.1968 7.63058 49.1968 7.03058C49.1968 6.43058 48.7968 6.03058 48.1968 6.03058C47.5968 6.03058 47.1968 6.43058 47.1968 7.03058C47.1968 7.63058 47.5968 8.03058 48.1968 8.03058Z" fill="#093B71"/>
<path d="M0.196777 27.1306H1.29678L3.89678 30.9306V27.1306H4.99678V32.8306H3.89678L1.39678 29.0306V32.8306H0.196777V27.1306Z" fill="#093B71"/>
<path d="M11.5968 32.8306H10.4968L10.0968 31.6306H7.89679L7.49679 32.8306H6.39679L8.49679 27.0306H9.69679L11.5968 32.8306ZM8.09679 30.7306H9.69679L8.89679 28.1306L8.09679 30.7306Z" fill="#093B71"/>
<path d="M13.4968 28.0306H11.7968V27.1306H16.2968V28.0306H14.5968V32.8306H13.4968V28.0306Z" fill="#093B71"/>
<path d="M18.6968 27.1306H17.5968V32.9306H18.6968V27.1306Z" fill="#093B71"/>
<path d="M25.4968 30.4306C25.5968 31.7306 24.5968 32.9306 23.2968 33.0306C23.1968 33.0306 23.0968 33.0306 22.8968 33.0306C21.5968 33.1306 20.3968 32.1306 20.2968 30.8306C20.2968 30.7306 20.2968 30.6306 20.2968 30.4306V29.6306C20.1968 28.3306 21.1968 27.1306 22.4968 27.0306C22.5968 27.0306 22.6968 27.0306 22.8968 27.0306C24.1968 26.9306 25.3968 27.9306 25.4968 29.2306C25.4968 29.3306 25.4968 29.4306 25.4968 29.6306V30.4306ZM24.3968 30.4306V29.4306C24.3968 28.5306 23.8968 27.8306 22.9968 27.8306C21.9968 27.8306 21.5968 28.5306 21.5968 29.4306V30.4306C21.5968 31.4306 21.9968 32.1306 22.9968 32.1306C23.9968 32.1306 24.3968 31.4306 24.3968 30.4306Z" fill="#093B71"/>
<path d="M27.0968 27.1306H28.1968L30.6968 30.9306V27.1306H31.7968V32.8306H30.6968L28.1968 29.0306V32.8306H27.0968V27.1306Z" fill="#093B71"/>
<path d="M38.3968 32.8306H37.1968L36.7968 31.6306H34.6968L34.2968 32.8306H33.1968L35.2968 27.0306H36.4968L38.3968 32.8306ZM34.9968 30.7306H36.6968L35.8968 28.1306L34.9968 30.7306Z" fill="#093B71"/>
<path d="M39.6968 27.1306H40.8968V31.9306H43.4968V32.8306H39.6968V27.1306Z" fill="#093B71"/>
<path d="M48.0968 30.4306V29.6306C47.9968 28.3306 48.8968 27.2306 50.1968 27.0306C50.3968 27.0306 50.4968 27.0306 50.6968 27.0306C51.8968 26.9306 52.9968 27.9306 53.0968 29.1306C53.0968 29.1306 53.0968 29.1306 53.0968 29.2306H51.9968C51.9968 28.5306 51.3968 28.0306 50.6968 28.0306C49.6968 28.0306 49.2968 28.7306 49.2968 29.6306V30.5306C49.2968 31.4306 49.6968 32.1306 50.6968 32.1306C51.3968 32.1306 51.9968 31.6306 51.9968 30.9306H53.0968C52.9968 32.1306 51.9968 33.1306 50.6968 33.1306C50.6968 33.1306 50.6968 33.1306 50.5968 33.1306C49.2968 33.2306 48.1968 32.3306 48.0968 31.0306C48.0968 30.7306 48.0968 30.5306 48.0968 30.4306Z" fill="#093B71"/>
<path d="M59.4967 30.4306C59.3967 31.8306 58.1967 32.9306 56.7967 32.8306C55.4967 32.7306 54.4967 31.7306 54.3967 30.4306V29.6306C54.4967 28.2306 55.6967 27.1306 57.0967 27.2306C58.3967 27.3306 59.3967 28.3306 59.4967 29.6306V30.4306ZM58.3967 30.4306V29.4306C58.3967 28.5306 57.8967 27.8306 56.9967 27.8306C56.0967 27.8306 55.5967 28.5306 55.5967 29.4306V30.4306C55.5967 31.4306 55.9967 32.1306 56.9967 32.1306C57.9967 32.1306 58.3967 31.4306 58.3967 30.4306Z" fill="#093B71"/>
<path d="M66.4968 32.8306H65.3968V29.3306L64.2968 31.4306H63.2968L62.1968 29.3306V32.8306H61.0968V27.1306H62.1968L63.7968 30.4306L65.3968 27.1306H66.4968V32.8306Z" fill="#093B71"/>
<path d="M68.1968 27.0306H70.5968C71.5968 26.9306 72.5968 27.6306 72.6968 28.7306C72.6968 28.8306 72.6968 28.9306 72.6968 29.0306C72.6968 30.1306 71.7968 31.0306 70.6968 31.0306H70.5968H69.3968V32.9306H68.1968V27.0306ZM70.5968 30.0306C71.1968 30.0306 71.5968 29.6306 71.6968 29.1306C71.6968 29.1306 71.6968 29.1306 71.6968 29.0306C71.6968 28.5306 71.2968 28.0306 70.7968 28.0306C70.6968 28.0306 70.6968 28.0306 70.5968 28.0306H69.3968V30.0306H70.5968Z" fill="#093B71"/>
<path d="M74.0968 27.1306H78.0968V28.0306H75.1968V29.4306H77.8968V30.4306H75.1968V31.9306H78.0968V32.8306H74.0968V27.1306Z" fill="#093B71"/>
<path d="M80.7968 28.0306H79.1968V27.1306H83.5968V28.0306H81.9968V32.8306H80.7968V28.0306Z" fill="#093B71"/>
<path d="M86.1968 27.1306H84.9968V32.9306H86.1968V27.1306Z" fill="#093B71"/>
<path d="M89.0968 28.0306H87.4968V27.1306H91.8968V28.0306H90.2968V32.8306H89.0968V28.0306Z" fill="#093B71"/>
<path d="M94.4968 27.1306H93.2968V32.9306H94.4968V27.1306Z" fill="#093B71"/>
<path d="M98.9968 32.8306H97.6968L95.7968 27.1306H96.8968L98.2968 31.6306L99.6968 27.1306H100.897L98.9968 32.8306Z" fill="#093B71"/>
<path d="M102.197 27.1306H106.197V28.0306H103.297V29.4306H105.997V30.4306H103.297V31.9306H106.197V32.8306H102.197V27.1306Z" fill="#093B71"/>
<path d="M107.697 27.1306H108.797L111.397 30.9306V27.1306H112.497V32.8306H111.397L108.897 29.0306V32.8306H107.697V27.1306Z" fill="#093B71"/>
<path d="M114.197 27.1306H118.297V28.0306H115.397V29.4306H117.997V30.4306H115.397V31.9306H118.297V32.8306H114.197V27.1306Z" fill="#093B71"/>
<path d="M119.597 31.2306V31.1306H120.697V31.2306C120.697 31.7306 121.097 32.1306 121.897 32.1306C122.697 32.1306 122.997 31.8306 122.997 31.3306C122.997 31.0306 122.797 30.7306 122.397 30.6306L120.897 30.2306C119.997 30.0306 119.597 29.6306 119.597 28.7306C119.597 27.6306 120.397 27.0306 121.697 27.0306C122.997 27.0306 123.797 27.7306 123.797 28.7306V28.8306H122.697V28.7306C122.697 28.2306 122.397 27.9306 121.697 27.9306C120.997 27.9306 120.697 28.1306 120.697 28.7306C120.697 29.0306 120.897 29.3306 121.197 29.3306L122.797 29.7306C123.497 29.8306 124.097 30.4306 124.097 31.2306C124.097 32.3306 123.097 33.0306 121.797 33.0306C120.497 33.0306 119.597 32.3306 119.597 31.2306Z" fill="#093B71"/>
<path d="M125.397 31.2306V31.1306H126.497V31.2306C126.497 31.7306 126.897 32.1306 127.697 32.1306C128.497 32.1306 128.797 31.8306 128.797 31.3306C128.797 31.0306 128.597 30.7306 128.197 30.6306L126.697 30.2306C125.797 30.0306 125.397 29.6306 125.397 28.7306C125.397 27.6306 126.197 27.0306 127.497 27.0306C128.797 27.0306 129.597 27.7306 129.597 28.7306V28.8306H128.697V28.7306C128.697 28.2306 128.397 27.9306 127.697 27.9306C126.997 27.9306 126.697 28.1306 126.697 28.7306C126.697 29.0306 126.897 29.3306 127.197 29.3306L128.797 29.7306C129.497 29.8306 130.097 30.5306 129.997 31.2306C129.997 32.3306 128.997 33.0306 127.697 33.0306C126.397 33.0306 125.397 32.3306 125.397 31.2306Z" fill="#093B71"/>
<path d="M134.597 30.4306V29.6306C134.497 28.3306 135.397 27.2306 136.697 27.0306C136.897 27.0306 136.997 27.0306 137.197 27.0306C138.497 26.9306 139.497 27.9306 139.597 29.1306H138.497C138.497 28.4306 137.897 27.8306 137.197 27.9306C136.197 27.9306 135.797 28.6306 135.797 29.5306V30.4306C135.797 31.3306 136.197 32.0306 137.197 32.0306C137.897 32.0306 138.497 31.5306 138.497 30.8306H139.597C139.497 32.1306 138.497 33.0306 137.197 33.0306C135.897 33.1306 134.797 32.2306 134.697 30.9306C134.597 30.7306 134.597 30.5306 134.597 30.4306Z" fill="#093B71"/>
<path d="M141.097 27.1306H145.097V28.0306H142.197V29.4306H144.797V30.4306H142.197V31.9306H145.097V32.8306H141.097V27.1306Z" fill="#093B71"/>
<path d="M146.597 27.1306H147.697L150.197 30.9306V27.1306H151.397V32.8306H150.297L147.697 29.0306V32.8306H146.597V27.1306Z" fill="#093B71"/>
<path d="M154.297 28.0306H152.697V27.1306H157.097V28.0306H155.497V32.8306H154.297V28.0306Z" fill="#093B71"/>
<path d="M158.397 27.1306H162.397V28.0306H159.597V29.4306H162.197V30.4306H159.597V31.9306H162.497V32.8306H158.397V27.1306Z" fill="#093B71"/>
<path d="M166.297 31.0306H165.097V32.8306H163.897V27.0306H166.497C167.497 26.9306 168.497 27.6306 168.597 28.7306C168.597 28.8306 168.597 28.9306 168.597 29.0306C168.597 29.8306 168.197 30.5306 167.497 30.8306L168.697 32.8306H167.397L166.297 31.0306ZM166.397 30.1306C166.997 30.1306 167.397 29.7306 167.497 29.2306C167.497 29.2306 167.497 29.2306 167.497 29.1306C167.497 28.5306 167.097 28.1306 166.497 28.1306C166.497 28.1306 166.497 28.1306 166.397 28.1306H165.097V30.0306L166.397 30.1306Z" fill="#093B71"/>
<path d="M147.697 47.5306C147.797 47.7306 148.097 47.8306 148.397 47.7306C148.597 47.6306 148.697 47.4306 148.597 47.1306C148.497 46.9306 148.197 46.8306 147.897 46.9306C147.697 47.0306 147.597 47.3306 147.697 47.5306Z" fill="#00B189"/>
<path d="M148.897 47.4306C148.997 48.1306 150.097 47.8306 149.797 47.1306C149.697 46.9306 149.397 46.7306 149.197 46.9306C148.997 47.0306 148.897 47.2306 148.897 47.4306Z" fill="#00B189"/>
<path d="M163.097 47.5306C163.197 47.8306 163.497 47.9306 163.697 47.8306C163.997 47.7306 164.097 47.4306 163.997 47.2306C163.897 47.0306 163.597 46.8306 163.397 46.9306C163.097 47.0306 162.997 47.2306 163.097 47.5306Z" fill="#00B189"/>
<path d="M164.297 47.4306C164.397 48.1306 165.497 47.8306 165.197 47.1306C165.097 46.8306 164.797 46.7306 164.597 46.8306C164.397 46.9306 164.197 47.1306 164.297 47.4306Z" fill="#00B189"/>
<path d="M167.497 42.1306V44.9306C167.497 45.2306 167.197 45.2306 166.997 45.2306H165.097C164.897 45.2306 164.597 45.1306 164.597 44.9306V42.1306H163.697V44.9306C163.697 45.2306 163.397 45.2306 163.197 45.2306H159.697C159.497 45.2306 159.197 45.1306 159.197 44.9306V42.1306H158.297V44.9306C158.297 45.4306 156.897 45.4306 156.897 44.9306V42.5306H155.997V44.9306C155.997 45.4306 154.697 45.4306 154.697 44.9306V42.9306H153.797V44.9306C153.797 45.2306 153.497 45.2306 153.297 45.2306H149.697C149.497 45.2306 149.197 45.1306 149.197 44.9306V42.1306H148.297V44.9306C148.297 45.2306 147.997 45.2306 147.797 45.2306H145.497C145.297 45.2306 144.997 45.1306 144.897 44.9306V42.0306H143.997V46.1306C143.997 46.5306 143.597 46.6306 143.297 46.5306L143.097 47.4306C143.697 47.5306 144.197 47.4306 144.597 47.0306C144.797 46.7306 144.897 46.4306 144.897 46.0306C145.097 46.1306 145.297 46.1306 145.497 46.1306H147.797C148.197 46.1306 148.497 46.0306 148.797 45.8306C149.097 46.0306 149.397 46.1306 149.797 46.1306H153.197C153.597 46.1306 153.897 46.0306 154.197 45.8306C154.897 46.3306 155.797 46.3306 156.497 45.8306C157.197 46.3306 158.097 46.3306 158.797 45.8306C159.097 46.0306 159.397 46.1306 159.797 46.1306H163.297C163.697 46.1306 163.997 46.0306 164.297 45.8306C164.597 46.0306 164.897 46.1306 165.297 46.1306H167.197C167.997 46.2306 168.597 45.6306 168.697 44.8306V42.0306H167.497V42.1306Z" fill="#00B189"/>
<path d="M166.297 41.1306C166.497 41.2306 166.797 41.2306 166.997 41.0306C167.097 40.8306 167.097 40.5306 166.897 40.3306C166.697 40.1306 166.397 40.2306 166.197 40.4306C165.997 40.6306 166.097 40.9306 166.297 41.1306Z" fill="#00B189"/>
<path d="M167.597 41.1306C168.097 41.5306 168.697 40.6306 168.097 40.3306C167.897 40.2306 167.597 40.2306 167.397 40.4306C167.297 40.6306 167.397 40.9306 167.597 41.1306Z" fill="#00B189"/>
<path d="M99.3967 41.8306H97.8967V41.0306H101.897V41.8306H100.497V46.2306H99.3967V41.8306Z" fill="#00B189"/>
<path d="M107.097 46.2306H106.097L105.797 45.1306H103.797L103.497 46.2306H102.497L104.397 41.0306H105.497L107.097 46.2306ZM103.997 44.3306H105.497L104.697 41.9306L103.997 44.3306Z" fill="#00B189"/>
<path d="M109.997 46.2306H108.897V44.3306L107.097 41.0306H108.297L109.497 43.3306L110.597 41.0306H111.797L109.997 44.3306V46.2306Z" fill="#00B189"/>
<path d="M112.597 44.7305V44.6305H113.597V44.7305C113.597 45.2305 113.997 45.5305 114.697 45.5305C115.397 45.5305 115.697 45.2305 115.697 44.7305C115.697 44.4305 115.497 44.2305 115.197 44.1305L113.797 43.8305C112.997 43.6305 112.597 43.2305 112.597 42.5305C112.597 41.5305 113.397 40.9305 114.497 40.9305C115.697 40.9305 116.397 41.5305 116.397 42.5305V42.6305H115.397V42.5305C115.397 42.1305 115.097 41.7305 114.497 41.7305C113.897 41.7305 113.597 41.9305 113.597 42.4305C113.597 42.7305 113.797 42.9305 113.997 42.9305L115.397 43.3305C116.097 43.4305 116.597 44.0305 116.497 44.7305C116.497 45.7305 115.597 46.4305 114.397 46.4305C113.397 46.3305 112.597 45.7305 112.597 44.7305Z" fill="#00B189"/>
<path d="M118.097 41.0306H121.797V41.8306H119.197V43.1306H121.597V44.0306H119.197V45.3306H121.797V46.2306H118.097V41.0306Z" fill="#00B189"/>
<path d="M123.297 41.0306H126.897V41.8306H124.297V43.1306H126.697V44.0306H124.297V45.3306H126.997V46.2306H123.297V41.0306Z" fill="#00B189"/>
<path d="M130.597 44.5306H129.497V46.2306H128.497V41.0306H130.897C131.897 41.0306 132.697 41.7306 132.797 42.7306C132.797 43.4306 132.397 44.1306 131.797 44.4306L132.897 46.2306H131.697L130.597 44.5306ZM130.697 43.7306C131.197 43.8306 131.597 43.4306 131.697 42.9306C131.697 42.8306 131.697 42.8306 131.697 42.7306C131.697 42.2306 131.397 41.8306 130.897 41.8306C130.797 41.8306 130.797 41.8306 130.697 41.8306H129.497V43.7306H130.697Z" fill="#00B189"/>
<path d="M137.597 40.2306H136.697V47.3306H137.597V40.2306Z" fill="#00B189"/>
</svg>
