<svg width="213" height="65" viewBox="0 0 213 65" fill="none" xmlns="http://www.w3.org/2000/svg">
<path d="M3.58771 36.9981C4.11721 36.9981 4.58442 36.6868 4.58442 36.0954C4.58442 35.5662 4.14836 35.1926 3.58771 35.1926C3.02706 35.1926 2.591 35.5662 2.591 36.0954C2.591 36.6868 3.08936 36.9981 3.58771 36.9981Z" fill="#158285"/>
<path d="M6.23523 36.9981C6.76473 36.9981 7.23194 36.6868 7.23194 36.0954C7.23194 35.5662 6.79588 35.1926 6.23523 35.1926C5.67458 35.1926 5.23853 35.5662 5.23853 36.0954C5.23853 36.6868 5.73688 36.9981 6.23523 36.9981Z" fill="#158285"/>
<path d="M8.57123 46.8661C8.01058 46.8661 7.57452 47.2396 7.57452 47.7688C7.57452 48.3603 8.04173 48.6716 8.57123 48.6716C9.10073 48.6716 9.56794 48.3603 9.56794 47.7688C9.56794 47.2396 9.13188 46.8661 8.57123 46.8661Z" fill="#158285"/>
<path d="M11.2499 46.8661C10.6892 46.8661 10.2532 47.2396 10.2532 47.7688C10.2532 48.3603 10.7204 48.6716 11.2499 48.6716C11.7794 48.6716 12.2466 48.3603 12.2466 47.7688C12.2466 47.2396 11.8105 46.8661 11.2499 46.8661Z" fill="#158285"/>
<path d="M17.4482 41.9165C17.4482 40.6402 18.258 39.8931 19.3793 39.8931C20.0022 39.8931 20.594 40.0799 21.3104 40.4223L21.8399 38.9593C20.9055 38.5546 20.0022 38.3367 19.2547 38.3367C17.2924 38.3367 15.922 39.5196 15.922 41.6675C15.922 42.2901 16.0777 43.0683 16.4203 44.0333H13.0564V38.4301H11.4679V44.0333H7.16963V38.4301H4.58442C2.1238 38.4301 0.50415 39.9243 0.50415 42.041C0.50415 44.1578 2.06151 45.6209 4.36639 45.6209H22.1202V44.0333H18.1646C17.6973 43.3173 17.4482 42.5702 17.4482 41.9165ZM5.58113 44.0022H4.2418C2.96477 44.0022 1.99921 43.1928 1.99921 42.0099C1.99921 40.7959 2.93362 39.9865 4.2418 39.9865H5.58113V44.0022Z" fill="#158285"/>
<path d="M36.2922 37.3094C36.8217 37.3094 37.2889 36.9981 37.2889 36.4067C37.2889 35.8775 36.8528 35.5039 36.2922 35.5039C35.7315 35.5039 35.2955 35.8775 35.2955 36.4067C35.2955 36.9981 35.7627 37.3094 36.2922 37.3094Z" fill="#158285"/>
<path d="M38.9396 37.3094C39.4691 37.3094 39.9363 36.9981 39.9363 36.4067C39.9363 35.8775 39.5003 35.5039 38.9396 35.5039C38.379 35.5039 37.9429 35.8775 37.9429 36.4067C37.9429 36.9981 38.4101 37.3094 38.9396 37.3094Z" fill="#158285"/>
<path d="M46.1346 38.2433C45.2314 38.2433 44.3904 38.5234 43.5183 38.9904L44.0789 40.4534C44.8265 40.0176 45.3248 39.862 46.0412 39.862C47.9723 39.862 48.3461 42.1033 49.4051 44.0333H41.3069V38.43H39.7495V44.0333H35.4512V42.1033C35.4512 39.7997 34.0496 38.2744 31.9316 38.2744C29.8136 38.2744 28.412 39.7997 28.412 42.1033V42.0722C28.412 43.4419 27.7579 44.0644 26.4808 44.0644H25.3907V35.5662H23.8022V45.6831H26.4808C27.6333 45.6831 28.63 45.403 29.0972 44.5314C29.7201 45.403 30.7168 45.6831 31.9316 45.6831H35.4512H51.4919V44.0956C49.9969 43.3485 49.9657 38.2433 46.1346 38.2433ZM33.8627 44.0022H31.9316C30.7791 44.0022 30.0005 43.3485 30.0005 42.041C30.0005 40.7336 30.7791 39.862 31.9316 39.862C33.084 39.862 33.8627 40.7336 33.8627 42.041V44.0022Z" fill="#158285"/>
<path d="M47.1314 46.8661C46.5707 46.8661 46.1035 47.2396 46.1035 47.7688C46.1035 48.3914 46.6019 48.7027 47.1314 48.7027C47.6609 48.7027 48.1281 48.3914 48.1281 47.7688C48.1281 47.2085 47.692 46.8661 47.1314 46.8661Z" fill="#158285"/>
<path d="M59.0918 44.0022H53.4542V45.6209H60.6803V35.5039H59.0918V44.0022Z" fill="#158285"/>
<path d="M56.7247 36.5001H55.1362V43.1617H56.7247V36.5001Z" fill="#158285"/>
<path d="M64.3245 35.5039H62.736V45.6209H64.3245V35.5039Z" fill="#158285"/>
<path d="M69.9622 36.0954C69.9622 36.6869 70.4294 36.9982 70.9589 36.9982C71.4884 36.9982 71.9556 36.6869 71.9556 36.0954C71.9556 35.5662 71.5195 35.1927 70.9589 35.1927C70.3982 35.1615 69.9622 35.5351 69.9622 36.0954Z" fill="#158285"/>
<path d="M72.6097 36.0954C72.6097 36.6869 73.0769 36.9982 73.6064 36.9982C74.1359 36.9982 74.6031 36.6869 74.6031 36.0954C74.6031 35.5662 74.167 35.1927 73.6064 35.1927C73.0457 35.1615 72.6097 35.5351 72.6097 36.0954Z" fill="#158285"/>
<path d="M75.9425 46.8661C75.3818 46.8661 74.9457 47.2396 74.9457 47.7688C74.9457 48.3603 75.4129 48.6716 75.9425 48.6716C76.472 48.6716 76.9392 48.3603 76.9392 47.7688C76.9392 47.2396 76.5031 46.8661 75.9425 46.8661Z" fill="#158285"/>
<path d="M78.5899 46.8661C78.0293 46.8661 77.5932 47.2396 77.5932 47.7688C77.5932 48.3603 78.0604 48.6716 78.5899 48.6716C79.1194 48.6716 79.5866 48.3603 79.5866 47.7688C79.5866 47.2396 79.1506 46.8661 78.5899 46.8661Z" fill="#158285"/>
<path d="M92.7619 37.3406C93.2914 37.3406 93.7586 37.0293 93.7586 36.4067C93.7586 35.8464 93.3225 35.504 92.7619 35.504C92.2012 35.504 91.734 35.8775 91.734 36.4067C91.7652 37.0293 92.2324 37.3406 92.7619 37.3406Z" fill="#158285"/>
<path d="M98.088 35.504C97.5274 35.504 97.0913 35.8775 97.0913 36.4067C97.0913 36.9982 97.5585 37.3095 98.088 37.3095C98.6175 37.3095 99.0847 36.9982 99.0847 36.4067C99.0847 35.8775 98.6487 35.504 98.088 35.504Z" fill="#158285"/>
<path d="M99.8945 36.4067C99.8945 36.9982 100.362 37.3095 100.891 37.3095C101.421 37.3095 101.888 36.9982 101.888 36.4067C101.888 35.8775 101.452 35.504 100.891 35.504C100.331 35.504 99.8945 35.8775 99.8945 36.4067Z" fill="#158285"/>
<path d="M106.84 44.0022H103.508V38.399H101.919V44.0022H97.1224V38.399H95.5339V44.0022H90.9865V42.0722C90.9865 39.7687 89.5849 38.2433 87.4669 38.2433C85.3488 38.2433 83.9472 39.7687 83.9472 42.0722V42.0411C83.9472 43.4108 83.2931 44.0334 82.0161 44.0334H80.3965V38.4301H78.808V44.0334H74.5097V38.4301H71.9244C69.4638 38.4301 67.8442 39.9243 67.8442 42.0411C67.8442 44.1579 69.4015 45.621 71.7064 45.621H81.985C83.1374 45.621 84.1341 45.3408 84.6013 44.4692C85.2243 45.3408 86.221 45.621 87.4357 45.621H90.9553H108.367V35.504H106.778V44.0022H106.84ZM72.9523 44.0022H71.613C70.3359 44.0022 69.3704 43.1929 69.3704 42.01C69.3704 40.7959 70.3048 39.9866 71.613 39.9866H72.9523V44.0022ZM89.398 44.0022H87.4669C86.3144 44.0022 85.5357 43.3485 85.5357 42.0411C85.5357 40.7337 86.3144 39.8621 87.4669 39.8621C88.6193 39.8621 89.398 40.7337 89.398 42.0411V44.0022Z" fill="#158285"/>
<path d="M112.042 35.504H110.453V45.621H112.042V35.504Z" fill="#158285"/>
<path d="M117.461 38.399C115.001 38.399 113.381 39.8932 113.381 42.01C113.381 44.1268 114.939 45.5898 117.243 45.5898H118.458C118.427 46.4614 117.804 46.7416 116.932 46.7416C116.247 46.7416 115.562 46.6171 114.845 46.3992L115.157 48.0802C115.78 48.2669 116.34 48.3292 116.994 48.3292C119.019 48.3292 120.047 47.5821 120.047 45.1852V38.399H117.461ZM118.489 41.9788V44.0022H117.15C115.873 44.0022 114.907 43.1929 114.907 42.01C114.907 40.7959 115.842 39.9866 117.15 39.9866H118.489V41.9788Z" fill="#158285"/>
<path d="M83.6357 25.8228C83.6357 23.5503 82.5767 22.3674 80.2407 22.3674H79.1194V23.955H80.4587C81.5489 23.955 82.1095 24.5153 82.1095 25.6671V27.9707H77.7178V29.5583H83.6046V25.8228H83.6357Z" fill="#158285"/>
<path d="M87.6537 29.2781V22.3674H86.0652V29.5271C86.0652 30.5233 85.598 30.8657 84.9439 30.8657C84.6324 30.8657 84.3521 30.8346 83.9472 30.8034L83.7914 32.1731C84.1029 32.2354 84.4455 32.2976 84.7882 32.2976C86.4701 32.3288 87.6537 31.6439 87.6537 29.2781Z" fill="#158285"/>
<path d="M91.0799 19.4724H89.4914V29.5894H91.0799V19.4724Z" fill="#158285"/>
<path d="M96.3126 29.5583H97.5273C97.4962 30.4299 96.8732 30.7101 96.0011 30.7101C95.3159 30.7101 94.6306 30.5855 93.9143 30.3676L94.2257 32.0486C94.8487 32.2354 95.0978 32.2976 95.7519 32.2976C97.6519 32.2976 98.9912 31.6439 99.1158 29.5583H102.511C103.601 29.5271 104.535 29.247 104.971 28.4065C105.594 29.2781 106.591 29.5583 107.806 29.5583H111.325H116.216V19.4413H114.627V27.9396H111.325V26.0095C111.325 23.706 109.924 22.1807 107.806 22.1807C105.688 22.1807 104.286 23.706 104.286 26.0095V25.9784C104.286 27.3481 103.632 27.9707 102.355 27.9707H99.1158V22.3674H96.5306C94.07 22.3674 92.4503 23.8616 92.4503 25.9784C92.4192 28.0952 93.9766 29.5583 96.3126 29.5583ZM105.844 26.0095C105.844 24.7021 106.622 23.8305 107.775 23.8305C108.927 23.8305 109.706 24.7021 109.706 26.0095V27.9707H107.775C106.622 27.9707 105.844 27.317 105.844 26.0095ZM93.9454 25.9784C93.9454 24.7644 94.8798 23.955 96.188 23.955H97.5273V25.9473V27.9707H96.188C94.8798 27.9707 93.9454 27.1925 93.9454 25.9784Z" fill="#158285"/>
<path d="M119.86 19.4724H118.271V29.5894H119.86V19.4724Z" fill="#158285"/>
<path d="M33.084 20.9666C33.6135 20.9666 34.0807 20.6553 34.0807 20.0638C34.0807 19.5346 33.6446 19.1611 33.084 19.1611C32.5233 19.1611 32.0873 19.5346 32.0873 20.0638C32.0873 20.6553 32.5545 20.9666 33.084 20.9666Z" fill="#158285"/>
<path d="M30.4365 20.9666C30.966 20.9666 31.4332 20.6553 31.4332 20.0638C31.4332 19.5346 30.9971 19.1611 30.4365 19.1611C29.8758 19.1611 29.4398 19.5346 29.4398 20.0638C29.4398 20.6553 29.907 20.9666 30.4365 20.9666Z" fill="#158285"/>
<path d="M31.2152 29.5583H39.8741V22.3674H38.2856V27.9707H33.9873V22.3674H31.402C28.9414 22.3674 27.3218 23.8616 27.3218 25.9784C27.3529 28.0952 28.9103 29.5583 31.2152 29.5583ZM28.848 25.9784C28.848 24.7644 29.7824 23.955 31.0906 23.955H32.4299V27.9707H31.0906C29.8135 27.9707 28.848 27.1925 28.848 25.9784Z" fill="#158285"/>
<path d="M54.0149 20.1261C54.5132 20.1261 54.9493 19.8459 54.9493 19.2856C54.9493 18.7875 54.5444 18.4451 54.0149 18.4451C53.4854 18.4451 53.0804 18.7875 53.0804 19.2856C53.0804 19.8459 53.5477 20.1261 54.0149 20.1261Z" fill="#158285"/>
<path d="M52.7378 22.1184C53.2361 22.1184 53.7033 21.8071 53.7033 21.2467C53.7033 20.7175 53.2673 20.3751 52.7378 20.3751C52.2083 20.3751 51.7722 20.7175 51.7722 21.2467C51.7722 21.8382 52.2394 22.1184 52.7378 22.1184Z" fill="#158285"/>
<path d="M54.3574 21.2467C54.3574 21.8382 54.7935 22.1184 55.323 22.1184C55.8213 22.1184 56.2885 21.8071 56.2885 21.2467C56.2885 20.7175 55.8836 20.3751 55.323 20.3751C54.7623 20.3751 54.3574 20.7175 54.3574 21.2467Z" fill="#158285"/>
<path d="M70.3982 19.4724H68.8097V27.9707H65.695V22.3674H64.1065V27.9707H59.8082V22.3674H58.2197V27.9707H54.887V23.3636H53.2985V27.9707H50.4018V23.3636H48.8133V27.9707H44.733V22.2118H43.1445V29.5271C43.1445 30.5233 42.6773 30.8657 42.0232 30.8657C41.7118 30.8657 41.4314 30.8346 41.0265 30.8034L40.8708 32.1731C41.1823 32.2354 41.5249 32.2976 41.8675 32.2976C43.4871 32.2976 44.6707 31.6751 44.733 29.5583H70.3671V19.4724H70.3982Z" fill="#158285"/>
<path d="M74.0424 19.4724H72.4539V29.5894H74.0424V19.4724Z" fill="#158285"/>
<path d="M36.3233 31.7373C36.3233 31.2081 35.8872 30.8345 35.3266 30.8345C34.766 30.8345 34.3299 31.2081 34.3299 31.7373C34.3299 32.3287 34.7971 32.64 35.3266 32.64C35.8561 32.64 36.3233 32.3287 36.3233 31.7373Z" fill="#158285"/>
<path d="M38.9708 31.7373C38.9708 31.2081 38.5347 30.8345 37.9741 30.8345C37.4134 30.8345 36.9774 31.2081 36.9774 31.7373C36.9774 32.3287 37.4446 32.64 37.9741 32.64C38.5036 32.64 38.9708 32.3287 38.9708 31.7373Z" fill="#158285"/>
<path d="M61.9573 30.8345C61.3967 30.8345 60.9606 31.2081 60.9606 31.7373C60.9606 32.3287 61.4278 32.64 61.9573 32.64C62.4868 32.64 62.954 32.3287 62.954 31.7373C62.954 31.2081 62.5491 30.8345 61.9573 30.8345Z" fill="#158285"/>
<path d="M162.189 16.8264C162.531 16.8887 162.843 16.9509 163.185 16.9821C164.743 14.1493 166.487 11.5033 168.48 9.04413C163.653 5.2775 158.14 2.25796 151.692 0.0166626L162.189 16.8264ZM189.256 38.1188L171.969 32.5155L192.277 64.9833C193.492 55.2087 192.339 46.4303 189.256 38.1188Z" fill="#158285"/>
<path d="M160.943 25.6049C168.418 13.6513 178.167 4.90395 192.277 0.0477905L172 32.5155L151.692 64.9833C149.886 50.1658 153.468 37.5896 160.943 25.6049Z" fill="#F7941D"/>
<path d="M131.665 19.4102L153.249 26.4142C155.523 25.1691 157.859 24.0173 160.289 22.99C160.6 22.2118 160.943 21.4647 161.285 20.7176C161.877 19.4413 162.5 18.1961 163.154 16.9821C152.751 15.3323 142.41 15.8926 131.665 19.4102ZM190.719 26.4454L172 32.5156L212.304 45.621C206.293 37.2783 199.067 31.0836 190.719 26.4454Z" fill="#2BB574"/>
<path d="M131.665 45.6209L154.713 38.1499C155.554 35.9086 156.52 33.7296 157.61 31.5505C158.264 28.6867 159.167 25.8228 160.32 23.0211C148.889 27.8773 139.327 35.0059 131.665 45.6209ZM181.811 16.8264L172 32.5156L212.304 19.4102C201.932 16.0171 191.872 15.3634 181.811 16.8264Z" fill="#FCB614"/>
</svg>
