<svg width="196" height="186" viewBox="0 0 196 186" fill="none" xmlns="http://www.w3.org/2000/svg">
<path d="M51.0756 124.046H35.2504V128.65H51.0756V124.046Z" fill="#F4F4F4"/>
<path opacity="0.05" d="M39.4491 124.046H37.3756V128.65H39.4491V124.046Z" fill="#292A2E"/>
<path d="M49.0534 125.047H40.4314V127.775H49.0534V125.047Z" fill="white"/>
<path d="M63.6982 124.647L48.9939 118.224L47.151 122.444L61.8552 128.866L63.6982 124.647Z" fill="#F4F4F4"/>
<path opacity="0.05" d="M63.6982 124.647L48.9939 118.224L47.151 122.444L61.8552 128.866L63.6982 124.647Z" fill="#292A2E"/>
<path d="M61.7236 123.784L59.7969 122.943L57.9539 127.162L59.8806 128.004L61.7236 123.784Z" fill="white"/>
<path d="M58.4835 123.461L50.4723 119.962L49.3801 122.462L57.3914 125.961L58.4835 123.461Z" fill="white"/>
<path opacity="0.05" d="M63.7259 182.376H59.749V185.032H63.7259V182.376Z" fill="#292A2E"/>
<path opacity="0.05" d="M23.0666 182.376H19.0897V185.032H23.0666V182.376Z" fill="#292A2E"/>
<path d="M67.3714 128.866H15.4442V182.286H67.3714V128.866Z" fill="#F4F4F4"/>
<path opacity="0.03" d="M67.3714 128.866H15.4442V182.286H67.3714V128.866Z" fill="#292A2E"/>
<path d="M76.9943 128.866H25.0671V182.286H76.9943V128.866Z" fill="#F4F4F4"/>
<path opacity="0.05" d="M73.3487 182.376H69.3718V185.032H73.3487V182.376Z" fill="#292A2E"/>
<path opacity="0.05" d="M32.6895 182.376H28.7126V185.032H32.6895V182.376Z" fill="#292A2E"/>
<path opacity="0.7" d="M75.0452 131.368H27.0165V141.631H75.0452V131.368Z" fill="white"/>
<path opacity="0.7" d="M75.0452 144.143H27.0165V154.407H75.0452V144.143Z" fill="white"/>
<path opacity="0.7" d="M75.0452 156.918H27.0165V167.181H75.0452V156.918Z" fill="white"/>
<path opacity="0.05" d="M51.0309 137.936C51.8239 137.936 52.4669 137.293 52.4669 136.5C52.4669 135.707 51.8239 135.064 51.0309 135.064C50.2378 135.064 49.5948 135.707 49.5948 136.5C49.5948 137.293 50.2378 137.936 51.0309 137.936Z" fill="#292A2E"/>
<path opacity="0.05" d="M51.0309 150.711C51.8239 150.711 52.4669 150.068 52.4669 149.275C52.4669 148.482 51.8239 147.839 51.0309 147.839C50.2378 147.839 49.5948 148.482 49.5948 149.275C49.5948 150.068 50.2378 150.711 51.0309 150.711Z" fill="#292A2E"/>
<path opacity="0.05" d="M51.0309 163.486C51.8239 163.486 52.4669 162.843 52.4669 162.05C52.4669 161.257 51.8239 160.614 51.0309 160.614C50.2378 160.614 49.5948 161.257 49.5948 162.05C49.5948 162.843 50.2378 163.486 51.0309 163.486Z" fill="#292A2E"/>
<path opacity="0.7" d="M75.0452 169.981H27.0165V180.244H75.0452V169.981Z" fill="white"/>
<path opacity="0.05" d="M51.0308 176.549C51.8239 176.549 52.4669 175.906 52.4669 175.113C52.4669 174.32 51.8239 173.677 51.0308 173.677C50.2377 173.677 49.5948 174.32 49.5948 175.113C49.5948 175.906 50.2377 176.549 51.0308 176.549Z" fill="#292A2E"/>
<path d="M0.437804 185.4H195.562C195.599 185.4 195.634 185.386 195.66 185.36C195.686 185.334 195.7 185.299 195.7 185.262C195.7 185.226 195.686 185.191 195.66 185.165C195.634 185.139 195.599 185.125 195.562 185.125H0.437804C0.401229 185.125 0.366151 185.139 0.340289 185.165C0.314426 185.191 0.299896 185.226 0.299896 185.262C0.299896 185.299 0.314426 185.334 0.340289 185.36C0.366151 185.386 0.401229 185.4 0.437804 185.4Z" fill="#292A2E"/>
<g opacity="0.65">
<path d="M0.437804 185.4H195.562C195.599 185.4 195.634 185.386 195.66 185.36C195.686 185.334 195.7 185.299 195.7 185.262C195.7 185.226 195.686 185.191 195.66 185.165C195.634 185.139 195.599 185.125 195.562 185.125H0.437804C0.401229 185.125 0.366151 185.139 0.340289 185.165C0.314426 185.191 0.299896 185.226 0.299896 185.262C0.299896 185.299 0.314426 185.334 0.340289 185.36C0.366151 185.386 0.401229 185.4 0.437804 185.4Z" fill="#292A2E"/>
</g>
<path d="M182.359 185.32L182.746 185.245L176.698 125.151L176.311 125.225L182.359 185.32Z" fill="#494949"/>
<path d="M159.841 185.32L160.228 185.245L154.18 125.151L153.793 125.225L159.841 185.32Z" fill="#494949"/>
<path d="M110.066 185.32L109.679 185.245L115.727 125.151L116.113 125.225L110.066 185.32Z" fill="#494949"/>
<path d="M132.584 185.32L132.197 185.245L138.244 125.151L138.631 125.225L132.584 185.32Z" fill="#494949"/>
<path d="M140.602 98.7013L137.069 125.161L137.46 125.213L140.993 98.7534L140.602 98.7013Z" fill="#494949"/>
<path d="M181.152 98.7011L177.619 125.161L178.009 125.213L181.542 98.7533L181.152 98.7011Z" fill="#494949"/>
<path d="M137.105 127.126H176.767C177.837 127.126 178.705 126.258 178.705 125.188V125.188C178.705 124.118 177.837 123.25 176.767 123.25H137.105C136.035 123.25 135.167 124.118 135.167 125.188V125.188C135.167 126.258 136.035 127.126 137.105 127.126Z" fill="#292A2E"/>
<path opacity="0.8" d="M137.105 127.126H176.767C177.837 127.126 178.705 126.258 178.705 125.188V125.188C178.705 124.118 177.837 123.25 176.767 123.25H137.105C136.035 123.25 135.167 124.118 135.167 125.188V125.188C135.167 126.258 136.035 127.126 137.105 127.126Z" fill="white"/>
<path d="M134.97 125.189C134.971 124.623 135.196 124.08 135.596 123.68C135.996 123.279 136.539 123.054 137.105 123.053H176.767C177.333 123.053 177.876 123.278 178.277 123.679C178.677 124.079 178.902 124.622 178.902 125.188C178.902 125.754 178.677 126.297 178.277 126.697C177.876 127.098 177.333 127.323 176.767 127.323H137.105C136.539 127.322 135.997 127.097 135.597 126.697C135.196 126.297 134.971 125.755 134.97 125.189ZM137.105 123.448C136.643 123.448 136.201 123.632 135.874 123.958C135.548 124.284 135.364 124.727 135.364 125.189C135.364 125.65 135.548 126.093 135.874 126.42C136.201 126.746 136.643 126.929 137.105 126.929H176.767C177.229 126.929 177.672 126.746 177.998 126.42C178.325 126.093 178.508 125.65 178.508 125.189C178.508 124.727 178.325 124.284 177.998 123.958C177.672 123.632 177.229 123.448 176.767 123.448H137.105Z" fill="#292A2E"/>
<path d="M115.336 127.126H154.998C156.069 127.126 156.936 126.258 156.936 125.188V125.188C156.936 124.118 156.069 123.25 154.998 123.25H115.336C114.266 123.25 113.398 124.118 113.398 125.188V125.188C113.398 126.258 114.266 127.126 115.336 127.126Z" fill="white"/>
<path d="M113.201 125.189C113.202 124.623 113.427 124.08 113.827 123.68C114.227 123.28 114.77 123.055 115.336 123.054H154.998C155.565 123.054 156.108 123.279 156.508 123.679C156.908 124.08 157.133 124.623 157.133 125.189C157.133 125.755 156.908 126.298 156.508 126.698C156.108 127.099 155.565 127.323 154.998 127.323H115.336C114.77 127.323 114.228 127.098 113.827 126.697C113.427 126.297 113.202 125.755 113.201 125.189ZM115.336 123.448C114.874 123.448 114.432 123.632 114.105 123.958C113.779 124.284 113.595 124.727 113.595 125.189C113.595 125.65 113.779 126.093 114.105 126.42C114.432 126.746 114.874 126.929 115.336 126.929H154.998C155.46 126.929 155.903 126.746 156.229 126.42C156.556 126.093 156.739 125.65 156.739 125.189C156.739 124.727 156.556 124.284 156.229 123.958C155.903 123.632 155.46 123.448 154.998 123.448H115.336Z" fill="#292A2E"/>
<path d="M142.777 98.7283H181.243C181.872 98.7283 182.479 98.4994 182.951 98.0844C183.424 97.6695 183.729 97.0967 183.811 96.4731L186.355 76.9334C186.402 76.5682 186.372 76.197 186.264 75.8447C186.157 75.4924 185.976 75.167 185.733 74.8902C185.49 74.6135 185.19 74.3917 184.855 74.2398C184.519 74.088 184.155 74.0094 183.787 74.0094H145.32C144.691 74.0094 144.084 74.2383 143.611 74.6533C143.139 75.0684 142.833 75.6411 142.752 76.2648L140.208 95.8042C140.16 96.1695 140.191 96.5408 140.299 96.8932C140.406 97.2456 140.587 97.571 140.83 97.8478C141.073 98.1245 141.373 98.3462 141.708 98.4981C142.044 98.6499 142.408 98.7284 142.777 98.7283Z" fill="#292A2E"/>
<path opacity="0.8" d="M142.777 98.7283H181.243C181.872 98.7283 182.479 98.4994 182.951 98.0844C183.424 97.6695 183.729 97.0967 183.811 96.4731L186.355 76.9334C186.402 76.5682 186.372 76.197 186.264 75.8447C186.157 75.4924 185.976 75.167 185.733 74.8902C185.49 74.6135 185.19 74.3917 184.855 74.2398C184.519 74.088 184.155 74.0094 183.787 74.0094H145.32C144.691 74.0094 144.084 74.2383 143.611 74.6533C143.139 75.0684 142.833 75.6411 142.752 76.2648L140.208 95.8042C140.16 96.1695 140.191 96.5408 140.299 96.8932C140.406 97.2456 140.587 97.571 140.83 97.8478C141.073 98.1245 141.373 98.3462 141.708 98.4981C142.044 98.6499 142.408 98.7284 142.777 98.7283Z" fill="white"/>
<path d="M140.683 97.9774C140.421 97.6797 140.226 97.3296 140.111 96.9505C139.995 96.5714 139.962 96.172 140.013 95.779L142.557 76.2394C142.646 75.5689 142.975 74.9535 143.483 74.5071C143.991 74.0608 144.644 73.814 145.32 73.8124H183.787C184.183 73.8124 184.575 73.8969 184.936 74.0603C185.297 74.2238 185.619 74.4624 185.881 74.7602C186.142 75.058 186.337 75.4081 186.453 75.7873C186.568 76.1664 186.602 76.5658 186.55 76.9588L184.006 96.4985C183.917 97.169 183.588 97.7845 183.08 98.2308C182.572 98.6771 181.919 98.9238 181.243 98.9253H142.777C142.38 98.9253 141.989 98.8407 141.627 98.6773C141.266 98.5138 140.944 98.2752 140.683 97.9774ZM145.32 74.2064C144.74 74.2079 144.179 74.4199 143.743 74.8031C143.307 75.1864 143.025 75.7148 142.948 76.2904L140.404 95.83C140.36 96.1675 140.389 96.5104 140.488 96.8359C140.587 97.1614 140.754 97.4621 140.979 97.7178C141.203 97.9734 141.48 98.1783 141.79 98.3186C142.1 98.4589 142.436 98.5315 142.777 98.5314H181.243C181.823 98.5302 182.384 98.3184 182.82 97.9352C183.257 97.552 183.539 97.0235 183.615 96.4478L186.159 76.9082C186.203 76.5708 186.175 76.2278 186.076 75.9023C185.977 75.5768 185.809 75.2761 185.585 75.0204C185.36 74.7647 185.084 74.5599 184.774 74.4195C184.464 74.2792 184.127 74.2066 183.787 74.2066L145.32 74.2064Z" fill="#292A2E"/>
<path d="M140.601 98.7283H179.068C179.697 98.7283 180.305 98.4994 180.777 98.0844C181.25 97.6695 181.555 97.0967 181.636 96.4731L184.181 76.9334C184.228 76.5682 184.197 76.197 184.09 75.8447C183.983 75.4923 183.802 75.1669 183.559 74.8902C183.316 74.6135 183.016 74.3917 182.681 74.2399C182.345 74.088 181.981 74.0094 181.613 74.0094H143.146C142.517 74.0094 141.91 74.2383 141.437 74.6534C140.965 75.0684 140.659 75.6412 140.578 76.2648L138.034 95.8042C137.986 96.1694 138.017 96.5406 138.124 96.893C138.231 97.2453 138.413 97.5707 138.656 97.8475C138.899 98.1242 139.198 98.3459 139.534 98.4978C139.869 98.6497 140.233 98.7283 140.601 98.7283Z" fill="white"/>
<path d="M138.508 97.9774C138.246 97.6797 138.051 97.3296 137.936 96.9505C137.82 96.5714 137.787 96.172 137.838 95.779L140.382 76.2394C140.471 75.5689 140.8 74.9534 141.308 74.5071C141.816 74.0607 142.469 73.8139 143.145 73.8124H181.612C182.008 73.8124 182.4 73.8969 182.761 74.0603C183.122 74.2238 183.444 74.4624 183.706 74.7602C183.967 75.058 184.162 75.4081 184.278 75.7873C184.393 76.1664 184.426 76.5658 184.375 76.9588L181.831 96.4985C181.742 97.1688 181.413 97.7841 180.905 98.2304C180.397 98.6767 179.745 98.9235 179.068 98.9253H140.601C140.205 98.9252 139.813 98.8407 139.452 98.6772C139.091 98.5138 138.769 98.2752 138.508 97.9774ZM143.146 74.2064C142.565 74.2078 142.005 74.4197 141.568 74.803C141.132 75.1862 140.85 75.7147 140.773 76.2904L138.229 95.83C138.185 96.1675 138.213 96.5104 138.313 96.8359C138.412 97.1614 138.579 97.4621 138.804 97.7178C139.028 97.9734 139.305 98.1783 139.615 98.3186C139.925 98.4589 140.261 98.5315 140.601 98.5314H179.068C179.649 98.5302 180.21 98.3184 180.646 97.9352C181.082 97.552 181.365 97.0235 181.441 96.4478L183.985 76.9084C184.029 76.571 184.001 76.228 183.902 75.9025C183.803 75.5769 183.635 75.2763 183.411 75.0206C183.186 74.7648 182.91 74.56 182.599 74.4196C182.289 74.2793 181.953 74.2066 181.613 74.2066L143.146 74.2064Z" fill="#292A2E"/>
<path d="M146.064 42.5526C146.064 42.5526 143.793 40.2942 143.768 35.8085C143.749 32.3352 146.589 34.9726 146.589 34.9726C146.589 34.9726 146.6 32.4715 148.355 32.9605C150.111 33.4495 150.76 36.167 150.76 36.167" fill="#0C0C0C"/>
<path d="M157.567 34.515C157.567 34.515 166.316 36.6833 161.458 48.2767L160.665 48.2217L159.055 48.11" fill="#0C0C0C"/>
<path d="M146.336 60.3256C146.376 60.3202 146.813 67.5756 155.242 66.9436C161.078 66.5064 163.159 60.3151 163.292 60.3151C162.663 60.1815 161.886 59.9786 161.577 59.9089C160.903 59.7524 160.294 59.3947 159.828 58.8833C159.363 58.3718 159.065 57.731 158.973 57.0459C158.802 56.0175 159.091 50.7557 159.003 49.7151L150.045 51.7146C150.171 53.9122 151.047 59.0071 147.977 59.9089C147.464 60.058 146.914 60.1945 146.336 60.3256Z" fill="#E98862"/>
<path opacity="0.52" d="M149.919 57.8267C150.059 57.3745 150.15 56.9083 150.188 56.4364C150.287 55.3597 150.267 54.2754 150.129 53.203C151.95 52.9573 153.665 52.2058 155.08 51.0339C155.246 51.6482 156.161 54.3323 155.907 54.9151C155.43 56.0197 153.18 57.8267 149.919 57.8267Z" fill="#0C0C0C"/>
<path d="M151.258 55.7104C154.803 55.8761 159.296 54.2379 160.008 49.4937L160.65 45.2128C161.361 40.4686 159.446 36.2488 154.979 35.5789C150.512 34.9091 146.597 38.2545 145.885 42.9988L145.601 44.8938C145.515 45.5463 145.473 46.2039 145.476 46.862C145.472 48.6012 145.472 51.2467 146.39 53.162C147.257 54.9702 148.994 55.6042 151.258 55.7104Z" fill="#E98862"/>
<path d="M150.229 51.1438C149.502 51.0775 148.801 50.8414 148.182 50.4543C148.168 50.4469 148.157 50.4369 148.147 50.4249C148.137 50.4128 148.131 50.399 148.126 50.3842C148.122 50.3694 148.121 50.3539 148.124 50.3387C148.126 50.3234 148.131 50.3088 148.139 50.2956C148.147 50.2824 148.157 50.271 148.169 50.262C148.182 50.2529 148.196 50.2465 148.211 50.243C148.226 50.2396 148.241 50.2392 148.256 50.2419C148.272 50.2446 148.286 50.2503 148.299 50.2587C149.637 51.0595 150.939 51.1474 152.066 50.5134C152.088 50.4999 152.112 50.4876 152.136 50.4766C152.164 50.4663 152.194 50.4673 152.222 50.4793C152.249 50.4913 152.27 50.5133 152.281 50.5408C152.292 50.5683 152.292 50.599 152.281 50.6265C152.27 50.654 152.249 50.676 152.221 50.688C152.213 50.6919 152.198 50.7006 152.177 50.712C151.585 51.0467 150.907 51.197 150.229 51.1438Z" fill="#0C0C0C"/>
<path d="M150.116 52.2191C149.984 52.2092 149.854 52.1881 149.726 52.1561C149.711 52.1525 149.698 52.1461 149.686 52.1372C149.674 52.1283 149.663 52.1172 149.656 52.1044C149.648 52.0916 149.643 52.0774 149.64 52.0626C149.638 52.0478 149.639 52.0327 149.643 52.0182C149.646 52.0036 149.653 51.99 149.661 51.9779C149.67 51.9659 149.681 51.9557 149.694 51.9479C149.707 51.9402 149.721 51.9351 149.736 51.9328C149.751 51.9306 149.766 51.9312 149.78 51.9348C150.551 52.1249 150.974 51.8178 150.991 51.8046C151.015 51.7863 151.046 51.7783 151.076 51.7824C151.106 51.7865 151.133 51.8023 151.151 51.8264C151.169 51.8504 151.177 51.8808 151.173 51.9107C151.169 51.9407 151.153 51.9678 151.129 51.986C150.829 52.1784 150.471 52.2608 150.116 52.2191Z" fill="#0C0C0C"/>
<path d="M147.159 45.0698C147.466 45.0698 147.715 44.8207 147.715 44.5134C147.715 44.2061 147.466 43.957 147.159 43.957C146.852 43.957 146.603 44.2061 146.603 44.5134C146.603 44.8207 146.852 45.0698 147.159 45.0698Z" fill="#0C0C0C"/>
<path d="M152.332 45.4147C152.64 45.4147 152.889 45.1656 152.889 44.8584C152.889 44.5511 152.64 44.302 152.332 44.302C152.025 44.302 151.776 44.5511 151.776 44.8584C151.776 45.1656 152.025 45.4147 152.332 45.4147Z" fill="#0C0C0C"/>
<path d="M159.513 50.8974C160.871 51.1009 162.189 49.8138 162.393 48.4562C162.596 47.0986 161.608 46.1851 160.251 45.9816L159.415 46.7862L158.346 50.7225L159.513 50.8974Z" fill="#E98862"/>
<path d="M158.46 48.527C158.46 48.527 158.922 41.7392 156.939 41.0445C155.619 40.5819 152.062 42.0573 149.091 41.0577C147.791 40.6203 146.479 40.7772 146.264 41.3899C146.179 41.6324 145.839 37.9317 148.301 35.4957C150.262 33.5561 155.791 33.6901 158.172 34.7401C164.762 37.6476 160.491 46.3161 160.491 46.3161L159.867 48.5926L158.46 48.527Z" fill="#0C0C0C"/>
<path d="M149.624 49.4442H149.616C149.178 49.3797 148.451 49.2229 148.499 48.8955C148.538 48.6242 149.713 45.8054 149.847 45.485C149.852 45.4708 149.86 45.4578 149.871 45.4467C149.881 45.4357 149.894 45.4269 149.908 45.4209C149.921 45.4148 149.936 45.4116 149.952 45.4115C149.967 45.4114 149.982 45.4143 149.996 45.4202C150.01 45.426 150.023 45.4346 150.033 45.4455C150.044 45.4564 150.052 45.4693 150.058 45.4834C150.063 45.4976 150.066 45.5127 150.065 45.5279C150.065 45.543 150.061 45.5579 150.055 45.5717C149.534 46.82 148.749 48.7436 148.722 48.9282C148.754 49.0119 149.195 49.1544 149.648 49.2214C149.677 49.2259 149.702 49.2412 149.72 49.2642C149.737 49.2871 149.745 49.3159 149.742 49.3447C149.739 49.3734 149.725 49.3999 149.703 49.4186C149.681 49.4373 149.653 49.4468 149.624 49.4452L149.624 49.4442Z" fill="#0C0C0C"/>
<path d="M149.027 42.688C148.584 42.4984 148.097 42.432 147.619 42.4959C147.385 42.5258 147.156 42.5906 146.941 42.6884C146.728 42.784 146.528 42.9061 146.346 43.0517C146.313 43.0775 146.291 43.1151 146.284 43.1569C146.278 43.1986 146.288 43.2412 146.312 43.2758C146.336 43.3104 146.373 43.3343 146.414 43.3426C146.456 43.3509 146.499 43.3428 146.534 43.3202L146.546 43.3129C146.711 43.1966 146.891 43.1017 147.081 43.0304C147.267 42.9592 147.463 42.9166 147.662 42.9041C148.054 42.8765 148.447 42.9528 148.8 43.1254L148.815 43.133C148.873 43.163 148.941 43.1686 149.003 43.1487C149.066 43.1287 149.117 43.0849 149.147 43.0268C149.177 42.9686 149.183 42.901 149.163 42.8387C149.143 42.7764 149.099 42.7246 149.041 42.6947L149.027 42.688Z" fill="#0C0C0C"/>
<path d="M152.25 43.4112C152.624 43.2889 153.023 43.2675 153.408 43.3493C153.603 43.389 153.792 43.4583 153.966 43.5546C154.144 43.6514 154.309 43.7702 154.457 43.9082L154.467 43.9167C154.499 43.9444 154.541 43.9587 154.583 43.9565C154.625 43.9542 154.665 43.9357 154.694 43.9047C154.723 43.8737 154.739 43.8327 154.738 43.7902C154.738 43.7478 154.721 43.7073 154.691 43.6771C154.531 43.5078 154.35 43.3593 154.152 43.2352C153.953 43.1087 153.735 43.0128 153.507 42.9507C153.042 42.8216 152.552 42.8201 152.086 42.9466C152.023 42.9642 151.97 43.0062 151.938 43.0631C151.906 43.1201 151.898 43.1875 151.915 43.2505C151.933 43.3135 151.975 43.3668 152.032 43.3989C152.089 43.4309 152.156 43.439 152.219 43.4214L152.234 43.4169L152.25 43.4112Z" fill="#0C0C0C"/>
<path d="M153.015 36.1726C153.527 34.7335 153.15 33.2846 152.172 32.9364C151.194 32.5882 149.986 33.4726 149.474 34.9117C148.961 36.3508 149.339 37.7997 150.316 38.1479C151.294 38.4961 152.502 37.6117 153.015 36.1726Z" fill="#0C0C0C"/>
<path d="M91.7872 175.107C91.7872 175.107 90.7309 180.583 85.6042 180.888C80.4776 181.193 81.5891 185.277 81.5891 185.277H101.181V175.489L91.7872 175.107Z" fill="#407BFF"/>
<path d="M129.06 171.65C129.06 171.65 130.529 177.029 126.063 179.566C121.597 182.103 124.398 185.277 124.398 185.277L141.978 176.629L137.657 167.846L129.06 171.65Z" fill="#407BFF"/>
<path d="M139.948 170.13L125.123 123.362H151.995C157.393 123.362 159.644 118.784 159.644 113.386C159.644 107.989 154.337 103.257 148.939 103.257H112.671C109.379 103.257 105.687 105.27 103.881 108.023C102.074 110.775 102.562 115.04 103.871 118.06L127.611 175.719" fill="#262626"/>
<path opacity="0.8" d="M139.948 170.13L125.123 123.362H151.995C157.393 123.362 159.644 118.784 159.644 113.386C159.644 107.989 154.337 103.257 148.939 103.257H112.671C109.379 103.257 105.687 105.27 103.881 108.023C102.074 110.775 102.562 115.04 103.871 118.06L127.611 175.719" fill="#0A0A0A"/>
<path d="M102.307 180.192L127.095 123.362L159.643 123.36C167.27 122.762 170.763 118.582 170.652 113.185C170.542 107.857 167.844 102.594 162.54 102.594H118.672C114.747 102.675 111.66 107.012 110.204 110.657L89.5963 176.713" fill="#262626"/>
<path d="M172.872 102.66C172.872 102.66 174.318 112.086 172.026 117.327C169.166 123.869 158.443 123.36 158.443 123.36L159.047 102.595L172.872 102.66Z" fill="#262626"/>
<path d="M109.271 102.474L132.262 97.7101C133.22 97.5116 134.113 97.0746 134.857 96.4397C135.602 95.8048 136.174 94.9923 136.521 94.0776L145.564 70.2484C145.839 69.5333 145.97 68.7708 145.95 68.0047C145.93 67.2386 145.759 66.4841 145.446 65.7845C145.133 65.0848 144.686 64.4539 144.128 63.9278C143.571 63.4017 142.915 62.991 142.199 62.7191C141.482 62.4472 140.719 62.3195 139.953 62.3434C139.187 62.3673 138.434 62.5423 137.735 62.8584C137.037 63.1744 136.409 63.6253 135.885 64.185C135.362 64.7448 134.954 65.4025 134.686 66.1203L126.775 86.9641L106.91 91.0811C106.91 91.0811 108.873 102.557 109.271 102.474Z" fill="#407BFF"/>
<path d="M135.864 76.2997C136.129 79.419 138.011 98.8792 138.267 102.721H172.857C173.056 99.2561 173.701 84.5439 174.455 77.7676C175.174 71.3013 175.435 67.6113 174.606 65.602C173.145 62.0577 169.488 60.7825 166.338 60.3559C164.414 60.0957 161.521 59.9089 161.521 59.9089C161.521 59.9089 161.276 64.8638 155.435 65.1396C147.484 65.5139 148.015 59.9083 147.975 59.9083C146.687 59.9083 139.676 60.8451 137.922 61.9878C135.446 63.6019 134.714 65.8013 134.685 67.8221C134.652 70.1496 135.562 72.7622 135.864 76.2997Z" fill="#407BFF"/>
<path d="M137.223 92.201H137.231C137.257 92.1988 137.281 92.1863 137.298 92.1664C137.315 92.1464 137.323 92.1206 137.321 92.0946L136.423 81.3074C136.423 81.2944 136.419 81.2817 136.413 81.27C136.408 81.2583 136.399 81.248 136.389 81.2396C136.38 81.2311 136.368 81.2248 136.356 81.221C136.343 81.2172 136.33 81.216 136.317 81.2174C136.304 81.2184 136.292 81.222 136.28 81.228C136.269 81.2339 136.258 81.242 136.25 81.2519C136.242 81.2618 136.235 81.2732 136.231 81.2855C136.227 81.2979 136.226 81.3108 136.227 81.3237L137.125 92.1105C137.127 92.1352 137.138 92.1583 137.156 92.175C137.174 92.1918 137.198 92.2011 137.223 92.201Z" fill="#0C0C0C"/>
<path d="M120.748 98.6751L113.159 75.3448C113.025 74.9348 112.766 74.5776 112.417 74.3241C112.069 74.0707 111.649 73.9341 111.218 73.934H80.2954C79.973 73.9339 79.6553 74.0102 79.3681 74.1566C79.0809 74.3029 78.8324 74.5152 78.643 74.776C78.4536 75.0368 78.3286 75.3388 78.2783 75.6571C78.2279 75.9755 78.2537 76.3013 78.3534 76.6078L85.9433 99.9385C86.0766 100.349 86.3363 100.706 86.6852 100.959C87.034 101.213 87.4541 101.349 87.8852 101.349H118.806C119.129 101.349 119.447 101.273 119.734 101.126C120.021 100.98 120.269 100.768 120.459 100.507C120.648 100.246 120.773 99.9441 120.824 99.6258C120.874 99.3074 120.848 98.9816 120.748 98.6751Z" fill="#292A2E"/>
<path d="M120.748 98.6751L113.159 75.3448C113.025 74.9348 112.766 74.5776 112.417 74.3241C112.069 74.0707 111.649 73.9341 111.218 73.934H80.2954C79.973 73.9339 79.6553 74.0102 79.3681 74.1566C79.0809 74.3029 78.8324 74.5152 78.643 74.776C78.4536 75.0368 78.3286 75.3388 78.2783 75.6571C78.2279 75.9755 78.2537 76.3013 78.3534 76.6078L85.9433 99.9385C86.0766 100.349 86.3363 100.706 86.6852 100.959C87.034 101.213 87.4541 101.349 87.8852 101.349H118.806C119.129 101.349 119.447 101.273 119.734 101.126C120.021 100.98 120.269 100.768 120.459 100.507C120.648 100.246 120.773 99.9441 120.824 99.6258C120.874 99.3074 120.848 98.9816 120.748 98.6751Z" fill="#292A2E"/>
<path d="M135.256 99.457H114.557C114.041 99.457 113.623 99.8751 113.623 100.391V100.415C113.623 100.931 114.041 101.349 114.557 101.349H135.256C135.772 101.349 136.19 100.931 136.19 100.415V100.391C136.19 99.8751 135.772 99.457 135.256 99.457Z" fill="#292A2E"/>
<path d="M135.256 99.457H114.557C114.041 99.457 113.623 99.8751 113.623 100.391V100.415C113.623 100.931 114.041 101.349 114.557 101.349H135.256C135.772 101.349 136.19 100.931 136.19 100.415V100.391C136.19 99.8751 135.772 99.457 135.256 99.457Z" fill="#292A2E"/>
<path d="M99.5509 92.0226C101.342 92.0226 102.794 90.5707 102.794 88.7796C102.794 86.9886 101.342 85.5366 99.5509 85.5366C97.7598 85.5366 96.3079 86.9886 96.3079 88.7796C96.3079 90.5707 97.7598 92.0226 99.5509 92.0226Z" fill="white"/>
<path d="M122.479 93.2098L127.644 91.3991L126.903 91.3479C126.664 91.3266 126.442 91.2153 126.281 91.0366C126.121 90.8578 126.035 90.6249 126.04 90.3849C126.047 90.2611 126.079 90.1401 126.134 90.0292C126.189 89.9182 126.266 89.8197 126.361 89.7395C126.456 89.6594 126.565 89.5994 126.684 89.5631C126.802 89.5268 126.927 89.515 127.05 89.5285L136.19 90.4997L135.952 93.4368C135.879 94.349 135.534 95.2184 134.963 95.9335C134.392 96.6487 133.62 97.177 132.747 97.4507L128.789 98.6836C128.585 98.7517 128.363 98.747 128.162 98.6705C127.96 98.5939 127.791 98.4501 127.684 98.2634C127.591 98.0927 127.554 97.8967 127.58 97.7039C127.606 97.5111 127.692 97.3315 127.827 97.1914C127.815 97.1826 127.806 97.1707 127.8 97.157C127.795 97.1439 127.794 97.1299 127.796 97.1161C127.798 97.1024 127.803 97.0893 127.811 97.0782L127.083 97.3069C126.855 97.3833 126.607 97.3705 126.388 97.271C126.17 97.1716 125.997 96.9928 125.906 96.771C125.831 96.5699 125.829 96.3487 125.901 96.1465C125.973 95.9443 126.114 95.774 126.3 95.6656C126.291 95.661 126.284 95.6549 126.277 95.6475L125.977 95.7414C125.773 95.8101 125.551 95.8058 125.349 95.7293C125.147 95.6528 124.978 95.5088 124.87 95.3218C124.757 95.1149 124.728 94.8721 124.79 94.6444C124.852 94.4167 124.999 94.2217 125.201 94.1003C125.2 94.0943 125.199 94.0881 125.199 94.0818L123.047 94.836C122.941 94.8733 122.828 94.8893 122.715 94.883C122.602 94.8768 122.492 94.8483 122.39 94.7993C122.184 94.7004 122.026 94.5238 121.951 94.3084C121.875 94.093 121.888 93.8564 121.987 93.6507C122.086 93.445 122.263 93.2871 122.478 93.2116L122.479 93.2098Z" fill="#E98862"/>
<path opacity="0.2" d="M125.284 94.1642C125.294 94.1642 125.304 94.1625 125.314 94.1591L127.394 93.4024C127.405 93.3985 127.415 93.3926 127.423 93.3849C127.431 93.3773 127.438 93.3681 127.443 93.3579C127.447 93.3476 127.45 93.3366 127.451 93.3253C127.451 93.3141 127.449 93.3028 127.445 93.2922C127.442 93.2817 127.436 93.2719 127.428 93.2636C127.42 93.2554 127.411 93.2486 127.401 93.2439C127.391 93.2392 127.38 93.2365 127.368 93.236C127.357 93.2356 127.346 93.2373 127.335 93.2412L125.254 93.9979C125.235 94.0048 125.219 94.0181 125.209 94.0356C125.199 94.0531 125.196 94.0735 125.199 94.0934C125.203 94.1133 125.213 94.1313 125.228 94.1442C125.244 94.1572 125.263 94.1643 125.284 94.1642H125.284Z" fill="#0A0A0A"/>
<path opacity="0.2" d="M126.336 95.6765C126.345 95.6765 126.355 95.6748 126.364 95.6715L128.005 95.0894C128.015 95.0858 128.025 95.0801 128.034 95.0726C128.043 95.0651 128.05 95.056 128.055 95.0458C128.06 95.0355 128.063 95.0244 128.063 95.013C128.064 95.0016 128.062 94.9901 128.059 94.9794C128.055 94.9686 128.049 94.9587 128.041 94.9503C128.033 94.9418 128.024 94.935 128.014 94.9302C128.003 94.9254 127.992 94.9227 127.981 94.9223C127.969 94.9219 127.958 94.9238 127.947 94.9278L126.307 95.51C126.288 95.5167 126.272 95.53 126.262 95.5474C126.252 95.5649 126.248 95.5853 126.251 95.6053C126.255 95.6252 126.265 95.6432 126.28 95.6563C126.296 95.6693 126.315 95.6765 126.336 95.6765Z" fill="#0A0A0A"/>
<path opacity="0.2" d="M127.88 97.213C127.891 97.213 127.901 97.211 127.911 97.2073L128.679 96.9144C128.7 96.9062 128.717 96.89 128.727 96.8692C128.736 96.8485 128.737 96.8249 128.729 96.8036C128.72 96.7824 128.704 96.7653 128.683 96.756C128.663 96.7467 128.639 96.7461 128.618 96.7542L127.849 97.0473C127.831 97.0545 127.815 97.068 127.805 97.0854C127.796 97.1029 127.792 97.1232 127.796 97.1429C127.8 97.1625 127.81 97.1803 127.825 97.1931C127.841 97.2059 127.86 97.213 127.88 97.213H127.88Z" fill="#0A0A0A"/>
<path d="M132.145 88.7613L153.816 88.7467L162.015 68.7477L174.245 73.8897L164.015 97.6257L163.915 97.8621C163.415 99.0158 162.572 99.9878 161.501 100.646C160.429 101.305 159.182 101.619 157.926 101.545L131.817 100.002L132.145 88.7613Z" fill="#407BFF"/>
<path d="M158.286 101.653C159.501 101.651 160.689 101.295 161.704 100.629C162.72 99.9625 163.52 99.0146 164.006 97.9011L164.106 97.6646L172.822 77.4402L172.641 77.3614L163.825 97.8238C163.33 98.9571 162.5 99.9118 161.447 100.559C160.393 101.207 159.167 101.517 157.932 101.446L131.918 99.9096L132.24 88.8606L153.882 88.846L160.186 73.4688L160.004 73.3942L153.75 88.649L132.049 88.6638L131.716 100.095L131.811 100.101L157.921 101.643C158.042 101.65 158.165 101.653 158.286 101.653Z" fill="#0C0C0C"/>
<path d="M47.7457 103.238L39.4402 185.46L39.8323 185.5L48.1378 103.277L47.7457 103.238Z" fill="#494949"/>
<path d="M182.39 103.237L181.998 103.276L190.31 185.498L190.702 185.459L182.39 103.237Z" fill="#494949"/>
<path d="M148.052 103.237L147.66 103.276L155.971 185.499L156.363 185.459L148.052 103.237Z" fill="#494949"/>
<path d="M13.407 103.237L5.1015 185.46L5.49353 185.5L13.799 103.277L13.407 103.237Z" fill="#494949"/>
<path d="M5.91713 104.871L189.336 104.871C190.227 104.871 190.95 104.148 190.95 103.257C190.95 102.365 190.227 101.643 189.336 101.643L5.91713 101.643C5.02557 101.643 4.30281 102.365 4.30281 103.257C4.30281 104.148 5.02557 104.871 5.91713 104.871Z" fill="#292A2E"/>
<path opacity="0.8" d="M5.91713 104.871L189.336 104.871C190.227 104.871 190.95 104.148 190.95 103.257C190.95 102.365 190.227 101.643 189.336 101.643L5.91713 101.643C5.02557 101.643 4.30281 102.365 4.30281 103.257C4.30281 104.148 5.02557 104.871 5.91713 104.871Z" fill="white"/>
<path d="M4.10559 103.257C4.1059 102.777 4.29684 102.316 4.63646 101.976C4.97608 101.637 5.43662 101.446 5.91692 101.446H189.335C189.815 101.446 190.276 101.636 190.616 101.976C190.955 102.316 191.146 102.776 191.146 103.257C191.146 103.737 190.955 104.198 190.616 104.538C190.276 104.877 189.815 105.068 189.335 105.068H5.91692C5.43662 105.068 4.97608 104.877 4.63646 104.537C4.29684 104.198 4.1059 103.737 4.10559 103.257ZM5.91692 101.84C5.54103 101.84 5.18053 101.989 4.91473 102.255C4.64894 102.52 4.49961 102.881 4.49961 103.257C4.49961 103.633 4.64894 103.993 4.91473 104.259C5.18053 104.525 5.54103 104.674 5.91692 104.674H189.335C189.711 104.674 190.071 104.525 190.337 104.259C190.603 103.993 190.752 103.633 190.752 103.257C190.752 102.881 190.603 102.52 190.337 102.255C190.071 101.989 189.711 101.84 189.335 101.84H5.91692Z" fill="#292A2E"/>
<path d="M5.91713 104.871L153.684 104.871C154.576 104.871 155.299 104.148 155.299 103.257C155.299 102.365 154.576 101.643 153.684 101.643L5.91713 101.643C5.02557 101.643 4.30281 102.365 4.30281 103.257C4.30281 104.148 5.02557 104.871 5.91713 104.871Z" fill="white"/>
<path d="M4.10559 103.257C4.1059 102.777 4.29684 102.316 4.63646 101.976C4.97608 101.637 5.43662 101.446 5.91692 101.446H153.684C154.165 101.446 154.625 101.636 154.965 101.976C155.305 102.316 155.496 102.776 155.496 103.257C155.496 103.737 155.305 104.198 154.965 104.538C154.625 104.877 154.165 105.068 153.684 105.068H5.91692C5.43662 105.068 4.97608 104.877 4.63646 104.537C4.29684 104.198 4.1059 103.737 4.10559 103.257ZM5.91692 101.84C5.54103 101.84 5.18053 101.989 4.91473 102.255C4.64894 102.52 4.49961 102.881 4.49961 103.257C4.49961 103.633 4.64894 103.993 4.91473 104.259C5.18053 104.525 5.54103 104.674 5.91692 104.674H153.684C154.06 104.674 154.421 104.525 154.686 104.259C154.952 103.993 155.102 103.633 155.102 103.257C155.102 102.881 154.952 102.52 154.686 102.255C154.421 101.989 154.06 101.84 153.684 101.84H5.91692Z" fill="#292A2E"/>
<path d="M27.1 169.694C27.1 169.694 23.3692 175.185 26.6759 179.138C29.9825 183.091 26.2353 185.091 26.2353 185.091L12.7475 170.786L19.8939 164.048L27.1 169.694Z" fill="#407BFF"/>
<path d="M46.6792 81.408C46.6792 81.408 59.2728 124.723 56.3046 131.055C53.3865 137.281 26.7529 173.647 26.7529 173.647L17.1748 165.3L40.8633 126.884C40.8633 126.884 33.851 104.7 30.0599 93.065C27.7746 86.0514 23.9293 86.2748 23.564 78.9073L46.6792 81.408Z" fill="#262626"/>
<path d="M32.7349 130.237L35.8503 126.69L35.0394 147.515L31.5673 150.815L32.7349 130.237Z" fill="#0A0A0A"/>
<path d="M32.219 99.7329C32.219 99.7329 30.7274 90.879 32.3226 92.7755C37.5097 98.9419 38.0261 117.918 38.0261 117.918L32.219 99.7329Z" fill="#0A0A0A"/>
<path d="M40.9332 174.647C40.9332 174.647 41.9933 180.142 47.1391 180.448C52.2848 180.754 51.1682 184.853 51.1682 184.853H31.5066V175.03L40.9332 174.647Z" fill="#407BFF"/>
<path d="M11.5786 80.3228C11.5786 80.3228 11.4916 79.9179 11.4407 82.2852C11.4043 83.9569 10.7254 89.8737 13.0726 99.2062C17.4695 116.691 30.6397 178.154 30.6397 178.154L43.5588 178.046L31.3756 79.7855L11.5786 80.3228Z" fill="#262626"/>
<path d="M11.3787 80.3936L11.3365 80.396C11.3365 80.396 11.3668 79.5821 11.3787 80.3936Z" fill="#333333"/>
<path d="M82.0974 41.6629C82.0197 41.5089 81.8961 41.3829 81.7437 41.3022C81.5912 41.2215 81.4175 41.1901 81.2465 41.2123C81.248 41.1971 81.2447 41.1818 81.2371 41.1686C81.2291 41.1584 81.2186 41.1504 81.2066 41.1455C81.1946 41.1407 81.1815 41.139 81.1687 41.1408L81.7459 40.7271C81.9185 40.6088 82.0424 40.4322 82.0949 40.2297C82.1474 40.0272 82.1249 39.8126 82.0316 39.6254C81.9333 39.4434 81.7708 39.3045 81.5758 39.2355C81.3808 39.1666 81.1671 39.1725 80.9762 39.2523C80.9776 39.2442 80.9721 39.2363 80.9709 39.228L81.2073 39.058C81.3695 38.946 81.488 38.7813 81.5428 38.5919C81.5975 38.4026 81.5852 38.2001 81.5078 38.0188C81.4569 37.9061 81.3816 37.8062 81.2874 37.7261C81.1932 37.6461 81.0824 37.5879 80.963 37.5559C80.8436 37.5238 80.7186 37.5187 80.597 37.5408C80.4753 37.563 80.3601 37.6118 80.2597 37.6838L79.7126 38.0761C79.711 38.0727 79.7126 38.069 79.7104 38.0661C79.7083 38.0631 79.7023 38.0619 79.6992 38.0586C79.8248 37.9172 79.8987 37.7374 79.9087 37.5486C79.9186 37.3597 79.8642 37.1731 79.7542 37.0193C79.4959 36.6036 78.8995 36.6885 78.5457 36.9421L75.3249 39.167L75.9006 38.1977C76.0165 38.0112 76.0573 37.7876 76.0148 37.5722C75.9723 37.3568 75.8496 37.1655 75.6715 37.0371C75.5772 36.974 75.4711 36.9307 75.3596 36.91C75.2481 36.8893 75.1336 36.8915 75.0229 36.9165C74.9123 36.9415 74.808 36.9888 74.7162 37.0555C74.6245 37.1222 74.5473 37.2069 74.4894 37.3044L71.3477 42.5955C70.9789 43.2163 70.8667 43.9564 71.0349 44.6586C71.2032 45.3608 71.6386 45.9697 72.2486 46.3559C72.9561 46.8039 73.7813 47.0304 74.6184 47.0064C75.4555 46.9823 76.2663 46.7088 76.9469 46.221L81.8108 42.7348C81.9723 42.6146 82.0885 42.4433 82.1406 42.2487C82.1926 42.0542 82.1774 41.8477 82.0974 41.6629Z" fill="#E98862"/>
<g opacity="0.25">
<path d="M76.5261 40.2739C76.5379 40.2902 76.5557 40.3013 76.5755 40.3046C76.5954 40.308 76.6157 40.3035 76.6323 40.2921L79.6925 38.1724C79.7008 38.1666 79.7079 38.1593 79.7134 38.1508C79.7189 38.1423 79.7226 38.1327 79.7244 38.1228C79.7262 38.1128 79.726 38.1026 79.7239 38.0927C79.7217 38.0828 79.7177 38.0735 79.7119 38.0651C79.7061 38.0568 79.6988 38.0497 79.6903 38.0442C79.6817 38.0388 79.6722 38.035 79.6623 38.0332C79.6523 38.0314 79.6421 38.0316 79.6322 38.0337C79.6223 38.0359 79.6129 38.04 79.6046 38.0457L76.5444 40.1654C76.5361 40.1711 76.529 40.1784 76.5235 40.1869C76.518 40.1954 76.5142 40.2049 76.5124 40.2149C76.5105 40.2248 76.5107 40.2351 76.5128 40.2449C76.5149 40.2548 76.519 40.2642 76.5247 40.2726L76.5261 40.2739Z" fill="#0C0C0C"/>
</g>
<g opacity="0.25">
<path d="M77.4237 41.6495C77.4356 41.6657 77.4533 41.6767 77.4732 41.68C77.493 41.6834 77.5133 41.6788 77.5299 41.6674L80.9451 39.3019C80.9534 39.2961 80.9605 39.2888 80.966 39.2803C80.9715 39.2718 80.9753 39.2623 80.9771 39.2524C80.979 39.2424 80.9788 39.2322 80.9767 39.2223C80.9746 39.2124 80.9705 39.203 80.9648 39.1947C80.9527 39.1785 80.935 39.1674 80.9151 39.1638C80.8952 39.1601 80.8747 39.1641 80.8576 39.175L77.4424 41.5405C77.4341 41.5463 77.427 41.5536 77.4215 41.5621C77.416 41.5706 77.4122 41.5801 77.4104 41.59C77.4085 41.6 77.4087 41.6102 77.4108 41.6201C77.4129 41.63 77.417 41.6394 77.4227 41.6477L77.4237 41.6495Z" fill="#0C0C0C"/>
</g>
<g opacity="0.25">
<path d="M78.3873 43.1448C78.3992 43.161 78.4169 43.172 78.4367 43.1753C78.4566 43.1786 78.4769 43.1741 78.4935 43.1627L81.2178 41.2759C81.2345 41.2643 81.246 41.2464 81.2497 41.2263C81.2533 41.2062 81.2488 41.1854 81.2372 41.1686C81.2255 41.1519 81.2077 41.1404 81.1875 41.1367C81.1674 41.1331 81.1467 41.1376 81.1299 41.1492L78.4056 43.036C78.3973 43.0418 78.3901 43.0491 78.3846 43.0576C78.3791 43.0661 78.3754 43.0756 78.3735 43.0855C78.3717 43.0955 78.3719 43.1057 78.374 43.1156C78.3761 43.1255 78.3802 43.1349 78.3859 43.1432L78.3873 43.1448Z" fill="#0C0C0C"/>
</g>
<path d="M69.4928 41.3903L60.2618 57.1118L48.9981 42.3379L39.6431 50.7712L55.6184 71.4598L55.7232 71.6069C56.3626 72.4827 57.2145 73.1813 58.1985 73.6369C59.1825 74.0924 60.2663 74.2899 61.3478 74.2108C62.4293 74.1316 63.4728 73.7784 64.38 73.1844C65.2872 72.5905 66.0282 71.7753 66.5333 70.8157L79.66 47.0445L69.4928 41.3903Z" fill="#407BFF"/>
<path d="M59.3567 59.0023C59.3367 59.0023 59.3169 58.9972 59.2994 58.9873C59.2819 58.9775 59.2672 58.9634 59.2567 58.9463C59.2462 58.9291 59.2403 58.9096 59.2395 58.8895C59.2388 58.8695 59.2432 58.8496 59.2523 58.8317L60.1572 57.0586C60.1734 57.0348 60.1977 57.0177 60.2256 57.0106C60.2535 57.0035 60.2831 57.0068 60.3087 57.0199C60.3343 57.033 60.3543 57.055 60.3648 57.0818C60.3754 57.1086 60.3758 57.1383 60.366 57.1654L59.4612 58.9385C59.4512 58.9576 59.4363 58.9737 59.4178 58.9849C59.3994 58.9962 59.3783 59.0022 59.3567 59.0023Z" fill="#0C0C0C"/>
<path d="M48.3484 57.0221L48.0666 61.9877L48.3006 62.001L48.5824 57.0354L48.3484 57.0221Z" fill="#0C0C0C"/>
<path d="M18.6038 21.0854C18.6038 21.0854 18.1704 26.6126 16.9036 28.605C13.254 34.341 12.1403 40.8284 15.6893 44.2654C19.2382 47.7025 42.1206 48.0146 43.9445 40.2245C45.48 33.6662 42.3562 32.9231 41.6568 27.4901C41.3404 25.0318 40.4515 19.8744 40.4515 19.8744" fill="#0A0A0A"/>
<path d="M38.119 38.9794C38.0796 38.9741 37.6411 46.248 29.1913 45.6138C23.3414 45.1756 21.2554 38.969 21.1215 38.969C21.7519 38.835 22.8142 38.6402 23.0943 38.4906C24.0156 37.9955 25.1553 37.4805 25.4522 35.6917C25.6234 34.6607 25.333 29.3861 25.4224 28.3431L34.4026 30.3473C34.2771 32.5505 33.399 37.6581 36.477 38.5627C36.9882 38.7113 37.5398 38.8488 38.119 38.9794Z" fill="#E98862"/>
<path opacity="0.52" d="M34.5277 36.4744C34.3872 36.0211 34.2966 35.5538 34.2576 35.0808C34.1591 34.0014 34.1789 32.9144 34.3167 31.8393C32.4916 31.5929 30.7722 30.8396 29.3538 29.6649C29.1871 30.2808 28.2702 32.9714 28.524 33.5567C29.0045 34.6629 31.2587 36.4744 34.5277 36.4744Z" fill="#0C0C0C"/>
<path d="M33.3376 34.1851C29.7937 34.4866 25.2297 33.0176 24.3355 28.2923L23.5278 24.0288C22.6335 19.3034 24.3905 15.0033 28.8394 14.1612C33.2885 13.3192 37.3389 16.5205 38.2331 21.2458L38.5903 23.1334C38.9339 24.9465 39.6609 33.6471 33.3376 34.1851Z" fill="#E98862"/>
<path d="M37.3231 23.3392C37.6312 23.3392 37.8809 23.0895 37.8809 22.7815C37.8809 22.4735 37.6312 22.2238 37.3231 22.2238C37.0151 22.2238 36.7654 22.4735 36.7654 22.7815C36.7654 23.0895 37.0151 23.3392 37.3231 23.3392Z" fill="#0C0C0C"/>
<path d="M31.6094 24.1023C31.9174 24.1023 32.1671 23.8526 32.1671 23.5446C32.1671 23.2365 31.9174 22.9868 31.6094 22.9868C31.3014 22.9868 31.0517 23.2365 31.0517 23.5446C31.0517 23.8526 31.3014 24.1023 31.6094 24.1023Z" fill="#0C0C0C"/>
<path d="M34.745 27.6333C34.7479 27.6331 34.7508 27.6327 34.7537 27.6321C34.9339 27.5966 35.112 27.5513 35.2872 27.4962C35.5488 27.4121 35.8914 27.2728 35.8469 27.0366C35.7961 26.7673 34.5086 24.0026 34.362 23.6874C34.3557 23.6738 34.3467 23.6616 34.3356 23.6514C34.3246 23.6413 34.3116 23.6334 34.2975 23.6283C34.2834 23.6232 34.2684 23.6209 34.2534 23.6216C34.2384 23.6222 34.2237 23.6258 34.2101 23.6322C34.1965 23.6386 34.1843 23.6475 34.1742 23.6586C34.1641 23.6697 34.1562 23.6826 34.1511 23.6967C34.146 23.7108 34.1437 23.7258 34.1443 23.7408C34.145 23.7558 34.1486 23.7705 34.155 23.7841C34.704 24.9616 35.588 26.8979 35.6223 27.0791C35.5928 27.163 35.1586 27.3228 34.7111 27.4075C34.6823 27.4132 34.6567 27.4298 34.6397 27.4538C34.6228 27.4779 34.6158 27.5075 34.6201 27.5366C34.6245 27.5657 34.6399 27.592 34.6632 27.61C34.6865 27.628 34.7158 27.6364 34.745 27.6333Z" fill="#0C0C0C"/>
<path d="M34.0862 29.6733C34.8119 29.5793 35.5052 29.3161 36.1105 28.905C36.1356 28.8883 36.1531 28.8624 36.1591 28.8329C36.1652 28.8034 36.1594 28.7727 36.143 28.7475C36.1265 28.7222 36.1008 28.7045 36.0714 28.6981C36.042 28.6918 36.0112 28.6973 35.9858 28.7135C34.6761 29.5667 33.3746 29.7048 32.2229 29.1126C32.1996 29.1 32.1756 29.0887 32.1512 29.0785C32.1227 29.0685 32.0915 29.0701 32.0642 29.0831C32.037 29.096 32.016 29.1191 32.0057 29.1475C31.9955 29.1759 31.9969 29.2071 32.0096 29.2345C32.0223 29.2618 32.0453 29.283 32.0735 29.2935C32.0826 29.2972 32.0976 29.3053 32.1185 29.3161C32.7242 29.6283 33.4094 29.7527 34.0862 29.6733Z" fill="#0C0C0C"/>
<path d="M19.9693 25.5146L23.9576 24.7835C26.978 23.562 27.8916 18.3324 27.8916 18.3324C27.8916 18.3324 31.5603 21.9081 40.4515 19.8744C40.4515 19.8744 38.6687 7.47505 25.5335 11.0804C21.2978 12.2427 18.2583 16.511 18.637 22.2153C18.9023 26.2128 19.9693 25.5146 19.9693 25.5146Z" fill="#0A0A0A"/>
<path d="M24.8842 29.6797C23.5321 29.9358 22.1625 28.6966 21.9066 27.3445C21.6506 25.9924 22.6056 25.0394 23.9576 24.7833L24.8257 25.5574L26.0472 29.4594L24.8842 29.6797Z" fill="#E98862"/>
<path d="M35.1767 21.4275C35.5714 21.1728 36.0273 21.029 36.4967 21.0111C36.7276 21.0008 36.9588 21.0253 37.1825 21.0836C37.404 21.1405 37.6174 21.2251 37.8178 21.3353C37.8451 21.3498 37.8658 21.3742 37.8755 21.4036C37.8851 21.433 37.883 21.4649 37.8696 21.4927C37.8562 21.5206 37.8325 21.5421 37.8035 21.5529C37.7745 21.5636 37.7425 21.5627 37.7142 21.5503L37.7055 21.5463C37.5203 21.4554 37.3244 21.388 37.1224 21.3458C36.9227 21.303 36.7177 21.2907 36.5144 21.3093C36.1109 21.3431 35.7234 21.4829 35.3914 21.7148L35.3808 21.7227C35.3422 21.7482 35.2952 21.7579 35.2497 21.7496C35.2041 21.7413 35.1636 21.7157 35.1365 21.6782C35.1094 21.6407 35.0978 21.5941 35.1043 21.5483C35.1107 21.5025 35.1346 21.4609 35.171 21.4323L35.1767 21.4275Z" fill="#0C0C0C"/>
<path d="M31.6198 22.265C31.2267 22.1687 30.815 22.1782 30.4267 22.2924C30.2304 22.3486 30.0437 22.4341 29.8729 22.546C29.6998 22.6583 29.5414 22.792 29.4017 22.9439L29.3954 22.9502C29.3735 22.9722 29.344 22.9847 29.313 22.9853C29.282 22.9859 29.2521 22.9744 29.2294 22.9533C29.2068 22.9321 29.1932 22.903 29.1916 22.8721C29.19 22.8412 29.2005 22.8109 29.2208 22.7875C29.3678 22.6123 29.5362 22.4564 29.7222 22.3233C29.9097 22.1882 30.1165 22.082 30.3355 22.0081C30.7795 21.8555 31.2564 21.825 31.7162 21.9199C31.7627 21.9299 31.8033 21.9579 31.8291 21.9979C31.8549 22.0379 31.8638 22.0864 31.8538 22.1329C31.8438 22.1794 31.8157 22.2201 31.7757 22.2459C31.7358 22.2717 31.6872 22.2806 31.6407 22.2705L31.6334 22.2688L31.6198 22.265Z" fill="#0C0C0C"/>
<path d="M34.2405 30.7463C34.372 30.731 34.5019 30.7047 34.629 30.6675C34.6434 30.6633 34.6569 30.6563 34.6686 30.647C34.6803 30.6376 34.6901 30.6261 34.6974 30.6129C34.7047 30.5998 34.7093 30.5854 34.7109 30.5704C34.7126 30.5555 34.7114 30.5404 34.7072 30.526C34.703 30.5116 34.6961 30.4981 34.6867 30.4864C34.6774 30.4746 34.6658 30.4649 34.6527 30.4576C34.6395 30.4503 34.6251 30.4457 34.6102 30.444C34.5953 30.4424 34.5802 30.4436 34.5657 30.4478C33.8011 30.6678 33.3663 30.3763 33.348 30.3637C33.3232 30.3462 33.2925 30.3394 33.2626 30.3446C33.2327 30.3498 33.2062 30.3667 33.1887 30.3915C33.1713 30.4164 33.1645 30.4471 33.1697 30.477C33.1749 30.5068 33.1918 30.5334 33.2166 30.5508C33.5251 30.7323 33.8869 30.8014 34.2405 30.7463Z" fill="#0C0C0C"/>
<path d="M23.9663 24.7324L23.9269 24.6221C28.9801 22.808 27.7444 17.8492 27.7314 17.7994L27.8447 17.7697C27.8579 17.8209 29.1227 22.8821 23.9663 24.7324Z" fill="#0C0C0C"/>
<path opacity="0.1" d="M31.1592 27.9814C31.7427 27.9187 32.1783 27.5208 32.1322 27.0929C32.0862 26.6649 31.5759 26.3689 30.9925 26.4316C30.4091 26.4944 29.9734 26.8922 30.0195 27.3202C30.0655 27.7482 30.5758 28.0442 31.1592 27.9814Z" fill="#0C0C0C"/>
<path opacity="0.1" d="M37.3345 26.3442C37.3818 26.7715 37.8919 27.0672 38.4752 27.0052C38.5761 26.9943 38.6755 26.973 38.7719 26.9415C38.8048 26.433 38.8113 25.9437 38.8025 25.4903C38.6412 25.4481 38.4734 25.4364 38.3078 25.4557C37.7242 25.5175 37.2888 25.9145 37.3345 26.3442Z" fill="#0C0C0C"/>
<path d="M48.6176 54.9935C48.3515 58.1203 47.0567 77.6284 46.801 81.48H11.4518C11.2526 78.0063 10.4393 62.8167 9.68377 56.0237C8.96271 49.542 7.54777 46.2962 8.58484 44.3803C10.2791 41.2478 14.9107 39.4385 18.0684 39.0109C19.9967 38.7499 22.897 38.5627 22.897 38.5627C22.897 38.5627 23.1426 43.5304 28.9978 43.8068C36.9687 44.1829 36.4364 38.5627 36.476 38.5627C37.7672 38.5627 45.1445 39.3801 46.9485 40.4499C51.8664 43.3612 49.1827 48.3664 48.6176 54.9935Z" fill="#407BFF"/>
<path d="M70.5965 57.1772L67.3326 73.0411C67.2662 73.3632 67.0915 73.6529 66.8375 73.8618C66.5835 74.0707 66.2656 74.1862 65.9367 74.1891L43.462 74.3804C43.2476 74.3822 43.0356 74.3359 42.8414 74.2452C42.6471 74.1544 42.4757 74.0213 42.3395 73.8557C42.2034 73.6901 42.1059 73.4962 42.0544 73.2881C42.0028 73.08 41.9984 72.863 42.0416 72.653L45.3057 56.789C45.372 56.4669 45.5467 56.1773 45.8007 55.9684C46.0547 55.7595 46.3726 55.644 46.7015 55.6411L69.1762 55.4498C69.3906 55.448 69.6026 55.4943 69.7968 55.5851C69.991 55.6759 70.1624 55.8089 70.2986 55.9745C70.4347 56.1401 70.5321 56.334 70.5837 56.5421C70.6352 56.7502 70.6396 56.9672 70.5965 57.1772Z" fill="#292A2E"/>
<path d="M49.6393 68.4456C49.6515 68.6545 49.5876 68.8608 49.4596 69.0263C49.3315 69.1918 49.148 69.3054 48.9427 69.3462L48.251 69.4987C48.2634 69.5027 48.2745 69.5098 48.2835 69.5192C48.2925 69.5286 48.299 69.5401 48.3024 69.5526C48.3042 69.5673 48.3009 69.5822 48.2932 69.5948C48.4595 69.6415 48.6071 69.7389 48.7155 69.8734C48.8239 70.0079 48.8878 70.1728 48.8982 70.3452C48.8991 70.5462 48.8323 70.7417 48.7085 70.9C48.5846 71.0583 48.411 71.1703 48.2157 71.2178L42.3733 72.5147C42.0747 72.5818 41.7695 72.6157 41.4633 72.6156C40.7814 72.6155 40.1098 72.4496 39.5063 72.1321C38.9028 71.8146 38.3856 71.3551 37.9993 70.7932C37.5896 70.1988 37.428 69.4679 37.5489 68.7561C37.6698 68.0444 38.0637 67.4079 38.6467 66.982L43.6165 63.3491C43.7258 63.269 43.853 63.2167 43.9871 63.1967L43.5296 65.4178L43.6516 65.3896L43.6774 65.3849L47.4888 64.6084C47.9131 64.5147 48.4949 64.6695 48.57 65.1526C48.6102 65.3376 48.5866 65.5307 48.5031 65.7006C48.4197 65.8705 48.2811 66.0072 48.1101 66.0884C48.1125 66.0908 48.1172 66.0931 48.1172 66.0978C48.1172 66.1026 48.1149 66.1049 48.1149 66.1095L48.7739 65.9641C48.8944 65.9374 49.0195 65.9377 49.1399 65.9651C49.2603 65.9926 49.3732 66.0463 49.4703 66.1226C49.5674 66.1989 49.6464 66.2958 49.7016 66.4063C49.7568 66.5167 49.7868 66.6381 49.7895 66.7616C49.7894 66.9587 49.7212 67.1498 49.5964 67.3024C49.4716 67.455 49.2979 67.5597 49.1046 67.5989L48.8207 67.6621C48.8186 67.6716 48.8207 67.6818 48.8162 67.6879C49.023 67.6895 49.2218 67.7679 49.374 67.908C49.5261 68.048 49.6207 68.2397 49.6393 68.4456Z" fill="#E98862"/>
<g opacity="0.25">
<path d="M44.3208 66.8794C44.3252 66.8992 44.3371 66.9164 44.354 66.9275C44.371 66.9385 44.3916 66.9425 44.4114 66.9385L48.0581 66.1899C48.0781 66.1857 48.0957 66.1738 48.1069 66.1567C48.1182 66.1397 48.1221 66.1188 48.118 66.0988C48.1139 66.0788 48.102 66.0613 48.0849 66.05C48.0678 66.0388 48.047 66.0348 48.027 66.0389L44.3803 66.7876C44.3605 66.7918 44.3431 66.8038 44.332 66.8208C44.3209 66.8378 44.3171 66.8585 44.3212 66.8784L44.3208 66.8794Z" fill="#0C0C0C"/>
</g>
<g opacity="0.25">
<path d="M44.6063 68.4968C44.6108 68.5164 44.6228 68.5335 44.6398 68.5444C44.6567 68.5552 44.6772 68.559 44.6969 68.555L48.7666 67.7204C48.7864 67.7161 48.8038 67.7041 48.8149 67.6871C48.826 67.67 48.8298 67.6493 48.8257 67.6294C48.821 67.6098 48.8089 67.5927 48.792 67.5817C48.775 67.5707 48.7545 67.5666 48.7347 67.5703L44.665 68.4048C44.6452 68.4092 44.6278 68.4212 44.6168 68.4382C44.6057 68.4553 44.6018 68.476 44.6059 68.4959L44.6063 68.4968Z" fill="#0C0C0C"/>
</g>
<g opacity="0.25">
<path d="M44.9054 70.2505C44.9097 70.2703 44.9216 70.2876 44.9385 70.2987C44.9555 70.3097 44.9761 70.3137 44.996 70.3096L48.2421 69.6439C48.2522 69.642 48.2617 69.6381 48.2702 69.6325C48.2787 69.6269 48.286 69.6196 48.2917 69.6111C48.2974 69.6026 48.3013 69.5931 48.3033 69.5831C48.3053 69.5731 48.3052 69.5628 48.3032 69.5528C48.3011 69.5428 48.2971 69.5333 48.2914 69.5249C48.2856 69.5164 48.2783 69.5092 48.2697 69.5037C48.2611 69.4981 48.2516 69.4943 48.2415 69.4925C48.2315 69.4906 48.2212 69.4908 48.2112 69.493L44.9648 70.1587C44.945 70.163 44.9276 70.175 44.9165 70.192C44.9055 70.2091 44.9016 70.2298 44.9057 70.2497L44.9054 70.2505Z" fill="#0C0C0C"/>
</g>
<path d="M42.0116 74.8265L10.3152 80.5544C9.32611 80.662 8.32555 80.539 7.39201 80.195C6.45846 79.851 5.61733 79.2953 4.93461 78.5716C4.25189 77.8479 3.74615 76.9759 3.45707 76.0239C3.16799 75.0719 3.10344 74.0658 3.26847 73.0847L7.70597 46.7094C7.9894 45.0253 8.93023 43.5227 10.3215 42.5323C11.0104 42.0419 11.7891 41.692 12.6132 41.5026C13.4373 41.3131 14.2907 41.2878 15.1245 41.4282C15.9584 41.5685 16.7565 41.8717 17.4732 42.3205C18.1899 42.7693 18.8112 43.3548 19.3016 44.0437C19.792 44.7326 20.1419 45.5113 20.3314 46.3354C20.5208 47.1595 20.5461 48.0129 20.4057 48.8467L17.3808 67.0026L40.6189 64.0842L42.0116 74.8265Z" fill="#407BFF"/>
<path d="M10.315 80.6716C10.2869 80.6695 10.2605 80.6576 10.2405 80.6378C10.2205 80.618 10.2081 80.5917 10.2058 80.5637C10.2034 80.5356 10.2111 80.5076 10.2275 80.4848C10.2439 80.4619 10.268 80.4456 10.2953 80.4389L41.8818 74.7309L40.5177 64.2152L17.3946 67.1189C17.3766 67.1213 17.3583 67.1193 17.3412 67.1132C17.324 67.1071 17.3086 67.0971 17.2961 67.0839C17.2834 67.0707 17.274 67.0548 17.2686 67.0373C17.2632 67.0199 17.2619 67.0014 17.265 66.9834L19.1884 55.3794C19.1908 55.3641 19.1961 55.3495 19.2042 55.3363C19.2123 55.3232 19.223 55.3118 19.2356 55.3028C19.2481 55.2938 19.2624 55.2875 19.2775 55.2841C19.2925 55.2807 19.3081 55.2803 19.3233 55.2831C19.3385 55.2856 19.3531 55.2911 19.3662 55.2992C19.3793 55.3074 19.3906 55.318 19.3995 55.3305C19.4085 55.3431 19.4149 55.3573 19.4183 55.3723C19.4218 55.3873 19.4223 55.4028 19.4197 55.418L17.5219 66.867L40.604 63.9681C40.6347 63.9645 40.6657 63.9731 40.6902 63.992C40.7147 64.0109 40.7308 64.0387 40.735 64.0694L42.1285 74.8117C42.1321 74.8414 42.1242 74.8715 42.1065 74.8957C42.0888 74.9199 42.0626 74.9365 42.0331 74.9421L10.3361 80.6698C10.3291 80.671 10.322 80.6716 10.315 80.6716Z" fill="#0C0C0C"/>
<path d="M17.3618 66.8872L15.3229 67.2136L15.36 67.4453L17.3989 67.1189L17.3618 66.8872Z" fill="#0C0C0C"/>
<path d="M124.796 18.4058C124.798 16.0206 124.324 13.659 123.4 11.4599C122.477 9.26074 121.123 7.26856 119.418 5.60057C117.713 3.93257 115.691 2.62246 113.472 1.74733C111.254 0.872194 108.882 0.449719 106.498 0.504764C96.8169 0.722462 88.9976 8.75483 89.0251 18.438C89.0297 20.9375 89.5597 23.4081 90.5808 25.6895C91.6018 27.9709 93.0911 30.0122 94.952 31.6809C98.9561 35.2825 101.333 40.348 101.327 45.7335V45.7532L112.431 45.7661V45.7463C112.437 40.3679 114.813 35.3047 118.824 31.7203C120.702 30.0476 122.205 27.9966 123.234 25.7019C124.263 23.4072 124.795 20.9208 124.796 18.4058Z" fill="#0CBC8B"/>
<path d="M112.262 20.1815C112.078 19.945 111.758 19.7981 111.312 19.748C110.557 19.6635 109.694 20.0916 108.952 20.9258L108.881 21.0046L108.825 20.9151C108.725 20.7539 108.612 20.6015 108.486 20.4598C107.952 19.8621 106.99 19.2518 105.432 19.7327C104.909 19.8851 104.427 20.1557 104.025 20.5237L103.97 20.5749L103.916 20.5237C103.791 20.4102 103.656 20.309 103.512 20.2216C102.636 19.6879 101.66 19.8158 100.995 20.0171C100.811 20.0734 100.653 20.1951 100.552 20.3593C100.451 20.5235 100.414 20.7189 100.447 20.9088L104.799 45.7837C104.807 45.8255 104.83 45.8627 104.865 45.8872C104.9 45.9117 104.942 45.9214 104.984 45.9141C105.026 45.9069 105.063 45.8834 105.088 45.8488C105.112 45.8141 105.122 45.7711 105.115 45.7293L100.762 20.8552C100.741 20.7421 100.764 20.6255 100.824 20.5275C100.884 20.4295 100.977 20.3569 101.087 20.3233C101.69 20.1413 102.57 20.0229 103.345 20.4959C103.472 20.5728 103.592 20.6622 103.702 20.7626L103.756 20.8123L103.711 20.8698C103.34 21.3591 103.133 21.9529 103.12 22.5667C103.078 23.6085 103.531 24.6503 104.128 24.8867C104.243 24.9339 104.369 24.9486 104.493 24.9292C104.616 24.9098 104.731 24.857 104.826 24.7766C105.029 24.6103 105.338 24.1709 105.14 23.0988C104.962 22.1545 104.657 21.4045 104.23 20.8651L104.184 20.8076L104.238 20.7563C104.607 20.4213 105.047 20.1757 105.526 20.0388C106.63 19.6986 107.571 19.9159 108.246 20.6732C108.397 20.8439 108.529 21.0309 108.639 21.2309L108.664 21.2757L108.634 21.3172C108.575 21.396 108.517 21.477 108.461 21.5601C107.816 22.5188 107.301 23.8833 107.698 24.6152C107.776 24.7571 107.893 24.8734 108.036 24.9503C108.178 25.0272 108.34 25.0613 108.501 25.0486H108.516C108.845 25.0439 109.121 24.825 109.292 24.4351C109.627 23.6729 109.529 22.3803 109.061 21.3594L109.04 21.3147L109.072 21.2762C109.719 20.4933 110.454 20.0571 111.112 20.0571C111.168 20.0571 111.222 20.0603 111.277 20.065C112.117 20.161 112.104 20.597 112.101 20.6466L108.548 45.7398C108.545 45.7606 108.546 45.7817 108.551 45.802C108.556 45.8224 108.566 45.8415 108.578 45.8582C108.591 45.875 108.607 45.8891 108.625 45.8997C108.643 45.9104 108.663 45.9174 108.684 45.9203C108.725 45.9247 108.767 45.9132 108.801 45.888C108.834 45.8628 108.857 45.8258 108.864 45.7845L112.416 20.6955C112.433 20.5106 112.378 20.3263 112.262 20.1815ZM104.825 23.1563C105 24.1006 104.743 24.4314 104.623 24.5289C104.557 24.5861 104.473 24.6178 104.385 24.6184C104.338 24.6178 104.291 24.6086 104.246 24.5912C103.834 24.4265 103.399 23.5606 103.439 22.5795C103.455 22.0641 103.618 21.5641 103.908 21.1381L103.971 21.0487L104.038 21.1366C104.448 21.7426 104.717 22.4327 104.825 23.1563ZM109 24.3067C108.878 24.5825 108.714 24.7253 108.511 24.7285H108.481C108.38 24.7395 108.279 24.7201 108.189 24.6728C108.1 24.6256 108.026 24.5526 107.979 24.4633C107.703 23.9521 108.024 22.7808 108.728 21.739L108.814 21.6112L108.878 21.7422C109.219 22.6352 109.27 23.69 109 24.3067Z" fill="white"/>
<path d="M101.334 45.7374L112.437 45.7485L112.437 46.3975C112.435 47.8699 111.849 49.2815 110.807 50.3216C109.765 51.3617 108.352 51.9452 106.879 51.9437C105.407 51.9423 103.996 51.3559 102.955 50.3137C101.915 49.2715 101.332 47.8588 101.333 46.3864L101.334 45.7374Z" fill="#262626"/>
</svg>
