<svg width="263" height="166" viewBox="0 0 263 166" fill="none" xmlns="http://www.w3.org/2000/svg">
<path opacity="0.1" d="M241.668 78.2172C233.358 48.7961 189.31 49.8479 164.809 41.7503C130.717 28.7263 99.6578 -1.9846 61.4959 1.21394C-11.0693 7.29721 -11.301 94.585 19.181 125.067C71.4903 177.376 149.969 160.172 211.079 129.726C244.149 113.25 243.495 89.3268 241.668 78.2172Z" fill="white"/>
<path opacity="0.1" d="M241.668 78.2172C233.358 48.7961 189.31 49.8479 164.809 41.7503C130.717 28.7263 99.6578 -1.9846 61.4959 1.21394C-11.0693 7.29721 -11.301 94.585 19.181 125.067C71.4903 177.376 149.969 160.172 211.079 129.726C244.149 113.25 243.495 89.3268 241.668 78.2172Z" fill="#367CFF"/>
<path d="M45.0223 142.208L193.273 142.208C196.913 142.208 199.865 139.257 199.865 135.616V27.0743C199.865 23.4336 196.913 20.4823 193.273 20.4823L45.0223 20.4823C41.3817 20.4823 38.4304 23.4336 38.4304 27.0743V135.616C38.4304 139.257 41.3817 142.208 45.0223 142.208Z" fill="white"/>
<path d="M38.2103 135.617V27.0739C38.2127 25.2682 38.9312 23.5371 40.2082 22.2604C41.4851 20.9837 43.2164 20.2656 45.0221 20.2637H193.272C195.078 20.2656 196.81 20.9839 198.087 22.2609C199.364 23.5379 200.082 25.2693 200.084 27.0752V135.617C200.082 137.423 199.364 139.154 198.087 140.431C196.81 141.708 195.078 142.427 193.272 142.429H45.0221C43.2161 142.427 41.4847 141.708 40.2077 140.431C38.9307 139.154 38.2123 137.423 38.2103 135.617ZM45.0221 20.7013C43.3327 20.7032 41.713 21.3752 40.5184 22.5698C39.3239 23.7643 38.6519 25.384 38.65 27.0734V135.617C38.6518 137.306 39.3238 138.926 40.5184 140.121C41.7129 141.315 43.3326 141.987 45.0221 141.989H193.272C194.962 141.988 196.582 141.316 197.776 140.121C198.971 138.926 199.643 137.306 199.645 135.617V27.0739C199.643 25.3844 198.971 23.7646 197.776 22.5698C196.582 21.3751 194.962 20.7031 193.272 20.7013H45.0221Z" fill="#292A2E"/>
<path d="M38.4304 27.0731V33.7063H199.863V27.0731C199.863 25.3249 199.169 23.6483 197.933 22.412C196.696 21.1758 195.02 20.4813 193.272 20.4812H45.0224C43.2741 20.4812 41.5974 21.1757 40.3612 22.4119C39.1249 23.6482 38.4304 25.3249 38.4304 27.0731Z" fill="#292A2E"/>
<path d="M126.864 74.9775C123.715 75.6649 120.93 73.017 119.512 70.4875C117.843 67.5113 117.156 64.0405 115.066 61.2906C113.19 58.868 110.46 57.2536 107.434 56.7779C106.06 56.5367 104.652 56.5668 103.289 56.8667C102.656 57.0244 102.037 57.2363 101.44 57.5002C98.8556 58.6275 96.7676 60.6625 95.1453 62.9304C93.2267 65.6118 91.9018 68.7061 90.993 71.8644C89.9676 75.4941 89.4442 79.2471 89.4377 83.0188C89.4091 87.0203 89.9447 91.0059 91.0288 94.8579C92.1494 98.8681 93.9369 102.661 96.3164 106.078C98.8614 109.689 102.078 112.776 105.79 115.17C107.846 116.492 110.026 117.608 112.3 118.504C115.022 119.538 117.897 120.111 120.808 120.199C127.166 120.475 133.622 118.992 139.374 116.319C140.793 115.66 142.171 114.917 143.501 114.093C143.923 113.832 143.535 113.163 143.111 113.426C137.662 116.788 131.495 118.815 125.114 119.341C122.126 119.611 119.114 119.447 116.173 118.855C113.656 118.28 111.23 117.363 108.963 116.128C105.016 114.068 101.51 111.256 98.6428 107.849C96.0252 104.691 93.9812 101.098 92.6035 97.2345C91.2677 93.4989 90.483 89.5887 90.274 85.627C90.0586 81.8778 90.3496 78.1167 91.139 74.4452C91.8162 71.1572 93.0084 67.9967 94.6717 65.0807C96.0839 62.6756 97.9382 60.436 100.304 58.9699C101.351 58.2961 102.512 57.8176 103.73 57.5577C106.642 56.9656 109.836 57.8576 112.215 59.5713C113.441 60.4678 114.468 61.6091 115.23 62.923C116.095 64.3862 116.695 65.9812 117.328 67.5528C117.942 69.0773 118.576 70.6242 119.538 71.9679C120.421 73.2564 121.589 74.324 122.952 75.0877C124.205 75.7849 125.666 76.0102 127.07 75.7228C127.556 75.617 127.35 74.8733 126.865 74.9783L126.864 74.9775Z" fill="#367CFF"/>
<path d="M203.405 102.254C203.464 102.247 204.119 113.115 216.745 112.168C225.486 111.513 228.603 102.239 228.803 102.239C227.861 102.039 226.274 101.748 225.855 101.524C224.479 100.784 222.776 100.015 222.332 97.3422C222.076 95.8015 222.51 87.9203 222.377 86.3613L208.959 89.3573C209.147 92.6493 210.459 100.281 205.86 101.632C205.094 101.854 204.27 102.06 203.405 102.254Z" fill="#E98862"/>
<path opacity="0.52" d="M208.771 98.5117C208.981 97.8345 209.117 97.1362 209.175 96.4294C209.322 94.8165 209.293 93.1924 209.087 91.5859C211.814 91.2179 214.383 90.0923 216.503 88.3369C216.752 89.2572 218.122 93.2775 217.743 94.1519C217.025 95.8051 213.656 98.5117 208.771 98.5117Z" fill="#0C0C0C"/>
<path d="M204.175 74.8453C204.175 74.8453 201 71.2495 201.397 64.5412C201.705 59.3474 205.695 63.5651 205.695 63.5651C205.695 63.5651 205.952 59.8277 208.53 60.7285C211.107 61.6292 211.814 65.7545 211.814 65.7545" fill="#0C0C0C"/>
<path d="M222.148 63.9453C222.148 63.9453 235.017 68.0343 226.631 84.8927L225.452 84.7336L223.058 84.4111" fill="#0C0C0C"/>
<path d="M210.665 95.0163C215.947 95.6084 222.823 93.5938 224.346 86.5712L225.72 80.2346C227.243 73.212 224.789 66.7197 218.177 65.285C211.565 63.8511 205.388 68.4722 203.864 75.4948L203.256 78.3008C203.064 79.2676 202.938 80.2464 202.879 81.2303C202.704 83.8304 202.447 87.7839 203.635 90.7361C204.758 93.5222 207.291 94.639 210.665 95.0163Z" fill="#E98862"/>
<path d="M205.72 78.7328C206.181 78.7328 206.556 78.3584 206.556 77.8967C206.556 77.4349 206.181 77.0605 205.72 77.0605C205.258 77.0605 204.884 77.4349 204.884 77.8967C204.884 78.3584 205.258 78.7328 205.72 78.7328Z" fill="#0C0C0C"/>
<path d="M213.69 80.0133C214.152 80.0133 214.526 79.639 214.526 79.1772C214.526 78.7154 214.152 78.3411 213.69 78.3411C213.228 78.3411 212.854 78.7154 212.854 79.1772C212.854 79.639 213.228 80.0133 213.69 80.0133Z" fill="#0C0C0C"/>
<path opacity="0.5" d="M210.407 88.5182C209.314 88.4273 208.257 88.0808 207.322 87.5067C207.302 87.4958 207.284 87.4808 207.27 87.4628C207.256 87.4448 207.245 87.4242 207.239 87.402C207.233 87.3798 207.231 87.3567 207.234 87.3338C207.237 87.311 207.244 87.2891 207.256 87.2692C207.268 87.2494 207.283 87.2321 207.302 87.2184C207.32 87.2047 207.341 87.1948 207.364 87.1894C207.386 87.184 207.409 87.1831 207.432 87.1869C207.455 87.1906 207.476 87.1989 207.496 87.2112C209.516 88.3985 211.475 88.5151 213.159 87.5484C213.193 87.5279 213.228 87.5092 213.264 87.4923C213.306 87.4768 213.352 87.478 213.393 87.4958C213.433 87.5135 213.466 87.5464 213.483 87.5874C213.5 87.6284 213.5 87.6745 213.484 87.7158C213.468 87.7571 213.436 87.7905 213.395 87.8089C213.382 87.8151 213.36 87.8283 213.33 87.8458C212.444 88.3557 211.426 88.5899 210.407 88.5182Z" fill="#0C0C0C"/>
<path opacity="0.52" d="M210.25 90.1354C210.052 90.1221 209.856 90.0919 209.663 90.0453C209.619 90.0347 209.581 90.0071 209.557 89.9684C209.533 89.9297 209.526 89.8831 209.536 89.8389C209.547 89.7948 209.574 89.7566 209.613 89.7328C209.652 89.709 209.698 89.7016 209.743 89.7122C210.903 89.9886 211.534 89.5219 211.561 89.5018C211.596 89.4741 211.642 89.4617 211.687 89.4675C211.732 89.4732 211.773 89.4967 211.801 89.5326C211.829 89.5685 211.841 89.6141 211.835 89.6591C211.829 89.7042 211.806 89.7451 211.77 89.7729C211.321 90.0655 210.784 90.1935 210.25 90.1354Z" fill="#0C0C0C"/>
<path d="M223.471 88.6217C225.48 89.0575 227.576 87.2612 228.011 85.2517C228.447 83.2422 227.059 81.7808 225.049 81.345L223.722 82.4668L221.743 88.2471L223.471 88.6217Z" fill="#E98862"/>
<path d="M222.126 84.9765C222.126 84.9765 223.474 74.875 220.578 73.6448C218.65 72.8254 213.19 74.6861 208.845 72.9039C206.945 72.1244 204.968 72.2315 204.587 73.1266C204.436 73.481 204.287 67.9162 208.204 64.5135C211.323 61.8044 219.574 62.5404 223.03 64.3403C232.599 69.3249 225.375 81.8685 225.375 81.8685L224.223 85.211L222.126 84.9765Z" fill="#0C0C0C"/>
<g opacity="0.52">
<path d="M208.674 85.6443C208.67 85.6443 208.666 85.6443 208.661 85.642C208.013 85.5033 206.942 85.1985 207.045 84.7135C207.132 84.3121 209.159 80.2123 209.39 79.7451C209.4 79.7245 209.413 79.7059 209.43 79.6906C209.446 79.6752 209.466 79.6634 209.487 79.6558C209.509 79.6482 209.531 79.645 209.554 79.6463C209.576 79.6476 209.599 79.6535 209.619 79.6635C209.639 79.6736 209.657 79.6876 209.672 79.7048C209.687 79.722 209.698 79.742 209.705 79.7636C209.712 79.7852 209.714 79.8079 209.712 79.8305C209.71 79.8531 209.703 79.875 209.693 79.8949C208.793 81.7103 207.434 84.5101 207.376 84.783C207.415 84.9117 208.062 85.167 208.732 85.3107C208.774 85.3203 208.811 85.3457 208.835 85.3817C208.859 85.4177 208.868 85.4615 208.861 85.5041C208.854 85.5467 208.83 85.5848 208.796 85.6107C208.761 85.6365 208.718 85.6481 208.675 85.643L208.674 85.6443Z" fill="#0C0C0C"/>
</g>
<path d="M208.568 75.3748C207.932 75.0506 207.221 74.904 206.509 74.9503C206.159 74.9707 205.814 75.0436 205.485 75.1665C205.161 75.2868 204.852 75.4475 204.568 75.6448C204.521 75.6752 204.488 75.7226 204.476 75.7769C204.464 75.8312 204.473 75.8882 204.502 75.9357C204.531 75.9832 204.577 76.0176 204.631 76.0316C204.685 76.0455 204.742 76.0379 204.791 76.0103L204.806 76.0021C205.067 75.8418 205.346 75.7148 205.639 75.6242C205.927 75.5335 206.228 75.487 206.53 75.4862C207.127 75.48 207.716 75.6318 208.236 75.9262L208.255 75.9377C208.329 75.9813 208.417 75.9938 208.499 75.9726C208.582 75.9514 208.653 75.8982 208.697 75.8247C208.74 75.7512 208.753 75.6635 208.732 75.5807C208.71 75.498 208.657 75.427 208.584 75.3835L208.568 75.3748Z" fill="#0C0C0C"/>
<path d="M213.326 76.6825C213.906 76.5361 214.514 76.5456 215.088 76.71C215.379 76.7909 215.657 76.9153 215.911 77.0792C216.169 77.2438 216.405 77.4403 216.614 77.6641L216.626 77.6756C216.665 77.7145 216.718 77.7365 216.773 77.7372C216.829 77.7379 216.882 77.7171 216.923 77.6792C216.963 77.6413 216.987 77.5892 216.99 77.5339C216.993 77.4786 216.974 77.4243 216.938 77.3824C216.716 77.1168 216.461 76.8803 216.18 76.6784C215.896 76.4729 215.582 76.3112 215.25 76.1988C214.576 75.9659 213.851 75.9189 213.152 76.0629C213.07 76.0822 212.999 76.1329 212.954 76.2041C212.909 76.2753 212.893 76.3614 212.911 76.4438C212.929 76.5262 212.978 76.5984 213.048 76.6449C213.119 76.6914 213.204 76.7085 213.287 76.6925L213.303 76.6887L213.326 76.6825Z" fill="#0C0C0C"/>
<path d="M215.183 65.9819C216.088 63.8804 215.665 61.6781 214.237 61.0629C212.809 60.4477 210.918 61.6527 210.012 63.7542C209.107 65.8557 209.53 68.058 210.958 68.6732C212.386 69.2883 214.277 68.0834 215.183 65.9819Z" fill="#0C0C0C"/>
<path d="M216.996 109.458C225.772 109.044 226.141 101.595 226.141 101.595C226.141 101.595 230.49 101.876 233.381 102.267C238.113 102.908 241.235 104.512 243.72 106.997C246.031 109.308 247.438 111.809 245.949 127.774C244.871 139.333 245.63 164.761 245.63 164.761H192.664C192.664 164.761 189.488 131.433 189.045 126.229C188.2 116.295 187.514 107.641 189.576 105.579C193.817 101.339 202.139 101.595 205.784 101.596C205.843 101.596 205.044 110.021 216.996 109.458Z" fill="#367CFF"/>
<path d="M202.485 145.353L194.781 141.066C194.612 140.972 194.424 140.914 194.232 140.896C194.039 140.878 193.844 140.9 193.66 140.962C193.477 141.023 193.308 141.122 193.164 141.252C193.021 141.383 192.906 141.541 192.828 141.718C192.692 142.05 192.685 142.419 192.807 142.756C192.929 143.092 193.171 143.372 193.487 143.539L195.139 144.458L188.617 143.952C187.893 143.883 186.96 144.261 186.937 145.079C186.907 145.393 186.985 145.708 187.157 145.972C187.329 146.237 187.586 146.435 187.885 146.534C187.883 146.541 187.881 146.548 187.88 146.555C187.88 146.56 187.881 146.565 187.882 146.571L186.765 146.464C186.558 146.445 186.35 146.472 186.155 146.543C185.96 146.615 185.783 146.728 185.637 146.877C185.492 147.025 185.381 147.204 185.314 147.4C185.246 147.597 185.223 147.806 185.246 148.012C185.29 148.337 185.443 148.636 185.681 148.861C185.919 149.086 186.227 149.223 186.553 149.248L187.028 149.293C187.033 149.307 187.041 149.321 187.05 149.332C186.722 149.376 186.42 149.535 186.198 149.781C185.977 150.027 185.85 150.344 185.84 150.675C185.841 151.038 185.978 151.387 186.224 151.652C186.47 151.918 186.808 152.081 187.169 152.109L188.35 152.222C188.332 152.232 188.317 152.246 188.305 152.263C188.294 152.28 188.287 152.3 188.285 152.32C188.284 152.345 188.29 152.369 188.302 152.39C188.021 152.51 187.787 152.72 187.636 152.986C187.485 153.252 187.426 153.561 187.468 153.864C187.518 154.181 187.674 154.473 187.91 154.691C188.147 154.908 188.45 155.04 188.77 155.064L198.729 156.012C200.122 156.144 201.523 155.857 202.752 155.188C203.981 154.519 204.983 153.499 205.628 152.257C206.185 151.186 206.302 149.941 205.954 148.785C205.607 147.629 204.823 146.655 203.768 146.068L202.485 145.353Z" fill="#E98862"/>
<g opacity="0.2">
<path d="M194.338 147.067C194.335 147.101 194.318 147.131 194.293 147.153C194.267 147.175 194.233 147.185 194.2 147.182L187.998 146.693C187.981 146.692 187.965 146.687 187.949 146.68C187.934 146.672 187.921 146.661 187.91 146.648C187.899 146.636 187.891 146.621 187.885 146.605C187.88 146.588 187.878 146.571 187.879 146.554C187.881 146.538 187.885 146.521 187.893 146.506C187.901 146.491 187.911 146.477 187.924 146.466C187.937 146.455 187.952 146.447 187.968 146.442C187.984 146.437 188.001 146.435 188.018 146.436L194.22 146.925C194.237 146.926 194.254 146.931 194.269 146.939C194.284 146.946 194.297 146.957 194.308 146.97C194.319 146.983 194.327 146.998 194.333 147.014C194.338 147.03 194.34 147.047 194.338 147.064L194.338 147.067Z" fill="#0C0C0C"/>
<path d="M194.198 149.809C194.194 149.842 194.178 149.873 194.152 149.894C194.126 149.916 194.093 149.926 194.06 149.924L187.138 149.378C187.121 149.377 187.105 149.372 187.09 149.364C187.075 149.357 187.061 149.346 187.05 149.333C187.039 149.32 187.031 149.305 187.026 149.289C187.021 149.273 187.019 149.256 187.02 149.239C187.024 149.206 187.04 149.175 187.066 149.153C187.092 149.131 187.125 149.12 187.159 149.121L194.08 149.667C194.097 149.668 194.113 149.673 194.128 149.681C194.143 149.688 194.157 149.699 194.168 149.712C194.179 149.725 194.187 149.74 194.192 149.756C194.197 149.772 194.199 149.789 194.198 149.805L194.198 149.809Z" fill="#0C0C0C"/>
<path d="M194.063 152.778C194.06 152.812 194.043 152.843 194.017 152.864C193.992 152.886 193.958 152.896 193.925 152.894L188.404 152.458C188.37 152.456 188.338 152.439 188.316 152.413C188.293 152.387 188.282 152.354 188.285 152.319C188.288 152.285 188.304 152.254 188.33 152.231C188.356 152.209 188.39 152.198 188.424 152.201L193.945 152.636C193.962 152.637 193.978 152.642 193.993 152.65C194.008 152.657 194.022 152.668 194.033 152.681C194.044 152.694 194.052 152.709 194.057 152.725C194.063 152.741 194.065 152.758 194.063 152.775L194.063 152.778Z" fill="#0C0C0C"/>
</g>
<path d="M198.11 159.176L246.207 164.576C247.69 164.737 249.19 164.553 250.59 164.037C251.989 163.521 253.25 162.688 254.274 161.603C255.297 160.518 256.056 159.211 256.489 157.784C256.922 156.357 257.019 154.848 256.772 153.377L246.515 112.292C246.305 111.042 245.851 109.845 245.178 108.771C244.505 107.696 243.627 106.765 242.595 106.03C240.509 104.545 237.919 103.949 235.394 104.374C232.869 104.799 230.616 106.209 229.132 108.295C227.647 110.38 227.051 112.97 227.476 115.495L235.342 145.417L200.392 141.929L198.11 159.176Z" fill="#367CFF"/>
<path d="M241.611 146.315C241.645 146.318 241.679 146.307 241.705 146.284C241.731 146.262 241.747 146.23 241.749 146.196C241.752 146.162 241.741 146.128 241.718 146.102C241.696 146.076 241.664 146.06 241.63 146.058L235.635 145.16C235.618 145.157 235.601 145.158 235.585 145.162C235.568 145.166 235.553 145.173 235.539 145.183C235.526 145.193 235.514 145.206 235.505 145.221C235.497 145.235 235.491 145.251 235.489 145.268C235.484 145.302 235.492 145.336 235.513 145.364C235.533 145.391 235.563 145.409 235.597 145.414L241.592 146.312C241.598 146.314 241.605 146.315 241.611 146.315Z" fill="#0C0C0C"/>
<path d="M244.869 164.761C244.903 164.763 244.936 164.752 244.962 164.729C244.988 164.706 245.003 164.675 245.006 164.64C245.008 164.606 244.996 164.573 244.974 164.547C244.951 164.521 244.919 164.506 244.885 164.503L198.38 159.078L200.634 142.088L235.342 145.416C235.362 145.419 235.382 145.417 235.401 145.41C235.42 145.403 235.437 145.393 235.451 145.378C235.465 145.364 235.476 145.346 235.482 145.327C235.488 145.308 235.489 145.287 235.486 145.267L231.73 127.777C231.727 127.761 231.721 127.744 231.712 127.73C231.704 127.716 231.692 127.703 231.678 127.693C231.664 127.683 231.648 127.676 231.632 127.673C231.615 127.669 231.598 127.669 231.581 127.672C231.548 127.677 231.518 127.696 231.498 127.724C231.478 127.752 231.47 127.786 231.476 127.82L235.203 145.138L200.536 141.815C200.519 141.813 200.502 141.814 200.485 141.819C200.469 141.823 200.453 141.831 200.44 141.842C200.426 141.852 200.415 141.866 200.407 141.881C200.398 141.896 200.393 141.912 200.391 141.929L198.109 159.177C198.106 159.211 198.115 159.244 198.136 159.271C198.157 159.297 198.187 159.314 198.22 159.319L244.851 164.761C244.857 164.761 244.863 164.761 244.869 164.761Z" fill="#0C0C0C"/>
<path d="M146.005 76.0398C145.944 75.86 145.848 75.6944 145.722 75.553C145.596 75.4117 145.442 75.2975 145.27 75.2174C145.099 75.1374 144.912 75.0932 144.723 75.0876C144.533 75.0819 144.345 75.115 144.169 75.1846C143.832 75.3312 143.564 75.6001 143.418 75.9369C143.272 76.2737 143.26 76.6533 143.383 76.999L143.98 78.7858L139.508 74.012C139.018 73.4714 138.076 73.1226 137.507 73.7101C137.273 73.9217 137.118 74.2063 137.067 74.5173C137.017 74.8283 137.073 75.1474 137.226 75.4225C137.22 75.426 137.213 75.4302 137.207 75.4351C137.204 75.4392 137.201 75.4436 137.198 75.4482L137.174 75.4201C137.035 75.267 136.864 75.1465 136.673 75.0674C136.482 74.9883 136.276 74.9525 136.07 74.9627C135.863 74.9729 135.662 75.0287 135.48 75.1262C135.298 75.2237 135.139 75.3604 135.016 75.5265C134.826 75.7953 134.734 76.1216 134.756 76.4503C134.779 76.7791 134.914 77.0899 135.14 77.3303L135.386 77.6103C135.379 77.6247 135.376 77.64 135.375 77.6556C135.11 77.4802 134.79 77.4073 134.475 77.4506C134.16 77.4939 133.872 77.6505 133.664 77.8909C133.415 78.1602 133.277 78.5141 133.278 78.8811C133.28 79.2482 133.421 79.6009 133.673 79.868C133.634 79.86 133.65 79.9347 133.618 79.964C133.6 79.981 133.588 80.0029 133.583 80.0268C133.302 79.9284 132.997 79.9225 132.712 80.01C132.428 80.0974 132.179 80.2736 132.001 80.5128C131.811 80.7816 131.719 81.108 131.741 81.4367C131.764 81.7654 131.899 82.0762 132.124 82.3166L138.836 89.7349C139.775 90.7727 141.002 91.5065 142.361 91.8421C143.72 92.1778 145.148 92.1 146.462 91.6188L150.693 90.0693L146.005 76.0398Z" fill="#E98862"/>
<path opacity="0.2" d="M134.095 84.5626C134.344 84.8275 134.68 84.9923 135.041 85.026C135.088 85.0306 135.135 85.0329 135.183 85.0329C135.412 85.0359 135.64 84.9849 135.846 84.8839C136.053 84.7829 136.233 84.6348 136.371 84.4515C136.51 84.2683 136.604 84.055 136.645 83.8288C136.686 83.6027 136.674 83.37 136.609 83.1496C136.819 83.292 137.061 83.3798 137.313 83.405C137.361 83.4093 137.41 83.4116 137.459 83.4119C137.698 83.4149 137.935 83.3609 138.149 83.2545C138.364 83.1482 138.55 82.9924 138.693 82.8C138.835 82.6076 138.93 82.3842 138.969 82.148C139.008 81.9118 138.991 81.6697 138.919 81.4416C139.118 81.5681 139.345 81.6464 139.58 81.6704C139.628 81.675 139.676 81.6774 139.725 81.6774C139.936 81.6787 140.144 81.6368 140.337 81.5542C140.531 81.4716 140.705 81.3501 140.849 81.1973C141.118 80.8939 141.262 80.5004 141.253 80.0954C141.243 79.6904 141.082 79.3038 140.8 79.013L137.824 75.8101C137.813 75.7973 137.799 75.7869 137.784 75.7796C137.768 75.7722 137.751 75.768 137.734 75.7672C137.717 75.7664 137.7 75.7691 137.684 75.775C137.668 75.7809 137.653 75.7899 137.641 75.8016C137.628 75.8132 137.618 75.8273 137.611 75.8429C137.604 75.8585 137.6 75.8754 137.6 75.8925C137.599 75.9096 137.602 75.9266 137.608 75.9426C137.615 75.9585 137.624 75.9731 137.636 75.9854L140.612 79.1893C140.849 79.4319 140.987 79.7551 140.996 80.0945C141.006 80.4339 140.887 80.7644 140.663 81.0199C140.542 81.1467 140.397 81.2476 140.236 81.3164C140.075 81.3852 139.902 81.4205 139.727 81.4202C139.552 81.4198 139.379 81.3838 139.218 81.3143C139.057 81.2448 138.913 81.1433 138.792 81.016C138.771 80.9929 138.602 80.8212 138.535 80.7499L135.635 77.5796C135.613 77.5541 135.581 77.5387 135.547 77.5367C135.513 77.5347 135.479 77.5464 135.454 77.5691C135.428 77.5918 135.413 77.6237 135.411 77.6578C135.409 77.6918 135.42 77.7253 135.443 77.7508L138.345 80.9239C138.583 81.1664 138.72 81.4897 138.73 81.8291C138.739 82.1685 138.62 82.4989 138.397 82.7544C138.276 82.8811 138.131 82.982 137.97 83.0508C137.809 83.1196 137.636 83.155 137.461 83.1547C137.286 83.1545 137.113 83.1186 136.953 83.0494C136.792 82.9801 136.647 82.8789 136.527 82.7519L133.835 79.896C133.811 79.8718 133.78 79.8577 133.746 79.8565C133.713 79.8554 133.68 79.8674 133.655 79.8899C133.631 79.9124 133.615 79.9437 133.613 79.9772C133.611 80.0106 133.622 80.0435 133.644 80.069L136.038 82.6229C136.268 82.857 136.4 83.169 136.409 83.4965C136.418 83.8241 136.304 84.143 136.088 84.3896C135.972 84.5118 135.832 84.6091 135.676 84.6755C135.521 84.7419 135.354 84.776 135.186 84.7758C135.017 84.7756 134.85 84.741 134.695 84.6743C134.54 84.6075 134.4 84.5098 134.284 84.3873L134.095 84.5626Z" fill="#0C0C0C"/>
<path d="M139.714 76.959C139.413 76.9594 139.124 76.8424 138.908 76.6329C138.103 75.8531 137.154 75.0584 136.879 74.932C135.718 74.4131 133.96 74.1567 133.381 74.1016C133.228 74.0891 133.079 74.0463 132.943 73.9759C132.807 73.9054 132.686 73.8085 132.587 73.6909C132.489 73.5733 132.415 73.4373 132.369 73.2908C132.323 73.1444 132.307 72.9903 132.322 72.8376C132.336 72.6849 132.381 72.5366 132.453 72.4012C132.526 72.2659 132.624 72.1463 132.743 72.0494C132.862 71.9524 132.999 71.88 133.146 71.8364C133.293 71.7928 133.447 71.7788 133.6 71.7953C133.7 71.8048 136.083 72.0378 137.825 72.8173C138.643 73.1836 140.095 74.5567 140.52 74.9688C140.686 75.1294 140.8 75.3357 140.847 75.5614C140.895 75.787 140.874 76.0218 140.787 76.2356C140.701 76.4493 140.552 76.6324 140.361 76.7613C140.17 76.8902 139.944 76.959 139.714 76.959Z" fill="#E98862"/>
<path d="M126.631 76.8031L126.993 73.4229L152.473 75.8195L152.11 79.1995L126.631 76.8031Z" fill="#367CFF"/>
<path opacity="0.5" d="M126.631 76.8031L126.993 73.4229L152.473 75.8195L152.11 79.1995L126.631 76.8031Z" fill="white"/>
<path d="M154.913 79.4923L155.276 76.1123L152.473 75.8196L152.111 79.1996L154.913 79.4923Z" fill="#262626"/>
<path d="M126.631 76.8031C126.631 76.8031 125.788 76.209 125.035 75.6746C124.438 75.2508 123.897 74.8644 123.878 74.8418C124.303 74.6066 124.741 74.3972 125.191 74.2147C126.041 73.8345 126.993 73.4229 126.993 73.4229L126.631 76.8031Z" fill="#367CFF"/>
<path opacity="0.9" d="M126.631 76.8031C126.631 76.8031 125.788 76.209 125.035 75.6746C124.438 75.2508 123.897 74.8644 123.878 74.8418C124.303 74.6066 124.741 74.3972 125.191 74.2147C126.041 73.8345 126.993 73.4229 126.993 73.4229L126.631 76.8031Z" fill="white"/>
<path d="M125.035 75.6747C124.438 75.251 123.898 74.8646 123.879 74.8419C124.304 74.6068 124.742 74.3973 125.192 74.2148L125.035 75.6747Z" fill="#262626"/>
<path d="M126.751 75.7512L152.225 78.0866L152.209 78.2408L126.735 75.9057L126.751 75.7512Z" fill="white"/>
<path d="M126.892 74.429L152.366 76.7641L152.35 76.9185L126.876 74.5832L126.892 74.429Z" fill="white"/>
<path d="M144.176 79.4504L143.383 76.9989C143.26 76.6532 143.272 76.2736 143.418 75.9368C143.564 75.6 143.832 75.3311 144.169 75.1845C144.345 75.1149 144.533 75.0819 144.723 75.0875C144.912 75.0932 145.099 75.1374 145.27 75.2174C145.442 75.2974 145.596 75.4116 145.722 75.553C145.848 75.6944 145.944 75.86 146.005 76.0397L147.389 80.1843" fill="#E98862"/>
<path d="M162.194 131.841C160.454 131.841 158.746 131.37 157.252 130.479C155.757 129.588 154.531 128.31 153.703 126.779L134.499 90.067L150.451 81.3955L166.996 110.775L195.329 102.528L199.864 121.531L164.846 131.468C163.983 131.715 163.091 131.841 162.194 131.841Z" fill="#367CFF"/>
<path d="M188.907 124.724C188.876 124.725 188.845 124.713 188.821 124.692C188.797 124.671 188.782 124.642 188.778 124.611L188.008 118.043C188.006 118.026 188.007 118.009 188.012 117.992C188.016 117.976 188.024 117.961 188.035 117.948C188.045 117.934 188.058 117.923 188.073 117.915C188.088 117.907 188.104 117.901 188.121 117.899C188.155 117.896 188.188 117.906 188.215 117.927C188.242 117.948 188.259 117.979 188.264 118.012L189.034 124.58C189.036 124.597 189.035 124.614 189.03 124.631C189.026 124.647 189.018 124.662 189.007 124.675C188.997 124.689 188.984 124.7 188.969 124.708C188.954 124.716 188.938 124.722 188.921 124.724C188.916 124.724 188.912 124.724 188.907 124.724Z" fill="#0C0C0C"/>
<path d="M69.7432 40.3887H48.352C46.7486 40.3887 45.4487 41.6885 45.4487 43.2919V131.021C45.4487 132.624 46.7486 133.924 48.352 133.924H69.7432C71.3466 133.924 72.6465 132.624 72.6465 131.021V43.2919C72.6465 41.6885 71.3466 40.3887 69.7432 40.3887Z" fill="#292A2E"/>
<path d="M44.9621 159.815C45.0053 159.815 45.0477 159.803 45.0845 159.78C45.1212 159.758 45.1509 159.725 45.1701 159.686L51.2673 147.181C51.2893 147.127 51.2898 147.066 51.2688 147.011C51.2478 146.956 51.2068 146.912 51.154 146.886C51.1013 146.86 51.0408 146.856 50.9847 146.873C50.9286 146.89 50.8811 146.928 50.8518 146.978L44.7546 159.484C44.7376 159.519 44.7298 159.558 44.732 159.597C44.7341 159.636 44.7461 159.674 44.7668 159.707C44.7875 159.74 44.8163 159.768 44.8504 159.787C44.8846 159.806 44.923 159.816 44.9621 159.816V159.815Z" fill="#292A2E"/>
<path d="M34.6558 159.09C34.7069 159.09 34.7565 159.073 34.797 159.042C34.8374 159.01 34.8664 158.967 34.8795 158.917L41.9351 131.982C41.9459 131.924 41.9345 131.864 41.9032 131.815C41.8718 131.765 41.8228 131.729 41.7661 131.715C41.7094 131.7 41.6491 131.707 41.5975 131.735C41.5459 131.763 41.5067 131.809 41.4879 131.865L34.4321 158.8C34.4233 158.834 34.4224 158.87 34.4295 158.905C34.4366 158.939 34.4515 158.972 34.4731 159C34.4946 159.028 34.5223 159.05 34.554 159.066C34.5857 159.082 34.6205 159.09 34.6558 159.09Z" fill="#292A2E"/>
<path d="M21.1974 160.282C21.2284 160.282 21.2591 160.276 21.2875 160.264C21.3439 160.24 21.3884 160.194 21.4113 160.137C21.4343 160.081 21.4338 160.017 21.4101 159.961L14.1169 142.785C14.0902 142.733 14.0448 142.693 13.9898 142.673C13.9348 142.653 13.8743 142.654 13.8204 142.677C13.7666 142.7 13.7233 142.742 13.6994 142.796C13.6754 142.849 13.6726 142.909 13.6914 142.965L20.9845 160.141C21.0023 160.183 21.0319 160.219 21.0698 160.244C21.1076 160.269 21.152 160.282 21.1974 160.282Z" fill="#292A2E"/>
<path d="M34.3942 164.262C34.4132 164.262 34.4321 164.26 34.4506 164.255C34.5099 164.24 34.561 164.202 34.5925 164.149C34.624 164.097 34.6334 164.034 34.6187 163.975L26.1441 130.071C26.1264 130.015 26.0878 129.968 26.0363 129.939C25.9848 129.91 25.9242 129.902 25.867 129.916C25.8097 129.931 25.7601 129.966 25.7282 130.016C25.6963 130.066 25.6846 130.126 25.6954 130.184L34.1702 164.087C34.1828 164.137 34.2116 164.181 34.2522 164.213C34.2928 164.244 34.3427 164.262 34.3942 164.262Z" fill="#292A2E"/>
<path d="M31.3883 137.019C33.6876 132.185 32.1873 126.666 28.0371 124.692C23.887 122.718 18.6587 125.036 16.3594 129.869C14.06 134.703 15.5604 140.222 19.7105 142.196C23.8607 144.17 29.089 141.852 31.3883 137.019Z" fill="#0CBC8B"/>
<path opacity="0.4" d="M31.3883 137.019C33.6876 132.185 32.1873 126.666 28.0371 124.692C23.887 122.718 18.6587 125.036 16.3594 129.869C14.06 134.703 15.5604 140.222 19.7105 142.196C23.8607 144.17 29.089 141.852 31.3883 137.019Z" fill="white"/>
<path d="M17.1249 148.178C18.3242 145.2 17.2735 141.972 14.7781 140.966C12.2827 139.961 9.28753 141.561 8.08821 144.539C6.88889 147.516 7.93959 150.745 10.435 151.75C12.9304 152.755 15.9256 151.156 17.1249 148.178Z" fill="#0CBC8B"/>
<path d="M46.5305 144.357C50.2373 143.233 52.1236 138.633 50.7437 134.084C49.3639 129.535 45.2404 126.758 41.5336 127.883C37.8269 129.007 35.9405 133.606 37.3204 138.156C38.7002 142.705 42.8237 145.481 46.5305 144.357Z" fill="#0CBC8B"/>
<path d="M52.9056 154.039C54.9748 153.692 56.2568 151.05 55.769 148.138C55.2812 145.226 53.2084 143.146 51.1391 143.492C49.0699 143.839 47.7879 146.481 48.2757 149.393C48.7635 152.305 50.8363 154.385 52.9056 154.039Z" fill="#0CBC8B"/>
<path d="M14.3952 164.58H50.3941V155.609H14.3952V164.58Z" fill="#292A2E"/>
<path opacity="0.3" d="M14.3952 164.58H50.3941V155.609H14.3952V164.58Z" fill="white"/>
<path d="M31.4571 153.354C32.9202 149.721 31.627 145.778 28.5687 144.546C25.5105 143.315 21.8452 145.261 20.3821 148.894C18.919 152.527 20.2122 156.47 23.2704 157.702C26.3287 158.933 29.994 156.987 31.4571 153.354Z" fill="#0CBC8B"/>
<path d="M39.4472 156.802C42.4931 156.802 44.9623 154.332 44.9623 151.286C44.9623 148.24 42.4931 145.771 39.4472 145.771C36.4013 145.771 33.9321 148.24 33.9321 151.286C33.9321 154.332 36.4013 156.802 39.4472 156.802Z" fill="#0CBC8B"/>
<path opacity="0.68" d="M17.1249 148.178C18.3242 145.2 17.2735 141.972 14.7781 140.966C12.2827 139.961 9.28753 141.561 8.08821 144.539C6.88889 147.516 7.93959 150.745 10.435 151.75C12.9304 152.755 15.9256 151.156 17.1249 148.178Z" fill="white"/>
<path opacity="0.68" d="M46.5305 144.357C50.2373 143.233 52.1236 138.633 50.7437 134.084C49.3639 129.535 45.2404 126.758 41.5336 127.883C37.8269 129.007 35.9405 133.606 37.3204 138.156C38.7002 142.705 42.8237 145.481 46.5305 144.357Z" fill="white"/>
<path opacity="0.68" d="M52.9056 154.039C54.9748 153.692 56.2568 151.05 55.769 148.138C55.2812 145.226 53.2084 143.146 51.1391 143.492C49.0699 143.839 47.7879 146.481 48.2757 149.393C48.7635 152.305 50.8363 154.385 52.9056 154.039Z" fill="white"/>
<path opacity="0.68" d="M31.4571 153.354C32.9202 149.721 31.627 145.778 28.5687 144.546C25.5105 143.315 21.8452 145.261 20.3821 148.894C18.919 152.527 20.2122 156.47 23.2704 157.702C26.3287 158.933 29.994 156.987 31.4571 153.354Z" fill="white"/>
<path opacity="0.4" d="M39.4472 156.802C42.4931 156.802 44.9623 154.332 44.9623 151.286C44.9623 148.24 42.4931 145.771 39.4472 145.771C36.4013 145.771 33.9321 148.24 33.9321 151.286C33.9321 154.332 36.4013 156.802 39.4472 156.802Z" fill="white"/>
<path d="M21.7326 146.644C25.9187 147.813 28.1217 144.392 28.1217 144.392L28.1194 144.388C25.8865 143.722 23.4108 144.658 21.7326 146.644Z" fill="#292A2E"/>
<path d="M48.1738 148.044C50.2346 147.255 51.9423 145.75 52.9841 143.805C52.4194 143.504 51.772 143.394 51.1396 143.493C49.3966 143.784 48.2132 145.705 48.1738 148.044Z" fill="#292A2E"/>
<path d="M38.4634 145.86C40.0687 147.306 42.0745 148.232 44.2166 148.516C43.6462 147.536 42.7881 146.756 41.7588 146.281C40.7295 145.806 39.579 145.659 38.4634 145.86Z" fill="#292A2E"/>
<path d="M0.257573 165.018H262.743C262.811 165.018 262.876 164.991 262.925 164.943C262.973 164.895 263 164.829 263 164.761C263 164.693 262.973 164.627 262.925 164.579C262.876 164.531 262.811 164.503 262.743 164.503H0.257573C0.189299 164.503 0.123821 164.531 0.0755438 164.579C0.0272667 164.627 0.000144958 164.693 0.000144958 164.761C0.000144958 164.829 0.0272667 164.895 0.0755438 164.943C0.123821 164.991 0.189299 165.018 0.257573 165.018Z" fill="#292A2E"/>
<path d="M55.1184 60.9304H50.5099C49.8736 60.9304 49.3577 61.4463 49.3577 62.0827V66.6911C49.3577 67.3275 49.8736 67.8434 50.5099 67.8434H55.1184C55.7548 67.8434 56.2707 67.3275 56.2707 66.6911V62.0827C56.2707 61.4463 55.7548 60.9304 55.1184 60.9304Z" fill="#292A2E"/>
<path d="M55.1185 67.9721H50.5105C50.1709 67.9718 49.8454 67.8367 49.6052 67.5966C49.3651 67.3565 49.23 67.031 49.2296 66.6914V62.0834C49.2299 61.7438 49.365 61.4182 49.6051 61.178C49.8453 60.9379 50.1709 60.8028 50.5105 60.8025H55.1185C55.4581 60.8028 55.7837 60.9379 56.0239 61.178C56.264 61.4182 56.3991 61.7438 56.3994 62.0834V66.6914C56.399 67.031 56.2639 67.3565 56.0238 67.5966C55.7836 67.8367 55.4581 67.9718 55.1185 67.9721ZM50.5105 61.0591C50.2391 61.0594 49.979 61.1673 49.7871 61.3592C49.5952 61.5511 49.4873 61.8113 49.487 62.0827V66.6906C49.4873 66.962 49.5952 67.2221 49.7871 67.414C49.979 67.6058 50.2392 67.7137 50.5105 67.7139H55.1185C55.3898 67.7137 55.65 67.6058 55.8419 67.414C56.0338 67.2221 56.1417 66.962 56.142 66.6906V62.0827C56.1417 61.8113 56.0338 61.5511 55.8419 61.3592C55.65 61.1673 55.3898 61.0594 55.1185 61.0591H50.5105Z" fill="white"/>
<path d="M67.7267 64.2614C67.7267 62.3525 66.1792 60.8049 64.2703 60.8049C62.3613 60.8049 60.8138 62.3525 60.8138 64.2614C60.8138 66.1704 62.3613 67.7179 64.2703 67.7179C66.1792 67.7179 67.7267 66.1704 67.7267 64.2614Z" fill="#292A2E"/>
<path d="M64.2702 67.8467C63.5612 67.8467 62.868 67.6364 62.2784 67.2424C61.6888 66.8485 61.2293 66.2886 60.958 65.6335C60.6866 64.9784 60.6156 64.2575 60.7539 63.562C60.8923 62.8666 61.2337 62.2277 61.7351 61.7263C62.2365 61.2249 62.8753 60.8835 63.5708 60.7452C64.2663 60.6068 64.9871 60.6778 65.6422 60.9492C66.2973 61.2205 66.8573 61.6801 67.2512 62.2696C67.6452 62.8592 67.8554 63.5524 67.8554 64.2615C67.8543 65.212 67.4763 66.1233 66.8042 66.7954C66.132 67.4675 65.2208 67.8456 64.2702 67.8467ZM64.2702 60.9337C63.6121 60.9337 62.9687 61.1289 62.4214 61.4945C61.8742 61.8602 61.4477 62.3799 61.1958 62.988C60.9439 63.5961 60.878 64.2652 61.0064 64.9107C61.1348 65.5562 61.4518 66.1492 61.9172 66.6145C62.3826 67.0799 62.9755 67.3969 63.621 67.5253C64.2665 67.6537 64.9357 67.5878 65.5437 67.3359C66.1518 67.084 66.6715 66.6575 67.0372 66.1103C67.4028 65.563 67.598 64.9196 67.598 64.2615C67.597 63.3792 67.2461 62.5334 66.6222 61.9095C65.9983 61.2857 65.1525 60.9347 64.2702 60.9337Z" fill="white"/>
<path d="M50.2301 45.0637L50.1266 54.3458L52.9609 51.7427L56.6084 51.8078L50.2301 45.0637Z" fill="#292A2E"/>
<path d="M50.1266 54.4758C50.1089 54.4757 50.0913 54.4719 50.0751 54.4645C50.052 54.4544 50.0324 54.4378 50.0187 54.4166C50.0049 54.3955 49.9977 54.3708 49.9979 54.3456L50.1009 45.0638C50.1011 45.0381 50.109 45.0131 50.1236 44.992C50.1381 44.9709 50.1587 44.9546 50.1825 44.9452C50.2064 44.9358 50.2325 44.9338 50.2576 44.9394C50.2826 44.9449 50.3054 44.9579 50.323 44.9765L56.7013 51.7211C56.7188 51.7395 56.7304 51.7626 56.7347 51.7875C56.7391 51.8125 56.736 51.8382 56.7258 51.8614C56.7164 51.8853 56.6998 51.9056 56.6782 51.9195C56.6566 51.9334 56.6312 51.9401 56.6056 51.9386L53.0096 51.8745L50.2131 54.4426C50.1894 54.464 50.1586 54.4759 50.1266 54.4758ZM50.3552 45.3848L50.2584 54.0511L52.8739 51.6493C52.8986 51.6276 52.9303 51.6156 52.9632 51.6155L56.3044 51.675L50.3552 45.3848Z" fill="white"/>
<path d="M61.766 45.0637L61.6625 54.3458L64.497 51.7427L68.1443 51.8078L61.766 45.0637Z" fill="white"/>
<path d="M61.6625 54.4758C61.6447 54.4758 61.6272 54.4719 61.611 54.4645C61.5879 54.4544 61.5683 54.4378 61.5545 54.4166C61.5408 54.3955 61.5336 54.3708 61.5338 54.3456L61.6368 45.0638C61.637 45.0381 61.6449 45.0131 61.6595 44.992C61.674 44.9709 61.6945 44.9546 61.7184 44.9452C61.7423 44.9358 61.7684 44.9338 61.7934 44.9394C61.8185 44.9449 61.8413 44.9579 61.8589 44.9765L68.2375 51.7211C68.2548 51.7395 68.2664 51.7626 68.2707 51.7876C68.275 51.8125 68.2719 51.8382 68.2617 51.8614C68.2526 51.8854 68.236 51.9059 68.2144 51.9198C68.1928 51.9337 68.1673 51.9403 68.1417 51.9386L64.5454 51.8745L61.7493 54.4426C61.7254 54.464 61.6945 54.4758 61.6625 54.4758ZM61.8911 45.3848L61.7946 54.0511L64.4098 51.6493C64.4347 51.6279 64.4663 51.616 64.4991 51.6155L67.8402 51.675L61.8911 45.3848Z" fill="#292A2E"/>
<path d="M50.372 74.4041L49.8518 81.1628L51.4803 82.0811L55.0423 80.6696L55.2166 78.7711L50.372 74.4041Z" fill="#292A2E"/>
<path d="M51.4802 82.2102C51.458 82.2101 51.4362 82.2044 51.4169 82.1934L49.7884 81.2754C49.7671 81.2634 49.7496 81.2455 49.7381 81.2239C49.7265 81.2023 49.7214 81.1778 49.7233 81.1534L50.2438 74.3944C50.2457 74.3704 50.2542 74.3475 50.2684 74.3281C50.2827 74.3087 50.3021 74.2937 50.3244 74.2848C50.3467 74.2759 50.3711 74.2734 50.3947 74.2776C50.4184 74.2818 50.4404 74.2926 50.4583 74.3087L55.3028 78.6757C55.3177 78.6891 55.3292 78.7058 55.3365 78.7245C55.3438 78.7432 55.3466 78.7633 55.3447 78.7833L55.1707 80.6818C55.1685 80.7055 55.1598 80.7281 55.1456 80.7472C55.1313 80.7662 55.112 80.7809 55.0899 80.7897L51.5276 82.2011C51.5125 82.2071 51.4965 82.2101 51.4802 82.2102ZM49.9872 81.0914L51.4905 81.9391L54.9223 80.5794L55.0832 78.8237L50.4817 74.6753L49.9872 81.0914Z" fill="white"/>
<path d="M51.9274 78.4635C51.9016 78.4635 51.8764 78.4557 51.855 78.4412C51.8337 78.4267 51.8172 78.4061 51.8077 78.3821L50.2526 74.4523C50.2455 74.4364 50.2418 74.4193 50.2416 74.402C50.2413 74.3847 50.2446 74.3675 50.2512 74.3514C50.2577 74.3354 50.2675 74.3209 50.2798 74.3087C50.2921 74.2965 50.3068 74.2869 50.3229 74.2805C50.339 74.2742 50.3562 74.2711 50.3735 74.2715C50.3909 74.272 50.4079 74.2759 50.4237 74.2831C50.4394 74.2903 50.4536 74.3006 50.4653 74.3134C50.477 74.3262 50.486 74.3412 50.4917 74.3575L52.0471 78.2882C52.0548 78.3077 52.0576 78.3288 52.0553 78.3497C52.053 78.3706 52.0456 78.3906 52.0338 78.4079C52.022 78.4253 52.0062 78.4395 51.9876 78.4493C51.9691 78.4591 51.9484 78.4643 51.9274 78.4643V78.4635Z" fill="white"/>
<path d="M52.1649 79.7942C52.6429 79.7942 53.0304 79.4067 53.0304 78.9287C53.0304 78.4507 52.6429 78.0632 52.1649 78.0632C51.6869 78.0632 51.2995 78.4507 51.2995 78.9287C51.2995 79.4067 51.6869 79.7942 52.1649 79.7942Z" fill="#292A2E"/>
<path d="M52.165 79.9229C51.9683 79.923 51.7761 79.8647 51.6125 79.7555C51.449 79.6463 51.3215 79.491 51.2463 79.3094C51.171 79.1277 51.1512 78.9278 51.1896 78.735C51.2279 78.5421 51.3226 78.3649 51.4616 78.2259C51.6006 78.0868 51.7778 77.9921 51.9706 77.9537C52.1635 77.9153 52.3634 77.935 52.5451 78.0102C52.7268 78.0855 52.8821 78.2129 52.9913 78.3764C53.1006 78.5399 53.1589 78.7321 53.1589 78.9288C53.1586 79.1923 53.0538 79.445 52.8675 79.6314C52.6811 79.8177 52.4285 79.9226 52.165 79.9229ZM52.165 78.1923C52.0192 78.1922 51.8767 78.2354 51.7555 78.3163C51.6343 78.3972 51.5399 78.5123 51.4841 78.647C51.4283 78.7816 51.4137 78.9297 51.4421 79.0727C51.4705 79.2156 51.5407 79.3469 51.6437 79.45C51.7468 79.553 51.8781 79.6232 52.021 79.6516C52.164 79.68 52.3121 79.6654 52.4468 79.6096C52.5814 79.5538 52.6965 79.4594 52.7774 79.3382C52.8583 79.217 52.9015 79.0745 52.9015 78.9288C52.9012 78.7335 52.8235 78.5463 52.6854 78.4083C52.5474 78.2702 52.3602 78.1925 52.165 78.1923Z" fill="white"/>
<path d="M50.6377 82.3192L55.7347 80.2994C55.824 80.264 55.9235 80.2648 56.0121 80.3017C56.1007 80.3386 56.1714 80.4086 56.2092 80.4968L56.5796 81.361C56.5991 81.4065 56.6092 81.4555 56.6093 81.5051C56.6095 81.5546 56.5997 81.6036 56.5804 81.6493C56.5612 81.6949 56.533 81.7362 56.4975 81.7707C56.462 81.8052 56.4199 81.8322 56.3737 81.8501L51.2591 83.839C51.1698 83.8738 51.0704 83.8724 50.9821 83.8351C50.8938 83.7978 50.8235 83.7275 50.7862 83.6392L50.4335 82.8057C50.4143 82.7604 50.4044 82.7118 50.4043 82.6626C50.4042 82.6134 50.414 82.5647 50.433 82.5194C50.452 82.474 50.4799 82.4329 50.5151 82.3986C50.5502 82.3642 50.5919 82.3372 50.6377 82.3192Z" fill="white"/>
<path d="M62.6113 75.4175L62.1204 81.7924L63.6564 82.6584L67.0164 81.327L67.1806 79.5366L62.6113 75.4175Z" fill="#292A2E"/>
<path d="M63.6563 82.787C63.6341 82.787 63.6123 82.7812 63.593 82.7703L62.0572 81.9045C62.0358 81.8925 62.0184 81.8746 62.0068 81.853C61.9953 81.8314 61.9902 81.8069 61.992 81.7825L62.4827 75.4073C62.4845 75.3833 62.493 75.3603 62.5073 75.3409C62.5215 75.3215 62.5409 75.3064 62.5633 75.2975C62.5857 75.2886 62.6101 75.2861 62.6338 75.2904C62.6575 75.2946 62.6795 75.3054 62.6974 75.3216L67.2667 79.4404C67.2816 79.4538 67.2931 79.4705 67.3004 79.4892C67.3077 79.5078 67.3105 79.5279 67.3087 79.5478L67.1444 81.3384C67.1423 81.3621 67.1335 81.3848 67.1193 81.4038C67.105 81.4228 67.0857 81.4376 67.0636 81.4463L63.7037 82.7777C63.6886 82.7837 63.6725 82.7869 63.6563 82.787ZM62.2549 81.7205L63.6661 82.5159L66.8953 81.2365L67.0464 79.589L62.7193 75.6879L62.2549 81.7205Z" fill="white"/>
<path d="M64.078 79.2535C64.0522 79.2535 64.027 79.2457 64.0056 79.2312C63.9843 79.2167 63.9678 79.1961 63.9583 79.1721L62.491 75.4652C62.4784 75.4334 62.479 75.398 62.4925 75.3666C62.5061 75.3353 62.5316 75.3107 62.5633 75.2981C62.5951 75.2855 62.6305 75.2861 62.6618 75.2997C62.6932 75.3132 62.7178 75.3387 62.7304 75.3704L64.1977 79.0774C64.2039 79.0931 64.207 79.1099 64.2067 79.1268C64.2065 79.1437 64.2029 79.1604 64.1962 79.1759C64.1894 79.1914 64.1797 79.2055 64.1676 79.2172C64.1554 79.229 64.1411 79.2382 64.1254 79.2445C64.1103 79.2505 64.0942 79.2535 64.078 79.2535Z" fill="white"/>
<path d="M64.3022 80.5015C64.7531 80.5015 65.1185 80.136 65.1185 79.6852C65.1185 79.2344 64.7531 78.8689 64.3022 78.8689C63.8514 78.8689 63.4859 79.2344 63.4859 79.6852C63.4859 80.136 63.8514 80.5015 64.3022 80.5015Z" fill="#292A2E"/>
<path d="M64.3022 80.6308C64.1153 80.6308 63.9326 80.5753 63.7772 80.4715C63.6218 80.3676 63.5007 80.2201 63.4291 80.0474C63.3576 79.8747 63.3389 79.6847 63.3754 79.5014C63.4118 79.3181 63.5018 79.1497 63.634 79.0175C63.7662 78.8853 63.9346 78.7953 64.1179 78.7589C64.3012 78.7224 64.4912 78.7411 64.6639 78.8127C64.8366 78.8842 64.9841 79.0053 65.088 79.1607C65.1918 79.3161 65.2472 79.4988 65.2472 79.6857C65.247 79.9363 65.1473 80.1765 64.9702 80.3537C64.793 80.5308 64.5528 80.6305 64.3022 80.6308ZM64.3022 78.9982C64.1662 78.9982 64.0333 79.0385 63.9202 79.114C63.8072 79.1896 63.719 79.297 63.667 79.4226C63.6149 79.5483 63.6013 79.6865 63.6279 79.8199C63.6544 79.9533 63.7199 80.0758 63.816 80.1719C63.9122 80.2681 64.0347 80.3336 64.1681 80.3601C64.3015 80.3866 64.4397 80.373 64.5654 80.321C64.691 80.2689 64.7984 80.1808 64.8739 80.0677C64.9495 79.9547 64.9898 79.8217 64.9898 79.6857C64.9898 79.5034 64.9173 79.3284 64.7884 79.1994C64.6595 79.0704 64.4846 78.9978 64.3022 78.9976V78.9982Z" fill="white"/>
<path d="M62.8617 82.8832L67.6689 80.9783C67.7531 80.9449 67.847 80.9458 67.9306 80.9806C68.0142 81.0154 68.0809 81.0814 68.1166 81.1646L68.4659 81.9799C68.4843 82.0228 68.4939 82.0689 68.494 82.1155C68.4942 82.1621 68.485 82.2083 68.4669 82.2513C68.4488 82.2943 68.4223 82.3331 68.3889 82.3657C68.3554 82.3982 68.3158 82.4236 68.2724 82.4405L63.4484 84.3166C63.3642 84.3494 63.2704 84.3481 63.1871 84.3129C63.1038 84.2777 63.0375 84.2114 63.0023 84.1282L62.6697 83.342C62.6516 83.2993 62.6423 83.2535 62.6422 83.2071C62.6421 83.1608 62.6512 83.1149 62.6691 83.0722C62.687 83.0294 62.7133 82.9907 62.7463 82.9582C62.7794 82.9258 62.8187 82.9003 62.8617 82.8832Z" fill="white"/>
<path d="M65.9338 76.0375C65.8997 76.0375 65.8669 76.0239 65.8428 75.9998C65.8186 75.9756 65.8051 75.9429 65.8051 75.9088V73.4251C65.8051 73.391 65.8186 73.3582 65.8428 73.3341C65.8669 73.3099 65.8997 73.2964 65.9338 73.2964C65.9679 73.2964 66.0007 73.3099 66.0248 73.3341C66.0489 73.3582 66.0625 73.391 66.0625 73.4251V75.9088C66.0625 75.9429 66.0489 75.9756 66.0248 75.9998C66.0007 76.0239 65.9679 76.0375 65.9338 76.0375Z" fill="white"/>
<path d="M67.1757 74.7958H64.6918C64.6576 74.7958 64.6249 74.7822 64.6007 74.7581C64.5766 74.7339 64.563 74.7012 64.563 74.667C64.563 74.6329 64.5766 74.6002 64.6007 74.576C64.6249 74.5519 64.6576 74.5383 64.6918 74.5383H67.1754C67.2096 74.5383 67.2423 74.5519 67.2664 74.576C67.2906 74.6002 67.3041 74.6329 67.3041 74.667C67.3041 74.7012 67.2906 74.7339 67.2664 74.7581C67.2423 74.7822 67.2096 74.7958 67.1754 74.7958H67.1757Z" fill="white"/>
<path d="M50.4657 97.7584C50.2962 97.7587 50.1297 97.7144 49.983 97.6297C49.7597 97.5012 49.5967 97.2893 49.5297 97.0406C49.4626 96.7919 49.4972 96.5267 49.6257 96.3035L52.2321 91.7756C52.2491 91.746 52.2771 91.7244 52.3101 91.7154C52.343 91.7065 52.3781 91.711 52.4077 91.7279L53.8681 92.5684C53.8973 92.5854 53.9189 92.6131 53.9281 92.6457C53.9369 92.6786 53.9322 92.7137 53.9152 92.7432L51.3092 97.2709C51.224 97.4192 51.1012 97.5425 50.953 97.6281C50.8049 97.7137 50.6368 97.7587 50.4657 97.7584ZM50.1114 97.406C50.2755 97.5002 50.4702 97.5254 50.6529 97.4762C50.8356 97.427 50.9913 97.3073 51.0858 97.1434L53.6276 92.7275L52.3907 92.0155L49.8489 96.4314C49.7545 96.5955 49.7291 96.7904 49.7783 96.9732C49.8276 97.156 49.9474 97.3115 50.1114 97.406Z" fill="white"/>
<path d="M54.6493 91.9239L52.5731 90.7289C52.2628 90.5503 51.8665 90.657 51.6879 90.9673L51.6878 90.9675C51.5092 91.2778 51.616 91.6741 51.9262 91.8527L54.0025 93.0477C54.3128 93.2263 54.7091 93.1195 54.8877 92.8092L54.8878 92.809C55.0664 92.4988 54.9596 92.1025 54.6493 91.9239Z" fill="white"/>
<path d="M54.4664 89.8407C54.6306 89.9352 54.7505 90.091 54.7997 90.2739C54.849 90.4568 54.8236 90.6517 54.7291 90.8159L53.9073 92.2438L52.6692 91.5312L53.4911 90.1033C53.5379 90.022 53.6002 89.9507 53.6746 89.8935C53.7489 89.8363 53.8338 89.7943 53.9244 89.77C54.0149 89.7456 54.1094 89.7393 54.2024 89.7514C54.2954 89.7636 54.3851 89.7939 54.4664 89.8407Z" fill="white"/>
<path d="M64.6123 97.2745C64.1241 97.2758 63.6404 97.1804 63.1892 96.994C62.738 96.8076 62.3281 96.5337 61.9832 96.1881C61.9597 96.1639 61.9467 96.1314 61.9469 96.0976C61.9472 96.0639 61.9607 96.0316 61.9845 96.0077C62.0083 95.9838 62.0406 95.9702 62.0744 95.9699C62.1081 95.9695 62.1406 95.9824 62.1649 96.0059C62.6509 96.4901 63.2695 96.8193 63.9426 96.9519C64.6156 97.0845 65.3129 97.0145 65.9462 96.7508C66.5795 96.4871 67.1203 96.0416 67.5004 95.4705C67.8804 94.8994 68.0826 94.2284 68.0813 93.5424C68.08 92.8564 67.8753 92.1862 67.4931 91.6166C67.1109 91.0469 66.5683 90.6034 65.9341 90.3421C65.2998 90.0808 64.6023 90.0135 63.9297 90.1486C63.2572 90.2838 62.6398 90.6153 62.1557 91.1014C62.1314 91.1248 62.0989 91.1379 62.0652 91.1376C62.0314 91.1374 61.9991 91.1239 61.9752 91.1C61.9513 91.0762 61.9377 91.0439 61.9374 91.0102C61.9371 90.9764 61.95 90.9439 61.9734 90.9196C62.4058 90.4856 62.9386 90.1649 63.5245 89.9859C64.1105 89.807 64.7315 89.7753 65.3326 89.8937C65.9337 90.0121 66.4963 90.2769 66.9707 90.6647C67.445 91.0525 67.8164 91.5512 68.0519 92.1168C68.2874 92.6824 68.3798 93.2973 68.3209 93.9071C68.262 94.5169 68.0536 95.1028 67.7142 95.6129C67.3748 96.1229 66.9149 96.5414 66.3751 96.8312C65.8353 97.1211 65.2324 97.2733 64.6198 97.2745H64.6123Z" fill="white"/>
<path d="M63.4766 91.4682C63.4689 91.4681 63.4613 91.4674 63.4537 91.4661L61.9027 91.1878C61.8858 91.1848 61.8697 91.1783 61.8554 91.169C61.841 91.1596 61.8287 91.1474 61.8191 91.1332C61.8095 91.119 61.8028 91.103 61.7995 91.0861C61.7962 91.0693 61.7963 91.052 61.7997 91.0352L62.0991 89.5771C62.1025 89.5605 62.1091 89.5448 62.1186 89.5308C62.128 89.5168 62.1402 89.5048 62.1543 89.4955C62.1684 89.4861 62.1842 89.4797 62.2008 89.4765C62.2174 89.4733 62.2344 89.4733 62.251 89.4767C62.2676 89.4801 62.2833 89.4867 62.2973 89.4962C62.3113 89.5056 62.3233 89.5178 62.3327 89.5319C62.342 89.546 62.3484 89.5618 62.3516 89.5784C62.3549 89.595 62.3548 89.612 62.3514 89.6286L62.0785 90.9574L63.4995 91.2126C63.5311 91.2183 63.5595 91.2356 63.5789 91.2611C63.5984 91.2867 63.6076 91.3186 63.6048 91.3506C63.602 91.3826 63.5873 91.4124 63.5636 91.4341C63.5399 91.4558 63.509 91.4679 63.4769 91.4679L63.4766 91.4682Z" fill="white"/>
<path d="M66.981 110.066H60.7834C60.7493 110.066 60.7165 110.053 60.6924 110.028C60.6683 110.004 60.6547 109.971 60.6547 109.937V103.74C60.6547 103.706 60.6683 103.673 60.6924 103.649C60.7165 103.625 60.7493 103.611 60.7834 103.611H66.981C67.0151 103.611 67.0478 103.625 67.072 103.649C67.0961 103.673 67.1097 103.706 67.1097 103.74V109.937C67.1097 109.971 67.0961 110.004 67.072 110.028C67.0478 110.053 67.0151 110.066 66.981 110.066ZM60.9121 109.809H66.8523V103.869H60.9121V109.809Z" fill="white"/>
<path d="M67.4002 105.969H64.0624C63.2848 105.969 62.6545 106.6 62.6545 107.377V110.715C62.6545 111.492 63.2848 112.123 64.0624 112.123H67.4002C68.1777 112.123 68.8081 111.492 68.8081 110.715V107.377C68.8081 106.6 68.1777 105.969 67.4002 105.969Z" fill="#292A2E"/>
<path d="M67.4004 112.251H64.0623C63.6549 112.251 63.2644 112.089 62.9763 111.801C62.6882 111.513 62.5262 111.122 62.5257 110.715V107.377C62.5262 106.97 62.6882 106.579 62.9763 106.291C63.2644 106.003 63.6549 105.841 64.0623 105.841H67.4004C67.8077 105.841 68.1983 106.003 68.4863 106.291C68.7743 106.579 68.9363 106.97 68.9367 107.377V110.715C68.9363 111.122 68.7743 111.513 68.4863 111.801C68.1982 112.089 67.8077 112.251 67.4004 112.251ZM64.0623 106.099C63.7231 106.099 63.398 106.234 63.1582 106.474C62.9184 106.714 62.7835 107.039 62.7831 107.378V110.716C62.7836 111.055 62.9185 111.38 63.1583 111.62C63.3981 111.859 63.7232 111.994 64.0623 111.995H67.4004C67.7394 111.994 68.0645 111.859 68.3043 111.62C68.5441 111.38 68.6789 111.055 68.6793 110.716V107.377C68.679 107.038 68.5442 106.713 68.3044 106.473C68.0646 106.233 67.7395 106.098 67.4004 106.098L64.0623 106.099Z" fill="white"/>
<path d="M54.4054 107.124C54.4054 105.664 53.2218 104.48 51.7619 104.48C50.3019 104.48 49.1183 105.664 49.1183 107.124C49.1183 108.584 50.3019 109.768 51.7619 109.768C53.2218 109.768 54.4054 108.584 54.4054 107.124Z" fill="#292A2E"/>
<path d="M51.7618 109.896C51.2135 109.896 50.6776 109.734 50.2217 109.429C49.7658 109.124 49.4105 108.691 49.2006 108.185C48.9908 107.678 48.9359 107.121 49.0429 106.583C49.1498 106.045 49.4139 105.551 49.8016 105.164C50.1893 104.776 50.6832 104.512 51.221 104.405C51.7588 104.298 52.3162 104.353 52.8227 104.563C53.3293 104.773 53.7623 105.128 54.0669 105.584C54.3715 106.04 54.5341 106.576 54.5341 107.124C54.5332 107.859 54.2408 108.564 53.7211 109.083C53.2014 109.603 52.4968 109.895 51.7618 109.896ZM51.7618 104.609C51.2645 104.609 50.7783 104.757 50.3647 105.033C49.9511 105.309 49.6288 105.702 49.4385 106.162C49.2481 106.621 49.1983 107.127 49.2954 107.615C49.3924 108.102 49.6319 108.551 49.9836 108.902C50.3353 109.254 50.7834 109.494 51.2712 109.591C51.7591 109.688 52.2647 109.638 52.7242 109.447C53.1837 109.257 53.5765 108.935 53.8528 108.521C54.1292 108.108 54.2767 107.621 54.2767 107.124C54.2759 106.457 54.0107 105.818 53.5393 105.347C53.0678 104.875 52.4286 104.61 51.7618 104.609Z" fill="white"/>
<path d="M53.1408 109.379L52.9189 109.509L54.6863 112.517L54.9083 112.386L53.1408 109.379Z" fill="white"/>
<path d="M68.5904 126.949H61.6839V120.043H68.5904V126.949ZM61.9413 126.691H68.333V120.3H61.9413V126.691Z" fill="white"/>
<path d="M61.8126 120.3C61.7785 120.3 61.7457 120.287 61.7216 120.262C61.6975 120.238 61.6839 120.206 61.6839 120.171V118.157C61.6839 118.123 61.6975 118.09 61.7216 118.066C61.7457 118.042 61.7785 118.028 61.8126 118.028C61.8467 118.028 61.8795 118.042 61.9036 118.066C61.9278 118.09 61.9413 118.123 61.9413 118.157V120.171C61.9413 120.206 61.9278 120.238 61.9036 120.262C61.8795 120.287 61.8467 120.3 61.8126 120.3Z" fill="white"/>
<path d="M61.7907 120.3H59.7761C59.7419 120.3 59.7092 120.287 59.6851 120.262C59.6609 120.238 59.6474 120.206 59.6474 120.171C59.6474 120.137 59.6609 120.105 59.6851 120.08C59.7092 120.056 59.7419 120.043 59.7761 120.043H61.7907C61.8248 120.043 61.8576 120.056 61.8817 120.08C61.9059 120.105 61.9194 120.137 61.9194 120.171C61.9194 120.206 61.9059 120.238 61.8817 120.262C61.8576 120.287 61.8248 120.3 61.7907 120.3Z" fill="white"/>
<path d="M51.5806 127.407H52.1248L53.8604 119.251H56.3958L56.4803 118.826H50.873L50.7803 119.251H53.3031L51.5806 127.407Z" fill="white"/>
<path d="M172.896 160.621L162.26 127.928C162.073 127.354 161.709 126.853 161.22 126.498C160.731 126.143 160.143 125.952 159.539 125.952H116.208C115.756 125.952 115.311 126.059 114.909 126.264C114.506 126.469 114.158 126.766 113.893 127.132C113.627 127.497 113.452 127.92 113.381 128.367C113.311 128.813 113.347 129.269 113.487 129.699L124.123 162.392C124.31 162.967 124.673 163.467 125.162 163.822C125.651 164.177 126.24 164.368 126.844 164.368H170.174C170.626 164.368 171.071 164.261 171.474 164.056C171.876 163.851 172.224 163.554 172.49 163.188C172.755 162.823 172.93 162.4 173.001 161.954C173.071 161.507 173.035 161.051 172.896 160.621Z" fill="#292A2E"/>
<path d="M193.225 161.717H164.22C163.497 161.717 162.911 162.303 162.911 163.026V163.06C162.911 163.782 163.497 164.368 164.22 164.368H193.225C193.948 164.368 194.534 163.782 194.534 163.06V163.026C194.534 162.303 193.948 161.717 193.225 161.717Z" fill="#292A2E"/>
<path d="M143.191 151.299C145.701 151.299 147.736 149.265 147.736 146.755C147.736 144.245 145.701 142.21 143.191 142.21C140.681 142.21 138.646 144.245 138.646 146.755C138.646 149.265 140.681 151.299 143.191 151.299Z" fill="white"/>
</svg>
