<svg width="135" height="112" viewBox="0 0 135 112" fill="none" xmlns="http://www.w3.org/2000/svg">
<g clip-path="url(#clip0_9_2523)">
<path d="M38.4884 45.7727L94.0769 45.7727C95.442 45.7727 96.5486 44.6654 96.5486 43.2995V2.57523C96.5486 1.20932 95.442 0.102024 94.0769 0.102024L38.4884 0.102024C37.1233 0.102024 36.0167 1.20932 36.0167 2.57523L36.0167 43.2995C36.0167 44.6654 37.1233 45.7727 38.4884 45.7727Z" fill="white"/>
<path d="M94.0769 45.8746H38.4885C37.8062 45.8738 37.152 45.6023 36.6695 45.1195C36.1871 44.6367 35.9157 43.9822 35.9149 43.2994V2.57515C35.9157 1.89241 36.1871 1.23785 36.6695 0.755077C37.152 0.272305 37.8062 0.0007532 38.4885 0L94.0769 0C94.7592 0.000753139 95.4134 0.272301 95.8959 0.755069C96.3784 1.23784 96.6498 1.8924 96.6506 2.57515V43.2994C96.6498 43.9822 96.3784 44.6367 95.8959 45.1195C95.4134 45.6023 94.7592 45.8738 94.0769 45.8746ZM38.4885 0.203894C37.8602 0.204615 37.2579 0.454674 36.8136 0.899216C36.3693 1.34376 36.1194 1.94648 36.1187 2.57515V43.2994C36.1194 43.9281 36.3693 44.5308 36.8136 44.9754C37.2579 45.4199 37.8602 45.67 38.4885 45.6707H94.0769C94.7052 45.67 95.3076 45.4199 95.7519 44.9754C96.1961 44.5308 96.4461 43.9281 96.4468 43.2994V2.57515C96.4461 1.94647 96.1961 1.34375 95.7519 0.899208C95.3076 0.45467 94.7052 0.204614 94.0769 0.203894H38.4885Z" fill="#292A2E"/>
<path d="M43.2202 3.93851L39.2472 4.31549C38.8369 4.35442 38.5358 4.71884 38.5747 5.12944L38.9514 9.10486C38.9903 9.51546 39.3545 9.81675 39.7649 9.77781L43.7379 9.40084C44.1482 9.3619 44.4493 8.99748 44.4104 8.58688L44.0336 4.61146C43.9947 4.20086 43.6305 3.89957 43.2202 3.93851Z" fill="#292A2E"/>
<path d="M54.5341 12.5622L50.5662 12.1351C50.1564 12.0909 49.7884 12.3876 49.7443 12.7977L49.3174 16.768C49.2733 17.1781 49.5698 17.5463 49.9796 17.5904L53.9475 18.0176C54.3574 18.0617 54.7253 17.765 54.7694 17.355L55.1963 13.3846C55.2404 12.9746 54.944 12.6064 54.5341 12.5622Z" fill="white"/>
<path d="M54.0289 18.1457C53.9973 18.1457 53.9657 18.144 53.9343 18.1407L49.9665 17.7134C49.7371 17.6885 49.5271 17.5735 49.3824 17.3938C49.2377 17.2141 49.1701 16.9842 49.1945 16.7547L49.6215 12.7846C49.6337 12.6709 49.6682 12.5608 49.7229 12.4604C49.7777 12.3601 49.8517 12.2715 49.9406 12.1998C50.0296 12.128 50.1318 12.0745 50.2415 12.0423C50.3511 12.0101 50.466 11.9998 50.5796 12.0121L54.5474 12.4393C54.7768 12.4641 54.987 12.579 55.1318 12.7587C55.2765 12.9385 55.344 13.1685 55.3194 13.398L54.8924 17.3681C54.8695 17.5814 54.7687 17.7787 54.6094 17.9222C54.45 18.0657 54.2432 18.1453 54.0289 18.1457ZM53.9606 17.8946C54.1248 17.9123 54.2893 17.864 54.4179 17.7603C54.5465 17.6566 54.6287 17.5061 54.6464 17.3418L55.0734 13.3715C55.0911 13.2072 55.0428 13.0426 54.9391 12.9139C54.8355 12.7852 54.6851 12.703 54.5209 12.6853L50.5529 12.2582C50.4716 12.2494 50.3894 12.2568 50.3109 12.2798C50.2324 12.3029 50.1593 12.3412 50.0956 12.3925C50.0319 12.4438 49.979 12.5072 49.9398 12.5791C49.9006 12.6509 49.8759 12.7297 49.8672 12.8111L49.4402 16.7812C49.4228 16.9455 49.4712 17.11 49.5748 17.2387C49.6784 17.3673 49.8288 17.4496 49.9929 17.4675L53.9606 17.8946Z" fill="#292A2E"/>
<path d="M72.1408 18.8571C72.1205 18.8571 72.1005 18.8522 72.0826 18.8426C72.0647 18.8331 72.0494 18.8193 72.0381 18.8024C69.5204 15.0554 65.7012 14.3732 62.9397 14.4598C61.0723 14.5309 59.2286 14.903 57.4796 15.5616C57.4494 15.5739 57.4155 15.5737 57.3854 15.5611C57.3554 15.5485 57.3315 15.5246 57.319 15.4944C57.3065 15.4643 57.3064 15.4304 57.3187 15.4002C57.331 15.37 57.3547 15.3459 57.3847 15.3331C59.1615 14.6636 61.0347 14.2851 62.9319 14.2125C65.7547 14.1236 69.6625 14.8234 72.2433 18.6642C72.2558 18.6828 72.263 18.7045 72.2642 18.7269C72.2653 18.7493 72.2604 18.7716 72.2499 18.7914C72.2393 18.8112 72.2236 18.8277 72.2044 18.8393C72.1852 18.8509 72.1632 18.857 72.1408 18.857V18.8571Z" fill="#292A2E"/>
<path d="M72.1866 18.9076C72.1751 18.9076 72.1638 18.906 72.1528 18.9029L69.6193 18.1869C69.5877 18.178 69.561 18.1569 69.545 18.1283C69.5289 18.0997 69.5249 18.0658 69.5339 18.0342C69.5428 18.0027 69.5638 17.9759 69.5924 17.9599C69.6211 17.9438 69.6549 17.9398 69.6864 17.9488L72.101 18.631L72.7829 16.2149C72.7924 16.184 72.8136 16.1581 72.842 16.1427C72.8704 16.1273 72.9036 16.1236 72.9347 16.1324C72.9658 16.1411 72.9921 16.1617 73.0082 16.1897C73.0243 16.2177 73.0288 16.2509 73.0208 16.2822L72.3054 18.8173C72.2981 18.8432 72.2826 18.8661 72.2611 18.8824C72.2397 18.8987 72.2135 18.9075 72.1866 18.9076Z" fill="#292A2E"/>
<path d="M76.1602 20.0176L72.1872 20.3946C71.7769 20.4335 71.4758 20.7979 71.5147 21.2085L71.8914 25.184C71.9303 25.5946 72.2945 25.8958 72.7049 25.8569L76.6779 25.4799C77.0882 25.441 77.3893 25.0766 77.3504 24.666L76.9737 20.6906C76.9347 20.28 76.5705 19.9787 76.1602 20.0176Z" fill="#367CFF"/>
<path d="M89.1449 7.7961L85.1623 7.53986C84.751 7.5134 84.3961 7.8256 84.3697 8.23719L84.1136 12.2222C84.0871 12.6338 84.3991 12.9889 84.8105 13.0154L88.7931 13.2716C89.2044 13.2981 89.5593 12.9859 89.5857 12.5743L89.8418 8.58926C89.8683 8.17767 89.5563 7.82256 89.1449 7.7961Z" fill="#292A2E"/>
<path d="M91.3952 20.8005L87.4273 20.3733C87.0175 20.3292 86.6495 20.6259 86.6054 21.036L86.1785 25.0063C86.1344 25.4164 86.4309 25.7846 86.8407 25.8287L90.8086 26.2559C91.2184 26.3 91.5864 26.0033 91.6305 25.5933L92.0574 21.6229C92.1015 21.2128 91.805 20.8446 91.3952 20.8005Z" fill="#0CBC8B"/>
<path d="M69.6139 33.7339L65.6409 34.1109C65.2306 34.1498 64.9295 34.5143 64.9684 34.9248L65.3452 38.9003C65.3841 39.3109 65.7483 39.6122 66.1586 39.5732L70.1316 39.1962C70.5419 39.1573 70.843 38.7929 70.8041 38.3823L70.4274 34.4069C70.3885 33.9963 70.0243 33.695 69.6139 33.7339Z" fill="white"/>
<path d="M66.0877 39.7004C65.8714 39.7 65.6629 39.6191 65.5029 39.4733C65.343 39.3276 65.2429 39.1276 65.2222 38.9121L64.8454 34.9366C64.8239 34.7068 64.8944 34.4779 65.0414 34.3C65.1884 34.1221 65.3999 34.0099 65.6295 33.9878L69.6022 33.6108C69.716 33.6 69.8307 33.6118 69.9399 33.6453C70.0492 33.6789 70.1507 33.7337 70.2387 33.8066C70.3268 33.8794 70.3997 33.9689 70.4531 34.0699C70.5066 34.171 70.5397 34.2815 70.5505 34.3953L70.9272 38.3707C70.9487 38.6004 70.8783 38.8294 70.7313 39.0073C70.5844 39.1851 70.3729 39.2974 70.1433 39.3195L66.1705 39.6965C66.1426 39.6991 66.1149 39.7004 66.0877 39.7004ZM69.6858 33.8543C69.666 33.8543 69.646 33.8553 69.6261 33.8572L65.6527 34.2338C65.4883 34.2495 65.3369 34.3299 65.2317 34.4572C65.1264 34.5846 65.076 34.7485 65.0914 34.913L65.4681 38.8883C65.4841 39.0527 65.5644 39.2041 65.6917 39.3093C65.8189 39.4145 65.9826 39.465 66.1469 39.4498L70.1198 39.0728C70.2842 39.057 70.4356 38.9766 70.5408 38.8493C70.646 38.7219 70.6964 38.558 70.681 38.3935L70.3043 34.4182C70.2896 34.264 70.2181 34.1208 70.1037 34.0165C69.9892 33.9122 69.8401 33.8543 69.6853 33.8539L69.6858 33.8543Z" fill="#292A2E"/>
<path d="M43.9964 32.3894L40.0235 32.7664C39.6131 32.8054 39.312 33.1698 39.3509 33.5804L39.7277 37.5558C39.7666 37.9664 40.1308 38.2677 40.5411 38.2287L44.5141 37.8518C44.9244 37.8128 45.2255 37.4484 45.1866 37.0378L44.8099 33.0624C44.771 32.6518 44.4068 32.3505 43.9964 32.3894Z" fill="#367CFF"/>
<path d="M75.7828 17.9923C75.7781 17.9923 75.7733 17.9921 75.7686 17.9916C75.7525 17.9897 75.7369 17.9847 75.7227 17.9768C75.7085 17.9689 75.696 17.9583 75.6859 17.9456C75.6758 17.9328 75.6683 17.9182 75.6639 17.9026C75.6594 17.887 75.6581 17.8706 75.6599 17.8545C75.8457 16.6054 76.2317 15.3945 76.8029 14.2684C78.0394 11.8703 79.9784 10.4949 82.409 10.29C82.4417 10.2872 82.4742 10.2976 82.4992 10.3188C82.5243 10.3399 82.5399 10.3702 82.5426 10.4029C82.5454 10.4356 82.5351 10.468 82.5139 10.4931C82.4927 10.5182 82.4625 10.5338 82.4298 10.5366C76.7608 11.0136 75.9137 17.8142 75.9055 17.8828C75.902 17.9129 75.8876 17.9407 75.865 17.9609C75.8424 17.9811 75.8131 17.9923 75.7828 17.9923Z" fill="#292A2E"/>
<path d="M81.2332 11.7625C81.2087 11.7626 81.1848 11.7553 81.1645 11.7417C81.1441 11.7282 81.1283 11.7089 81.1189 11.6863C81.1095 11.6637 81.107 11.6388 81.1118 11.6148C81.1165 11.5908 81.1282 11.5688 81.1455 11.5515L82.288 10.4032L81.1406 9.26C81.1287 9.24862 81.1193 9.23498 81.1128 9.2199C81.1063 9.20482 81.1028 9.1886 81.1026 9.17217C81.1025 9.15575 81.1056 9.13945 81.1117 9.12423C81.1179 9.10901 81.1271 9.09518 81.1387 9.08354C81.1502 9.0719 81.164 9.06269 81.1792 9.05643C81.1944 9.05018 81.2107 9.04701 81.2271 9.04712C81.2435 9.04723 81.2597 9.05061 81.2748 9.05706C81.2899 9.06351 81.3036 9.0729 81.315 9.08469L82.55 10.3152C82.5732 10.3384 82.5862 10.3699 82.5862 10.4027C82.5862 10.4355 82.5732 10.467 82.55 10.4902L81.3203 11.726C81.3089 11.7376 81.2954 11.7467 81.2804 11.753C81.2654 11.7593 81.2494 11.7625 81.2332 11.7625Z" fill="#292A2E"/>
<path d="M67.7445 31.886C67.718 31.886 67.6922 31.8775 67.671 31.8618C67.6497 31.8461 67.634 31.8239 67.6263 31.7986C67.6078 31.7381 65.8296 25.7294 70.433 23.237C70.4473 23.2289 70.4631 23.2237 70.4794 23.2218C70.4958 23.2199 70.5123 23.2212 70.5281 23.2258C70.5439 23.2303 70.5587 23.238 70.5715 23.2483C70.5843 23.2586 70.5949 23.2714 70.6027 23.2858C70.6105 23.3003 70.6154 23.3162 70.617 23.3326C70.6186 23.3489 70.6169 23.3655 70.6121 23.3812C70.6072 23.3969 70.5993 23.4115 70.5887 23.4241C70.5782 23.4367 70.5652 23.4471 70.5506 23.4546C66.1267 25.8495 67.8452 31.6671 67.863 31.7256C67.8687 31.7441 67.87 31.7637 67.8667 31.7827C67.8634 31.8018 67.8557 31.8198 67.8442 31.8354C67.8328 31.8509 67.8178 31.8636 67.8005 31.8723C67.7832 31.881 67.7642 31.8856 67.7448 31.8856L67.7445 31.886Z" fill="#292A2E"/>
<path d="M69.9628 24.8874C69.9427 24.8874 69.9229 24.8824 69.9051 24.873C69.8874 24.8636 69.8721 24.8501 69.8608 24.8334C69.8495 24.8168 69.8423 24.7977 69.8401 24.7777C69.8378 24.7577 69.8404 24.7375 69.8477 24.7187L70.3635 23.3928L69.0384 22.8762C69.0084 22.8639 68.9845 22.8403 68.9717 22.8105C68.9589 22.7807 68.9583 22.7471 68.97 22.7169C68.9818 22.6866 69.0049 22.6622 69.0344 22.6489C69.0639 22.6356 69.0975 22.6343 69.1279 22.6455L70.5684 23.2065C70.5836 23.2124 70.5974 23.2212 70.6091 23.2325C70.6208 23.2437 70.6302 23.2571 70.6368 23.272C70.6433 23.2869 70.6468 23.3029 70.6472 23.3192C70.6475 23.3354 70.6447 23.3516 70.6388 23.3667L70.078 24.808C70.0691 24.8313 70.0533 24.8514 70.0327 24.8655C70.0122 24.8797 69.9878 24.8873 69.9628 24.8874Z" fill="#292A2E"/>
<path d="M52.3662 11.4494C52.3334 11.4494 52.302 11.4364 52.2788 11.4132C52.2556 11.39 52.2426 11.3585 52.2426 11.3257C52.2426 9.44626 51.6882 8.01158 50.5946 7.06164C48.6533 5.37568 45.634 5.78211 45.6037 5.78644C45.5713 5.79108 45.5383 5.78263 45.5121 5.76294C45.4858 5.74325 45.4685 5.71394 45.4638 5.68146C45.4592 5.64897 45.4676 5.61598 45.4873 5.58972C45.507 5.56347 45.5363 5.54611 45.5687 5.54147C45.6967 5.52303 48.728 5.11388 50.7556 6.87371C51.9065 7.87276 52.49 9.37067 52.4898 11.3257C52.4898 11.342 52.4866 11.3581 52.4804 11.3731C52.4742 11.3881 52.4651 11.4017 52.4536 11.4132C52.4421 11.4247 52.4285 11.4338 52.4135 11.44C52.3985 11.4462 52.3824 11.4494 52.3662 11.4494Z" fill="#292A2E"/>
<path d="M52.3721 11.4938C52.3683 11.4938 52.3644 11.4938 52.3605 11.4938C52.3443 11.4923 52.3286 11.4876 52.3143 11.48C52.2999 11.4724 52.2872 11.462 52.2768 11.4495L51.1649 10.106C51.1439 10.0807 51.1339 10.0482 51.137 10.0155C51.1401 9.98281 51.156 9.95269 51.1812 9.93176C51.2065 9.91082 51.2391 9.90079 51.2717 9.90386C51.3044 9.90694 51.3345 9.92287 51.3554 9.94815L52.389 11.1969L53.6363 10.1636C53.6488 10.1532 53.6632 10.1454 53.6788 10.1406C53.6943 10.1358 53.7106 10.1342 53.7268 10.1357C53.7429 10.1372 53.7586 10.1419 53.773 10.1495C53.7873 10.1571 53.8001 10.1675 53.8104 10.18C53.8208 10.1925 53.8285 10.207 53.8333 10.2225C53.8381 10.238 53.8398 10.2543 53.8382 10.2705C53.8367 10.2867 53.832 10.3024 53.8244 10.3168C53.8168 10.3311 53.8065 10.3439 53.794 10.3542L52.4508 11.4659C52.4286 11.484 52.4008 11.4939 52.3721 11.4938Z" fill="#292A2E"/>
<path d="M55.1059 25.0979H51.1151C50.7029 25.0979 50.3688 25.4322 50.3688 25.8447V29.8379C50.3688 30.2504 50.7029 30.5847 51.1151 30.5847H55.1059C55.5181 30.5847 55.8523 30.2504 55.8523 29.8379V25.8447C55.8523 25.4322 55.5181 25.0979 55.1059 25.0979Z" fill="#0CBC8B"/>
<path d="M65.2699 32.3959C65.2424 32.3958 65.2157 32.3866 65.194 32.3696C65.1723 32.3526 65.1569 32.3289 65.1502 32.3022C63.7717 26.7842 57.0312 27.1712 56.9642 27.1758C56.948 27.1769 56.9317 27.1748 56.9163 27.1696C56.9008 27.1644 56.8866 27.1562 56.8743 27.1454C56.8621 27.1347 56.8521 27.1217 56.8448 27.1071C56.8376 27.0925 56.8333 27.0767 56.8322 27.0604C56.8311 27.0442 56.8332 27.0279 56.8384 27.0124C56.8436 26.997 56.8518 26.9827 56.8625 26.9705C56.8732 26.9582 56.8863 26.9482 56.9008 26.941C56.9154 26.9337 56.9313 26.9294 56.9475 26.9283C58.189 26.8863 59.4289 27.0496 60.6172 27.4116C62.3819 27.9633 64.6424 29.2491 65.39 32.2416C65.3939 32.2574 65.3947 32.2737 65.3923 32.2898C65.3899 32.3059 65.3844 32.3213 65.376 32.3353C65.3677 32.3492 65.3567 32.3614 65.3436 32.371C65.3305 32.3807 65.3157 32.3877 65.3 32.3917C65.2902 32.3943 65.2801 32.3957 65.2699 32.3959Z" fill="#292A2E"/>
<path d="M65.2871 32.4377C65.2614 32.4377 65.2364 32.4297 65.2155 32.4148L63.8162 31.4212C63.7895 31.4021 63.7714 31.3733 63.7659 31.3409C63.7605 31.3086 63.7681 31.2754 63.7871 31.2486C63.8061 31.2219 63.8349 31.2038 63.8672 31.1983C63.8996 31.1929 63.9328 31.2005 63.9595 31.2195L65.2564 32.1405L66.1809 30.7991C66.1997 30.7723 66.2282 30.7541 66.2603 30.7483C66.2925 30.7425 66.3256 30.7497 66.3524 30.7682C66.3793 30.7868 66.3977 30.8152 66.4037 30.8473C66.4097 30.8794 66.4028 30.9126 66.3844 30.9396L65.3888 32.3842C65.3795 32.3977 65.3677 32.4092 65.3539 32.4181C65.3401 32.4269 65.3247 32.433 65.3086 32.4358C65.3015 32.437 65.2943 32.4377 65.2871 32.4377Z" fill="#292A2E"/>
<path d="M126.074 112L126.317 111.953L122.522 74.2141L122.279 74.2609L126.074 112Z" fill="#494949"/>
<path d="M111.942 112L112.185 111.953L108.389 74.2141L108.146 74.2609L111.942 112Z" fill="#494949"/>
<path d="M80.7027 112L80.4598 111.953L84.2553 74.2141L84.4981 74.2609L80.7027 112Z" fill="#494949"/>
<path d="M94.8352 112L94.5923 111.953L98.3877 74.2141L98.6305 74.2609L94.8352 112Z" fill="#494949"/>
<path d="M99.8673 57.6041L97.6501 74.2205L97.8952 74.2532L100.112 57.6368L99.8673 57.6041Z" fill="#494949"/>
<path d="M125.316 57.6038L123.099 74.2202L123.344 74.253L125.562 57.6366L125.316 57.6038Z" fill="#494949"/>
<path d="M97.6725 75.4541H122.565C123.237 75.4541 123.781 74.9093 123.781 74.2373V74.2372C123.781 73.5651 123.237 73.0204 122.565 73.0204H97.6725C97.0009 73.0204 96.4564 73.5651 96.4564 74.2372V74.2373C96.4564 74.9093 97.0009 75.4541 97.6725 75.4541Z" fill="#292A2E"/>
<path opacity="0.8" d="M97.6725 75.4541H122.565C123.237 75.4541 123.781 74.9093 123.781 74.2373V74.2372C123.781 73.5651 123.237 73.0204 122.565 73.0204H97.6725C97.0009 73.0204 96.4564 73.5651 96.4564 74.2372V74.2373C96.4564 74.9093 97.0009 75.4541 97.6725 75.4541Z" fill="white"/>
<path d="M96.3328 74.2374C96.3332 73.882 96.4745 73.5413 96.7257 73.29C96.9768 73.0387 97.3173 72.8974 97.6725 72.897H122.565C122.92 72.897 123.261 73.0382 123.512 73.2896C123.764 73.541 123.905 73.882 123.905 74.2375C123.905 74.593 123.764 74.934 123.512 75.1854C123.261 75.4368 122.92 75.578 122.565 75.578H97.6725C97.3173 75.5776 96.9768 75.4362 96.7256 75.1849C96.4745 74.9335 96.3332 74.5928 96.3328 74.2374ZM97.6725 73.1443C97.3828 73.1443 97.1049 73.2595 96.9 73.4644C96.6952 73.6694 96.5801 73.9475 96.5801 74.2374C96.5801 74.5273 96.6952 74.8053 96.9 75.0103C97.1049 75.2153 97.3828 75.3305 97.6725 75.3305H122.565C122.855 75.3305 123.133 75.2153 123.337 75.0103C123.542 74.8053 123.657 74.5273 123.657 74.2374C123.657 73.9475 123.542 73.6694 123.337 73.4644C123.133 73.2595 122.855 73.1443 122.565 73.1443H97.6725Z" fill="#292A2E"/>
<path d="M84.0102 75.4541H108.903C109.574 75.4541 110.119 74.9093 110.119 74.2373V74.2372C110.119 73.5651 109.574 73.0204 108.903 73.0204H84.0102C83.3386 73.0204 82.7942 73.5651 82.7942 74.2372V74.2373C82.7942 74.9093 83.3386 75.4541 84.0102 75.4541Z" fill="white"/>
<path d="M82.6699 74.2374C82.6703 73.8819 82.8117 73.5411 83.063 73.2898C83.3143 73.0385 83.655 72.8972 84.0102 72.897H108.903C109.258 72.897 109.599 73.0382 109.85 73.2896C110.101 73.541 110.242 73.882 110.242 74.2375C110.242 74.593 110.101 74.934 109.85 75.1854C109.599 75.4368 109.258 75.578 108.903 75.578H84.0102C83.6549 75.5777 83.3142 75.4364 83.063 75.1851C82.8117 74.9337 82.6703 74.5929 82.6699 74.2374ZM84.0102 73.1444C83.8668 73.1444 83.7247 73.1727 83.5922 73.2276C83.4596 73.2826 83.3392 73.3631 83.2378 73.4646C83.1363 73.5661 83.0559 73.6866 83.001 73.8192C82.9461 73.9518 82.9178 74.094 82.9178 74.2375C82.9178 74.381 82.9461 74.5232 83.001 74.6558C83.0559 74.7884 83.1363 74.9089 83.2378 75.0104C83.3392 75.1119 83.4596 75.1924 83.5922 75.2474C83.7247 75.3023 83.8668 75.3306 84.0102 75.3306H108.903C109.192 75.3306 109.47 75.2154 109.675 75.0104C109.88 74.8054 109.995 74.5274 109.995 74.2375C109.995 73.9476 109.88 73.6696 109.675 73.4646C109.47 73.2596 109.192 73.1444 108.903 73.1444H84.0102Z" fill="#292A2E"/>
<path d="M101.232 57.6211H125.374C125.768 57.6211 126.15 57.4773 126.446 57.2167C126.743 56.9561 126.934 56.5964 126.985 56.2047L128.582 43.9337C128.612 43.7043 128.593 43.4712 128.525 43.25C128.458 43.0287 128.344 42.8243 128.192 42.6506C128.039 42.4768 127.851 42.3375 127.641 42.2421C127.43 42.1467 127.202 42.0974 126.971 42.0974H102.829C102.434 42.0973 102.053 42.241 101.756 42.5017C101.459 42.7624 101.268 43.1222 101.217 43.514L99.62 55.7848C99.5901 56.0142 99.6095 56.2473 99.6769 56.4687C99.7443 56.69 99.858 56.8943 100.011 57.0681C100.163 57.2419 100.351 57.3812 100.562 57.4765C100.772 57.5719 101.001 57.6212 101.232 57.6211Z" fill="#292A2E"/>
<path opacity="0.8" d="M101.232 57.6211H125.374C125.768 57.6211 126.15 57.4773 126.446 57.2167C126.743 56.9561 126.934 56.5964 126.985 56.2047L128.582 43.9337C128.612 43.7043 128.593 43.4712 128.525 43.25C128.458 43.0287 128.344 42.8243 128.192 42.6506C128.039 42.4768 127.851 42.3375 127.641 42.2421C127.43 42.1467 127.202 42.0974 126.971 42.0974H102.829C102.434 42.0973 102.053 42.241 101.756 42.5017C101.459 42.7624 101.268 43.1222 101.217 43.514L99.62 55.7848C99.5901 56.0142 99.6095 56.2473 99.6769 56.4687C99.7443 56.69 99.858 56.8943 100.011 57.0681C100.163 57.2419 100.351 57.3812 100.562 57.4765C100.772 57.5719 101.001 57.6212 101.232 57.6211Z" fill="white"/>
<path d="M99.9186 57.1495C99.7544 56.9625 99.632 56.7426 99.5595 56.5045C99.487 56.2664 99.4661 56.0156 99.4982 55.7688L101.095 43.498C101.151 43.0769 101.357 42.6904 101.676 42.4101C101.995 42.1298 102.405 41.9748 102.829 41.9739H126.971C127.22 41.9739 127.466 42.027 127.692 42.1296C127.919 42.2322 128.121 42.3821 128.285 42.5691C128.449 42.7561 128.572 42.9761 128.644 43.2142C128.716 43.4523 128.737 43.7031 128.705 43.95L127.108 56.2206C127.053 56.6417 126.846 57.0282 126.527 57.3085C126.208 57.5888 125.799 57.7438 125.374 57.7447H101.232C100.984 57.7446 100.738 57.6915 100.511 57.5889C100.285 57.4862 100.083 57.3364 99.9186 57.1495ZM102.829 42.2213C102.465 42.2222 102.113 42.3554 101.839 42.596C101.566 42.8367 101.388 43.1685 101.34 43.5299L99.7436 55.8007C99.716 56.0126 99.7339 56.228 99.7962 56.4324C99.8584 56.6368 99.9635 56.8256 100.104 56.9862C100.245 57.1468 100.419 57.2754 100.613 57.3636C100.808 57.4517 101.019 57.4973 101.233 57.4973H125.374C125.739 57.4965 126.09 57.3634 126.364 57.1228C126.638 56.8821 126.815 56.5502 126.863 56.1887L128.46 43.9179C128.488 43.706 128.47 43.4907 128.408 43.2862C128.345 43.0818 128.24 42.893 128.099 42.7324C127.958 42.5718 127.785 42.4432 127.59 42.355C127.396 42.2669 127.185 42.2213 126.971 42.2213H102.829Z" fill="#292A2E"/>
<path d="M99.867 57.6211H124.009C124.403 57.6211 124.785 57.4773 125.081 57.2167C125.378 56.9561 125.569 56.5964 125.62 56.2047L127.217 43.9337C127.247 43.7043 127.228 43.4712 127.16 43.25C127.093 43.0287 126.979 42.8243 126.827 42.6505C126.674 42.4768 126.486 42.3375 126.276 42.2421C126.065 42.1468 125.837 42.0974 125.605 42.0974H101.464C101.069 42.0974 100.688 42.2411 100.392 42.5017C100.095 42.7623 99.9035 43.122 99.8525 43.5137L98.2556 55.7844C98.2257 56.0138 98.2451 56.2469 98.3123 56.4682C98.3796 56.6895 98.4933 56.8939 98.6458 57.0677C98.7983 57.2416 98.9862 57.3808 99.1967 57.4763C99.4073 57.5717 99.6358 57.6211 99.867 57.6211Z" fill="white"/>
<path d="M98.5529 57.1495C98.3887 56.9625 98.2663 56.7426 98.1938 56.5045C98.1213 56.2664 98.1004 56.0156 98.1325 55.7688L99.7294 43.498C99.7851 43.0769 99.9917 42.6903 100.311 42.41C100.63 42.1297 101.04 41.9747 101.464 41.9739H125.606C125.854 41.9739 126.1 42.027 126.327 42.1296C126.554 42.2322 126.756 42.3821 126.92 42.5691C127.084 42.7561 127.206 42.9761 127.279 43.2142C127.351 43.4523 127.372 43.7031 127.34 43.95L125.743 56.2206C125.687 56.6417 125.481 57.0282 125.162 57.3085C124.843 57.5888 124.433 57.7438 124.009 57.7447H99.867C99.6182 57.7447 99.3724 57.6916 99.1458 57.5889C98.9192 57.4863 98.717 57.3365 98.5529 57.1495ZM101.464 42.2213C101.1 42.2222 100.748 42.3553 100.474 42.5959C100.2 42.8366 100.023 43.1684 99.9751 43.5299L98.3782 55.8007C98.3506 56.0126 98.3685 56.228 98.4307 56.4324C98.4929 56.6368 98.598 56.8256 98.7389 56.9862C98.8799 57.1468 99.0534 57.2754 99.248 57.3636C99.4425 57.4517 99.6537 57.4973 99.8672 57.4973H124.009C124.373 57.4965 124.725 57.3634 124.999 57.1228C125.273 56.8821 125.45 56.5502 125.498 56.1887L127.095 43.918C127.122 43.7061 127.104 43.4908 127.042 43.2863C126.98 43.0819 126.875 42.8931 126.734 42.7325C126.593 42.5719 126.419 42.4432 126.225 42.3551C126.03 42.2669 125.819 42.2213 125.605 42.2213H101.464Z" fill="#292A2E"/>
<path d="M81.6213 105.463C81.6213 105.463 80.9584 108.901 77.7407 109.093C74.5231 109.285 75.2208 111.849 75.2208 111.849H87.5168V105.702L81.6213 105.463Z" fill="#367CFF"/>
<path d="M92.6539 103.292C92.6539 103.292 93.5759 106.67 90.7733 108.263C87.9708 109.856 89.7281 111.849 89.7281 111.849L100.761 106.418L98.0497 100.903L92.6539 103.292Z" fill="#367CFF"/>
<path d="M99.4875 102.337L90.1833 72.9668H107.049C110.437 72.9668 111.849 70.0921 111.849 66.7024C111.849 63.3126 108.518 60.3411 105.131 60.3411H82.3685C80.3023 60.3411 77.9854 61.6055 76.8514 63.3339C75.7173 65.0623 76.0238 67.7406 76.8454 69.6377L91.7448 105.847" fill="#262626"/>
<path opacity="0.8" d="M99.4875 102.337L90.1833 72.9668H107.049C110.437 72.9668 111.849 70.0921 111.849 66.7024C111.849 63.3126 108.518 60.3411 105.131 60.3411H82.3685C80.3023 60.3411 77.9854 61.6055 76.8514 63.3339C75.7173 65.0623 76.0238 67.7406 76.8454 69.6377L91.7448 105.847" fill="#0A0A0A"/>
<path d="M88.4781 107.928L91.4208 72.9668L111.848 72.9655C116.635 72.5901 118.827 69.9652 118.757 66.5762C118.688 63.2302 116.995 59.9253 113.666 59.9253H86.1345C83.6714 59.9759 80.8199 62.3072 80.8199 64.9885L79.3892 107.521" fill="#262626"/>
<path d="M120.151 59.9662C120.151 59.9662 121.058 65.8859 119.62 69.177C117.825 73.2858 111.095 72.9656 111.095 72.9656L111.474 59.9253L120.151 59.9662Z" fill="#262626"/>
<path d="M121.151 59.2971L121.177 59.2985C121.177 59.2985 121.158 58.7943 121.151 59.2971Z" fill="#333333"/>
<path d="M121.118 59.2971L121.144 59.2985C121.144 59.2985 121.125 58.7943 121.118 59.2971Z" fill="#333333"/>
<path d="M77.3243 35.2978C77.3724 35.2025 77.449 35.1244 77.5433 35.0744C77.6377 35.0244 77.7453 35.0049 77.8512 35.0187C77.8503 35.0093 77.8524 34.9998 77.8571 34.9916C77.862 34.9853 77.8685 34.9804 77.8759 34.9773C77.8834 34.9743 77.8914 34.9733 77.8994 34.9744L77.542 34.7181C77.4353 34.6448 77.3586 34.5354 77.3262 34.41C77.2937 34.2847 77.3077 34.1518 77.3655 34.0359C77.4264 33.9232 77.5269 33.8372 77.6475 33.7945C77.7682 33.7518 77.9004 33.7554 78.0186 33.8046C78.0177 33.7996 78.0211 33.7947 78.0218 33.7895L77.875 33.6843C77.7747 33.6149 77.7013 33.513 77.6674 33.3958C77.6335 33.2785 77.641 33.1532 77.6888 33.0409C77.7203 32.9711 77.7669 32.9091 77.8252 32.8595C77.8835 32.8098 77.9521 32.7738 78.0261 32.7539C78.1 32.734 78.1774 32.7308 78.2528 32.7444C78.3281 32.7581 78.3995 32.7883 78.4617 32.8329L78.8006 33.0759C78.8016 33.0739 78.8006 33.0716 78.802 33.0697C78.8034 33.0679 78.807 33.0671 78.8089 33.0652C78.7311 32.9776 78.6854 32.8661 78.6792 32.7491C78.673 32.6321 78.7067 32.5164 78.7748 32.4211C78.9348 32.1636 79.304 32.2162 79.5231 32.3733L81.5176 33.7518L81.1614 33.15C81.0896 33.0345 81.0643 32.8959 81.0907 32.7624C81.117 32.6289 81.1931 32.5104 81.3034 32.4308C81.3617 32.3918 81.4275 32.365 81.4965 32.3522C81.5656 32.3393 81.6365 32.3407 81.705 32.3562C81.7735 32.3717 81.8381 32.4011 81.8949 32.4424C81.9517 32.4837 81.9995 32.5362 82.0354 32.5966L83.9819 35.8753C84.2103 36.2599 84.2797 36.7186 84.1755 37.1537C84.0713 37.5888 83.8017 37.9661 83.4239 38.2054C82.9858 38.4831 82.4748 38.6234 81.9564 38.6085C81.4381 38.5936 80.936 38.4241 80.5145 38.1218L77.5025 35.9616C77.4024 35.8872 77.3304 35.7812 77.2981 35.6607C77.2658 35.5403 77.275 35.4124 77.3243 35.2978Z" fill="#E98862"/>
<g opacity="0.25">
<path d="M80.7744 34.4371C80.7671 34.4472 80.7561 34.454 80.7438 34.4561C80.7315 34.4582 80.7189 34.4553 80.7086 34.4482L78.8136 33.1349C78.8033 33.1277 78.7963 33.1166 78.7941 33.1042C78.7919 33.0918 78.7947 33.0791 78.8018 33.0687C78.809 33.0583 78.82 33.0512 78.8323 33.0489C78.8447 33.0466 78.8575 33.0493 78.8679 33.0564L80.763 34.3699C80.7682 34.3734 80.7727 34.378 80.7761 34.3832C80.7795 34.3885 80.7819 34.3944 80.783 34.4006C80.7842 34.4067 80.7841 34.4131 80.7828 34.4192C80.7815 34.4254 80.779 34.4312 80.7754 34.4364L80.7744 34.4371Z" fill="#0C0C0C"/>
</g>
<g opacity="0.25">
<path d="M80.2186 35.2895C80.2113 35.2995 80.2003 35.3064 80.188 35.3084C80.1757 35.3105 80.1631 35.3077 80.1528 35.3006L78.0385 33.8349C78.0281 33.8277 78.0209 33.8166 78.0186 33.8042C78.0163 33.7917 78.019 33.7789 78.0261 33.7684C78.0336 33.7583 78.0446 33.7514 78.0569 33.7491C78.0692 33.7468 78.082 33.7493 78.0925 33.756L80.2075 35.2218C80.2127 35.2253 80.2171 35.2299 80.2205 35.2351C80.2239 35.2404 80.2263 35.2463 80.2274 35.2524C80.2286 35.2586 80.2285 35.2649 80.2272 35.2711C80.2259 35.2772 80.2234 35.283 80.2199 35.2882L80.2186 35.2895Z" fill="#0C0C0C"/>
</g>
<g opacity="0.25">
<path d="M79.6219 36.216C79.6145 36.2261 79.6036 36.2329 79.5913 36.2349C79.579 36.237 79.5664 36.2342 79.5561 36.2271L77.8691 35.0579C77.8591 35.0506 77.8523 35.0396 77.8503 35.0273C77.8482 35.015 77.851 35.0024 77.8581 34.9922C77.8652 34.982 77.876 34.9749 77.8882 34.9726C77.9004 34.9702 77.9131 34.9727 77.9235 34.9795L79.6105 36.1487C79.6157 36.1522 79.6201 36.1567 79.6235 36.162C79.627 36.1673 79.6293 36.1731 79.6305 36.1793C79.6316 36.1855 79.6315 36.1918 79.6302 36.198C79.6289 36.2041 79.6264 36.2099 79.6229 36.2151L79.6219 36.216Z" fill="#0C0C0C"/>
</g>
<path d="M85.1305 35.1289L90.8469 44.8707L97.8221 35.7161L103.615 40.9417L93.7218 53.7613L93.657 53.8525C93.261 54.3952 92.7335 54.8281 92.1241 55.1103C91.5148 55.3926 90.8436 55.515 90.1739 55.4659C89.5042 55.4169 88.858 55.1981 88.2962 54.83C87.7344 54.462 87.2754 53.9569 86.9626 53.3623L78.8338 38.6325L85.1305 35.1289Z" fill="#367CFF"/>
<path d="M91.4069 46.042C91.4193 46.042 91.4315 46.0388 91.4424 46.0327C91.4532 46.0267 91.4623 46.0179 91.4688 46.0073C91.4753 45.9967 91.4789 45.9846 91.4794 45.9722C91.4799 45.9597 91.4772 45.9474 91.4715 45.9363L90.9112 44.8376C90.902 44.821 90.8869 44.8087 90.8688 44.8032C90.8508 44.7977 90.8313 44.7994 90.8145 44.808C90.7977 44.8166 90.7849 44.8313 90.7788 44.8492C90.7727 44.867 90.7737 44.8865 90.7817 44.9036L91.3422 46.0024C91.3483 46.0143 91.3575 46.0244 91.3689 46.0313C91.3804 46.0383 91.3935 46.042 91.4069 46.042Z" fill="#0C0C0C"/>
<path d="M98.2238 44.8155L98.0789 44.8237L98.2534 47.9006L98.3983 47.8923L98.2238 44.8155Z" fill="#0C0C0C"/>
<path d="M116.644 22.547C116.644 22.547 116.912 25.9719 117.697 27.2065C119.957 30.7607 120.646 34.7807 118.449 36.9103C116.251 39.0399 102.081 39.2335 100.951 34.407C100 30.3431 101.935 29.8826 102.368 26.516C102.564 24.9929 103.114 21.7971 103.114 21.7971" fill="#0A0A0A"/>
<path d="M104.559 33.635C104.583 33.6318 104.855 38.1385 110.087 37.746C113.71 37.4745 115.002 33.6286 115.085 33.6286C114.694 33.5455 114.036 33.4248 113.863 33.3316C113.292 33.0249 112.587 32.7058 112.403 31.5974C112.297 30.9585 112.477 27.6901 112.421 27.0437L106.861 28.2856C106.938 29.6508 107.482 32.8156 105.576 33.3757C105.259 33.4688 104.917 33.5541 104.559 33.635Z" fill="#E98862"/>
<path opacity="0.52" d="M106.783 32.0827C106.87 31.8018 106.926 31.5122 106.95 31.2191C107.011 30.5503 106.999 29.8768 106.913 29.2106C108.044 29.058 109.108 28.5912 109.987 27.8633C110.09 28.2448 110.658 29.9121 110.501 30.2747C110.203 30.9603 108.807 32.0827 106.783 32.0827Z" fill="#0C0C0C"/>
<path d="M107.52 30.6642C109.714 30.851 112.54 29.9406 113.094 27.0128L113.594 24.3708C114.148 21.4428 113.06 18.7785 110.305 18.2564C107.55 17.7347 105.042 19.7183 104.488 22.6463L104.267 23.8159C104.054 24.9394 103.604 30.3307 107.52 30.6642Z" fill="#E98862"/>
<path d="M105.051 23.9436C105.242 23.9436 105.397 23.7888 105.397 23.598C105.397 23.4072 105.242 23.2524 105.051 23.2524C104.861 23.2524 104.706 23.4072 104.706 23.598C104.706 23.7888 104.861 23.9436 105.051 23.9436Z" fill="#0C0C0C"/>
<path d="M108.59 24.4165C108.78 24.4165 108.935 24.2617 108.935 24.0709C108.935 23.8801 108.78 23.7253 108.59 23.7253C108.399 23.7253 108.244 23.8801 108.244 24.0709C108.244 24.2617 108.399 24.4165 108.59 24.4165Z" fill="#0C0C0C"/>
<path d="M106.648 26.6043C106.646 26.6042 106.644 26.604 106.643 26.6036C106.531 26.5816 106.421 26.5534 106.312 26.5193C106.15 26.4673 105.938 26.3809 105.966 26.2348C105.998 26.068 106.795 24.3542 106.886 24.1596C106.893 24.1426 106.908 24.1294 106.925 24.1229C106.943 24.1165 106.963 24.1173 106.98 24.1253C106.997 24.1332 107.01 24.1476 107.016 24.1652C107.023 24.1828 107.022 24.2023 107.014 24.2194C106.674 24.9493 106.126 26.1494 106.105 26.2608C106.123 26.3129 106.392 26.4117 106.669 26.4643C106.687 26.4675 106.704 26.4777 106.714 26.4927C106.725 26.5076 106.73 26.5262 106.727 26.5444C106.724 26.5627 106.714 26.5791 106.7 26.5903C106.685 26.6014 106.667 26.6064 106.648 26.6042L106.648 26.6043Z" fill="#0C0C0C"/>
<path d="M107.056 27.8687C106.607 27.8103 106.177 27.647 105.802 27.3921C105.787 27.3818 105.776 27.3658 105.772 27.3474C105.768 27.329 105.771 27.3098 105.782 27.2941C105.792 27.2784 105.808 27.2674 105.826 27.2635C105.845 27.2596 105.864 27.2632 105.88 27.2734C106.691 27.8022 107.497 27.8877 108.21 27.5209C108.225 27.513 108.239 27.5059 108.255 27.4997C108.272 27.4934 108.292 27.4942 108.309 27.5022C108.326 27.5102 108.339 27.5246 108.345 27.5422C108.352 27.5599 108.351 27.5794 108.343 27.5964C108.335 27.6133 108.32 27.6265 108.303 27.6329C108.297 27.6352 108.288 27.6402 108.275 27.6468C107.9 27.8405 107.475 27.9177 107.056 27.8687Z" fill="#0C0C0C"/>
<path d="M115.798 25.2916L113.328 24.8386C111.458 24.0811 110.892 20.8411 110.892 20.8411C110.892 20.8411 108.62 23.057 103.115 21.7967C103.115 21.7967 104.219 14.1136 112.353 16.3475C114.976 17.0679 116.858 19.7128 116.624 23.2472C116.459 25.7243 115.798 25.2916 115.798 25.2916Z" fill="#0A0A0A"/>
<path d="M112.755 27.8725C113.592 28.031 114.44 27.2633 114.598 26.425C114.757 25.5867 114.166 24.9966 113.328 24.8381L112.791 25.3178L112.035 27.7357L112.755 27.8725Z" fill="#E98862"/>
<path d="M106.381 22.7593C106.136 22.6014 105.854 22.5123 105.564 22.5012C105.421 22.4948 105.278 22.5099 105.139 22.5461C105.002 22.5813 104.87 22.6338 104.746 22.7021C104.73 22.7116 104.718 22.7268 104.713 22.7445C104.707 22.7623 104.709 22.7814 104.717 22.798C104.725 22.8147 104.739 22.8278 104.756 22.8347C104.773 22.8415 104.793 22.8417 104.81 22.8352L104.815 22.8329C104.93 22.7767 105.051 22.7351 105.176 22.7092C105.3 22.6827 105.427 22.6751 105.553 22.6866C105.803 22.7075 106.042 22.7942 106.248 22.9379L106.255 22.9427C106.266 22.9525 106.28 22.9598 106.295 22.9641C106.309 22.9684 106.325 22.9696 106.34 22.9677C106.355 22.9658 106.369 22.9609 106.383 22.9531C106.396 22.9453 106.407 22.9349 106.416 22.9226C106.425 22.9102 106.431 22.8962 106.435 22.8813C106.438 22.8664 106.438 22.8509 106.435 22.836C106.432 22.821 106.426 22.8068 106.418 22.7942C106.409 22.7816 106.398 22.7709 106.385 22.7628L106.381 22.7593Z" fill="#0C0C0C"/>
<path d="M108.583 23.278C108.827 23.2184 109.082 23.2243 109.322 23.295C109.444 23.3298 109.559 23.3828 109.665 23.4522C109.772 23.5218 109.87 23.6046 109.957 23.6987L109.961 23.7026C109.975 23.715 109.993 23.7217 110.011 23.7215C110.03 23.7213 110.047 23.7142 110.061 23.7016C110.075 23.689 110.083 23.6717 110.084 23.6533C110.086 23.6348 110.08 23.6164 110.069 23.6018C109.978 23.4933 109.874 23.3966 109.758 23.3142C109.642 23.2304 109.514 23.1645 109.379 23.1187C109.104 23.024 108.808 23.0052 108.524 23.0641C108.497 23.0719 108.473 23.0897 108.459 23.1139C108.444 23.1381 108.44 23.1669 108.445 23.1946C108.451 23.2222 108.468 23.2465 108.491 23.2626C108.514 23.2788 108.542 23.2854 108.57 23.2814L108.575 23.2803L108.583 23.278Z" fill="#0C0C0C"/>
<path d="M106.96 28.5334C106.879 28.5241 106.799 28.5079 106.72 28.485C106.702 28.4798 106.687 28.4676 106.677 28.4512C106.668 28.4347 106.666 28.4154 106.671 28.3973C106.677 28.3793 106.689 28.364 106.705 28.355C106.722 28.3459 106.741 28.3437 106.759 28.3489C107.233 28.485 107.502 28.3046 107.513 28.2968C107.529 28.286 107.548 28.2818 107.566 28.285C107.585 28.2882 107.601 28.2987 107.612 28.3141C107.623 28.3294 107.627 28.3485 107.624 28.367C107.62 28.3855 107.61 28.4019 107.595 28.4127C107.404 28.525 107.179 28.5676 106.96 28.5334Z" fill="#0C0C0C"/>
<path d="M113.323 24.8072L113.348 24.7388C110.218 23.6148 110.984 20.542 110.992 20.5111L110.921 20.4927C110.913 20.5242 110.13 23.6603 113.323 24.8072Z" fill="#0C0C0C"/>
<path opacity="0.1" d="M109.574 26.4103C109.603 26.1451 109.333 25.8986 108.972 25.8597C108.61 25.8208 108.294 26.0042 108.266 26.2694C108.237 26.5346 108.507 26.781 108.868 26.8199C109.23 26.8588 109.546 26.6754 109.574 26.4103Z" fill="#0C0C0C"/>
<path opacity="0.1" d="M105.044 25.8057C105.015 26.0704 104.699 26.2537 104.338 26.2152C104.276 26.2085 104.214 26.1953 104.154 26.1759C104.134 25.8607 104.13 25.5572 104.135 25.2766C104.235 25.2504 104.339 25.2431 104.442 25.2551C104.803 25.2935 105.073 25.5399 105.044 25.8057Z" fill="#0C0C0C"/>
<path d="M98.0572 43.5576C98.222 45.4952 99.0238 57.5382 99.1824 59.9253L120.151 59.9698C120.275 57.817 121.7 48.4052 122.168 44.196C122.614 40.1795 123.491 38.1685 122.848 36.981C121.798 35.0403 118.93 33.9189 116.975 33.6539C115.781 33.4921 113.984 33.3762 113.984 33.3762C113.984 33.3762 113.833 36.4543 110.206 36.6257C105.27 36.8586 105.6 33.3762 105.576 33.3762C104.776 33.3762 100.208 33.8826 99.0902 34.5455C96.0454 36.3495 97.7073 39.4516 98.0572 43.5576Z" fill="#367CFF"/>
<path d="M84.4465 44.9112L86.4677 54.7413C86.5087 54.9409 86.6169 55.1204 86.7743 55.2498C86.9316 55.3793 87.1285 55.4508 87.3321 55.4526L101.25 55.5711C101.383 55.5722 101.514 55.5436 101.634 55.4874C101.755 55.4312 101.861 55.3487 101.945 55.2461C102.029 55.1435 102.09 55.0233 102.122 54.8943C102.154 54.7654 102.156 54.6309 102.129 54.5008L100.108 44.6707C100.067 44.4711 99.959 44.2916 99.8017 44.1622C99.6444 44.0328 99.4475 43.9612 99.2438 43.9595L85.3261 43.8409C85.1933 43.8397 85.062 43.8683 84.9417 43.9245C84.8214 43.9808 84.7152 44.0632 84.6308 44.1658C84.5465 44.2684 84.4862 44.3886 84.4543 44.5176C84.4224 44.6466 84.4197 44.781 84.4465 44.9112Z" fill="#292A2E"/>
<path d="M97.4245 51.8937C97.4171 52.0231 97.4567 52.1508 97.536 52.2533C97.6152 52.3559 97.7289 52.4263 97.8559 52.4516L98.2843 52.5462C98.2767 52.5487 98.2698 52.5531 98.2642 52.5589C98.2586 52.5647 98.2545 52.5718 98.2523 52.5796C98.2513 52.5887 98.2534 52.5979 98.2581 52.6057C98.1551 52.6346 98.0637 52.695 97.9966 52.7783C97.9294 52.8617 97.8899 52.9639 97.8835 53.0707C97.8829 53.1953 97.9243 53.3164 98.0009 53.4145C98.0776 53.5126 98.1851 53.582 98.3061 53.6114L101.924 54.4156C102.109 54.4569 102.298 54.4777 102.488 54.4775C102.91 54.4774 103.326 54.3746 103.699 54.1779C104.073 53.9812 104.393 53.6964 104.633 53.3483C104.886 52.9799 104.986 52.527 104.912 52.086C104.837 51.6449 104.593 51.2505 104.232 50.9866L101.154 48.7349C101.087 48.6853 101.008 48.6529 100.925 48.6404L101.208 50.0167L101.133 49.9992L101.116 49.9964L98.7563 49.5161C98.4934 49.4579 98.1332 49.5532 98.0867 49.8532C98.0618 49.9678 98.0763 50.0875 98.1279 50.1928C98.1796 50.298 98.2653 50.3827 98.3711 50.4331C98.3696 50.4345 98.3667 50.436 98.3667 50.4389C98.3667 50.4419 98.3682 50.4433 98.3682 50.4461L97.9601 50.356C97.8855 50.3395 97.8082 50.3398 97.7336 50.3568C97.6591 50.3737 97.5893 50.407 97.5292 50.4543C97.4691 50.5015 97.4202 50.5614 97.386 50.6298C97.3518 50.6982 97.3332 50.7734 97.3315 50.8498C97.3315 50.972 97.3738 51.0904 97.4511 51.1849C97.5284 51.2794 97.636 51.3443 97.7556 51.3686L97.9313 51.4078C97.9328 51.4136 97.9313 51.4194 97.9343 51.4239C97.8062 51.4248 97.683 51.4734 97.5888 51.5603C97.4945 51.6471 97.436 51.766 97.4245 51.8937Z" fill="#E98862"/>
<g opacity="0.25">
<path d="M100.718 50.9232C100.715 50.9354 100.708 50.946 100.697 50.9527C100.687 50.9595 100.674 50.9618 100.662 50.9594L98.4038 50.4959C98.3975 50.4948 98.3915 50.4924 98.3862 50.489C98.3808 50.4855 98.3762 50.481 98.3726 50.4757C98.369 50.4704 98.3666 50.4645 98.3653 50.4582C98.3641 50.452 98.3641 50.4455 98.3654 50.4393C98.3666 50.433 98.3692 50.4271 98.3728 50.4218C98.3764 50.4166 98.381 50.4121 98.3864 50.4087C98.3917 50.4052 98.3977 50.4029 98.404 50.4018C98.4103 50.4007 98.4167 50.4009 98.4229 50.4024L100.681 50.8658C100.687 50.8671 100.693 50.8695 100.698 50.873C100.704 50.8766 100.708 50.8811 100.711 50.8863C100.715 50.8915 100.717 50.8974 100.718 50.9035C100.72 50.9097 100.72 50.916 100.718 50.9221L100.718 50.9232Z" fill="#0C0C0C"/>
</g>
<g opacity="0.25">
<path d="M100.541 51.9254C100.539 51.9375 100.531 51.948 100.521 51.9548C100.51 51.9615 100.497 51.9639 100.485 51.9614L97.965 51.4442C97.9588 51.443 97.953 51.4405 97.9478 51.437C97.9426 51.4335 97.9382 51.429 97.9347 51.4238C97.9313 51.4185 97.9289 51.4127 97.9277 51.4065C97.9266 51.4004 97.9266 51.3941 97.9279 51.3879C97.9308 51.3757 97.9383 51.3651 97.9487 51.3582C97.9592 51.3514 97.9719 51.3487 97.9842 51.3508L100.504 51.868C100.517 51.8706 100.528 51.8779 100.535 51.8885C100.542 51.8991 100.544 51.912 100.541 51.9244L100.541 51.9254Z" fill="#0C0C0C"/>
</g>
<g opacity="0.25">
<path d="M100.356 53.012C100.353 53.0242 100.346 53.0347 100.335 53.0415C100.325 53.0482 100.312 53.0506 100.3 53.0481L98.2896 52.6356C98.2774 52.6329 98.2667 52.6255 98.2599 52.615C98.253 52.6045 98.2506 52.5917 98.2532 52.5794C98.2557 52.5671 98.263 52.5563 98.2734 52.5493C98.2838 52.5423 98.2966 52.5397 98.3089 52.5421L100.319 52.9546C100.332 52.9572 100.342 52.9645 100.349 52.9751C100.356 52.9856 100.359 52.9985 100.356 53.0109L100.356 53.012Z" fill="#0C0C0C"/>
</g>
<path d="M102.148 55.8475L121.777 59.3968C122.389 59.4635 123.009 59.3873 123.587 59.1742C124.165 58.961 124.686 58.6167 125.109 58.1682C125.531 57.7198 125.845 57.1794 126.024 56.5895C126.203 55.9996 126.243 55.3762 126.14 54.7682L123.392 38.4245C123.307 37.9066 123.12 37.4106 122.843 36.965C122.565 36.5194 122.203 36.133 121.776 35.8279C121.349 35.5227 120.866 35.3049 120.355 35.1869C119.844 35.0688 119.314 35.0529 118.797 35.14C118.279 35.2271 117.784 35.4155 117.34 35.6944C116.895 35.9733 116.51 36.3372 116.206 36.7653C115.903 37.1935 115.686 37.6773 115.57 38.1892C115.454 38.7011 115.439 39.2309 115.528 39.7484L117.402 50.9995L103.011 49.1911L102.148 55.8475Z" fill="#367CFF"/>
<path d="M121.777 59.4696C121.795 59.4693 121.812 59.4624 121.825 59.4501C121.838 59.4378 121.847 59.421 121.848 59.403C121.85 59.3851 121.844 59.3671 121.834 59.3528C121.823 59.3384 121.807 59.3286 121.789 59.3253L102.228 55.7883L103.073 49.2723L117.391 51.0717C117.403 51.0732 117.414 51.0721 117.425 51.0683C117.436 51.0645 117.445 51.0582 117.453 51.0499C117.461 51.0418 117.467 51.032 117.47 51.0212C117.473 51.0105 117.474 50.9991 117.472 50.988L116.282 43.7977C116.281 43.7882 116.277 43.7792 116.272 43.771C116.267 43.7629 116.261 43.7558 116.253 43.7502C116.245 43.7446 116.236 43.7407 116.227 43.7386C116.218 43.7365 116.208 43.7362 116.199 43.7379C116.18 43.7411 116.163 43.7517 116.151 43.7674C116.14 43.7831 116.136 43.8026 116.139 43.8216L117.314 50.9158L103.02 49.1197C103.001 49.1175 102.982 49.1228 102.967 49.1345C102.951 49.1462 102.941 49.1634 102.939 49.1824L102.076 55.8387C102.074 55.8572 102.078 55.8759 102.089 55.891C102.1 55.906 102.117 55.9163 102.135 55.9196L121.764 59.4683C121.768 59.4691 121.772 59.4695 121.777 59.4696Z" fill="#0C0C0C"/>
<path d="M117.414 50.9284L117.391 51.072L118.653 51.2743L118.676 51.1306L117.414 50.9284Z" fill="#0C0C0C"/>
<path d="M134.913 111.927H0.0865524C0.0635973 111.927 0.0415823 111.918 0.0253506 111.901C0.00911889 111.885 0 111.863 0 111.84C0 111.817 0.00911889 111.795 0.0253506 111.779C0.0415823 111.763 0.0635973 111.753 0.0865524 111.753H134.913C134.936 111.753 134.958 111.763 134.974 111.779C134.99 111.795 134.999 111.817 134.999 111.84C134.999 111.863 134.99 111.885 134.974 111.901C134.958 111.918 134.936 111.927 134.913 111.927H134.913Z" fill="#292A2E"/>
<g opacity="0.65">
<path d="M134.913 111.927H0.0865524C0.0635973 111.927 0.0415823 111.918 0.0253506 111.901C0.00911889 111.885 0 111.863 0 111.84C0 111.817 0.00911889 111.795 0.0253506 111.779C0.0415823 111.763 0.0635973 111.753 0.0865524 111.753H134.913C134.936 111.753 134.958 111.763 134.974 111.779C134.99 111.795 134.999 111.817 134.999 111.84C134.999 111.863 134.99 111.885 134.974 111.901C134.958 111.918 134.936 111.927 134.913 111.927H134.913Z" fill="#292A2E"/>
</g>
<path d="M8.37764 112L8.1348 111.953L11.9302 74.2141L12.1731 74.2609L8.37764 112Z" fill="#494949"/>
<path d="M22.5102 112L22.2673 111.953L26.0627 74.2141L26.3055 74.2609L22.5102 112Z" fill="#494949"/>
<path d="M53.7491 112L53.992 111.953L50.1965 74.2141L49.9537 74.2609L53.7491 112Z" fill="#494949"/>
<path d="M39.6166 112L39.8595 111.953L36.0641 74.2141L35.8213 74.2609L39.6166 112Z" fill="#494949"/>
<path d="M34.5833 57.6049L34.3381 57.6377L36.5554 74.2541L36.8005 74.2214L34.5833 57.6049Z" fill="#494949"/>
<path d="M9.13379 57.6047L8.88867 57.6375L11.1059 74.2539L11.351 74.2211L9.13379 57.6047Z" fill="#494949"/>
<path d="M36.7793 73.0208H11.8868C11.2152 73.0208 10.6708 73.5655 10.6708 74.2376V74.2377C10.6708 74.9097 11.2152 75.4545 11.8868 75.4545H36.7793C37.4509 75.4545 37.9954 74.9097 37.9954 74.2377V74.2376C37.9954 73.5655 37.4509 73.0208 36.7793 73.0208Z" fill="#292A2E"/>
<path opacity="0.8" d="M36.7793 73.0208H11.8868C11.2152 73.0208 10.6708 73.5655 10.6708 74.2376V74.2377C10.6708 74.9097 11.2152 75.4545 11.8868 75.4545H36.7793C37.4509 75.4545 37.9954 74.9097 37.9954 74.2377V74.2376C37.9954 73.5655 37.4509 73.0208 36.7793 73.0208Z" fill="white"/>
<path d="M36.7793 75.578H11.8868C11.7109 75.578 11.5367 75.5434 11.3741 75.476C11.2116 75.4086 11.0639 75.3099 10.9395 75.1854C10.8151 75.0609 10.7164 74.9131 10.6491 74.7505C10.5818 74.5879 10.5471 74.4135 10.5471 74.2375C10.5471 74.0615 10.5818 73.8871 10.6491 73.7245C10.7164 73.5619 10.8151 73.4141 10.9395 73.2896C11.0639 73.1651 11.2116 73.0664 11.3741 72.999C11.5367 72.9316 11.7109 72.897 11.8868 72.897H36.7793C37.1346 72.897 37.4754 73.0382 37.7266 73.2896C37.9779 73.541 38.119 73.882 38.119 74.2375C38.119 74.593 37.9779 74.934 37.7266 75.1854C37.4754 75.4368 37.1346 75.578 36.7793 75.578ZM11.8868 73.1445C11.7434 73.1445 11.6013 73.1728 11.4688 73.2277C11.3362 73.2827 11.2158 73.3632 11.1144 73.4647C11.0129 73.5662 10.9325 73.6867 10.8776 73.8193C10.8227 73.9519 10.7944 74.0941 10.7944 74.2376C10.7944 74.3812 10.8227 74.5233 10.8776 74.6559C10.9325 74.7886 11.0129 74.9091 11.1144 75.0106C11.2158 75.1121 11.3362 75.1926 11.4688 75.2475C11.6013 75.3024 11.7434 75.3307 11.8868 75.3307H36.7793C37.069 75.3307 37.3469 75.2156 37.5518 75.0106C37.7566 74.8056 37.8717 74.5275 37.8717 74.2376C37.8717 73.9477 37.7566 73.6697 37.5518 73.4647C37.3469 73.2597 37.069 73.1445 36.7793 73.1445H11.8868Z" fill="#292A2E"/>
<path d="M50.4416 73.0208H25.5492C24.8775 73.0208 24.3331 73.5655 24.3331 74.2376V74.2377C24.3331 74.9097 24.8775 75.4545 25.5492 75.4545H50.4416C51.1132 75.4545 51.6577 74.9097 51.6577 74.2377V74.2376C51.6577 73.5655 51.1132 73.0208 50.4416 73.0208Z" fill="white"/>
<path d="M50.4416 75.578H25.5491C25.3732 75.578 25.199 75.5434 25.0365 75.476C24.8739 75.4086 24.7262 75.3099 24.6018 75.1854C24.4774 75.0609 24.3787 74.9131 24.3114 74.7505C24.2441 74.5879 24.2094 74.4135 24.2094 74.2375C24.2094 74.0615 24.2441 73.8871 24.3114 73.7245C24.3787 73.5619 24.4774 73.4141 24.6018 73.2896C24.7262 73.1651 24.8739 73.0664 25.0365 72.999C25.199 72.9316 25.3732 72.897 25.5491 72.897H50.4416C50.6176 72.897 50.7918 72.9316 50.9543 72.999C51.1168 73.0664 51.2645 73.1651 51.3889 73.2896C51.5133 73.4141 51.612 73.5619 51.6794 73.7245C51.7467 73.8871 51.7813 74.0615 51.7813 74.2375C51.7813 74.4135 51.7467 74.5879 51.6794 74.7505C51.612 74.9131 51.5133 75.0609 51.3889 75.1854C51.2645 75.3099 51.1168 75.4086 50.9543 75.476C50.7918 75.5434 50.6176 75.578 50.4416 75.578ZM25.5491 73.1445C25.4057 73.1445 25.2636 73.1728 25.1311 73.2277C24.9986 73.2827 24.8781 73.3632 24.7767 73.4647C24.6753 73.5662 24.5948 73.6867 24.5399 73.8193C24.485 73.9519 24.4567 74.0941 24.4567 74.2376C24.4567 74.3812 24.485 74.5233 24.5399 74.6559C24.5948 74.7886 24.6753 74.9091 24.7767 75.0106C24.8781 75.1121 24.9986 75.1926 25.1311 75.2475C25.2636 75.3024 25.4057 75.3307 25.5491 75.3307H50.4416C50.5851 75.3307 50.7271 75.3024 50.8597 75.2475C50.9922 75.1926 51.1126 75.1121 51.2141 75.0106C51.3155 74.9091 51.396 74.7886 51.4509 74.6559C51.5058 74.5233 51.534 74.3812 51.534 74.2376C51.534 74.0941 51.5058 73.9519 51.4509 73.8193C51.396 73.6867 51.3155 73.5662 51.2141 73.4647C51.1126 73.3632 50.9922 73.2827 50.8597 73.2277C50.7271 73.1728 50.5851 73.1445 50.4416 73.1445H25.5491Z" fill="#292A2E"/>
<path d="M33.2197 57.6211H9.07809C8.68337 57.6211 8.30215 57.4773 8.00558 57.2167C7.70901 56.9561 7.51734 56.5964 7.46636 56.2047L5.86947 43.9337C5.83962 43.7043 5.85902 43.4712 5.92636 43.25C5.9937 43.0287 6.10744 42.8243 6.25998 42.6505C6.41252 42.4768 6.60035 42.3375 6.81094 42.2421C7.02153 42.1468 7.25004 42.0974 7.4812 42.0974H31.6228C32.0175 42.0974 32.3987 42.2411 32.6953 42.5017C32.9918 42.7623 33.1835 43.122 33.2345 43.5137L34.8313 55.7844C34.8612 56.0138 34.8418 56.247 34.7745 56.4683C34.7072 56.6896 34.5935 56.894 34.441 57.0678C34.2885 57.2417 34.1006 57.3809 33.89 57.4763C33.6794 57.5717 33.4508 57.6211 33.2197 57.6211Z" fill="#292A2E"/>
<path opacity="0.8" d="M33.2197 57.6211H9.07809C8.68337 57.6211 8.30215 57.4773 8.00558 57.2167C7.70901 56.9561 7.51734 56.5964 7.46636 56.2047L5.86947 43.9337C5.83962 43.7043 5.85902 43.4712 5.92636 43.25C5.9937 43.0287 6.10744 42.8243 6.25998 42.6505C6.41252 42.4768 6.60035 42.3375 6.81094 42.2421C7.02153 42.1468 7.25004 42.0974 7.4812 42.0974H31.6228C32.0175 42.0974 32.3987 42.2411 32.6953 42.5017C32.9918 42.7623 33.1835 43.122 33.2345 43.5137L34.8313 55.7844C34.8612 56.0138 34.8418 56.247 34.7745 56.4683C34.7072 56.6896 34.5935 56.894 34.441 57.0678C34.2885 57.2417 34.1006 57.3809 33.89 57.4763C33.6794 57.5717 33.4508 57.6211 33.2197 57.6211Z" fill="white"/>
<path d="M33.2197 57.7447H9.07809C8.6536 57.7438 8.24388 57.5888 7.92493 57.3085C7.60598 57.0282 7.39947 56.6417 7.34371 56.2206L5.74694 43.95C5.71479 43.7031 5.73563 43.4523 5.80807 43.2142C5.88052 42.9761 6.0029 42.7561 6.16704 42.5691C6.33118 42.3821 6.53331 42.2322 6.75993 42.1296C6.98655 42.027 7.23244 41.9739 7.4812 41.9739H31.6228C32.0473 41.9748 32.457 42.1298 32.7759 42.4101C33.0948 42.6904 33.3013 43.0769 33.357 43.498L34.9539 55.7688C34.9861 56.0156 34.9652 56.2664 34.8927 56.5045C34.8203 56.7426 34.6979 56.9625 34.5338 57.1495C34.3696 57.3366 34.1675 57.4864 33.9409 57.589C33.7143 57.6917 33.4684 57.7448 33.2197 57.7447ZM7.4812 42.2213C7.26763 42.2213 7.05651 42.2669 6.86195 42.355C6.66738 42.4432 6.49384 42.5718 6.35291 42.7324C6.21198 42.893 6.1069 43.0818 6.04469 43.2862C5.98247 43.4906 5.96455 43.706 5.99213 43.9179L7.58902 56.1887C7.63686 56.5502 7.81415 56.8821 8.08799 57.1228C8.36183 57.3634 8.71363 57.4965 9.07809 57.4973H33.2197C33.4332 57.4973 33.6444 57.4517 33.8389 57.3636C34.0335 57.2754 34.207 57.1468 34.348 56.9862C34.4889 56.8256 34.594 56.6368 34.6562 56.4324C34.7184 56.228 34.7363 56.0126 34.7087 55.8007L33.1125 43.5299C33.0646 43.1684 32.8873 42.8365 32.6135 42.5959C32.3396 42.3552 31.9878 42.2221 31.6234 42.2213H7.4812Z" fill="#292A2E"/>
<path d="M34.5847 57.6211H10.4431C10.0484 57.6211 9.66723 57.4773 9.37068 57.2167C9.07413 56.956 8.88249 56.5963 8.83153 56.2047L7.23464 43.9337C7.2048 43.7043 7.22419 43.4712 7.29154 43.25C7.35888 43.0287 7.47261 42.8243 7.62515 42.6505C7.77769 42.4768 7.96553 42.3375 8.17612 42.2421C8.38671 42.1468 8.61521 42.0974 8.84637 42.0974H32.9879C33.3826 42.0974 33.7638 42.2411 34.0604 42.5017C34.3569 42.7623 34.5486 43.122 34.5995 43.5137L36.1964 55.7844C36.2263 56.0138 36.207 56.247 36.1397 56.4683C36.0724 56.6896 35.9586 56.894 35.8061 57.0678C35.6535 57.2417 35.4657 57.3809 35.2551 57.4763C35.0444 57.5717 34.8159 57.6211 34.5847 57.6211Z" fill="white"/>
<path d="M34.5847 57.7447H10.4431C10.0187 57.7438 9.60895 57.5888 9.29003 57.3085C8.9711 57.0282 8.76461 56.6417 8.70888 56.2206L7.11198 43.95C7.07987 43.7031 7.10075 43.4523 7.17322 43.2142C7.24568 42.9761 7.36807 42.7562 7.53222 42.5692C7.69637 42.3821 7.8985 42.2323 8.12511 42.1296C8.35173 42.027 8.59762 41.9739 8.84637 41.9739H32.9878C33.4123 41.9748 33.822 42.1298 34.141 42.4101C34.4599 42.6904 34.6664 43.0769 34.7222 43.498L36.3191 55.7688C36.3512 56.0156 36.3303 56.2664 36.2578 56.5045C36.1853 56.7426 36.063 56.9625 35.8988 57.1495C35.7347 57.3365 35.5325 57.4863 35.3059 57.589C35.0793 57.6916 34.8335 57.7447 34.5847 57.7447ZM8.84637 42.2213C8.63276 42.2213 8.4216 42.2669 8.22699 42.355C8.03238 42.4431 7.8588 42.5718 7.71783 42.7323C7.57686 42.8929 7.47175 43.0818 7.40952 43.2862C7.34728 43.4907 7.32935 43.7061 7.35693 43.918L8.9537 56.1887C9.00159 56.5503 9.17895 56.8822 9.45286 57.1228C9.72677 57.3635 10.0786 57.4965 10.4431 57.4973H34.5847C34.7983 57.4973 35.0094 57.4517 35.204 57.3636C35.3985 57.2754 35.5721 57.1468 35.713 56.9862C35.8539 56.8256 35.959 56.6368 36.0212 56.4324C36.0834 56.228 36.1014 56.0126 36.0738 55.8007L34.4769 43.5299C34.4291 43.1684 34.2518 42.8365 33.9779 42.5959C33.7041 42.3552 33.3523 42.2221 32.9878 42.2213H8.84637Z" fill="#292A2E"/>
<path d="M31.9237 23.1657C31.9237 23.1657 33.528 21.9541 33.9255 19.1652C34.2333 17.0057 32.2426 18.4048 32.2426 18.4048C32.2426 18.4048 32.4491 16.8477 31.3152 17.0022C30.1814 17.1568 29.5471 18.7924 29.5471 18.7924" fill="#0C0C0C"/>
<path d="M25.4556 17.1848C25.4556 17.1848 19.8305 17.7883 21.864 25.4156L22.3616 25.4488L23.3721 25.5166" fill="#0C0C0C"/>
<path d="M30.9815 33.3802C30.9568 33.377 30.6824 37.9332 25.3921 37.5364C21.7297 37.2619 20.4237 33.3738 20.3399 33.3738C20.7347 33.2898 21.2227 33.1623 21.4166 33.1185C21.8393 33.0204 22.2221 32.7958 22.5141 32.4746C22.8061 32.1535 22.9934 31.7509 23.0512 31.3206C23.1583 30.6748 22.977 27.3704 23.0325 26.717L28.6544 27.9736C28.5757 29.3537 28.026 32.5533 29.9527 33.1195C30.2736 33.2126 30.619 33.2988 30.9815 33.3802Z" fill="#E98862"/>
<path opacity="0.52" d="M28.7331 31.8111C28.6451 31.5272 28.5884 31.2344 28.5641 30.9381C28.5024 30.2619 28.5148 29.581 28.6012 28.9075C27.4586 28.7531 26.3821 28.2813 25.4941 27.5454C25.3896 27.9312 24.8155 29.6166 24.9748 29.9834C25.2746 30.6763 26.6865 31.8111 28.7331 31.8111Z" fill="#0C0C0C"/>
<path d="M27.5731 30.9093C25.3553 30.7103 22.7007 29.3081 22.6624 26.2957L22.6273 23.5775C22.5889 20.565 24.1392 18.1028 26.9738 18.0668C29.8084 18.0307 31.9582 20.4459 31.9965 23.4582L32.0118 24.6617C32.0098 25.0749 31.9798 25.4875 31.9217 25.8967C31.7763 26.9793 31.5508 28.6251 30.8166 29.7386C30.1237 30.7898 28.9898 31.0365 27.5731 30.9093Z" fill="#E98862"/>
<path d="M28.6018 28.1558C29.0596 28.1765 29.5158 28.0893 29.9336 27.9013C29.9423 27.8976 29.9501 27.8922 29.9567 27.8855C29.9632 27.8788 29.9684 27.8708 29.9719 27.8621C29.9754 27.8534 29.9772 27.8441 29.9771 27.8347C29.977 27.8253 29.975 27.816 29.9713 27.8074C29.9677 27.7987 29.9623 27.7909 29.9556 27.7843C29.9489 27.7777 29.9409 27.7725 29.9322 27.769C29.9235 27.7655 29.9142 27.7638 29.9048 27.7639C29.8954 27.764 29.8861 27.7659 29.8775 27.7696C28.9772 28.1532 28.1598 28.0975 27.5136 27.6071C27.5006 27.5967 27.4871 27.5871 27.4731 27.5781C27.4568 27.5705 27.4383 27.5692 27.4211 27.5746C27.404 27.58 27.3895 27.5916 27.3806 27.6072C27.3716 27.6227 27.3688 27.6411 27.3727 27.6587C27.3767 27.6762 27.3871 27.6916 27.4018 27.7018C27.407 27.7052 27.4155 27.7117 27.4266 27.7206C27.7663 27.9796 28.1755 28.1311 28.6018 28.1558Z" fill="#0C0C0C"/>
<path d="M28.5806 28.8345C28.6633 28.8396 28.7462 28.8376 28.8286 28.8286C28.8471 28.8261 28.8638 28.8165 28.8753 28.8018C28.8869 28.7871 28.8922 28.7685 28.8902 28.75C28.8882 28.7314 28.8791 28.7144 28.8647 28.7025C28.8504 28.6906 28.832 28.6847 28.8134 28.6862C28.3181 28.7389 28.0815 28.5117 28.0715 28.5021C28.058 28.4892 28.04 28.4822 28.0214 28.4824C28.0027 28.4827 27.9849 28.4901 27.9717 28.5033C27.9585 28.5165 27.951 28.5343 27.9507 28.5529C27.9504 28.5716 27.9573 28.5896 27.9701 28.6032C28.1408 28.7485 28.3565 28.8302 28.5806 28.8345Z" fill="#0C0C0C"/>
<path d="M31.0608 25.241C31.2536 25.241 31.41 25.0846 31.41 24.8916C31.41 24.6987 31.2536 24.5422 31.0608 24.5422C30.8679 24.5422 30.7116 24.6987 30.7116 24.8916C30.7116 25.0846 30.8679 25.241 31.0608 25.241Z" fill="#0C0C0C"/>
<path d="M27.6495 25.0267C27.8423 25.0267 27.9987 24.8702 27.9987 24.6773C27.9987 24.4843 27.8423 24.3279 27.6495 24.3279C27.4567 24.3279 27.3003 24.4843 27.3003 24.6773C27.3003 24.8702 27.4567 25.0267 27.6495 25.0267Z" fill="#0C0C0C"/>
<path d="M22.8498 27.2112C21.9885 27.2222 21.2784 26.3089 21.2671 25.4471C21.2559 24.5852 21.9485 24.1009 22.81 24.0898L23.2612 24.6618L23.5902 27.2018L22.8498 27.2112Z" fill="#E98862"/>
<path d="M23.7069 25.8261C23.7069 25.8261 23.9977 21.5635 25.2896 21.3004C26.1499 21.1251 28.2362 22.3461 30.1687 21.9774C31.014 21.8165 31.8166 22.0254 31.8982 22.425C31.9306 22.5833 32.4572 20.3094 31.1333 18.5841C30.0793 17.2107 26.6299 16.8223 25.0606 17.2726C20.7152 18.5198 22.6327 24.2774 22.6327 24.2774L22.8264 25.747L23.7069 25.8261Z" fill="#0C0C0C"/>
<path d="M29.1226 27.15H29.128C29.4056 27.1472 29.871 27.1115 29.8692 26.9037C29.8673 26.7316 29.3776 24.8777 29.3217 24.6669C29.3169 24.6488 29.3051 24.6333 29.2888 24.6238C29.2726 24.6144 29.2533 24.6118 29.2352 24.6166C29.2171 24.6214 29.2016 24.6332 29.1921 24.6495C29.1827 24.6657 29.1801 24.685 29.1849 24.7032C29.4025 25.5242 29.7265 26.7881 29.7277 26.9054C29.7009 26.9549 29.4142 27.0058 29.1268 27.0087C29.1084 27.0087 29.0907 27.0159 29.0775 27.0287C29.0643 27.0415 29.0566 27.059 29.0561 27.0774C29.0555 27.0958 29.0622 27.1137 29.0746 27.1273C29.087 27.1408 29.1042 27.1491 29.1226 27.1501V27.15Z" fill="#0C0C0C"/>
<path d="M30.0697 22.9972C30.3615 22.9169 30.6695 22.9169 30.9612 22.9972C31.1045 23.0358 31.2412 23.0957 31.3668 23.1749C31.4909 23.2525 31.6046 23.3454 31.7055 23.4515C31.7241 23.4704 31.7346 23.4958 31.735 23.5223C31.7354 23.5488 31.7256 23.5745 31.7075 23.5939C31.6895 23.6133 31.6647 23.6251 31.6382 23.6267C31.6118 23.6283 31.5857 23.6196 31.5655 23.6025L31.5593 23.597C31.4659 23.5106 31.3621 23.4362 31.2502 23.3757C31.1404 23.3155 31.0221 23.2723 30.8994 23.2476C30.6578 23.197 30.4072 23.211 30.1727 23.2882L30.163 23.2917C30.1438 23.2984 30.1235 23.3014 30.1032 23.3003C30.083 23.2992 30.0631 23.2942 30.0447 23.2854C30.0264 23.2766 30.01 23.2644 29.9964 23.2492C29.9828 23.2341 29.9723 23.2165 29.9656 23.1973C29.9588 23.1782 29.9559 23.1578 29.9569 23.1376C29.958 23.1173 29.9631 23.0974 29.9718 23.079C29.9806 23.0607 29.9929 23.0442 30.008 23.0307C30.0231 23.0171 30.0407 23.0066 30.0599 22.9998C30.0632 22.9991 30.0667 22.9981 30.0697 22.9972Z" fill="#0C0C0C"/>
<path d="M28.0038 23.173C27.7818 23.0651 27.5352 23.0178 27.289 23.0358C27.1642 23.044 27.0412 23.071 26.9244 23.116C26.8056 23.1611 26.6929 23.221 26.589 23.2943L26.5823 23.2986C26.56 23.3137 26.5327 23.3195 26.5062 23.3146C26.4797 23.3098 26.4562 23.2948 26.4407 23.2728C26.4251 23.2508 26.4188 23.2236 26.4231 23.1971C26.4273 23.1705 26.4418 23.1466 26.4635 23.1306C26.5775 23.0388 26.7027 22.9618 26.836 22.9015C26.971 22.8398 27.1144 22.7986 27.2616 22.7795C27.5614 22.7387 27.8667 22.7797 28.1452 22.898C28.1829 22.9144 28.2125 22.9451 28.2276 22.9834C28.2427 23.0217 28.2419 23.0644 28.2255 23.1021C28.2091 23.1399 28.1784 23.1695 28.1402 23.1846C28.1019 23.1997 28.0592 23.199 28.0215 23.1826C28.0186 23.1813 28.0157 23.18 28.0129 23.1785L28.0038 23.173Z" fill="#0C0C0C"/>
<path d="M29.6545 20.0626C30.2922 19.9293 30.6501 19.06 30.454 18.1209C30.258 17.1819 29.5821 16.5287 28.9445 16.662C28.3068 16.7953 27.9489 17.6646 28.145 18.6037C28.3411 19.5427 29.0169 20.1959 29.6545 20.0626Z" fill="#0C0C0C"/>
<path d="M65.217 105.463C65.217 105.463 65.88 108.901 69.0976 109.093C72.3153 109.285 71.6175 111.849 71.6175 111.849H59.3215V105.702L65.217 105.463Z" fill="#367CFF"/>
<path d="M41.8247 103.292C41.8247 103.292 40.9022 106.67 43.7052 108.263C46.5083 109.856 44.7504 111.849 44.7504 111.849L33.7172 106.418L36.4289 100.902L41.8247 103.292Z" fill="#367CFF"/>
<path d="M34.991 102.337L44.2953 72.9668H27.4299C24.042 72.9668 22.6299 70.0921 22.6299 66.7024C22.6299 63.3126 25.9603 60.3411 29.3479 60.3411H52.11C54.1762 60.3411 56.4931 61.6055 57.6272 63.3339C58.7613 65.0623 58.4548 67.7406 57.6331 69.6377L42.7338 105.847" fill="#262626"/>
<path opacity="0.8" d="M34.991 102.337L44.2953 72.9668H27.4299C24.042 72.9668 22.6299 70.0921 22.6299 66.7024C22.6299 63.3126 25.9603 60.3411 29.3479 60.3411H52.11C54.1762 60.3411 56.4931 61.6055 57.6272 63.3339C58.7613 65.0623 58.4548 67.7406 57.6331 69.6377L42.7338 105.847" fill="#0A0A0A"/>
<path d="M58.6145 108.656L43.0575 72.9668L22.63 72.9655C17.8434 72.5901 15.6514 69.9652 15.721 66.5762C15.7897 63.2302 17.483 59.9253 20.812 59.9253H48.3441C50.8071 59.9759 52.7449 62.6995 53.6586 64.9885L66.592 106.471" fill="#262626"/>
<path d="M14.3275 59.9662C14.3275 59.9662 13.4203 65.8859 14.8583 69.177C16.6535 73.2858 23.3833 72.9656 23.3833 72.9656L23.0041 59.9253L14.3275 59.9662Z" fill="#262626"/>
<path d="M54.2436 59.8498L39.8141 56.8578C39.2128 56.7332 38.6527 56.4588 38.1855 56.0601C37.7183 55.6614 37.3591 55.1512 37.1412 54.5767L31.4659 39.6121C31.2957 39.1635 31.2156 38.6858 31.23 38.2062C31.2444 37.7267 31.353 37.2546 31.5497 36.8171C31.7464 36.3795 32.0273 35.985 32.3764 35.6561C32.7254 35.3272 33.1358 35.0703 33.5841 34.9C34.0324 34.7298 34.5098 34.6496 34.9891 34.664C35.4684 34.6784 35.9401 34.7871 36.3774 34.9839C36.8147 35.1807 37.2089 35.4618 37.5377 35.8111C37.8664 36.1604 38.1231 36.571 38.2932 37.0196L43.2579 50.1094L55.7256 52.6944C55.7256 52.6944 54.494 59.9015 54.2436 59.8498Z" fill="#367CFF"/>
<path d="M37.5544 43.4123C37.3878 45.3711 36.2067 57.5921 36.046 60.0048H14.3369C14.2121 57.8287 13.8072 48.5895 13.3342 44.3341C12.8827 40.2734 12.719 37.9561 13.239 36.6941C14.1562 34.4685 16.4515 33.6676 18.4285 33.3997C19.6357 33.2362 21.4515 33.1189 21.4515 33.1189C21.4515 33.1189 21.6052 36.2309 25.2711 36.4041C30.2614 36.6392 29.9282 33.1189 29.9528 33.1189C30.7613 33.1189 35.1619 33.7072 36.2622 34.4249C37.8163 35.4384 38.2757 36.8198 38.2938 38.0888C38.3147 39.55 37.7438 41.1907 37.5544 43.4123Z" fill="#367CFF"/>
<path d="M36.7009 53.3984C36.6992 53.3985 36.6974 53.3985 36.6957 53.3984C36.6794 53.397 36.6643 53.3892 36.6537 53.3767C36.6431 53.3642 36.6379 53.348 36.6392 53.3317L37.2028 46.5573C37.2033 46.5491 37.2054 46.5411 37.209 46.5338C37.2127 46.5265 37.2178 46.52 37.2241 46.5147C37.2303 46.5094 37.2376 46.5055 37.2454 46.5031C37.2532 46.5007 37.2614 46.5 37.2696 46.5009C37.2859 46.5022 37.301 46.51 37.3115 46.5225C37.3221 46.535 37.3273 46.5512 37.3259 46.5675L36.7625 53.342C36.7611 53.3574 36.7541 53.3717 36.7427 53.3821C36.7313 53.3926 36.7164 53.3984 36.7009 53.3984Z" fill="#0C0C0C"/>
<path d="M47.0407 57.4638L51.8042 42.8122C51.8879 42.5548 52.0509 42.3304 52.2698 42.1713C52.4888 42.0122 52.7524 41.9265 53.023 41.9265H72.4295C72.6318 41.9265 72.8312 41.9745 73.0114 42.0664C73.1917 42.1583 73.3476 42.2916 73.4665 42.4554C73.5853 42.6191 73.6638 42.8087 73.6954 43.0087C73.727 43.2086 73.7109 43.4132 73.6483 43.6057L68.8848 58.2572C68.8011 58.5147 68.6381 58.739 68.4192 58.8981C68.2002 59.0572 67.9366 59.1429 67.666 59.1429H48.2591C48.0569 59.1429 47.8575 59.0949 47.6773 59.003C47.4971 58.911 47.3413 58.7777 47.2224 58.6139C47.1036 58.4502 47.0252 58.2606 46.9936 58.0607C46.962 57.8608 46.9782 57.6563 47.0407 57.4638Z" fill="#292A2E"/>
<path d="M47.0407 57.4638L51.8042 42.8122C51.8879 42.5548 52.0509 42.3304 52.2698 42.1713C52.4888 42.0122 52.7524 41.9265 53.023 41.9265H72.4295C72.6318 41.9265 72.8312 41.9745 73.0114 42.0664C73.1917 42.1583 73.3476 42.2916 73.4665 42.4554C73.5853 42.6191 73.6638 42.8087 73.6954 43.0087C73.727 43.2086 73.7109 43.4132 73.6483 43.6057L68.8848 58.2572C68.8011 58.5147 68.6381 58.739 68.4192 58.8981C68.2002 59.0572 67.9366 59.1429 67.666 59.1429H48.2591C48.0569 59.1429 47.8575 59.0949 47.6773 59.003C47.4971 58.911 47.3413 58.7777 47.2224 58.6139C47.1036 58.4502 47.0252 58.2606 46.9936 58.0607C46.962 57.8608 46.9782 57.6563 47.0407 57.4638Z" fill="#292A2E"/>
<path d="M50.9266 57.9551H37.9358C37.6121 57.9551 37.3497 58.2176 37.3497 58.5415V58.5566C37.3497 58.8805 37.6121 59.1431 37.9358 59.1431H50.9266C51.2502 59.1431 51.5126 58.8805 51.5126 58.5566V58.5415C51.5126 58.2176 51.2502 57.9551 50.9266 57.9551Z" fill="#292A2E"/>
<path d="M50.9266 57.9551H37.9358C37.6121 57.9551 37.3497 58.2176 37.3497 58.5415V58.5566C37.3497 58.8805 37.6121 59.1431 37.9358 59.1431H50.9266C51.2502 59.1431 51.5126 58.8805 51.5126 58.5566V58.5415C51.5126 58.2176 51.2502 57.9551 50.9266 57.9551Z" fill="#292A2E"/>
<path d="M60.3445 53.2861C61.4685 53.2861 62.3798 52.3743 62.3798 51.2495C62.3798 50.1247 61.4685 49.2129 60.3445 49.2129C59.2204 49.2129 58.3091 50.1247 58.3091 51.2495C58.3091 52.3743 59.2204 53.2861 60.3445 53.2861Z" fill="white"/>
<path d="M45.955 54.0315L42.7127 52.8945L43.1783 52.8622C43.3283 52.8488 43.4676 52.7789 43.5682 52.6667C43.6687 52.5545 43.7228 52.4082 43.7197 52.2575C43.7154 52.1798 43.6953 52.1038 43.6607 52.0341C43.626 51.9644 43.5776 51.9025 43.5182 51.8522C43.4589 51.8019 43.39 51.7642 43.3156 51.7414C43.2412 51.7186 43.163 51.7112 43.0857 51.7197L37.3497 52.3295L37.4981 54.174C37.5444 54.7469 37.7606 55.2929 38.119 55.742C38.4774 56.1911 38.9617 56.5229 39.5098 56.6948L41.9937 57.4691C42.122 57.5118 42.2611 57.5088 42.3875 57.4607C42.5139 57.4126 42.6198 57.3223 42.6873 57.2051C42.746 57.0979 42.7689 56.9749 42.7527 56.8538C42.7366 56.7327 42.6821 56.6199 42.5974 56.532C42.6029 56.5281 42.6075 56.5231 42.611 56.5174C42.6145 56.5116 42.6167 56.5052 42.6177 56.4985C42.6186 56.4918 42.6181 56.4851 42.6164 56.4786C42.6146 56.4721 42.6115 56.466 42.6073 56.4607L43.0648 56.6044C43.2076 56.6524 43.3632 56.6443 43.5003 56.5818C43.6374 56.5194 43.7457 56.4071 43.8033 56.2679C43.8503 56.1415 43.8513 56.0026 43.8061 55.8756C43.7608 55.7486 43.6723 55.6416 43.556 55.5735C43.5614 55.5706 43.5661 55.5668 43.5701 55.5622L43.7583 55.6213C43.8866 55.664 44.0257 55.661 44.1521 55.6129C44.2784 55.5648 44.3843 55.4745 44.4518 55.3573C44.523 55.2272 44.5412 55.0747 44.5024 54.9315C44.4637 54.7884 44.3711 54.6659 44.244 54.5896C44.245 54.5858 44.2456 54.5819 44.2458 54.5779L45.5959 55.0516C45.7311 55.099 45.8796 55.0907 46.0087 55.0286C46.1378 54.9665 46.2369 54.8556 46.2843 54.7203C46.3317 54.585 46.3234 54.4364 46.2614 54.3073C46.1993 54.1781 46.0884 54.0789 45.9533 54.0315H45.955Z" fill="#E98862"/>
<path opacity="0.2" d="M44.1944 54.6308C44.1881 54.6308 44.1819 54.6297 44.176 54.6276L42.8699 54.153C42.8565 54.148 42.8456 54.138 42.8396 54.125C42.8336 54.1121 42.833 54.0973 42.8379 54.0839C42.8428 54.0705 42.8529 54.0596 42.8658 54.0536C42.8788 54.0476 42.8936 54.047 42.907 54.0519L44.2129 54.527C44.2248 54.5313 44.2348 54.5397 44.2412 54.5506C44.2475 54.5616 44.2498 54.5744 44.2476 54.5869C44.2454 54.5993 44.2389 54.6106 44.2292 54.6188C44.2195 54.6269 44.2073 54.6314 44.1946 54.6314L44.1944 54.6308Z" fill="#0A0A0A"/>
<path opacity="0.2" d="M43.5341 55.581C43.528 55.581 43.5219 55.58 43.5162 55.5779L42.4867 55.2125C42.48 55.2101 42.4739 55.2064 42.4687 55.2017C42.4634 55.197 42.4592 55.1913 42.4561 55.1849C42.4531 55.1785 42.4513 55.1716 42.451 55.1645C42.4506 55.1575 42.4516 55.1504 42.454 55.1437C42.4564 55.1371 42.46 55.1309 42.4647 55.1257C42.4695 55.1204 42.4752 55.1162 42.4816 55.1131C42.4879 55.1101 42.4949 55.1083 42.5019 55.108C42.509 55.1076 42.516 55.1086 42.5227 55.111L43.5522 55.4765C43.5641 55.4807 43.5742 55.4891 43.5806 55.5C43.587 55.511 43.5894 55.5239 43.5872 55.5364C43.585 55.5489 43.5785 55.5602 43.5688 55.5684C43.5591 55.5766 43.5468 55.5811 43.5341 55.581Z" fill="#0A0A0A"/>
<path opacity="0.2" d="M42.5649 56.5449C42.5583 56.5449 42.5517 56.5437 42.5456 56.5413L42.0633 56.3573C42.0565 56.355 42.0501 56.3514 42.0447 56.3466C42.0392 56.3417 42.0348 56.3359 42.0317 56.3293C42.0286 56.3227 42.0268 56.3156 42.0266 56.3084C42.0263 56.3011 42.0275 56.2939 42.0301 56.2871C42.0326 56.2803 42.0366 56.2741 42.0416 56.2689C42.0467 56.2636 42.0527 56.2595 42.0594 56.2567C42.0661 56.2538 42.0733 56.2524 42.0806 56.2524C42.0878 56.2525 42.095 56.254 42.1017 56.2569L42.5839 56.4408C42.5956 56.4454 42.6054 56.4538 42.6115 56.4648C42.6176 56.4757 42.6198 56.4885 42.6175 56.5008C42.6152 56.5132 42.6087 56.5243 42.5991 56.5324C42.5894 56.5404 42.5773 56.5449 42.5647 56.5449H42.5649Z" fill="#0A0A0A"/>
<path d="M39.8883 51.2382L26.2872 51.2291L21.1419 38.6697L13.4662 41.8988L19.886 56.8047L19.9488 56.9532C20.2629 57.6777 20.7919 58.2882 21.4643 58.7018C22.1366 59.1155 22.9198 59.3124 23.7077 59.2658L40.0943 58.2971L39.8883 51.2382Z" fill="#367CFF"/>
<path d="M23.4821 59.3341C22.7196 59.3328 21.974 59.1092 21.3365 58.6907C20.6989 58.2723 20.197 57.677 19.8921 56.9777L19.8291 56.8292L14.359 44.128L14.4725 44.0792L20.0057 56.929C20.3162 57.6407 20.8371 58.2402 21.4983 58.6469C22.1594 59.0536 22.9292 59.248 23.7041 59.204L40.0307 58.2389L39.8284 51.3002L26.246 51.2912L22.2893 41.6343L22.4037 41.5874L26.3287 51.1675L39.9482 51.1766L40.1576 58.3555L40.0976 58.3589L23.7111 59.3277C23.6346 59.332 23.5583 59.3341 23.4821 59.3341Z" fill="#0C0C0C"/>
<path d="M105.223 60.3284L104.977 60.3533L110.189 111.989L110.435 111.964L105.223 60.3284Z" fill="#494949"/>
<path d="M8.3538 60.3291L3.1376 111.964L3.38364 111.989L8.59984 60.354L8.3538 60.3291Z" fill="#494949"/>
<path d="M29.9051 60.3291L24.6889 111.964L24.935 111.989L30.1512 60.354L29.9051 60.3291Z" fill="#494949"/>
<path d="M126.774 60.3284L126.528 60.3533L131.741 111.989L131.987 111.964L126.774 60.3284Z" fill="#494949"/>
<path d="M131.475 59.3274H3.99488C3.43533 59.3274 2.98172 59.7813 2.98172 60.3411C2.98172 60.901 3.43533 61.3548 3.99488 61.3548H131.475C132.034 61.3548 132.488 60.901 132.488 60.3411C132.488 59.7813 132.034 59.3274 131.475 59.3274Z" fill="#292A2E"/>
<path opacity="0.8" d="M131.475 59.3274H3.99488C3.43533 59.3274 2.98172 59.7813 2.98172 60.3411C2.98172 60.901 3.43533 61.3548 3.99488 61.3548H131.475C132.034 61.3548 132.488 60.901 132.488 60.3411C132.488 59.7813 132.034 59.3274 131.475 59.3274Z" fill="white"/>
<path d="M131.475 61.4786H3.99537C3.84509 61.4801 3.696 61.4519 3.55671 61.3954C3.41742 61.3389 3.2907 61.2554 3.18388 61.1496C3.07706 61.0439 2.99226 60.9179 2.93438 60.7792C2.87651 60.6404 2.84671 60.4915 2.84671 60.3411C2.84671 60.1907 2.87651 60.0419 2.93438 59.9031C2.99226 59.7643 3.07706 59.6384 3.18388 59.5326C3.2907 59.4268 3.41742 59.3433 3.55671 59.2868C3.696 59.2304 3.84509 59.2021 3.99537 59.2037H131.475C131.774 59.2068 132.06 59.328 132.271 59.541C132.482 59.754 132.6 60.0415 132.6 60.3411C132.6 60.6407 132.482 60.9283 132.271 61.1412C132.06 61.3542 131.774 61.4754 131.475 61.4786ZM3.99537 59.4511C3.87768 59.4497 3.76089 59.4717 3.65176 59.5158C3.54263 59.5599 3.44333 59.6253 3.35962 59.708C3.27591 59.7908 3.20945 59.8894 3.16409 59.9981C3.11873 60.1068 3.09537 60.2233 3.09537 60.3411C3.09537 60.4589 3.11873 60.5755 3.16409 60.6841C3.20945 60.7928 3.27591 60.8914 3.35962 60.9742C3.44333 61.057 3.54263 61.1223 3.65176 61.1664C3.76089 61.2105 3.87768 61.2325 3.99537 61.2311H131.475C131.709 61.2283 131.932 61.1334 132.097 60.9668C132.261 60.8002 132.354 60.5754 132.354 60.3411C132.354 60.1069 132.261 59.8821 132.097 59.7155C131.932 59.5489 131.709 59.4539 131.475 59.4511H3.99537Z" fill="#292A2E"/>
<path d="M131.475 59.3274H26.37C25.8105 59.3274 25.3569 59.7813 25.3569 60.3411C25.3569 60.901 25.8105 61.3548 26.37 61.3548H131.475C132.034 61.3548 132.488 60.901 132.488 60.3411C132.488 59.7813 132.034 59.3274 131.475 59.3274Z" fill="white"/>
<path d="M131.475 61.4785H26.3699C26.0705 61.4754 25.7844 61.3542 25.5737 61.1412C25.3631 60.9282 25.245 60.6407 25.245 60.3411C25.245 60.0414 25.3631 59.7539 25.5737 59.5409C25.7844 59.328 26.0705 59.2067 26.3699 59.2036H131.475C131.774 59.2067 132.06 59.328 132.271 59.5409C132.482 59.7539 132.6 60.0414 132.6 60.3411C132.6 60.6407 132.482 60.9282 132.271 61.1412C132.06 61.3542 131.774 61.4754 131.475 61.4785ZM26.3699 59.4511C26.1358 59.4538 25.9123 59.5488 25.7477 59.7154C25.5832 59.882 25.4909 60.1068 25.4909 60.3411C25.4909 60.5753 25.5832 60.8001 25.7477 60.9667C25.9123 61.1333 26.1358 61.2283 26.3699 61.231H131.475C131.709 61.2283 131.932 61.1333 132.097 60.9667C132.261 60.8001 132.354 60.5753 132.354 60.3411C132.354 60.1068 132.261 59.882 132.097 59.7154C131.932 59.5488 131.709 59.4538 131.475 59.4511H26.3699Z" fill="#292A2E"/>
</g>
<defs>
<clipPath id="clip0_9_2523">
<rect width="135" height="112" fill="white"/>
</clipPath>
</defs>
</svg>
