<svg width="275" height="46" viewBox="0 0 275 46" fill="none" xmlns="http://www.w3.org/2000/svg">
<path d="M274.094 43.4711C274.094 43.4711 262.617 43.3057 260.389 43.4711C258.162 43.6364 236.088 43.0959 233.98 43.4711C231.873 43.8462 218.376 43.4711 218.376 43.4711L217.744 29.0577L217.575 21.13L252.512 21.3702L274.32 21.2583C274.32 21.2583 274.069 26.9579 274.194 30.4932C274.32 34.0278 274.041 43.4184 274.094 43.4711Z" fill="#F69332"/>
<path d="M224.796 45.6643C222.814 45.6762 210.11 45.4723 207.555 45.6695C205 45.8667 196.424 45.6577 190.596 45.651L190.091 24.1878C193.629 24.1456 196.746 24.0751 198.912 23.9654C209.103 23.4567 224.406 23.8682 224.406 23.8682C224.406 23.8682 224.507 26.559 224.65 30.0491V30.0788C224.536 32.9289 224.118 35.3431 224.796 38.5211C225.258 40.6839 224.868 43.2093 224.796 45.6643Z" fill="#691549"/>
<path d="M211.956 23.0911L202.544 23.1059L198.389 23.1111L197.369 23.1133L191.117 23.1215L190.985 11.6206V11.6169L190.977 10.9474L190.873 1.83624L190.856 0.460081V0.445251H190.97L198.423 0.486773L211.792 0.562403L211.804 2.09056L211.888 13.7308L211.943 21.4798L211.956 23.0911Z" fill="#85B4AE"/>
<path d="M259.976 32.6079L248.005 32.6294L242.72 32.6353L241.423 32.639L233.472 32.6509L233.303 16.3172V16.312L233.294 15.3614L233.162 2.42213L233.14 0.466885V0.444641H233.284L242.764 0.503958L259.767 0.611471L259.782 2.78099L259.889 19.3134L259.96 30.3197L259.976 32.6079Z" fill="#FABC93"/>
<path d="M191.928 3.42312C191.928 3.42312 191.918 10.7058 191.918 13.0614C191.916 15.417 191.583 26.3129 191.91 30.4161C192.238 34.5209 191.884 43.6372 191.884 43.6372L172.702 43.6705L170.566 43.6008C170.117 43.5838 169.756 43.1248 169.752 42.5576C169.752 42.5576 169.374 36.0765 169.67 31.819C169.966 27.5615 169.59 16.3357 169.523 12.2317C169.456 8.12845 169.456 3.36084 169.456 3.36084L172.438 3.37048L183.029 3.39569L191.928 3.42312Z" fill="#B2213C"/>
<path d="M245.956 40.4133C245.543 41.0213 226.565 40.2687 225.978 40.2687C225.395 40.2687 221.292 40.4133 221.292 40.4133C221.196 40.4133 221.034 40.4222 220.819 40.4363H220.816C219.761 40.5156 217.524 40.7425 216.739 40.6498C216.65 40.6402 213.831 40.7054 210.721 40.724C206.93 40.7477 202.713 40.7054 202.484 40.371C202.068 39.7675 202.433 37.767 202.433 36.9076C202.433 36.8201 202.44 36.2403 202.448 35.6041L202.451 35.3209C202.459 34.7181 202.466 34.1286 202.459 33.9099V33.8632C202.455 33.7564 202.443 25.7271 202.443 24.8729C202.443 24.0091 202.473 22.2875 202.473 21.4244C202.473 20.5606 202.565 18.8426 202.565 17.9855C202.565 17.1209 202.514 17.1209 202.514 16.2579C202.514 15.3985 202.1 3.0991 202.517 2.48591C202.927 1.87865 215.949 2.26421 216.536 2.2264C218.019 2.13372 230.735 2.58378 231.321 2.56006C232.849 2.50445 245.472 1.892 245.889 2.49629C246.306 3.10874 245.889 15.3614 245.889 16.226C245.889 17.0794 245.922 27.216 245.922 28.0753C245.922 28.9436 246.373 39.8001 245.956 40.4133Z" fill="#042435"/>
<path d="M253.314 38.8503C251.565 39.0134 249.732 38.7487 247.95 38.8607C246.307 38.963 244.619 38.8006 242.991 38.957C242.049 39.0468 241.217 39.1995 240.257 39.1832C239.663 39.1721 239.022 39.135 238.42 39.1298C237.038 39.1135 235.595 39.568 234.197 39.5539C230.925 39.522 227.645 39.5413 224.401 39.657C223.72 39.6829 223.206 39.7304 222.536 39.8357C221.605 39.9832 220.682 39.6459 219.73 39.7474C217.919 39.938 215.929 40.2761 214.121 40.0529C213.821 40.0151 213.836 40.6075 214.134 40.6431C215.759 40.8463 217.487 40.6498 219.108 40.4748C220.146 40.3621 221.066 40.4896 222.082 40.5252C222.872 40.5534 223.616 40.288 224.413 40.2509C227.646 40.1011 230.934 40.1278 234.21 40.1456C235.763 40.1545 237.319 39.9387 238.874 39.9165C240.078 39.9002 241.326 40.0381 242.545 39.8075C244.236 39.4842 246.01 39.6266 247.728 39.4775C249.613 39.3144 251.473 39.6147 253.325 39.442C253.627 39.4145 253.615 38.8228 253.314 38.8503Z" fill="white"/>
<path d="M254.188 37.4675C253.355 37.4474 252.618 37.6269 251.789 37.7018C250.984 37.7744 250.236 37.3911 249.462 37.3844C247.507 37.3659 245.48 37.7092 243.522 37.4764C240.366 37.0982 237.139 37.4474 233.961 37.2569C230.752 37.0648 227.51 36.9002 224.302 37.1197C221.184 37.3325 218.034 36.3879 214.922 36.9885C214.623 37.0463 214.742 37.6195 215.039 37.5616C218.091 36.9722 221.299 37.9494 224.386 37.7589C227.804 37.5461 231.173 37.9553 234.587 38.0065C236.174 38.0302 237.728 37.9272 239.314 38.0139C240.99 38.1044 242.708 38.1414 244.383 38.1785C245.88 38.2119 247.384 38.1162 248.878 38.068C249.729 38.0414 250.528 38.3735 251.376 38.3557C252.318 38.3372 253.225 38.0376 254.179 38.0584C254.482 38.0666 254.49 37.4749 254.188 37.4675Z" fill="white"/>
<path d="M254.087 34.9064C247.568 34.8612 241.042 34.965 234.497 35.0214C227.973 35.0762 221.383 35.3291 214.883 35.1407C214.58 35.1311 214.583 35.7243 214.886 35.7324C221.281 35.9185 227.77 35.8051 234.204 35.6375C237.464 35.5537 240.795 35.556 244.062 35.5159C245.831 35.4952 247.64 35.751 249.395 35.7435C250.947 35.7384 252.518 35.4877 254.088 35.4974C254.392 35.4996 254.39 34.9079 254.087 34.9064Z" fill="white"/>
<path d="M253.904 33.052C247.041 32.8615 240.239 33.2359 233.383 32.8237C231.826 32.7302 230.254 32.7599 228.719 32.7132C227.943 32.6887 227.156 32.8756 226.385 32.946C225.564 33.0224 224.784 32.7866 223.987 32.7784C220.947 32.7525 217.758 32.5486 214.701 32.7465C214.399 32.7658 214.396 33.3568 214.699 33.3368C217.643 33.1477 220.682 33.6749 223.578 33.5436C225.189 33.4695 227.082 33.1914 228.686 33.3901C230.324 33.5918 231.947 33.3212 233.614 33.4191C240.393 33.8143 247.115 33.4546 253.903 33.6437C254.204 33.6534 254.206 33.0609 253.904 33.052Z" fill="white"/>
<path d="M254.956 31.1302C253.218 31.053 251.562 31.0909 249.827 31.0538C248.122 31.0175 246.395 31.1709 244.697 30.9285C242.975 30.6838 241.262 30.8788 239.566 30.6986C238.357 30.5711 237.09 30.4925 235.866 30.6282C232.602 30.9885 229.29 30.1781 226.01 30.4628C224.43 30.6 222.922 30.2144 221.372 30.4132C219.598 30.6386 217.541 30.4413 215.76 30.1663C215.459 30.1195 215.454 30.7127 215.751 30.7579C217.467 31.0234 219.175 31.0619 220.895 31.0886C222.289 31.1101 223.69 31.208 225.097 31.1984C226.815 31.1872 228.525 31.1924 230.234 31.0805C231.94 30.9678 233.662 31.4497 235.36 31.4201C235.983 31.4097 236.59 31.1124 237.229 31.1331C238.145 31.162 239.062 31.4557 239.962 31.4957C241.553 31.5647 243.072 31.2911 244.69 31.5217C246.309 31.7522 247.959 31.6232 249.587 31.6433C251.399 31.6677 253.138 31.6425 254.949 31.7211C255.251 31.7359 255.259 31.1428 254.956 31.1302Z" fill="white"/>
<path d="M200.686 19.7353C199.68 19.8807 198.64 19.9622 197.639 19.9593C197.153 19.957 196.72 19.963 196.236 20.0623C195.681 20.1773 195.126 19.791 194.591 19.8584C194.025 19.9281 193.543 20.0861 192.966 20.0082C192.463 19.9393 191.944 19.9963 191.441 19.9719C190.507 19.9274 189.57 20.2099 188.634 20.1558C186.627 20.0431 184.643 20.6281 182.674 20.3485C180.978 20.1083 179.127 21.1923 177.435 20.3159C177.26 20.2247 177.186 20.8957 177.363 20.9869C179.103 21.8893 181.135 21.1871 182.92 21.2598C184.778 21.3362 186.622 20.6192 188.5 20.8424C189.586 20.9706 190.699 20.7638 191.786 20.7719C192.351 20.7771 192.891 20.9076 193.45 20.978C193.92 21.0366 194.365 20.6362 194.835 20.6926C196.771 20.9269 198.749 20.7104 200.689 20.4301C200.867 20.4034 200.866 19.7079 200.686 19.7353Z" fill="white"/>
<path d="M200.384 15.5461C199.535 15.2458 198.66 15.5475 197.817 15.6751C196.829 15.8263 195.8 15.5045 194.806 15.5854C192.817 15.747 190.842 15.598 188.848 15.6773C187.847 15.7181 186.934 15.7092 185.94 15.9072C184.916 16.1125 183.911 15.6024 182.889 15.6929C180.962 15.8642 178.993 16.1867 177.058 16.0302C176.878 16.0154 176.88 16.7102 177.06 16.7243C177.98 16.7984 178.916 16.8236 179.84 16.7243C180.666 16.6368 181.528 16.8466 182.335 16.6153C183.401 16.3083 184.455 16.6583 185.526 16.6434C186.449 16.6323 187.376 16.5166 188.296 16.424C190.291 16.2208 192.264 16.7324 194.254 16.5723C195.371 16.4825 196.422 16.4091 197.541 16.5092C198.442 16.59 199.407 15.8968 200.311 16.2156C200.488 16.2794 200.563 15.6091 200.384 15.5461Z" fill="white"/>
<path d="M199.795 13.8185C199.203 14.0609 198.624 13.8177 198.031 13.8889C197.521 13.9512 197.022 14.2092 196.508 14.2129C196.123 14.2151 195.737 13.9274 195.363 13.9549C194.773 13.9957 194.196 14.23 193.598 14.1662C191.709 13.9667 189.824 14.0876 187.918 13.9163C184.112 13.573 180.353 14.0943 176.543 13.7814C176.363 13.768 176.362 14.4628 176.542 14.4776C180.438 14.795 184.295 14.597 188.194 14.6348C190.151 14.6548 192.069 14.8231 194.013 14.8706C194.938 14.8936 195.861 14.9966 196.784 14.8973C197.79 14.7898 198.881 14.8936 199.868 14.488C200.046 14.4168 199.972 13.7465 199.795 13.8185Z" fill="white"/>
<path d="M200.353 11.2241C198.431 11.4384 196.471 11.2745 194.534 11.1929C193.594 11.1529 192.658 10.8571 191.726 11.0572C191.208 11.1692 190.742 10.8274 190.24 10.8393C189.71 10.8496 189.247 11.0098 188.716 10.8919C186.683 10.4411 184.647 11.1611 182.618 10.6257C181.739 10.3944 180.865 10.5998 179.983 10.6717C178.972 10.7518 178.041 10.2075 177.027 10.6902C176.851 10.774 176.921 11.4465 177.098 11.3635C178.088 10.8919 179.119 11.4562 180.118 11.3257C181.118 11.1937 182.174 11.2819 183.17 11.5251C185.092 11.9974 187.057 11.425 188.988 11.686C190.911 11.9448 192.865 11.8721 194.809 11.8758C196.662 11.8795 198.508 12.1235 200.349 11.9188C200.528 11.8996 200.533 11.2048 200.353 11.2241Z" fill="white"/>
<path d="M200.589 8.38275C198.572 8.6126 196.536 8.12842 194.532 8.02462C192.504 7.92081 190.45 8.08616 188.419 7.79106C186.582 7.52191 184.711 7.91785 182.856 7.6183C182.428 7.5486 181.996 7.42181 181.571 7.43219C181.06 7.44405 180.579 7.21272 180.085 7.18232C179.991 7.17564 179.898 7.30985 179.807 7.32319C179.286 7.39808 178.954 7.1927 178.456 7.12448C178.079 7.07332 177.743 7.44331 177.342 7.23644C177.166 7.14672 177.085 7.81182 177.261 7.90302C178.011 8.2871 178.791 8.19812 179.558 8.2567C180.414 8.32195 181.289 8.12842 182.158 8.23445C184.146 8.47765 186.101 8.38126 188.081 8.42056C190.113 8.4606 192.172 8.76312 194.213 8.75867C196.337 8.75348 198.447 9.3207 200.583 9.07601C200.762 9.056 200.769 8.36198 200.589 8.38275Z" fill="white"/>
<path d="M200.722 6.44233C199.75 5.91663 198.635 6.1628 197.64 6.13907C196.521 6.11238 195.428 6.13537 194.314 6.12869C192.561 6.12054 190.79 5.60151 189.069 5.7765C188.134 5.87215 187.224 5.8158 186.28 5.75351C185.827 5.72237 185.375 5.62598 184.928 5.70309C184.42 5.79355 184.011 5.65416 183.508 5.537C182.579 5.32198 181.659 5.77279 180.733 5.52662C179.678 5.24561 178.444 5.38352 177.398 5.66602C177.221 5.71421 177.215 6.40897 177.395 6.36077C178.529 6.05381 179.845 6.05084 180.969 6.37634C181.908 6.64698 182.864 6.16947 183.8 6.52315C184.528 6.79898 185.265 6.45271 185.999 6.50091C186.918 6.56023 187.86 6.78637 188.768 6.67589C189.46 6.59137 190.162 6.91094 190.847 6.81751C191.369 6.74559 191.841 6.51796 192.372 6.5454C192.922 6.57357 193.494 6.90723 194.033 6.9013C195.142 6.8924 196.247 6.91687 197.359 6.88869C197.916 6.87386 198.464 6.96062 199.02 6.97322C199.533 6.98434 200.161 6.84865 200.645 7.10965C200.82 7.2053 200.898 6.5365 200.722 6.44233Z" fill="white"/>
<path d="M272.574 1.86458C272.574 1.86458 272.566 5.88924 272.565 7.49081C272.564 9.09237 272.271 16.5033 272.558 19.2949C272.847 22.085 272.536 28.2852 272.536 28.2852L255.674 28.3074L253.795 28.2592C253.4 28.2496 253.084 27.9359 253.08 27.5511C253.08 27.5511 252.749 23.1439 253.009 20.2477C253.269 17.3523 252.938 9.71816 252.879 6.92655C252.82 4.13642 252.82 1.82305 252.82 1.82305C252.82 1.82305 254.426 1.59394 255.442 1.82899C257.149 2.22419 262.426 1.72221 264.752 1.84752C266.75 1.95207 272.574 1.86458 272.574 1.86458Z" fill="#F2775F"/>
<path d="M268.694 25.389C267.958 25.2214 267.241 25.3883 266.503 25.3304C265.804 25.2778 265.11 25.1354 264.41 25.283C263.71 25.4298 263.022 25.4179 262.318 25.4439C261.581 25.4721 260.856 25.2029 260.127 25.349C259.491 25.4758 258.86 25.1377 258.232 25.3208C257.521 25.5314 256.857 25.4921 256.139 25.4231C254.743 25.2904 253.348 25.7227 251.946 25.4869C251.817 25.4646 251.818 25.9755 251.947 25.9978C253.318 26.2284 254.675 25.8287 256.041 25.9132C256.683 25.954 257.32 26.212 257.963 26.0771C258.334 25.9978 258.65 25.7709 259.031 25.8561C259.41 25.9384 259.749 25.9355 260.127 25.8598C261.445 25.5959 262.814 26.2803 264.14 25.8865C264.935 25.6515 265.708 25.7813 266.503 25.8421C267.236 25.8984 267.97 25.7338 268.696 25.9006C268.824 25.9288 268.823 25.4179 268.694 25.389Z" fill="white"/>
<path d="M268.744 22.6685C267.474 22.3497 266.223 22.3267 264.959 22.3764C263.53 22.432 262.105 22.1124 260.675 22.2919C260.296 22.3393 259.947 22.0902 259.581 22.0783C259.223 22.0643 258.846 22.234 258.484 22.2474C257.75 22.2748 257.025 22.2059 256.291 22.2533C255.571 22.3015 254.802 22.1058 254.098 21.9805C253.798 21.9263 253.499 22.0954 253.198 22.1184C252.795 22.1466 252.4 21.9286 251.998 21.8552C251.869 21.8307 251.868 22.3423 251.996 22.3653C253.419 22.6255 254.854 22.8576 256.288 22.7649C257.716 22.6715 259.156 22.9874 260.572 22.8228C261.968 22.6596 263.363 23.06 264.758 22.9066C265.364 22.8391 265.976 22.9718 266.576 22.9903C267.286 23.0133 268.024 22.9985 268.741 23.1794C268.871 23.2113 268.872 22.6997 268.744 22.6685Z" fill="white"/>
<path d="M268.715 17.8372C268.128 18.1938 267.381 18.245 266.757 18.3213C266.087 18.4044 265.41 18.3725 264.737 18.4444C264.404 18.4785 264.072 18.5386 263.745 18.6609C263.376 18.7973 263.035 18.6824 262.675 18.7403C262.308 18.8011 261.954 19.091 261.585 19.1214C261.183 19.1518 260.787 18.9501 260.385 18.9731C258.989 19.0509 257.636 19.6122 256.235 19.6923C254.831 19.7716 253.434 20.1453 252.024 20.3959C251.895 20.4189 251.905 20.9276 252.034 20.9053C253.603 20.628 255.155 20.3366 256.717 20.1387C257.364 20.0571 257.997 19.9333 258.635 19.8473C259.408 19.7442 260.184 19.4283 260.969 19.564C262.308 19.7946 263.617 18.9805 264.949 18.9872C265.567 18.9886 266.183 19.0376 266.795 18.8834C267.486 18.7106 268.107 18.7299 268.779 18.3213C268.904 18.2457 268.84 17.7615 268.715 17.8372Z" fill="white"/>
<path d="M268.539 16.0651C267.276 16.3943 265.978 15.9739 264.728 16.028C263.327 16.0895 261.941 15.833 260.542 15.9123C259.026 15.9969 257.506 15.7863 255.985 15.9131C254.593 16.028 253.15 15.4066 251.764 15.8879C251.636 15.9316 251.688 16.4247 251.816 16.3817C252.481 16.1511 253.309 16.2141 253.988 16.2608C254.66 16.3068 255.312 16.4729 255.982 16.4225C256.683 16.372 257.375 16.5982 258.076 16.5492C258.445 16.5218 258.797 16.2705 259.173 16.3542C259.525 16.4321 259.826 16.6204 260.181 16.5678C260.919 16.4558 261.629 16.5945 262.36 16.4996C263.081 16.4084 263.829 16.6115 264.552 16.6011C265.871 16.5826 267.215 16.9215 268.537 16.5767C268.664 16.5426 268.669 16.0317 268.539 16.0651Z" fill="white"/>
<path d="M268.575 11.5436C267.237 11.1514 265.899 11.7082 264.563 11.6519C263.833 11.6207 263.102 11.7216 262.372 11.8224C262.01 11.8713 261.64 12.0693 261.278 12.0456C260.909 12.0189 260.551 11.795 260.18 11.9002C259.444 12.1079 258.723 12.1294 257.989 12.0723C257.404 12.0278 256.796 12.1798 256.195 12.2206C255.495 12.268 254.802 12.4964 254.104 12.5394C253.329 12.5883 252.59 12.3911 251.805 12.5498C251.676 12.5765 251.681 13.0858 251.811 13.0606C252.563 12.9079 253.261 13.0391 254.009 13.0517C254.706 13.0621 255.4 12.7329 256.101 12.7314C256.745 12.7292 257.388 12.6543 258.02 12.6818C258.581 12.7055 259.223 12.8278 259.789 12.6543C260.469 12.4445 261.119 12.6691 261.794 12.483C262.518 12.2851 263.243 12.2828 263.971 12.1679C264.643 12.0611 265.329 12.2346 265.99 12.093C266.799 11.918 267.717 11.8016 268.527 12.0382C268.654 12.0767 268.704 11.5814 268.575 11.5436Z" fill="white"/>
<path d="M268.537 9.6677C267.81 9.72999 267.077 9.53127 266.345 9.51719C265.612 9.50161 264.886 9.69588 264.153 9.69217C262.884 9.68624 261.617 9.49865 260.368 9.60542C259.662 9.66474 258.888 9.75297 258.176 9.64991C257.445 9.54462 256.724 9.72776 255.982 9.62247C255.251 9.52015 254.536 9.7767 253.801 9.62766C253.145 9.49494 252.41 9.48901 251.762 9.73295C251.634 9.77966 251.689 10.2727 251.817 10.2238C252.602 9.9287 253.403 10.246 254.187 10.3128C254.858 10.3691 255.512 10.0273 256.183 10.1793C256.921 10.3454 257.639 10.1341 258.375 10.1593C259.004 10.1801 259.653 10.2416 260.269 10.2357C260.898 10.2275 261.523 10.0473 262.16 9.97541C262.86 9.89756 263.557 10.1749 264.254 10.1919C264.954 10.2075 265.646 10.0132 266.347 10.0273C267.079 10.0414 267.807 10.2394 268.538 10.1793C268.667 10.1674 268.667 9.65658 268.537 9.6677Z" fill="white"/>
<path d="M268.597 6.58326C267.166 6.67075 265.742 6.36008 264.314 6.46388C263.549 6.51875 262.79 6.432 262.022 6.51653C261.362 6.58993 260.706 6.28297 260.054 6.43497C259.406 6.58548 258.874 6.45795 258.236 6.37417C257.644 6.29631 257.043 6.57584 256.442 6.5106C254.915 6.34154 253.371 6.66111 251.849 6.62849C251.719 6.62552 251.72 7.13491 251.849 7.13787C253.375 7.17198 254.916 6.86279 256.442 7.01998C257.113 7.09116 257.774 6.96585 258.436 7.08523C258.928 7.17346 259.432 7.23056 259.931 7.09413C261.324 6.71005 262.804 7.05112 264.215 6.99922C265.67 6.94732 267.13 7.18459 268.597 7.09487C268.727 7.08597 268.727 6.57436 268.597 6.58326Z" fill="white"/>
<path d="M268.737 3.44833C268.027 3.79756 267.289 3.46835 266.573 3.40459C266.17 3.37048 265.778 3.57438 265.377 3.62332C264.906 3.6767 264.474 3.42535 264.01 3.3601C262.719 3.17399 261.382 3.19104 260.098 3.25778C258.745 3.32599 257.372 3.28299 256.01 3.32896C255.665 3.34156 255.332 3.23627 254.985 3.29856C254.516 3.38012 254.084 2.99678 253.617 3.09688C253.04 3.22144 252.546 3.07167 251.988 3.34972C251.862 3.41422 251.914 3.9073 252.041 3.84427C252.311 3.70859 252.548 3.78051 252.814 3.82574C253.177 3.88728 253.458 3.6159 253.814 3.60552C254.162 3.59366 254.483 3.90359 254.837 3.86652C255.267 3.82277 255.679 3.79237 256.108 3.80794C257.475 3.86281 258.838 3.96068 260.195 3.7946C260.529 3.75233 260.862 4.02445 261.189 4.03112C261.482 4.03631 261.791 3.87393 262.087 3.84502C262.844 3.7679 263.627 3.9073 264.378 4.08006C265.24 4.27655 266.088 3.78199 266.942 4.01333C267.573 4.18535 268.175 4.24318 268.789 3.94141C268.916 3.87986 268.865 3.38605 268.737 3.44833Z" fill="white"/>
<path d="M6.71294 17.6021C5.75324 17.6911 4.80597 17.8512 3.86996 18.0811C2.93394 18.3109 2.01569 18.6038 1.11578 18.9597L0.63623 17.5354C0.932251 17.3871 1.23419 17.2425 1.54265 17.1016C1.84991 16.9607 2.15837 16.831 2.46623 16.7123C2.05121 16.415 1.73151 16.0443 1.50653 15.5994C1.28156 15.1545 1.16907 14.6503 1.16907 14.0861C1.16907 13.5967 1.24011 13.1326 1.3822 12.6951C1.52429 12.2576 1.71967 11.8758 1.96891 11.5488C2.21757 11.2233 2.50767 10.963 2.83981 10.7703C3.17076 10.5775 3.52598 10.4811 3.90548 10.4811C4.31991 10.4811 4.71717 10.5923 5.09608 10.8147C5.47498 11.0372 5.8006 11.3567 6.07353 11.772L5.41637 12.8397C5.21448 12.6914 4.98951 12.5802 4.74085 12.506C4.49219 12.4319 4.24886 12.3948 4.01205 12.3948C3.52598 12.3948 3.12932 12.5505 2.82145 12.8619C2.51359 13.1733 2.35966 13.5745 2.35966 14.0638C2.35966 14.5829 2.5876 15.0092 3.04406 15.3436C3.49934 15.6773 4.13046 15.8886 4.93622 15.9776C5.27961 15.9041 5.61707 15.8411 5.94921 15.7885C6.28016 15.7366 6.60637 15.6958 6.92667 15.6661L6.71294 17.6021Z" fill="#022535"/>
<path d="M11.8838 18.6928C9.97627 18.6928 9.01065 17.6548 8.98756 15.5772L8.91652 4.65096L10.3197 4.33881L10.2486 14.9099C10.2486 15.5475 10.3759 16.0035 10.6311 16.2786C10.8856 16.5529 11.303 16.6901 11.8838 16.6901L12.168 16.9126V18.4704L11.8838 18.6928Z" fill="#022535"/>
<path d="M11.5991 18.4704V16.9126L11.8838 16.6901H13.3053L13.5895 16.9126V18.4704L13.3053 18.6928H11.8838L11.5991 18.4704Z" fill="#022535"/>
<path d="M13.0205 18.4704V16.9126L13.3047 16.6901H14.7262L15.011 16.9126V18.4704L14.7262 18.6928H13.3047L13.0205 18.4704Z" fill="#022535"/>
<path d="M14.442 18.4704V16.9126L14.7262 16.6901H16.1483L16.4325 16.9126V18.4704L16.1483 18.6928H14.7262L14.442 18.4704Z" fill="#022535"/>
<path d="M15.8635 18.4704V16.9126L16.1477 16.6901H17.5692L17.8534 16.9126V18.4704L17.5692 18.6928H16.1477L15.8635 18.4704Z" fill="#022535"/>
<path d="M17.2844 18.4704V16.9126L17.5692 16.6901H18.9907L19.2749 16.9126V18.4704L18.9907 18.6928H17.5692L17.2844 18.4704Z" fill="#022535"/>
<path d="M18.7059 18.4704V16.9126L18.9901 16.6901H20.4116L20.6964 16.9126V18.4704L20.4116 18.6928H18.9901L18.7059 18.4704Z" fill="#022535"/>
<path d="M20.1274 18.4704V16.9126L20.4116 16.6901H21.8331L22.1173 16.9126V18.4704L21.8331 18.6928H20.4116L20.1274 18.4704Z" fill="#022535"/>
<path d="M21.5483 18.4704V16.9126L21.8325 16.6901H23.2546L23.5388 16.9126V18.4704L23.2546 18.6928H21.8325L21.5483 18.4704Z" fill="#022535"/>
<path d="M22.9698 18.4704V16.9126L23.254 16.6901H24.6755L24.9596 16.9126V18.4704L24.6755 18.6928H23.254L22.9698 18.4704Z" fill="#022535"/>
<path d="M24.3907 18.4704V16.9126L24.6755 16.6901H26.0969L26.3811 16.9126V18.4704L26.0969 18.6928H24.6755L24.3907 18.4704Z" fill="#022535"/>
<path d="M25.8122 18.4704V16.9126L26.097 16.6901H27.5184L27.8026 16.9126V18.4704L27.5184 18.6928H26.097L25.8122 18.4704Z" fill="#022535"/>
<path d="M27.2337 18.4704V16.9126L27.5179 16.6901H28.9393L29.2241 16.9126V18.4704L28.9393 18.6928H27.5179L27.2337 18.4704Z" fill="#022535"/>
<path d="M28.6552 18.4704V16.9126L28.9393 16.6901H30.3608L30.645 16.9126V18.4704L30.3608 18.6928H28.9393L28.6552 18.4704Z" fill="#022535"/>
<path d="M30.0761 18.4704V16.9126L30.3608 16.6901H31.7823L32.0665 16.9126V18.4704L31.7823 18.6928H30.3608L30.0761 18.4704Z" fill="#022535"/>
<path d="M31.4976 18.4704V16.9126L31.7817 16.6901H33.2032L33.488 16.9126V18.4704L33.2032 18.6928H31.7817L31.4976 18.4704Z" fill="#022535"/>
<path d="M32.9185 18.4704V16.9126L33.2032 16.6901H34.6247L34.9089 16.9126V18.4704L34.6247 18.6928H33.2032L32.9185 18.4704Z" fill="#022535"/>
<path d="M34.3399 18.4704V16.9126L34.6241 16.6901H36.0456L36.3304 16.9126V18.4704L36.0456 18.6928H34.6241L34.3399 18.4704Z" fill="#022535"/>
<path d="M35.7614 18.4704V16.9126L36.0456 16.6901H37.4671L37.7513 16.9126V18.4704L37.4671 18.6928H36.0456L35.7614 18.4704Z" fill="#022535"/>
<path d="M37.1829 18.4704V16.9126L37.4671 16.6901H38.8886L39.1728 16.9126V18.4704L38.8886 18.6928H37.4671L37.1829 18.4704Z" fill="#022535"/>
<path d="M38.6044 18.4704V16.9126L38.8886 16.6901H40.3101L40.5943 16.9126V18.4704L40.3101 18.6928H38.8886L38.6044 18.4704Z" fill="#022535"/>
<path d="M40.0253 18.4704V16.9126L40.3095 16.6901H41.731L42.0158 16.9126V18.4704L41.731 18.6928H40.3095L40.0253 18.4704Z" fill="#022535"/>
<path d="M41.4468 18.4704V16.9126L41.731 16.6901H43.1525L43.4367 16.9126V18.4704L43.1525 18.6928H41.731L41.4468 18.4704Z" fill="#022535"/>
<path d="M42.8677 18.4704V16.9126L43.1519 16.6901H44.574L44.8581 16.9126V18.4704L44.574 18.6928H43.1519L42.8677 18.4704Z" fill="#022535"/>
<path d="M44.2892 18.4704V16.9126L44.5734 16.6901H45.9949L46.279 16.9126V18.4704L45.9949 18.6928H44.5734L44.2892 18.4704Z" fill="#022535"/>
<path d="M45.7107 18.4704V16.9126L45.9949 16.6901H47.4164L47.7005 16.9126V18.4704L47.4164 18.6928H45.9949L45.7107 18.4704Z" fill="#022535"/>
<path d="M50.6323 23.2765L49.5305 21.8744L50.6323 20.4731L51.7335 21.8744L50.6323 23.2765ZM47.1316 18.4704V16.9126L47.4158 16.6901C48.2452 16.6901 48.9201 16.5596 49.4417 16.3001C49.9627 16.0413 50.2232 15.7329 50.2232 15.377C50.2232 15.0952 50.1966 14.769 50.1439 14.3975C50.09 14.0268 50.013 13.6375 49.9124 13.2297C49.8118 12.8212 49.6963 12.4096 49.5661 11.9944C49.4352 11.5792 49.2937 11.1862 49.1398 10.8148L50.4192 9.92426C50.5613 10.2661 50.6945 10.6553 50.8188 11.0928C50.9431 11.5303 51.0556 11.9796 51.1563 12.4393C51.2569 12.899 51.3339 13.3483 51.3872 13.7858C51.4411 14.2233 51.4677 14.6125 51.4677 14.9536C51.4677 16.2445 51.1356 17.1906 50.4725 17.7912C49.8088 18.3925 48.7899 18.6928 47.4158 18.6928L47.1316 18.4704ZM48.038 23.2765L46.9362 21.8744L48.038 20.4731L49.1398 21.8744L48.038 23.2765Z" fill="#022535"/>
<path d="M55.8204 9.10127L54.7186 7.69916L55.8204 6.29779L56.9222 7.69916L55.8204 9.10127ZM52.5689 21.3858C53.2083 21.0885 53.8009 20.7474 54.3456 20.3619C54.8903 19.9756 55.361 19.5715 55.7582 19.1488C56.1549 18.7262 56.4663 18.3036 56.6913 17.8802C56.9157 17.4576 57.0287 17.0535 57.0287 16.6672C57.0287 16.4306 56.9867 16.1266 56.9044 15.7552C56.8215 15.3844 56.7061 14.9803 56.5581 14.5421C56.4095 14.1054 56.2354 13.6487 56.0335 13.1734C55.8322 12.6989 55.6191 12.2391 55.3941 11.7943L56.6735 10.9038C57.1708 11.7349 57.5622 12.6544 57.8463 13.6635C58.1305 14.6726 58.2726 15.6143 58.2726 16.4892C58.2726 17.8847 57.8463 19.1637 56.9932 20.3285C56.1401 21.4926 54.9376 22.4313 53.3859 23.1439L52.5689 21.3858Z" fill="#022535"/>
<path d="M64.9005 16.0665C64.9005 15.9635 64.868 15.8189 64.8028 15.6328C64.7377 15.4474 64.6519 15.2398 64.5453 15.0092C64.4387 14.7801 64.3108 14.5354 64.1628 14.2752C64.0148 14.0164 63.852 13.7524 63.6744 13.4855C63.3429 14.1083 62.993 14.6985 62.6259 15.2546C62.2588 15.8107 61.8675 16.3342 61.4531 16.8236C61.6544 16.8829 61.874 16.9237 62.1108 16.9459C62.3476 16.9682 62.5963 16.9793 62.8574 16.9793C63.4613 16.9793 63.9527 16.894 64.3316 16.7235C64.7111 16.5529 64.9005 16.3342 64.9005 16.0665ZM59.7651 16.6671C60.0256 16.4002 60.2927 16.0962 60.565 15.7551C60.8373 15.4141 61.1067 15.0545 61.3731 14.6763C61.6396 14.2974 61.8977 13.9081 62.1463 13.5078C62.395 13.1074 62.6259 12.7144 62.839 12.3281C62.2351 11.468 61.5863 10.6294 60.8936 9.81304C60.2003 8.99743 59.5047 8.27005 58.8055 7.63239L59.8007 6.14131C60.0967 6.45347 60.4075 6.80195 60.7337 7.18752C61.0594 7.57308 61.3879 7.97718 61.7201 8.40055C62.051 8.82319 62.3713 9.24582 62.6792 9.66846C62.9876 10.0918 63.2718 10.4959 63.5323 10.8815C63.8638 10.0362 64.1125 9.10494 64.2783 8.0884C64.444 7.07259 64.5329 5.92703 64.5453 4.65097L65.949 4.33881C65.9372 5.74833 65.798 7.10966 65.531 8.4228C65.2646 9.73593 64.8768 10.9482 64.3677 12.0612C65.0071 13.0555 65.463 13.8896 65.7359 14.5643C66.0082 15.2398 66.1444 15.8367 66.1444 16.3565C66.1444 17.1572 65.8513 17.7727 65.2646 18.2034C64.6785 18.6335 63.8283 18.8485 62.7153 18.8485C62.1937 18.8485 61.681 18.8003 61.1778 18.7039C60.6739 18.6075 60.2808 18.4778 59.9966 18.3147L59.7651 16.6671ZM61.0801 3.89393C60.1441 3.98291 59.2323 4.20535 58.3437 4.56199L58.095 3.76047C58.2608 3.68632 58.4147 3.61959 58.5568 3.56027C58.6989 3.50096 58.8351 3.44164 58.9653 3.38158C58.5746 3.10057 58.3792 2.69202 58.3792 2.15816C58.3792 1.68363 58.5159 1.27879 58.7883 0.945129C59.0606 0.611471 59.3862 0.444641 59.7651 0.444641C60.1677 0.444641 60.4999 0.630007 60.7604 1.00074L60.4046 1.64655C60.2269 1.51309 60.0375 1.44562 59.8362 1.44562C59.6231 1.44562 59.4478 1.51309 59.3122 1.64655C59.1761 1.78002 59.1074 1.95055 59.1074 2.15816C59.1074 2.3806 59.1997 2.56671 59.3833 2.71426C59.5668 2.86256 59.8125 2.95969 60.1204 3.00343C60.3223 2.95969 60.5117 2.92187 60.6893 2.89221C60.8669 2.86256 61.0386 2.84105 61.2044 2.82548L61.0801 3.89393Z" fill="#022535"/>
<path d="M68.1703 18.6928L68.0809 4.65096L69.4847 4.33881L69.3959 18.6928H68.1703Z" fill="#022535"/>
<path d="M79.0982 5.89662L77.9965 4.49452L79.0982 3.09241L80.1994 4.49452L79.0982 5.89662ZM77.5879 14.7757C78.1563 14.7757 78.6536 14.6726 79.0805 14.4642L79.0444 10.8815C78.6063 10.9408 78.1853 11.0409 77.7833 11.1818C77.3801 11.3234 77.0214 11.5014 76.7082 11.7164C76.3938 11.9314 76.1451 12.1761 75.9616 12.4504C75.7781 12.7248 75.6863 13.0258 75.6863 13.3513C75.6863 13.6182 75.7366 13.8414 75.8373 14.0194C75.9379 14.1973 76.0771 14.3419 76.2547 14.4531C76.4329 14.5643 76.6371 14.6459 76.868 14.6985C77.0989 14.7504 77.3387 14.7757 77.5879 14.7757ZM76.5039 5.89662L75.4021 4.49452L76.5039 3.09241L77.6051 4.49452L76.5039 5.89662ZM81.9945 18.6928C80.2888 18.6928 79.3351 17.855 79.1332 16.1778C78.6359 16.5344 78.0497 16.7116 77.3742 16.7116C76.9716 16.7116 76.5951 16.6449 76.2464 16.5122C75.8965 16.378 75.5916 16.1859 75.3305 15.9331C75.07 15.681 74.8628 15.3659 74.7089 14.987C74.5549 14.6088 74.478 14.1832 74.478 13.7079C74.478 12.5654 74.8782 11.594 75.6774 10.7925C76.4773 9.99173 77.5933 9.40523 79.0272 9.0345V7.67688L80.4309 7.36546L80.3599 14.9099C80.348 15.5475 80.4718 16.0035 80.7329 16.2786C80.9934 16.5529 81.4137 16.6901 81.9945 16.6901L82.2787 16.9126V18.4704L81.9945 18.6928Z" fill="#022535"/>
<path d="M81.7097 18.4704V16.9126L81.9939 16.6901H83.416L83.7002 16.9126V18.4704L83.416 18.6928H81.9939L81.7097 18.4704Z" fill="#022535"/>
<path d="M83.1312 18.4704V16.9126L83.4154 16.6901H84.8369L85.1211 16.9126V18.4704L84.8369 18.6928H83.4154L83.1312 18.4704Z" fill="#022535"/>
<path d="M84.5521 18.4704V16.9126L84.8369 16.6901H86.2584L86.5426 16.9126V18.4704L86.2584 18.6928H84.8369L84.5521 18.4704Z" fill="#022535"/>
<path d="M85.9736 18.4704V16.9126L86.2578 16.6901H87.6793L87.9641 16.9126V18.4704L87.6793 18.6928H86.2578L85.9736 18.4704Z" fill="#022535"/>
<path d="M87.3951 18.4704V16.9126L87.6793 16.6901H89.1008L89.385 16.9126V18.4704L89.1008 18.6928H87.6793L87.3951 18.4704Z" fill="#022535"/>
<path d="M88.816 18.4704V16.9126L89.1008 16.6901H90.5223L90.8065 16.9126V18.4704L90.5223 18.6928H89.1008L88.816 18.4704Z" fill="#022535"/>
<path d="M90.2375 18.4704V16.9126L90.5217 16.6901H91.9432L92.2273 16.9126V18.4704L91.9432 18.6928H90.5217L90.2375 18.4704Z" fill="#022535"/>
<path d="M91.6584 18.4704V16.9126L91.9432 16.6901H93.3647L93.6488 16.9126V18.4704L93.3647 18.6928H91.9432L91.6584 18.4704Z" fill="#022535"/>
<path d="M93.0805 18.4704V16.9126L93.3647 16.6901H94.7862L95.0703 16.9126V18.4704L94.7862 18.6928H93.3647L93.0805 18.4704Z" fill="#022535"/>
<path d="M94.5014 18.4704V16.9126L94.7862 16.6901H96.2076L96.4918 16.9126V18.4704L96.2076 18.6928H94.7862L94.5014 18.4704Z" fill="#022535"/>
<path d="M95.9229 18.4704V16.9126L96.207 16.6901H97.6285L97.9127 16.9126V18.4704L97.6285 18.6928H96.207L95.9229 18.4704Z" fill="#022535"/>
<path d="M97.3444 18.4704V16.9126L97.6285 16.6901H99.05L99.3342 16.9126V18.4704L99.05 18.6928H97.6285L97.3444 18.4704Z" fill="#022535"/>
<path d="M98.7653 18.4704V16.9126L99.0494 16.6901H100.471L100.756 16.9126V18.4704L100.471 18.6928H99.0494L98.7653 18.4704Z" fill="#022535"/>
<path d="M100.187 18.4704V16.9126L100.471 16.6901H101.892L102.177 16.9126V18.4704L101.892 18.6928H100.471L100.187 18.4704Z" fill="#022535"/>
<path d="M101.608 18.4704V16.9126L101.892 16.6901H103.314L103.598 16.9126V18.4704L103.314 18.6928H101.892L101.608 18.4704Z" fill="#022535"/>
<path d="M103.029 18.4704V16.9126L103.313 16.6901H104.735L105.019 16.9126V18.4704L104.735 18.6928H103.313L103.029 18.4704Z" fill="#022535"/>
<path d="M104.451 18.4704V16.9126L104.735 16.6901H106.156L106.441 16.9126V18.4704L106.156 18.6928H104.735L104.451 18.4704Z" fill="#022535"/>
<path d="M105.872 18.4704V16.9126L106.156 16.6901H107.578L107.862 16.9126V18.4704L107.578 18.6928H106.156L105.872 18.4704Z" fill="#022535"/>
<path d="M107.293 18.4704V16.9126L107.578 16.6901H108.999L109.283 16.9126V18.4704L108.999 18.6928H107.578L107.293 18.4704Z" fill="#022535"/>
<path d="M108.715 18.4704V16.9126L108.999 16.6901H110.42L110.704 16.9126V18.4704L110.42 18.6928H108.999L108.715 18.4704Z" fill="#022535"/>
<path d="M110.135 18.4704V16.9126L110.42 16.6901H111.842L112.126 16.9126V18.4704L111.842 18.6928H110.42L110.135 18.4704Z" fill="#022535"/>
<path d="M111.557 18.4704V16.9126L111.841 16.6901H113.263L113.547 16.9126V18.4704L113.263 18.6928H111.841L111.557 18.4704Z" fill="#022535"/>
<path d="M112.978 18.4704V16.9126L113.263 16.6901H114.684L114.968 16.9126V18.4704L114.684 18.6928H113.263L112.978 18.4704Z" fill="#022535"/>
<path d="M114.399 18.4704V16.9126L114.683 16.6901H116.106L116.39 16.9126V18.4704L116.106 18.6928H114.683L114.399 18.4704Z" fill="#022535"/>
<path d="M115.821 18.4704V16.9126L116.106 16.6901H117.527L117.811 16.9126V18.4704L117.527 18.6928H116.106L115.821 18.4704Z" fill="#022535"/>
<path d="M117.242 18.4704V16.9126L117.526 16.6901H118.948L119.233 16.9126V18.4704L118.948 18.6928H117.526L117.242 18.4704Z" fill="#022535"/>
<path d="M118.663 18.4704V16.9126L118.947 16.6901H120.369L120.654 16.9126V18.4704L120.369 18.6928H118.947L118.663 18.4704Z" fill="#022535"/>
<path d="M120.085 18.4704V16.9126L120.369 16.6901H121.791L122.075 16.9126V18.4704L121.791 18.6928H120.369L120.085 18.4704Z" fill="#022535"/>
<path d="M121.506 18.4704V16.9126L121.791 16.6901H123.212L123.497 16.9126V18.4704L123.212 18.6928H121.791L121.506 18.4704Z" fill="#022535"/>
<path d="M122.927 18.4704V16.9126L123.212 16.6901H124.633L124.917 16.9126V18.4704L124.633 18.6928H123.212L122.927 18.4704Z" fill="#022535"/>
<path d="M124.349 18.4704V16.9126L124.633 16.6901H126.055L126.339 16.9126V18.4704L126.055 18.6928H124.633L124.349 18.4704Z" fill="#022535"/>
<path d="M125.77 18.4704V16.9126L126.054 16.6901H127.476L127.76 16.9126V18.4704L127.476 18.6928H126.054L125.77 18.4704Z" fill="#022535"/>
<path d="M127.192 18.4704V16.9126L127.476 16.6901H128.897L129.181 16.9126V18.4704L128.897 18.6928H127.476L127.192 18.4704Z" fill="#022535"/>
<path d="M128.612 18.4704V16.9126L128.897 16.6901H130.318L130.602 16.9126V18.4704L130.318 18.6928H128.897L128.612 18.4704Z" fill="#022535"/>
<path d="M130.034 18.4704V16.9126L130.318 16.6901H131.74L132.024 16.9126V18.4704L131.74 18.6928H130.318L130.034 18.4704Z" fill="#022535"/>
<path d="M131.455 18.4704V16.9126L131.739 16.6901H133.16L133.445 16.9126V18.4704L133.16 18.6928H131.739L131.455 18.4704Z" fill="#022535"/>
<path d="M132.876 18.4704V16.9126L133.16 16.6901H134.582L134.867 16.9126V18.4704L134.582 18.6928H133.16L132.876 18.4704Z" fill="#022535"/>
<path d="M134.298 18.4704V16.9126L134.582 16.6901H136.004L136.288 16.9126V18.4704L136.004 18.6928H134.582L134.298 18.4704Z" fill="#022535"/>
<path d="M135.719 18.4704V16.9126L136.003 16.6901H137.425L137.709 16.9126V18.4704L137.425 18.6928H136.003L135.719 18.4704Z" fill="#022535"/>
<path d="M142.364 10.2142C141.428 10.3032 140.517 10.5256 139.628 10.8815L139.379 10.0807C139.545 10.0066 139.7 9.93984 139.842 9.88053C139.984 9.82121 140.12 9.76189 140.25 9.70257C139.859 9.42082 139.663 9.01227 139.663 8.47842C139.663 8.00388 139.8 7.59904 140.073 7.26538C140.345 6.93172 140.671 6.76489 141.049 6.76489C141.452 6.76489 141.784 6.95026 142.045 7.32099L141.689 7.96681C141.511 7.8326 141.322 7.76587 141.12 7.76587C140.907 7.76587 140.733 7.8326 140.597 7.96681C140.46 8.09953 140.392 8.27081 140.392 8.47842C140.392 8.70086 140.484 8.88622 140.668 9.03451C140.851 9.18281 141.097 9.2792 141.405 9.32369C141.606 9.2792 141.795 9.24287 141.973 9.21321C142.151 9.18281 142.323 9.1613 142.489 9.14573L142.364 10.2142Z" fill="#022535"/>
<path d="M143.289 18.6928C141.903 18.6928 140.979 18.196 140.517 17.2017C140.279 17.677 139.891 18.044 139.353 18.3035C138.814 18.5631 138.171 18.6928 137.425 18.6928L137.141 18.4704V16.9126L137.425 16.6901C138.195 16.6901 138.767 16.5782 139.139 16.3565C139.512 16.1333 139.747 15.7633 139.842 15.2435C139.865 15.0804 139.895 14.8758 139.93 14.6311C139.965 14.3871 140.001 14.138 140.037 13.8859C140.073 13.6338 140.102 13.3817 140.126 13.1296C140.149 12.8775 140.173 12.6543 140.197 12.4615L141.405 12.6402C141.346 13.2623 141.292 13.834 141.245 14.353C141.197 14.8728 141.174 15.1916 141.174 15.3103C141.174 16.2304 141.878 16.6901 143.289 16.6901L143.573 16.9126V18.4704L143.289 18.6928Z" fill="#022535"/>
<path d="M147.695 23.2765L146.593 21.8744L147.695 20.4731L148.796 21.8744L147.695 23.2765ZM145.101 23.2765L143.999 21.8744L145.101 20.4731L146.202 21.8744L145.101 23.2765ZM149.152 18.6928C147.766 18.6928 146.842 18.196 146.38 17.2017C146.143 17.677 145.755 18.044 145.216 18.3035C144.677 18.5631 144.034 18.6928 143.288 18.6928L143.004 18.4704V16.9126L143.288 16.6901C144.058 16.6901 144.629 16.5782 145.002 16.3557C145.375 16.1333 145.61 15.7633 145.705 15.2435C145.728 15.0804 145.758 14.8758 145.793 14.6311C145.829 14.3864 145.864 14.138 145.9 13.8859C145.936 13.6338 145.965 13.3817 145.989 13.1289C146.012 12.8775 146.037 12.6543 146.06 12.4615L147.269 12.6402C147.209 13.2623 147.156 13.834 147.108 14.353C147.061 14.8728 147.037 15.1916 147.037 15.3103C147.037 16.2304 147.742 16.6901 149.152 16.6901L149.436 16.9126V18.4704L149.152 18.6928Z" fill="#022535"/>
<path d="M151.142 14.0861C151.142 14.5169 151.266 14.9062 151.516 15.2547C151.764 15.6032 152.107 15.896 152.546 16.1333C153.505 15.7181 153.986 15.0359 153.986 14.0861C153.986 13.5819 153.848 13.1549 153.576 12.8064C153.304 12.4579 152.966 12.2836 152.564 12.2836C152.161 12.2836 151.823 12.4542 151.55 12.7952C151.278 13.1371 151.142 13.5671 151.142 14.0861ZM155.104 14.0861C155.104 15.1249 154.814 15.9858 154.234 16.6672C154.364 16.6827 154.495 16.6939 154.625 16.7005C154.755 16.7087 154.891 16.7117 155.034 16.7117C155.625 16.7117 156.111 16.6086 156.49 16.4002C156.87 16.1934 157.059 15.9183 157.059 15.5772C157.059 14.8647 156.955 14.1788 156.749 13.5189C156.541 12.859 156.248 12.2391 155.869 11.6608C155.49 11.0817 155.03 10.5664 154.492 10.1141C153.952 9.66107 153.357 9.29405 152.706 9.01229L153.31 7.29877C154.068 7.63984 154.752 8.08546 155.362 8.63414C155.972 9.18357 156.493 9.80195 156.926 10.4923C157.358 11.1818 157.69 11.9314 157.921 12.7396C158.152 13.5486 158.268 14.3827 158.268 15.2436C158.268 16.3417 157.989 17.1906 157.432 17.7912C156.875 18.3926 156.094 18.6928 155.087 18.6928C154.684 18.6928 154.252 18.6224 153.79 18.4815C153.328 18.3407 152.889 18.1516 152.475 17.9136C151.942 18.1516 151.379 18.3407 150.786 18.4815C150.194 18.6224 149.649 18.6928 149.152 18.6928L148.867 18.4704V16.9126L149.152 16.6902C149.459 16.6902 149.756 16.6827 150.04 16.6672C150.324 16.6531 150.597 16.6308 150.858 16.6012C150.301 15.9042 150.023 15.0656 150.023 14.0861C150.023 13.5819 150.088 13.1148 150.218 12.684C150.349 12.254 150.529 11.8758 150.759 11.5488C150.992 11.2233 151.26 10.9675 151.569 10.7814C151.876 10.5961 152.208 10.5034 152.564 10.5034C152.919 10.5034 153.25 10.5961 153.559 10.7814C153.867 10.9675 154.136 11.2233 154.367 11.5488C154.598 11.8758 154.779 12.2577 154.909 12.6951C155.039 13.1333 155.104 13.5968 155.104 14.0861Z" fill="#022535"/>
<path d="M1.27563 30.5547H8.72114V32.4677H2.9819V37.0085H7.35294V38.8999H2.9819V45.3981H1.27563V30.5547Z" fill="#022535"/>
<path d="M14.2467 40.5015C14.1993 40.4867 14.1075 40.4681 13.972 40.4459C13.8352 40.4236 13.6783 40.4051 13.5007 40.3903C13.3231 40.3755 13.133 40.3606 12.9323 40.3458C12.7304 40.3317 12.5351 40.3235 12.3456 40.3235C11.8951 40.3235 11.531 40.3903 11.2527 40.5237C10.9745 40.6579 10.7554 40.8248 10.5955 41.025C10.4357 41.2252 10.3262 41.4476 10.267 41.6923C10.2072 41.9377 10.1782 42.1705 10.1782 42.3937C10.1782 42.9572 10.3315 43.3836 10.64 43.6727C10.9478 43.9627 11.3747 44.1072 11.9194 44.1072C12.2272 44.1072 12.5203 44.0405 12.7991 43.9063C13.0768 43.7728 13.3231 43.5949 13.5362 43.3724C13.7494 43.15 13.921 42.8905 14.0519 42.5932C14.1815 42.2973 14.2467 41.9926 14.2467 41.6819V40.5015ZM14.265 44.1517C13.9566 44.6708 13.551 45.0571 13.0478 45.3084C12.544 45.5605 12.0259 45.6873 11.4931 45.6873C11.1491 45.6873 10.8087 45.6309 10.4712 45.5197C10.1332 45.4093 9.8253 45.2231 9.54704 44.9644C9.26878 44.7041 9.04322 44.3705 8.87212 43.9627C8.69983 43.5548 8.61458 43.0536 8.61458 42.4597C8.61458 41.3475 8.9254 40.457 9.54704 39.7897C10.1693 39.1216 11.0662 38.788 12.2391 38.788C12.4285 38.788 12.6298 38.7961 12.8435 38.811C13.0567 38.825 13.258 38.8399 13.4474 38.8547C13.6369 38.8695 13.8026 38.8851 13.9447 38.8999C14.0868 38.914 14.1875 38.9296 14.2467 38.9437V38.5655C14.2467 37.7937 14.0602 37.2413 13.6872 36.9076C13.3142 36.574 12.8074 36.4071 12.168 36.4071C11.5399 36.4071 11.0425 36.5146 10.6755 36.7297C10.3084 36.9447 9.99995 37.1634 9.75189 37.3866L9.00533 36.029C9.14742 35.8807 9.31851 35.7317 9.5204 35.5841C9.72169 35.4351 9.95851 35.2986 10.2314 35.1719C10.5032 35.0458 10.8116 34.942 11.155 34.8604C11.4984 34.7789 11.8951 34.7381 12.3456 34.7381C13.4119 34.7381 14.2502 35.0606 14.86 35.7057C15.4698 36.3515 15.7753 37.268 15.7753 38.4543V44.8747C15.7753 45.0155 15.7812 45.1898 15.7931 45.3981H14.3005L14.265 44.1517Z" fill="#022535"/>
<path d="M18.494 42.7941C18.79 43.1656 19.1452 43.4615 19.5602 43.6846C19.9747 43.9063 20.4542 44.0175 20.9995 44.0175C21.5323 44.0175 21.9764 43.9108 22.3322 43.695C22.6874 43.4807 22.865 43.1426 22.865 42.6829C22.865 42.4456 22.8265 42.2417 22.7496 42.0705C22.6726 41.9007 22.5423 41.7479 22.3588 41.6145C22.1747 41.481 21.932 41.3587 21.63 41.2474C21.3281 41.1362 20.9521 41.0139 20.5022 40.8804C20.1819 40.7914 19.8645 40.6728 19.5514 40.5238C19.237 40.3755 18.9558 40.179 18.7071 39.9343C18.4584 39.6896 18.2566 39.3923 18.1026 39.0438C17.9493 38.6953 17.8717 38.2764 17.8717 37.7863C17.8717 37.2828 17.9635 36.8409 18.147 36.4628C18.3306 36.0846 18.5769 35.7658 18.8847 35.5055C19.1926 35.246 19.5389 35.0495 19.9243 34.9161C20.3092 34.7826 20.7094 34.7159 21.1238 34.7159C21.8224 34.7159 22.4239 34.8308 22.9272 35.0607C23.431 35.2905 23.8721 35.6138 24.251 36.029L23.3807 37.4081C23.132 37.1271 22.8206 36.8891 22.4476 36.6963C22.0746 36.5036 21.6389 36.4072 21.1416 36.4072C20.6318 36.4072 20.2233 36.511 19.9155 36.7186C19.607 36.9269 19.4537 37.268 19.4537 37.7425C19.4537 38.1874 19.6579 38.5174 20.0664 38.7324C20.4755 38.9474 21.0113 39.1521 21.6744 39.3448C22.0658 39.4635 22.4299 39.6006 22.7673 39.7564C23.1054 39.9121 23.4014 40.1123 23.656 40.3569C23.9106 40.6016 24.1118 40.9027 24.2599 41.2586C24.4079 41.6145 24.4819 42.0453 24.4819 42.5494C24.4819 43.0685 24.3871 43.5252 24.1977 43.9175C24.0082 44.3112 23.7537 44.6411 23.434 44.908C23.1137 45.1757 22.7466 45.3752 22.3322 45.5094C21.9172 45.6428 21.485 45.7088 21.035 45.7088C19.4714 45.7088 18.2986 45.1831 17.5165 44.1288L18.494 42.7941Z" fill="#022535"/>
<path d="M26.3296 30.5547H27.911V36.5851C28.0181 36.4071 28.1484 36.2143 28.3023 36.006C28.4562 35.7991 28.6457 35.6056 28.8707 35.4277C29.0956 35.2497 29.3567 35.1014 29.6527 34.9828C29.9488 34.8641 30.2862 34.8048 30.6657 34.8048C31.7432 34.8048 32.5431 35.1978 33.0641 35.9837C33.5857 36.7704 33.8462 37.8389 33.8462 39.1884V45.3981H32.2471V39.3448C32.2471 38.3802 32.0807 37.6721 31.7498 37.219C31.4176 36.7667 30.9499 36.5406 30.3454 36.5406C29.8836 36.5406 29.4988 36.6592 29.1904 36.8965C28.8825 37.1338 28.6368 37.4415 28.4533 37.8196C28.2691 38.1985 28.1359 38.6286 28.0531 39.1105C27.9702 39.5925 27.9287 40.0863 27.9287 40.5912V45.3981H26.3296V30.5547Z" fill="#022535"/>
<path d="M36.0675 35.0495H37.6666V45.3981H36.0675V35.0495ZM35.961 30.9551H37.7554V33.2025H35.961V30.9551Z" fill="#022535"/>
<path d="M43.9209 43.9738C44.3472 43.9738 44.7326 43.8655 45.076 43.6513C45.4194 43.4362 45.7095 43.1537 45.9469 42.8053C46.1837 42.4568 46.3643 42.0564 46.4886 41.6033C46.613 41.151 46.6751 40.6876 46.6751 40.2124C46.6751 39.7526 46.613 39.2966 46.4886 38.8436C46.3643 38.3913 46.1808 37.9872 45.938 37.6306C45.6953 37.2747 45.4046 36.9892 45.0671 36.7742C44.7297 36.5592 44.3472 36.4509 43.9209 36.4509C43.4947 36.4509 43.1093 36.5592 42.7659 36.7742C42.4225 36.9892 42.1318 37.271 41.8956 37.6195C41.6582 37.9687 41.4776 38.3691 41.3539 38.8214C41.2289 39.2737 41.1668 39.7378 41.1668 40.2124C41.1668 40.6876 41.2289 41.1473 41.3539 41.5922C41.4776 42.0378 41.6611 42.4382 41.9039 42.7941C42.1466 43.15 42.4373 43.4362 42.7748 43.6513C43.1122 43.8655 43.4947 43.9738 43.9209 43.9738ZM43.9209 45.7088C43.2815 45.7088 42.6948 45.5642 42.162 45.2751C41.6292 44.9859 41.1697 44.5892 40.7849 44.085C40.4001 43.5808 40.0975 42.998 39.8785 42.3381C39.6594 41.6775 39.5499 40.9694 39.5499 40.2124C39.5499 39.4561 39.6594 38.7472 39.8785 38.0873C40.0975 37.4274 40.4001 36.8446 40.7849 36.3404C41.1697 35.8362 41.6292 35.4388 42.162 35.1496C42.6948 34.8605 43.2815 34.7159 43.9209 34.7159C44.5485 34.7159 45.1293 34.8605 45.6621 35.1496C46.1956 35.4388 46.6574 35.8362 47.0487 36.3404C47.4394 36.8446 47.7443 37.4274 47.9634 38.0873C48.1825 38.7472 48.2926 39.4561 48.2926 40.2124C48.2926 40.9694 48.1825 41.6775 47.9634 42.3381C47.7443 42.998 47.4394 43.5808 47.0487 44.085C46.6574 44.5892 46.1956 44.9859 45.6621 45.2751C45.1293 45.5642 44.5485 45.7088 43.9209 45.7088Z" fill="#022535"/>
<path d="M50.1042 45.3981V35.7057C50.1042 35.5656 50.0983 35.3461 50.0865 35.0495H51.6145L51.6678 36.6073C51.775 36.4294 51.9052 36.2329 52.0591 36.0171C52.2131 35.8028 52.4025 35.6056 52.6281 35.4276C52.8525 35.2497 53.1165 35.1014 53.4185 34.9828C53.7204 34.8641 54.0608 34.8048 54.4403 34.8048C55.5178 34.8048 56.3177 35.1978 56.8387 35.9837C57.3603 36.7704 57.6208 37.8389 57.6208 39.1883V45.3981H56.0217V39.3448C56.0217 38.3801 55.8553 37.6721 55.5238 37.219C55.1922 36.7667 54.7245 36.5406 54.12 36.5406C53.6582 36.5406 53.2734 36.6592 52.965 36.8965C52.6571 37.1345 52.4114 37.4422 52.2279 37.8196C52.0443 38.1985 51.9105 38.6285 51.8276 39.1105C51.7454 39.5932 51.7039 40.0863 51.7039 40.5912V45.3981H50.1042Z" fill="#022535"/>
<path d="M73.3105 42.7941C73.1802 43.061 72.9789 43.365 72.7066 43.7061C72.4336 44.0479 72.1027 44.3705 71.7114 44.6737C71.3206 44.9785 70.8701 45.235 70.3609 45.4419C69.8518 45.6495 69.2887 45.754 68.673 45.754C67.7962 45.754 66.9963 45.5605 66.274 45.1757C65.5518 44.7894 64.9295 44.2518 64.4085 43.5615C63.8869 42.872 63.4814 42.0564 63.1913 41.114C62.9006 40.1716 62.7555 39.1439 62.7555 38.0317C62.7555 36.9484 62.9006 35.9326 63.1913 34.9828C63.4814 34.0337 63.8869 33.2025 64.4085 32.49C64.9295 31.7782 65.5547 31.2184 66.2829 30.8098C67.0117 30.402 67.8199 30.1981 68.7085 30.1981C69.3361 30.1981 69.8991 30.2945 70.3964 30.4873C70.8943 30.6808 71.3295 30.921 71.7025 31.211C72.076 31.5001 72.3958 31.8153 72.6622 32.1563C72.9286 32.4981 73.1447 32.8244 73.3105 33.1351L72.1027 34.4267C71.9606 34.1746 71.7913 33.9114 71.5959 33.6363C71.4005 33.3619 71.1667 33.1136 70.8943 32.8911C70.6214 32.6679 70.3076 32.4833 69.9524 32.3343C69.5972 32.186 69.1881 32.1118 68.7263 32.1118C68.0744 32.1118 67.4913 32.2683 66.9762 32.579C66.4605 32.8911 66.0224 33.3138 65.6613 33.8476C65.2995 34.3822 65.0242 35.005 64.8348 35.7168C64.6453 36.4294 64.5506 37.1857 64.5506 37.9872C64.5506 38.788 64.6483 39.5413 64.8437 40.2457C65.039 40.9508 65.3149 41.5633 65.6702 42.0823C66.0254 42.6013 66.4576 43.0091 66.9673 43.3057C67.4765 43.6023 68.0448 43.7513 68.673 43.7513C69.2058 43.7513 69.6647 43.6661 70.0501 43.4948C70.4349 43.325 70.7605 43.1204 71.0275 42.8831C71.294 42.6466 71.513 42.4048 71.6847 42.1594C71.8564 41.9147 72.002 41.7108 72.1205 41.5477L73.3105 42.7941Z" fill="#022535"/>
<path d="M78.6595 43.9738C79.0858 43.9738 79.4706 43.8655 79.8146 43.6513C80.158 43.4362 80.4481 43.1537 80.6849 42.8053C80.9223 42.4568 81.1029 42.0564 81.2272 41.6033C81.3515 41.151 81.4137 40.6876 81.4137 40.2124C81.4137 39.7526 81.3515 39.2966 81.2272 38.8436C81.1029 38.3913 80.9188 37.9872 80.6766 37.6306C80.4333 37.2747 80.1432 36.9892 79.8057 36.7742C79.4683 36.5592 79.0858 36.4509 78.6595 36.4509C78.2333 36.4509 77.8478 36.5592 77.5045 36.7742C77.1611 36.9892 76.8704 37.271 76.6342 37.6195C76.3968 37.9687 76.2162 38.3691 76.0919 38.8214C75.9675 39.2737 75.9048 39.7378 75.9048 40.2124C75.9048 40.6876 75.9675 41.1473 76.0919 41.5922C76.2162 42.0378 76.3997 42.4382 76.6425 42.7941C76.8852 43.15 77.1759 43.4362 77.5133 43.6513C77.8508 43.8655 78.2333 43.9738 78.6595 43.9738ZM78.6595 45.7088C78.0195 45.7088 77.4334 45.5642 76.9 45.2751C76.3672 44.9859 75.9083 44.5892 75.5235 44.085C75.1381 43.5808 74.8361 42.998 74.6171 42.3381C74.398 41.6775 74.2885 40.9694 74.2885 40.2124C74.2885 39.4561 74.398 38.7472 74.6171 38.0873C74.8361 37.4274 75.1381 36.8446 75.5235 36.3404C75.9083 35.8362 76.3672 35.4388 76.9 35.1496C77.4334 34.8605 78.0195 34.7159 78.6595 34.7159C79.2871 34.7159 79.8679 34.8605 80.4007 35.1496C80.9342 35.4388 81.3959 35.8362 81.7873 36.3404C82.178 36.8446 82.4829 37.4274 82.702 38.0873C82.921 38.7472 83.0306 39.4561 83.0306 40.2124C83.0306 40.9694 82.921 41.6775 82.702 42.3381C82.4829 42.998 82.178 43.5808 81.7873 44.085C81.3959 44.5892 80.9342 44.9859 80.4007 45.2751C79.8679 45.5642 79.2871 45.7088 78.6595 45.7088Z" fill="#022535"/>
<path d="M84.8428 45.3981V35.7057C84.8428 35.5656 84.8369 35.3461 84.8251 35.0495H86.3531L86.4064 36.6073C86.5011 36.4294 86.6255 36.2329 86.7794 36.0171C86.9333 35.8028 87.1174 35.6056 87.3306 35.4276C87.5437 35.2497 87.7953 35.1014 88.086 34.9828C88.3761 34.8641 88.7106 34.8048 89.0901 34.8048C89.7295 34.8048 90.2594 34.9642 90.6798 35.2831C91.1007 35.6026 91.4293 36.066 91.6667 36.674C91.9976 36.1847 92.4038 35.7502 92.8833 35.372C93.3635 34.9939 93.9585 34.8048 94.6695 34.8048C95.7352 34.8048 96.5232 35.2015 97.0329 35.9956C97.5415 36.789 97.7967 37.8537 97.7967 39.1883V45.3981H96.1976V39.3448C96.1976 38.3801 96.046 37.6721 95.7441 37.219C95.4421 36.7667 95.0011 36.5406 94.4203 36.5406C94.0887 36.5406 93.7832 36.6258 93.5056 36.7964C93.2267 36.9669 92.984 37.1938 92.7768 37.4756C92.5695 37.7566 92.4097 38.0873 92.2972 38.4654C92.1841 38.8436 92.1285 39.241 92.1285 39.6562V45.3981H90.5288V39.3448C90.5288 38.3801 90.3778 37.6721 90.0759 37.219C89.7739 36.7667 89.3382 36.5406 88.7698 36.5406C88.3311 36.5406 87.9641 36.6592 87.668 36.8965C87.372 37.1345 87.1322 37.4422 86.9481 37.8196C86.7646 38.1985 86.6343 38.6322 86.558 39.1216C86.4804 39.6117 86.4419 40.1011 86.4419 40.5912V45.3981H84.8428Z" fill="#022535"/>
<path d="M99.9464 45.3981V35.7057C99.9464 35.5656 99.9405 35.3461 99.9286 35.0495H101.457L101.511 36.6073C101.605 36.4294 101.73 36.2329 101.884 36.0171C102.037 35.8028 102.221 35.6056 102.435 35.4276C102.648 35.2497 102.899 35.1014 103.19 34.9828C103.48 34.8641 103.814 34.8048 104.194 34.8048C104.834 34.8048 105.364 34.9642 105.784 35.2831C106.204 35.6026 106.533 36.066 106.77 36.674C107.102 36.1847 107.507 35.7502 107.987 35.372C108.467 34.9939 109.063 34.8048 109.773 34.8048C110.839 34.8048 111.627 35.2015 112.137 35.9956C112.646 36.789 112.9 37.8537 112.9 39.1883V45.3981H111.301V39.3448C111.301 38.3801 111.15 37.6721 110.848 37.219C110.546 36.7667 110.105 36.5406 109.524 36.5406C109.192 36.5406 108.887 36.6258 108.609 36.7964C108.331 36.9669 108.088 37.1938 107.881 37.4756C107.673 37.7566 107.513 38.0873 107.401 38.4654C107.288 38.8436 107.232 39.241 107.232 39.6562V45.3981H105.633V39.3448C105.633 38.3801 105.482 37.6721 105.18 37.219C104.878 36.7667 104.442 36.5406 103.874 36.5406C103.435 36.5406 103.068 36.6592 102.772 36.8965C102.476 37.1345 102.236 37.4422 102.052 37.8196C101.868 38.1985 101.738 38.6322 101.662 39.1216C101.585 39.6117 101.546 40.1011 101.546 40.5912V45.3981H99.9464Z" fill="#022535"/>
<path d="M115.121 35.0495H116.721V45.3981H115.121V35.0495ZM115.015 30.9551H116.809V33.2025H115.015V30.9551Z" fill="#022535"/>
<path d="M119.528 42.7941C119.824 43.1656 120.179 43.4615 120.594 43.6846C121.008 43.9063 121.488 44.0175 122.033 44.0175C122.566 44.0175 123.011 43.9108 123.366 43.695C123.722 43.4807 123.899 43.1426 123.899 42.6829C123.899 42.4456 123.86 42.2417 123.784 42.0705C123.706 41.9007 123.576 41.7479 123.392 41.6145C123.209 41.481 122.966 41.3587 122.664 41.2474C122.362 41.1362 121.986 41.0139 121.536 40.8804C121.216 40.7914 120.899 40.6728 120.585 40.5238C120.271 40.3755 119.99 40.179 119.741 39.9343C119.492 39.6896 119.291 39.3923 119.137 39.0438C118.983 38.6953 118.906 38.2764 118.906 37.7863C118.906 37.2828 118.998 36.8409 119.181 36.4628C119.365 36.0846 119.61 35.7658 119.919 35.5055C120.226 35.246 120.573 35.0495 120.959 34.9161C121.343 34.7826 121.742 34.7159 122.157 34.7159C122.857 34.7159 123.457 34.8308 123.961 35.0607C124.465 35.2905 124.906 35.6138 125.285 36.029L124.414 37.4081C124.165 37.1271 123.854 36.8891 123.481 36.6963C123.108 36.5036 122.673 36.4072 122.175 36.4072C121.666 36.4072 121.257 36.511 120.949 36.7186C120.641 36.9269 120.487 37.268 120.487 37.7425C120.487 38.1874 120.691 38.5174 121.101 38.7324C121.509 38.9474 122.045 39.1521 122.709 39.3448C123.099 39.4635 123.464 39.6006 123.801 39.7564C124.138 39.9121 124.435 40.1123 124.69 40.3569C124.944 40.6016 125.146 40.9027 125.294 41.2586C125.442 41.6145 125.516 42.0453 125.516 42.5494C125.516 43.0685 125.421 43.5252 125.232 43.9175C125.042 44.3112 124.787 44.6411 124.468 44.908C124.148 45.1757 123.78 45.3752 123.366 45.5094C122.951 45.6428 122.519 45.7088 122.069 45.7088C120.505 45.7088 119.333 45.1831 118.55 44.1288L119.528 42.7941Z" fill="#022535"/>
<path d="M127.914 42.7941C128.21 43.1656 128.566 43.4615 128.981 43.6846C129.395 43.9063 129.875 44.0175 130.42 44.0175C130.953 44.0175 131.397 43.9108 131.753 43.695C132.108 43.4807 132.285 43.1426 132.285 42.6829C132.285 42.4456 132.247 42.2417 132.171 42.0705C132.093 41.9007 131.963 41.7479 131.779 41.6145C131.596 41.481 131.353 41.3587 131.051 41.2474C130.749 41.1362 130.372 41.0139 129.923 40.8804C129.603 40.7914 129.286 40.6728 128.972 40.5238C128.658 40.3755 128.377 40.179 128.128 39.9343C127.879 39.6896 127.678 39.3923 127.524 39.0438C127.37 38.6953 127.293 38.2764 127.293 37.7863C127.293 37.2828 127.384 36.8409 127.567 36.4628C127.752 36.0846 127.997 35.7658 128.305 35.5055C128.613 35.246 128.96 35.0495 129.345 34.9161C129.73 34.7826 130.129 34.7159 130.544 34.7159C131.243 34.7159 131.844 34.8308 132.348 35.0607C132.851 35.2905 133.293 35.6138 133.672 36.029L132.801 37.4081C132.552 37.1271 132.241 36.8891 131.868 36.6963C131.495 36.5036 131.06 36.4072 130.562 36.4072C130.053 36.4072 129.644 36.511 129.336 36.7186C129.028 36.9269 128.874 37.268 128.874 37.7425C128.874 38.1874 129.078 38.5174 129.487 38.7324C129.896 38.9474 130.432 39.1521 131.095 39.3448C131.486 39.4635 131.85 39.6006 132.188 39.7564C132.525 39.9121 132.822 40.1123 133.077 40.3569C133.331 40.6016 133.532 40.9027 133.68 41.2586C133.829 41.6145 133.903 42.0453 133.903 42.5494C133.903 43.0685 133.808 43.5252 133.619 43.9175C133.429 44.3112 133.174 44.6411 132.854 44.908C132.535 45.1757 132.167 45.3752 131.753 45.5094C131.338 45.6428 130.905 45.7088 130.455 45.7088C128.892 45.7088 127.719 45.1831 126.937 44.1288L127.914 42.7941Z" fill="#022535"/>
<path d="M135.839 35.0495H137.438V45.3981H135.839V35.0495ZM135.732 30.9551H137.527V33.2025H135.732V30.9551Z" fill="#022535"/>
<path d="M143.692 43.9738C144.119 43.9738 144.504 43.8655 144.848 43.6513C145.191 43.4362 145.481 43.1537 145.719 42.8053C145.955 42.4568 146.136 42.0564 146.261 41.6033C146.385 41.151 146.447 40.6876 146.447 40.2124C146.447 39.7526 146.385 39.2966 146.261 38.8436C146.136 38.3913 145.952 37.9872 145.709 37.6306C145.467 37.2747 145.177 36.9892 144.839 36.7742C144.502 36.5592 144.119 36.4509 143.692 36.4509C143.266 36.4509 142.881 36.5592 142.538 36.7742C142.194 36.9892 141.904 37.271 141.667 37.6195C141.43 37.9687 141.25 38.3691 141.125 38.8214C141.001 39.2737 140.939 39.7378 140.939 40.2124C140.939 40.6876 141.001 41.1473 141.125 41.5922C141.25 42.0378 141.433 42.4382 141.676 42.7941C141.919 43.15 142.209 43.4362 142.547 43.6513C142.884 43.8655 143.266 43.9738 143.692 43.9738ZM143.692 45.7088C143.053 45.7088 142.466 45.5642 141.934 45.2751C141.4 44.9859 140.942 44.5892 140.556 44.085C140.171 43.5808 139.869 42.998 139.65 42.3381C139.431 41.6775 139.321 40.9694 139.321 40.2124C139.321 39.4561 139.431 38.7472 139.65 38.0873C139.869 37.4274 140.171 36.8446 140.556 36.3404C140.942 35.8362 141.4 35.4388 141.934 35.1496C142.466 34.8605 143.053 34.7159 143.692 34.7159C144.32 34.7159 144.901 34.8605 145.434 35.1496C145.967 35.4388 146.429 35.8362 146.82 36.3404C147.211 36.8446 147.516 37.4274 147.735 38.0873C147.954 38.7472 148.064 39.4561 148.064 40.2124C148.064 40.9694 147.954 41.6775 147.735 42.3381C147.516 42.998 147.211 43.5808 146.82 44.085C146.429 44.5892 145.967 44.9859 145.434 45.2751C144.901 45.5642 144.32 45.7088 143.692 45.7088Z" fill="#022535"/>
<path d="M149.877 45.3981V35.7057C149.877 35.5656 149.871 35.3461 149.859 35.0495H151.387L151.44 36.6073C151.547 36.4294 151.677 36.2329 151.831 36.0171C151.985 35.8028 152.174 35.6056 152.399 35.4276C152.624 35.2497 152.888 35.1014 153.19 34.9828C153.493 34.8641 153.833 34.8048 154.212 34.8048C155.29 34.8048 156.09 35.1978 156.611 35.9837C157.132 36.7704 157.393 37.8389 157.393 39.1883V45.3981H155.793V39.3448C155.793 38.3801 155.628 37.6721 155.296 37.219C154.964 36.7667 154.496 36.5406 153.893 36.5406C153.43 36.5406 153.045 36.6592 152.737 36.8965C152.429 37.1345 152.183 37.4422 152 37.8196C151.816 38.1985 151.682 38.6285 151.6 39.1105C151.517 39.5932 151.476 40.0863 151.476 40.5912V45.3981H149.877Z" fill="#022535"/>
</svg>
