<svg width="228" height="70" viewBox="0 0 228 70" fill="none" xmlns="http://www.w3.org/2000/svg">
<path fill-rule="evenodd" clip-rule="evenodd" d="M14.7913 40.7715V45.7517C14.7913 47.3138 15.6791 48.1793 17.0166 48.1793C18.3546 48.1793 19.2419 47.3138 19.2419 45.7517V40.7715H20.0968V45.729C20.0968 47.7453 18.8372 48.9998 17.0166 48.9998C15.1965 48.9998 13.9384 47.7453 13.9384 45.729V40.7715C13.9379 40.7715 14.7913 40.7715 14.7913 40.7715ZM86.6304 40.6344C88.9346 40.6344 90.7547 42.4581 90.7547 44.8169C90.7547 47.1767 88.9346 49.0004 86.6304 49.0004C84.3283 49.0004 82.5072 47.1767 82.5072 44.8169C82.5072 42.4581 84.3273 40.6344 86.6304 40.6344ZM125.009 40.6344C126.594 40.6344 127.324 41.7291 127.437 42.7429H126.583C126.37 41.8429 125.683 41.4555 124.976 41.4555C124.156 41.4555 123.516 41.9229 123.516 42.6629C123.516 43.404 123.899 43.7576 124.706 44.0773L125.763 44.4856C126.954 44.9545 127.618 45.6263 127.618 46.8226C127.618 48.1778 126.573 48.9998 125.146 48.9998C123.55 48.9998 122.504 48.0079 122.471 46.7999H123.325C123.415 47.7575 124.37 48.1788 125.133 48.1788C126.033 48.1788 126.763 47.6775 126.763 46.8459C126.763 46.1387 126.337 45.6602 125.606 45.3749L124.425 44.9186C123.19 44.4405 122.661 43.7794 122.661 42.6746C122.661 41.3973 123.674 40.6329 125.009 40.6329L125.009 40.6344ZM37.77 40.6344C39.3538 40.6344 40.0853 41.7291 40.1966 42.7429H39.3427C39.1297 41.8429 38.4433 41.4555 37.7361 41.4555C36.9161 41.4555 36.2747 41.9229 36.2747 42.6629C36.2747 43.404 36.6571 43.7576 37.4665 44.0773L38.5222 44.4856C39.7125 44.9545 40.3762 45.6263 40.3762 46.8226C40.3762 48.1778 39.3321 48.9998 37.9045 48.9998C36.3086 48.9998 35.2635 48.0079 35.2296 46.7999H36.0835C36.173 47.7575 37.1286 48.1788 37.8924 48.1788C38.7918 48.1788 39.5223 47.6775 39.5223 46.8459C39.5223 46.1387 39.0958 45.6602 38.3644 45.3749L37.1852 44.9186C35.9489 44.4405 35.4208 43.7794 35.4208 42.6746C35.4208 41.3973 36.432 40.6329 37.769 40.6329L37.77 40.6344ZM118.276 40.6344C119.861 40.6344 120.591 41.7291 120.703 42.7429H119.849C119.636 41.8429 118.949 41.4555 118.242 41.4555C117.422 41.4555 116.783 41.9229 116.783 42.6629C116.783 43.404 117.163 43.7576 117.973 44.0773L119.029 44.4856C120.221 44.9545 120.884 45.6263 120.884 46.8226C120.884 48.1778 119.839 48.9998 118.411 48.9998C116.815 48.9998 115.77 48.0079 115.736 46.7999H116.591C116.682 47.7575 117.635 48.1788 118.401 48.1788C119.299 48.1788 120.029 47.6775 120.029 46.8459C120.029 46.1387 119.603 45.6602 118.873 45.3749L117.692 44.9186C116.457 44.4405 115.928 43.7794 115.928 42.6746C115.928 41.3973 116.938 40.6329 118.276 40.6329V40.6344H118.276ZM135.224 40.6344C137.528 40.6344 139.348 42.4581 139.348 44.8169C139.348 47.1767 137.528 49.0004 135.224 49.0004C132.92 49.0004 131.1 47.1767 131.1 44.8169C131.1 42.4581 132.92 40.6344 135.224 40.6344ZM77.5857 40.6344C79.6658 40.6344 81.0812 42.0245 81.3963 43.4167H80.4969C80.1494 42.3326 79.0476 41.456 77.5862 41.456C75.7322 41.456 74.3279 42.926 74.3279 44.8184C74.3279 46.7098 75.7322 48.1798 77.5862 48.1798C79.0476 48.1798 80.1494 47.3022 80.4969 46.2196H81.3963C81.0812 47.6097 79.6658 49.0009 77.5867 49.0009C75.2835 49.0009 73.4634 47.1772 73.4634 44.8174C73.4634 42.4586 75.2835 40.635 77.5867 40.635H77.5857V40.6344ZM59.5771 40.6344C61.6562 40.6344 63.0716 42.0245 63.3862 43.4167H62.4868C62.1393 42.3326 61.0385 41.456 59.5761 41.456C57.7221 41.456 56.3178 42.926 56.3178 44.8184C56.3178 46.7098 57.7221 48.1798 59.5761 48.1798C61.0385 48.1798 62.1393 47.3022 62.4868 46.2196H63.3862C63.0716 47.6097 61.6572 49.0009 59.5771 49.0009C57.2749 49.0009 55.4538 47.1772 55.4538 44.8174C55.4533 42.4581 57.2734 40.6344 59.5771 40.6344ZM2.5384 40.6344C4.12326 40.6344 4.85372 41.7291 4.96602 42.7429H4.11264C3.89815 41.8429 3.21322 41.4555 2.50552 41.4555C1.68552 41.4555 1.04511 41.9229 1.04511 42.6629C1.04511 43.404 1.42652 43.7576 2.23539 44.0773L3.29213 44.4856C4.48343 44.9545 5.14611 45.6263 5.14611 46.8226C5.14611 48.1778 4.101 48.9998 2.67347 48.9998C1.07849 48.9998 0.0328809 48.0079 0 46.7999H0.853385C0.943934 47.7575 1.89849 48.1788 2.66335 48.1788C3.56277 48.1788 4.29222 47.6775 4.29222 46.8459C4.29222 46.1387 3.86628 45.6602 3.13481 45.3749L1.95515 44.9186C0.719839 44.4405 0.191215 43.7794 0.191215 42.6746C0.191215 41.3973 1.20142 40.6329 2.53941 40.6329L2.5384 40.6344ZM93.1161 40.7715L96.1952 44.9317L99.2734 40.7715H100.061V48.8628H99.2066V42.2648L96.1952 46.3324L93.1828 42.2648V48.8628H92.329V40.7715H93.1161ZM23.8184 40.7715C26.3259 40.7715 28.1121 42.4813 28.1121 44.8169C28.1121 47.154 26.3259 48.8633 23.8194 48.8633H21.6397V40.772H23.8194L23.8184 40.7715ZM44.4008 40.7715C46.0757 40.7715 47.1203 41.8662 47.1203 43.3013C47.1203 44.7263 46.0762 45.821 44.4008 45.821H42.8847V48.8628H42.0298V40.7715H44.4018H44.4008ZM69.4687 40.7715V41.5925H65.7718V44.2928H68.7943V45.1138H65.7708V48.0428H69.4687V48.8628H64.9179V40.7715C64.9174 40.7715 69.4687 40.7715 69.4687 40.7715ZM30.5883 40.7715V48.8628H29.7344V40.7715H30.5883ZM129.874 40.7715V48.8628H129.02V40.7715H129.874ZM9.90068 40.7715L13.4629 48.8628H12.5645L9.55214 41.9902L6.54076 48.8628H5.66411L9.21524 40.7715H9.90169H9.90068ZM141.756 40.7715L146.847 47.3927V40.7715H147.701V48.8628H146.949L141.857 42.2421V48.8628H141.003V40.7715H141.756ZM103.703 40.7715L106.782 44.9317L109.861 40.7715H110.647V48.8628H109.793V42.2648L106.782 46.3324L103.77 42.2648V48.8628H102.917V40.7715H103.703ZM51.4601 40.7715L55.0233 48.8628H54.1239L51.1125 41.9902L48.1012 48.8628H47.2235L50.7751 40.7715H51.4601ZM113.508 40.7715V48.8628H112.654V40.7715H113.508ZM135.224 41.4555C133.369 41.4555 131.966 42.9255 131.966 44.8179C131.966 46.7093 133.369 48.1793 135.224 48.1793C137.078 48.1793 138.482 46.7093 138.482 44.8169C138.482 42.9255 137.078 41.4544 135.224 41.4544V41.4555ZM86.6304 41.4555C84.7755 41.4555 83.3722 42.9255 83.3722 44.8179C83.3722 46.7093 84.7755 48.1793 86.6304 48.1793C88.4844 48.1793 89.8902 46.7093 89.8902 44.8169C89.8902 42.9255 88.4844 41.4544 86.6304 41.4544V41.4555ZM23.8194 41.5925H22.4925V48.0428H23.8194C25.8874 48.0428 27.2471 46.6865 27.2471 44.8169C27.2466 42.9493 25.8874 41.5925 23.8194 41.5925ZM44.4018 41.5804H42.8847V45.0106H44.4008C45.6154 45.0106 46.2558 44.2706 46.2558 43.3018C46.2558 42.322 45.6154 41.5809 44.4008 41.5809L44.4018 41.5804ZM56.8819 34.464V35.3174H52.362V34.464H56.8819ZM102.223 22.3335V31.5108H91.8494C90.95 31.5108 90.4158 31.1865 90.1841 30.494C89.8958 31.1693 89.2978 31.5108 88.404 31.5108H85.7229C84.8306 31.5108 83.9332 31.1344 83.0555 30.3933C81.7818 31.1344 80.243 31.5108 78.4836 31.5108H74.8465V31.8634C74.8465 32.6904 74.5773 33.3855 74.0452 33.9293C73.3936 34.5894 72.4118 34.9248 71.1284 34.9248C70.4379 34.9248 69.7226 34.8464 69.0058 34.6936L68.9547 34.683L69.0296 33.8124L69.0964 33.8281C69.8774 34.0229 70.6003 34.1225 71.2447 34.1225C73.0269 34.1225 73.8929 33.383 73.8929 31.8634V31.5098H72.4117C70.0858 31.5098 68.9067 30.4262 68.9067 28.29C68.9067 27.343 69.1849 26.5508 69.7312 25.9397C70.3317 25.2715 71.1638 24.9336 72.2028 24.9336C73.1245 24.9336 74.0012 25.0945 74.8075 25.4116L74.8459 25.4253V30.706H78.5923C80.0598 30.706 81.3553 30.409 82.4429 29.8197C81.0083 28.4306 79.8732 27.5757 79.0527 27.2929L79.1326 26.6424C80.5758 25.4921 81.9007 24.9073 83.0353 24.9073C83.8366 24.9073 84.4603 25.1203 84.8893 25.5416C85.2697 25.9155 85.4644 26.4011 85.4644 26.9838C85.4644 28.0254 84.9004 28.9977 83.79 29.8738C84.4745 30.4272 85.1741 30.706 85.8707 30.706H88.4025C88.8992 30.706 89.2609 30.5704 89.4774 30.3018C89.7086 30.0074 89.8265 29.5025 89.8265 28.8024V25.8684H90.7916V28.2768C90.7916 29.1899 90.8422 29.7914 90.9378 30.063C91.0906 30.4965 91.4331 30.706 91.984 30.706H93.8668C93.8713 30.1257 93.8754 29.074 93.8764 28.6097V25.8684H94.7363V28.383C94.7363 28.4706 94.7399 29.9694 94.7439 30.7065H97.5909V25.8689H98.4493V30.7065H101.256V22.3325H102.221L102.223 22.3335ZM127.906 34.0087V34.8621H123.386V34.0087H127.906ZM8.2536 22.3335V30.7075H14.0922V25.0651H15.0564V25.8679L20.5298 25.8704C22.7611 25.9139 24.5003 27.7052 24.5003 29.9775V30.7075H27.324C26.6224 30.0928 26.2207 29.2051 26.2222 28.2723C26.2222 26.4957 27.6472 25.0489 29.4005 25.0489C31.1549 25.0489 32.5804 26.4957 32.5804 28.2723C32.5814 29.2051 32.1797 30.0928 31.4776 30.7075H35.1947V22.3335H36.1588V30.7075H40.1895V22.3335H41.1537V31.5108H7.28893V22.3335H8.2536ZM63.3781 24.841C64.9124 25.3519 65.957 26.0637 66.5918 26.9768C67.2434 27.9202 67.5737 29.2521 67.5737 30.9386V31.5113H60.001V30.7075H66.6212C66.609 29.3406 66.3429 28.2637 65.829 27.5049C65.2983 26.7274 64.3903 26.1006 63.1095 25.6762L63.3781 24.841ZM105.904 22.3335V31.5108H104.937V22.3335H105.904ZM52.4005 24.9356V30.708H56.7706V25.0656H57.7368V31.5113H46.6746V29.978C46.6746 27.7087 48.4315 25.8684 50.7271 25.8684H51.4343V24.9351H52.4005V24.9356ZM147.607 22.3345V31.5118H146.641V22.3335H147.606L147.607 22.3345ZM3.53393 27.4902C4.28311 27.4902 4.6878 27.5944 4.6878 27.5944L4.58106 28.4144C4.58106 28.4144 3.96088 28.2798 3.39179 28.2798C2.46809 28.2798 2.01889 28.6577 2.01889 29.4347C2.01889 30.3008 2.6507 30.7075 3.94874 30.7075H5.21288V31.5113H0.0834673V30.7075C0.0834673 30.7075 1.1999 30.7338 1.68148 30.757C1.26465 30.5031 1.05522 30.0767 1.05522 29.4878C1.05522 28.943 1.24897 28.4842 1.63038 28.1235C2.07099 27.7032 2.71292 27.4892 3.53596 27.4892L3.53393 27.4902ZM143.924 22.3335V31.5108H111.444V29.9775C111.444 27.7082 113.201 25.8679 115.497 25.8679H116.204V24.9356H117.17V30.708H122.17V25.0656H123.136V30.708H127.967V25.0656H128.933V30.708H133.014C132.94 30.6316 132.873 30.5486 132.814 30.4606C132.595 30.1439 132.481 29.7671 132.487 29.3826C132.487 28.6805 132.718 28.1175 133.175 27.7092C133.616 27.3157 134.209 27.1159 134.936 27.1159C136.487 27.1159 137.275 28.1134 137.275 30.0797V30.7085H139.055V30.4146C139.055 28.6107 138.715 27.2939 138.045 26.4987C137.407 25.7465 136.374 25.3651 134.974 25.3651C133.456 25.3651 132.116 25.8431 132.116 25.8431L132.001 25.0595C132.001 25.0595 133.365 24.5754 135.104 24.5754C136.719 24.5754 137.941 25.0211 138.736 25.9023C139.579 26.8371 140.006 28.3239 140.006 30.323V30.709H142.957V22.335H143.924V22.3335ZM134.864 27.8782C134.407 27.8782 134.048 28.0026 133.797 28.2485C133.551 28.4898 133.427 28.8252 133.427 29.244C133.427 29.7357 133.584 30.1131 133.896 30.365C134.174 30.5926 134.549 30.708 135.012 30.708H136.345V30.1571C136.346 28.6238 135.861 27.8782 134.864 27.8782ZM72.0926 25.7374C71.4228 25.7374 70.8851 25.9605 70.4915 26.4001C70.099 26.8422 69.8981 27.4452 69.8981 28.1923C69.8981 29.0558 70.1065 29.6952 70.5148 30.0944C70.9336 30.5021 71.6216 30.707 72.559 30.707H73.8924V26.0703C73.4118 25.8497 72.8063 25.7374 72.0926 25.7374ZM51.4343 26.7688H50.7852C49.0582 26.7688 47.6504 28.0502 47.6504 29.9173V30.707H51.4343V26.7688ZM116.183 26.7688H115.535C113.806 26.7688 112.399 28.0502 112.399 29.9173V30.707H116.183V26.7688ZM20.3907 26.7688H15.0574V30.7075H23.5265V29.9168C23.5265 27.9885 22.0701 26.7688 20.3907 26.7688ZM29.4016 25.8507C28.0853 25.8507 27.0139 26.9368 27.0139 28.2723C27.0139 29.6087 28.0853 30.6943 29.4016 30.6943C30.7188 30.6943 31.7907 29.6082 31.7907 28.2723C31.7907 26.9363 30.7188 25.8507 29.4016 25.8507ZM82.9387 25.6984C82.1591 25.6984 81.2061 26.0991 80.1064 26.8923C80.7458 27.1816 81.7808 28.0042 83.183 29.3442C84.0657 28.6754 84.5124 27.9212 84.5124 27.1027C84.5124 26.697 84.389 26.3667 84.1477 26.1208C83.875 25.8401 83.4683 25.6984 82.9382 25.6984H82.9387ZM122.899 21.1978C123.078 21.1978 123.303 21.216 123.568 21.2499L123.629 21.2585L123.519 21.9561L123.462 21.9475C123.253 21.9126 123.043 21.8954 122.836 21.8954C122.34 21.8954 122.097 22.078 122.097 22.4534C122.097 22.8722 122.439 23.0761 123.14 23.0761H123.885V23.7747H120.705V23.0761H120.763C121.055 23.0761 121.315 23.0882 121.544 23.1115C121.381 22.9638 121.3 22.7533 121.3 22.4792C121.3 22.1316 121.424 21.8362 121.668 21.6015C121.955 21.3344 122.369 21.1978 122.899 21.1978ZM51.3953 22.2632V23.1165H47.5047V22.2632H51.3953ZM115.739 22.2632V23.1165H111.848V22.2632H115.739ZM30.0177 22.2632V23.1165H28.7864V22.2632H30.0177ZM19.4063 22.2632V23.1165H18.176V22.2632H19.4063Z" fill="#474B55"/>
<path fill-rule="evenodd" clip-rule="evenodd" d="M192.353 41.1272C192.561 41.1464 192.714 41.332 192.696 41.54L190.063 69.5094C190.045 69.7042 189.881 69.8524 189.686 69.8524L189.651 69.8499C189.443 69.8312 189.289 69.647 189.308 69.4386V69.4381L191.941 41.4686C191.96 41.2607 192.145 41.1079 192.353 41.1272ZM193.93 42.6372C194.137 42.6093 194.327 42.7545 194.356 42.9614L197.898 69.2626C197.929 69.4695 197.787 69.6627 197.58 69.6941C197.373 69.7254 197.18 69.5833 197.149 69.3764C197.148 69.3723 197.148 69.3683 197.147 69.3642L193.604 43.0621C193.576 42.8547 193.722 42.664 193.929 42.6367H193.93V42.6372ZM195.481 46.7518C195.685 46.7043 195.888 46.8307 195.936 47.0341L200.994 68.6636C201.04 68.8685 200.912 69.0724 200.707 69.1189C200.679 69.125 200.652 69.1285 200.623 69.1285C200.448 69.128 200.296 69.0071 200.255 68.8366L195.198 47.2071C195.151 47.0037 195.277 46.7999 195.481 46.7518ZM189.752 51.7103C189.958 51.7477 190.094 51.944 190.057 52.1493C190.057 52.1498 190.057 52.1509 190.056 52.1514L187.035 68.5994C186.999 68.8048 186.802 68.9413 186.596 68.9044C186.596 68.9044 186.596 68.9044 186.595 68.9044C186.389 68.866 186.253 68.6692 186.29 68.4628L189.31 52.0143C189.348 51.8084 189.546 51.6723 189.751 51.7103C189.751 51.7103 189.752 51.7103 189.752 51.7103ZM187.977 50.9899C188.034 50.7886 188.243 50.6707 188.444 50.7274C188.646 50.784 188.763 50.9935 188.707 51.1948L183.866 68.4289C183.81 68.6297 183.601 68.7476 183.4 68.6915C183.4 68.6915 183.4 68.6915 183.399 68.6909C183.198 68.6343 183.08 68.4254 183.137 68.224V68.2235L187.977 50.9899ZM200.71 53.5394C200.902 53.455 201.125 53.5405 201.211 53.7307L206.954 66.6275C207.039 66.8188 206.953 67.0423 206.762 67.1273C206.571 67.2123 206.347 67.1268 206.262 66.9356L200.518 54.0397C200.433 53.8485 200.519 53.6249 200.709 53.5394H200.71ZM186.46 47.3108C186.552 47.1236 186.779 47.0462 186.966 47.1388C187.153 47.2314 187.231 47.458 187.138 47.6452L177.96 66.234C177.873 66.4242 177.648 66.5082 177.458 66.4212C177.268 66.3341 177.184 66.1095 177.271 65.9193C177.274 65.9128 177.277 65.9062 177.28 65.8996L186.46 47.3108ZM186.301 45.1943C186.422 45.0228 186.659 44.9818 186.83 45.1027C186.986 45.213 187.036 45.4224 186.946 45.5914L175.189 64.7387C175.079 64.9167 174.846 64.9724 174.667 64.8631C174.49 64.7533 174.433 64.5206 174.542 64.3416L186.301 45.1943ZM196.156 40.3198C196.329 40.202 196.564 40.2465 196.681 40.419C196.682 40.4195 196.682 40.42 196.682 40.421L212.432 63.5423C212.549 63.7163 212.503 63.9521 212.329 64.0694C212.267 64.1114 212.194 64.1337 212.119 64.1342C211.994 64.1347 211.876 64.0725 211.805 63.9693L196.054 40.8469C195.938 40.6734 195.983 40.4377 196.156 40.3198ZM185.047 54.4409C185.122 54.2456 185.341 54.148 185.537 54.2234C185.732 54.2982 185.829 54.5178 185.754 54.713L182.337 63.6238C182.262 63.8195 182.042 63.9177 181.846 63.8428C181.651 63.7669 181.554 63.5479 181.629 63.3526L185.047 54.4409ZM201.75 51.5408C201.932 51.4391 202.162 51.5034 202.264 51.685C202.264 51.686 202.265 51.687 202.266 51.6885L208.647 63.1917C208.747 63.3764 208.679 63.6076 208.495 63.7077C208.44 63.7376 208.379 63.7532 208.316 63.7537C208.179 63.7543 208.051 63.6794 207.985 63.559L201.604 52.0558C201.502 51.8741 201.566 51.6445 201.748 51.5423C201.749 51.5418 201.75 51.5413 201.751 51.5403H201.75V51.5408ZM198.124 51.341C198.322 51.2747 198.537 51.3815 198.603 51.5798L202.415 62.9677C202.481 63.166 202.375 63.3809 202.176 63.4472C201.978 63.5135 201.763 63.4067 201.697 63.2084L197.885 51.8205C197.818 51.6217 197.926 51.4067 198.124 51.34V51.341ZM188.344 40.6977C188.471 40.5313 188.707 40.4979 188.875 40.6223C189.042 40.7473 189.075 40.9855 188.95 41.1525L172.567 62.999C172.442 63.166 172.206 63.2003 172.038 63.0754C172.038 63.0754 172.038 63.0749 172.037 63.0749C171.87 62.9494 171.836 62.7127 171.961 62.5448L188.344 40.6977ZM197.684 40.9471C197.846 40.8156 198.084 40.8404 198.216 41.0022C198.216 41.0027 198.216 41.0032 198.217 41.0032L214.937 61.6433C215.069 61.8062 215.044 62.045 214.881 62.177C214.718 62.309 214.479 62.2842 214.347 62.1213L197.627 41.4798C197.495 41.3169 197.52 41.0786 197.683 40.9471H197.684ZM186.279 41.9714C186.419 41.8162 186.659 41.8035 186.814 41.9431C186.969 42.0827 186.982 42.3225 186.842 42.4778L170.121 61.0272C169.981 61.183 169.743 61.1961 169.587 61.057C169.586 61.0565 169.586 61.056 169.585 61.0555C169.43 60.9164 169.417 60.6771 169.556 60.5218C169.556 60.5213 169.557 60.5208 169.557 60.5203L186.279 41.9714ZM198.497 40.4731C198.648 40.3289 198.888 40.334 199.033 40.4842L217.257 59.5288C217.39 59.6912 217.366 59.9305 217.203 60.063C217.059 60.1814 216.849 60.1768 216.71 60.0519L198.484 41.0088C198.34 40.857 198.345 40.6183 198.495 40.4726L198.497 40.4731ZM187.273 39.8726C187.427 39.731 187.666 39.7406 187.808 39.8939C187.95 40.0477 187.94 40.2869 187.787 40.4286L167.863 58.8479C167.709 58.9901 167.469 58.9805 167.326 58.8267L167.326 58.8262C167.184 58.6724 167.194 58.4326 167.347 58.291L187.273 39.8726ZM203.277 44.135C203.412 43.9752 203.651 43.9544 203.811 44.0895L203.811 44.09L217.806 55.8897C217.966 56.0252 217.985 56.265 217.85 56.4249C217.778 56.5093 217.673 56.5584 217.562 56.5589C217.472 56.5589 217.386 56.5271 217.318 56.4684L203.323 44.6697C203.163 44.5341 203.142 44.2954 203.277 44.135ZM178.495 45.7699C178.66 45.6425 178.898 45.6728 179.026 45.8388C179.153 46.0042 179.123 46.2419 178.957 46.3694L166.769 55.7339C166.604 55.8618 166.368 55.832 166.24 55.6676C166.239 55.6666 166.238 55.6656 166.237 55.6641C166.11 55.4981 166.141 55.2599 166.306 55.1324L178.495 45.7699ZM177.485 44.481C177.669 44.3814 177.9 44.4502 177.999 44.6343C178.089 44.8012 178.043 45.0091 177.889 45.1214L165.12 53.199C164.945 53.3113 164.711 53.2597 164.599 53.0842C164.599 53.0832 164.598 53.0816 164.597 53.0806C164.485 52.9046 164.536 52.6709 164.712 52.5586C164.713 52.5581 164.713 52.5576 164.714 52.5576L177.485 44.481ZM208.58 46.2525C208.701 46.0811 208.938 46.0406 209.109 46.1615L217.261 51.9131C217.432 52.034 217.472 52.2702 217.351 52.4407C217.23 52.6117 216.994 52.6522 216.823 52.5313L208.671 46.7807C208.501 46.6598 208.46 46.4235 208.58 46.2525ZM211.641 46.0527C211.744 45.8706 211.975 45.8069 212.157 45.9101C212.157 45.9101 212.158 45.9101 212.158 45.9106L220.751 50.7962C220.934 50.9004 220.998 51.1315 220.893 51.3121C220.792 51.4932 220.564 51.559 220.383 51.4583C220.381 51.4573 220.379 51.4563 220.378 51.4553L211.783 46.5692C211.601 46.4665 211.537 46.2359 211.64 46.0542C211.64 46.0532 211.641 46.0527 211.641 46.0527ZM176.228 43.2836C176.414 43.1885 176.643 43.2629 176.737 43.4491C176.832 43.6352 176.758 43.8639 176.572 43.9585L164.081 50.3424C163.894 50.4375 163.666 50.3632 163.571 50.177C163.476 49.9908 163.55 49.7627 163.737 49.6676L176.228 43.2836ZM179.212 40.3704C179.411 40.3041 179.626 40.4119 179.692 40.6107C179.753 40.7938 179.667 40.9936 179.492 41.0751L161.069 48.3524C160.876 48.4303 160.657 48.3372 160.579 48.1445C160.578 48.1429 160.577 48.1409 160.577 48.1394C160.5 47.9441 160.596 47.7236 160.79 47.6467L179.212 40.3704ZM209.512 42.9361C209.599 42.7449 209.824 42.6609 210.014 42.7469L220.443 47.457C220.628 47.5561 220.697 47.7863 220.598 47.9709C220.508 48.1379 220.309 48.2133 220.132 48.1475L209.702 43.4384C209.511 43.3519 209.425 43.1273 209.512 42.9361ZM203.773 39.2696C203.84 39.0719 204.055 38.9656 204.253 39.0324L225.328 46.2313C225.527 46.3001 225.633 46.5156 225.565 46.7134C225.496 46.9107 225.281 47.0159 225.083 46.9486L204.009 39.7497C203.811 39.6819 203.706 39.4664 203.773 39.2681V39.2696ZM183.833 37.4981C184.034 37.4379 184.245 37.5523 184.305 37.7526C184.366 37.9534 184.251 38.1644 184.051 38.2246H184.049L160.006 45.3895C159.807 45.4497 159.597 45.3369 159.536 45.1376C159.536 45.1366 159.536 45.1356 159.535 45.1346C159.475 44.9343 159.589 44.7228 159.789 44.6631H159.79L183.833 37.4981ZM209.959 39.513L210.027 39.5251L224.154 43.4521C224.359 43.4946 224.491 43.6954 224.449 43.9008C224.406 44.1062 224.205 44.2382 224 44.1957C223.983 44.1922 223.967 44.1876 223.951 44.1821L209.823 40.2551C209.622 40.2004 209.502 39.992 209.557 39.7902C209.612 39.5884 209.82 39.469 210.022 39.5241C210.024 39.5246 210.025 39.5251 210.027 39.5256L209.959 39.513ZM206.962 37.7769L226.672 41.7195C226.877 41.761 227.01 41.9608 226.968 42.1662C226.927 42.3716 226.727 42.5046 226.522 42.4632L206.814 38.5185C206.609 38.477 206.476 38.2782 206.516 38.0728C206.557 37.8679 206.755 37.7354 206.96 37.7764C206.961 37.7764 206.962 37.7769 206.962 37.7769ZM186.16 36.06C186.364 36.0129 186.567 36.1404 186.614 36.3443C186.661 36.5481 186.534 36.7515 186.33 36.7985C186.324 36.8001 186.318 36.8011 186.312 36.8021L159.224 42.3407C159.016 42.368 158.825 42.2213 158.798 42.0134C158.774 41.8263 158.89 41.6497 159.072 41.5986L186.16 36.06ZM205.787 36.4035L205.856 36.4045L227.112 38.612C227.32 38.6318 227.472 38.8169 227.453 39.0253C227.434 39.2206 227.269 39.3688 227.074 39.3678L227.033 39.3663L205.777 37.1592C205.57 37.1223 205.433 36.9245 205.469 36.7176C205.502 36.5319 205.666 36.3984 205.855 36.404L205.787 36.4035ZM184.263 34.8333C184.443 34.7265 184.675 34.7857 184.781 34.9653C184.888 35.1449 184.829 35.3766 184.649 35.4833C184.591 35.5177 184.525 35.5364 184.457 35.5364L185.114 35.461C185.321 35.4322 185.512 35.5769 185.541 35.7838C185.57 35.9912 185.425 36.1824 185.218 36.2112C185.212 36.2122 185.207 36.2127 185.201 36.2133L158.727 39.2368C158.519 39.2605 158.332 39.1118 158.308 38.9044V38.9039C158.283 38.6965 158.431 38.5083 158.638 38.4836C158.639 38.4836 158.64 38.4836 158.641 38.483L183.909 35.5986L158.513 36.107C158.304 36.1106 158.132 35.9446 158.127 35.7362C158.122 35.5268 158.288 35.3533 158.497 35.3487L184.255 34.8333H184.263ZM202.883 35.1929L227.262 35.7732C227.471 35.7757 227.639 35.9472 227.636 36.1561C227.634 36.3655 227.462 36.533 227.253 36.5304H227.254H227.246L202.864 35.9507C202.654 35.9386 202.495 35.759 202.507 35.5496C202.518 35.3538 202.677 35.199 202.872 35.1919H202.882H202.883V35.1929ZM227.193 32.6429C227.403 32.6439 227.572 32.8144 227.571 33.0243C227.57 33.2135 227.43 33.3734 227.243 33.3987L200.688 35.1034H200.663C200.454 35.11 200.28 34.9461 200.274 34.7372C200.267 34.5282 200.431 34.3537 200.64 34.3476L227.193 32.6429ZM158.965 29.3973L183.246 33.1422C183.453 33.174 183.595 33.3668 183.564 33.5742C183.536 33.7533 183.385 33.8878 183.204 33.8949L185.97 34.0502C186.179 34.0689 186.332 34.2525 186.314 34.461C186.297 34.6512 186.141 34.7989 185.95 34.806H185.927L158.55 33.2656C158.341 33.2621 158.175 33.0901 158.178 32.8812C158.181 32.6717 158.353 32.5053 158.562 32.5083C158.572 32.5083 158.582 32.5088 158.592 32.5099L183.122 33.8904L158.848 30.1465C158.644 30.1015 158.514 29.8991 158.559 29.6942C158.6 29.5071 158.774 29.3796 158.965 29.3973ZM226.841 29.5212C227.049 29.501 227.235 29.6543 227.255 29.8627C227.274 30.0559 227.144 30.2315 226.953 30.2709L202.642 33.9435C202.435 33.9748 202.242 33.8322 202.21 33.6253C202.179 33.4184 202.321 33.2251 202.528 33.1938L226.841 29.5212ZM226.2 26.4411C226.403 26.391 226.608 26.5154 226.658 26.7188C226.708 26.9221 226.584 27.127 226.381 27.1771L200.095 33.6516C199.892 33.6996 199.688 33.5762 199.636 33.3734C199.586 33.17 199.71 32.9651 199.914 32.9151C199.914 32.9151 199.914 32.9151 199.915 32.9151L226.2 26.4411ZM159.614 26.3227L181.737 31.7713C181.94 31.8214 182.064 32.0263 182.014 32.2296C181.965 32.433 181.759 32.5569 181.556 32.5073L159.432 27.0587C159.229 27.0086 159.105 26.8033 159.155 26.5999C159.205 26.3965 159.41 26.2726 159.614 26.3227ZM225.273 23.4332C225.47 23.3619 225.687 23.4631 225.758 23.6598C225.83 23.8566 225.729 24.0736 225.532 24.1455C225.528 24.147 225.524 24.148 225.521 24.1495L203.857 31.6388C203.656 31.699 203.445 31.5846 203.385 31.3833C203.329 31.1946 203.426 30.9943 203.609 30.922L225.273 23.4332ZM214.454 8.27767C214.597 8.1244 214.837 8.11631 214.99 8.25947C215.128 8.38846 215.151 8.5989 215.043 8.75369L198.006 29.802C197.874 29.9654 197.636 29.9907 197.472 29.8592C197.309 29.7276 197.284 29.4889 197.415 29.3255L214.454 8.27767ZM191.372 0.346814C191.58 0.336191 191.758 0.496039 191.768 0.703947C191.768 0.704959 191.768 0.706478 191.768 0.70749L193.028 28.2814L194.148 0.718621C194.155 0.510207 194.334 0.353894 194.541 0.356424C194.75 0.365023 194.912 0.540556 194.904 0.749982L193.77 28.6218C193.762 28.8247 193.595 28.985 193.392 28.985H193.377C193.234 28.9784 193.106 28.8925 193.048 28.7619L193.082 29.5177C193.092 29.7261 192.931 29.9032 192.722 29.9128H192.704C192.501 29.9128 192.334 29.7539 192.325 29.5516L191.011 0.741885C191.002 0.532965 191.163 0.355919 191.372 0.346814ZM160.212 23.6022C160.28 23.4044 160.496 23.2992 160.693 23.3675L177.228 29.0776C177.421 29.1595 177.511 29.3826 177.429 29.5759C177.354 29.7499 177.163 29.843 176.98 29.7939L160.446 24.0838C160.249 24.0145 160.144 23.7995 160.212 23.6022ZM211.919 6.41814C212.037 6.24513 212.272 6.1996 212.446 6.31747C212.619 6.43483 212.664 6.67056 212.546 6.84407L197.195 29.4494C197.071 29.6184 196.833 29.6553 196.664 29.5314C196.504 29.414 196.462 29.1924 196.567 29.024L211.919 6.41814ZM173.443 6.24867C173.615 6.1303 173.851 6.1738 173.97 6.3458C173.97 6.3463 173.97 6.3463 173.97 6.34681L189.129 28.4908C189.248 28.6633 189.204 28.8995 189.031 29.0179C188.858 29.1363 188.622 29.0923 188.503 28.9193L173.343 6.77527C173.226 6.60277 173.27 6.36704 173.443 6.24867ZM216.81 10.3542C216.956 10.2045 217.196 10.202 217.346 10.3482C217.496 10.4944 217.498 10.7346 217.352 10.8844L199.988 28.684C199.843 28.8333 199.604 28.8363 199.454 28.6906L199.453 28.6901C199.304 28.5449 199.299 28.3057 199.445 28.1559C199.445 28.1554 199.445 28.1554 199.445 28.1549L216.81 10.3542ZM170.893 8.14211C171.054 8.00856 171.294 8.03132 171.427 8.19269L187.961 28.1777C188.103 28.331 188.095 28.5707 187.941 28.7129C187.788 28.855 187.548 28.8464 187.406 28.6931C187.397 28.683 187.388 28.6719 187.379 28.6608L170.843 8.67579C170.709 8.51492 170.732 8.27616 170.892 8.14211H170.893ZM168.527 10.2566C168.676 10.1099 168.915 10.1109 169.062 10.2591L185.645 27.0076C185.792 27.1563 185.791 27.3961 185.642 27.5438C185.494 27.691 185.253 27.69 185.106 27.5413L168.525 10.7913C168.377 10.6431 168.378 10.4038 168.527 10.2566H168.527ZM218.966 12.6357C219.12 12.4935 219.359 12.5026 219.502 12.6564C219.644 12.8097 219.635 13.0494 219.481 13.1916C219.473 13.1992 219.465 13.2058 219.456 13.2128L203.167 27.0496C203.099 27.1078 203.012 27.1392 202.922 27.1392C202.713 27.1386 202.544 26.9692 202.544 26.7598C202.544 26.649 202.593 26.5438 202.677 26.4719L218.966 12.6357ZM220.736 22.0416C220.927 21.9551 221.151 22.0396 221.237 22.2303C221.324 22.421 221.239 22.6451 221.048 22.7316L211.518 27.0643C211.328 27.1508 211.103 27.0673 211.017 26.8771C211.017 26.8766 211.016 26.8761 211.016 26.8756C210.929 26.6859 211.012 26.4613 211.202 26.3743C211.202 26.3738 211.203 26.3738 211.204 26.3733L220.736 22.0416ZM165.145 22.3578C165.232 22.1665 165.455 22.0826 165.646 22.1676L174.089 25.9853C174.28 26.0738 174.363 26.3004 174.274 26.4911C174.212 26.6237 174.079 26.7092 173.933 26.7112C173.879 26.7112 173.826 26.6996 173.777 26.6763L165.334 22.8586C165.143 22.7721 165.059 22.5485 165.145 22.3578ZM221.419 18.4202C221.604 18.3225 221.834 18.3938 221.932 18.579C222.025 18.7555 221.965 18.9736 221.796 19.0783L208.725 26.5321C208.545 26.6363 208.314 26.5746 208.21 26.3945C208.209 26.3935 208.209 26.3925 208.208 26.3915C208.104 26.2099 208.168 25.9782 208.349 25.8745C208.349 25.8745 208.349 25.8745 208.35 25.8745L221.419 18.4202ZM167.924 13.8927C168.059 13.7324 168.297 13.7116 168.458 13.8462L168.458 13.8467L182.75 25.8391C182.905 25.9812 182.915 26.221 182.773 26.3758C182.64 26.5205 182.419 26.5397 182.263 26.4208L167.971 14.4274C167.811 14.2923 167.79 14.0536 167.924 13.8927ZM188.202 0.62554C188.41 0.596706 188.601 0.741382 188.63 0.948278C188.63 0.948278 188.63 0.948282 188.63 0.948788L192.052 25.7025C192.08 25.9099 191.936 26.1011 191.728 26.13C191.521 26.1588 191.33 26.0141 191.301 25.8067L187.879 1.054C187.85 0.8466 187.994 0.655389 188.201 0.626049C188.202 0.626049 188.202 0.626045 188.202 0.62554ZM164.883 19.0024C164.987 18.8213 165.218 18.7581 165.399 18.8608L176.535 25.186C176.717 25.2892 176.781 25.5204 176.678 25.7025C176.576 25.8846 176.344 25.9484 176.162 25.8457L165.025 19.5204C164.843 19.4177 164.779 19.1865 164.882 19.0044C164.882 19.0039 164.882 19.0034 164.883 19.0029L164.883 19.0024ZM209.219 4.79686C209.333 4.62082 209.568 4.57023 209.744 4.68405C209.904 4.78674 209.963 4.99161 209.883 5.1631L199.555 23.8597C199.455 24.0428 199.226 24.1106 199.042 24.0104C199.041 24.0099 199.04 24.0094 199.039 24.0089C198.856 23.9077 198.79 23.677 198.892 23.4939L209.219 4.79686ZM197.632 0.642235L197.701 0.644767C197.908 0.671072 198.056 0.860263 198.029 1.06766L195.218 23.3159C195.181 23.5222 194.984 23.6598 194.778 23.6234C194.585 23.5895 194.45 23.415 194.466 23.2203L197.278 0.973063C197.304 0.765661 197.493 0.618965 197.699 0.644258C197.7 0.644258 197.7 0.644258 197.701 0.644258L197.632 0.642235ZM185.066 1.19766C185.271 1.15011 185.474 1.27607 185.521 1.47993L190.579 23.1095C190.626 23.3133 190.499 23.5172 190.295 23.5642C190.091 23.6113 189.887 23.4843 189.84 23.2805L184.784 1.65294C184.736 1.44908 184.862 1.24522 185.066 1.19766ZM217.322 17.6062C217.501 17.4965 217.735 17.5521 217.845 17.7307C217.945 17.8946 217.908 18.108 217.757 18.2274L210.34 23.4054C210.164 23.5187 209.929 23.4671 209.816 23.2906C209.709 23.1241 209.748 22.9031 209.906 22.7837L217.322 17.6062ZM168.424 17.8774C168.544 17.7059 168.78 17.6639 168.952 17.7833L175.549 22.377C175.711 22.51 175.735 22.7493 175.602 22.9112C175.484 23.0559 175.278 23.0928 175.116 22.9982L168.517 18.4055C168.346 18.2861 168.303 18.0499 168.423 17.8784C168.423 17.8779 168.423 17.8779 168.423 17.8774H168.424ZM200.835 1.227C201.039 1.27405 201.165 1.47792 201.119 1.68127L196.593 21.2211C196.545 21.425 196.341 21.5519 196.137 21.5044C195.934 21.4568 195.807 21.253 195.854 21.0491L200.381 1.51079C200.428 1.30693 200.631 1.18047 200.835 1.227ZM179.015 3.18772C179.206 3.10324 179.429 3.18974 179.514 3.38146L186.582 19.396C186.666 19.5872 186.579 19.8113 186.388 19.8958C186.197 19.9802 185.973 19.8932 185.888 19.702L178.821 3.68751C178.737 3.4963 178.824 3.2727 179.015 3.18772ZM205.756 4.85706C205.848 4.66888 206.075 4.59047 206.264 4.68253C206.441 4.76904 206.522 4.97694 206.451 5.16108L200.571 18.5992C200.486 18.7899 200.264 18.8775 200.072 18.7945C199.88 18.7105 199.793 18.4879 199.876 18.2957L205.756 4.85706ZM177.277 6.60935C177.46 6.50767 177.69 6.57344 177.792 6.75605L184.173 18.2603C184.275 18.4434 184.209 18.6741 184.026 18.7753C183.842 18.8764 183.612 18.8107 183.511 18.6276L177.13 7.12432C177.029 6.9417 177.095 6.71153 177.277 6.60935ZM202.348 5.58144C202.41 5.38163 202.621 5.26984 202.822 5.33155C203.022 5.39327 203.133 5.60522 203.072 5.80554C203.07 5.8101 203.069 5.81464 203.067 5.8192L199.627 16.1954C199.548 16.3896 199.326 16.4822 199.132 16.4028C198.957 16.331 198.861 16.1413 198.908 15.9581L202.348 5.58144ZM183.601 6.86936C183.798 6.80259 184.013 6.90882 184.08 7.10661C184.08 7.10711 184.08 7.10763 184.08 7.10864L186.492 14.3313C186.558 14.5296 186.452 14.7446 186.253 14.8109C186.055 14.8771 185.84 14.7704 185.774 14.5721L183.362 7.34841C183.296 7.15062 183.402 6.93614 183.6 6.86987C183.6 6.86937 183.6 6.86936 183.601 6.86936Z" fill="url(#paint0_radial_8_11062)"/>
<defs>
<radialGradient id="paint0_radial_8_11062" cx="0" cy="0" r="1" gradientUnits="userSpaceOnUse" gradientTransform="translate(192.864 36.3786) scale(28.8744 28.8728)">
<stop stop-color="#8BC400"/>
<stop offset="1" stop-color="#474B55"/>
</radialGradient>
</defs>
</svg>
