<svg width="79" height="121" viewBox="0 0 79 121" fill="none" xmlns="http://www.w3.org/2000/svg">
<g clip-path="url(#clip0_8_12314)">
<mask id="mask0_8_12314" style="mask-type:luminance" maskUnits="userSpaceOnUse" x="-1" y="0" width="80" height="121">
<path d="M78.677 0.0756836H-0.179634V120.2H78.677V0.0756836Z" fill="white"/>
</mask>
<g mask="url(#mask0_8_12314)">
<path d="M24.4604 26.6379C24.3332 26.6385 24.2091 26.6772 24.1039 26.749L13.3225 34.0233C13.2368 34.081 13.1662 34.1588 13.1168 34.25C13.0674 34.3412 13.0407 34.443 13.039 34.5468L12.7062 55.4106C12.7048 55.496 12.7204 55.5808 12.7519 55.6601C12.7834 55.7394 12.8302 55.8117 12.8897 55.8726C12.9492 55.9336 13.0201 55.982 13.0983 56.0152C13.1765 56.0483 13.2605 56.0655 13.3454 56.0657H16.4618C16.6011 56.0658 16.7366 56.0201 16.8477 55.9356C16.9588 55.8511 17.0394 55.7325 17.0773 55.5977C17.9831 52.3709 23.322 33.3665 25.0725 27.4681C25.101 27.3718 25.1068 27.2701 25.0894 27.1711C25.072 27.0721 25.0318 26.9785 24.9722 26.8979C24.9125 26.8173 24.8349 26.7518 24.7456 26.7067C24.6563 26.6615 24.5578 26.638 24.4579 26.6379" fill="#FDD00F"/>
<path d="M11.325 55.4209V33.8268C11.325 33.713 11.3549 33.6013 11.4117 33.5029C11.4685 33.4045 11.5502 33.3229 11.6484 33.2666L15.8982 30.8307C16.0225 30.7598 16.1197 30.649 16.174 30.5159C16.2283 30.3829 16.2367 30.2354 16.1978 30.097L14.7759 25.0152C14.7381 24.8803 14.6575 24.7615 14.5464 24.677C14.4352 24.5925 14.2997 24.5469 14.1604 24.5471H10.2044C10.0595 24.5468 9.91884 24.596 9.80535 24.6866C9.69186 24.7772 9.61227 24.9039 9.5796 25.0459L2.65492 55.2808C2.63322 55.3752 2.63295 55.4732 2.65414 55.5677C2.67534 55.6622 2.71745 55.7507 2.77733 55.8265C2.83722 55.9024 2.91335 55.9637 3.00004 56.0058C3.08673 56.048 3.18175 56.0699 3.27804 56.07H10.6866C10.8564 56.0697 11.0193 56.0017 11.1393 55.8808C11.2593 55.7599 11.3267 55.596 11.3267 55.4251" fill="#44AF69"/>
<path d="M8.55665 23.2165H15.107C15.2076 23.2164 15.3069 23.1925 15.3966 23.1466C15.4864 23.1007 15.5641 23.0341 15.6235 22.9523C15.6829 22.8705 15.7223 22.7758 15.7384 22.6758C15.7546 22.5758 15.7471 22.4734 15.7165 22.3769L14.663 19.0698C14.6234 18.9455 14.5471 18.8361 14.4443 18.7563C14.3415 18.6765 14.217 18.6301 14.0874 18.6232L9.56772 18.3815C9.42218 18.3737 9.27836 18.4161 9.15999 18.5017C9.04163 18.5872 8.95577 18.7108 8.9166 18.8521L7.93948 22.4C7.91321 22.4956 7.90926 22.5961 7.92793 22.6936C7.9466 22.7911 7.98738 22.8829 8.04711 22.962C8.10684 23.041 8.1839 23.1051 8.27228 23.1492C8.36066 23.1934 8.45798 23.2164 8.55665 23.2165Z" fill="#44AF69"/>
<path d="M50.0827 14.6687C50.1844 14.5927 50.2615 14.488 50.3041 14.3679C50.3467 14.2477 50.353 14.1176 50.3221 13.9939C50.2912 13.8702 50.2245 13.7585 50.1305 13.6729C50.0365 13.5874 49.9194 13.5318 49.794 13.5131C46.5517 13.0558 43.2839 12.805 40.0102 12.7624H39.4779C36.2039 12.8051 32.9358 13.0558 29.6932 13.5131C29.5678 13.5318 29.4507 13.5874 29.3567 13.6729C29.2627 13.7585 29.196 13.8702 29.1651 13.9939C29.1342 14.1176 29.1405 14.2477 29.1831 14.3679C29.2257 14.488 29.3028 14.5927 29.4046 14.6687C29.5078 14.7455 29.5856 14.8517 29.628 14.9735C29.6704 15.0954 29.6754 15.2273 29.6423 15.352L19.0689 55.2586C19.0436 55.354 19.0405 55.454 19.0598 55.5508C19.0791 55.6476 19.1202 55.7386 19.18 55.8169C19.2398 55.8951 19.3167 55.9585 19.4048 56.0021C19.4928 56.0457 19.5896 56.0684 19.6878 56.0683H59.7112C59.8092 56.0683 59.906 56.0456 59.9939 56.0021C60.0819 55.9585 60.1588 55.8953 60.2186 55.8171C60.2785 55.739 60.3197 55.6481 60.3392 55.5514C60.3587 55.4548 60.3558 55.3549 60.3309 55.2595L49.8458 15.3494C49.8124 15.2248 49.8171 15.0929 49.8593 14.971C49.9016 14.8491 49.9794 14.7428 50.0827 14.6662" fill="#F36C40"/>
<path d="M54.4139 27.4707C56.1652 33.3691 61.5033 52.3744 62.4091 55.6003C62.4466 55.7353 62.5271 55.8542 62.6383 55.9388C62.7495 56.0233 62.8852 56.0688 63.0245 56.0683H66.1409C66.2258 56.0682 66.3098 56.0511 66.3881 56.0181C66.4664 55.985 66.5374 55.9367 66.5969 55.8758C66.6565 55.815 66.7034 55.7428 66.735 55.6635C66.7666 55.5843 66.7823 55.4995 66.781 55.4141L66.4474 34.5512C66.4457 34.4472 66.419 34.3452 66.3697 34.2539C66.3203 34.1626 66.2497 34.0846 66.1638 34.0267L55.3825 26.7533C55.2732 26.6795 55.1438 26.6415 55.0122 26.6443C54.8806 26.6472 54.753 26.6908 54.647 26.7692C54.5409 26.8477 54.4614 26.9571 54.4194 27.0826C54.3774 27.2082 54.3749 27.3437 54.4122 27.4707" fill="#15B0D0"/>
<path d="M68.1639 55.4209V33.8268C68.1641 33.7131 68.1344 33.6014 68.0777 33.5029C68.021 33.4045 67.9395 33.323 67.8413 33.2666L63.5908 30.8307C63.4667 30.7595 63.37 30.6485 63.3158 30.5156C63.2617 30.3827 63.2533 30.2353 63.2919 30.097L64.7139 25.0152C64.7514 24.8801 64.8319 24.7612 64.9431 24.6767C65.0543 24.5921 65.19 24.5466 65.3294 24.5471H69.2853C69.4301 24.5468 69.5706 24.596 69.6838 24.6866C69.7971 24.7773 69.8763 24.904 69.9085 25.0459L76.8348 55.2808C76.8565 55.3752 76.8568 55.4732 76.8356 55.5677C76.8144 55.6622 76.7723 55.7507 76.7124 55.8265C76.6525 55.9024 76.5764 55.9637 76.4897 56.0058C76.403 56.048 76.308 56.0699 76.2117 56.07H68.8049C68.6349 56.0697 68.472 56.0017 68.3519 55.8809C68.2317 55.76 68.1641 55.5961 68.1639 55.4251" fill="#B2257F"/>
<path d="M70.9331 23.2165H64.382C64.2813 23.2165 64.182 23.1925 64.0923 23.1466C64.0025 23.1007 63.9248 23.0342 63.8655 22.9523C63.8062 22.8705 63.7669 22.7757 63.7509 22.6757C63.7348 22.5757 63.7425 22.4733 63.7733 22.3769L64.8268 19.0698C64.866 18.9454 64.9421 18.8359 65.0447 18.7561C65.1474 18.6763 65.2719 18.6299 65.4015 18.6232L69.9212 18.3815C70.0667 18.3737 70.2105 18.4161 70.3289 18.5017C70.4473 18.5872 70.5331 18.7108 70.5723 18.8521L71.5494 22.4C71.5759 22.4956 71.58 22.5961 71.5614 22.6936C71.5429 22.7911 71.5022 22.8829 71.4425 22.962C71.3828 23.041 71.3058 23.1051 71.2174 23.1493C71.1291 23.1934 71.0318 23.2164 70.9331 23.2165Z" fill="#B2257F"/>
<path d="M38.2147 6.65222L37.3598 10.5161C37.3384 10.6116 37.339 10.7108 37.3615 10.806C37.3841 10.9012 37.4279 10.99 37.4898 11.0656C37.5516 11.1411 37.6298 11.2015 37.7183 11.242C37.8069 11.2825 37.9035 11.3021 38.0008 11.2993C38.4818 11.2868 38.9748 11.2777 39.4796 11.272H40.0119C41.0119 11.272 41.9542 11.2934 42.8328 11.3301C42.9356 11.3342 43.0379 11.3134 43.131 11.2694C43.2241 11.2253 43.3053 11.1594 43.3678 11.0772C43.4302 10.9949 43.4721 10.8987 43.4898 10.7968C43.5075 10.6948 43.5005 10.5901 43.4695 10.4914L42.298 6.77777C42.2588 6.65383 42.1832 6.5447 42.0813 6.46469C41.9793 6.38468 41.8557 6.33751 41.7267 6.32937L38.8794 6.15172C38.7275 6.14188 38.5771 6.18688 38.4553 6.27862C38.3334 6.37037 38.2481 6.50284 38.2147 6.65222ZM40.8846 10.0233L39.9083 10.0694C39.8161 10.0739 39.724 10.0583 39.6383 10.0235C39.5527 9.98876 39.4755 9.93575 39.4122 9.86814C39.3489 9.80053 39.3009 9.71992 39.2715 9.63185C39.2421 9.54378 39.232 9.45035 39.2419 9.35798L39.3684 8.16226C39.3845 8.01161 39.4529 7.87151 39.5616 7.76667C39.6703 7.66182 39.8123 7.59896 39.9626 7.58916L40.6647 7.54133C40.828 7.53046 40.9892 7.58276 41.1155 7.68754C41.2417 7.79233 41.3234 7.94167 41.3438 8.10503L41.4907 9.30076C41.5014 9.38879 41.494 9.4781 41.4688 9.5631C41.4437 9.6481 41.4014 9.72698 41.3446 9.79479C41.2878 9.86261 41.2177 9.9179 41.1387 9.95723C41.0597 9.99655 40.9735 10.019 40.8854 10.0233" fill="#F36C40"/>
<path d="M43.3303 5.8895L44.5307 10.9713C44.5614 11.1039 44.6334 11.2231 44.7362 11.3116C44.839 11.4001 44.9671 11.4532 45.102 11.4633C46.8323 11.5896 48.5542 11.812 50.2601 12.1295C50.3654 12.1498 50.4741 12.1432 50.5762 12.1102C50.6783 12.0772 50.7705 12.0189 50.8443 11.9406C50.9181 11.8623 50.9712 11.7666 50.9986 11.6623C51.026 11.558 51.0269 11.4485 51.0012 11.3437L48.8033 2.27327C48.7742 2.153 48.7112 2.04373 48.6219 1.95856C48.5326 1.87338 48.4208 1.81591 48.2998 1.79302C48.1789 1.77013 48.054 1.78279 47.94 1.82949C47.8261 1.87619 47.7279 1.95495 47.6573 2.05633L47.541 2.22203C47.4761 2.31409 47.3884 2.38741 47.2866 2.43468C47.1847 2.48195 47.0723 2.5015 46.9606 2.49139C46.8489 2.48127 46.7418 2.44185 46.65 2.37704C46.5582 2.31224 46.4849 2.22433 46.4374 2.1221L46.0469 1.268C46.0022 1.17022 45.9339 1.08526 45.8482 1.02088C45.7625 0.956502 45.6621 0.91476 45.5562 0.89947C45.4503 0.884179 45.3423 0.895828 45.2421 0.93335C45.1418 0.970873 45.0525 1.03307 44.9823 1.11427L44.4152 1.77021C44.3462 1.84986 44.2588 1.91122 44.1606 1.94888C44.0625 1.98654 43.9566 1.99936 43.8524 1.9862C43.7482 1.97304 43.6487 1.9343 43.5629 1.87341C43.477 1.81251 43.4074 1.73132 43.36 1.63697L42.815 0.553129C42.7641 0.452984 42.688 0.367997 42.5943 0.306629C42.5007 0.24526 42.3926 0.209651 42.281 0.203345C42.1694 0.197038 42.0581 0.220256 41.9581 0.270685C41.8582 0.321115 41.7731 0.396997 41.7114 0.49078L40.8812 1.77192C40.8245 1.8594 40.7475 1.93171 40.6569 1.9826C40.5662 2.03349 40.4647 2.06145 40.3609 2.06405C40.2571 2.06666 40.1543 2.04384 40.0613 1.99756C39.9682 1.95128 39.8877 1.88293 39.8268 1.7984L39.1757 0.89562C39.1149 0.811388 39.0348 0.743211 38.9421 0.696914C38.8494 0.650616 38.747 0.627574 38.6436 0.629756C38.5401 0.631938 38.4388 0.659279 38.3481 0.709444C38.2575 0.759608 38.1802 0.831105 38.123 0.917826L37.2681 2.21776C37.2139 2.30028 37.1414 2.36912 37.0565 2.41892C36.9715 2.46873 36.8762 2.49816 36.7781 2.50493C36.68 2.5117 36.5816 2.49564 36.4907 2.45798C36.3997 2.42032 36.3186 2.36209 36.2537 2.28779L35.3131 1.2142C35.2421 1.13317 35.152 1.0714 35.0511 1.03458C34.9502 0.99776 34.8417 0.987065 34.7356 1.00348C34.6295 1.0199 34.5292 1.0629 34.4439 1.12852C34.3586 1.19415 34.2912 1.2803 34.2477 1.37904L33.7078 2.60637C33.6648 2.70417 33.5982 2.78967 33.5142 2.85513C33.4301 2.9206 33.3312 2.96398 33.2263 2.98135C33.1215 2.99873 33.0139 2.98955 32.9135 2.95465C32.813 2.91975 32.7227 2.86023 32.6508 2.78146L32.1101 2.18872C32.033 2.10429 31.9348 2.0421 31.8258 2.00859C31.7168 1.97508 31.6009 1.97146 31.4901 1.9981C31.3792 2.02475 31.2774 2.08068 31.1952 2.16014C31.1131 2.2396 31.0535 2.33968 31.0226 2.45007L28.5811 11.2028C28.5525 11.3059 28.5499 11.4146 28.5736 11.519C28.5972 11.6234 28.6464 11.7202 28.7166 11.8007C28.7868 11.8811 28.8758 11.9427 28.9756 11.9799C29.0755 12.017 29.1829 12.0285 29.2882 12.0133C30.4351 11.8425 32.5566 11.5863 35.4565 11.4274C35.5938 11.4202 35.7251 11.3688 35.8312 11.2809C35.9372 11.1929 36.0124 11.0731 36.0457 10.9389L37.3666 5.5658C37.403 5.41913 37.4894 5.28994 37.6107 5.20068C37.732 5.11143 37.8805 5.06776 38.0305 5.07726L42.7497 5.39583C42.8861 5.40501 43.0161 5.45788 43.1206 5.5467C43.2251 5.63553 43.2986 5.75564 43.3303 5.8895Z" fill="#F36C40"/>
<path d="M5.65842 9.40582C5.40969 9.40582 5.15586 9.41522 4.89439 9.43572C2.43251 9.63472 -0.18388 10.1267 0.0334453 12.1833C0.165029 13.4406 0.998673 13.8975 2.22112 13.8975C2.8697 13.8975 3.62864 13.7685 4.44955 13.5618C5.61224 13.2598 6.80746 13.1029 8.00825 13.0946C10.7639 13.0946 12.7291 14.0179 14.0203 14.9421C15.3115 15.8662 15.927 16.7903 15.9856 16.7903C15.9856 16.7903 15.9856 16.7903 15.9856 16.7826C15.9856 16.3308 12.2155 9.40411 5.65078 9.40582" fill="#FDD00F"/>
<path d="M17.4848 7.028C24.5988 13.4918 21.0766 24.4754 20.6156 24.9118C20.3728 25.1416 22.7651 16.7049 13.0144 10.4324C10.2214 8.63882 8.54901 6.75128 10.2494 4.75697C12.0704 2.62174 14.9915 4.7621 17.4848 7.028Z" fill="#B2257F"/>
<path d="M24.1098 6.18076C26.5165 10.2599 23.2702 14.9053 22.9918 15.042C22.8432 15.1146 25.1888 11.5009 21.5172 7.12539C20.4645 5.87073 19.9509 4.74162 21.0401 4.05066C22.204 3.31443 23.266 4.74759 24.1098 6.1782" fill="#13AECE"/>
<path d="M73.5461 10.1976C66.4941 10.3931 63.2478 18.2329 63.2979 18.6992C63.325 18.9443 65.9941 13.0733 74.429 14.2528C76.8459 14.5902 78.6736 14.3382 78.6736 12.4054C78.6736 10.3359 76.019 10.1292 73.547 10.1976" fill="#F36C40"/>
<path d="M60.7732 9.16065C54.391 16.3547 59.0634 26.8942 59.5686 27.2802C59.8343 27.4826 56.5583 19.3517 65.5832 12.0646C68.1673 9.97631 69.63 7.92136 67.7267 6.12264C65.6893 4.19667 63.0143 6.6351 60.7757 9.16065" fill="#D62556"/>
<path d="M54.0989 9.03339C52.1405 13.3491 55.863 17.6162 56.1559 17.7229C56.3087 17.7793 53.5921 14.4389 56.7764 9.69446C57.6899 8.33474 58.0795 7.15524 56.9241 6.58727C55.6881 5.98171 54.7857 7.52164 54.0989 9.0351" fill="#44AF69"/>
<path d="M12.6714 68.4381L13.8539 70.3461C14.1694 70.8347 14.3402 71.4034 14.3463 71.986C14.3552 72.3159 14.2945 72.644 14.1684 72.9487C14.0423 73.2535 13.8535 73.5279 13.6145 73.754C13.3771 73.9847 13.0965 74.1656 12.789 74.2863C12.4815 74.4069 12.1533 74.4649 11.8233 74.4569C10.9178 74.4569 10.2296 74.0671 9.75873 73.2876L7.66104 69.8303V71.9049C7.6686 72.2377 7.61077 72.5687 7.49088 72.879C7.37099 73.1893 7.19138 73.4727 6.96237 73.713C6.73832 73.9547 6.46581 74.1457 6.16287 74.2735C5.85994 74.4013 5.53348 74.463 5.2051 74.4543C4.34259 74.4543 3.68779 74.1434 3.24069 73.5217C2.83943 72.9756 2.63823 72.257 2.6371 71.3659V61.9248C2.6371 59.9888 3.67562 59.0209 5.75265 59.0209H8.94461C9.98908 59.0196 11.0091 59.339 11.8683 59.9365C12.7436 60.5163 13.4305 61.3419 13.8438 62.3108C14.1483 63.0086 14.3077 63.7617 14.3124 64.5238C14.3124 65.9074 13.7654 67.2136 12.6714 68.4424" fill="#B1277D"/>
<path d="M20.6462 62.1272V71.5692C20.6462 72.3863 20.4357 73.0587 20.0146 73.5866C19.5618 74.1662 18.9376 74.4563 18.1419 74.4569C17.7934 74.4626 17.4479 74.3928 17.1286 74.2524C16.8092 74.112 16.5237 73.9041 16.2912 73.6429C15.8707 73.1874 15.6602 72.4962 15.6596 71.5692V62.1272C15.6596 61.0721 15.8701 60.3066 16.2912 59.8306C16.7717 59.2885 17.3886 59.0172 18.1419 59.0166C18.8951 59.016 19.5117 59.2837 19.9917 59.8195C20.4286 60.3108 20.6468 61.0795 20.6462 62.1255" fill="#13AECE"/>
<path d="M32.3529 59.0166C31.4587 59.0166 30.7532 59.3867 30.2365 60.1269L28.3858 62.7917L26.6243 60.1944C26.0923 59.4069 25.3648 59.0129 24.4417 59.0123C24.0719 59.0032 23.705 59.081 23.3703 59.2397C23.0356 59.3984 22.7423 59.6334 22.5138 59.9262C22.1558 60.3491 21.9596 60.8867 21.9603 61.4422C21.9651 61.9941 22.1391 62.531 22.4587 62.9796L25.8493 67.9974V71.3523C25.8493 72.2149 25.9859 72.8614 26.2593 73.2919C26.7562 74.0651 27.4483 74.4518 28.3358 74.4518C29.2543 74.4518 29.9617 74.058 30.4581 73.2705C30.7235 72.8463 30.8565 72.2109 30.8571 71.3642V68.0025L34.3716 62.9522C34.6786 62.5309 34.8453 62.0227 34.8479 61.5003C34.8523 61.1724 34.7891 60.8471 34.6623 60.545C34.5355 60.2429 34.3477 59.9705 34.111 59.7451C33.8825 59.5102 33.6091 59.3242 33.3072 59.1986C33.0053 59.0729 32.6812 59.0101 32.3546 59.014" fill="#D62556"/>
<path d="M39.6664 59.0166C38.5956 59.0166 37.8315 59.5108 37.3743 60.4993L32.6415 70.6331C32.443 71.047 32.3381 71.5 32.3342 71.9595C32.3287 72.4688 32.4799 72.9673 32.7671 73.3867C33.2544 74.099 33.9375 74.4558 34.8164 74.4569C35.1624 74.4606 35.5051 74.3888 35.8208 74.2464C36.1365 74.1039 36.4177 73.8943 36.645 73.6318C36.8963 73.3568 37.14 72.9369 37.376 72.372H42.0077C42.3252 73.0627 42.6433 73.5572 42.9619 73.8556C43.3886 74.2542 43.924 74.4535 44.568 74.4535C45.2276 74.4571 45.8617 74.1974 46.3312 73.7313C46.8007 73.2652 47.0672 72.6308 47.0724 71.9672C47.0674 71.5458 46.9688 71.1308 46.7837 70.7527L42.0043 60.5454C41.5312 59.5274 40.7518 59.0183 39.6664 59.0183" fill="#FDD00F"/>
<path d="M51.3051 59.0166H54.3612C56.6171 59.0166 58.4723 59.6654 59.9268 60.9631C61.628 62.4782 62.4789 64.3971 62.4795 66.7197C62.4801 67.8555 62.2262 68.9768 61.7367 70.0002C60.8827 71.8092 59.5482 73.0903 57.7332 73.8437C56.7518 74.2519 55.4682 74.4552 53.8196 74.4552H51.6718C50.6452 74.4552 49.9296 74.3197 49.5249 74.0486C49.0003 73.6933 48.6627 73.2483 48.5121 72.7137C48.4233 72.388 48.3783 71.8072 48.3772 70.9713V62.4893C48.3772 61.7582 48.3885 61.3096 48.4111 61.1433C48.4586 60.6966 48.6391 60.2747 48.929 59.933C49.4457 59.3221 50.2363 59.0166 51.3009 59.0166" fill="#13AECE"/>
<path d="M68.7845 69.0385V71.2216C68.7845 71.8314 68.7771 72.2032 68.7624 72.337C68.7088 72.7014 68.5763 73.0495 68.3744 73.3568C67.894 74.0919 67.2069 74.4597 66.3133 74.4603C65.4196 74.4609 64.7292 74.0854 64.2419 73.3338C63.9453 72.8731 63.7976 72.1674 63.7987 71.2165V62.0384C63.7987 61.1313 63.9759 60.4481 64.3302 59.9886C64.5568 59.6787 64.8546 59.4287 65.1982 59.2599C65.5418 59.0911 65.9209 59.0085 66.3031 59.0192C66.6926 59.0088 67.079 59.0925 67.4298 59.2632C67.7805 59.434 68.0856 59.6868 68.3193 60.0005C68.5521 60.297 68.7013 60.651 68.7514 61.0254C68.7743 61.1587 68.7845 61.5379 68.7845 62.1631V64.3359H71.8644V62.2271C71.8644 61.1954 72.0342 60.4483 72.3737 59.986C72.8457 59.3403 73.4966 59.0172 74.3263 59.0166C75.1913 59.0166 75.8399 59.3181 76.2788 59.9202C76.6625 60.4475 76.8544 61.157 76.8544 62.0486V71.2566C76.8544 72.1335 76.718 72.7985 76.4452 73.2518C75.9636 74.0558 75.2578 74.4575 74.328 74.4569C73.4932 74.4569 72.8322 74.1227 72.3449 73.4542C72.0274 73.022 71.8683 72.2861 71.8678 71.2464V69.0385H68.7845Z" fill="#B1277D"/>
<path d="M3.74664 80.702C3.10231 80.702 2.64304 80.3416 2.63795 79.8095H3.08448C3.1108 80.0768 3.30011 80.3459 3.74664 80.3459C4.15073 80.3459 4.39013 80.1152 4.39013 79.8095C4.39013 78.9392 2.65577 79.4943 2.65577 78.2952C2.65577 77.7639 3.08448 77.4026 3.71863 77.4026C4.3307 77.4026 4.73055 77.7443 4.78148 78.2311H4.31967C4.29165 78.0133 4.09046 77.7682 3.69825 77.7639C3.35444 77.7545 3.08278 77.9347 3.08278 78.2824C3.08278 79.1151 4.81204 78.5958 4.81204 79.7898C4.81204 80.2485 4.43852 80.702 3.74495 80.702" fill="#265FA9"/>
<path d="M25.9605 80.702C25.317 80.702 24.8569 80.3416 24.8518 79.8095H25.2983C25.3255 80.0768 25.5139 80.3459 25.9605 80.3459C26.3645 80.3459 26.6039 80.1152 26.6039 79.8095C26.6039 78.9392 24.8704 79.4943 24.8704 78.2952C24.8704 77.7639 25.2949 77.4026 25.9324 77.4026C26.5454 77.4026 26.9444 77.7443 26.9961 78.2311H26.5352C26.5072 78.0133 26.306 77.7682 25.9138 77.7639C25.57 77.7545 25.2983 77.9347 25.2983 78.2824C25.2983 79.1151 27.0276 78.5958 27.0276 79.7898C27.0276 80.2485 26.6549 80.702 25.9605 80.702Z" fill="#265FA9"/>
<path d="M12.005 77.7588H10.6696V78.8597H11.8641V79.215H10.6696V80.3493H12.005V80.7037H10.2426V77.4035H12.005V77.7588Z" fill="#265FA9"/>
<path d="M19.1419 79.9692H17.7089L17.4449 80.702H16.9916L18.1801 77.4138H18.6758L19.855 80.702H19.4025L19.1419 79.9692ZM18.4254 77.9476L17.8312 79.6173H19.0197L18.4254 77.9476Z" fill="#265FA9"/>
<path d="M33.7179 80.702C32.8155 80.702 32.105 80.0187 32.105 79.0528C32.105 78.0868 32.8147 77.4026 33.7179 77.4026C34.6212 77.4026 35.3309 78.0859 35.3309 79.0528C35.3309 80.0196 34.6263 80.702 33.7179 80.702ZM33.7179 80.3356C34.3971 80.3356 34.9013 79.8402 34.9013 79.0545C34.9013 78.2687 34.392 77.7733 33.7179 77.7733C33.0439 77.7733 32.5345 78.2644 32.5345 79.0545C32.5345 79.8445 33.0439 80.3356 33.7179 80.3356Z" fill="#265FA9"/>
<path d="M43.0553 77.4035V80.7037H42.6282L40.9083 78.0799V80.7037H40.4805V77.4035H40.9083L42.6282 80.023V77.4035H43.0553Z" fill="#265FA9"/>
<path d="M54.0098 80.4091C54.8655 79.7164 55.6796 79.063 55.6796 78.396C55.6796 78.033 55.5217 77.7605 55.0794 77.7605C54.655 77.7605 54.4402 78.0543 54.4215 78.4677H54.0259C54.0531 77.7691 54.4894 77.4069 55.0752 77.4069C55.6881 77.4069 56.0846 77.7691 56.0846 78.3772C56.0846 79.1937 55.2102 79.8864 54.6287 80.3621H56.1796V80.7037H54.0098V80.4091Z" fill="#265FA9"/>
<path d="M62.8471 77.4035C63.7368 77.4035 63.9685 78.1141 63.9685 79.0451C63.9685 79.976 63.7368 80.702 62.8471 80.702C61.9574 80.702 61.7223 79.9871 61.7223 79.0434C61.7223 78.0996 61.954 77.4018 62.8471 77.4018M62.8471 77.7759C62.2079 77.7759 62.1247 78.3738 62.1247 79.0434C62.1247 79.7446 62.2096 80.3245 62.8471 80.3245C63.4846 80.3245 63.5661 79.7403 63.5661 79.0434C63.5661 78.3695 63.4812 77.7759 62.8471 77.7759Z" fill="#265FA9"/>
<path d="M68.7811 80.4091C69.6376 79.7164 70.4509 79.063 70.4509 78.396C70.4509 78.033 70.293 77.7605 69.8516 77.7605C69.4271 77.7605 69.2115 78.0543 69.1937 78.4677H68.7972C68.8244 77.7691 69.2607 77.4069 69.8473 77.4069C70.4594 77.4069 70.8559 77.7691 70.8559 78.3772C70.8559 79.1937 69.9823 79.8864 69.4008 80.3621H70.9509V80.7037H68.7811V80.4091Z" fill="#265FA9"/>
<path d="M76.4384 77.7827H76.002V77.4035H76.8552V80.7037H76.4384V77.7827Z" fill="#265FA9"/>
<path d="M18.8202 91.081C18.4959 91.081 17.9831 92.0205 17.8464 92.2605C17.4704 92.9275 17.2276 93.6569 16.9593 94.3727C16.7114 95.0346 16.3871 95.6461 16.0909 96.2841C15.6511 97.2327 15.2026 98.1768 14.7453 99.1163C13.9219 100.793 13.2583 102.262 12.7546 103.524C12.4467 104.269 12.1981 105.036 12.0109 105.82C11.8903 106.393 11.8973 106.986 12.0313 107.556C12.1934 108.278 12.752 108.908 13.5645 108.733C13.6161 108.716 13.6606 108.683 13.6905 108.637C13.7203 108.592 13.7337 108.537 13.7283 108.483C13.7283 108.355 13.6145 107.094 14.4023 104.588C14.5476 104.172 14.7177 103.766 14.9117 103.371C15.1681 102.745 15.4884 102.013 15.8727 101.175C16.257 100.337 16.6596 99.4477 17.0807 98.5082C17.5052 97.5687 17.6308 97.5337 17.9865 96.6488C18.3422 95.764 18.5638 95.3677 18.8303 94.6503C19.1283 93.8431 19.8066 92.796 19.7302 91.9334C19.7005 91.5781 19.1928 91.0793 18.8218 91.0793" fill="#265FA9"/>
<path d="M50.5275 92.8626C50.6161 92.9175 50.7171 92.9489 50.821 92.9539C50.9249 92.9588 51.0284 92.9371 51.1218 92.8908C51.3475 92.7851 51.5348 92.611 51.6574 92.3929C51.797 92.1804 51.8644 91.928 51.8493 91.6737C51.8484 91.5707 51.8231 91.4695 51.7756 91.3783C51.7281 91.2871 51.6596 91.2086 51.5759 91.1493C51.4834 91.104 51.3818 91.0804 51.2788 91.0804C51.1759 91.0804 51.0743 91.104 50.9817 91.1493C50.7565 91.2556 50.5696 91.4296 50.4469 91.6472C50.3078 91.8594 50.2402 92.1109 50.2542 92.3647C50.2728 92.6047 50.3637 92.7704 50.5292 92.8626" fill="#265FA9"/>
<path d="M66.7038 95.8195C66.3744 96.2243 65.9624 96.6986 65.4677 97.2424C64.9731 97.7862 64.4694 98.3111 63.9566 98.8173C63.4858 99.2861 62.9899 99.7286 62.471 100.143C61.9939 100.521 61.6094 100.747 61.3173 100.82C60.8963 100.911 60.6215 100.712 60.493 100.222C60.3646 99.7326 60.4565 99.0647 60.7689 98.2186C60.944 98.3696 61.1693 98.4483 61.3997 98.439C61.6877 98.4324 61.9719 98.3716 62.2376 98.2596C62.5598 98.1279 62.8641 97.9557 63.1434 97.7472C63.4505 97.5214 63.7315 97.2619 63.9813 96.9733C64.4578 96.421 64.76 95.8636 64.8879 95.301C65.0158 94.7385 64.9519 94.3009 64.6961 93.9883C64.5263 93.7867 64.2716 93.6569 63.9125 93.6022C63.5534 93.5476 63.1434 93.6159 62.6782 93.8089C62.2129 94.002 61.7112 94.3393 61.1798 94.8185C60.6484 95.2976 60.1373 95.9775 59.6424 96.8623C59.5643 97.0024 59.493 97.1416 59.4234 97.2783C59.3716 97.3338 59.3224 97.3876 59.2723 97.4431C58.841 97.9037 58.4242 98.3365 58.0218 98.7413C57.6194 99.1462 57.2487 99.4963 56.9097 99.7919C56.6444 100.033 56.3544 100.246 56.0447 100.426C56.1177 100.225 56.2552 99.902 56.4564 99.4605C56.6576 99.0189 56.8953 98.5483 57.1703 98.0504C57.4454 97.5524 57.7374 97.075 58.0498 96.6138C58.3089 96.2121 58.6233 95.8495 58.9836 95.5368C59.038 95.4812 59.0685 95.3472 59.0685 95.1362C59.0651 94.9079 59.0185 94.6824 58.931 94.4717C58.8432 94.2458 58.7076 94.0418 58.5337 93.8738C58.3588 93.709 58.1245 93.6526 57.8325 93.709C57.4943 93.7801 57.1697 93.9058 56.8715 94.0814C56.492 94.2962 56.1331 94.5458 55.7993 94.827C55.406 95.157 55.0303 95.5077 54.6736 95.8776C54.2863 96.2774 53.9196 96.697 53.5751 97.1348C53.7396 96.7195 53.8685 96.2909 53.9605 95.8536C54.0319 95.477 54.0055 95.2139 53.8757 95.067C53.7739 94.943 53.6347 94.8557 53.4792 94.8185C53.3351 94.7814 53.1847 94.7767 53.0386 94.8048C52.9123 94.8262 52.7965 94.889 52.7092 94.9833C52.6705 95.0228 52.6416 95.0709 52.625 95.1237C52.6083 95.1766 52.6043 95.2327 52.6133 95.2874C52.5946 95.4166 52.4067 95.8496 52.0496 96.5864C51.9231 96.8478 51.7805 97.1467 51.6252 97.4781C51.3246 97.7924 51.0216 98.1059 50.7075 98.4099C50.0091 99.0967 49.2722 99.7426 48.5003 100.344C48.7012 99.9197 48.9256 99.4496 49.1735 98.9343C49.4213 98.419 49.6409 97.9126 49.8322 97.4149C50.0104 96.9701 50.1396 96.507 50.2176 96.0338C50.2805 95.6068 50.2176 95.2874 50.0394 95.067C49.9401 94.9454 49.8053 94.8584 49.654 94.8185C49.5153 94.7815 49.3702 94.7769 49.2295 94.8048C49.101 94.8285 48.9827 94.8908 48.8899 94.9833C48.8474 95.0204 48.8151 95.0678 48.7959 95.121C48.7767 95.1742 48.7714 95.2315 48.7804 95.2874C48.7804 95.4166 48.6016 95.8496 48.2439 96.5864C47.8862 97.3232 47.4051 98.3362 46.8007 99.6253C46.4153 100.436 46.2 101.085 46.1547 101.574C46.1094 102.063 46.1827 102.409 46.3746 102.61C46.5664 102.812 46.855 102.881 47.2405 102.818C47.6259 102.755 48.0557 102.566 48.53 102.251C48.874 102.02 49.1933 101.754 49.4825 101.456C49.7371 101.2 49.9714 100.944 50.1973 100.688C50.1089 100.959 50.0672 101.244 50.0742 101.53C50.1002 101.981 50.2239 102.289 50.4452 102.455C50.553 102.536 50.6788 102.59 50.8119 102.612C50.945 102.634 51.0813 102.623 51.2092 102.58C51.3419 102.548 51.4666 102.489 51.5753 102.405C51.6839 102.322 51.774 102.217 51.8399 102.097C51.823 101.94 51.8325 101.781 51.8679 101.626C51.8876 101.511 51.9246 101.399 51.9775 101.295C52.2344 100.851 52.5414 100.368 52.8985 99.8431C53.2557 99.3187 53.6493 98.78 54.0794 98.2272C54.509 97.6743 54.9575 97.1308 55.4249 96.5967C55.8924 96.0626 56.3735 95.5561 56.8681 95.0773C56.464 95.5931 56.0701 96.15 55.6864 96.7479C55.3132 97.3278 54.9696 97.9265 54.6567 98.5415C54.372 99.1023 54.1197 99.6792 53.9011 100.269C53.7167 100.736 53.6147 101.231 53.5998 101.733C53.5998 102.157 53.7096 102.493 53.9291 102.742C54.1487 102.991 54.524 103.097 55.0548 103.06C55.385 103.041 55.7781 102.834 56.2374 102.438C56.7108 102.027 57.1569 101.585 57.5727 101.115C57.9454 100.688 58.2773 100.284 58.5821 99.8875C58.5453 100.185 58.5382 100.485 58.5609 100.783C58.5889 101.278 58.7607 101.753 59.0549 102.15C59.3385 102.518 59.7468 102.748 60.2766 102.84C60.8267 102.932 61.3759 102.822 61.9243 102.509C62.4932 102.181 63.0153 101.776 63.4762 101.307C63.9414 100.841 64.3673 100.338 64.7495 99.8012C65.0353 99.4094 65.301 99.0032 65.5458 98.5842C65.7156 98.2912 65.8752 97.9863 66.0408 97.6592C66.2063 97.3321 66.3515 97.0374 66.4805 96.7615C66.586 96.5435 66.6731 96.3169 66.7411 96.0842C66.7861 95.9134 66.7725 95.822 66.6995 95.822M61.8938 96.1534C62.2095 95.7341 62.5588 95.3413 62.9379 94.979C63.1626 94.7606 63.4163 94.5746 63.6918 94.4264C63.9023 94.3257 64.0628 94.2975 64.1723 94.341C64.2226 94.3586 64.2672 94.3897 64.3011 94.4309C64.3351 94.4722 64.3572 94.5221 64.365 94.5751C64.3753 94.812 64.3182 95.047 64.2003 95.2524C64.0591 95.5195 63.8882 95.7696 63.6909 95.998C63.4762 96.2511 63.2374 96.4826 62.9778 96.6889C62.7375 96.8834 62.4797 97.0549 62.2079 97.2014C62.0071 97.314 61.7895 97.393 61.5635 97.4354C61.3802 97.4636 61.2605 97.4038 61.2061 97.256C61.4066 96.8705 61.6362 96.501 61.8929 96.1509" fill="#265FA9"/>
<path d="M46.9858 96.0945C46.9344 95.9038 46.8178 95.7374 46.6564 95.6247C46.5087 95.5333 46.3449 95.5701 46.1615 95.7349C46.0146 95.9057 45.8041 96.1355 45.5307 96.4404C45.2574 96.7453 44.9433 97.0758 44.5969 97.4354C44.2506 97.795 43.8915 98.1674 43.5256 98.5534C43.1597 98.9395 42.8116 99.2956 42.4822 99.6185C42.1529 99.9413 41.8651 100.216 41.6172 100.447C41.3693 100.678 41.2012 100.811 41.1078 100.848C41.0145 100.884 41.0119 100.769 41.0951 100.506C41.2164 100.139 41.3581 99.7784 41.5196 99.4272C41.7216 98.9762 41.9828 98.4606 42.3031 97.8804C42.6234 97.3002 42.9758 96.7245 43.36 96.1534C43.7454 95.584 44.0615 95.2065 44.3083 95.0209C44.5553 94.8364 44.7565 94.7715 44.9127 94.8279C45.0689 94.8842 45.1869 95.0166 45.2684 95.2284C45.349 95.4315 45.4178 95.6391 45.4747 95.8502C45.4925 95.9416 45.5477 95.9698 45.6445 95.9356C45.6874 95.9201 45.7227 95.8885 45.7431 95.8475C45.7635 95.8065 45.7674 95.7591 45.754 95.7153C45.7493 95.5234 45.7208 95.3329 45.6691 95.1482C45.6147 94.9391 45.5214 94.7423 45.3941 94.5682C45.2662 94.3941 45.0961 94.2559 44.9 94.1668C44.6988 94.0754 44.4331 94.0566 44.1028 94.1121C43.7459 94.1872 43.409 94.338 43.1147 94.5546C42.7356 94.821 42.3816 95.1217 42.0569 95.4531C41.7595 95.7571 41.4795 96.0779 41.2182 96.4139L40.9593 96.6539C40.6022 96.9853 40.2224 97.3355 39.82 97.7044C39.3429 98.1469 38.8118 98.6257 38.2266 99.141C38.3913 98.8279 38.5379 98.5147 38.6663 98.2015C38.7758 97.9453 38.8811 97.6711 38.9813 97.3867C39.0705 97.1505 39.1304 96.9041 39.1596 96.6531C39.1847 96.4409 39.1364 96.2264 39.0229 96.0458C38.923 95.8882 38.7796 95.7632 38.6103 95.6862C38.4654 95.6153 38.3039 95.5857 38.1434 95.6008C38.0744 95.608 38.009 95.6355 37.9554 95.6798C37.9018 95.7242 37.8623 95.7835 37.842 95.8502C37.6773 96.0347 37.4524 96.2773 37.1697 96.5813C36.887 96.8854 36.5754 97.2176 36.2359 97.5772C35.8963 97.9368 35.5491 98.3006 35.1925 98.6687C34.836 99.0368 34.5007 99.3776 34.1899 99.6936C33.8792 100.01 33.6042 100.27 33.3656 100.482C33.1271 100.694 32.9632 100.818 32.8724 100.855C32.7816 100.892 32.7756 100.777 32.858 100.514C32.9787 100.146 33.1204 99.7859 33.2824 99.4348C33.4828 98.9839 33.7434 98.4683 34.0643 97.8881C34.3852 97.3079 34.7375 96.7322 35.1212 96.1611C35.5066 95.5917 35.823 95.2142 36.0703 95.0286C36.3165 94.8441 36.5185 94.7792 36.6739 94.8356C36.8293 94.8919 36.949 95.0243 37.0304 95.2361C37.1105 95.4395 37.1797 95.6471 37.2376 95.8579C37.2546 95.9493 37.3089 95.9775 37.4014 95.9433C37.4443 95.9278 37.4796 95.8962 37.5 95.8552C37.5204 95.8142 37.5243 95.7668 37.5109 95.723C37.5059 95.5311 37.4774 95.3407 37.426 95.1558C37.3717 94.9468 37.2783 94.75 37.151 94.5759C37.0231 94.4018 36.853 94.2636 36.6569 94.1745C36.4549 94.0831 36.19 94.0643 35.8606 94.1198C35.5033 94.1943 35.166 94.3452 34.8716 94.5622C34.4923 94.828 34.1385 95.1289 33.8147 95.4608C33.4386 95.8406 33.0897 96.2468 32.7705 96.6761C32.6534 96.8316 32.5447 96.9913 32.4352 97.151L32.1118 97.4773C31.6814 97.9094 31.2739 98.3117 30.8893 98.6798C30.5048 99.0479 30.1525 99.3691 29.8316 99.6458C29.5745 99.8772 29.2939 100.081 28.9945 100.253C29.067 100.051 29.2268 99.697 29.4742 99.1897C29.7221 98.6841 29.9997 98.1546 30.3121 97.6011C30.6033 97.0808 30.9244 96.578 31.2739 96.0953C31.6033 95.6438 31.8862 95.3631 32.1228 95.2532C32.2343 95.1389 32.2983 94.9862 32.3019 94.8262C32.3102 94.6486 32.2721 94.4719 32.1916 94.3137C32.1022 94.1403 31.9697 93.9932 31.807 93.8867C31.6372 93.7662 31.3995 93.7158 31.1075 93.7329C30.5916 93.7825 30.0914 93.9383 29.638 94.1907C29.0981 94.4829 28.5956 94.8399 28.1414 95.2541C27.6262 95.7171 27.1484 96.2206 26.7126 96.7598C26.26 97.3136 25.841 97.8943 25.4579 98.4988C25.5766 98.1269 25.7281 97.7665 25.9104 97.4217C26.1022 97.0539 26.3037 96.7037 26.5148 96.3712C26.7259 96.0387 26.9183 95.744 27.0921 95.4872L27.4622 94.9346C27.5352 94.8245 27.531 94.6716 27.4478 94.4785C27.3578 94.2746 27.2102 94.1017 27.0233 93.9815C26.8053 93.8368 26.5562 93.7464 26.2966 93.7175C25.9826 93.6883 25.6679 93.7665 25.4036 93.9396C24.7448 94.3074 23.9895 94.9107 23.1378 95.7494C22.286 96.5882 21.3664 97.67 20.3788 98.995C20.5423 98.5702 20.7068 98.1509 20.872 97.7369C21.0373 97.323 21.1748 96.9409 21.2846 96.5907C21.3836 96.2895 21.4525 95.979 21.49 95.664C21.5172 95.3976 21.49 95.2003 21.3941 95.0662C21.2915 94.9424 21.1518 94.8555 20.996 94.8185C20.8524 94.7816 20.7027 94.7766 20.5571 94.804C20.4305 94.8258 20.3145 94.8888 20.2268 94.9833C20.1878 95.0226 20.1586 95.0706 20.1418 95.1235C20.125 95.1764 20.1209 95.2326 20.13 95.2874C20.13 95.4166 19.9518 95.8496 19.5952 96.5864L18.1257 99.6253C17.7409 100.437 17.5671 101.068 17.6045 101.519C17.6419 101.97 17.7698 102.278 17.9882 102.445C18.0945 102.526 18.2189 102.58 18.3506 102.601C18.4824 102.623 18.6174 102.612 18.7438 102.569C18.8774 102.533 19.0019 102.469 19.1086 102.38C19.2153 102.292 19.3016 102.181 19.3618 102.056C20.0579 101.025 20.7124 100.127 21.3253 99.3622C21.9383 98.5975 22.483 97.9573 22.9595 97.4414C23.5091 96.8344 24.0125 96.3188 24.4698 95.8946C23.7006 96.9998 23.2521 97.9678 23.1242 98.7985C22.9963 99.6293 23.0283 100.278 23.2201 100.746C23.412 101.216 23.6822 101.506 24.0309 101.616C24.3795 101.727 24.6449 101.616 24.8272 101.285C25.0824 100.843 25.3889 100.359 25.7465 99.8328C26.1042 99.3067 26.4936 98.7681 26.9147 98.2169C27.3357 97.6646 27.784 97.1214 28.2594 96.5873C28.7348 96.0532 29.2113 95.5464 29.6889 95.067C29.3035 95.5829 28.9187 96.1358 28.5344 96.7257C28.1501 97.3156 27.8026 97.9094 27.4919 98.5073C27.1968 99.0675 26.9442 99.6494 26.7364 100.248C26.5611 100.722 26.4589 101.221 26.4333 101.726C26.424 102.153 26.5301 102.481 26.75 102.721C26.9698 102.96 27.3442 103.071 27.8756 103.054C28.059 103.054 28.2831 102.956 28.548 102.763C28.8442 102.544 29.1245 102.304 29.3867 102.044C29.6779 101.759 29.9767 101.446 30.2789 101.105C30.498 100.858 30.7034 100.621 30.8953 100.389C30.8613 100.534 30.8324 100.678 30.8146 100.816C30.783 101.084 30.8359 101.355 30.9657 101.591C31.0983 101.861 31.2965 102.094 31.5421 102.267C31.7954 102.444 32.098 102.536 32.4064 102.529C32.7366 102.529 33.0855 102.374 33.4505 102.059C33.7096 101.838 33.9527 101.598 34.1781 101.342C34.4446 101.048 34.7194 100.725 35.0024 100.374C35.2868 100.025 35.5694 99.6654 35.8513 99.2965C36.1331 98.9275 36.3955 98.5782 36.6348 98.2468C36.1764 99.2227 35.9107 99.9914 35.8377 100.553C35.7647 101.114 35.8015 101.524 35.9481 101.783C36.0059 101.9 36.0935 102 36.2019 102.073C36.3104 102.146 36.436 102.189 36.5661 102.197C36.8077 102.22 37.0507 102.172 37.2656 102.059C37.668 101.856 38.0848 101.525 38.5161 101.064C38.73 100.834 38.9405 100.598 39.1392 100.357C39.1027 100.514 39.0704 100.668 39.0543 100.815C39.0226 101.083 39.0758 101.354 39.2062 101.59C39.3387 101.86 39.5366 102.093 39.7818 102.266C40.0355 102.443 40.3383 102.535 40.6469 102.528C40.9763 102.528 41.326 102.373 41.691 102.059C42.2697 101.586 42.7845 101.039 43.2225 100.432C43.6541 99.8328 44.1321 99.2693 44.6521 98.7464C44.4899 98.9096 44.3838 99.2427 44.2743 99.4459C44.1292 99.7133 43.9857 99.9806 43.8405 100.248C43.5544 100.778 43.2641 101.308 42.9797 101.84C42.5468 102.604 42.152 103.393 41.7377 104.167C41.3455 104.899 40.9737 105.647 40.3981 106.257C40.181 106.491 39.9276 106.687 39.6477 106.839C39.1867 107.08 38.8157 107.087 38.6723 106.809C38.3327 106.16 38.9269 104.503 39.8956 103.295C40.1774 102.936 40.0798 102.657 39.6069 102.646C39.393 102.641 39.2546 102.69 39.0127 102.817C38.7712 102.947 38.5615 103.129 38.3989 103.35C37.5356 104.438 37.4345 106.233 37.9906 107.307C38.6044 108.492 39.7682 108.707 40.854 108.137C41.7674 107.66 42.3736 106.647 42.8651 105.78C43.5341 104.601 44.0154 103.349 44.563 102.118C45.0833 100.954 45.6207 99.797 46.1887 98.6559C46.344 98.3433 46.4824 97.9111 46.7048 97.643C46.8873 97.4226 47.0018 97.1533 47.0342 96.8683C47.0736 96.6095 47.055 96.3451 46.9798 96.0945" fill="#265FA9"/>
<path d="M21.1284 114.982C21.1284 116.366 21.6747 117.693 22.6471 118.671C23.6195 119.649 24.9383 120.199 26.3136 120.2H52.3841C53.7479 120.182 55.05 119.625 56.0083 118.648C56.9665 117.672 57.5038 116.355 57.5038 114.982C57.5038 113.61 56.9665 112.293 56.0083 111.317C55.05 110.34 53.7479 109.783 52.3841 109.765H26.3128C24.9377 109.765 23.619 110.315 22.6468 111.293C21.6746 112.272 21.1284 113.598 21.1284 114.982Z" fill="#13AECE"/>
<path d="M21.1284 114.982C21.1282 116.014 21.4323 117.023 22.002 117.881C22.5718 118.739 23.3818 119.408 24.3294 119.803C25.2771 120.198 26.3199 120.301 27.326 120.1C28.3321 119.899 29.2562 119.402 29.9816 118.672C30.7069 117.942 31.2009 117.013 31.4009 116C31.601 114.988 31.4983 113.939 31.1056 112.986C30.713 112.032 30.0482 111.217 29.1952 110.644C28.3422 110.071 27.3394 109.765 26.3136 109.765C24.9385 109.765 23.6197 110.315 22.6474 111.293C21.675 112.272 21.1286 113.598 21.1284 114.982Z" fill="#D62556"/>
<path d="M40.1265 114.645V116.535C40.12 116.726 40.04 116.907 39.9034 117.04C39.7668 117.172 39.5843 117.247 39.3943 117.247C39.2043 117.247 39.0217 117.172 38.8851 117.04C38.7485 116.907 38.6685 116.726 38.6621 116.535V114.645C38.6624 114.572 38.6482 114.498 38.6202 114.43C38.5923 114.362 38.5512 114.3 38.4992 114.247C38.4473 114.195 38.3856 114.154 38.3176 114.125C38.2497 114.097 38.1769 114.083 38.1035 114.083C37.9554 114.084 37.8135 114.143 37.7087 114.248C37.6039 114.354 37.5447 114.496 37.544 114.645V116.535C37.544 116.73 37.4669 116.918 37.3295 117.056C37.1921 117.194 37.0057 117.272 36.8114 117.272C36.6171 117.272 36.4308 117.194 36.2934 117.056C36.156 116.918 36.0788 116.73 36.0788 116.535V114.645C36.0781 114.497 36.0191 114.354 35.9144 114.249C35.8098 114.144 35.6681 114.084 35.5202 114.083C35.4467 114.083 35.3739 114.097 35.3059 114.125C35.2379 114.153 35.1762 114.195 35.1242 114.247C35.0723 114.299 35.0311 114.361 35.0032 114.43C34.9753 114.498 34.9612 114.571 34.9616 114.645V116.535C34.9649 116.633 34.9486 116.731 34.9135 116.823C34.8784 116.914 34.8253 116.998 34.7574 117.069C34.6895 117.14 34.6081 117.196 34.5181 117.234C34.4281 117.273 34.3314 117.292 34.2337 117.292C34.1359 117.292 34.0392 117.273 33.9492 117.234C33.8592 117.196 33.7778 117.14 33.7099 117.069C33.642 116.998 33.5889 116.914 33.5538 116.823C33.5187 116.731 33.5024 116.633 33.5057 116.535V113.364C33.5047 113.273 33.5217 113.182 33.5558 113.097C33.5898 113.013 33.6402 112.935 33.7041 112.87C33.768 112.805 33.844 112.754 33.9278 112.718C34.0117 112.683 34.1016 112.665 34.1925 112.665C34.3548 112.666 34.5111 112.727 34.6322 112.836C34.9069 112.694 35.2115 112.621 35.5202 112.623C35.9913 112.627 36.447 112.792 36.8114 113.093C37.1762 112.792 37.6321 112.627 38.1035 112.623C38.6381 112.624 39.1506 112.838 39.5295 113.217C39.9083 113.597 40.1229 114.112 40.1265 114.65" fill="white"/>
<path d="M45.5944 114.987C45.5944 115.454 45.4569 115.91 45.1992 116.298C44.9416 116.686 44.5754 116.988 44.147 117.166C43.7185 117.345 43.2471 117.392 42.7922 117.301C42.3374 117.21 41.9196 116.985 41.5917 116.655C41.2638 116.325 41.0405 115.905 40.95 115.447C40.8595 114.99 40.906 114.515 41.0834 114.084C41.2609 113.653 41.5614 113.285 41.947 113.026C42.3326 112.766 42.7859 112.628 43.2497 112.628C43.8712 112.629 44.4669 112.878 44.9064 113.32C45.3459 113.762 45.5933 114.362 45.5944 114.987ZM42.3617 114.987C42.3609 115.164 42.4123 115.337 42.5095 115.485C42.6067 115.633 42.7452 115.748 42.9076 115.816C43.07 115.885 43.2489 115.903 43.4216 115.869C43.5943 115.835 43.7531 115.75 43.8778 115.625C44.0025 115.5 44.0875 115.34 44.122 115.167C44.1566 114.993 44.1391 114.813 44.0718 114.649C44.0046 114.486 43.8905 114.346 43.7441 114.248C43.5978 114.149 43.4257 114.097 43.2497 114.097C43.1328 114.096 43.017 114.119 42.9089 114.164C42.8008 114.208 42.7026 114.274 42.62 114.357C42.5374 114.441 42.472 114.54 42.4277 114.648C42.3833 114.757 42.3609 114.874 42.3617 114.991" fill="white"/>
<path d="M49.2668 113.402C49.2482 113.808 48.8993 114.093 48.4969 114.102C48.3457 114.1 48.1997 114.158 48.0902 114.263C47.9807 114.367 47.9164 114.511 47.9111 114.663V116.542C47.8959 116.724 47.8133 116.894 47.6796 117.018C47.546 117.141 47.3711 117.21 47.1895 117.21C47.008 117.21 46.8331 117.141 46.6994 117.018C46.5658 116.894 46.4832 116.724 46.4679 116.542V113.354C46.4679 113.171 46.5403 112.995 46.6691 112.865C46.7979 112.736 46.9726 112.663 47.1547 112.663C47.323 112.662 47.4858 112.723 47.6131 112.834C47.917 112.692 48.2494 112.623 48.5843 112.632C48.6797 112.636 48.7734 112.659 48.8599 112.699C48.9465 112.74 49.024 112.797 49.088 112.869C49.152 112.94 49.2012 113.023 49.2327 113.114C49.2641 113.205 49.2772 113.301 49.2711 113.397" fill="white"/>
<path d="M53.7271 115.522H51.2907C51.6939 116.139 52.4537 116.231 53.0395 115.908C53.1095 115.866 53.1872 115.838 53.2679 115.827C53.3486 115.815 53.4308 115.82 53.5098 115.84C53.5887 115.861 53.6628 115.897 53.7278 115.946C53.7928 115.996 53.8474 116.058 53.8884 116.129C53.9721 116.274 53.9959 116.446 53.9548 116.608C53.9137 116.77 53.8109 116.909 53.6685 116.996C53.2707 117.227 52.819 117.348 52.3595 117.346C51.306 117.346 50.4825 116.748 50.1166 115.979C49.9805 115.679 49.9078 115.354 49.903 115.025C49.8981 114.695 49.9614 114.368 50.0886 114.064C50.2884 113.587 50.6392 113.189 51.0866 112.934C51.534 112.678 52.0528 112.578 52.5624 112.649C53.0721 112.721 53.544 112.96 53.9047 113.329C54.2655 113.698 54.4949 114.177 54.5573 114.691C54.6117 115.243 54.2458 115.52 53.7237 115.52M53.166 114.469C53.0811 114.118 52.6991 113.786 52.2321 113.786C51.7652 113.786 51.3832 114.118 51.2983 114.469H53.166Z" fill="white"/>
<path d="M37.741 85.0007C37.9362 84.8031 38.2039 84.7046 38.5441 84.7051C38.8836 84.7051 39.1502 84.8042 39.3455 85.0049C39.5407 85.2056 39.6375 85.4909 39.6375 85.859C39.6375 86.1101 39.685 86.3014 39.7818 86.433C39.8225 86.4938 39.8775 86.5437 39.9419 86.5781C40.0063 86.6125 40.0782 86.6304 40.1511 86.6303H41.6792C41.7021 86.6297 41.7251 86.6328 41.7471 86.6397C41.7674 86.6456 41.7776 86.6653 41.7776 86.6969V86.9599C41.7776 86.9933 41.7445 87.0103 41.6792 87.0103H40.1443C40.0723 87.0105 40.0009 86.9971 39.9338 86.9711C39.8652 86.9441 39.8011 86.907 39.7436 86.8609C39.6866 86.8142 39.6365 86.7596 39.595 86.6986C39.5528 86.6374 39.5205 86.57 39.4991 86.4987C39.4172 86.6619 39.2874 86.7958 39.1273 86.8822C38.9454 86.9724 38.7443 87.0164 38.5415 87.0103H37.9244C37.8379 87.009 37.7519 87.022 37.6697 87.0488C37.6044 87.0695 37.5446 87.1048 37.4948 87.1521C37.4503 87.194 37.4158 87.2453 37.3938 87.3024C37.3727 87.3569 37.3617 87.4148 37.3615 87.4733V88.1326H36.9685V87.4835C36.9551 87.2686 37.0255 87.0569 37.1646 86.8933C37.2962 86.7541 37.5041 86.6696 37.786 86.6422C37.7502 86.606 37.7188 86.5656 37.6926 86.5218C37.6521 86.4582 37.6152 86.3923 37.5822 86.3245C37.5462 86.2492 37.515 86.1716 37.4889 86.0922C37.4641 86.0178 37.4507 85.94 37.449 85.8616C37.449 85.4858 37.5463 85.1988 37.741 85.0007ZM38.05 85.3047C37.9188 85.4593 37.8514 85.6586 37.8615 85.8616C37.8602 85.9694 37.8775 86.0766 37.9125 86.1785C37.9439 86.2692 37.992 86.3532 38.0542 86.4261C38.1141 86.4941 38.1876 86.5486 38.2699 86.5859C38.397 86.6402 38.5372 86.6557 38.6731 86.6305C38.8089 86.6053 38.9344 86.5404 39.0339 86.4441C39.1618 86.3125 39.2258 86.1184 39.2258 85.8616C39.2258 85.6048 39.1641 85.4129 39.0407 85.2859C38.9759 85.222 38.8988 85.172 38.8141 85.1391C38.7295 85.1062 38.639 85.0911 38.5483 85.0946C38.4558 85.0915 38.3636 85.1087 38.2783 85.145C38.193 85.1813 38.1166 85.2358 38.0542 85.3047" fill="#265FA9"/>
<path d="M55.3282 86.5295C55.3757 86.4603 55.3978 86.3382 55.3978 86.1622V85.198H55.7959V86.1776C55.7959 86.3484 55.8392 86.4663 55.9267 86.5389C56.0335 86.6171 56.1641 86.6552 56.2959 86.6465C56.4262 86.6576 56.5557 86.6178 56.6576 86.5355C56.7016 86.4877 56.735 86.4312 56.7558 86.3695C56.7766 86.3078 56.7842 86.2424 56.7781 86.1776V85.1083H57.1746V86.1622C57.1746 86.3331 57.2119 86.4526 57.2866 86.5252C57.3241 86.561 57.3682 86.5889 57.4164 86.6073C57.4647 86.6258 57.5161 86.6345 57.5676 86.6328H58.2264V85.0101H58.6279V87.0138H57.5719C57.5248 87.0128 57.4782 87.0048 57.4335 86.9899C57.3813 86.9732 57.3311 86.9506 57.2841 86.9224C57.2346 86.8913 57.1904 86.8524 57.1534 86.8071C57.1143 86.7595 57.0878 86.7028 57.0761 86.6422H57.0625C56.9965 86.7683 56.8929 86.8704 56.7663 86.9343C56.6358 86.9977 56.4926 87.0298 56.3477 87.0283C56.2839 87.028 56.2202 87.0214 56.1576 87.0086C56.0952 86.9968 56.0348 86.9758 55.9785 86.9463C55.9233 86.917 55.8733 86.8786 55.8307 86.8327C55.787 86.784 55.7556 86.7254 55.7391 86.6619H55.7255C55.6451 86.8942 55.4691 87.0104 55.1974 87.0104H41.4941C41.4287 87.0104 41.3965 86.9933 41.3965 86.9591V86.6952C41.3965 86.6644 41.4067 86.6448 41.427 86.6388C41.4488 86.6325 41.4714 86.6293 41.4941 86.6294H55.1363C55.1744 86.6304 55.2122 86.6213 55.2458 86.6032C55.2794 86.5851 55.3078 86.5585 55.3282 86.5261" fill="#265FA9"/>
<path d="M59.6942 88.1232C59.6487 88.1186 59.6036 88.1109 59.5592 88.1002C59.5151 88.0865 59.4743 88.0754 59.4421 88.0617V87.6817C59.4959 87.7073 59.553 87.7252 59.6118 87.7346C59.6751 87.7491 59.7397 87.7565 59.8045 87.7568C59.922 87.7575 60.0393 87.7481 60.1551 87.7286C60.2508 87.7125 60.3417 87.6749 60.4209 87.6185C60.5002 87.5581 60.5649 87.4804 60.6102 87.3913C60.6693 87.2725 60.7094 87.1451 60.729 87.0138H60.1789C60.0283 87.0168 59.8787 86.9877 59.74 86.9284C59.6168 86.8758 59.5064 86.7968 59.4166 86.6969C59.3285 86.5949 59.2605 86.4769 59.2162 86.3493C59.1686 86.2088 59.1451 86.0612 59.1466 85.9128C59.1458 85.76 59.1638 85.6077 59.2001 85.4593C59.2326 85.3206 59.2921 85.1897 59.375 85.0741C59.4589 84.961 59.5679 84.8691 59.6933 84.8059C59.8449 84.7339 60.0114 84.6994 60.1789 84.7052C60.3457 84.6996 60.5116 84.7317 60.6645 84.7991C60.7936 84.8598 60.9037 84.9549 60.9829 85.0741C61.0681 85.2085 61.1259 85.3586 61.1526 85.5157C61.189 85.7128 61.2064 85.913 61.2044 86.1135C61.2044 86.2118 61.2044 86.3023 61.1985 86.3869C61.1925 86.4714 61.1908 86.5577 61.1849 86.6363H62.6688C62.6915 86.636 62.7141 86.6392 62.7359 86.6457C62.7571 86.6525 62.7673 86.6704 62.7673 86.702V86.9651C62.7673 87.0001 62.7342 87.0172 62.6688 87.0172H61.1408C61.1108 87.1972 61.058 87.3726 60.9837 87.539C60.9228 87.6692 60.8361 87.7854 60.729 87.8807C60.6216 87.9715 60.4955 88.0371 60.3597 88.0728C60.2019 88.1149 60.0391 88.135 59.8759 88.1326C59.8166 88.133 59.7573 88.1296 59.6984 88.1224M60.7732 86.6328C60.7791 86.5474 60.7834 86.462 60.7867 86.3766C60.7901 86.2912 60.791 86.1913 60.791 86.0888C60.791 85.7471 60.7426 85.5003 60.6441 85.3406C60.5955 85.2622 60.5266 85.1984 60.4448 85.1562C60.3631 85.1139 60.2715 85.0947 60.1798 85.1006C60.085 85.0979 59.991 85.1191 59.9064 85.1621C59.8296 85.2029 59.7636 85.2614 59.7137 85.3329C59.6599 85.4103 59.621 85.4973 59.5991 85.5891C59.5737 85.696 59.5614 85.8055 59.5626 85.9154C59.5626 86.3954 59.7666 86.6354 60.1747 86.6354L60.7732 86.6328Z" fill="#265FA9"/>
<path d="M62.4141 86.9625V86.6995C62.4141 86.6679 62.4243 86.6482 62.4439 86.6422C62.4661 86.6354 62.4893 86.6322 62.5126 86.6328H74.9706V86.614C74.9359 86.579 74.9054 86.54 74.8798 86.4979C74.8412 86.4385 74.8077 86.3759 74.7796 86.3108C74.7479 86.2383 74.7216 86.1635 74.7006 86.0871C74.6789 86.0139 74.6677 85.938 74.6675 85.8616C74.6675 85.4858 74.7646 85.1988 74.9587 85.0007C75.1528 84.8025 75.4202 84.704 75.7609 84.7051C76.1005 84.7051 76.3679 84.8042 76.5623 85.0049C76.7567 85.2056 76.8552 85.4909 76.8552 85.859C76.8552 86.2271 76.7593 86.5133 76.57 86.7131C76.3807 86.913 76.1107 87.0103 75.7609 87.0103H62.5126C62.4473 87.0103 62.4141 86.9933 62.4141 86.96M75.2677 85.3022C75.1362 85.4566 75.0687 85.656 75.0793 85.859C75.0778 85.9669 75.0953 86.0742 75.131 86.1759C75.1618 86.267 75.2099 86.3511 75.2728 86.4236C75.3325 86.4918 75.406 86.5462 75.4884 86.5833C75.6155 86.6378 75.7558 86.6535 75.8917 86.6283C76.0276 86.603 76.1531 86.5381 76.2525 86.4415C76.3804 86.31 76.4446 86.1158 76.4452 85.859C76.4457 85.6022 76.3824 85.4103 76.255 85.2834C76.1901 85.2193 76.1129 85.1693 76.0281 85.1364C75.9432 85.1035 75.8526 85.0884 75.7618 85.0921C75.6694 85.0892 75.5774 85.1064 75.4923 85.1427C75.4071 85.179 75.3308 85.2334 75.2686 85.3022" fill="#265FA9"/>
<path d="M3.05562 87.6201C2.77717 87.2785 2.6371 86.7737 2.6371 86.1067V85.8018H3.03015V86.1067C3.03015 86.655 3.12693 87.0667 3.31964 87.3383C3.51234 87.6099 3.8205 87.7474 4.24157 87.7474C4.43448 87.7506 4.62628 87.7173 4.80695 87.6492C4.97125 87.5863 5.11721 87.483 5.23142 87.3485C5.3554 87.1987 5.44626 87.024 5.49798 86.8361C5.56415 86.5991 5.5956 86.3537 5.59136 86.1075V85.1433H5.98356V86.0973H6.00733C6.11302 85.9436 6.22635 85.7954 6.3469 85.6532C6.47459 85.5009 6.61676 85.3616 6.77136 85.2372C6.92394 85.1129 7.09204 85.0093 7.27138 84.9289C7.4502 84.8491 7.6437 84.8081 7.83931 84.8085C8.19756 84.8085 8.48053 84.9067 8.68824 85.1031C8.89453 85.2996 8.9964 85.5866 8.9964 85.9658V87.0146H5.86302C5.81427 87.1691 5.74487 87.3162 5.65673 87.4519C5.56818 87.5881 5.45739 87.7082 5.32904 87.8072C5.18981 87.9131 5.03363 87.9942 4.86723 88.0472C4.66711 88.1075 4.45893 88.1363 4.25006 88.1326C3.73335 88.1326 3.3352 87.9618 3.05562 87.6201ZM7.44966 85.2748C7.32126 85.3337 7.2004 85.408 7.08971 85.496C6.9697 85.5885 6.85624 85.6892 6.75014 85.7975C6.64746 85.9004 6.54999 86.0085 6.45811 86.1212C6.37322 86.228 6.29342 86.3271 6.22805 86.4201C6.16269 86.5132 6.11345 86.5833 6.07949 86.6337H8.59825V85.9504C8.60022 85.8368 8.57883 85.7239 8.53543 85.619C8.49673 85.5284 8.43878 85.4473 8.36565 85.3816C8.29286 85.3174 8.20798 85.2686 8.11606 85.2381C8.01809 85.2051 7.91545 85.1884 7.81215 85.1885C7.68521 85.1901 7.56011 85.2192 7.44541 85.274" fill="#265FA9"/>
<path d="M10.4532 86.6422C10.4735 86.6491 10.4837 86.667 10.4837 86.6986V86.9616C10.4837 86.9958 10.4515 87.0138 10.3861 87.0138H9.56857V83.652H9.96502V86.6328H10.3895C10.4122 86.6323 10.4348 86.6355 10.4565 86.6422" fill="#265FA9"/>
<path d="M21.0545 85.0101H21.451V87.0138H10.2248C10.1594 87.0138 10.1272 86.9967 10.1272 86.9626V86.6986C10.1272 86.6679 10.1365 86.6483 10.1577 86.6423C10.1795 86.6359 10.2021 86.6328 10.2248 86.6329H21.0545V85.0101ZM17.8558 87.867H17.4576V87.4665H17.8558V87.867ZM18.6563 87.867H18.259V87.4665H18.6563V87.867ZM7.84525 84.0518H7.44711V83.6512H7.84525V84.0518Z" fill="#265FA9"/>
<path d="M24.0334 86.6422C24.0538 86.6491 24.0631 86.667 24.0631 86.6986V86.9617C24.0631 86.9958 24.0309 87.0138 23.9655 87.0138H23.4434C23.3924 87.0133 23.3418 87.0053 23.2931 86.9899C23.2395 86.9738 23.1883 86.9503 23.1412 86.9198C23.0943 86.8889 23.0518 86.8519 23.0147 86.8096C22.9805 86.7684 22.9574 86.719 22.9476 86.6662V87.0326C22.9476 87.3896 22.891 87.662 22.7778 87.8499C22.6647 88.0378 22.4748 88.1321 22.2082 88.1326C22.1514 88.1334 22.0946 88.1294 22.0384 88.1207C22.0008 88.1153 21.964 88.1053 21.9289 88.0908C21.8991 88.0799 21.8706 88.0655 21.844 88.0481V87.6663C21.9362 87.721 22.041 87.7504 22.1479 87.7517C22.2065 87.7528 22.2645 87.7405 22.3177 87.7158C22.3691 87.6892 22.412 87.6487 22.4417 87.5988C22.4802 87.5309 22.5064 87.4565 22.5189 87.3793C22.5376 87.2664 22.5461 87.1521 22.5444 87.0377V85.0109H22.9417V86.1153C22.9363 86.1866 22.9464 86.2582 22.9713 86.3252C22.9962 86.3921 23.0354 86.4528 23.086 86.503C23.1836 86.5906 23.311 86.6371 23.4417 86.6328H23.9595C23.9825 86.6323 24.0055 86.6355 24.0275 86.6422" fill="#265FA9"/>
<path d="M34.0626 83.6512H34.4565V87.013H23.9298C23.8645 87.013 23.8322 86.9967 23.8322 86.9626V86.6986C23.8322 86.6679 23.8424 86.6483 23.8628 86.6414C23.8847 86.6358 23.9072 86.6329 23.9298 86.6329H34.0626V83.6512Z" fill="#265FA9"/>
<path d="M35.4608 83.6512H35.0635V87.013H35.4608V83.6512Z" fill="#265FA9"/>
</g>
</g>
<defs>
<clipPath id="clip0_8_12314">
<rect width="78.6487" height="120" fill="white" transform="translate(0.0241089 0.198669)"/>
</clipPath>
</defs>
</svg>
