<svg width="155" height="130" viewBox="0 0 155 130" fill="none" xmlns="http://www.w3.org/2000/svg">
<g clip-path="url(#clip0_9_2171)">
<path opacity="0.05" d="M39.1757 127.543H36.4554V129.812H39.1757V127.543Z" fill="#292A2E"/>
<path opacity="0.05" d="M11.3625 127.543H8.64215V129.812H11.3625V127.543Z" fill="#292A2E"/>
<path d="M41.6693 81.825H6.14844V127.466H41.6693V81.825Z" fill="#F4F4F4"/>
<path opacity="0.03" d="M41.6693 81.825H6.14844V127.466H41.6693V81.825Z" fill="#292A2E"/>
<path d="M48.252 81.825H12.7311V127.466H48.252V81.825Z" fill="#F4F4F4"/>
<path opacity="0.05" d="M45.7583 127.543H43.0379V129.812H45.7583V127.543Z" fill="#292A2E"/>
<path opacity="0.05" d="M17.9452 127.543H15.2248V129.812H17.9452V127.543Z" fill="#292A2E"/>
<path opacity="0.7" d="M46.9187 83.9624H14.0646V92.7311H46.9187V83.9624Z" fill="white"/>
<path opacity="0.7" d="M46.9187 94.8774H14.0646V103.646H46.9187V94.8774Z" fill="white"/>
<path opacity="0.7" d="M46.9187 105.792H14.0646V114.561H46.9187V105.792Z" fill="white"/>
<path opacity="0.05" d="M30.4916 89.5737C31.0341 89.5737 31.4739 89.0244 31.4739 88.3468C31.4739 87.6692 31.0341 87.1199 30.4916 87.1199C29.949 87.1199 29.5092 87.6692 29.5092 88.3468C29.5092 89.0244 29.949 89.5737 30.4916 89.5737Z" fill="#292A2E"/>
<path opacity="0.05" d="M30.4916 100.489C31.0341 100.489 31.4739 99.9394 31.4739 99.2618C31.4739 98.5842 31.0341 98.0349 30.4916 98.0349C29.949 98.0349 29.5092 98.5842 29.5092 99.2618C29.5092 99.9394 29.949 100.489 30.4916 100.489Z" fill="#292A2E"/>
<path opacity="0.05" d="M30.4916 111.404C31.0341 111.404 31.4739 110.854 31.4739 110.177C31.4739 109.499 31.0341 108.95 30.4916 108.95C29.949 108.95 29.5092 109.499 29.5092 110.177C29.5092 110.854 29.949 111.404 30.4916 111.404Z" fill="#292A2E"/>
<path opacity="0.7" d="M46.9187 116.953H14.0646V125.722H46.9187V116.953Z" fill="white"/>
<path opacity="0.05" d="M30.4915 122.564C31.034 122.564 31.4738 122.015 31.4738 121.338C31.4738 120.66 31.034 120.111 30.4915 120.111C29.949 120.111 29.5092 120.66 29.5092 121.338C29.5092 122.015 29.949 122.564 30.4915 122.564Z" fill="#292A2E"/>
<path d="M124.17 1.95508H104.119V34.553H124.17V1.95508Z" fill="#F4F4F4"/>
<path d="M124.17 34.5527H124.821V1.95485H124.17V34.5527Z" fill="#F4F4F4"/>
<path opacity="0.05" d="M124.17 34.5527H124.821V1.95485H124.17V34.5527Z" fill="#292A2E"/>
<path opacity="0.05" d="M120.518 7.89307H107.772V28.6146H120.518V7.89307Z" fill="#292A2E"/>
<path opacity="0.03" d="M120.518 7.89307H119.853V28.6146H120.518V7.89307Z" fill="#292A2E"/>
<path d="M140.569 42.5691H124.17V63.2392H140.569V42.5691Z" fill="#F4F4F4"/>
<path opacity="0.05" d="M137.582 46.3345H127.157V59.4739H137.582V46.3345Z" fill="#292A2E"/>
<path d="M140.569 63.239H141.219V42.5689H140.569V63.239Z" fill="#F4F4F4"/>
<path opacity="0.05" d="M140.569 63.239H141.219V42.5689H140.569V63.239Z" fill="#292A2E"/>
<path opacity="0.03" d="M137.582 46.3345H136.917V59.4739H137.582V46.3345Z" fill="#292A2E"/>
<path d="M58.8996 0H3.3783V69.3466H58.8996V0Z" fill="#F4F4F4"/>
<path d="M3.37831 0H2.74194V69.3466H3.37831V0Z" fill="#F4F4F4"/>
<path opacity="0.05" d="M3.37831 0H2.74194V69.3466H3.37831V0Z" fill="#292A2E"/>
<path opacity="0.05" d="M16.8285 47.7855V29.6423H28.7276V40.1831H47.1593V58.8471H54.9931V69.3467H47.1593H45.6502H6.0491V47.7855H16.8285Z" fill="#292A2E"/>
<path opacity="0.34" d="M27.2003 31.6121H18.5352V33.582H27.2003V31.6121Z" fill="#FFFFFA"/>
<path opacity="0.34" d="M27.2003 35.6943H18.5352V37.6642H27.2003V35.6943Z" fill="#FFFFFA"/>
<path opacity="0.34" d="M27.2003 39.7764H18.5352V41.7463H27.2003V39.7764Z" fill="#FFFFFA"/>
<path opacity="0.34" d="M9.18269 49.6978H7.58557V51.6677H9.18269V49.6978Z" fill="#FFFFFA"/>
<path opacity="0.34" d="M9.18269 53.78H7.58557V55.7499H9.18269V53.78Z" fill="#FFFFFA"/>
<path opacity="0.34" d="M9.18269 57.8621H7.58557V59.832H9.18269V57.8621Z" fill="#FFFFFA"/>
<path opacity="0.34" d="M12.1373 49.6978H10.5402V51.6677H12.1373V49.6978Z" fill="#FFFFFA"/>
<path opacity="0.34" d="M12.1373 53.78H10.5402V55.7499H12.1373V53.78Z" fill="#FFFFFA"/>
<path opacity="0.34" d="M12.1373 57.8621H10.5402V59.832H12.1373V57.8621Z" fill="#FFFFFA"/>
<path opacity="0.34" d="M15.0121 49.6978H13.415V51.6677H15.0121V49.6978Z" fill="#FFFFFA"/>
<path opacity="0.34" d="M15.0121 53.78H13.415V55.7499H15.0121V53.78Z" fill="#FFFFFA"/>
<path opacity="0.34" d="M15.0121 57.8621H13.415V59.832H15.0121V57.8621Z" fill="#FFFFFA"/>
<path d="M3.3783 34.2843H14.55V0H15.474V34.2843H45.6502V0H46.5741V34.2843H58.8996V35.4384H46.5741V69.3466H45.6502V35.4384H15.474V69.3466H14.55V35.4384H3.3783V34.2843Z" fill="white"/>
<path d="M61.1114 69.2629H1.16653V71.5692H61.1114V69.2629Z" fill="#F4F4F4"/>
<path opacity="0.1" d="M61.1114 69.2629H1.16653V71.5692H61.1114V69.2629Z" fill="#292A2E"/>
<path opacity="0.1" d="M1.16653 69.2629H0.301056V71.5692H1.16653V69.2629Z" fill="#292A2E"/>
<path opacity="0.1" d="M1.16653 69.2629H0.301056V71.5692H1.16653V69.2629Z" fill="#292A2E"/>
<path d="M16.3547 23.7063L16.3547 105.78C16.3547 112.569 20.7614 118.073 26.1974 118.073H128.802C134.238 118.073 138.645 112.569 138.645 105.78V23.7063C138.645 16.9168 134.238 11.4128 128.802 11.4128H26.1974C20.7614 11.4128 16.3547 16.9168 16.3547 23.7063Z" fill="#292A2E"/>
<path d="M135.342 23.7442V105.741C135.342 107.98 134.63 110.127 133.362 111.71C132.095 113.293 130.376 114.183 128.583 114.183H26.1864C24.3941 114.182 22.6752 113.293 21.4078 111.71C20.1405 110.127 19.4283 107.98 19.4279 105.741V84.9943H21.5128C22.4751 84.9944 23.3981 84.5171 24.0787 83.6673C24.7593 82.8175 25.1418 81.6648 25.142 80.4628V49.0232C25.1418 47.8212 24.7593 46.6685 24.0787 45.8188C23.3981 44.969 22.4751 44.4917 21.5128 44.4919H19.4279V23.7442C19.4282 21.5055 20.1404 19.3586 21.4078 17.7756C22.6752 16.1926 24.3941 15.3031 26.1864 15.3027H128.583C130.376 15.3028 132.095 16.1922 133.362 17.7753C134.63 19.3583 135.342 21.5054 135.342 23.7442Z" fill="white"/>
<path d="M18.1575 84.9941L18.1575 44.4919H21.5132C22.4755 44.4919 23.3984 44.9694 24.0789 45.8193C24.7593 46.6692 25.1416 47.8219 25.1416 49.0239V80.4622C25.1416 81.6641 24.7593 82.8168 24.0789 83.6668C23.3984 84.5167 22.4755 84.9941 21.5132 84.9941H18.1575Z" fill="#292A2E"/>
<path d="M143.267 107.708C143.232 107.708 143.197 107.691 143.172 107.659C142.982 107.422 142.673 103.07 141.839 90.1138C141.498 84.8136 141.176 79.8075 140.941 76.7657C140.924 76.5484 140.856 76.523 140.834 76.5147C140.512 76.3929 139.533 77.3575 138.987 78.2017C138.976 78.2195 138.962 78.2344 138.946 78.2455C138.931 78.2566 138.914 78.2636 138.896 78.2663C138.878 78.2689 138.86 78.267 138.843 78.2608C138.825 78.2546 138.809 78.2441 138.795 78.2299C138.781 78.2158 138.77 78.1983 138.761 78.1785C138.753 78.1587 138.747 78.137 138.746 78.1146C138.744 78.0922 138.746 78.0697 138.751 78.0483C138.757 78.0269 138.766 78.007 138.777 77.9899C139.139 77.4318 140.316 75.9687 140.912 76.1922C141.032 76.2373 141.181 76.3676 141.208 76.7332C141.444 79.7784 141.766 84.786 142.107 90.0876C142.614 97.961 143.188 106.881 143.376 107.442C143.391 107.467 143.399 107.497 143.401 107.528C143.403 107.558 143.398 107.589 143.387 107.617C143.375 107.645 143.358 107.668 143.337 107.684C143.316 107.7 143.292 107.708 143.267 107.708L143.267 107.708Z" fill="#494949"/>
<path d="M140.594 82.3484C142.83 80.1095 143.572 76.6246 142.25 74.5647C140.928 72.5049 138.043 72.65 135.807 74.8889C133.571 77.1279 132.829 80.6127 134.151 82.6726C135.473 84.7325 138.358 84.5873 140.594 82.3484Z" fill="#0CBC8B"/>
<path opacity="0.2" d="M140.594 82.3484C142.83 80.1095 143.572 76.6246 142.25 74.5647C140.928 72.5049 138.043 72.65 135.807 74.8889C133.571 77.1279 132.829 80.6127 134.151 82.6726C135.473 84.7325 138.358 84.5873 140.594 82.3484Z" fill="white"/>
<path d="M134.779 83.1968C134.766 83.1968 134.753 83.1923 134.742 83.1837C134.732 83.1751 134.723 83.1629 134.717 83.1484C134.712 83.1339 134.71 83.1178 134.712 83.1019C134.713 83.086 134.718 83.0711 134.727 83.0588L141.1 73.4594C141.112 73.4422 141.128 73.4314 141.146 73.4293C141.164 73.4272 141.181 73.4341 141.195 73.4484C141.209 73.4626 141.218 73.4831 141.219 73.5054C141.221 73.5276 141.216 73.5498 141.204 73.5669L134.831 83.1663C134.824 83.1759 134.816 83.1836 134.807 83.1889C134.798 83.1942 134.789 83.1969 134.779 83.1968Z" fill="white"/>
<path d="M144.658 105.65C144.637 105.65 144.615 105.644 144.596 105.632C144.577 105.619 144.561 105.602 144.548 105.58C144.536 105.558 144.528 105.532 144.525 105.506C144.522 105.479 144.524 105.452 144.531 105.427L146.925 96.8275C146.995 96.5749 147.115 96.3484 147.274 96.1687C147.433 95.9891 147.625 95.8621 147.833 95.7993C148.042 95.7365 148.259 95.74 148.466 95.8094C148.673 95.8788 148.862 96.012 149.017 96.1966L150.283 97.7068C150.308 97.7379 150.322 97.78 150.323 97.824C150.323 97.868 150.31 97.9104 150.285 97.9422C150.261 97.9741 150.228 97.9927 150.193 97.9942C150.157 97.9957 150.123 97.9799 150.097 97.9502L148.831 96.4402C148.709 96.2941 148.559 96.1888 148.396 96.1338C148.232 96.0789 148.06 96.076 147.896 96.1256C147.731 96.1752 147.579 96.2756 147.454 96.4176C147.329 96.5595 147.234 96.7386 147.178 96.9383L144.784 105.537C144.775 105.57 144.758 105.599 144.736 105.619C144.713 105.639 144.686 105.65 144.658 105.65Z" fill="#494949"/>
<path d="M153.819 102.468C155.476 100.83 155.378 97.2259 153.599 94.4191C151.82 91.6122 149.035 90.6651 147.377 92.3036C145.72 93.942 145.818 97.5457 147.597 100.353C149.376 103.159 152.162 104.107 153.819 102.468Z" fill="#0CBC8B"/>
<path d="M142.18 107.16C142.149 107.16 142.12 107.147 142.096 107.124C142.073 107.1 142.056 107.067 142.049 107.031L138.031 86.0499C138.004 85.9069 137.945 85.7761 137.862 85.6719C137.779 85.5677 137.675 85.4942 137.56 85.4594C137.446 85.4246 137.326 85.4299 137.214 85.4747C137.102 85.5195 137.002 85.602 136.925 85.7132L135.686 87.5007C135.675 87.5181 135.661 87.5325 135.645 87.543C135.629 87.5536 135.611 87.56 135.593 87.5619C135.575 87.5639 135.557 87.5613 135.54 87.5543C135.523 87.5474 135.507 87.5362 135.494 87.5214C135.48 87.5067 135.469 87.4887 135.461 87.4685C135.453 87.4483 135.448 87.4263 135.447 87.4038C135.446 87.3813 135.449 87.3588 135.455 87.3376C135.461 87.3164 135.47 87.2969 135.483 87.2803L136.72 85.4921C136.83 85.334 136.972 85.2168 137.132 85.1532C137.291 85.0896 137.461 85.0822 137.624 85.1317C137.786 85.1813 137.935 85.2859 138.053 85.434C138.171 85.5821 138.254 85.768 138.293 85.9713L142.31 106.952C142.318 106.995 142.313 107.041 142.294 107.079C142.275 107.116 142.245 107.144 142.211 107.154C142.201 107.157 142.19 107.159 142.18 107.16Z" fill="#494949"/>
<path d="M140.615 92.1876C141.102 88.6615 139.809 85.4393 137.727 84.9905C135.645 84.5417 133.563 87.0363 133.075 90.5623C132.588 94.0884 133.881 97.3106 135.963 97.7594C138.045 98.2082 140.128 95.7136 140.615 92.1876Z" fill="#0CBC8B"/>
<path d="M143.267 107.708C143.262 107.708 143.256 107.708 143.251 107.707C143.215 107.701 143.183 107.679 143.161 107.643C143.139 107.608 143.129 107.564 143.134 107.519L145.699 81.5027C145.727 81.2193 145.82 80.952 145.967 80.733C146.113 80.514 146.308 80.3525 146.526 80.268C146.744 80.1835 146.978 80.1796 147.198 80.2568C147.418 80.3339 147.615 80.4888 147.767 80.7028L150.699 84.8509C150.711 84.8674 150.72 84.8867 150.725 84.9076C150.731 84.9286 150.733 84.9507 150.732 84.9727C150.731 84.9948 150.727 85.0164 150.719 85.0362C150.711 85.0561 150.7 85.0738 150.687 85.0885C150.674 85.1031 150.658 85.1143 150.642 85.1214C150.625 85.1286 150.607 85.1316 150.589 85.1302C150.572 85.1288 150.554 85.1231 150.539 85.1134C150.523 85.1037 150.508 85.0901 150.497 85.0736L147.564 80.9257C147.448 80.7603 147.295 80.6405 147.125 80.5809C146.955 80.5213 146.774 80.5243 146.606 80.5896C146.437 80.6549 146.287 80.7796 146.173 80.9489C146.06 81.1182 145.988 81.3248 145.967 81.5438L143.401 107.56C143.397 107.601 143.381 107.638 143.357 107.666C143.332 107.693 143.3 107.708 143.267 107.708Z" fill="#494949"/>
<path d="M153.706 87.1568C154.729 84.8467 153.525 81.5693 151.018 79.8366C148.51 78.1039 145.647 78.572 144.624 80.8821C143.601 83.1922 144.805 86.4696 147.313 88.2023C149.821 89.935 152.683 89.4669 153.706 87.1568Z" fill="#0CBC8B"/>
<path opacity="0.2" d="M153.819 102.468C155.476 100.83 155.378 97.2259 153.599 94.4191C151.82 91.6122 149.035 90.6651 147.377 92.3036C145.72 93.942 145.818 97.5457 147.597 100.353C149.376 103.159 152.162 104.107 153.819 102.468Z" fill="white"/>
<path opacity="0.5" d="M140.615 92.1876C141.102 88.6615 139.809 85.4393 137.727 84.9905C135.645 84.5417 133.563 87.0363 133.075 90.5623C132.588 94.0884 133.881 97.3106 135.963 97.7594C138.045 98.2082 140.128 95.7136 140.615 92.1876Z" fill="white"/>
<path opacity="0.5" d="M153.706 87.1568C154.729 84.8467 153.525 81.5693 151.018 79.8366C148.51 78.1039 145.647 78.572 144.624 80.8821C143.601 83.1922 144.805 86.4696 147.313 88.2023C149.821 89.935 152.683 89.4669 153.706 87.1568Z" fill="white"/>
<path d="M146.549 129.783H139.986L138.899 103.557H147.636L146.549 129.783Z" fill="#292A2E"/>
<path opacity="0.3" d="M146.549 129.783H139.986L138.899 103.557H147.636L146.549 129.783Z" fill="white"/>
<path d="M153.819 102.551C153.808 102.551 153.798 102.548 153.789 102.543C153.78 102.537 153.772 102.529 153.766 102.519L147.324 92.3545C147.314 92.337 147.309 92.3151 147.312 92.2935C147.314 92.2719 147.323 92.2522 147.336 92.2387C147.35 92.2251 147.368 92.2187 147.385 92.2209C147.402 92.223 147.418 92.2334 147.43 92.25L153.871 102.414C153.879 102.427 153.884 102.442 153.886 102.458C153.887 102.473 153.885 102.489 153.879 102.503C153.874 102.518 153.865 102.53 153.854 102.538C153.844 102.547 153.831 102.551 153.819 102.551Z" fill="white"/>
<path d="M153.278 87.9712C153.263 87.971 153.25 87.9651 153.238 87.9543L144.995 80.4371C144.981 80.4239 144.971 80.4042 144.968 80.3821C144.965 80.36 144.97 80.3375 144.98 80.3195C144.991 80.3014 145.007 80.2894 145.024 80.2859C145.042 80.2825 145.06 80.2879 145.075 80.3011L153.318 87.819C153.329 87.8296 153.337 87.8444 153.342 87.8612C153.346 87.8781 153.346 87.8962 153.341 87.9129C153.337 87.9297 153.328 87.9443 153.317 87.9546C153.305 87.9649 153.291 87.9705 153.277 87.9705L153.278 87.9712Z" fill="white"/>
<path d="M135.708 97.6243C135.702 97.6243 135.696 97.6233 135.69 97.6214C135.682 97.6186 135.674 97.6137 135.667 97.6069C135.66 97.6002 135.654 97.5918 135.649 97.5823C135.645 97.5727 135.642 97.5621 135.641 97.5512C135.64 97.5402 135.64 97.5291 135.643 97.5184L138.267 85.2386C138.269 85.2278 138.273 85.2176 138.278 85.2086C138.283 85.1997 138.29 85.1921 138.298 85.1865C138.306 85.1808 138.314 85.1771 138.323 85.1756C138.332 85.1741 138.341 85.1748 138.349 85.1777C138.358 85.1805 138.366 85.1855 138.373 85.1924C138.38 85.1992 138.386 85.2077 138.391 85.2174C138.395 85.2272 138.398 85.2379 138.399 85.249C138.4 85.2601 138.399 85.2713 138.397 85.282L135.773 97.5618C135.769 97.5797 135.761 97.5956 135.749 97.6069C135.737 97.6182 135.723 97.6243 135.708 97.6243Z" fill="white"/>
<path d="M43.6131 80.6463V114.183H26.1865C25.2989 114.184 24.4198 113.966 23.5997 113.542C22.7795 113.117 22.0344 112.496 21.4067 111.712C20.779 110.928 20.2812 109.997 19.9417 108.972C19.6022 107.948 19.4276 106.85 19.428 105.741V84.9943H21.5128C22.178 84.9949 22.8306 84.7669 23.3989 84.3351C23.9672 83.9033 24.4295 83.2845 24.7349 82.5464C24.9812 81.9584 25.1193 81.3091 25.1392 80.646L43.6131 80.6463Z" fill="#F4F4F4"/>
<path opacity="0.03" d="M43.6131 80.6463V114.183H26.1865C25.2989 114.184 24.4198 113.966 23.5997 113.542C22.7795 113.117 22.0344 112.496 21.4067 111.712C20.779 110.928 20.2812 109.997 19.9417 108.972C19.6022 107.948 19.4276 106.85 19.428 105.741V84.9943H21.5128C22.178 84.9949 22.8306 84.7669 23.3989 84.3351C23.9672 83.9033 24.4295 83.2845 24.7349 82.5464C24.9812 81.9584 25.1193 81.3091 25.1392 80.646L43.6131 80.6463Z" fill="#292A2E"/>
<path d="M49.4646 80.6463V114.183H26.1865C25.2989 114.184 24.4198 113.966 23.5997 113.542C22.7795 113.117 22.0344 112.496 21.4067 111.712C20.779 110.928 20.2812 109.997 19.9417 108.972C19.6022 107.948 19.4276 106.85 19.428 105.741V84.9943H21.5128C22.178 84.9949 22.8306 84.7669 23.3989 84.3351C23.9672 83.9033 24.4295 83.2845 24.7349 82.5464C24.9812 81.9584 25.1193 81.3091 25.1392 80.646L49.4646 80.6463Z" fill="#F4F4F4"/>
<path opacity="0.7" d="M48.2799 82.5464V90.3415H19.4279V84.9943H21.5128C22.178 84.9949 22.8305 84.7669 23.3988 84.3351C23.9672 83.9033 24.4294 83.2845 24.7349 82.5464H48.2799Z" fill="white"/>
<path opacity="0.7" d="M48.28 92.249H19.4279V100.044H48.28V92.249Z" fill="white"/>
<path opacity="0.7" d="M48.2799 101.953V109.747H20.2365C19.7039 108.517 19.4259 107.14 19.4279 105.741V101.952L48.2799 101.953Z" fill="white"/>
<path opacity="0.05" d="M33.6766 87.5352C34.1589 87.5352 34.5499 87.0469 34.5499 86.4445C34.5499 85.8421 34.1589 85.3538 33.6766 85.3538C33.1943 85.3538 32.8033 85.8421 32.8033 86.4445C32.8033 87.0469 33.1943 87.5352 33.6766 87.5352Z" fill="#292A2E"/>
<path opacity="0.05" d="M33.6766 97.2381C34.1589 97.2381 34.5499 96.7498 34.5499 96.1474C34.5499 95.545 34.1589 95.0566 33.6766 95.0566C33.1943 95.0566 32.8033 95.545 32.8033 96.1474C32.8033 96.7498 33.1943 97.2381 33.6766 97.2381Z" fill="#292A2E"/>
<path opacity="0.05" d="M33.6766 106.941C34.1589 106.941 34.5499 106.453 34.5499 105.85C34.5499 105.248 34.1589 104.76 33.6766 104.76C33.1943 104.76 32.8033 105.248 32.8033 105.85C32.8033 106.453 33.1943 106.941 33.6766 106.941Z" fill="#292A2E"/>
<path opacity="0.7" d="M48.2799 111.874V114.183H26.1865C24.4587 114.185 22.7962 113.359 21.5424 111.874H48.2799Z" fill="white"/>
<path d="M125.291 15.3027H104.119V34.6617H125.291V15.3027Z" fill="#F4F4F4"/>
<path d="M125.978 15.3027H125.291V34.6617H125.978V15.3027Z" fill="#F4F4F4"/>
<path opacity="0.05" d="M125.978 15.3027H125.291V34.6617H125.978V15.3027Z" fill="#292A2E"/>
<path opacity="0.05" d="M121.434 15.3027H107.976V28.3916H121.434V15.3027Z" fill="#292A2E"/>
<path opacity="0.03" d="M121.434 15.3027H120.733V28.3916H121.434V15.3027Z" fill="#292A2E"/>
<path d="M135.342 43.1267H125.291V64.9517H135.342V43.1267Z" fill="#F4F4F4"/>
<path opacity="0.05" d="M135.342 47.1025H128.446V60.9758H135.342V47.1025Z" fill="#292A2E"/>
<path d="M60.8417 15.3027V71.6443H25.1421V49.0232C25.1419 47.8212 24.7594 46.6685 24.0788 45.8188C23.3982 44.969 22.4752 44.4917 21.5128 44.4919H19.428V23.7442C19.4283 21.5055 20.1405 19.3586 21.4079 17.7756C22.6753 16.1926 24.3941 15.3031 26.1865 15.3027H60.8417Z" fill="#F4F4F4"/>
<path opacity="0.05" d="M56.8052 60.7974V71.6442H25.142V49.0231C25.1418 47.8211 24.7593 46.6685 24.0787 45.8187C23.3981 44.9689 22.4751 44.4916 21.5128 44.4918H19.4279V30.6252H29.6702V41.5142H48.7126V60.7974H56.8052Z" fill="#292A2E"/>
<path opacity="0.34" d="M28.092 32.6604H19.4279V34.6954H28.092V32.6604Z" fill="#FFFFFA"/>
<path opacity="0.34" d="M28.092 36.877H19.4279V38.912H28.092V36.877Z" fill="#FFFFFA"/>
<path opacity="0.34" d="M28.092 41.0952H19.4279V43.1303H28.092V41.0952Z" fill="#FFFFFA"/>
<path d="M60.8417 35.4209V36.6126H48.1075V71.6443H47.1535V36.6126H19.428V35.4209H47.1535V15.3027H48.1075V35.4209H60.8417Z" fill="white"/>
<path d="M63.1272 71.5583H25.142V73.9418H63.1272V71.5583Z" fill="#F4F4F4"/>
<path opacity="0.1" d="M63.1272 71.5583H25.142V73.9418H63.1272V71.5583Z" fill="#292A2E"/>
<path d="M82.525 64.8934L53.8463 81.9503L53.7692 48.0016L82.525 30.8486V64.8934Z" fill="#367CFF"/>
<g opacity="0.58">
<path d="M82.525 64.8934L53.8463 81.9503L53.7692 48.0016L82.525 30.8486V64.8934Z" fill="white"/>
</g>
<path d="M82.525 64.8931L101.154 81.9504L101.231 48.0019L82.525 30.8486V64.8931Z" fill="#367CFF"/>
<g opacity="0.88">
<path d="M82.525 64.8931L101.154 81.9504L101.231 48.0019L82.525 30.8486V64.8931Z" fill="white"/>
</g>
<path d="M72.6764 99.5061L53.5665 81.9819V81.8536L53.6447 47.4087L72.6764 64.8347V99.5061ZM53.9716 81.7269L72.2721 98.5088V65.091L54.0474 48.403L53.9716 81.7269Z" fill="#292A2E"/>
<path d="M72.2721 99.4078V64.8035L101.355 47.5061L101.433 82.0126L101.318 82.0815L72.2721 99.4078ZM72.6764 65.1223V98.607L101.028 81.695L100.952 48.3048L72.6764 65.1223Z" fill="#292A2E"/>
<path d="M53.6451 82.3496L53.5668 47.8431L82.7272 30.4482V65.0529L53.6451 82.3496ZM53.9717 48.1607L54.0475 81.5509L82.3229 64.7339V31.249L53.9717 48.1607Z" fill="#292A2E"/>
<path d="M101.355 82.4477L82.3229 65.0211V30.3501L101.433 47.8744V48.0026L101.355 82.4477ZM82.7272 64.7652L100.953 81.4534L101.029 48.1295L82.7278 31.3476L82.7272 64.7652Z" fill="#292A2E"/>
<path d="M72.4742 66.2251C73.0324 66.2251 73.485 65.6599 73.485 64.9626C73.485 64.2654 73.0324 63.7002 72.4742 63.7002C71.916 63.7002 71.4635 64.2654 71.4635 64.9626C71.4635 65.6599 71.916 66.2251 72.4742 66.2251Z" fill="#367CFF"/>
<path d="M82.525 32.111C83.0832 32.111 83.5357 31.5458 83.5357 30.8486C83.5357 30.1514 83.0832 29.5862 82.525 29.5862C81.9667 29.5862 81.5142 30.1514 81.5142 30.8486C81.5142 31.5458 81.9667 32.111 82.525 32.111Z" fill="#367CFF"/>
<path d="M72.4742 99.8999C73.0324 99.8999 73.485 99.3347 73.485 98.6374C73.485 97.9402 73.0324 97.375 72.4742 97.375C71.916 97.375 71.4635 97.9402 71.4635 98.6374C71.4635 99.3347 71.916 99.8999 72.4742 99.8999Z" fill="#367CFF"/>
<path d="M101.231 49.1679C101.789 49.1679 102.242 48.6027 102.242 47.9055C102.242 47.2083 101.789 46.6431 101.231 46.6431C100.673 46.6431 100.22 47.2083 100.22 47.9055C100.22 48.6027 100.673 49.1679 101.231 49.1679Z" fill="#367CFF"/>
<path d="M53.7692 49.1679C54.3274 49.1679 54.7799 48.6027 54.7799 47.9055C54.7799 47.2083 54.3274 46.6431 53.7692 46.6431C53.211 46.6431 52.7585 47.2083 52.7585 47.9055C52.7585 48.6027 53.211 49.1679 53.7692 49.1679Z" fill="#367CFF"/>
<path d="M101.231 83.5537C101.789 83.5537 102.242 82.9885 102.242 82.2912C102.242 81.594 101.789 81.0288 101.231 81.0288C100.673 81.0288 100.22 81.594 100.22 82.2912C100.22 82.9885 100.673 83.5537 101.231 83.5537Z" fill="#367CFF"/>
<path d="M53.7692 83.5537C54.3274 83.5537 54.7799 82.9885 54.7799 82.2912C54.7799 81.594 54.3274 81.0288 53.7692 81.0288C53.211 81.0288 52.7585 81.594 52.7585 82.2912C52.7585 82.9885 53.211 83.5537 53.7692 83.5537Z" fill="#367CFF"/>
<path d="M82.525 66.2251C83.0832 66.2251 83.5357 65.6599 83.5357 64.9626C83.5357 64.2654 83.0832 63.7002 82.525 63.7002C81.9667 63.7002 81.5142 64.2654 81.5142 64.9626C81.5142 65.6599 81.9667 66.2251 82.525 66.2251Z" fill="#367CFF"/>
<path d="M85.5471 42.1515L83.5848 46.1958C83.54 46.2876 83.5251 46.3974 83.5432 46.5025C83.5613 46.6075 83.611 46.6999 83.6821 46.7606L86.9231 49.5435C86.9595 49.5758 87.0007 49.5986 87.0443 49.6108C87.0879 49.623 87.1329 49.6243 87.1769 49.6145C87.2209 49.6048 87.2629 49.5842 87.3004 49.554C87.338 49.5238 87.3703 49.4846 87.3956 49.4386C87.4209 49.3926 87.4387 49.3408 87.4478 49.2862C87.4569 49.2316 87.4572 49.1753 87.4488 49.1205C87.4403 49.0658 87.4232 49.0136 87.3985 48.9672C87.3738 48.9207 87.3419 48.8809 87.3047 48.85L84.6892 46.604C85.9839 46.1159 89.202 45.4502 92.2044 49.2003C95.9891 53.9273 93.8935 59.3896 93.8009 59.6238C93.7627 59.7234 93.7574 59.8378 93.7862 59.9423C93.815 60.0468 93.8755 60.1329 93.9547 60.1822C94.0339 60.2314 94.1254 60.2397 94.2095 60.2054C94.2936 60.171 94.3635 60.0968 94.4041 59.9986C94.4286 59.9368 96.8164 53.7706 92.6808 48.6051C89.532 44.6722 86.0638 45.267 84.5723 45.7841L86.1234 42.5876C86.1686 42.4922 86.1819 42.3784 86.1603 42.2709C86.1387 42.1633 86.084 42.0708 86.0081 42.0133C85.9322 41.9559 85.8412 41.9381 85.7548 41.964C85.6685 41.9899 85.5939 42.0573 85.5471 42.1515Z" fill="#0CBC8B"/>
<path d="M90.6507 44.9968L92.4847 46.8327L92.3335 46.4777C92.2865 46.3618 92.2764 46.228 92.3054 46.1033C92.3343 45.9785 92.4001 45.8722 92.4894 45.8057C92.5365 45.7734 92.5884 45.7535 92.6418 45.747C92.6953 45.7406 92.7492 45.7479 92.8004 45.7683C92.8515 45.7888 92.8988 45.8221 92.9393 45.8662C92.9798 45.9102 93.0126 45.9641 93.0359 46.0245L94.2178 49.0636C94.367 49.4473 94.3903 49.8886 94.2826 50.2934C94.175 50.6981 93.945 51.0344 93.6417 51.2303C93.2896 51.4578 92.8911 51.5487 92.4973 51.4915C92.1035 51.4343 91.7324 51.2315 91.4315 50.9092L90.0704 49.4457C89.9984 49.3715 89.9492 49.2684 89.9311 49.154C89.9131 49.0396 89.9273 48.9209 89.9713 48.8181C90.0126 48.7263 90.0762 48.6533 90.153 48.6099C90.2298 48.5665 90.3157 48.5549 90.3981 48.5768C90.3984 48.5711 90.3996 48.5654 90.4017 48.5602C90.4038 48.555 90.4067 48.5504 90.4102 48.5467C90.4138 48.5429 90.4179 48.5401 90.4224 48.5385C90.4268 48.5368 90.4315 48.5363 90.4361 48.537L90.1843 48.2676C90.1077 48.1892 90.0565 48.0788 90.04 47.9569C90.0236 47.8349 90.043 47.7097 90.0948 47.6043C90.1486 47.502 90.231 47.4284 90.3258 47.3977C90.4207 47.367 90.5213 47.3815 90.6081 47.4383C90.6079 47.4331 90.6084 47.4278 90.6096 47.4228L90.5064 47.3121C90.4382 47.2356 90.3915 47.1337 90.3733 47.0216C90.355 46.9094 90.3661 46.7929 90.405 46.6893C90.4546 46.5759 90.5378 46.4912 90.6367 46.4535C90.7357 46.4157 90.8425 46.4279 90.9344 46.4873L90.9387 46.4794L90.1681 45.7081C90.1286 45.6685 90.096 45.6194 90.0722 45.5635C90.0485 45.5077 90.0341 45.4465 90.0299 45.3835C90.0257 45.3205 90.0318 45.2571 90.0478 45.1972C90.0639 45.1372 90.0895 45.082 90.1232 45.0348C90.1909 44.9461 90.283 44.8929 90.3809 44.8858C90.4789 44.8788 90.5753 44.9184 90.6507 44.9968Z" fill="#E98862"/>
<path opacity="0.2" d="M90.9268 46.5418C90.9292 46.5464 90.9321 46.5504 90.9354 46.5538L91.6909 47.2921C91.6987 47.2996 91.7085 47.303 91.7183 47.3015C91.7281 47.3 91.737 47.2938 91.743 47.2841C91.7491 47.2744 91.7518 47.2621 91.7506 47.2499C91.7494 47.2377 91.7444 47.2266 91.7366 47.219L90.9813 46.4807C90.9744 46.4745 90.9659 46.4714 90.9574 46.472C90.9489 46.4726 90.9408 46.4768 90.9345 46.484C90.9281 46.4911 90.924 46.5008 90.9227 46.5113C90.9214 46.5219 90.923 46.5326 90.9274 46.5418H90.9268Z" fill="#0C0C0C"/>
<path opacity="0.2" d="M90.6124 47.4577C90.6147 47.4622 90.6175 47.4661 90.6208 47.4694L91.2111 48.0555C91.2188 48.0632 91.2286 48.0667 91.2384 48.0653C91.2481 48.0639 91.2571 48.0578 91.2632 48.0481C91.2693 48.0385 91.2722 48.0263 91.271 48.014C91.2699 48.0018 91.265 47.9907 91.2573 47.983L90.6671 47.3969C90.6603 47.3902 90.6517 47.3867 90.643 47.387C90.6343 47.3873 90.626 47.3915 90.6194 47.3987C90.6129 47.4059 90.6087 47.4158 90.6074 47.4266C90.6061 47.4374 90.6079 47.4484 90.6124 47.4577Z" fill="#0C0C0C"/>
<path opacity="0.2" d="M90.4026 48.6064C90.405 48.6113 90.4081 48.6155 90.4117 48.6189L90.6956 48.8882C90.7035 48.8948 90.713 48.8973 90.7224 48.8954C90.7317 48.8934 90.7401 48.8871 90.7459 48.8776C90.7516 48.8682 90.7542 48.8564 90.7532 48.8446C90.7522 48.8329 90.7476 48.822 90.7404 48.8143L90.4565 48.545C90.4496 48.5384 90.441 48.535 90.4323 48.5354C90.4236 48.5359 90.4154 48.5402 90.4089 48.5475C90.4025 48.5548 90.3983 48.5647 90.3972 48.5755C90.396 48.5863 90.3979 48.5972 90.4026 48.6064Z" fill="#0C0C0C"/>
<path d="M111.889 58.2088L102.244 62.807C101.785 63.0297 101.285 63.0854 100.801 62.9675C100.318 62.8497 99.8711 62.5632 99.5128 62.1413L90.9493 52.0587L94.5251 47.3215L101.891 55.9946L110.002 52.14L111.889 58.2088Z" fill="#367CFF"/>
<path d="M121.678 124.398C121.678 124.398 121.243 127.22 119.127 127.378C117.012 127.535 117.471 129.639 117.471 129.639H125.554V124.595L121.678 124.398Z" fill="#367CFF"/>
<path d="M124.171 72.9301C124.171 72.9301 124.146 72.082 124.151 74.0059C124.171 81.1824 124.271 89.3795 124.515 94.1764C124.907 101.887 125.911 126.199 125.911 126.199L120.6 126.143L115.451 72.6384L124.171 72.9301Z" fill="#262626"/>
<path d="M118.174 81.3928C118.174 81.3928 117.954 86.6006 117.913 87.8228C117.818 90.6507 117.785 93.578 117.785 96.8972L116.948 88.1957C116.948 88.1957 117.561 85.4691 118.174 81.3928Z" fill="#0A0A0A"/>
<path d="M112.223 124.398C112.223 124.398 111.787 127.22 109.672 127.378C107.557 127.535 108.016 129.639 108.016 129.639H116.098V124.595L112.223 124.398Z" fill="#367CFF"/>
<path d="M109.652 73.4873C109.652 73.4873 109.181 98.0147 109.25 99.2136L111.225 126.013L116.448 126.134L115.939 98.2443C115.939 98.2443 116.298 90.5511 117.787 83.4074C118.548 79.7409 119.006 75.9866 119.154 72.2034L109.652 73.4873Z" fill="#262626"/>
<path d="M124.229 72.9292L124.246 72.9304C124.246 72.9304 124.234 72.5121 124.229 72.9292Z" fill="#333333"/>
<path d="M108.904 59.8732C109.013 61.4803 109.546 71.5078 109.652 73.4874H124.166C124.248 71.702 124.616 63.8943 124.927 60.4027C125.224 57.0709 125.806 55.4035 125.379 54.4178C124.682 52.8079 122.776 51.8776 121.476 51.6573C120.683 51.5226 119.489 51.427 119.489 51.427C119.489 51.427 119.388 53.9803 116.978 54.1224C113.698 54.3158 113.917 51.427 113.901 51.427C113.37 51.427 110.276 51.7391 109.591 52.3969C108.394 53.5481 108.671 56.467 108.904 59.8732Z" fill="#367CFF"/>
<path d="M108.917 59.6181C108.905 59.618 108.893 59.6121 108.884 59.6016C108.875 59.591 108.87 59.5765 108.869 59.5612L108.752 57.009C108.751 57.0011 108.752 56.9932 108.754 56.9857C108.757 56.9783 108.76 56.9714 108.764 56.9655C108.768 56.9596 108.773 56.9548 108.779 56.9513C108.785 56.9479 108.791 56.9459 108.797 56.9454C108.804 56.945 108.81 56.9461 108.816 56.9487C108.822 56.9513 108.827 56.9553 108.832 56.9606C108.837 56.9659 108.841 56.9722 108.843 56.9794C108.846 56.9865 108.848 56.9942 108.848 57.0021L108.965 59.5543C108.966 59.5622 108.965 59.5701 108.963 59.5776C108.961 59.585 108.957 59.5919 108.953 59.5978C108.949 59.6037 108.944 59.6086 108.938 59.612C108.932 59.6154 108.926 59.6174 108.92 59.6179L108.917 59.6181Z" fill="#0C0C0C"/>
<path d="M127.303 73.3822C127.73 73.3821 128.151 73.2533 128.529 73.0065C128.908 72.7598 129.233 72.4025 129.477 71.9651C129.721 71.5277 129.877 71.023 129.931 70.4942C129.985 69.9653 129.937 69.4279 129.789 68.9276C129.639 68.4198 126.123 56.7933 125.455 54.6389L120.499 57.1469C120.876 58.3589 122.239 62.9494 123.334 66.648L121.515 66.4009L120.942 72.9814L127.017 73.3632C127.112 73.3759 127.207 73.3823 127.303 73.3822Z" fill="#367CFF"/>
<path d="M112.57 51.5194C112.586 51.5169 113.004 53.4855 116.273 53.1791C118.535 52.9674 119.087 51.0437 119.139 51.0437C118.895 50.9789 118.499 50.9118 118.39 50.8394C118.203 50.7317 118.038 50.5715 117.909 50.3712C117.779 50.1709 117.689 49.936 117.644 49.6847C117.542 49.1966 117.49 47.3155 117.49 46.3721L114.008 47.3497C114.056 48.414 114.396 50.8815 113.206 51.3181C113.007 51.3895 112.794 51.4568 112.57 51.5194Z" fill="#E98862"/>
<path d="M114.128 49.4418C115.501 49.5765 117.264 48.8527 117.599 46.566L117.901 44.5022C118.236 42.215 117.546 40.141 115.822 39.7472C114.097 39.3533 112.537 40.9131 112.202 43.2003L112.069 44.114C111.94 44.9916 111.679 49.2013 114.128 49.4418Z" fill="#E98862"/>
<path d="M112.856 47.3418C113.102 45.7956 113.215 44.7641 113.202 43.6757C112.855 42.9154 112.946 42.043 113.025 41.6658C112.786 41.8554 112.505 41.9454 112.223 41.9228C112.223 41.9228 112.796 39.046 114.747 38.272C115.106 38.0976 116.022 37.8773 117.238 38.0857C118.272 38.2628 120.821 39.2288 121.186 42.8137V42.8158C121.198 42.9346 121.442 46.2378 121.93 47.8226C122.587 49.9531 123.507 50.6149 123.484 53.073C123.454 56.2348 118.8 56.6556 115.993 56.4191C113.186 56.1826 111.619 55.0297 111.599 52.7511C111.577 50.1981 112.363 50.4353 112.856 47.3418Z" fill="#0A0A0A"/>
<path d="M124.476 60.4704L124.119 73.4858L124.216 73.49L124.572 60.4745L124.476 60.4704Z" fill="#0C0C0C"/>
<path d="M0.134766 130H154.865C154.901 130 154.935 129.982 154.961 129.951C154.986 129.919 155 129.876 155 129.832C155 129.787 154.986 129.744 154.961 129.713C154.935 129.681 154.901 129.663 154.865 129.663H0.134766C0.0990241 129.663 0.0647457 129.681 0.0394721 129.713C0.0141986 129.744 0 129.787 0 129.832C0 129.876 0.0141986 129.919 0.0394721 129.951C0.0647457 129.982 0.0990241 130 0.134766 130Z" fill="#262626"/>
</g>
<defs>
<clipPath id="clip0_9_2171">
<rect width="155" height="130" fill="white"/>
</clipPath>
</defs>
</svg>
