<svg width="202" height="147" viewBox="0 0 202 147" fill="none" xmlns="http://www.w3.org/2000/svg">
<g clip-path="url(#clip0_9_1240)">
<path d="M174.242 125.106L21.601 120.459L63.244 21.8097L180.11 47.1404L180.065 47.7278L174.242 125.106ZM23.6198 119.165L172.986 123.712L178.668 48.2151L64.0555 23.3725L23.6198 119.165Z" fill="#F3F5FD"/>
<path d="M106.978 82.8298L63.1031 22.9916L64.1975 22.1906L107.409 81.1242L179.098 47.0656L179.681 48.2898L106.978 82.8298Z" fill="#F3F5FD"/>
<path d="M173.248 124.98L107.136 82.7451L22.8875 120.431L22.3333 119.194L107.25 81.2089L173.979 123.838L173.248 124.98Z" fill="#F3F5FD"/>
<path d="M63.6503 45.1822C76.1378 45.1822 86.2608 35.0678 86.2608 22.5911C86.2608 10.1144 76.1378 0 63.6503 0C51.1629 0 41.0399 10.1144 41.0399 22.5911C41.0399 35.0678 51.1629 45.1822 63.6503 45.1822Z" fill="#DEE8F5"/>
<path d="M179.39 70.2689C191.877 70.2689 202 60.1545 202 47.6778C202 35.201 191.877 25.0867 179.39 25.0867C166.902 25.0867 156.779 35.201 156.779 47.6778C156.779 60.1545 166.902 70.2689 179.39 70.2689Z" fill="#DEE8F5"/>
<path d="M107.193 104.568C119.681 104.568 129.804 94.4537 129.804 81.977C129.804 69.5002 119.681 59.3859 107.193 59.3859C94.7059 59.3859 84.5829 69.5002 84.5829 81.977C84.5829 94.4537 94.7059 104.568 107.193 104.568Z" fill="#DEE8F5"/>
<path d="M22.6105 142.403C35.0979 142.403 45.221 132.289 45.221 119.812C45.221 107.335 35.0979 97.2209 22.6105 97.2209C10.1231 97.2209 0 107.335 0 119.812C0 132.289 10.1231 142.403 22.6105 142.403Z" fill="#F3F5FD"/>
<path d="M173.614 147C186.101 147 196.224 136.886 196.224 124.409C196.224 111.932 186.101 101.818 173.614 101.818C161.126 101.818 151.003 111.932 151.003 124.409C151.003 136.886 161.126 147 173.614 147Z" fill="#DEE8F5"/>
<path d="M119.252 76.5613C119.326 77.4649 118.384 78.3064 118.228 79.1592C118.068 80.0403 118.644 81.1597 118.268 81.9501C117.887 82.7521 116.65 83.0119 116.078 83.6845C115.507 84.357 115.449 85.6176 114.718 86.1229C113.998 86.6199 112.799 86.233 111.955 86.5334C111.139 86.8237 110.46 87.8889 109.555 87.9618C108.65 88.0348 107.809 87.0937 106.956 86.9385C106.074 86.7778 104.954 87.3537 104.163 86.978C103.36 86.5969 103.1 85.3616 102.427 84.7903C101.754 84.219 100.492 84.1613 99.9865 83.4312C99.4879 82.7115 99.8764 81.5141 99.5757 80.6706C99.2849 79.855 98.219 79.1764 98.146 78.2725C98.073 77.3687 99.0149 76.5276 99.1703 75.6759C99.331 74.7949 98.7547 73.6755 99.1307 72.8848C99.5121 72.083 100.748 71.823 101.32 71.1507C101.892 70.4784 101.95 69.2176 102.681 68.7122C103.401 68.2152 104.599 68.6022 105.444 68.3017C106.26 68.0112 106.939 66.9463 107.843 66.8733C108.748 66.8003 109.59 67.7415 110.444 67.8967C111.325 68.0573 112.446 67.4814 113.237 67.8571C114.04 68.2382 114.3 69.4735 114.973 70.0449C115.646 70.6162 116.907 70.6738 117.413 71.4039C117.911 72.1235 117.523 73.321 117.824 74.1646C118.114 74.9799 119.18 75.6576 119.252 76.5613Z" fill="#0F1011"/>
<path d="M104.706 87.1874C104.706 87.1874 106.613 86.1794 106.192 80.9927L110.131 80.2666C110.131 80.2666 109.684 84.9158 111.675 86.394L104.706 87.1874Z" fill="#E98862"/>
<g opacity="0.15">
<path d="M110.869 85.4212L107.6 82.9175L110.169 82.8931C110.243 83.772 110.48 84.6294 110.869 85.4212Z" fill="black"/>
</g>
<path d="M103.959 78.9799C104.231 80.5536 105.09 82.0444 106.477 82.5538C107.991 83.1555 109.629 83.3781 111.248 83.2022C115.559 82.8529 114.715 73.0574 112.67 71.153C110.625 69.2485 104.617 70.4481 103.883 73.6296C103.504 75.2752 103.701 77.4819 103.959 78.9799Z" fill="#E98862"/>
<path d="M110.128 77.773C110.325 77.773 110.485 77.6133 110.485 77.4163C110.485 77.2193 110.325 77.0596 110.128 77.0596C109.931 77.0596 109.771 77.2193 109.771 77.4163C109.771 77.6133 109.931 77.773 110.128 77.773Z" fill="#0F1011"/>
<path d="M112.946 77.5448C113.143 77.5448 113.303 77.3851 113.303 77.1881C113.303 76.9911 113.143 76.8314 112.946 76.8314C112.749 76.8314 112.589 76.9911 112.589 77.1881C112.589 77.3851 112.749 77.5448 112.946 77.5448Z" fill="#0F1011"/>
<path d="M113.566 76.4281H113.563L112.617 76.4153C112.595 76.415 112.574 76.4104 112.553 76.4017C112.533 76.393 112.515 76.3804 112.499 76.3646C112.484 76.3489 112.472 76.3302 112.464 76.3098C112.455 76.2893 112.451 76.2674 112.452 76.2454C112.452 76.2233 112.456 76.2014 112.465 76.1811C112.473 76.1608 112.486 76.1424 112.502 76.127C112.518 76.1116 112.536 76.0995 112.557 76.0914C112.578 76.0833 112.6 76.0795 112.622 76.08L113.568 76.0927C113.611 76.0945 113.652 76.1132 113.682 76.1446C113.712 76.1761 113.729 76.218 113.729 76.2615C113.728 76.305 113.711 76.3466 113.681 76.3777C113.65 76.4088 113.609 76.4269 113.566 76.4281Z" fill="#0F1011"/>
<path d="M109.358 76.7691C109.316 76.7691 109.277 76.7541 109.246 76.7268C109.215 76.6995 109.196 76.6618 109.191 76.621C109.186 76.5802 109.196 76.539 109.22 76.5054C109.244 76.4717 109.279 76.4478 109.319 76.4384L110.252 76.2149C110.273 76.2093 110.296 76.208 110.318 76.2112C110.34 76.2143 110.361 76.2219 110.381 76.2333C110.4 76.2448 110.416 76.26 110.43 76.278C110.443 76.296 110.452 76.3164 110.457 76.3381C110.463 76.3598 110.463 76.3823 110.46 76.4043C110.456 76.4264 110.448 76.4474 110.436 76.4663C110.424 76.4852 110.409 76.5015 110.391 76.5143C110.372 76.5272 110.352 76.5362 110.33 76.5409L109.397 76.7643C109.384 76.7675 109.371 76.7691 109.358 76.7691Z" fill="#0F1011"/>
<path d="M110.291 80.227C110.291 80.227 111.609 80.3673 112.533 80.0463C112.533 80.0463 112.525 80.914 111.482 80.9985C110.438 81.083 110.291 80.227 110.291 80.227Z" fill="white"/>
<path d="M106.864 74.9058C107.122 78.5939 106.716 82.2985 105.664 85.8431C105.664 85.8431 102.659 80.6645 102.194 76.353C101.758 72.3112 104.741 69.9279 106.755 69.4797C114.409 67.7768 114.96 73.3633 114.96 73.3633C113.566 76.2604 106.035 76.2477 106.035 76.2477" fill="#0F1011"/>
<path d="M108.323 78.953C108.343 79.3459 108.209 79.7311 107.949 80.027C107.69 80.3229 107.325 80.5061 106.932 80.5379C106.54 80.5697 106.15 80.4475 105.847 80.1973C105.543 79.947 105.348 79.5884 105.304 79.1974C105.285 78.9988 105.306 78.7982 105.365 78.6077C105.425 78.4172 105.522 78.2406 105.652 78.0885C105.781 77.9364 105.94 77.8119 106.118 77.7223C106.297 77.6328 106.492 77.58 106.691 77.5672C107.771 77.5327 108.255 78.12 108.323 78.953Z" fill="#E98862"/>
<g opacity="0.15">
<path d="M111.712 79.3973C111.682 79.3973 111.654 79.3868 111.631 79.3675C111.609 79.3483 111.594 79.3217 111.59 79.2925C111.586 79.2633 111.592 79.2336 111.608 79.2086C111.623 79.1837 111.647 79.1652 111.676 79.1565L112.402 78.9342L111.895 77.8031C111.889 77.7883 111.885 77.7723 111.885 77.756C111.884 77.7398 111.887 77.7236 111.893 77.7085C111.899 77.6933 111.907 77.6794 111.918 77.6676C111.93 77.6558 111.943 77.6464 111.958 77.6398C111.973 77.6331 111.989 77.6295 112.005 77.6291C112.021 77.6286 112.037 77.6314 112.053 77.6372C112.068 77.643 112.082 77.6518 112.093 77.6629C112.105 77.6741 112.115 77.6875 112.121 77.7023L112.687 78.9607C112.694 78.9766 112.697 78.9939 112.697 79.0113C112.697 79.0288 112.693 79.0461 112.686 79.062C112.679 79.0779 112.669 79.0921 112.655 79.1036C112.642 79.1152 112.627 79.1238 112.61 79.129L111.75 79.3919C111.738 79.3957 111.725 79.3975 111.712 79.3973Z" fill="black"/>
</g>
<path d="M74.9286 42.176L73.5856 38.6744C73.6079 40.0304 73.7188 41.3835 73.9177 42.725C70.9038 44.2553 67.5855 45.0928 64.2058 45.176C60.826 45.2593 57.4705 44.5863 54.3847 43.2062C54.8956 41.6254 55.1542 39.9741 55.151 38.313C55.14 37.5222 55.0507 36.7344 54.8844 35.9612L52.7342 42.3794C51.0822 41.4684 49.5508 40.3542 48.1759 39.063L53.157 24.2071L53.1932 24.2206C53.4474 23.6335 53.812 23.1005 54.2672 22.6506C55.3954 21.5255 57.3399 20.8004 59.7115 20.7981C59.8881 22.1784 68.2834 22.1829 68.3487 20.8297C68.6676 20.8342 68.9185 20.8388 69.0723 20.8455C72.7304 21.0037 74.033 22.951 74.3496 25.6687L79.3917 38.8077C78.0495 40.111 76.5503 41.2424 74.9286 42.176Z" fill="#9EBCEA"/>
<path d="M68.3483 20.829C68.2843 22.1844 67.5472 24.1763 65.2719 24.3265C62.2398 24.526 59.8881 22.1788 59.7097 20.7971H59.7172C62.7033 20.7971 66.608 20.8021 68.3483 20.829Z" fill="#E98862"/>
<path d="M60.327 22.1595C60.327 22.1595 62.2333 21.1499 61.8076 15.9637L65.7459 15.234C65.7459 15.234 65.3034 19.8837 67.2958 21.36L60.327 22.1595Z" fill="#E98862"/>
<g opacity="0.15">
<path d="M66.4888 20.388L63.2171 17.8871L65.7868 17.8605C65.8612 18.7393 66.0993 19.5965 66.4888 20.388Z" fill="black"/>
</g>
<path d="M59.573 13.9527C59.8456 15.5261 60.7051 17.0162 62.0943 17.5243C63.6081 18.1247 65.246 18.3459 66.8651 18.1686C71.1764 17.8153 70.3245 8.02069 68.2766 6.11829C66.2288 4.2159 60.2226 5.42046 59.4918 8.60331C59.1149 10.2484 59.3136 12.4551 59.573 13.9527Z" fill="#E98862"/>
<path d="M69.6997 6.45651C69.5711 6.25245 69.3909 6.08592 69.1772 5.97374C67.2625 4.93342 63.7145 4.5731 62.0097 5.08298C60.0328 5.67396 57.5538 7.33011 58.1899 11.3452C58.2165 11.5142 58.2455 11.6771 58.2753 11.837C57.651 11.7308 57.0095 11.7982 56.421 12.032C55.8325 12.2657 55.3198 12.6568 54.9389 13.1623C54.558 13.6678 54.3237 14.2683 54.2616 14.898C54.1995 15.5277 54.3121 16.1623 54.587 16.7323C54.8618 17.3024 55.2884 17.7859 55.8199 18.1298C56.3515 18.4738 56.9675 18.665 57.6005 18.6825C58.2336 18.6999 58.8592 18.543 59.409 18.2289C59.9587 17.9147 60.4113 17.4555 60.7173 16.9015C61.0106 17.1547 61.3274 17.3793 61.6635 17.5722C61.8993 17.7123 61.9574 17.5982 62.0384 17.3364C62.3242 16.4226 62.6037 12.8075 62.3809 10.1827L67.0267 10.0223L67.8359 7.72116L68.4996 10.0223H70.0823C70.2923 8.77549 70.511 7.36219 69.6997 6.45651Z" fill="#0F1011"/>
<path d="M65.7404 12.7406C65.9376 12.7406 66.0974 12.5809 66.0974 12.3839C66.0974 12.1869 65.9376 12.0272 65.7404 12.0272C65.5432 12.0272 65.3834 12.1869 65.3834 12.3839C65.3834 12.5809 65.5432 12.7406 65.7404 12.7406Z" fill="#0F1011"/>
<path d="M68.5581 12.5098C68.7553 12.5098 68.9151 12.3501 68.9151 12.1531C68.9151 11.9561 68.7553 11.7964 68.5581 11.7964C68.3609 11.7964 68.2011 11.9561 68.2011 12.1531C68.2011 12.3501 68.3609 12.5098 68.5581 12.5098Z" fill="#0F1011"/>
<path d="M69.1772 11.3924H69.1752L68.2289 11.3807C68.1844 11.3801 68.1419 11.3618 68.1109 11.33C68.0798 11.2981 68.0626 11.2553 68.0632 11.2108C68.0656 11.1669 68.0843 11.1256 68.1158 11.095C68.1472 11.0643 68.1891 11.0467 68.233 11.0454L69.179 11.0572C69.2235 11.0574 69.2661 11.0753 69.2974 11.1069C69.3287 11.1385 69.3461 11.1812 69.3459 11.2257C69.3456 11.2701 69.3277 11.3127 69.2961 11.344C69.2645 11.3752 69.2217 11.3926 69.1772 11.3924Z" fill="#0F1011"/>
<path d="M64.9692 11.7371C64.928 11.7372 64.8882 11.7222 64.8574 11.6949C64.8266 11.6676 64.807 11.63 64.8021 11.5892C64.7973 11.5483 64.8077 11.5071 64.8312 11.4734C64.8548 11.4397 64.89 11.4159 64.93 11.4064L65.863 11.182C65.8844 11.1769 65.9066 11.176 65.9284 11.1794C65.9501 11.1828 65.971 11.1905 65.9898 11.202C66.0086 11.2135 66.025 11.2285 66.038 11.2463C66.0509 11.2641 66.0603 11.2843 66.0654 11.3057C66.0706 11.3271 66.0715 11.3493 66.0681 11.3711C66.0646 11.3928 66.057 11.4137 66.0455 11.4325C66.034 11.4513 66.0189 11.4676 66.0011 11.4806C65.9833 11.4935 65.9631 11.5029 65.9416 11.508L65.0087 11.7326C64.9958 11.7356 64.9825 11.7372 64.9692 11.7371Z" fill="#0F1011"/>
<path d="M63.8823 13.2571C63.9036 13.6507 63.7704 14.0371 63.511 14.3341C63.2517 14.631 62.8866 14.8152 62.4934 14.8475C62.1003 14.8797 61.71 14.7574 61.4057 14.5066C61.1013 14.2558 60.9069 13.8963 60.8638 13.5045C60.8441 13.3058 60.8646 13.1052 60.9241 12.9146C60.9836 12.724 61.0809 12.5473 61.2102 12.3951C61.3395 12.2428 61.4981 12.1182 61.6766 12.0285C61.8552 11.9388 62.0499 11.8859 62.2493 11.873C63.3285 11.8377 63.8138 12.4251 63.8823 13.2571Z" fill="#E98862"/>
<g opacity="0.15">
<path d="M67.3259 14.3634C67.2964 14.3634 67.2678 14.3528 67.2455 14.3336C67.2231 14.3144 67.2084 14.2877 67.204 14.2586C67.1996 14.2294 67.2059 14.1997 67.2216 14.1747C67.2373 14.1497 67.2615 14.1313 67.2897 14.1226L68.0162 13.8996L67.5079 12.7689C67.5013 12.7541 67.4976 12.7381 67.4972 12.7219C67.4967 12.7056 67.4995 12.6895 67.5053 12.6743C67.5111 12.6591 67.5198 12.6452 67.531 12.6334C67.5422 12.6216 67.5556 12.6121 67.5704 12.6055C67.5853 12.5989 67.6013 12.5952 67.6175 12.5948C67.6338 12.5943 67.65 12.5971 67.6652 12.6029C67.6803 12.6087 67.6942 12.6174 67.7061 12.6286C67.7179 12.6397 67.7274 12.6531 67.734 12.668L68.2993 13.9261C68.3064 13.942 68.3102 13.9592 68.3101 13.9767C68.3101 13.9941 68.3064 14.0114 68.2992 14.0273C68.292 14.0432 68.2815 14.0574 68.2683 14.0689C68.2552 14.0804 68.2398 14.089 68.2231 14.0941L67.3639 14.358C67.3516 14.3617 67.3387 14.3636 67.3259 14.3634Z" fill="black"/>
</g>
<path d="M65.9055 15.1945C65.9055 15.1945 67.2241 15.3335 68.1482 15.0109C68.1482 15.0109 68.141 15.8784 67.0975 15.964C66.054 16.0496 65.9055 15.1945 65.9055 15.1945Z" fill="white"/>
<path d="M184.445 50.0329C184.445 50.0329 182.538 49.0231 182.964 43.8371L179.026 43.1074C179.026 43.1074 179.468 47.7571 177.476 49.2334L184.445 50.0329Z" fill="#E98862"/>
<g opacity="0.15">
<path d="M178.284 48.2614L181.555 45.7605L178.986 45.7339C178.911 46.6127 178.673 47.4699 178.284 48.2614Z" fill="black"/>
</g>
<path d="M185.199 41.826C184.926 43.3995 184.067 44.8893 182.677 45.3976C181.164 45.998 179.526 46.2192 177.907 46.0419C173.595 45.6886 174.447 35.894 176.495 33.9914C178.543 32.0888 184.549 33.2938 185.28 36.4764C185.657 38.1217 185.458 40.3284 185.199 41.826Z" fill="#E98862"/>
<path d="M173.478 33.0824C173.478 31.7813 175.099 29.6497 179.422 32.5892L179.426 32.5919C180.549 32.5607 181.671 32.6833 182.761 32.9563C183.542 33.1818 184.271 33.5565 184.909 34.0597C186.112 35.0351 186.989 36.6396 186.581 39.2186C185.871 43.6997 184.034 44.8957 183.108 45.4453C182.872 45.5854 182.814 45.4713 182.733 45.2097C182.476 44.2422 182.292 43.2568 182.183 42.2618C182.042 41.226 181.112 40.5695 181.225 39.3306C181.264 38.8975 181.962 37.3103 179.802 37.2929C178.587 37.2832 179.041 37.3313 177.744 37.3313C177.56 37.3313 177.396 37.3229 177.247 37.3087H177.245C172.768 37.3103 173.478 34.3836 173.478 33.0824Z" fill="#0F1011"/>
<path d="M180.889 41.1304C180.868 41.5239 181.001 41.9102 181.261 42.2071C181.52 42.504 181.885 42.6881 182.278 42.7203C182.671 42.7525 183.062 42.6302 183.366 42.3795C183.67 42.1287 183.865 41.7693 183.908 41.3776C183.928 41.1789 183.907 40.9783 183.847 40.7877C183.788 40.5972 183.691 40.4205 183.561 40.2683C183.432 40.1161 183.273 39.9914 183.095 39.9017C182.916 39.812 182.722 39.7592 182.522 39.7463C181.443 39.711 180.958 40.2977 180.889 41.1304Z" fill="#E98862"/>
<path d="M181.555 36.3309L182.67 36.7389C182.67 36.7389 182.274 42.3047 181.962 43.8262C181.65 45.3477 180.777 46.3383 179.788 46.4242C178.269 46.5543 177.168 46.5647 176.053 46.1666C174.796 45.718 174.973 42.3487 174.973 42.3487C174.973 42.3487 179.016 42.7866 180.135 42.2496C181.254 41.7126 181.555 36.3309 181.555 36.3309Z" fill="#0F1011"/>
<path d="M179.031 40.6138C179.228 40.6138 179.388 40.4541 179.388 40.2571C179.388 40.0601 179.228 39.9004 179.031 39.9004C178.834 39.9004 178.674 40.0601 178.674 40.2571C178.674 40.4541 178.834 40.6138 179.031 40.6138Z" fill="#0F1011"/>
<path d="M176.214 40.383C176.411 40.383 176.571 40.2233 176.571 40.0263C176.571 39.8293 176.411 39.6696 176.214 39.6696C176.016 39.6696 175.857 39.8293 175.857 40.0263C175.857 40.2233 176.016 40.383 176.214 40.383Z" fill="#0F1011"/>
<path d="M175.594 39.2658C175.55 39.2661 175.507 39.2487 175.475 39.2175C175.444 39.1863 175.426 39.1438 175.426 39.0993C175.425 39.0549 175.443 39.0121 175.474 38.9805C175.505 38.9488 175.548 38.9309 175.592 38.9306L176.539 38.9186H176.541C176.585 38.9183 176.628 38.9357 176.66 38.967C176.691 38.9982 176.709 39.0407 176.71 39.0852C176.71 39.1296 176.693 39.1724 176.661 39.204C176.63 39.2356 176.587 39.2536 176.543 39.2538L175.597 39.2658H175.594Z" fill="#0F1011"/>
<path d="M179.802 39.6103C179.789 39.6103 179.776 39.6088 179.763 39.6057L178.83 39.3814C178.787 39.371 178.749 39.3439 178.726 39.306C178.703 39.268 178.696 39.2225 178.706 39.1792C178.716 39.136 178.744 39.0987 178.782 39.0755C178.82 39.0522 178.865 39.045 178.908 39.0554L179.841 39.2798C179.881 39.2894 179.916 39.3133 179.939 39.347C179.963 39.3806 179.973 39.4216 179.968 39.4623C179.964 39.503 179.944 39.5405 179.913 39.5678C179.883 39.595 179.843 39.6101 179.802 39.6103Z" fill="#0F1011"/>
<g opacity="0.15">
<path d="M177.446 42.2365C177.475 42.2365 177.504 42.2259 177.526 42.2067C177.549 42.1874 177.563 42.1608 177.568 42.1317C177.572 42.1025 177.566 42.0727 177.55 42.0478C177.534 42.0228 177.51 42.0043 177.482 41.9957L176.755 41.7727L177.264 40.6432C177.276 40.6136 177.276 40.5804 177.264 40.5507C177.252 40.521 177.229 40.497 177.2 40.4839C177.171 40.4708 177.138 40.4696 177.108 40.4805C177.077 40.4914 177.053 40.5136 177.039 40.5424L176.474 41.8005C176.466 41.8164 176.463 41.8337 176.463 41.8511C176.463 41.8686 176.466 41.8858 176.474 41.9017C176.481 41.9176 176.491 41.9318 176.504 41.9434C176.518 41.9549 176.533 41.9635 176.55 41.9686L177.409 42.2322C177.421 42.2356 177.433 42.237 177.446 42.2365Z" fill="black"/>
</g>
<path d="M178.866 43.0678C178.866 43.0678 177.548 43.2067 176.623 42.8839C176.623 42.8839 176.631 43.7516 177.674 43.837C178.718 43.9224 178.866 43.0678 178.866 43.0678Z" fill="white"/>
<path d="M195.562 63.4613C194.226 64.8307 192.721 66.0249 191.083 67.0149L189.957 63.6533C189.791 64.4258 189.701 65.2128 189.69 66.0028C189.69 66.5846 189.721 67.1661 189.783 67.7446C186.921 69.221 183.777 70.0709 180.561 70.2376C177.344 70.4043 174.129 69.884 171.129 68.7115C171.193 68.0066 171.238 67.2272 171.256 66.3642L170.46 68.4381C168.786 67.7197 167.206 66.7995 165.755 65.6978L170.492 53.3563C170.808 50.6408 172.111 48.6935 175.767 48.5354C175.923 48.5286 176.172 48.5241 176.493 48.5195C176.556 49.8727 184.954 49.8682 185.13 48.4879C187.502 48.4902 189.446 49.2153 190.572 50.3426C191.029 50.7908 191.393 51.3233 191.646 51.9105L191.685 51.8969L195.562 63.4613Z" fill="#8DDBE0"/>
<path d="M176.492 48.519C176.556 49.8745 177.294 51.8664 179.569 52.0166C182.601 52.2161 184.953 49.8689 185.131 48.4872H185.124C182.137 48.4872 178.233 48.4919 176.492 48.519Z" fill="#E98862"/>
<path d="M181.442 114.361C181.479 110.699 180.031 108.43 178.067 107.184C176.129 105.954 170.051 104.884 167.747 109.347C166.244 112.26 166.837 113.301 166.411 117.966C165.986 122.63 164.349 123.12 162.69 128.774C161.388 133.209 168.679 135.563 174.993 135.36C181.308 135.156 185.31 133.76 185.676 129.747C186.202 123.989 181.367 121.538 181.442 114.361Z" fill="#0F1011"/>
<path d="M177.68 124.487C177.68 124.487 175.783 123.459 176.255 118.277L172.324 117.512C172.324 117.512 172.724 122.166 170.718 123.623L177.68 124.487Z" fill="#E98862"/>
<g opacity="0.15">
<path d="M171.534 122.659L174.829 120.188L172.26 120.138C172.177 121.016 171.931 121.871 171.534 122.659Z" fill="black"/>
</g>
<path d="M178.51 116.287C178.223 117.858 177.35 119.34 175.956 119.835C174.437 120.422 172.796 120.628 171.179 120.436C166.871 120.043 167.813 110.257 169.878 108.372C171.942 106.488 177.938 107.748 178.639 110.937C179.001 112.587 178.782 114.792 178.51 116.287Z" fill="#E98862"/>
<path d="M172.356 115.018C172.554 115.018 172.713 114.859 172.713 114.662C172.713 114.465 172.554 114.305 172.356 114.305C172.159 114.305 171.999 114.465 171.999 114.662C171.999 114.859 172.159 115.018 172.356 115.018Z" fill="#0F1011"/>
<path d="M169.541 114.762C169.738 114.762 169.898 114.602 169.898 114.405C169.898 114.208 169.738 114.048 169.541 114.048C169.343 114.048 169.184 114.208 169.184 114.405C169.184 114.602 169.343 114.762 169.541 114.762Z" fill="#0F1011"/>
<path d="M168.93 113.639C168.886 113.639 168.843 113.621 168.812 113.59C168.78 113.558 168.762 113.516 168.762 113.471C168.762 113.427 168.78 113.384 168.812 113.353C168.843 113.321 168.886 113.304 168.93 113.304L169.877 113.3C169.92 113.302 169.961 113.32 169.991 113.351C170.022 113.383 170.038 113.424 170.038 113.468C170.038 113.511 170.022 113.553 169.991 113.584C169.961 113.616 169.92 113.634 169.877 113.636L168.93 113.639Z" fill="#0F1011"/>
<path d="M173.135 114.022C173.121 114.022 173.107 114.02 173.094 114.017L172.163 113.784C172.12 113.774 172.082 113.746 172.06 113.708C172.037 113.67 172.03 113.624 172.041 113.581C172.052 113.538 172.079 113.501 172.118 113.478C172.156 113.455 172.201 113.448 172.245 113.459L173.175 113.692C173.215 113.702 173.25 113.726 173.273 113.759C173.296 113.793 173.306 113.834 173.301 113.875C173.296 113.915 173.277 113.953 173.246 113.98C173.215 114.007 173.176 114.022 173.135 114.022Z" fill="#0F1011"/>
<path d="M172.165 117.471C172.165 117.471 170.845 117.597 169.924 117.267C169.924 117.267 169.924 118.135 170.966 118.23C172.008 118.325 172.165 117.471 172.165 117.471Z" fill="white"/>
<path d="M175.646 112.184C175.739 119.29 176.425 122.051 176.425 122.051C176.425 122.051 179.793 117.985 180.301 113.678C180.777 109.641 177.819 107.227 175.809 106.759C168.172 104.979 167.642 110.545 167.642 110.545C168.136 112.444 176.473 113.622 176.473 113.622" fill="#0F1011"/>
<path d="M174.146 116.216C174.121 116.417 174.137 116.622 174.193 116.817C174.249 117.012 174.343 117.193 174.47 117.351C174.598 117.509 174.756 117.64 174.934 117.735C175.113 117.831 175.31 117.89 175.512 117.908C175.714 117.927 175.918 117.904 176.111 117.843C176.304 117.781 176.483 117.681 176.637 117.549C176.791 117.416 176.917 117.255 177.007 117.073C177.097 116.891 177.15 116.694 177.162 116.491C177.183 116.293 177.165 116.092 177.107 115.901C177.049 115.71 176.953 115.532 176.826 115.379C176.698 115.225 176.54 115.099 176.363 115.008C176.185 114.916 175.991 114.862 175.792 114.847C174.712 114.802 174.222 115.384 174.146 116.216Z" fill="#E98862"/>
<g opacity="0.15">
<path d="M170.754 116.627C170.784 116.626 170.812 116.616 170.834 116.597C170.857 116.578 170.871 116.551 170.876 116.522C170.88 116.493 170.874 116.464 170.859 116.439C170.843 116.414 170.82 116.395 170.792 116.386L170.068 116.156L170.587 115.031C170.593 115.016 170.597 115 170.598 114.984C170.599 114.968 170.596 114.951 170.591 114.936C170.585 114.921 170.577 114.907 170.566 114.895C170.555 114.883 170.541 114.873 170.527 114.867C170.512 114.86 170.496 114.856 170.48 114.855C170.463 114.855 170.447 114.857 170.432 114.863C170.417 114.869 170.403 114.877 170.391 114.888C170.379 114.9 170.369 114.913 170.363 114.928L169.786 116.18C169.778 116.196 169.775 116.213 169.775 116.231C169.774 116.248 169.778 116.265 169.785 116.281C169.792 116.297 169.802 116.312 169.815 116.323C169.828 116.335 169.844 116.344 169.86 116.349L170.718 116.62C170.73 116.624 170.742 116.626 170.754 116.627Z" fill="black"/>
</g>
<path d="M183.213 138.38C183.046 139.153 182.957 139.941 182.946 140.732C182.942 142.089 183.115 143.441 183.459 144.753C180.462 146.197 177.183 146.964 173.855 147C170.528 147.035 167.234 146.337 164.206 144.956C164.388 143.676 164.49 142.386 164.511 141.093L163.214 144.473C161.572 143.622 160.041 142.572 158.656 141.349L163.747 128.085C164.062 125.37 165.364 123.423 169.022 123.264C169.178 123.258 169.427 123.253 169.748 123.246C169.812 124.602 178.209 124.597 178.385 123.215C180.757 123.217 182.702 123.944 183.828 125.069C184.284 125.519 184.648 126.052 184.902 126.64L184.94 126.626L189.564 140.42C188.216 141.764 186.702 142.931 185.06 143.895L183.213 138.38Z" fill="#367CFF"/>
<path d="M169.748 123.248C169.812 124.603 170.549 126.595 172.824 126.745C175.856 126.945 178.208 124.597 178.386 123.215H178.379C175.393 123.215 171.488 123.22 169.748 123.248Z" fill="#E98862"/>
<path d="M121.936 99.1056C118.899 101.713 115.224 103.469 111.286 104.194C107.348 104.919 103.288 104.587 99.5198 103.233C99.4985 102.491 99.41 101.752 99.2553 101.026L98.6312 102.89C96.9369 102.198 95.3339 101.301 93.8582 100.219L97.5276 89.2717L97.5663 89.283C97.8198 88.6961 98.1845 88.1638 98.6403 87.7152C99.7663 86.5879 101.711 85.8627 104.083 85.8605C104.259 87.2408 112.657 87.2476 112.72 85.8921C113.041 85.8966 113.29 85.9011 113.446 85.9102C117.102 86.0661 118.404 88.0157 118.721 90.7311L121.936 99.1056Z" fill="#0CBC8B"/>
<path d="M112.72 85.8913C112.656 87.2468 111.919 89.2384 109.643 89.3887C106.611 89.5881 104.26 87.2409 104.081 85.8593H104.089C107.075 85.8599 110.979 85.8649 112.72 85.8913Z" fill="#E98862"/>
<path d="M18.4062 122.813C18.4062 122.813 20.3125 121.803 19.8868 116.617L23.8251 115.888C23.8251 115.888 23.3826 120.537 25.375 122.014L18.4062 122.813Z" fill="#E98862"/>
<g opacity="0.15">
<path d="M24.5681 121.041L21.2963 118.541L23.866 118.514C23.9404 119.393 24.1785 120.25 24.5681 121.041Z" fill="black"/>
</g>
<path d="M17.6522 114.606C17.9249 116.18 18.7843 117.67 20.1735 118.178C21.8225 118.781 23.045 118.822 24.9443 118.822C27.5388 118.822 27.4541 116.119 27.526 113.394C27.599 110.659 27.3815 107.724 26.3559 106.772C24.3092 104.869 18.3018 106.074 17.571 109.257C17.1941 110.902 17.3928 113.109 17.6522 114.606Z" fill="#E98862"/>
<path d="M29.3258 105.639C29.3258 104.338 27.7053 102.206 23.3821 105.145L23.3776 105.148C22.2546 105.117 21.1325 105.239 20.0428 105.513C18.0657 106.104 15.5865 107.759 16.2225 111.775C16.9327 116.256 18.7698 117.452 19.6957 118.002C19.9318 118.142 19.9897 118.028 20.0706 117.766C20.3277 116.799 20.5116 115.813 20.6207 114.818C20.7822 113.85 20.8554 112.869 20.8396 111.887C20.8396 111.452 20.8421 109.867 23.0021 109.849C24.2169 109.839 23.7629 109.888 25.0596 109.888C25.2443 109.888 25.4078 109.879 25.5582 109.865H25.5598C30.0353 109.867 29.3258 106.94 29.3258 105.639Z" fill="#0F1011"/>
<path d="M23.8194 113.394C24.0166 113.394 24.1764 113.234 24.1764 113.037C24.1764 112.84 24.0166 112.681 23.8194 112.681C23.6222 112.681 23.4624 112.84 23.4624 113.037C23.4624 113.234 23.6222 113.394 23.8194 113.394Z" fill="#0F1011"/>
<path d="M26.6374 113.163C26.8346 113.163 26.9944 113.004 26.9944 112.807C26.9944 112.61 26.8346 112.45 26.6374 112.45C26.4402 112.45 26.2804 112.61 26.2804 112.807C26.2804 113.004 26.4402 113.163 26.6374 113.163Z" fill="#0F1011"/>
<path d="M27.2562 112.046H27.2544L26.3082 112.034C26.2637 112.034 26.2211 112.016 26.1898 111.984C26.1586 111.953 26.1412 111.91 26.1414 111.865C26.1417 111.821 26.1596 111.778 26.1913 111.747C26.2229 111.716 26.2657 111.699 26.3102 111.699H26.3122L27.2583 111.711C27.3017 111.712 27.3428 111.731 27.3728 111.763C27.4028 111.794 27.4194 111.836 27.4192 111.879C27.4189 111.923 27.4018 111.964 27.3714 111.996C27.341 112.027 27.2997 112.045 27.2562 112.046Z" fill="#0F1011"/>
<path d="M23.0484 112.391C23.0074 112.39 22.9679 112.375 22.9373 112.348C22.9067 112.321 22.8871 112.283 22.8823 112.243C22.8775 112.202 22.8878 112.161 22.9112 112.127C22.9346 112.094 22.9695 112.07 23.0093 112.06L23.9422 111.836C23.9636 111.831 23.9859 111.83 24.0076 111.833C24.0294 111.837 24.0503 111.844 24.0691 111.856C24.0879 111.867 24.1042 111.882 24.1172 111.9C24.1302 111.918 24.1395 111.938 24.1447 111.959C24.1499 111.981 24.1508 112.003 24.1473 112.025C24.1439 112.047 24.1362 112.067 24.1247 112.086C24.1132 112.105 24.0981 112.121 24.0803 112.134C24.0625 112.147 24.0423 112.157 24.0209 112.162L23.088 112.386C23.075 112.389 23.0617 112.391 23.0484 112.391Z" fill="#0F1011"/>
<path d="M21.9615 113.911C21.9837 114.112 21.9653 114.315 21.9074 114.509C21.8495 114.703 21.7533 114.884 21.6245 115.04C21.4956 115.196 21.3367 115.324 21.1573 115.418C20.9778 115.512 20.7813 115.569 20.5795 115.585C20.3776 115.602 20.1745 115.578 19.9822 115.514C19.7898 115.451 19.6121 115.35 19.4595 115.217C19.307 115.084 19.1827 114.922 19.094 114.74C19.0052 114.558 18.9539 114.36 18.943 114.158C18.9234 113.959 18.9439 113.759 19.0034 113.568C19.0629 113.377 19.1602 113.201 19.2895 113.049C19.4188 112.896 19.5774 112.772 19.7559 112.682C19.9344 112.592 20.1292 112.539 20.3286 112.526C21.4078 112.491 21.893 113.078 21.9615 113.911Z" fill="#E98862"/>
<g opacity="0.15">
<path d="M25.4051 115.017C25.3756 115.017 25.347 115.006 25.3247 114.987C25.3023 114.968 25.2876 114.941 25.2832 114.912C25.2788 114.883 25.2851 114.853 25.3008 114.828C25.3165 114.803 25.3407 114.785 25.3689 114.776L26.0954 114.553L25.5871 113.424C25.5737 113.394 25.5727 113.36 25.5843 113.329C25.5959 113.299 25.6192 113.274 25.6491 113.261C25.6789 113.247 25.7128 113.246 25.7434 113.258C25.774 113.27 25.7987 113.293 25.8121 113.323L26.3774 114.581C26.3845 114.597 26.3882 114.614 26.3882 114.631C26.3882 114.649 26.3845 114.666 26.3773 114.682C26.3701 114.698 26.3595 114.712 26.3464 114.723C26.3333 114.735 26.3179 114.744 26.3012 114.749L25.442 115.013C25.43 115.016 25.4175 115.017 25.4051 115.017Z" fill="black"/>
</g>
<path d="M23.9847 115.847C23.9847 115.847 25.3034 115.986 26.2275 115.663C26.2275 115.663 26.2202 116.531 25.1768 116.617C24.1333 116.702 23.9847 115.847 23.9847 115.847Z" fill="white"/>
<path d="M31.8986 140.416L31.4849 139.34C31.4939 139.774 31.5097 140.185 31.5323 140.576C28.5952 141.832 25.4255 142.454 22.2309 142.4C19.0364 142.347 15.8894 141.619 12.9963 140.264C13.03 139.855 13.0483 139.428 13.0483 138.979C13.0368 138.188 12.9482 137.401 12.7837 136.627L11.773 139.643C10.1196 138.74 8.58585 137.633 7.20776 136.349L11.054 124.873L11.0925 124.887C11.3466 124.299 11.7112 123.766 12.1665 123.316C13.2925 122.191 15.237 121.466 17.6086 121.464C17.7872 122.844 26.1827 122.849 26.2458 121.496C26.5669 121.5 26.8156 121.505 26.9716 121.511C30.63 121.67 31.9323 123.617 32.2466 126.332L36.5675 137.587C35.1312 138.715 33.5635 139.665 31.8986 140.416Z" fill="#262626"/>
<path d="M26.2467 121.495C26.1827 122.85 25.4456 124.842 23.1703 124.992C20.1383 125.192 17.7866 122.845 17.6082 121.463H17.6156C20.6018 121.463 24.5064 121.468 26.2467 121.495Z" fill="#E98862"/>
</g>
<defs>
<clipPath id="clip0_9_1240">
<rect width="202" height="147" fill="white"/>
</clipPath>
</defs>
</svg>
