<svg width="160" height="105" viewBox="0 0 160 105" fill="none" xmlns="http://www.w3.org/2000/svg">
<g clip-path="url(#clip0_1_2867)">
<path d="M53.5688 103.558C60.9159 103.919 135.577 103.435 138.383 103.576C123.204 81.0729 108.298 57.6987 92.7362 35.152C77.7293 56.9504 64.3169 79.6027 53.5688 103.558Z" fill="white"/>
<path d="M72.8649 104.456C63.0957 104.456 55.6276 104.421 53.5183 104.315C53.2358 104.298 52.9835 104.174 52.8321 103.963C52.6807 103.76 52.6504 103.505 52.7513 103.276C62.7324 81.0289 75.5595 58.6143 91.9793 34.7558C92.1408 34.5269 92.4234 34.3861 92.7261 34.3861C93.0289 34.3861 93.3115 34.5269 93.4729 34.7558C102.626 48.0145 111.679 61.7485 120.429 75.0335C126.545 84.3128 132.872 93.909 139.119 103.179C139.281 103.417 139.281 103.725 139.109 103.963C138.938 104.201 138.645 104.342 138.312 104.324C137.263 104.271 125.303 104.315 111.447 104.359C98.6906 104.412 84.2286 104.456 72.8649 104.456ZM54.8303 102.836C62.1269 103.003 90.4352 102.915 111.467 102.845C123.285 102.81 133.064 102.774 136.849 102.792C130.844 93.8738 124.789 84.6913 118.935 75.7994C110.428 62.8842 101.627 49.5375 92.7463 36.6311C76.9724 59.6532 64.5591 81.3371 54.8303 102.836Z" fill="black"/>
<path d="M92.7362 35.152C86.4488 43.2604 80.7367 53.8162 77.4568 58.6231C80.2422 59.1602 82.8661 56.3165 85.6818 56.7039C87.236 56.924 87.8819 59.3715 91.9288 59.3715C97.0657 59.3715 97.2171 57.3025 99.7401 56.6511C102.828 55.8499 105.361 57.2409 108.399 58.1653C102.99 49.4407 98.1456 41.9398 92.7362 35.152Z" fill="white"/>
<path d="M91.9389 60.1374C89.0021 60.1374 87.5691 58.9401 86.6204 58.1477C86.2066 57.8044 85.8433 57.4962 85.5507 57.461C84.4506 57.3113 83.2698 57.822 82.0285 58.3678C80.5349 59.0193 78.9908 59.6972 77.2751 59.3715C77.0027 59.3186 76.7705 59.1514 76.6595 58.9313C76.5485 58.7024 76.5687 58.447 76.71 58.2358C77.81 56.6158 79.2027 54.3356 80.8074 51.6945C83.9359 46.5354 87.8416 40.1174 92.0096 34.7294C92.1711 34.5182 92.4436 34.3949 92.7261 34.3949C92.9986 34.3949 93.2812 34.5182 93.4528 34.7206C98.7006 41.3059 103.363 48.4371 109.186 57.8132C109.358 58.0861 109.318 58.4294 109.085 58.6671C108.853 58.9048 108.47 58.9929 108.137 58.896C107.481 58.6936 106.845 58.4735 106.239 58.2622C104.049 57.4962 102.162 56.8359 100.023 57.3906C99.286 57.5843 98.7713 57.9364 98.186 58.3414C96.9951 59.1337 95.5519 60.1374 91.9389 60.1374ZM85.1369 55.9027C85.369 55.9027 85.6011 55.9203 85.8332 55.9467C86.6608 56.0612 87.236 56.5366 87.8315 57.0384C88.7095 57.7691 89.7086 58.6055 91.9389 58.6055C94.9363 58.6055 95.9758 57.8924 97.0859 57.1265C97.752 56.6687 98.4483 56.1845 99.508 55.9115C102.092 55.2424 104.342 55.9467 106.512 56.7039C101.496 48.6836 97.3079 42.336 92.7463 36.499C88.8911 41.6141 85.2883 47.5567 82.3515 52.39C81.0899 54.4677 79.9596 56.3253 78.9908 57.822C79.7174 57.6635 80.4642 57.3378 81.2413 56.9944C82.4827 56.4574 83.7442 55.9027 85.1369 55.9027Z" fill="black"/>
<path d="M11.5555 103.558C11.5555 103.558 66.0023 103.496 73.8741 103.496C64.9022 87.4998 55.6276 70.5699 44.3648 54.8463C32.5672 71.1598 23.1412 87.535 11.5555 103.558Z" fill="#ACD4F7"/>
<path d="M11.5554 104.324C11.2426 104.324 10.9499 104.174 10.7884 103.928C10.6371 103.681 10.6472 103.391 10.8187 103.153C16.5712 95.1943 21.8998 86.9803 27.0569 79.0393C32.2846 70.9749 37.694 62.6465 43.6281 54.4325C43.7896 54.2124 44.0621 54.0803 44.3648 54.0803C44.6676 54.0803 44.9401 54.2124 45.1016 54.4413C55.5267 68.9941 64.1958 84.4889 72.5823 99.473L74.6512 103.162C74.7824 103.4 74.7622 103.672 74.6108 103.901C74.4494 104.121 74.1668 104.262 73.8741 104.262C66.0931 104.262 12.1004 104.324 11.5554 104.324ZM44.3547 56.2813C38.7334 64.1255 33.5663 72.0842 28.5707 79.7964C23.6559 87.3677 18.5896 95.1767 13.1298 102.801C21.6778 102.792 62.2783 102.748 72.4713 102.739L71.018 100.142C62.8435 85.5453 54.4065 70.4731 44.3547 56.2813Z" fill="black"/>
<path d="M94.0785 2.88586C93.806 9.03976 93.5436 15.1937 93.3619 21.5412C104.726 19.5516 116.079 17.5619 127.443 15.5722C116.957 11.1263 106.27 7.03248 94.0785 2.88586Z" fill="white"/>
<path d="M93.3619 22.2984C93.1601 22.2984 92.9582 22.2368 92.7968 22.1223C92.5949 21.9726 92.4839 21.7526 92.4839 21.5236C92.6656 15.132 92.9381 8.89011 93.2005 2.85066C93.2105 2.60415 93.3619 2.37525 93.594 2.24319C93.8262 2.11114 94.1289 2.08473 94.3913 2.17276C106.29 6.22254 116.917 10.2635 127.816 14.8943C128.149 15.0352 128.351 15.3521 128.301 15.6779C128.25 16.0036 127.978 16.2589 127.604 16.3294L93.5234 22.2984C93.4729 22.2984 93.4124 22.2984 93.3619 22.2984ZM94.906 3.97756C94.6739 9.37432 94.4317 14.9296 94.2601 20.5992L124.718 15.2641C115.02 11.2143 105.452 7.59594 94.906 3.97756Z" fill="black"/>
<path d="M159.122 104.5L0.86792 104.174C0.383499 104.174 0 103.831 0 103.408C0 102.986 0.393592 102.651 0.86792 102.651L159.122 102.977C159.606 102.977 159.99 103.32 159.99 103.743C159.99 104.165 159.606 104.5 159.122 104.5Z" fill="black"/>
<path d="M92.7059 35.9443C92.6959 35.9443 92.6858 35.9443 92.6757 35.9443C92.1912 35.9267 91.8178 35.5746 91.8279 35.1608L93.1298 1.23952C93.15 0.816932 93.5638 0.482385 94.0381 0.499993C94.5225 0.517601 94.8959 0.869755 94.8858 1.28354L93.584 35.2048C93.5638 35.6186 93.1803 35.9443 92.7059 35.9443Z" fill="black"/>
<path d="M54.5074 70.0681C53.2761 70.7548 50.9045 71.6 49.5219 71.2214C47.8567 70.7636 46.7667 68.8268 45.041 69.0205C43.6382 69.1789 42.8914 70.6844 41.5693 71.1334C39.2683 71.9081 36.7857 69.1613 34.5351 70.0505C33.758 70.3587 33.2433 71.0366 32.9406 71.6968C36.7453 66.1944 40.5601 60.6832 44.5162 55.1192C48.0888 59.8468 51.4495 64.7858 54.5074 70.0681Z" fill="white"/>
<path d="M32.9507 72.454C32.8195 72.454 32.6883 72.4276 32.5571 72.3747C32.1534 72.1987 31.9717 71.7761 32.1332 71.4063C32.3149 71.0101 32.5974 70.5347 33.0011 70.1298C36.493 65.0851 40.0959 59.8909 43.7795 54.7142C43.9409 54.4941 44.2134 54.362 44.5061 54.3532C44.8089 54.3708 45.0814 54.4765 45.2428 54.6966C49.1081 59.838 52.388 64.7506 55.2744 69.7336C55.4762 70.0857 55.345 70.5083 54.9615 70.7196C53.6092 71.4768 50.965 72.4276 49.2393 71.9522C48.3613 71.7145 47.6548 71.1686 47.0291 70.702C46.2218 70.0857 45.6869 69.7248 45.1318 69.7864C44.6474 69.8392 44.2134 70.2178 43.7088 70.658C43.2042 71.0982 42.629 71.5912 41.862 71.8553C40.3784 72.3571 38.9555 71.7761 37.6939 71.2743C36.5939 70.8341 35.6553 70.4555 34.8782 70.7548C34.6966 70.8253 34.5351 70.9397 34.3938 71.063C34.1516 71.4063 33.9094 71.7585 33.6773 72.1018C33.536 72.3219 33.2433 72.454 32.9507 72.454ZM45.2933 68.2369C46.4942 68.2369 47.3924 68.9236 48.1998 69.5399C48.7448 69.9537 49.2494 70.3411 49.7843 70.4907C50.5714 70.7108 52.1155 70.3234 53.3569 69.7688C50.7834 65.3845 47.897 61.0354 44.5465 56.5278C41.5592 60.7448 38.6224 64.9707 35.7563 69.1085C36.7049 69.1613 37.6132 69.5311 38.4508 69.8656C39.4903 70.2794 40.4693 70.6756 41.2565 70.4115C41.6803 70.2706 42.0739 69.9273 42.4978 69.5575C43.1336 69.0029 43.8602 68.3778 44.93 68.2545C45.0511 68.2457 45.1722 68.2369 45.2933 68.2369Z" fill="black"/>
<path d="M68.4446 86.1088C68.4042 86.1088 68.3537 86.1 68.3134 86.0824C68.1721 86.0207 68.1115 85.8623 68.1923 85.739C72.8144 78.0004 77.3559 70.0593 81.6955 62.1623C81.7661 62.039 81.9377 61.9862 82.079 62.039C82.2203 62.1006 82.2808 62.2503 82.2203 62.3736C77.8807 70.2794 73.3392 78.2205 68.717 85.9679C68.6464 86.0559 68.5455 86.1088 68.4446 86.1088Z" fill="black"/>
<path d="M72.9255 90.1761C72.8851 90.1761 72.8447 90.1673 72.8043 90.1497C72.6631 90.0881 72.5924 89.9384 72.6631 89.8152C77.5073 80.5623 82.7047 71.3007 88.104 62.2767C88.1746 62.1534 88.3563 62.1094 88.4976 62.1711C88.6388 62.2327 88.6994 62.3912 88.6187 62.5144C83.2194 71.5208 78.032 80.7824 73.1878 90.0265C73.1374 90.1233 73.0365 90.1761 72.9255 90.1761Z" fill="black"/>
<path d="M76.6696 97.3161C76.6293 97.3161 76.5889 97.3073 76.5485 97.2897C76.4072 97.228 76.3467 97.0784 76.4072 96.9551C82.5937 85.651 88.5985 74.0827 94.2299 62.576C94.2904 62.444 94.462 62.3912 94.6134 62.444C94.7647 62.4968 94.8253 62.6465 94.7647 62.7785C89.1233 74.294 83.1286 85.871 76.932 97.184C76.8816 97.2632 76.7806 97.3161 76.6696 97.3161Z" fill="black"/>
<path d="M82.523 100.503C82.4826 100.503 82.4423 100.494 82.4019 100.485C82.2505 100.433 82.19 100.283 82.2505 100.151L101.859 61.2731C101.92 61.141 102.102 61.0882 102.243 61.141C102.394 61.1938 102.455 61.3435 102.394 61.4756L82.7854 100.353C82.7349 100.45 82.634 100.503 82.523 100.503Z" fill="black"/>
<path d="M92.4234 99.1737C92.3931 99.1737 92.3527 99.1649 92.3224 99.1561C92.1711 99.1033 92.1004 98.9624 92.161 98.8304C96.8336 88.3362 101.688 77.7539 106.603 67.3654C106.663 67.2333 106.835 67.1717 106.986 67.2245C107.138 67.2773 107.208 67.427 107.148 67.559C102.243 77.9388 97.3786 88.521 92.716 99.0152C92.6555 99.1121 92.5445 99.1737 92.4234 99.1737Z" fill="black"/>
<path d="M99.7906 99.3674C99.7603 99.3674 99.73 99.3586 99.6998 99.3498C99.5484 99.3058 99.4676 99.1561 99.5181 99.024C103.03 90.185 106.946 81.3459 111.174 72.7533C111.235 72.6213 111.407 72.5684 111.558 72.6213C111.709 72.6741 111.77 72.8237 111.709 72.9558C107.491 81.5396 103.575 90.3698 100.073 99.2001C100.023 99.297 99.9117 99.3674 99.7906 99.3674Z" fill="black"/>
<path d="M107.551 99.0328C107.521 99.0328 107.491 99.024 107.461 99.0152C107.309 98.9712 107.228 98.8216 107.279 98.6895L115.544 77.6747C115.595 77.5426 115.766 77.4722 115.918 77.5162C116.069 77.5602 116.15 77.7099 116.099 77.842L107.834 98.8568C107.784 98.9624 107.673 99.0328 107.551 99.0328Z" fill="black"/>
<path d="M114.444 99.1121C114.414 99.1121 114.384 99.1121 114.353 99.1033C114.202 99.0592 114.121 98.9184 114.162 98.7863L119.208 85.1844C119.258 85.0523 119.42 84.9819 119.571 85.0171C119.722 85.0611 119.803 85.202 119.763 85.334L114.717 98.936C114.687 99.0416 114.576 99.1121 114.444 99.1121Z" fill="black"/>
<path d="M120.197 99.6843C120.167 99.6843 120.146 99.6843 120.116 99.6755C119.965 99.6403 119.874 99.4906 119.924 99.3586C120.913 96.4445 121.993 93.5216 123.134 90.6604C123.184 90.5283 123.356 90.4579 123.507 90.5019C123.658 90.5459 123.739 90.6956 123.689 90.8276C122.548 93.6801 121.468 96.5942 120.489 99.4994C120.429 99.6139 120.318 99.6843 120.197 99.6843Z" fill="black"/>
<path d="M126.514 99.6931C126.484 99.6931 126.444 99.6843 126.414 99.6755C126.262 99.6315 126.181 99.4818 126.242 99.3498L127.736 95.7842C127.796 95.6522 127.958 95.5817 128.109 95.6346C128.26 95.6786 128.341 95.8282 128.281 95.9603L126.787 99.5259C126.747 99.6227 126.636 99.6931 126.514 99.6931Z" fill="black"/>
<g opacity="0.1294">
<path d="M96.8033 4.3913C96.763 2.40163 93.372 2.40163 93.3216 4.3913C93.6243 9.10137 92.8372 13.785 92.8472 18.4863C92.5243 20.1502 94.9767 21.057 96.0162 19.5956C96.3189 19.173 96.2483 18.6712 96.2483 18.1958C96.2382 17.0601 96.2483 15.9244 96.329 14.7887C96.6621 11.3287 96.9144 7.86002 96.8033 4.3913Z" fill="black"/>
</g>
<g opacity="0.1294">
<path d="M137.111 100.97C136.98 100.811 136.677 100.45 136.546 100.309C136.475 100.23 136.425 100.177 136.384 100.133C134.79 98.2229 133.306 96.242 131.984 94.1731C127.473 87.3149 122.225 80.9057 117.977 73.8802C116.332 71.1158 114.777 68.3074 113.072 65.5606C113.001 65.27 112.799 64.9971 112.618 64.733C110.529 61.6693 108.833 58.4206 106.905 55.2777C104.675 51.5272 102.172 47.9088 99.841 44.2024C99.4979 43.278 98.519 43.1371 97.8529 43.4541C97.0556 42.0631 96.2482 40.6897 95.4409 39.3075C94.9867 38.5151 94.5225 37.714 94.0986 36.9128C93.8968 36.5783 93.816 36.1557 93.4225 35.9356C92.3527 35.152 90.7783 36.3582 91.505 37.4058C92.8169 40.0822 94.3913 42.6529 95.8345 45.2765C97.0152 47.5919 98.2566 49.8721 99.7502 52.0466C101.345 54.6614 102.919 57.2849 104.554 59.8733C104.574 59.9085 104.584 59.9349 104.604 59.9701C108.147 65.2964 110.882 71.0014 114.414 76.3189C118.31 82.1118 122.397 87.7991 126.686 93.372C127.705 94.7101 128.553 96.1364 129.542 97.4834C130.622 98.8304 131.682 100.195 132.731 101.56C133.377 102.229 133.831 103.179 134.8 103.532C135.991 104.06 137.525 103.135 137.485 101.991C137.485 101.612 137.363 101.269 137.111 100.97Z" fill="black"/>
</g>
<g opacity="0.1294">
<path d="M74.8934 99.1825C72.3805 94.7013 69.8877 90.2114 67.5161 85.6686C67.072 84.8322 66.6179 84.0047 66.1738 83.1595C65.9922 82.8161 65.8408 82.4288 65.4472 82.2263C64.1453 81.2667 62.0966 82.4816 62.5911 83.899C63.1967 85.1668 63.7719 86.3729 64.3472 87.5702C64.2261 87.3589 64.1049 87.1476 63.9838 86.9363C61.6021 83.1947 59.1901 79.4707 57.0607 75.6146C55.4157 72.8766 53.5083 70.2706 51.833 67.5502C49.6934 63.4476 47.1704 59.7588 45.8282 56.3869C45.2226 54.5733 42.0638 55.2953 42.6088 57.1617C43.6281 59.9261 45.1924 62.4968 46.5245 65.1468C47.998 68.2369 49.4008 70.8957 52.1055 75.236C54.5477 79.5587 56.8992 83.9254 59.7553 88.0632C61.3397 90.4755 62.581 93.0462 63.9536 95.5641C64.8921 97.1048 65.9821 98.575 67.0216 100.072C67.6069 100.882 68.3033 101.63 68.8684 102.449C69.151 102.766 69.3326 103.153 69.7262 103.373C70.2914 103.813 71.1997 103.831 71.8355 103.505C72.2291 103.285 72.4814 103.021 72.6227 102.722C72.6933 102.801 72.7539 102.889 72.8245 102.968C72.8548 102.995 72.8649 103.012 72.8851 103.039C72.9961 103.171 73.1172 103.294 73.2787 103.382C74.4796 104.306 76.5081 103.4 76.4678 102.026C76.4072 100.926 75.3173 100.16 74.8934 99.1825Z" fill="black"/>
</g>
</g>
<defs>
<clipPath id="clip0_1_2867">
<rect width="160" height="104" fill="white" transform="translate(0 0.5)"/>
</clipPath>
</defs>
</svg>
