<svg width="117" height="73" viewBox="0 0 117 73" fill="none" xmlns="http://www.w3.org/2000/svg">
<path d="M24.129 47.0632C23.6795 46.1787 23.0271 45.7292 22.157 45.7292C21.7945 45.7292 21.4611 45.8162 21.1566 45.9757C20.8376 46.1352 20.5765 46.3527 20.3445 46.6427C20.1126 46.9327 19.9385 47.2662 19.808 47.6432C19.6775 48.0347 19.605 48.4407 19.605 48.8757C19.605 49.6442 19.808 50.2387 20.2285 50.6737C20.649 51.1087 21.2146 51.3117 21.9541 51.3117C22.2876 51.3117 22.6065 51.2682 22.8965 51.1667C23.1865 51.0652 23.4475 50.9202 23.6796 50.7462V51.9207C23.6796 52.1382 23.317 52.3122 22.5775 52.4282C21.838 52.5442 9.29555 52.6022 7.84555 52.6022H7.45405C6.90305 52.6022 6.51155 52.5007 6.26505 52.2977C6.01855 52.0947 5.90255 51.7467 5.91705 51.2682L5.98955 45.6132L4.67005 45.8452V46.8602C3.32155 47.1357 2.27755 47.5852 1.52355 48.1797C0.769548 48.7742 0.392548 49.5137 0.392548 50.3692C0.392548 50.7317 0.465048 51.0507 0.610048 51.3262C0.755048 51.6162 0.943548 51.8482 1.19005 52.0367C1.43655 52.2252 1.72655 52.3702 2.04555 52.4717C2.37905 52.5732 2.72705 52.6167 3.10405 52.6167C3.74205 52.6167 4.29305 52.4862 4.75705 52.2107C4.94555 53.4722 5.84455 54.0957 7.43955 54.0957H7.83105C8.42555 54.0957 20.388 54.0812 20.8375 54.0667C21.287 54.0522 21.6786 54.0232 22.0266 53.9797C22.3746 53.9362 22.6645 53.8782 22.9255 53.8202C23.172 53.7622 23.404 53.6752 23.6215 53.5737C24.0565 53.3707 24.361 53.0807 24.535 52.7037C24.709 52.3267 24.796 51.7612 24.796 51.0217C24.796 49.2672 24.5785 47.9477 24.129 47.0632ZM22.9401 49.9197C22.6645 49.9922 22.3891 50.0357 22.0991 50.0357C21.6351 50.0357 21.2725 49.9342 21.026 49.7167C20.7795 49.5137 20.6491 49.1947 20.6491 48.7887C20.6491 48.3247 20.7941 47.9332 21.0695 47.6142C21.3451 47.2952 21.6931 47.1357 22.0991 47.1357C22.5486 47.1357 22.882 47.3242 23.1285 47.7157C23.375 48.1072 23.5201 48.7307 23.607 49.6007C23.4331 49.7312 23.2155 49.8327 22.9401 49.9197ZM3.30705 51.1377C3.07505 51.1377 2.84305 51.1232 2.62555 51.0797C2.40805 51.0362 2.21955 50.9782 2.04555 50.8912C1.87155 50.8042 1.74105 50.7027 1.65405 50.5577C1.55255 50.4272 1.50905 50.2532 1.50905 50.0502C1.50905 49.8037 1.59605 49.5862 1.77005 49.3687C1.94405 49.1657 2.17605 48.9772 2.46605 48.8177C2.75605 48.6582 3.10405 48.5277 3.48105 48.4117C3.85805 48.3102 4.24955 48.2232 4.67005 48.1797L4.69905 50.8622C4.30755 51.0507 3.84355 51.1377 3.30705 51.1377Z" fill="#0F2837"/>
<path d="M44.5015 45.1058L43.472 44.0618L42.428 45.1058L43.472 46.1643L44.5015 45.1058Z" fill="#0F2837"/>
<path d="M46.9375 45.1058L45.908 44.0618L44.864 45.1058L45.908 46.1643L46.9375 45.1058Z" fill="#0F2837"/>
<path d="M63.9895 44.8448L62.9455 43.7863L61.916 44.8448L62.9455 45.8888L63.9895 44.8448Z" fill="#0F2837"/>
<path d="M64.1635 48.0492L65.2075 46.9907L64.1635 45.9467L63.134 46.9907L64.1635 48.0492Z" fill="#0F2837"/>
<path d="M62.7715 46.9907L61.7275 45.9467L60.698 46.9907L61.7275 48.0492L62.7715 46.9907Z" fill="#0F2837"/>
<path d="M78.5475 43.5397L78.5911 51.7177C78.5911 51.8772 78.5331 52.0077 78.417 52.1237C78.3011 52.2397 78.156 52.3267 77.9675 52.3847C77.779 52.4572 77.576 52.5007 77.344 52.5297C77.112 52.5587 65.4395 52.5732 65.193 52.5732C63.8735 52.5732 63.2065 52.2252 63.2065 51.5437C63.2065 51.4567 63.2355 51.2102 63.279 50.8187C63.3225 50.4272 63.3805 50.0067 63.424 49.5282L62.293 49.3977C62.264 49.5427 62.2495 49.7167 62.2205 49.9052C62.1915 50.0937 62.1771 50.2822 62.1336 50.4707C62.1046 50.6592 62.0611 50.8477 62.0321 51.0362C62.003 51.2247 61.974 51.3697 61.945 51.5002C61.858 51.8917 61.6405 52.1672 61.2925 52.3412C60.9445 52.5152 48.9675 52.5877 48.228 52.5877C47.8945 52.5877 47.5755 52.5877 47.271 52.5732C46.9665 52.5587 46.691 52.5442 46.43 52.5297C47.01 51.9787 47.3 51.3117 47.3 50.4852C47.3 50.0792 47.2275 49.6877 47.097 49.3252C46.952 48.9627 46.7635 48.6437 46.5315 48.3827C46.2995 48.1217 46.0095 47.9042 45.6905 47.7447C45.3715 47.5852 45.038 47.5127 44.6755 47.5127C44.313 47.5127 43.9795 47.5852 43.6605 47.7447C43.3415 47.9042 43.066 48.1072 42.8195 48.3827C42.573 48.6437 42.3845 48.9627 42.254 49.3252C42.109 49.6877 42.051 50.0792 42.051 50.4852C42.051 51.3117 42.341 51.9932 42.921 52.5297C42.6455 52.5587 42.37 52.5732 42.0655 52.5732C41.761 52.5877 30.0015 52.5877 29.6825 52.5877C29.1315 52.5877 28.74 52.4862 28.508 52.2832C28.2615 52.0802 28.1455 51.7322 28.1455 51.2537L28.218 43.3222L26.8985 43.5542L26.971 51.7467C27 53.2982 27.899 54.0812 29.697 54.0812C30.3205 54.0812 42.3845 54.0377 42.9935 53.9362C43.588 53.8347 44.168 53.6897 44.69 53.5012C45.2265 53.6897 45.792 53.8347 46.3865 53.9362C46.9955 54.0377 47.6045 54.0812 48.228 54.0812C48.924 54.0812 60.988 53.9797 61.4955 53.7912C62.003 53.6027 62.3655 53.3272 62.583 52.9647C63.018 53.7042 63.888 54.0812 65.193 54.0812C65.6135 54.0812 77.431 54.0377 77.808 53.9507C78.185 53.8637 78.5186 53.7332 78.8086 53.5302C79.0986 53.3417 79.345 53.0807 79.519 52.7617C79.7075 52.4427 79.7946 52.0512 79.7946 51.5872L79.8671 43.3077L78.5475 43.5397ZM44.69 52.1672C43.6605 51.8337 43.153 51.2827 43.153 50.5142C43.153 50.2967 43.1965 50.0792 43.269 49.8907C43.3415 49.7022 43.4575 49.5282 43.588 49.3832C43.733 49.2382 43.8925 49.1222 44.081 49.0497C44.2695 48.9772 44.4725 48.9337 44.69 48.9337C44.9075 48.9337 45.096 48.9772 45.2845 49.0497C45.473 49.1222 45.6325 49.2382 45.7775 49.3832C45.9225 49.5282 46.024 49.7022 46.111 49.8907C46.1835 50.0792 46.227 50.2822 46.227 50.5142C46.227 51.2827 45.705 51.8337 44.69 52.1672Z" fill="#0F2837"/>
<path d="M82.0565 54.0667L81.9695 43.5397L83.289 43.3077L83.202 54.0667H82.0565Z" fill="#0F2837"/>
<path d="M93.903 51.5727C93.903 52.3702 93.642 53.0082 93.1346 53.4867C92.627 53.9652 91.9165 54.1972 91.032 54.1972C90.0895 54.1972 89.3645 53.9652 88.8715 53.5012C88.3785 53.0372 88.132 52.3702 88.132 51.5002C88.132 50.9492 88.2045 50.4417 88.364 49.9632C88.5235 49.4847 88.7265 49.0497 88.9875 48.6872C89.2485 48.3247 89.5531 48.0347 89.9011 47.8172C90.2491 47.5997 90.626 47.4982 91.0175 47.4982C91.4235 47.4982 91.7861 47.5997 92.1486 47.8172C92.4966 48.0347 92.801 48.3247 93.062 48.6872C93.3231 49.0497 93.5261 49.4847 93.6711 49.9777C93.8306 50.4707 93.903 51.0072 93.903 51.5727ZM89.7995 46.1642L88.77 45.1057L89.7995 44.0472L90.829 45.1057L89.7995 46.1642ZM92.772 51.7177C92.772 51.3262 92.7285 50.9637 92.6415 50.6447C92.5545 50.3112 92.4385 50.0357 92.279 49.7892C92.1195 49.5572 91.9455 49.3687 91.728 49.2237C91.5105 49.0932 91.2785 49.0207 91.032 49.0207C90.8 49.0207 90.568 49.0787 90.3505 49.1947C90.133 49.3107 89.9445 49.4702 89.785 49.6732C89.6255 49.8762 89.5095 50.1082 89.408 50.3692C89.321 50.6302 89.263 50.9202 89.263 51.2247C89.263 51.7032 89.408 52.0657 89.7125 52.3122C90.017 52.5587 90.452 52.6892 91.0175 52.6892C91.2495 52.6892 91.467 52.6602 91.6845 52.6167C91.902 52.5732 92.076 52.5007 92.2355 52.3992C92.395 52.3122 92.511 52.1962 92.6125 52.0802C92.7285 51.9787 92.772 51.8482 92.772 51.7177ZM92.2355 46.1642L91.2061 45.1057L92.2355 44.0472L93.265 45.1057L92.2355 46.1642Z" fill="#0F2837"/>
<path d="M93.4391 56.0968C94.0481 55.8793 94.5991 55.6183 95.1066 55.3283C95.6141 55.0383 96.0636 54.7338 96.4406 54.4148C96.8176 54.0958 97.1076 53.7768 97.3106 53.4578C97.5281 53.1388 97.6296 52.8343 97.6296 52.5443C97.6296 52.3703 97.5861 52.1383 97.5136 51.8628C97.4411 51.5873 97.3251 51.2828 97.1946 50.9493C97.0496 50.6158 96.8901 50.2823 96.7016 49.9198C96.5131 49.5573 96.3101 49.2238 96.0926 48.8903L97.2961 48.2233C97.7601 48.8468 98.1371 49.5428 98.3981 50.2968C98.6591 51.0508 98.8041 51.7613 98.8041 52.4138C98.8041 53.4578 98.3981 54.4148 97.6006 55.2993C96.8031 56.1693 95.6721 56.8798 94.2076 57.4163L93.4391 56.0968Z" fill="#0F2837"/>
<path d="M101.11 54.0667L101.023 43.5397L102.342 43.3077L102.255 54.0667H101.11Z" fill="#0F2837"/>
<path d="M103.169 56.0968C103.763 55.8793 104.329 55.6183 104.836 55.3283C105.344 55.0383 105.793 54.7337 106.17 54.4147C106.547 54.0957 106.837 53.7768 107.04 53.4578C107.258 53.1388 107.359 52.8343 107.359 52.5443C107.359 52.3703 107.316 52.1383 107.243 51.8628C107.171 51.5873 107.055 51.2828 106.924 50.9493C106.779 50.6158 106.62 50.2822 106.431 49.9197C106.243 49.5572 106.04 49.2238 105.822 48.8903L107.026 48.2233C107.49 48.8468 107.867 49.5428 108.128 50.2968C108.389 51.0508 108.534 51.7612 108.534 52.4137C108.534 53.4577 108.128 54.4148 107.33 55.2993C106.533 56.1693 105.402 56.8797 103.937 57.4162L103.169 56.0968ZM106.228 46.8747L105.199 45.8162L106.228 44.7578L107.258 45.8162L106.228 46.8747Z" fill="#0F2837"/>
<path d="M110.723 56.0387C113.13 55.7052 114.508 54.8352 114.885 53.4142C114.667 53.5882 114.406 53.7042 114.102 53.8057C113.812 53.8927 113.493 53.9362 113.159 53.9362C112.42 53.9362 111.84 53.6752 111.39 53.1677C110.941 52.6602 110.723 51.9787 110.723 51.1522C110.723 50.6882 110.796 50.2532 110.926 49.8617C111.057 49.4702 111.245 49.1222 111.477 48.8322C111.709 48.5422 111.985 48.3102 112.318 48.1507C112.637 47.9912 112.985 47.9042 113.362 47.9042C114.232 47.9042 114.914 48.2957 115.392 49.0787C115.871 49.8617 116.117 50.9637 116.117 52.3992C116.117 53.0662 116.001 53.6897 115.769 54.2552C115.537 54.8207 115.218 55.3282 114.798 55.7632C114.377 56.1982 113.87 56.5607 113.29 56.8362C112.695 57.1262 112.043 57.3147 111.318 57.4162L110.723 56.0387ZM113.377 52.5877C113.681 52.5877 113.986 52.5442 114.29 52.4572C114.58 52.3702 114.812 52.2542 114.986 52.1237C114.943 51.2392 114.783 50.5577 114.493 50.0792C114.203 49.6007 113.812 49.3542 113.319 49.3542C112.884 49.3542 112.536 49.5137 112.26 49.8327C111.985 50.1517 111.854 50.5722 111.854 51.0942C111.854 51.5582 111.985 51.9207 112.26 52.1817C112.521 52.4572 112.898 52.5877 113.377 52.5877Z" fill="#0F2837"/>
<path d="M0.842047 60.0117H2.20505L5.19205 65.1157L8.17905 60.0117H9.49855L9.96255 69.8282H8.57055L8.25155 62.2882L5.48205 66.9282H4.77155L2.04555 62.3462L1.71205 69.8282H0.392548L0.842047 60.0117Z" fill="#0F2837"/>
<path d="M12.3696 59.9683L13.4136 61.0123L12.3696 62.0708L11.3111 61.0123L12.3696 59.9683ZM11.7171 62.9843H13.0366V69.8283H11.7171V62.9843Z" fill="#0F2837"/>
<path d="M14.9215 69.8282V63.6947V63.4192C14.9215 63.3322 14.9215 63.1872 14.907 62.9842H16.1685L16.212 64.0137C16.299 63.8977 16.415 63.7672 16.531 63.6222C16.6615 63.4772 16.821 63.3467 16.995 63.2307C17.1835 63.1147 17.401 63.0132 17.6475 62.9407C17.894 62.8682 18.184 62.8247 18.4885 62.8247C19.3875 62.8247 20.04 63.0857 20.475 63.6077C20.91 64.1297 21.1275 64.8402 21.1275 65.7247V69.8282H19.808V65.8262C19.808 65.1882 19.6775 64.7242 19.402 64.4197C19.1265 64.1152 18.735 63.9702 18.242 63.9702C17.865 63.9702 17.546 64.0427 17.285 64.2022C17.024 64.3617 16.821 64.5647 16.676 64.8112C16.5165 65.0577 16.415 65.3477 16.3425 65.6667C16.27 65.9857 16.241 66.3192 16.241 66.6527V69.8282H14.9215Z" fill="#0F2837"/>
<path d="M23.4185 59.9683L24.4625 61.0123L23.4185 62.0708L22.36 61.0123L23.4185 59.9683ZM22.7515 62.9843H24.071V69.8283H22.7515V62.9843Z" fill="#0F2837"/>
<path d="M26.2895 68.1027C26.536 68.3492 26.826 68.5377 27.174 68.6972C27.522 68.8422 27.9135 68.9147 28.363 68.9147C28.798 68.9147 29.175 68.8422 29.465 68.6972C29.755 68.5522 29.9 68.3347 29.9 68.0302C29.9 67.8707 29.871 67.7402 29.7985 67.6242C29.726 67.5082 29.6245 67.4067 29.4795 67.3197C29.3345 67.2327 29.1315 67.1457 28.8705 67.0732C28.624 67.0007 28.305 66.9137 27.9425 66.8267C27.6815 66.7687 27.4205 66.6962 27.1595 66.5947C26.8985 66.4932 26.6665 66.3627 26.4635 66.2032C26.2605 66.0437 26.0865 65.8407 25.956 65.6087C25.8255 65.3767 25.7675 65.1012 25.7675 64.7822C25.7675 64.4487 25.84 64.1587 25.9995 63.9122C26.1445 63.6657 26.3475 63.4482 26.6085 63.2742C26.8695 63.1002 27.145 62.9697 27.464 62.8827C27.783 62.7957 28.1165 62.7522 28.45 62.7522C29.03 62.7522 29.523 62.8247 29.9435 62.9842C30.364 63.1437 30.7265 63.3467 31.0455 63.6222L30.3205 64.5357C30.1175 64.3472 29.8565 64.1877 29.552 64.0572C29.2475 63.9267 28.885 63.8687 28.4645 63.8687C28.044 63.8687 27.696 63.9412 27.4495 64.0717C27.1885 64.2022 27.0725 64.4342 27.0725 64.7532C27.0725 65.0432 27.2465 65.2607 27.58 65.4057C27.9135 65.5507 28.363 65.6812 28.914 65.8117C29.233 65.8842 29.5375 65.9857 29.813 66.0872C30.0885 66.1887 30.335 66.3192 30.5525 66.4787C30.77 66.6382 30.9295 66.8412 31.06 67.0732C31.176 67.3052 31.2485 67.5952 31.2485 67.9287C31.2485 68.2767 31.176 68.5667 31.0165 68.8277C30.857 69.0887 30.654 69.3062 30.3785 69.4802C30.1175 69.6542 29.813 69.7847 29.465 69.8717C29.117 69.9587 28.7545 70.0022 28.392 70.0022C27.1015 70.0022 26.13 69.6542 25.4775 68.9582L26.2895 68.1027Z" fill="#0F2837"/>
<path d="M33.3945 64.0862H32.162V62.9842H33.3945V60.7512H34.714V62.9842H36.715V64.0862H34.714V67.4647C34.714 68.0157 34.801 68.3927 34.975 68.5957C35.149 68.7987 35.3955 68.9002 35.7 68.9002C35.961 68.9002 36.164 68.8567 36.338 68.7842C36.4975 68.7117 36.6715 68.5812 36.8455 68.4362L37.4545 69.2482C37.1645 69.5237 36.8745 69.7267 36.57 69.8427C36.2655 69.9587 35.9175 70.0312 35.497 70.0312C34.772 70.0312 34.2355 69.8282 33.902 69.4367C33.554 69.0452 33.3945 68.4362 33.3945 67.5952V64.0862Z" fill="#0F2837"/>
<path d="M38.571 69.8283V63.6512V63.4193C38.571 63.3323 38.571 63.1872 38.5565 62.9987H39.8181L39.8615 64.1008C39.934 63.9848 40.05 63.8543 40.166 63.7093C40.2965 63.5643 40.4561 63.4338 40.6301 63.3178C40.8186 63.2018 41.0216 63.1003 41.2681 63.0133C41.5146 62.9263 41.7901 62.8828 42.0946 62.8828C42.2396 62.8828 42.3846 62.8973 42.5006 62.9118C42.6166 62.9263 42.7325 62.9552 42.8485 62.9987L42.5585 64.2312C42.3845 64.1587 42.1526 64.1297 41.8771 64.1297C41.5871 64.1297 41.326 64.1878 41.094 64.2893C40.8475 64.4053 40.6446 64.5502 40.4706 64.7387C40.2966 64.9272 40.1516 65.1593 40.0501 65.4058C39.9486 65.6668 39.8906 65.9278 39.8906 66.2178V69.8283H38.571Z" fill="#0F2837"/>
<path d="M44.197 71.5102C44.2985 71.5972 44.4145 71.6697 44.5305 71.7422C44.661 71.8147 44.8205 71.8437 45.009 71.8437C45.1685 71.8437 45.299 71.8147 45.415 71.7422C45.531 71.6697 45.6325 71.5682 45.7195 71.4232C45.8065 71.2782 45.908 71.1042 45.9805 70.9157C46.0675 70.7127 46.1545 70.4807 46.2705 70.2197L46.4445 69.7847L43.385 62.9987H44.9075L47.1115 68.1607L49.0545 62.9987H50.49L47.7495 69.6687C47.619 69.9877 47.4885 70.3357 47.358 70.7127C47.2275 71.0897 47.0535 71.4522 46.865 71.7857C46.662 72.1192 46.43 72.4092 46.14 72.6267C45.85 72.8587 45.502 72.9602 45.067 72.9602C44.719 72.9602 44.429 72.9167 44.197 72.8152C43.965 72.7282 43.762 72.5977 43.5735 72.4382L44.197 71.5102Z" fill="#0F2837"/>
<path d="M57.0151 70.0312C56.4931 70.0312 56 69.9297 55.5505 69.7412C55.1155 69.5527 54.7241 69.2917 54.4051 68.9582C54.0861 68.6247 53.8395 68.2332 53.651 67.7982C53.4625 67.3632 53.3755 66.8992 53.3755 66.3917C53.3755 65.8842 53.4625 65.4202 53.651 64.9852C53.825 64.5502 54.0861 64.1587 54.4051 63.8252C54.7241 63.4917 55.101 63.2307 55.5505 63.0422C55.9855 62.8537 56.4786 62.7522 57.0151 62.7522C57.5371 62.7522 58.0156 62.8537 58.4651 63.0422C58.9001 63.2307 59.2915 63.4917 59.6105 63.8252C59.9295 64.1587 60.1906 64.5502 60.3646 64.9852C60.5531 65.4202 60.64 65.8842 60.64 66.3917C60.64 66.8992 60.5531 67.3632 60.3646 67.7982C60.1761 68.2332 59.9295 68.6247 59.6105 68.9582C59.2915 69.2917 58.9001 69.5527 58.4651 69.7412C58.0301 69.9442 57.5371 70.0312 57.0151 70.0312ZM57.0151 68.8857C57.3631 68.8857 57.6821 68.8132 57.9721 68.6682C58.2621 68.5232 58.4941 68.3347 58.6971 68.1027C58.9001 67.8707 59.045 67.6097 59.1465 67.3052C59.248 67.0007 59.306 66.6962 59.306 66.3917C59.306 66.0872 59.248 65.7827 59.1465 65.4782C59.045 65.1737 58.8856 64.9127 58.6971 64.6807C58.4941 64.4487 58.2621 64.2602 57.9721 64.1152C57.6966 63.9702 57.3776 63.8977 57.0151 63.8977C56.6671 63.8977 56.348 63.9702 56.058 64.1152C55.768 64.2602 55.536 64.4487 55.333 64.6807C55.13 64.9127 54.985 65.1737 54.8835 65.4782C54.782 65.7827 54.724 66.0872 54.724 66.4062C54.724 66.7252 54.782 67.0297 54.8835 67.3197C54.985 67.6097 55.1445 67.8852 55.333 68.1172C55.536 68.3492 55.768 68.5377 56.058 68.6827C56.348 68.8132 56.6671 68.8857 57.0151 68.8857Z" fill="#0F2837"/>
<path d="M62.6556 64.0862H61.423V62.9842H62.6556V62.4187C62.6556 61.9547 62.7281 61.5632 62.8586 61.2152C62.9891 60.8817 63.1631 60.6062 63.3806 60.3887C63.5981 60.1712 63.8591 60.0117 64.1346 59.9102C64.4246 59.8087 64.7146 59.7507 65.0336 59.7507C65.3961 59.7507 65.7585 59.8087 66.1065 59.9247C66.4545 60.0407 66.7736 60.2292 67.0636 60.5047L66.3965 61.3602C66.034 61.0557 65.6425 60.9107 65.2365 60.9107C64.8595 60.9107 64.5406 61.0412 64.3231 61.2732C64.0911 61.5197 63.975 61.9402 63.975 62.5347V62.9697H65.9325V64.0717H63.975V69.8137H62.6556V64.0862Z" fill="#0F2837"/>
<path d="M78.6925 68.1027C78.591 68.2767 78.417 68.4797 78.185 68.7117C77.953 68.9437 77.6775 69.1467 77.3585 69.3497C77.0395 69.5527 76.6625 69.7267 76.242 69.8572C75.8215 69.9877 75.3575 70.0602 74.85 70.0602C74.125 70.0602 73.458 69.9297 72.8635 69.6832C72.269 69.4222 71.747 69.0742 71.312 68.6102C70.877 68.1607 70.5435 67.6097 70.297 66.9862C70.0505 66.3627 69.9345 65.6812 69.9345 64.9417C69.9345 64.2312 70.0505 63.5497 70.297 62.9262C70.5435 62.3027 70.877 61.7517 71.312 61.2732C71.747 60.7947 72.269 60.4322 72.8635 60.1567C73.4725 59.8812 74.1395 59.7507 74.879 59.7507C75.401 59.7507 75.865 59.8087 76.2855 59.9392C76.6915 60.0697 77.054 60.2292 77.373 60.4177C77.6775 60.6062 77.953 60.8237 78.1705 61.0412C78.388 61.2732 78.5765 61.4762 78.707 61.6937L77.7065 62.5492C77.5905 62.3897 77.4455 62.2157 77.286 62.0272C77.1265 61.8387 76.9235 61.6792 76.706 61.5342C76.474 61.3892 76.213 61.2587 75.923 61.1717C75.633 61.0702 75.285 61.0267 74.908 61.0267C74.3715 61.0267 73.8785 61.1282 73.458 61.3312C73.0375 61.5342 72.675 61.8097 72.3705 62.1722C72.066 62.5202 71.8485 62.9407 71.689 63.4047C71.5295 63.8832 71.457 64.3762 71.457 64.9127C71.457 65.4492 71.544 65.9422 71.7035 66.4062C71.863 66.8702 72.095 67.2762 72.385 67.6242C72.675 67.9722 73.0375 68.2332 73.458 68.4362C73.8785 68.6247 74.357 68.7262 74.879 68.7262C75.314 68.7262 75.7055 68.6682 76.0245 68.5522C76.3435 68.4362 76.619 68.3057 76.8365 68.1462C77.054 67.9867 77.2425 67.8272 77.3875 67.6677C77.5325 67.5082 77.6485 67.3777 77.75 67.2617L78.6925 68.1027Z" fill="#0F2837"/>
<path d="M80.07 62.9843H81.3895V67.0008C81.3895 67.6533 81.52 68.1172 81.781 68.4072C82.042 68.6972 82.4335 68.8422 82.9265 68.8422C83.3035 68.8422 83.6225 68.7698 83.8835 68.6103C84.13 68.4508 84.333 68.2477 84.4925 68.0012C84.652 67.7547 84.7535 67.4648 84.826 67.1458C84.884 66.8268 84.9275 66.4932 84.9275 66.1597V62.9843H86.247V69.1322V69.4078C86.247 69.5528 86.247 69.6978 86.2615 69.8283H85L84.9565 68.8133C84.8695 68.9293 84.7535 69.0598 84.6375 69.1903C84.507 69.3208 84.3475 69.4512 84.159 69.5672C83.9705 69.6832 83.753 69.7702 83.5065 69.8572C83.26 69.9297 82.9845 69.9733 82.6655 69.9733C81.7665 69.9733 81.114 69.7122 80.6935 69.2047C80.273 68.6972 80.0555 67.9868 80.0555 67.0878V62.9843H80.07Z" fill="#0F2837"/>
<path d="M89.4081 60.0117H88.0886V69.8282H89.4081V60.0117Z" fill="#0F2837"/>
<path d="M91.8151 64.0862H90.5826V62.9842H91.8151V60.7512H93.1346V62.9842H95.1356V64.0862H93.1346V67.4647C93.1346 68.0157 93.2216 68.3927 93.3956 68.5957C93.5696 68.7987 93.8161 68.9002 94.1206 68.9002C94.3816 68.9002 94.5846 68.8567 94.7586 68.7842C94.9181 68.7117 95.0921 68.5812 95.2661 68.4362L95.8751 69.2482C95.5851 69.5237 95.2951 69.7267 95.0051 69.8427C94.7006 69.9587 94.3526 70.0312 93.9321 70.0312C93.2071 70.0312 92.6706 69.8282 92.3371 69.4367C91.9891 69.0452 91.8296 68.4362 91.8296 67.5952V64.0862H91.8151Z" fill="#0F2837"/>
<path d="M96.6871 62.9843H98.0065V67.0008C98.0065 67.6533 98.137 68.1172 98.398 68.4072C98.659 68.6972 99.0506 68.8422 99.5436 68.8422C99.9206 68.8422 100.24 68.7698 100.501 68.6103C100.747 68.4508 100.95 68.2477 101.11 68.0012C101.269 67.7547 101.371 67.4648 101.443 67.1458C101.501 66.8268 101.545 66.4932 101.545 66.1597V62.9843H102.864V69.1322V69.4078C102.864 69.5528 102.864 69.6978 102.879 69.8283H101.617L101.574 68.8133C101.487 68.9293 101.371 69.0598 101.255 69.1903C101.124 69.3208 100.965 69.4512 100.776 69.5672C100.588 69.6832 100.37 69.7702 100.124 69.8572C99.8771 69.9297 99.6015 69.9733 99.2825 69.9733C98.3835 69.9733 97.731 69.7122 97.3105 69.2047C96.89 68.6972 96.6725 67.9868 96.6725 67.0878V62.9843H96.6871Z" fill="#0F2837"/>
<path d="M104.706 69.8283V63.6512V63.4193C104.706 63.3323 104.706 63.1872 104.691 62.9987H105.953L105.996 64.1008C106.069 63.9848 106.185 63.8543 106.301 63.7093C106.431 63.5643 106.591 63.4338 106.765 63.3178C106.953 63.2018 107.156 63.1003 107.403 63.0133C107.649 62.9263 107.925 62.8828 108.229 62.8828C108.374 62.8828 108.519 62.8973 108.635 62.9118C108.751 62.9263 108.867 62.9552 108.983 62.9987L108.693 64.2312C108.519 64.1587 108.287 64.1297 108.012 64.1297C107.722 64.1297 107.461 64.1878 107.229 64.2893C106.982 64.4053 106.779 64.5502 106.605 64.7387C106.431 64.9272 106.286 65.1593 106.185 65.4058C106.083 65.6668 106.025 65.9278 106.025 66.2178V69.8283H104.706Z" fill="#0F2837"/>
<path d="M115.943 68.8278C115.871 68.9148 115.74 69.0307 115.595 69.1612C115.436 69.2917 115.233 69.4368 114.986 69.5528C114.74 69.6833 114.435 69.7847 114.102 69.8863C113.768 69.9732 113.377 70.0312 112.942 70.0312C112.405 70.0312 111.927 69.9443 111.477 69.7703C111.028 69.5963 110.651 69.3498 110.346 69.0162C110.027 68.6972 109.795 68.3057 109.621 67.8562C109.447 67.4067 109.36 66.8993 109.36 66.3483C109.36 65.8408 109.447 65.3768 109.607 64.9418C109.766 64.5068 110.013 64.1298 110.317 63.8108C110.622 63.4918 110.984 63.2453 111.405 63.0568C111.825 62.8683 112.275 62.7812 112.782 62.7812C113.377 62.7812 113.87 62.8972 114.305 63.1147C114.725 63.3467 115.073 63.6367 115.349 64.0137C115.624 64.3907 115.813 64.8112 115.943 65.2897C116.074 65.7682 116.132 66.2758 116.132 66.7978H110.723C110.738 67.1023 110.796 67.3777 110.926 67.6388C111.057 67.8997 111.216 68.1173 111.419 68.3058C111.622 68.4943 111.854 68.6393 112.13 68.7408C112.391 68.8423 112.681 68.9003 112.971 68.9003C113.551 68.9003 114.029 68.7988 114.392 68.6103C114.769 68.4073 115.03 68.2188 115.204 68.0303L115.943 68.8278ZM114.754 65.8118C114.711 65.2753 114.522 64.8258 114.189 64.4633C113.855 64.0863 113.391 63.8978 112.782 63.8978C112.463 63.8978 112.188 63.9557 111.941 64.0572C111.695 64.1587 111.477 64.3038 111.303 64.4778C111.129 64.6518 110.984 64.8548 110.897 65.0868C110.796 65.3188 110.738 65.5507 110.738 65.7972H114.754V65.8118Z" fill="#0F2837"/>
<path d="M92.0615 4.54926C91.3365 14.3513 92.221 24.1098 91.989 33.9988C91.9455 35.8113 92.1775 37.7543 92.0325 39.5813C92.018 39.7988 91.96 39.9583 91.6265 39.9728C91.177 39.9293 90.7275 39.8858 90.278 39.9728C90.133 38.6678 90.191 37.6528 90.075 36.5218C89.814 34.0568 89.959 32.0558 89.9445 29.3733C89.9155 24.7768 89.524 20.1078 89.8575 15.5258C89.9735 13.8873 89.988 11.2193 89.901 9.58076C89.814 7.91326 89.727 6.68076 89.8285 4.56376C90.626 4.46226 91.3655 4.46226 92.0615 4.54926Z" fill="#EB5A3C"/>
<path d="M10.7021 1.77974C11.4996 1.85224 11.8621 2.09874 11.9201 2.99774C12.0071 4.34624 11.8186 5.07124 11.9636 6.39074C12.442 10.7697 11.4126 15.2212 11.8766 19.6147C12.1231 21.9347 11.8911 24.0227 11.9636 26.3427C12.0796 29.8082 11.9346 33.7377 11.8476 37.7977H1.04505C0.668051 37.2612 0.740552 34.5642 0.856552 33.8537C0.958052 33.2447 0.958052 32.6067 0.943552 31.9832C0.914552 29.4312 1.07405 27.1547 1.05955 24.6027C1.04505 23.1092 1.03055 21.6012 0.784052 20.1222C0.566552 18.8172 0.900052 16.5262 0.711552 15.2067C0.465052 13.5537 0.334552 3.72274 0.421552 1.83774C0.421552 1.83774 9.42605 1.66374 10.7021 1.77974Z" fill="#EB5A3C"/>
<path d="M30.4946 4.08524C29.8711 3.85324 29.9726 4.59274 29.9726 4.96974C29.9726 5.33224 29.9726 5.54974 29.9581 6.02824C29.9436 6.97074 30.0306 9.56624 30.0306 10.4942C30.0451 12.0602 30.1466 13.4377 30.1176 14.6702C30.0596 16.9902 30.0595 19.3247 30.1465 21.6592C30.3785 27.4447 30.1031 33.2592 30.2771 39.0157C30.2916 39.5087 30.6106 39.6537 31.0601 39.7697L31.7271 39.8857C31.6981 34.9557 32.0896 29.7792 31.7851 24.8637C31.6546 22.8047 31.7271 20.7602 31.7271 18.7012C31.7271 16.7292 31.7125 14.7572 31.7415 12.7852C31.7705 11.5817 31.7561 10.3927 31.7126 9.18924C31.6691 7.71024 31.7416 4.85374 31.3501 4.46224C31.1471 4.21574 30.9006 4.23024 30.4946 4.08524Z" fill="#6E1946"/>
<path d="M19.837 35.8258C20.4895 35.8113 20.359 35.3183 20.359 34.9268C20.359 34.5643 20.446 34.3468 20.446 33.8683C20.4605 32.9113 20.4025 30.3013 20.388 29.3588C20.3735 27.7783 20.2865 26.4008 20.3155 25.1538C20.3735 22.8048 20.4025 20.4558 20.3155 18.1068C20.1125 12.2633 20.417 6.40526 20.272 0.605261C20.2575 0.0977607 19.924 0.0832603 19.3585 0.0542603L18.5755 0.0832598C18.5755 5.05676 18.6335 10.3493 18.6915 15.6418C18.7205 17.7153 18.6915 19.3248 18.6915 21.3983C18.6915 23.3848 18.735 24.9798 18.7205 26.9663C18.7205 28.0248 18.677 29.1848 18.6625 30.6493C18.648 32.1428 18.5755 34.9703 18.9235 35.4198C19.1845 35.7388 19.431 35.8258 19.837 35.8258Z" fill="#91B9B4"/>
<path d="M34.0325 38.8707C33.438 38.7982 33.351 38.5227 33.3655 37.8412C33.4235 35.8112 33.293 31.4612 33.0755 28.8077C32.887 26.4007 32.9305 23.9357 33.235 21.5577C33.438 19.9047 33.148 18.6867 33.148 16.6422C33.1335 13.9597 33.293 11.8572 33.293 10.0447C33.2785 8.92822 33.2495 7.81172 33.1915 6.69522C33.148 5.65122 33.1625 3.34572 33.1625 3.09922C33.3365 3.04122 33.96 3.05572 34.1195 3.07022C34.6995 3.12822 34.975 3.20072 35.381 3.40372C35.6275 4.46222 35.555 6.70972 35.555 7.97122C35.555 8.71072 35.5115 11.7557 35.555 12.4807C35.642 13.6987 35.5985 14.9312 35.5985 16.1492C35.613 17.7007 35.7 19.2667 35.7 20.8182C35.7 22.7902 35.5405 24.7622 35.4825 26.7342C35.3955 30.3737 35.8595 35.0717 35.816 38.1167C35.8015 38.7257 35.874 39.0447 35.236 39.0447C35.2505 39.0157 34.6415 38.9432 34.0325 38.8707Z" fill="#EB5A3C"/>
<path d="M88.7265 37.2032C88.8425 35.6952 88.5236 33.3607 88.5236 32.1427C88.5236 31.4322 88.4365 28.4887 88.48 27.7782C88.5525 26.6037 88.4945 25.4147 88.4945 24.2257C88.4945 22.7177 88.5815 21.2097 88.567 19.7017C88.5525 17.7877 88.364 15.8882 88.2915 13.9742C88.1465 10.0012 88.741 4.70872 88.4945 1.89572C87.494 1.67822 86.2615 1.62022 84.913 1.64922C84.5795 3.86772 84.6665 6.08622 84.71 8.78322C84.739 10.5377 84.5795 12.5677 84.623 15.1777C84.652 17.1497 85.1595 19.5132 84.9565 21.1227C84.6665 23.4282 84.623 25.8062 84.8405 28.1407C85.1595 31.4757 85.0435 36.9422 85.087 37.0147L88.7265 37.2032Z" fill="#B41932"/>
<path d="M99.2391 37.2903C99.3986 33.1723 99.3696 30.6928 99.4421 27.1403C99.4856 24.6318 99.0941 21.4563 99.1376 18.8173C99.2246 13.9743 99.2826 12.3213 98.8911 7.81176C98.8041 6.79676 98.9491 4.89726 98.9056 3.88226C98.8766 3.20076 98.8476 2.33076 98.8331 1.64926C98.8331 1.64926 102.154 2.35976 104.735 1.82326C108.838 0.953258 115.624 1.85226 115.624 1.85226C116.03 2.54826 116.088 4.14326 116.074 4.53476C116.001 7.50726 115.943 6.46326 116.045 9.42126C116.146 12.2198 115.624 14.6993 115.624 18.6433C115.624 21.2388 116.016 22.9498 116.103 24.6753C116.19 26.4588 115.885 27.9523 116.001 30.7653C116.074 32.5053 116.03 37.0728 116.059 37.4933C116.059 37.4933 103.836 37.5658 101.226 37.2468C99.8481 37.0728 99.2391 37.2903 99.2391 37.2903Z" fill="#6E1946"/>
<path d="M76.88 0.141233C76.9525 6.28923 76.996 13.1042 77.3005 18.6432C77.402 20.4992 77.344 22.8192 77.4165 24.9217C77.4455 25.8642 77.286 27.7347 77.2135 28.9817C77.1555 29.9967 77.1845 31.0117 77.199 32.0122C77.228 33.0852 77.2425 35.3327 77.1555 35.3762C76.532 35.2747 75.865 35.2747 75.169 35.3762C74.937 34.5497 75.0965 33.7812 75.111 32.9257C75.2415 25.5452 74.7195 20.1657 74.85 13.3797C74.8935 11.1757 74.821 8.15973 74.647 5.97023C74.502 4.07073 74.56 1.92473 74.792 0.0397339C75.517 0.0397339 76.213 0.0687334 76.88 0.141233Z" fill="#FAC39B"/>
<path d="M97.3976 0.474736C97.5861 3.65024 97.4411 5.73824 97.4991 8.46424C97.5571 10.8567 97.8181 12.9012 97.6731 15.6417C97.5426 18.0052 97.7891 20.3832 97.8471 22.7612C97.8906 25.0667 97.9341 27.3867 97.9631 29.6922C98.0066 31.4757 98.0501 33.0997 98.0501 34.8977C98.0501 35.2022 98.0211 35.8402 98.0211 36.1447C98.0211 36.1447 97.3976 36.0287 96.7741 36.0867C95.2226 36.2317 94.0191 36.0432 93.5696 35.9562C93.1926 35.8692 93.5116 29.6197 93.5261 29.0397C93.5696 26.6907 93.5696 24.3417 93.5696 21.9927C93.5551 19.6147 93.3376 17.0917 93.2941 14.7282C93.2506 12.3212 93.3811 10.0737 93.3231 7.68123C93.2651 5.25973 93.1926 3.20074 93.1201 0.779235C93.1056 0.286235 93.5696 0.0252354 94.3526 0.242735C95.3676 0.503735 96.4551 0.170236 97.3976 0.474736Z" fill="#FF9619"/>
<path d="M16.0091 3.44723C16.7341 3.54873 17.2706 4.23023 17.2851 5.04223C17.2996 6.20223 17.285 7.23173 17.2561 8.24673C17.227 9.37773 17.1836 10.4797 17.2126 11.7122C17.2706 16.7292 17.4881 21.5142 17.2706 26.7052C17.0821 31.0987 17.4881 35.3907 17.4446 39.4217C16.1106 39.3492 14.5156 39.2187 13.2251 39.1607C13.5876 31.7222 13.3556 24.6752 13.2686 16.9322C13.2251 12.5822 13.9356 9.17473 13.3266 3.37473C14.2546 3.27323 15.1536 3.33123 16.0091 3.44723Z" fill="#6E1946"/>
<path d="M73.516 19.9773C73.4291 17.3238 73.4435 12.3213 73.6465 9.65326C73.864 6.69526 73.139 2.21476 71.5005 2.30176C70.0795 2.22926 68.5135 2.38876 67.078 2.46126C65.9325 2.51926 64.468 2.51926 63.3225 2.62076C61.365 2.79476 61.1475 2.53376 59.1755 2.53376C56.7105 2.53376 54.5935 2.73676 52.1285 2.73676C49.7505 2.73676 47.097 2.67876 44.719 2.49026C42.3845 2.31626 39.905 1.98276 37.585 2.05526C37.2515 2.06976 37.063 3.56326 36.9905 5.41926C36.9325 7.20276 36.8165 11.0453 36.9615 12.8868C38.049 11.5528 39.412 11.0453 40.746 10.9148C41.819 10.8133 43.066 10.7553 44.226 10.9293C44.342 10.9438 43.472 10.1173 42.747 9.55176C42.341 9.23276 41.8915 8.89926 41.384 8.82676C40.7605 8.73976 40.108 8.79776 39.47 8.75426C39.934 8.34826 40.746 7.33326 42.7325 7.59426C43.8055 7.73926 45.6035 9.60976 46.256 9.10226C46.981 8.53676 46.691 6.31826 47.648 6.07176C48.431 5.86876 48.9385 8.84126 49.3155 9.49376C50.1855 8.37726 51.4905 7.57976 52.897 7.42026C53.6365 7.33326 55.8985 7.60876 56.203 8.68176C56.203 8.66726 53.3175 8.15976 51.534 10.7408C54.0715 9.74026 56.638 10.0738 58.7985 11.7268C59.393 12.1908 59.7845 12.6693 60.1905 13.2203C60.7705 14.0033 60.698 14.3513 60.6835 14.8008C59.741 14.6123 58.871 12.9883 57.247 12.4953C55.884 12.0748 54.4195 12.1618 53.0565 12.5678C56.145 13.0753 60.4225 17.1788 58.9435 20.5573C58.465 21.6448 58.3345 20.9198 58.1605 20.0063C57.9575 18.9188 57.653 18.2953 57.131 17.5848C56.6815 16.9613 56.203 16.4248 55.6375 15.8883C55.1445 15.4098 53.622 14.7428 52.9115 14.7863C54.898 15.3518 56.1885 19.3103 56.348 19.7308C56.7685 20.7603 56.754 21.9348 56.783 23.0223C56.7975 23.6458 56.8555 25.8353 56.058 26.0383C56.0725 26.0383 56.1885 20.7458 52.4475 17.7153C53.419 19.4263 53.506 21.5288 53.39 23.4428C53.332 24.5158 53.158 25.3858 52.6795 26.3573C52.578 26.5748 52.1865 27.5463 52.027 27.5753C51.534 27.6913 51.795 24.6173 51.7225 24.0663C51.6355 23.3993 50.4175 18.8463 49.1415 19.9628C48.489 20.5283 48.8225 23.0803 48.9095 24.2258C49.011 25.6178 49.1705 27.6623 49.1995 29.0543C49.2575 31.9543 49.33 33.9988 49.707 36.9133C53.042 35.1153 67.687 27.6188 69.775 33.8103C69.7895 34.0133 69.659 33.8683 69.659 33.8683C68.2235 31.7223 64.323 32.8243 62.3655 33.4333C58.8855 34.5063 55.5505 36.2028 52.404 38.0008C57.5805 38.0153 65.57 38.0008 71.486 38.0008C72.849 38.0008 73.9365 36.8698 73.893 35.5068C73.864 34.5063 73.835 33.3028 73.835 32.0123C73.835 30.5478 73.9076 28.9673 73.951 27.5028C74.009 24.6173 73.6175 22.8918 73.516 19.9773ZM44.4435 23.0223C44.2405 23.7763 43.9795 25.0523 43.9505 25.3858C43.907 25.7193 43.646 27.5173 43.646 27.5173C43.53 27.4448 43.4575 27.3143 43.3995 27.1838C42.66 25.5163 42.805 22.8773 42.805 22.8628C43.066 18.7158 44.545 17.5993 44.545 17.6138C43.878 17.2368 42.544 18.8028 41.8335 19.7888C40.891 21.1083 41.0505 22.0073 40.9345 24.0663C40.427 23.9648 39.934 23.1238 39.905 22.5003C39.731 19.2668 41.1665 16.3088 42.718 15.0908C42.892 14.9313 40.9345 15.3228 40.5865 15.4533C39.3105 15.9753 38.397 16.8888 37.7735 18.1068C36.454 20.6588 37.295 23.7038 37.121 26.5023C37.0195 28.1118 37.2515 29.7068 37.237 31.3163C37.2225 32.5343 36.918 32.7663 38.136 32.8678C38.6145 32.9113 39.093 32.9838 39.5715 33.0853C42.4425 33.7088 44.7335 35.0283 46.749 37.1163C47.068 33.3898 47.1115 29.9533 47.1115 26.2123C47.1115 24.7333 47.358 21.5578 46.372 20.2963C45.3715 19.0348 44.6755 22.1813 44.4435 23.0223ZM37.4255 33.9118C37.353 35.3618 37.4545 36.5218 37.469 38.2183C38.89 38.1168 39.7455 38.2473 41.1665 38.3343C42.5295 38.4213 43.9795 38.2763 45.3425 38.4503C43.2545 36.1883 40.5865 34.1873 37.4255 33.9118ZM39.76 13.9308C40.2675 13.5828 42.37 12.5243 42.6165 12.5388C41.1085 11.9588 39.296 12.1038 37.9765 12.9448C36.686 13.7568 37.121 16.0188 36.947 17.4688C37.585 16.1783 38.542 14.7428 39.76 13.9308Z" fill="#0F2837"/>
<path d="M82.5206 2.96874C82.7091 2.99774 82.8541 3.15724 82.8686 3.34574C82.9701 7.37674 83.0571 11.0017 83.3181 15.1777C83.4196 16.8307 83.5065 19.2667 83.26 21.2097C82.941 23.7617 83.5936 25.8352 83.4196 28.4017C83.1876 31.7947 83.6806 34.5642 83.4921 37.9572L79.2871 38.0442C78.9391 38.0587 78.6201 37.7252 78.6781 36.9132C78.7216 36.1012 78.6636 32.6212 78.6636 29.9967C78.6636 27.3722 79.0115 24.9507 78.7215 22.0217C78.5765 20.5862 78.9245 19.0492 78.8375 17.6137C78.6925 15.0037 78.6055 12.7127 78.5475 10.1027C78.5185 8.55124 78.5475 6.18774 78.504 4.66524C78.475 3.60674 78.7071 2.82374 79.2871 2.56274C79.9251 2.27274 81.7666 2.86724 82.5206 2.96874Z" fill="#91B9B4"/>
<path d="M21.7945 33.8683C21.751 34.8398 21.7365 35.1878 21.7365 35.5503C21.7365 35.7968 21.954 35.8403 22.157 35.9418C22.2875 36.0143 23.4185 36.2463 23.7955 36.3333C24.1145 36.4058 24.5785 36.4493 24.8975 36.4493C25.985 36.4348 27.0725 36.8118 28.16 36.7103C28.189 36.7103 28.2325 36.6958 28.2615 36.6813C28.3485 36.6233 28.653 36.4783 28.74 35.8693C28.8705 34.9413 28.6095 34.1293 28.7545 32.4473C28.8995 30.7653 28.769 26.1978 28.7835 25.0958C28.856 16.7728 28.3775 16.6423 28.595 10.2188C28.6675 7.95676 28.6095 7.20276 28.363 4.82476C28.305 4.20126 28.015 2.60626 28.16 1.50426C28.218 1.09826 27.9715 0.764763 27.58 0.750263C25.782 0.663263 21.9975 0.938763 21.9975 0.938763C21.7945 1.77976 21.751 2.57726 21.809 3.69376C21.838 4.47676 21.693 5.76726 21.693 6.55026C21.693 7.43476 21.635 8.31926 21.6785 9.20376C21.78 11.5818 21.8525 13.9598 21.78 16.3233C21.5915 22.3408 22.128 25.8353 21.896 31.7368L21.7945 33.8683Z" fill="#FF9619"/>
</svg>
