<svg width="201" height="73" viewBox="0 0 201 73" fill="none" xmlns="http://www.w3.org/2000/svg">
<path d="M0.1331 56.6298H2.51445L5.91324 61.7592L6.00887 62.0159L6.07628 61.7592L9.48918 56.6298H10.781V66.402H9.39355V58.747L9.28381 59.1131L6.4008 63.3084H5.58559L2.73079 59.1131L2.62105 58.8017V66.402H1.23363V57.6203L0.131531 57.3214" fill="#005C50"/>
<path d="M14.7943 57.4732L13.6656 58.1649L12.9867 57.0116L14.1421 56.3325L14.7943 57.4732ZM14.5764 59.617V66.4036H13.2705V60.4448L12.4427 60.2148V59.617H14.5764Z" fill="#005C50"/>
<path d="M23.1706 61.7999V66.402H21.8662V62.1395C21.8662 61.149 21.432 60.6326 20.5478 60.5919C19.8815 60.5512 19.1055 60.9314 18.1962 61.7311V66.4005H16.8903V60.4557L16.0594 60.2132V59.617H18.0583L18.168 60.7703C19.1212 59.8736 20.0712 59.4261 21.0103 59.4261C22.2754 59.4261 23.1706 60.268 23.1706 61.7999Z" fill="#005C50"/>
<path d="M26.9268 57.4732L25.798 58.1649L25.1192 57.0116L26.2746 56.3325L26.9268 57.4732ZM26.7089 59.617V66.4036H25.403V60.4448L24.5737 60.2148V59.617H26.7089Z" fill="#005C50"/>
<path d="M31.4669 66.5241C30.4196 66.6727 29.2094 66.4959 28.1778 66.075L28.4365 65.0985C30.0544 65.6822 32.0391 65.859 32.0799 64.5962C32.0799 64.3114 31.9701 64.108 31.5766 63.8905C31.3728 63.781 31.2098 63.7011 31.0734 63.6323C30.9229 63.5791 30.6783 63.4836 30.3256 63.3475C28.9523 62.8452 28.2311 62.357 28.2719 61.3117C28.3126 59.2086 31.3179 59.099 33.0456 59.8736L32.801 60.8501C31.4543 60.2664 29.4963 60.293 29.5245 61.2976C29.5245 61.6512 29.7283 61.8406 30.0951 62.0315C30.3663 62.1802 30.4761 62.2083 30.8711 62.3429C31.0624 62.4117 31.1972 62.465 31.2929 62.5056C32.6395 62.9939 33.3732 63.5102 33.3325 64.5962C33.2901 65.6963 32.5141 66.3739 31.4669 66.5241Z" fill="#005C50"/>
<path d="M38.4589 66.3207C37.3442 66.7009 36.5008 66.6868 35.9442 66.28C35.3861 65.8856 35.1008 65.2754 35.1008 64.4601V60.62H33.9595V60.0082L35.1008 59.534V57.999H36.4208V59.6154H37.849V60.62H36.4208V64.2973C36.4208 65.316 36.8708 65.7495 38.2159 65.3301L38.4589 66.3207Z" fill="#005C50"/>
<path d="M41.1647 60.7421C42.1304 59.725 42.8233 59.2352 43.858 59.4934L43.7358 60.6326C42.8108 60.4573 42.1727 60.9174 41.207 61.9345V66.4005H39.887V60.4573L39.0577 60.2132V59.6154H41.0565L41.1647 60.7421Z" fill="#005C50"/>
<path d="M50.0709 59.617H51.4176L47.5688 69.3893H46.2096L47.6519 65.8872H47.122L44.471 59.617H45.8036L48.0188 64.9092" fill="#005C50"/>
<path d="M58.999 65.5069C59.6245 65.5069 60.1277 65.2753 60.5212 64.8278C60.9163 64.3787 61.1044 63.7559 61.1044 62.9813C61.1044 62.2067 60.9147 61.5965 60.5353 61.1489C60.1403 60.7014 59.637 60.4839 58.9974 60.4839C58.3578 60.4839 57.8546 60.7014 57.4752 61.1489C57.0801 61.5965 56.8904 62.2067 56.8904 62.9813C56.8904 63.7559 57.0801 64.3787 57.4752 64.8278C57.8702 65.2753 58.3735 65.5069 58.999 65.5069ZM58.999 66.5648C57.9784 66.5648 57.1632 66.2252 56.5236 65.5601C55.884 64.8935 55.5579 64.0266 55.5579 62.9813C55.5579 61.936 55.8855 61.0816 56.5236 60.415C57.1632 59.7515 57.9784 59.4245 58.999 59.4245C60.018 59.4245 60.8473 59.7515 61.4869 60.415C62.1266 61.0801 62.4526 61.9345 62.4526 62.9813C62.4526 64.0282 62.125 64.8935 61.4869 65.5601C60.8489 66.2252 60.0196 66.5648 58.999 66.5648Z" fill="#005C50"/>
<path d="M67.797 56.8598C66.1509 56.4404 65.621 56.9005 65.621 57.9192V59.617H67.3345V60.6216H65.621V66.4036H64.3166V60.62H63.2694V59.6154H64.3166V57.9458C64.3166 57.0632 64.602 56.3981 65.1867 55.9647C65.7715 55.5438 66.7246 55.5031 68.0556 55.8552L67.797 56.8598Z" fill="#005C50"/>
<path d="M79.0171 57.7564H74.4895V61.3258H78.1752V62.4665H74.4895V66.402H73.1037V57.6469L71.9875 57.3214V56.6298H79.0171" fill="#005C50"/>
<path d="M82.4205 57.4732L81.2918 58.1649L80.6114 57.0116L81.7684 56.3325L82.4205 57.4732ZM82.201 59.617V66.4036H80.8951V60.4448L80.0658 60.2148V59.617H82.201Z" fill="#005C50"/>
<path d="M90.7952 61.7997V66.4018H89.4893V62.1393C89.4893 61.1487 89.0551 60.6323 88.1709 60.5917C87.5062 60.551 86.7302 60.9312 85.8193 61.7309V66.4003H84.515V60.4555L83.6857 60.2114V59.6152H85.6845L85.7942 60.7685C86.7458 59.8718 87.6974 59.4243 88.6349 59.4243C89.8985 59.4259 90.7952 60.2678 90.7952 61.7997Z" fill="#005C50"/>
<path d="M96.6334 64.5681L96.6475 63.1848C94.8681 63.0909 94.1078 63.1441 93.7268 63.673C93.3051 64.1628 93.3725 65.4381 94.4731 65.5602C95.0829 65.629 95.8041 65.2894 96.6334 64.5681ZM92.6389 65.8449C92.2987 65.3833 92.1497 64.881 92.1905 64.3521C92.2313 63.8232 92.3802 63.4023 92.6655 63.0909C93.0057 62.684 93.4666 62.4399 94.0655 62.3429C94.6628 62.2615 95.5328 62.249 96.6741 62.3038V61.5292C96.6741 60.4432 95.5595 60.2257 93.3475 60.8641L93.0888 59.8877C94.1878 59.5215 95.2475 59.3854 96.2665 59.4934C97.2855 59.6013 97.9518 60.2398 97.9518 61.3383L97.9377 65.5883L98.7811 65.8043V66.4005H96.7839L96.7024 65.3692C95.8182 66.183 95.1268 66.6446 94.1627 66.5914C93.4807 66.5507 92.9791 66.3066 92.6389 65.8449Z" fill="#005C50"/>
<path d="M106.681 61.7999V66.402H105.376V62.1394C105.376 61.1489 104.942 60.6325 104.056 60.5918C103.39 60.5512 102.616 60.9314 101.703 61.731V66.4004H100.399V60.4557L99.5713 60.2116V59.6154H101.57L101.68 60.7687C102.631 59.872 103.583 59.4245 104.521 59.4245C105.783 59.4261 106.681 60.2679 106.681 61.7999Z" fill="#005C50"/>
<path d="M109.115 65.6149C108.517 64.9483 108.217 64.0799 108.217 62.9939C108.217 61.922 108.517 61.066 109.101 60.4025C109.686 59.7516 110.461 59.4261 111.426 59.4261C112.241 59.4261 113.017 59.6561 113.765 60.1177L113.535 61.0551C112.787 60.6341 112.133 60.4448 111.577 60.4714C110.324 60.4855 109.55 61.476 109.55 62.9954C109.55 64.5024 110.324 65.4804 111.63 65.5336C112.27 65.5617 112.963 65.3708 113.709 64.9765L113.941 65.9138C113.165 66.3473 112.35 66.5789 111.494 66.5929C110.503 66.6055 109.716 66.2784 109.115 65.6149Z" fill="#005C50"/>
<path d="M119.818 62.3585C119.912 61.2866 119.491 60.498 118.227 60.4854C117.139 60.4854 116.418 61.2178 116.311 62.3585H119.818ZM115.821 65.5601C115.236 64.8935 114.949 64.0407 114.949 62.9939C114.949 61.922 115.248 61.066 115.86 60.4025C116.473 59.7359 117.26 59.4104 118.24 59.4245C120.742 59.4245 121.314 61.4196 120.945 63.252H116.255C116.269 64.7042 117.084 65.4913 118.539 65.5054C119.246 65.5054 119.953 65.3145 120.646 64.9483L120.864 65.8434C120.183 66.3457 119.34 66.5898 118.348 66.5898C117.249 66.5788 116.405 66.2393 115.821 65.5601Z" fill="#005C50"/>
<path d="M103.193 30.3002V31.1656L101.99 31.4989V45.6354H100.1V30.2986" fill="#005C50"/>
<path d="M109.142 32.6412L107.404 33.6943L106.369 31.9386L108.148 30.8854" fill="#005C50"/>
<path d="M106.615 35.8068V46.7386C106.615 48.0358 106.537 48.9997 104.469 48.5866L104.094 50.0419C107.896 50.9072 108.507 48.8229 108.526 46.6994V37.0054L109.708 36.6721V35.8068H106.615Z" fill="#005C50"/>
<path d="M93.8805 35.8068V46.7386C93.8805 48.0358 93.8021 48.9997 91.7343 48.5866L91.3596 50.0419C95.1629 50.9072 95.7727 48.8229 95.7931 46.6994V37.0054L96.9752 36.6721V35.8068H93.8805Z" fill="#005C50"/>
<path d="M89.0081 32.6412L87.271 33.6943L86.2379 31.9386L88.0157 30.8854" fill="#005C50"/>
<path d="M85.857 32.6412L84.1199 33.6943L83.0868 31.9386L84.8646 30.8854" fill="#005C50"/>
<path d="M84.8254 44.0643C83.8111 44.0643 82.3233 43.4978 82.3233 40.894C82.3233 37.442 85.3663 37.3418 86.5076 37.3418H87.5485V44.0659H84.8254V44.0643ZM86.506 35.8068C84.7329 35.8068 80.3904 36.1307 80.3904 40.894C80.3904 45.2817 83.6543 45.6385 84.8254 45.6385H89.458V37.0258L90.6792 36.6721V35.8068H86.506Z" fill="#005C50"/>
<path d="M119.139 44.0643H116.967C115.173 44.0643 113.913 42.6184 113.913 40.9581C113.913 39.8377 114.187 38.9536 114.759 38.3042C115.311 37.6548 116.04 37.3418 116.967 37.3418H119.139V44.0643ZM121.049 35.8068H116.967C115.49 35.8068 114.308 36.2778 113.381 37.2417C112.455 38.2056 111.983 39.445 111.983 40.9581C111.983 44.4023 115.018 45.6385 116.967 45.6385H119.177C119.177 48.8823 117.05 49.1765 113.563 48.1547L113.188 49.6288C115.672 50.3767 117.601 50.3767 118.981 49.61C120.359 48.8417 121.049 47.643 121.049 45.6385V35.8068Z" fill="#005C50"/>
<path d="M28.9272 48.5303L29.9619 50.286L31.6989 49.2329L30.7081 47.4772" fill="#005C50"/>
<path d="M25.7777 48.5303L26.8124 50.286L28.5494 49.2329L27.557 47.4772" fill="#005C50"/>
<path d="M10.0818 32.3329L9.08941 30.5771L7.31006 31.6303L8.34475 33.386" fill="#005C50"/>
<path d="M6.93226 32.3329L5.9399 30.5771L4.16055 31.6303L5.19524 33.386" fill="#005C50"/>
<path d="M72.2932 30.3002V45.6369H74.1838V31.5004L75.3847 31.1671V30.3017" fill="#005C50"/>
<path d="M60.3127 44.0643H57.5912C56.5769 44.0643 55.0875 43.4963 55.0875 40.8924C55.0875 37.442 56.5596 37.3403 57.7009 37.3403C58.8422 37.3403 60.3143 37.442 60.3143 40.8924V44.0643H60.3127ZM66.8971 30.3002V44.0643H62.2441V40.8924C62.2441 36.1307 59.4724 35.8068 57.6993 35.8068C55.9263 35.8068 53.1561 36.1307 53.1561 40.8924V41.4714C53.1561 44.0752 51.6668 44.0643 50.6525 44.0643H43.2435V30.3002H41.3528V45.6369H50.6525C51.4583 45.6369 53.2596 45.7402 54.3006 44.371C55.3588 45.4977 56.87 45.6369 57.5912 45.6369H68.7893V31.5004L69.9917 31.1671V30.3017H66.8971V30.3002Z" fill="#005C50"/>
<path d="M7.99986 43.0237H6.76921C5.7549 43.0237 3.16662 42.8813 3.16662 40.1069C3.16662 36.6549 5.81761 36.5532 6.9589 36.5532H7.99986V43.0237ZM35.9552 30.3002V44.0643H32.5157C31.539 44.0643 30.0983 44.0658 29.9901 41.7484V35.8068H28.0806V41.4714C28.0806 44.0752 26.56 44.0643 25.5457 44.0643H10.1006C9.99556 44.0643 9.9109 43.9798 9.9109 43.8749V36.2386L11.1321 35.885V35.0197H6.9589C5.18583 35.0197 1.2352 35.3436 1.2352 40.1069C1.2352 44.4946 5.5997 44.5963 6.77078 44.5963H8.00143V44.8514C8.00143 45.2848 8.35416 45.6369 8.78842 45.6369H25.5472C26.3138 45.6369 27.974 45.723 29.0307 44.5556C30.0889 45.723 31.7491 45.6369 32.5157 45.6369H37.8459V31.5004L39.0483 31.1671V30.3017H35.9552V30.3002Z" fill="#005C50"/>
<path d="M154.102 64.8623C155.99 64.8623 158.255 65.7088 159.499 66.9513L163.634 71.0777C164.252 71.6942 165.078 72.0354 165.959 72.0354C166.84 72.0354 167.666 71.6958 168.284 71.0777L172.42 66.9513C173.856 65.5163 176.657 64.6087 178.664 64.9248L184.439 65.8387C186.233 66.1219 187.919 64.8967 188.203 63.1112L189.117 57.3464C189.435 55.3435 191.166 52.965 192.977 52.0433L198.186 49.3941C199.803 48.5725 200.447 46.5915 199.624 44.9782L196.97 39.7783C196.048 37.9709 196.048 35.0306 196.97 33.2248L199.624 28.0249C200.021 27.2472 200.091 26.3569 199.818 25.5212C199.547 24.6856 198.967 24.0065 198.188 23.609L192.978 20.9598C191.168 20.0381 189.437 17.6612 189.119 15.6567L188.205 9.89188C188.068 9.02966 187.6 8.26916 186.886 7.75277C186.175 7.23482 185.306 7.0267 184.441 7.16284L178.665 8.07669C176.66 8.39435 173.857 7.48519 172.421 6.05025L168.286 1.92384C167.668 1.3073 166.84 0.96617 165.961 0.96617C165.08 0.96617 164.253 1.3073 163.636 1.92384L159.5 6.05025C158.064 7.48519 155.263 8.39435 153.256 8.07669L147.48 7.16284C145.687 6.87961 144 8.10329 143.716 9.89188L142.802 15.6567C142.484 17.6596 140.753 20.0381 138.943 20.9598L133.732 23.6059C132.952 24.0018 132.372 24.6825 132.101 25.5181C131.83 26.3553 131.897 27.2441 132.296 28.0218L134.948 33.2217C135.872 35.0291 135.872 37.9693 134.948 39.7751L132.296 44.975C131.899 45.7527 131.83 46.6431 132.101 47.4787C132.372 48.3159 132.952 48.9935 133.732 49.3909L138.941 52.0402C140.752 52.9618 142.483 55.3388 142.801 57.3433L143.715 63.1081C143.999 64.8951 145.687 66.1219 147.479 65.8356L153.254 64.9217C153.526 64.8826 153.809 64.8623 154.102 64.8623ZM165.961 72.558C164.938 72.558 163.982 72.1637 163.264 71.4486L159.129 67.3206C157.796 65.9905 155.197 65.147 153.337 65.4412L147.562 66.3551C145.485 66.6837 143.528 65.2644 143.199 63.191L142.285 57.4263C141.99 55.5688 140.383 53.3624 138.704 52.508L133.495 49.8588C132.592 49.4003 131.919 48.6116 131.604 47.643C131.289 46.6728 131.368 45.6432 131.828 44.7403L134.483 39.5404C135.339 37.8629 135.339 35.137 134.483 33.4611L131.828 28.2612C131.368 27.3583 131.288 26.3271 131.604 25.3585C131.919 24.3883 132.592 23.6012 133.495 23.1412L138.704 20.4919C140.383 19.6375 141.989 17.4312 142.285 15.5737L143.199 9.80894C143.528 7.73556 145.485 6.31627 147.562 6.64488L153.337 7.55874C155.2 7.85449 157.796 7.00948 159.129 5.67939L163.263 1.55298C163.981 0.83629 164.937 0.441956 165.959 0.441956C166.981 0.441956 167.937 0.83629 168.655 1.55298L172.79 5.67939C174.122 7.00948 176.721 7.85292 178.581 7.55874L184.356 6.64488C185.359 6.48527 186.364 6.72938 187.192 7.32871C188.018 7.92803 188.561 8.80902 188.719 9.80894L189.633 15.5737C189.928 17.4312 191.535 19.6375 193.214 20.4919L198.423 23.1412C199.326 23.6012 199.999 24.3883 200.314 25.3585C200.629 26.3287 200.549 27.3583 200.09 28.2612L197.434 33.4611C196.578 35.137 196.578 37.8629 197.434 39.5404L200.09 44.7403C201.043 46.6103 200.297 48.9074 198.423 49.8604L193.214 52.5096C191.535 53.364 189.928 55.5704 189.633 57.4278L188.719 63.1926C188.39 65.266 186.432 66.6853 184.356 66.3567L178.581 65.4428C176.718 65.147 174.121 65.9921 172.79 67.3221L168.655 71.4486C167.939 72.1637 166.981 72.558 165.961 72.558Z" fill="#005C50"/>
<path d="M155.736 63.5071C157.915 63.5071 160.461 64.3772 161.93 65.7182L164.537 68.0983C166.164 69.5833 168.699 69.4706 170.187 67.8464L172.572 65.2441C174.207 63.4602 177.497 62.2287 179.905 62.5009L183.415 62.8969C184.469 63.0158 185.515 62.7153 186.353 62.0487C187.192 61.3821 187.719 60.4338 187.838 59.3791L188.235 55.8755C188.506 53.472 190.443 50.5458 192.552 49.3534L195.626 47.6149C196.551 47.0906 197.219 46.2347 197.503 45.2051C197.788 44.1738 197.657 43.0972 197.133 42.174L195.391 39.1054C194.197 37.0023 194.04 33.4987 195.043 31.2954L196.506 28.086C197.42 26.0814 196.529 23.7108 194.521 22.7985L191.306 21.3385C189.1 20.337 186.91 17.5939 186.425 15.2248L185.718 11.7681C185.276 9.61334 183.163 8.21596 181 8.65567L177.538 9.36297C175.165 9.8465 171.777 8.9123 169.99 7.2802L167.384 4.90011C165.757 3.4151 163.222 3.52777 161.734 5.15205L159.35 7.75434C157.713 9.53979 154.424 10.7697 152.016 10.4975L148.506 10.1016C147.448 9.98107 146.405 10.2831 145.566 10.9497C144.729 11.6163 144.201 12.5646 144.082 13.6193L143.685 17.1229C143.414 19.5264 141.478 22.4526 139.369 23.645L136.295 25.3835C135.368 25.9078 134.702 26.7637 134.417 27.7934C134.131 28.823 134.263 29.9012 134.787 30.8244L136.528 33.893C137.723 35.9961 137.88 39.4997 136.876 41.703L135.414 44.9124C134.5 46.917 135.39 49.2877 137.397 50.1999L140.614 51.6599C142.82 52.6614 145.01 55.4045 145.493 57.7736L146.2 61.2272C146.413 62.2678 147.023 63.1644 147.918 63.7559C148.811 64.3459 149.879 64.5524 150.92 64.3412L154.38 63.6339C154.805 63.5478 155.263 63.5071 155.736 63.5071ZM167.234 69.6662C166.142 69.6662 165.048 69.275 164.181 68.4848L161.576 66.1047C159.895 64.5712 156.717 63.6949 154.485 64.1487L151.023 64.8544C149.845 65.0938 148.639 64.8607 147.628 64.1925C146.617 63.5259 145.927 62.5103 145.687 61.3336L144.978 57.8769C144.522 55.6518 142.467 53.0761 140.394 52.1356L137.177 50.6756C136.083 50.178 135.246 49.2814 134.82 48.1485C134.395 47.0171 134.434 45.7903 134.933 44.6965L136.395 41.4871C137.337 39.4184 137.192 36.1276 136.069 34.1512L134.326 31.0826C133.732 30.0373 133.584 28.8199 133.906 27.6541C134.229 26.4899 134.983 25.5212 136.03 24.9282L139.104 23.1881C141.084 22.0693 142.903 19.3199 143.158 17.0619L143.555 13.5582C143.69 12.3643 144.285 11.2924 145.234 10.5381C146.182 9.7839 147.36 9.4459 148.557 9.57891L152.068 9.97481C154.333 10.2283 157.418 9.07504 158.956 7.39912L161.341 4.79683C163.024 2.96131 165.892 2.83299 167.731 4.5136L170.338 6.89369C172.018 8.42721 175.199 9.30351 177.428 8.84971L180.888 8.14554C183.331 7.64637 185.726 9.22526 186.226 11.6648L186.935 15.1215C187.39 17.3467 189.446 19.9239 191.517 20.8628L194.734 22.3228C197.004 23.354 198.011 26.0361 196.979 28.3019L195.517 31.5114C194.574 33.58 194.72 36.8708 195.844 38.8472L197.586 41.9158C198.18 42.9595 198.329 44.1785 198.006 45.3443C197.685 46.5085 196.929 47.4772 195.882 48.0702L192.808 49.8087C190.828 50.9291 189.009 53.677 188.753 55.935L188.355 59.4386C188.22 60.6326 187.625 61.7045 186.678 62.4587C185.729 63.2129 184.547 63.5509 183.353 63.4179L179.843 63.022C177.582 62.7654 174.49 63.9218 172.954 65.5977L170.573 68.2C169.682 69.1733 168.46 69.6662 167.234 69.6662Z" fill="#026455"/>
<path d="M157.611 62.1958C160.022 62.1958 162.751 63.0345 164.416 64.4037L165.377 65.1955C167.382 66.8433 170.356 66.5585 172.007 64.5587L172.8 63.5979C174.591 61.4306 178.328 59.8079 181.144 59.9784L182.389 60.0551C183.638 60.1318 184.847 59.714 185.792 58.8799C186.737 58.0459 187.3 56.8989 187.377 55.6517L187.454 54.4093C187.626 51.6036 189.697 48.0952 192.072 46.5852L193.124 45.917C195.314 44.5243 195.962 41.6122 194.567 39.4262L193.897 38.3762C192.384 36.007 191.994 31.9526 193.025 29.3378L193.483 28.1814C194.436 25.77 193.245 23.0347 190.829 22.0849L189.669 21.628C187.051 20.5983 184.347 17.5469 183.643 14.8273L183.331 13.6224C182.68 11.114 180.108 9.59923 177.593 10.2471L176.386 10.5585C173.66 11.2626 169.678 10.3801 167.505 8.59305L166.544 7.80126C165.576 7.00633 164.352 6.63391 163.096 6.7544C161.841 6.87489 160.709 7.47265 159.912 8.43657L159.121 9.3958C157.33 11.5631 153.591 13.1858 150.777 13.0152L149.533 12.9385C148.286 12.8603 147.074 13.2797 146.129 14.1137C145.184 14.9478 144.621 16.0948 144.544 17.3419L144.467 18.5844C144.296 21.3885 142.224 24.8984 139.85 26.4069L138.798 27.0766C137.742 27.748 137.01 28.7948 136.735 30.0248C136.463 31.2547 136.682 32.5128 137.356 33.5675L138.026 34.6175C139.538 36.9866 139.929 41.0411 138.897 43.6559L138.441 44.8123C137.982 45.9765 138.005 47.2534 138.508 48.4082C139.012 49.563 139.93 50.4503 141.095 50.9103L142.255 51.3657C144.873 52.3954 147.578 55.4467 148.282 58.168L148.594 59.3729C149.244 61.8828 151.818 63.396 154.331 62.7466L155.538 62.4352C156.172 62.274 156.877 62.1958 157.611 62.1958ZM168.37 66.7901C167.197 66.7901 166.019 66.4004 165.045 65.5993L164.084 64.8075C162.027 63.1143 158.251 62.2772 155.669 62.9438L154.461 63.2552C151.666 63.9766 148.807 62.2928 148.084 59.5043L147.772 58.2994C147.104 55.7222 144.543 52.8304 142.059 51.8539L140.901 51.397C139.606 50.8884 138.584 49.901 138.026 48.6179C137.466 47.3347 137.441 45.9155 137.95 44.6229L138.408 43.465C139.385 40.9879 139.015 37.1447 137.582 34.8992L136.913 33.8492C136.165 32.6771 135.92 31.2782 136.223 29.9121C136.527 28.5476 137.34 27.3834 138.515 26.6369L139.567 25.9672C141.816 24.537 143.781 21.2102 143.944 18.5531L144.02 17.3122C144.105 15.9242 144.731 14.6505 145.781 13.7241C146.83 12.7977 148.173 12.3345 149.564 12.4175L150.809 12.4941C153.475 12.6631 157.018 11.1187 158.715 9.0625L159.508 8.10327C160.394 7.03137 161.649 6.36632 163.046 6.23332C164.441 6.09874 165.802 6.51185 166.876 7.39754L167.837 8.18933C169.896 9.88403 173.672 10.7196 176.254 10.053L177.461 9.74163C180.256 9.02025 183.116 10.7024 183.839 13.4909L184.151 14.6958C184.819 17.2731 187.38 20.1649 189.862 21.1413L191.022 21.5982C193.706 22.6545 195.031 25.6949 193.972 28.3739L193.515 29.5303C192.536 32.0089 192.906 35.8506 194.341 38.0961L195.01 39.1461C196.561 41.5762 195.841 44.8107 193.408 46.3583L192.356 47.0265C190.106 48.4567 188.144 51.7835 187.979 54.4406L187.902 55.683C187.818 57.071 187.192 58.3463 186.142 59.2727C185.091 60.1991 183.745 60.6607 182.359 60.5778L181.116 60.5011C178.457 60.3321 174.906 61.8766 173.21 63.9312L172.416 64.8904C171.379 66.1438 169.88 66.7901 168.37 66.7901Z" fill="#006C5A"/>
<path d="M160.031 60.8016C162.366 60.8016 164.907 61.4901 166.561 62.6935C167.618 63.4602 168.916 63.7732 170.217 63.5682C171.52 63.3648 172.659 62.6716 173.429 61.6153C175.152 59.2556 178.932 57.3371 181.862 57.3371H181.876C184.585 57.3371 186.789 55.1385 186.792 52.4361C186.795 49.513 188.728 45.7371 191.102 44.0236C193.297 42.4354 193.789 39.3605 192.198 37.1698C190.48 34.8022 189.821 30.6147 190.73 27.8356C191.571 25.2631 190.16 22.4871 187.582 21.6468C184.797 20.7392 181.799 17.7379 180.898 14.9556C180.062 12.3815 177.284 10.9638 174.705 11.7963C171.918 12.6961 167.726 12.0279 165.357 10.3066C164.3 9.53669 163.001 9.22686 161.7 9.43185C160.398 9.63528 159.259 10.3285 158.487 11.3847C156.764 13.7445 152.985 15.6629 150.056 15.6629H150.04C147.333 15.6629 145.129 17.8599 145.124 20.5639C145.121 23.487 143.188 27.2614 140.816 28.978C139.756 29.7432 139.06 30.8808 138.852 32.178C138.643 33.4784 138.952 34.774 139.719 35.8318C141.437 38.1994 142.097 42.3869 141.188 45.166C140.782 46.4053 140.887 47.7354 141.482 48.9074C142.078 50.0795 143.092 50.948 144.336 51.3532C147.12 52.2608 150.119 55.2621 151.02 58.0428C151.854 60.6185 154.634 62.0362 157.213 61.2022C158.055 60.9299 159.023 60.8016 160.031 60.8016ZM169.436 64.1519C168.295 64.1519 167.188 63.7951 166.252 63.1144C164.004 61.4792 160.021 60.8438 157.374 61.6982C154.518 62.6199 151.445 61.052 150.523 58.2024C149.667 55.561 146.819 52.7099 144.174 51.8477C142.798 51.4002 141.677 50.4378 141.017 49.1422C140.357 47.8449 140.241 46.374 140.689 45.0001C141.553 42.3603 140.927 38.3841 139.294 36.1354C138.444 34.9649 138.102 33.53 138.333 32.0935C138.562 30.6554 139.335 29.3989 140.507 28.5508C142.76 26.9234 144.596 23.3384 144.599 20.5608C144.602 17.5689 147.043 15.1387 150.039 15.1387H150.055C152.836 15.1387 156.424 13.3157 158.062 11.0749C158.914 9.90756 160.177 9.1408 161.616 8.9139C163.057 8.687 164.493 9.03282 165.663 9.88408C167.911 11.5193 171.894 12.1546 174.541 11.2987C177.395 10.3786 180.468 11.9465 181.392 14.7945C182.247 17.4359 185.094 20.287 187.741 21.1492C190.592 22.0787 192.155 25.1504 191.224 27.9952C190.36 30.6351 190.987 34.6113 192.619 36.8599C194.38 39.2854 193.834 42.6873 191.404 44.4446C189.152 46.0751 187.316 49.6585 187.313 52.4361C187.308 55.4265 184.867 57.8582 181.871 57.8582H181.856C179.074 57.8582 175.483 59.6796 173.848 61.922C172.995 63.0893 171.733 63.8577 170.294 64.083C170.01 64.13 169.723 64.1519 169.436 64.1519Z" fill="#04745F"/>
<path d="M162.868 59.232C164.797 59.232 166.813 59.703 168.221 60.584C169.24 61.2209 170.452 61.4228 171.634 61.1536C172.815 60.8829 173.816 60.1725 174.456 59.1554C175.895 56.8629 179.267 54.8443 181.972 54.6581C183.172 54.5751 184.271 54.029 185.068 53.1167C185.864 52.2044 186.256 51.0418 186.175 49.8447C185.988 47.1438 187.528 43.5338 189.608 41.7969C191.521 40.1992 191.773 37.3465 190.174 35.4375C188.432 33.3625 187.553 29.5365 188.211 26.9123C188.818 24.4978 187.343 22.0411 184.924 21.4371C182.293 20.7798 179.328 18.201 178.316 15.6911C177.866 14.5769 177.005 13.7037 175.889 13.228C174.774 12.7539 173.547 12.7398 172.431 13.1889C169.916 14.1998 166 13.8524 163.702 12.4175C161.588 11.0968 158.791 11.7368 157.468 13.8461C156.028 16.1402 152.657 18.1588 149.951 18.3434C147.463 18.5155 145.579 20.6734 145.75 23.1584C145.936 25.8592 144.397 29.4693 142.316 31.2062C140.404 32.8039 140.151 35.6565 141.75 37.5656C143.492 39.6406 144.372 43.465 143.713 46.0907C143.42 47.2549 143.603 48.4677 144.226 49.5051C144.848 50.5426 145.834 51.2749 147.001 51.566C149.631 52.2248 152.596 54.802 153.609 57.312C154.059 58.4262 154.919 59.2993 156.035 59.7735C157.15 60.2476 158.378 60.2617 159.494 59.8126C160.466 59.4198 161.649 59.232 162.868 59.232ZM170.603 61.7936C169.667 61.7936 168.751 61.5323 167.942 61.0284C165.768 59.6686 162.063 59.3416 159.687 60.2977C158.44 60.7984 157.07 60.7828 155.827 60.2539C154.582 59.7249 153.621 58.7485 153.12 57.506C152.16 55.1322 149.359 52.6942 146.871 52.0714C145.568 51.746 144.469 50.9291 143.773 49.7727C143.077 48.6148 142.875 47.2612 143.202 45.9608C143.825 43.4775 142.994 39.8596 141.346 37.8989C139.56 35.7692 139.843 32.5848 141.976 30.8025C143.942 29.1594 145.399 25.745 145.223 23.1912C145.032 20.4199 147.136 18.0117 149.912 17.8208C152.47 17.6439 155.659 15.7364 157.02 13.5676C158.498 11.2141 161.618 10.499 163.976 11.9731C166.149 13.3313 169.853 13.6584 172.231 12.7023C173.476 12.2015 174.846 12.2156 176.091 12.7461C177.334 13.2734 178.295 14.2499 178.797 15.4939C179.755 17.8677 182.558 20.3057 185.046 20.9285C187.745 21.6029 189.392 24.3445 188.714 27.0391C188.092 29.5225 188.923 33.1387 190.57 35.101C192.356 37.2307 192.074 40.4136 189.94 42.1975C187.974 43.8405 186.518 47.2549 186.694 49.8087C186.786 51.1466 186.349 52.4423 185.46 53.4594C184.572 54.4766 183.345 55.0884 182.006 55.1792C179.448 55.356 176.257 57.2635 174.897 59.4323C174.183 60.5684 173.065 61.3602 171.747 61.6622C171.369 61.7498 170.985 61.7936 170.603 61.7936Z" fill="#077D63"/>
<path d="M165.755 57.5968C167.248 57.5968 168.743 57.891 169.877 58.4747C171.91 59.5247 174.425 58.7282 175.478 56.6971C176.63 54.4719 179.587 52.3547 182.069 51.9791C184.334 51.6349 185.897 49.5161 185.552 47.255C185.174 44.7779 186.32 41.3321 188.108 39.5702C189.738 37.9631 189.755 35.3311 188.144 33.7052C186.38 31.9229 185.278 28.4615 185.686 25.9907C185.866 24.9016 185.607 23.8046 184.958 22.9017C184.309 21.9973 183.351 21.4027 182.26 21.2211C179.785 20.8143 176.855 18.6611 175.729 16.4218C175.234 15.436 174.379 14.699 173.323 14.35C172.263 13.9979 171.139 14.0793 170.151 14.5738C167.909 15.6973 164.271 15.6754 162.041 14.5237C161.06 14.0167 159.934 13.9213 158.875 14.2593C157.813 14.5957 156.948 15.3218 156.441 16.3014C155.288 18.525 152.331 20.6422 149.851 21.0193C147.585 21.3635 146.022 23.4823 146.366 25.7434C146.744 28.219 145.598 31.6663 143.81 33.4267C142.18 35.0353 142.164 37.6658 143.774 39.2947C145.538 41.0771 146.64 44.5369 146.233 47.0093C146.052 48.0984 146.311 49.1938 146.96 50.0982C147.609 51.0011 148.567 51.5973 149.658 51.7773C152.133 52.1841 155.063 54.3373 156.189 56.5766C156.684 57.5624 157.539 58.2979 158.597 58.6484C159.654 58.9973 160.779 58.9191 161.769 58.4246C162.869 57.8722 164.311 57.5968 165.755 57.5968ZM171.78 59.4605C171.057 59.4605 170.322 59.2931 169.637 58.9394C167.539 57.855 164.114 57.8347 162.002 58.8909C160.891 59.448 159.621 59.5387 158.432 59.1444C157.243 58.7501 156.28 57.9207 155.722 56.8097C154.662 54.7019 151.905 52.6755 149.573 52.2921C148.344 52.0902 147.266 51.4189 146.535 50.4018C145.805 49.3847 145.513 48.1485 145.717 46.9232C146.101 44.5963 145.061 41.3384 143.401 39.6609C141.589 37.8285 141.608 34.8663 143.442 33.0543C145.124 31.3971 146.203 28.1517 145.847 25.8217C145.458 23.2742 147.219 20.8894 149.771 20.5013C152.105 20.1477 154.889 18.1541 155.976 16.0604C156.548 14.9556 157.52 14.1403 158.715 13.7601C159.909 13.3814 161.176 13.4863 162.283 14.0574C164.38 15.1418 167.806 15.1622 169.917 14.1059C171.031 13.5488 172.299 13.4597 173.487 13.8524C174.677 14.2468 175.64 15.0745 176.198 16.1856C177.258 18.2934 180.015 20.3198 182.346 20.7032C183.575 20.905 184.654 21.5763 185.385 22.5935C186.115 23.6106 186.405 24.8452 186.203 26.0721C185.819 28.3989 186.858 31.6569 188.518 33.3344C190.332 35.1668 190.312 38.1305 188.478 39.941C186.797 41.5982 185.717 44.842 186.073 47.1736C186.462 49.7211 184.701 52.1059 182.149 52.4939C179.814 52.8476 177.029 54.8396 175.944 56.9333C175.113 58.5404 173.475 59.4605 171.78 59.4605Z" fill="#058869"/>
<path d="M158.972 16.3593C157.454 16.3593 156.015 17.2668 155.416 18.755C154.551 20.9097 152.011 23.1271 149.755 23.6951C147.711 24.2099 146.466 26.288 146.982 28.3301C147.551 30.5834 146.8 33.8648 145.311 35.6487C144.659 36.428 144.35 37.4185 144.442 38.4372C144.533 39.4559 145.014 40.3745 145.795 41.0254C147.581 42.5136 148.909 45.6088 148.752 47.9263C148.611 50.0262 150.207 51.8493 152.311 51.9901C154.632 52.1466 157.528 53.8726 158.766 55.8395C159.307 56.6986 160.157 57.2964 161.154 57.5248C162.154 57.7517 163.178 57.5796 164.039 57.0397C166.009 55.8035 169.369 55.5015 171.529 56.3653C172.473 56.7424 173.511 56.7299 174.453 56.3278C175.395 55.9256 176.122 55.1854 176.5 54.2419C177.366 52.0855 179.907 49.8698 182.163 49.3017C184.207 48.7869 185.452 46.7088 184.936 44.6668C184.367 42.415 185.116 39.132 186.607 37.3481C187.259 36.5688 187.567 35.5783 187.476 34.5596C187.383 33.5409 186.904 32.6224 186.121 31.9714C184.336 30.4848 183.009 27.3881 183.165 25.0706C183.306 22.9706 181.71 21.1476 179.606 21.0068C177.284 20.8503 174.389 19.1243 173.15 17.1573C172.028 15.375 169.662 14.8367 167.876 15.9571C165.907 17.1933 162.549 17.4953 160.387 16.6315C159.925 16.4469 159.444 16.3593 158.972 16.3593ZM162.021 58.1461C161.695 58.1461 161.366 58.1101 161.038 58.035C159.903 57.7768 158.939 57.0961 158.323 56.1181C157.163 54.2763 154.449 52.6598 152.274 52.5127C149.882 52.3516 148.067 50.2782 148.228 47.8918C148.374 45.7199 147.132 42.8203 145.458 41.426C144.569 40.6859 144.024 39.6406 143.919 38.4826C143.814 37.3246 144.165 36.1995 144.905 35.3123C146.302 33.6426 147.004 30.5678 146.471 28.4568C145.886 26.1362 147.299 23.7718 149.625 23.1865C151.738 22.6545 154.118 20.578 154.929 18.5594C155.821 16.3373 158.357 15.2561 160.583 16.1464C162.606 16.9555 165.754 16.6738 167.599 15.5143C168.577 14.8993 169.742 14.7037 170.878 14.9619C172.013 15.2201 172.979 15.9008 173.594 16.8788C174.754 18.7206 177.468 20.337 179.642 20.4841C182.034 20.6453 183.85 22.7187 183.688 25.105C183.542 27.2754 184.784 30.1766 186.457 31.5708C187.346 32.311 187.893 33.3563 187.996 34.5142C188.1 35.6722 187.75 36.7973 187.009 37.6846C185.612 39.3558 184.909 42.4306 185.442 44.54C186.029 46.8606 184.615 49.2251 182.29 49.8103C180.177 50.3423 177.797 52.4189 176.985 54.4375C176.555 55.5094 175.727 56.3512 174.657 56.8082C173.587 57.2651 172.407 57.2792 171.332 56.8504C169.308 56.0398 166.161 56.3231 164.316 57.4826C163.622 57.9207 162.83 58.1461 162.021 58.1461Z" fill="#088F6F"/>
<path d="M155.192 52.2029C157.326 52.2029 160.036 53.4688 161.341 55.1009C161.928 55.8348 162.769 56.298 163.711 56.4044C164.653 56.5108 165.576 56.2464 166.312 55.6611C168.008 54.3107 171.085 53.6832 173.177 54.2591C174.083 54.5094 175.038 54.3889 175.861 53.9226C176.685 53.4563 177.278 52.7005 177.527 51.7945C178.106 49.7086 180.225 47.3927 182.255 46.6322C184.082 45.9483 185.01 43.9094 184.325 42.0879C183.564 40.0599 183.916 36.9428 185.11 35.137C186.184 33.5128 185.734 31.3189 184.107 30.2454C182.298 29.053 180.746 26.324 180.648 24.163C180.562 22.2179 178.9 20.7063 176.956 20.7939C174.791 20.8863 171.929 19.5922 170.576 17.9006C169.99 17.1667 169.149 16.7035 168.206 16.5971C167.262 16.4907 166.34 16.7551 165.605 17.3404C163.908 18.6893 160.829 19.3183 158.738 18.7425C157.832 18.4937 156.879 18.6126 156.054 19.0789C155.23 19.5452 154.639 20.301 154.388 21.207C153.811 23.2929 151.69 25.6089 149.66 26.3694C148.778 26.6995 148.079 27.3552 147.687 28.2174C147.295 29.0796 147.261 30.0373 147.592 30.9152C148.352 32.9432 148.001 36.0603 146.805 37.8661C146.287 38.65 146.107 39.5905 146.297 40.5184C146.486 41.4448 147.024 42.2397 147.81 42.7577C149.619 43.9501 151.169 46.6791 151.268 48.8417C151.356 50.7852 153.01 52.2984 154.96 52.2107C155.037 52.2029 155.114 52.2029 155.192 52.2029ZM164.118 56.949C163.963 56.949 163.808 56.9396 163.651 56.9224C162.57 56.8003 161.604 56.2683 160.931 55.4264C159.671 53.8491 156.996 52.641 154.985 52.7287C152.735 52.832 150.846 51.0934 150.746 48.8605C150.655 46.845 149.21 44.3006 147.523 43.1896C146.621 42.5949 146.005 41.6827 145.787 40.6186C145.569 39.5545 145.776 38.4732 146.372 37.5734C147.485 35.8897 147.814 32.9838 147.104 31.0951C146.725 30.0858 146.762 28.9842 147.214 27.9968C147.664 27.0078 148.468 26.2551 149.481 25.8765C151.373 25.1676 153.35 23.0082 153.889 21.0647C154.176 20.0256 154.855 19.1571 155.802 18.622C156.749 18.0852 157.843 17.9491 158.884 18.2355C160.833 18.7722 163.703 18.187 165.283 16.9288C166.128 16.256 167.19 15.9524 168.27 16.0745C169.352 16.1965 170.317 16.727 170.991 17.5689C172.25 19.1462 174.936 20.3542 176.938 20.2666C179.187 20.1633 181.076 21.9018 181.177 24.1348C181.266 26.1503 182.712 28.6947 184.398 29.8057C186.267 31.0372 186.784 33.5566 185.551 35.4234C184.436 37.1056 184.108 40.013 184.819 41.9017C185.606 43.9939 184.539 46.3364 182.443 47.1204C180.551 47.8292 178.574 49.9887 178.037 51.9322C177.75 52.9712 177.071 53.8397 176.124 54.3749C175.177 54.9116 174.083 55.0493 173.042 54.7614C171.09 54.2231 168.223 54.8099 166.643 56.068C165.915 56.6438 165.034 56.949 164.118 56.949Z" fill="#1F9A74"/>
<path d="M158.595 52.2686C160.463 52.2686 162.681 53.0729 163.919 54.27C165.222 55.5297 167.307 55.4953 168.566 54.1965C169.98 52.7412 172.761 51.7882 174.774 52.073C175.636 52.1951 176.503 51.9713 177.207 51.444C177.911 50.9166 178.366 50.1499 178.49 49.2861C178.775 47.28 180.467 44.8749 182.26 43.9266C183.033 43.5182 183.6 42.8296 183.859 41.9893C184.118 41.149 184.035 40.2618 183.626 39.4919C182.674 37.7002 182.627 34.763 183.52 32.9431C184.317 31.3173 183.641 29.3488 182.012 28.5538C180.189 27.6619 178.421 25.3131 178.071 23.3164C177.921 22.4573 177.441 21.7062 176.72 21.2008C175.999 20.6953 175.125 20.4997 174.268 20.65C172.269 21.0005 169.453 20.1367 167.995 18.7268C166.694 17.4687 164.609 17.5016 163.349 18.8003C161.936 20.2556 159.15 21.2086 157.141 20.9238C156.278 20.8017 155.413 21.024 154.708 21.5529C154.004 22.0802 153.549 22.847 153.425 23.7107C153.14 25.7184 151.448 28.122 149.655 29.0702C148.884 29.4786 148.314 30.1656 148.056 31.0059C147.797 31.8462 147.88 32.7335 148.289 33.5049C149.241 35.2951 149.288 38.2322 148.394 40.0537C147.598 41.6779 148.274 43.648 149.903 44.443C151.726 45.3333 153.494 47.6821 153.844 49.6788C153.996 50.5379 154.474 51.289 155.195 51.7945C155.916 52.2999 156.788 52.4955 157.647 52.3453C157.948 52.2952 158.268 52.2686 158.595 52.2686ZM166.205 55.7159C165.249 55.7159 164.294 55.3607 163.554 54.6471C162.201 53.3405 159.593 52.5393 157.736 52.8617C156.738 53.0369 155.728 52.81 154.893 52.2232C154.057 51.6396 153.5 50.7664 153.326 49.7696C153.002 47.9184 151.362 45.7402 149.671 44.914C147.783 43.9923 146.999 41.7092 147.923 39.8252C148.75 38.1368 148.706 35.4124 147.825 33.7506C147.35 32.8571 147.255 31.8274 147.554 30.8541C147.854 29.8808 148.514 29.0843 149.409 28.6102C151.072 27.7292 152.643 25.4993 152.906 23.6388C153.047 22.6373 153.577 21.7469 154.392 21.1351C155.208 20.5232 156.208 20.2634 157.214 20.4058C159.077 20.6719 161.66 19.7877 162.971 18.4373C164.432 16.9304 166.851 16.8928 168.359 18.3512C169.712 19.6579 172.325 20.4591 174.177 20.1351C175.176 19.9614 176.185 20.1868 177.021 20.772C177.856 21.3588 178.413 22.2289 178.587 23.2272C178.911 25.0784 180.551 27.2566 182.243 28.0828C184.129 29.0045 184.913 31.2876 183.989 33.1716C183.161 34.86 183.205 37.5844 184.086 39.2462C184.561 40.1413 184.659 41.1694 184.358 42.1427C184.058 43.116 183.4 43.9141 182.503 44.3866C180.84 45.2676 179.27 47.4975 179.006 49.3581C178.864 50.3595 178.335 51.2499 177.519 51.8618C176.704 52.4736 175.704 52.7318 174.697 52.591C172.837 52.3249 170.251 53.2091 168.941 54.5595C168.198 55.3294 167.202 55.7159 166.205 55.7159Z" fill="#2BA379"/>
<path d="M162.269 51.8931C163.767 51.8931 165.398 52.3312 166.461 53.098C167.817 54.0776 169.718 53.7724 170.698 52.4189C171.807 50.8869 174.246 49.6397 176.14 49.6351C176.946 49.6335 177.707 49.3158 178.281 48.74C178.855 48.1641 179.17 47.4036 179.167 46.5977C179.162 44.709 180.402 42.2679 181.931 41.1538C183.281 40.1679 183.578 38.2682 182.591 36.9194C181.475 35.3952 181.039 32.6912 181.619 30.8933C181.865 30.1265 181.798 29.3065 181.428 28.5836C181.058 27.8622 180.429 27.3271 179.662 27.0798C177.861 26.5008 175.917 24.5698 175.328 22.775C175.075 22.0098 174.539 21.3854 173.813 21.0193C173.087 20.6531 172.266 20.5874 171.498 20.8393C169.7 21.4277 166.991 21.0052 165.457 19.8989C164.804 19.4279 163.999 19.237 163.198 19.3668C162.394 19.4952 161.692 19.9255 161.218 20.5796C160.11 22.11 157.669 23.3587 155.778 23.3634C154.104 23.3665 152.745 24.7295 152.75 26.4007C152.754 28.2878 151.516 30.7305 149.987 31.8447C149.335 32.3188 148.907 33.023 148.783 33.8242C148.656 34.6269 148.849 35.4265 149.327 36.0775C150.442 37.6016 150.878 40.3056 150.298 42.102C150.05 42.8688 150.119 43.6888 150.489 44.4133C150.86 45.1362 151.488 45.6698 152.256 45.9171C154.057 46.496 156.001 48.427 156.59 50.2219C157.111 51.8102 158.831 52.6786 160.419 52.1591C160.969 51.9791 161.607 51.8931 162.269 51.8931ZM168.234 54.1949C167.511 54.1949 166.781 53.9758 166.152 53.5236C164.761 52.519 162.212 52.1231 160.582 52.6567C158.718 53.267 156.7 52.2483 156.089 50.3862C155.556 48.7588 153.726 46.9404 152.094 46.4162C151.193 46.1252 150.456 45.4992 150.022 44.6542C149.587 43.8077 149.507 42.8453 149.798 41.9456C150.324 40.3166 149.914 37.7706 148.902 36.3889C148.344 35.6253 148.117 34.6879 148.263 33.7459C148.41 32.807 148.912 31.9808 149.678 31.4237C151.063 30.4144 152.229 28.1157 152.226 26.4038C152.221 24.4447 153.814 22.847 155.777 22.8423C157.492 22.8376 159.79 21.6624 160.797 20.2744C161.352 19.5077 162.175 19.0022 163.117 18.852C164.057 18.7018 164.998 18.924 165.766 19.4764C167.157 20.4779 169.707 20.8769 171.338 20.3433C172.236 20.0491 173.202 20.1242 174.052 20.553C174.903 20.9833 175.533 21.7156 175.828 22.6138C176.361 24.2412 178.19 26.058 179.824 26.5838C180.725 26.8733 181.462 27.4992 181.896 28.3457C182.331 29.1923 182.411 30.1547 182.121 31.0544C181.595 32.6834 182.005 35.2278 183.017 36.6095C183.575 37.3732 183.803 38.312 183.655 39.2525C183.508 40.1914 183.005 41.0176 182.241 41.5747C180.855 42.584 179.689 44.8827 179.694 46.5946C179.695 47.5398 179.327 48.4317 178.654 49.1061C177.982 49.7806 177.091 50.153 176.143 50.1561C174.428 50.1593 172.13 51.336 171.126 52.724C170.429 53.6848 169.339 54.1949 168.234 54.1949Z" fill="#38AB7E"/>
<path d="M165.959 51.0011C166.987 51.0011 168.017 51.1998 168.8 51.5989C169.461 51.9353 170.217 51.9932 170.929 51.7632C171.64 51.5316 172.217 51.0418 172.554 50.3814C173.352 48.8182 175.414 47.3222 177.149 47.05C178.67 46.809 179.709 45.3787 179.47 43.8609C179.194 42.1286 179.981 39.7094 181.224 38.4701C181.749 37.9459 182.037 37.2464 182.037 36.5C182.037 35.7536 181.747 35.0525 181.224 34.5299C179.981 33.289 179.194 30.8713 179.47 29.1391C179.709 27.6212 178.668 26.191 177.149 25.95C175.414 25.6761 173.352 24.1817 172.554 22.6185C172.217 21.9597 171.64 21.4684 170.929 21.2368C170.217 21.0067 169.461 21.0646 168.8 21.4011C167.235 22.1976 164.686 22.1976 163.12 21.4011C162.46 21.0646 161.704 21.0067 160.993 21.2368C160.281 21.4668 159.702 21.9581 159.367 22.6185C158.569 24.1817 156.507 25.6761 154.772 25.95C154.038 26.0658 153.392 26.4617 152.953 27.0673C152.514 27.6713 152.336 28.4067 152.452 29.1391C152.726 30.8713 151.939 33.2905 150.697 34.5299C150.172 35.0541 149.884 35.7536 149.884 36.5C149.884 37.2464 150.172 37.9459 150.697 38.4701C151.939 39.7094 152.726 42.1286 152.452 43.8609C152.336 44.5932 152.514 45.3287 152.953 45.9327C153.394 46.5367 154.04 46.9326 154.772 47.05C156.507 47.3238 158.567 48.8182 159.367 50.3814C159.704 51.0402 160.281 51.5316 160.993 51.7632C161.703 51.9948 162.46 51.9353 163.12 51.5989C163.902 51.1998 164.932 51.0011 165.959 51.0011ZM170.057 52.4267C169.541 52.4267 169.032 52.3046 168.561 52.0667C167.152 51.3501 164.768 51.3501 163.358 52.0667C162.571 52.4658 161.674 52.5362 160.828 52.2623C159.984 51.9885 159.298 51.4048 158.898 50.6193C158.178 49.2125 156.252 47.8136 154.689 47.5663C153.817 47.4271 153.049 46.9576 152.527 46.2409C152.005 45.5227 151.793 44.6495 151.931 43.7795C152.177 42.2194 151.442 39.9566 150.323 38.8394C149.699 38.2181 149.355 37.3857 149.355 36.5C149.355 35.6127 149.699 34.7818 150.323 34.159C151.442 33.0417 152.179 30.779 151.931 29.2189C151.793 28.3488 152.005 27.4757 152.527 26.7574C153.049 26.0407 153.817 25.5697 154.689 25.432C156.252 25.1832 158.18 23.7858 158.898 22.3791C159.298 21.5951 159.984 21.0114 160.828 20.736C161.674 20.4622 162.571 20.5326 163.358 20.9316C164.768 21.6483 167.152 21.6483 168.561 20.9316C169.348 20.5326 170.245 20.4622 171.092 20.736C171.935 21.0099 172.622 21.5935 173.023 22.3791C173.741 23.7858 175.669 25.1848 177.232 25.432C179.038 25.7168 180.274 27.4162 179.988 29.2189C179.741 30.779 180.478 33.0402 181.597 34.159C182.221 34.7802 182.564 35.6127 182.564 36.5C182.564 37.3857 182.221 38.2181 181.597 38.8394C180.478 39.9582 179.741 42.2194 179.988 43.7795C180.274 45.5822 179.037 47.2815 177.232 47.5663C175.669 47.8136 173.741 49.211 173.023 50.6193C172.623 51.4033 171.937 51.9869 171.092 52.2623C170.751 52.3719 170.403 52.4267 170.057 52.4267Z" fill="#43BA82"/>
<path d="M176.507 39.4763L176.046 39.3292C175.356 39.1085 174.537 39.0037 173.631 39.0099C171.382 39.0272 168.817 39.7485 166.744 40.9472C166.157 37.3966 166.431 33.2921 166.516 32.2374C167.375 32.7241 168.417 33.6301 169.091 36.1323L169.179 36.4546L169.239 36.126C169.742 33.3391 167.837 31.5254 167.768 31.4597C167.845 31.4535 168.353 31.4691 169.074 31.8008C169.742 32.1091 170.745 32.7773 171.73 34.2107L171.94 34.5174L171.865 34.1528C171.131 30.5803 168.201 29.8527 168.033 29.8135C168.079 29.7791 169.019 29.1109 171.799 30.0248L172.056 30.1093L171.88 29.9043C170.173 27.9107 167.591 28.4443 167.312 28.51L167.317 28.5007C167.423 28.2706 167.837 27.7214 168.692 27.1314L168.953 26.9499L168.638 26.9937C167.235 27.1925 166.467 27.8528 166.29 28.086C166.273 27.7793 166.213 27.2144 166.026 26.7887L165.957 26.6323L165.888 26.7887C165.702 27.2128 165.642 27.7777 165.625 28.086C165.451 27.8544 164.681 27.1925 163.277 26.9937L162.963 26.9499L163.223 27.1314C164.07 27.7167 164.485 28.2597 164.603 28.51C164.341 28.4506 161.734 27.9185 160.035 29.9043L159.859 30.1093L160.116 30.0248C162.905 29.1078 163.839 29.7807 163.883 29.8135C163.709 29.8527 160.784 30.5834 160.05 34.1512L159.977 34.5158L160.187 34.2091C161.171 32.7773 162.175 32.1091 162.842 31.7993C163.54 31.4769 164.039 31.4582 164.142 31.4582H164.148C164.071 31.5301 162.176 33.3438 162.678 36.1244L162.737 36.453L162.825 36.1307C163.501 33.6285 164.54 32.7241 165.401 32.2359C165.487 33.2937 165.76 37.3998 165.172 40.9472C163.101 39.7501 160.533 39.0272 158.285 39.0099C158.252 39.0099 158.219 39.0099 158.186 39.0099C157.315 39.0099 156.535 39.1164 155.872 39.3292L155.413 39.4763H155.896C159.823 39.4763 162.198 40.4433 164.934 42.1145C164.873 42.1584 164.802 42.2084 164.725 42.2632C163.603 43.0691 160.972 44.9562 159.674 44.9562C159.442 44.9562 159.24 44.9296 159.052 44.8749L158.807 44.8029L158.997 45.0235C159.154 45.2066 159.517 45.6354 160.188 45.6354C161.798 45.6354 164.002 44.105 165.321 43.1927C165.569 43.0206 165.787 42.8688 165.959 42.7592C166.13 42.8703 166.349 43.0206 166.597 43.1943C167.914 44.1065 170.118 45.6369 171.728 45.6369C172.399 45.6369 172.763 45.2082 172.918 45.0251L173.109 44.8045L172.865 44.8764C172.678 44.9312 172.473 44.9578 172.242 44.9578C170.946 44.9578 168.314 43.0706 167.191 42.2648C167.114 42.21 167.044 42.1599 166.983 42.1161C169.72 40.4433 172.097 39.4778 176.022 39.4778H176.507V39.4763Z" fill="#005C50"/>
</svg>
