<svg width="160" height="105" viewBox="0 0 160 105" fill="none" xmlns="http://www.w3.org/2000/svg">
<g clip-path="url(#clip0_1_2918)">
<path d="M32.9461 34.4624C27.1304 51.4205 21.3148 68.4155 17.382 86.2133C20.378 87.2651 23.5038 87.8925 26.6574 88.077C27.8539 83.7129 29.0504 79.3488 30.2377 74.9847C30.2377 74.9847 30.0614 74.8463 29.8388 74.8002C32.2226 75.28 34.3838 76.6363 36.2017 78.3155C38.0197 79.9947 39.5316 82.006 41.2104 84.3219C41.0342 86.7945 42.7687 89.1565 44.9948 89.9961C47.2209 90.8449 49.7901 90.3282 51.8585 88.8705C51.6545 89.95 51.6545 91.0756 51.8585 92.1643C51.9513 92.6348 52.0719 93.1054 52.2852 93.5298C52.7304 94.4248 53.5188 95.0983 54.3722 95.5596C55.8284 96.3439 57.5443 96.593 59.2881 96.2793C59.1119 98.3368 60.5959 100.293 62.451 101.012C64.3061 101.732 66.4209 101.391 68.3594 100.634C68.6562 101.345 68.9809 102.073 69.5281 102.599C70.1496 103.19 70.9936 103.448 71.8284 103.55C73.8226 103.79 75.891 103.199 77.7554 102.037C79.7959 103.199 82.3838 103.245 84.4614 102.147C85.0087 101.861 85.5188 101.492 85.9362 101.031C86.7803 100.09 87.1606 98.7796 87.2348 97.4879C87.309 96.2055 87.0956 94.9138 87.0214 93.6036C88.051 94.8492 89.1269 96.0855 90.4719 96.9528C91.8168 97.8201 93.4678 98.2722 94.989 97.8478C96.2504 97.4879 97.3264 96.5468 98.022 95.3843C98.7177 94.231 99.0701 92.8747 99.1722 91.3247C99.6823 92.2012 100.239 93.0408 100.851 93.8435C101.417 94.6001 102.038 95.329 102.799 95.8641C103.559 96.3992 104.487 96.7314 105.396 96.6299C106.806 96.4638 107.956 95.2644 108.522 93.8989C109.088 92.5334 109.171 91.011 109.254 89.5348C109.301 88.6767 109.347 87.8187 109.31 86.9422C110.052 88.4092 110.803 89.8854 111.796 91.1771C112.788 92.4688 114.041 93.5944 115.543 94.1572C115.914 94.2956 116.294 94.3971 116.675 94.4986C117.287 94.6647 117.992 94.8031 118.521 94.4248C118.938 94.1203 119.105 93.5667 119.17 93.0316C119.225 92.5057 119.198 91.9613 119.494 91.4262C125.19 89.1934 130.792 86.7023 136.218 84.0266C136.765 86.1118 137.368 88.1785 138.175 90.1714C142.238 89.1842 146.18 87.671 149.825 85.7058C153.043 84.4234 156.206 82.9933 159.082 81.1018C158.618 64.3098 155.882 47.2963 148.526 32.3495C148.063 31.4085 147.58 30.4766 146.838 29.6739C138.769 32.6079 130.912 36.1785 123.353 40.3488C123.566 40.7732 123.78 41.2069 123.761 41.6774C115.933 42.2587 108.281 39.5 100.888 36.769C98.5414 35.9017 96.1577 35.0252 93.6811 34.8499C91.4736 34.6931 89.2753 35.099 86.8081 35.3204C84.1925 33.6597 81.2614 32.6079 78.3119 31.7498C76.531 31.2331 74.7038 30.7811 72.858 30.7995C71.1606 30.818 69.491 31.2424 67.8678 31.7406C59.1026 34.4163 50.9125 39.3524 41.8133 40.2381C41.8875 39.6015 41.9617 38.9649 42.0267 38.319C42.0638 37.9777 42.0916 37.5901 41.9153 37.3134C38.938 36.0586 35.9513 34.8038 32.9461 34.4624Z" fill="white"/>
<path d="M154.852 80.7236C154.815 80.7236 154.787 80.7143 154.75 80.7051L146.727 77.5497C146.588 77.4943 146.523 77.3375 146.579 77.2083C146.634 77.0699 146.792 77.0053 146.922 77.0607L154.945 80.2161C155.084 80.2715 155.149 80.4283 155.093 80.5575C155.065 80.659 154.963 80.7236 154.852 80.7236Z" fill="black"/>
<path d="M157.57 77.5774C157.542 77.5774 157.514 77.5681 157.477 77.5589C153.062 75.9904 148.684 74.1359 144.473 72.0508C144.343 71.9862 144.288 71.8293 144.352 71.6909C144.417 71.5618 144.575 71.5064 144.714 71.571C148.907 73.6469 153.266 75.4922 157.663 77.0607C157.802 77.1068 157.876 77.2637 157.82 77.4021C157.783 77.5128 157.672 77.5774 157.57 77.5774Z" fill="black"/>
<path d="M158.247 72.6412C158.219 72.6412 158.191 72.6412 158.163 72.6228C153.257 70.9436 148.35 69.0337 143.601 66.9393C143.462 66.884 143.406 66.7271 143.462 66.5887C143.518 66.4503 143.685 66.395 143.814 66.4503C148.554 68.5355 153.442 70.4454 158.33 72.1153C158.47 72.1615 158.544 72.3183 158.497 72.4567C158.46 72.5674 158.358 72.6412 158.247 72.6412Z" fill="black"/>
<path d="M158.247 67.8989C158.21 67.8989 158.182 67.8896 158.145 67.8804C152.441 65.6476 148.007 63.7193 141.904 61.0252C141.765 60.9698 141.709 60.813 141.765 60.6746C141.82 60.5362 141.987 60.4808 142.117 60.5362C148.22 63.2211 152.635 65.1494 158.34 67.3822C158.479 67.4375 158.544 67.5944 158.488 67.7236C158.46 67.8343 158.358 67.8989 158.247 67.8989Z" fill="black"/>
<path d="M156.828 62.5476C156.791 62.5476 156.754 62.5383 156.726 62.5291L140.346 55.5539C140.206 55.4986 140.151 55.3417 140.206 55.2033C140.262 55.0649 140.42 55.0096 140.559 55.0649L156.939 62.0401C157.078 62.0955 157.134 62.2523 157.078 62.3907C157.032 62.483 156.93 62.5476 156.828 62.5476Z" fill="black"/>
<path d="M156.299 57.4269C156.262 57.4269 156.225 57.4177 156.188 57.3992L138.398 49.1693C138.268 49.1047 138.203 48.9478 138.268 48.8187C138.333 48.6895 138.49 48.6249 138.62 48.6895L156.41 56.9194C156.54 56.984 156.605 57.1409 156.54 57.27C156.494 57.3623 156.401 57.4269 156.299 57.4269Z" fill="black"/>
<path d="M154.565 50.9869C154.528 50.9869 154.49 50.9776 154.453 50.9592L136.505 42.5355C136.376 42.4709 136.311 42.314 136.376 42.1849C136.441 42.0465 136.598 42.0003 136.728 42.0557L154.676 50.4794C154.806 50.544 154.871 50.7008 154.806 50.83C154.759 50.9315 154.667 50.9869 154.565 50.9869Z" fill="black"/>
<path d="M150.53 42.5632C150.493 42.5632 150.465 42.5539 150.428 42.5447C145.966 40.7548 141.421 39.0294 136.914 37.4148C136.774 37.3687 136.7 37.2118 136.756 37.0735C136.802 36.9351 136.96 36.8612 137.099 36.9166C141.616 38.5312 146.17 40.2566 150.632 42.0465C150.771 42.1018 150.836 42.2587 150.78 42.3971C150.734 42.4986 150.632 42.5632 150.53 42.5632Z" fill="black"/>
<path d="M150.177 36.6398C150.14 36.6398 150.103 36.6306 150.066 36.6214L143.657 33.8258C143.518 33.7704 143.462 33.6136 143.518 33.4752C143.573 33.3368 143.731 33.2814 143.87 33.3368L150.279 36.1324C150.419 36.1877 150.474 36.3446 150.419 36.483C150.372 36.5845 150.279 36.6398 150.177 36.6398Z" fill="black"/>
<path d="M14.3582 28.2161C20.6933 30.4397 27.0933 32.451 33.1965 34.3609C32.1948 38.7711 29.6255 42.5816 27.9003 46.7427C26.982 48.9478 26.3049 51.2452 25.6371 53.5518C22.4927 64.3282 19.4875 75.1416 16.6029 85.9918C10.9542 83.9713 6.57622 82.9379 0.519409 81.8123C6.0939 63.6916 11.1211 46.2999 14.3582 28.2161Z" fill="#ACD4F7"/>
<g opacity="0.1294">
<path d="M133.936 81.7846C132.944 82.0891 131.979 82.4581 131.033 82.8733C130.82 82.8641 130.597 82.8825 130.393 82.9287C129.911 83.0117 129.466 83.2147 129.011 83.4084C128.51 83.5837 128.037 83.759 127.555 83.9713C127.36 84.0451 126.785 84.2757 126.553 84.3403C126.479 84.3588 126.432 84.3864 126.377 84.4049C126.238 84.451 126.089 84.5064 125.941 84.5433C125.857 84.5433 125.765 84.5433 125.681 84.5433C125.588 84.5248 125.486 84.4972 125.394 84.4695C125.394 84.4695 125.394 84.4695 125.384 84.4695C125.18 84.2665 124.986 84.0451 124.809 83.8236C124.568 83.5099 124.837 83.8698 124.93 83.9897C124.772 83.7683 124.605 83.5561 124.429 83.3531C124.373 83.2885 124.336 83.2331 124.299 83.187C124.132 82.9471 123.984 82.698 123.835 82.4489C123.205 81.4524 122.639 80.4099 122.119 79.3581C121.006 77.116 119.986 74.8187 118.808 72.6136C118.122 71.1097 117.537 69.5504 116.675 68.148C114.208 64.2175 111.815 61.1359 108.123 57.7037C105.795 55.2402 103.114 53.1366 100.239 51.4297C98.291 50.3041 96.2505 49.1877 93.9873 49.0216C92.4012 48.6434 92.0209 51.0976 93.6534 51.2083C95.1374 51.2913 96.7235 51.9925 98.4302 53.0167C98.2725 53.4226 98.3096 53.9024 98.6899 54.3268C100.267 55.7569 102.085 56.8549 103.726 58.2019C103.652 58.1466 104.561 58.9585 104.747 59.1615C104.941 59.3552 105.127 59.5582 105.303 59.7612C105.155 59.9088 105.053 60.1118 105.062 60.3424C105.173 61.0529 105.934 61.8925 106.286 62.5568C108.095 65.4262 110.219 68.1018 111.75 71.1466C113.781 75.3261 115.256 79.4872 115.933 85.0877C116.285 86.8499 116.48 90.0607 115.933 90.9833C115.886 91.0387 115.84 91.094 115.784 91.1402C115.738 91.1678 115.701 91.1863 115.673 91.2048C115.599 91.2324 115.534 91.2509 115.46 91.2878C115.423 91.297 115.395 91.3155 115.358 91.3247C115.348 91.3247 115.339 91.3247 115.33 91.3339C115.181 91.3431 115.005 91.3339 114.894 91.3247C114.838 91.3155 114.783 91.3062 114.727 91.297C114.115 91.1309 114.449 91.2786 113.53 90.7619C112.111 89.9223 110.896 92.1182 112.278 92.9947C115.775 95.6242 118.233 94.6923 118.919 91.1309C119.263 88.9812 119.031 86.7853 118.669 84.6448C118.771 84.9677 118.873 85.2906 118.975 85.6136C119.179 86.8868 119.346 88.0862 119.504 89.1565C119.476 89.1842 119.448 89.2119 119.43 89.2488C119.031 89.9038 119.328 90.7158 119.884 91.1033C120.135 91.5184 120.663 91.7122 121.118 91.583C121.517 91.4539 121.73 91.2048 121.841 90.9003C125.663 89.3318 129.456 87.6434 132.972 85.4106C133.797 84.8754 133.806 84.8201 134.493 84.5248C134.845 84.368 135.281 84.1558 135.495 83.8144C135.661 83.6852 135.819 83.5376 135.949 83.3439C136.608 81.8953 135.003 81.1757 133.936 81.7846Z" fill="black"/>
</g>
<g opacity="0.1294">
<path d="M158.386 77.6604C158.182 77.6604 157.997 77.7158 157.811 77.7988C156.921 78.0756 156.123 78.6661 155.251 78.9982C153.702 79.7825 153.099 79.9301 151.021 80.9634C147.45 82.9471 141.523 84.8847 138.333 86.2779C136.237 86.9422 137.081 90.1806 139.223 89.6363C142.562 88.5106 145.725 86.8776 148.953 85.4382C150.65 84.6171 153.888 83.3992 156.577 82.0245C157.83 81.3417 159.397 80.5298 159.546 80.1238C160.334 79.192 159.564 77.6235 158.386 77.6604Z" fill="black"/>
</g>
<g opacity="0.1294">
<path d="M40.1252 41.742C38.771 46.8627 36.378 50.6547 34.6157 56.292C33.549 59.5859 32.742 62.9535 32.1299 66.3673C31.7496 67.8804 31.4528 69.412 31.1467 70.9436C30.9241 72.2999 30.5438 73.6838 30.7757 75.0585C31.1096 76.3964 32.5287 77.0422 33.6789 76.6086C34.4116 77.4113 35.1815 78.1678 35.9606 78.9244C35.9606 78.8875 35.9606 78.8598 35.9606 78.8229C35.9049 77.3098 35.9235 75.8059 36.007 74.2928C35.7009 73.2317 35.5896 72.5397 35.5246 71.6725C35.8215 70.0025 36.2017 68.351 36.3965 66.6625C37.1571 61.2282 38.6319 55.9414 40.32 50.7562C40.8302 49.2062 41.2197 47.61 41.869 46.1153C42.3235 44.7683 43.0748 43.3935 43.0748 41.945C42.9357 40.275 40.5148 40.1089 40.1252 41.742Z" fill="black"/>
</g>
<g opacity="0.1294">
<path d="M41.6556 83.2793C41.5722 83.6114 41.2661 83.8605 40.9414 83.8421C41.2011 83.9897 41.4887 84.0635 41.7948 83.9713C42.2678 83.8421 42.5832 83.3439 42.5554 82.8456C42.2585 82.9933 41.9617 83.1409 41.6556 83.2793Z" fill="black"/>
</g>
<g opacity="0.1294">
<path d="M30.7845 75.0585C30.7568 74.8556 30.7292 74.6526 30.7107 74.4496C30.7015 74.6618 30.7292 74.8648 30.7845 75.0585Z" fill="black"/>
</g>
<g opacity="0.1294">
<path d="M50.6435 87.4404C50.0684 87.8463 49.2893 87.7172 47.7959 87.6987C46.8035 87.5972 45.5328 87.6803 44.4197 87.3112C43.687 87.1359 43.0099 86.5454 42.24 86.6469C40.8116 86.7761 40.6817 89.0181 42.0638 89.3871C43.0655 89.7931 44.0765 90.1529 45.1339 90.3928C46.0243 90.605 46.9333 90.8172 47.833 90.5866C48.9554 90.3467 50.022 89.8485 51.0238 89.2764C51.4319 88.9996 51.9791 88.7782 52.1368 88.2708C52.3501 87.3204 51.2928 86.8407 50.6435 87.4404Z" fill="black"/>
</g>
<g opacity="0.1294">
<path d="M65.8087 89.4702C65.3078 89.6455 65.2058 89.9223 64.4267 90.3559C62.8684 91.2417 62.2006 91.4077 60.1229 91.8321C58.1472 92.3673 58.3142 92.2473 56.1252 92.4042C55.4388 92.4319 54.7617 92.395 54.0754 92.3119C53.6301 92.2381 53.1849 92.0444 52.7397 92.1458C50.9403 92.3304 50.7826 95.0983 52.5171 95.5781C56.9322 96.9159 60.5774 95.5781 63.7032 93.5944C64.6493 93.0039 65.5861 92.3857 66.393 91.5923C66.829 91.0756 66.9403 91.1678 67.0423 90.4666C67.0609 89.8023 66.4116 89.2949 65.8087 89.4702Z" fill="black"/>
</g>
<g opacity="0.1294">
<path d="M84.3594 98.9734C83.4319 99.1118 83.6638 99.2317 83.1722 99.3886C82.7826 99.4993 82.727 99.6838 81.3357 100.034C80.3803 100.21 80.4174 100.2 80.167 100.228C80.3525 99.9791 80.4267 99.6469 80.371 99.3424C80.3339 98.715 79.7496 98.2353 79.1652 98.226C78.4417 98.2722 77.8852 98.8996 77.2267 99.1671C75.8446 99.8038 76.1786 99.7023 74.2586 100.376C72.5241 100.883 71.6244 100.837 70.9565 100.883C70.3258 100.865 69.7044 100.431 69.1293 100.357C70.2887 99.8868 71.4017 99.2409 72.4591 98.5582C73.6742 97.7924 74.7409 96.8329 75.7333 95.7903C75.9559 95.5873 76.0858 95.292 76.0858 94.9876C76.0951 94.6093 75.8817 94.2771 75.5849 94.0834C75.2046 93.8435 74.6759 93.9173 74.3606 94.2495C74.4255 94.1941 74.5925 94.0649 74.4997 94.1295C74.0081 94.4524 73.5073 94.7661 73.0064 95.0798C70.1217 97.0174 66.3096 98.1522 63.8331 98.549C63.2487 98.6135 62.6551 98.6874 62.0615 98.632C62.0151 98.6228 61.9873 98.6228 61.9594 98.6228C61.9409 98.6228 61.9131 98.6135 61.8945 98.6135C61.4493 98.5674 61.0041 98.3368 60.5588 98.4013C59.4922 98.5028 59.3902 100.173 60.429 100.45C61.3658 100.791 62.3119 101.123 63.2951 101.215C64.3339 101.335 65.3913 101.178 66.4209 101.059C66.9867 101.012 67.5339 100.902 68.0626 100.745C67.5617 101.317 67.5803 102.387 68.3223 102.802C71.0122 104.223 73.9154 103.928 76.5959 102.655C77.0875 102.452 77.5606 102.203 78.0151 101.926C78.0336 102.775 78.6644 103.623 79.5733 103.587C81.2522 103.365 83.0609 103.264 84.48 102.203C84.8974 101.861 85.4539 101.575 85.6394 101.031C86.0939 100.099 85.3333 98.9549 84.3594 98.9734Z" fill="black"/>
</g>
<g opacity="0.1294">
<path d="M97.9293 92.4503C96.8997 92.9947 97.1502 93.1054 96.4823 93.539C95.4899 94.2587 95.6197 94.1757 94.182 94.5632C93.0041 94.7754 93.7183 94.7292 92.698 94.7477C92.5774 94.7477 92.4661 94.7292 92.3455 94.72C92.2157 94.6923 92.0487 94.6647 91.9281 94.6277C91.0748 94.4801 90.1658 93.8158 89.331 94.351C88.2273 94.9784 88.4591 96.8513 89.6835 97.165C90.8058 97.5156 91.9652 97.857 93.1525 97.774C94.5623 97.6725 95.9444 97.1281 97.1316 96.3162C97.6974 95.8918 98.2354 95.4305 98.7548 94.9507C99.1351 94.6278 99.5061 94.231 99.4875 93.6867C99.4968 92.8655 98.6806 92.2197 97.9293 92.4503Z" fill="black"/>
</g>
<g opacity="0.1294">
<path d="M109.579 88.1877C109.588 87.5419 109.171 86.9053 108.55 86.7484C108.512 86.7392 108.485 86.7392 108.448 86.73C108.438 85.5121 108.475 84.285 108.179 83.104C107.752 81.2587 106.787 79.6349 105.99 77.9372C105.257 76.1565 104.301 74.4404 103.077 72.9826C102.558 72.5028 101.677 72.9734 101.695 73.693C101.741 74.3112 102.279 74.7449 102.548 75.2615C104.06 77.5681 104.57 79.2842 105.294 82.0429C106.175 84.94 106.333 86.3424 106.073 89.3318C106.073 89.3687 106.064 89.3964 106.064 89.4241C106.036 89.5625 106.017 89.6916 105.99 89.83C105.98 89.8946 105.952 90.0053 105.915 90.116C105.767 90.3652 105.619 90.605 105.452 90.8449C105.248 91.094 104.839 91.6015 104.608 91.8229C104.552 91.8598 104.506 91.8875 104.459 91.9152C104.005 91.9613 103.661 91.9429 102.446 91.5277C102.103 91.3893 102.029 91.3524 102.419 91.5277C101.806 91.3063 101.25 90.8634 100.61 90.7434C99.1722 90.4666 98.4672 92.6441 99.738 93.373C100.183 93.6129 100.675 93.8435 101.111 94.0465C101.203 94.5355 101.463 94.9968 101.918 95.2551C102.02 95.3197 102.131 95.3659 102.242 95.412C102.279 96.0117 102.623 96.5837 103.355 96.8144C103.968 96.9897 104.608 97.165 105.248 97.0174C105.47 96.9805 105.906 96.7775 105.971 96.7406C106.611 96.4546 107.27 96.0578 107.548 95.3843C107.705 95.0429 107.715 94.7016 107.622 94.3879C107.863 94.1295 108.002 93.7882 108.03 93.4375C108.661 92.5703 109.115 91.5554 109.347 90.5128C109.486 89.7839 109.57 89.0366 109.579 88.2984C109.579 88.2708 109.579 88.2431 109.579 88.2154C109.579 88.1969 109.579 88.1785 109.579 88.1693V88.1877Z" fill="black"/>
</g>
<path d="M26.1936 88.9443C26.1472 88.9443 26.0916 88.935 26.0452 88.9258C21.4817 88.0585 16.7605 87.1636 12.1043 85.835C10.3049 85.2076 8.56113 84.7924 6.72461 84.3588C4.72113 83.879 2.64345 83.39 0.528665 82.615C0.111274 82.4581 -0.102059 82.006 0.0556218 81.5908C0.213303 81.1756 0.667796 80.9634 1.08519 81.1203C3.11649 81.8676 5.14779 82.3474 7.1049 82.8087C8.90432 83.2331 10.7594 83.676 12.5959 84.3126C16.8904 85.5305 21.3055 86.3978 25.6 87.2097C27.4643 79.3488 29.9965 71.6725 32.4452 64.236C33.9014 59.8073 35.4133 55.231 36.7861 50.6086C36.7953 50.5901 36.7953 50.5717 36.8046 50.5532C37.2684 49.3538 37.76 48.1728 38.233 47.038C39.5316 43.9563 40.7559 41.0316 41.3588 37.6547C41.3403 37.627 41.3124 37.5994 41.2846 37.5809C41.1826 37.5809 41.1269 37.5717 41.0342 37.5255C36.9994 35.9201 32.7791 34.7484 28.6979 33.6228C23.8655 32.2849 18.8661 30.901 14.0058 28.7697C13.5976 28.5944 13.4214 28.1238 13.5976 27.7179C13.7739 27.3119 14.2469 27.1274 14.655 27.3119C19.404 29.3971 24.3478 30.7718 29.1246 32.0912C33.215 33.226 37.4353 34.3886 41.5165 36.0032C42.3049 36.1047 42.9727 36.852 42.9727 37.6639C42.9727 37.7101 42.9727 37.7562 42.9634 37.8023C42.3327 41.4099 40.9971 44.5837 39.7078 47.6469C39.2347 48.7633 38.7524 49.9166 38.3072 51.0884C36.9252 55.7292 35.4226 60.3055 33.9571 64.7342C31.3229 72.7243 28.8371 80.2622 26.9727 88.3169C26.8892 88.6952 26.5646 88.9443 26.1936 88.9443Z" fill="black"/>
<path d="M16.8348 86.4808C16.7699 86.4808 16.7142 86.4716 16.6493 86.4624C16.2226 86.3609 15.9536 85.9273 16.0557 85.5028C20.3038 67.8066 26.2864 48.994 32.4731 33.8996C32.64 33.4936 33.1131 33.2999 33.5212 33.4567C33.9293 33.6228 34.1333 34.0933 33.9664 34.4993C27.8168 49.5291 21.8528 68.2495 17.6232 85.8719C17.5212 86.241 17.1965 86.4808 16.8348 86.4808Z" fill="black"/>
<path d="M138.073 91.1955C137.943 91.1955 137.823 91.1679 137.711 91.1125C137.507 91.011 137.359 90.8265 137.303 90.6143C134.363 80.05 131.256 69.495 127.954 58.3126C126.256 52.5461 124.494 46.5767 122.741 40.5334C122.639 40.1828 122.797 39.8045 123.112 39.62C130.606 35.385 138.49 31.7591 146.541 28.8527C146.959 28.7051 147.413 28.9173 147.571 29.3325C147.719 29.7477 147.506 30.1998 147.089 30.3566C139.316 33.1615 131.701 36.6398 124.448 40.7087C126.145 46.5398 127.842 52.297 129.484 57.8698C132.693 68.7569 135.726 79.0536 138.602 89.3503C145.447 86.7945 152.255 83.8698 158.841 80.659C159.239 80.4652 159.722 80.6313 159.917 81.028C160.111 81.4248 159.944 81.9046 159.546 82.0983C152.654 85.4567 145.521 88.5014 138.342 91.1494C138.268 91.1771 138.166 91.1955 138.073 91.1955Z" fill="black"/>
<path d="M146.977 87.1544C146.616 87.1544 146.291 86.9145 146.198 86.5547C141.885 69.5965 136.96 52.5738 131.571 35.9571C131.432 35.5419 131.664 35.0898 132.09 34.9514C132.517 34.813 132.962 35.0437 133.101 35.4681C138.5 52.1125 143.434 69.1721 147.757 86.1579C147.868 86.5823 147.608 87.016 147.172 87.1267C147.107 87.1451 147.042 87.1544 146.977 87.1544Z" fill="black"/>
<path d="M65.113 64.1714C63.3878 64.1714 61.3658 63.3872 60.4661 61.5696C58.8707 58.3495 61.8667 54.7236 62.8498 53.5334C66.9125 48.6157 71.1142 43.5412 76.3362 39.703C82.2446 35.3666 88.7003 33.4106 94.5159 34.1764C97.4933 34.5731 100.313 35.6618 103.049 36.7136C103.93 37.055 104.839 37.4056 105.73 37.7285C111.406 39.7583 117.333 40.8378 123.334 40.9301C123.78 40.9393 124.132 41.2991 124.123 41.742C124.114 42.1757 123.761 42.5263 123.325 42.5263H123.316C117.139 42.434 111.045 41.3268 105.201 39.2324C104.283 38.9095 103.365 38.5497 102.474 38.2083C99.8307 37.1842 97.0945 36.1324 94.3119 35.7633C88.9136 35.0437 82.8661 36.9074 77.3009 40.9855C72.2365 44.7037 68.0997 49.7044 64.102 54.5483C61.8667 57.2516 61.1525 59.3183 61.913 60.8683C62.553 62.16 64.1113 62.6583 65.3635 62.5752C66.8197 62.483 68.1925 61.8187 69.7136 61.016C70.7339 60.4808 71.7542 59.9549 72.7745 59.4198C78.989 56.1906 84.8603 53.1366 90.4348 49.0401C90.7872 48.7818 91.2974 48.8556 91.5571 49.2062C91.8168 49.5568 91.7426 50.055 91.3901 50.3226C85.7229 54.4929 79.7959 57.5745 73.5258 60.8314C72.5148 61.3573 71.4945 61.8833 70.4742 62.4184C68.851 63.2764 67.2464 64.0422 65.4748 64.1622C65.3449 64.1622 65.2336 64.1714 65.113 64.1714Z" fill="black"/>
<path d="M119.81 92.3119C119.504 92.3119 119.207 92.1366 119.077 91.8322C118.901 91.4262 119.086 90.9556 119.495 90.7803C124.819 88.4922 130.189 86.1118 135.448 83.7037C135.847 83.5192 136.329 83.6945 136.515 84.1004C136.7 84.4972 136.524 84.9769 136.116 85.1615C130.838 87.5696 125.459 89.95 120.125 92.2473C120.023 92.2843 119.912 92.3119 119.81 92.3119Z" fill="black"/>
<path d="M117.741 95.4028C117.584 95.4028 117.435 95.3935 117.306 95.3751C114.829 95.0983 112.39 93.3914 110.627 90.6788C109.505 88.9535 108.726 87.0344 107.965 85.1707C107.724 84.5802 107.492 83.9989 107.242 83.4177C105.238 78.7307 102.521 74.4404 99.1814 70.676C98.8846 70.3439 98.9217 69.8456 99.2556 69.5504C99.5896 69.2551 100.09 69.292 100.387 69.6242C103.847 73.5177 106.648 77.9556 108.726 82.7995C108.976 83.39 109.217 83.9897 109.459 84.5802C110.182 86.3701 110.933 88.2154 111.972 89.8116C113.475 92.1182 115.488 93.5667 117.482 93.7881C117.769 93.8158 117.964 93.8066 118.048 93.742C118.15 93.6774 118.307 93.4375 118.289 92.5518C118.02 83.6022 115.2 74.6065 110.34 67.2161C105.489 59.8442 98.4672 53.8655 90.5739 50.3964C90.1658 50.2211 89.9896 49.7505 90.1658 49.3446C90.342 48.9386 90.8151 48.7633 91.2232 48.9386C99.3948 52.5369 106.667 58.7186 111.685 66.3488C116.703 73.9698 119.615 83.2608 119.893 92.5057C119.912 93.0224 119.949 94.4063 118.938 95.0798C118.548 95.3382 118.122 95.4028 117.741 95.4028Z" fill="black"/>
<path d="M80.807 103.873C79.7681 103.873 78.4232 103.697 76.9577 102.581C76.6052 102.313 76.5403 101.815 76.8093 101.465C77.0783 101.114 77.5791 101.049 77.9316 101.317C79.2858 102.35 80.4267 102.304 81.4284 102.258L81.5397 102.249C83.0238 102.184 84.582 101.428 85.5189 100.33C85.9548 99.813 86.4464 98.9918 86.3165 97.9954C86.3073 97.9585 86.3073 97.9308 86.3073 97.8939C86.3165 96.2424 86.0939 94.5724 85.8991 93.2899C85.8435 92.9393 86.029 92.5979 86.3536 92.4503C86.6783 92.3027 87.0586 92.3857 87.2997 92.6533C88.4128 93.945 89.5722 95.2736 90.982 96.1501C92.429 97.0543 94.0336 97.3126 95.2765 96.8421C97.0018 96.1778 98.7733 93.0316 98.3745 91.3155C98.2725 90.8818 98.5415 90.4574 98.9774 90.3559C99.4134 90.2544 99.84 90.5312 99.942 90.9556C100.517 93.456 98.3374 97.3772 95.8516 98.3275C94.1171 98.9918 92.0302 98.6874 90.1287 97.4972C89.2661 96.9528 88.5055 96.2977 87.8006 95.5873C87.8655 96.3162 87.9119 97.082 87.9119 97.8385C88.051 99.0656 87.6522 100.284 86.7432 101.354C85.5096 102.812 83.5432 103.762 81.6047 103.845H81.5026C81.2986 103.863 81.0574 103.873 80.807 103.873Z" fill="black"/>
<path d="M105.145 97.5525C104.515 97.5525 103.921 97.3772 103.346 97.1466C100.526 96.0025 99.0423 92.8194 97.6046 89.7378C96.6122 87.6065 95.5826 85.4106 94.182 84.1097C93.8574 83.8052 93.8388 83.307 94.1449 82.984C94.451 82.6611 94.9519 82.6427 95.2765 82.9471C96.8997 84.4603 97.9942 86.8038 99.0516 89.0735C100.415 92.0075 101.714 94.7754 103.94 95.6796C104.923 96.0763 106.045 96.5284 107.622 93.7512C108.058 92.9854 108.179 92.0075 108.243 91.0664C108.401 88.6583 107.789 86.1764 107.186 83.7683C107.093 83.3992 107.001 83.0302 106.917 82.6703C106.815 82.2459 107.075 81.8123 107.511 81.7108C107.947 81.6093 108.373 81.8676 108.475 82.3013C108.559 82.6611 108.652 83.0302 108.744 83.39C109.375 85.9088 110.024 88.5199 109.848 91.1771C109.774 92.3027 109.625 93.4929 109.023 94.5447C107.705 96.8605 106.379 97.5525 105.145 97.5525Z" fill="black"/>
<path d="M57.062 97.082C56.9971 97.082 56.9322 97.082 56.8673 97.082C54.502 97.0266 51.7194 95.5596 50.9774 92.8655C50.7362 91.989 50.727 91.1033 50.8383 90.2544C49.3357 91.1863 47.4806 91.5646 45.7183 91.2324C42.9449 90.7158 40.6168 88.3446 40.1809 85.6043C40.0417 84.7001 40.1994 83.9989 40.6632 83.5192C40.9693 83.2055 41.4794 83.1962 41.7948 83.5007C42.1102 83.8052 42.1194 84.3126 41.8133 84.6263C41.7577 84.6817 41.6835 84.8939 41.7577 85.3552C42.0916 87.4496 43.8817 89.258 46.0058 89.6639C48.0742 90.0515 50.2817 89.1842 51.5061 87.4957C51.7194 87.2097 52.0904 87.0898 52.4244 87.2097C52.6841 87.0713 52.9159 86.9791 53.0736 86.9145C56.0417 85.7058 59.149 84.9585 62.3304 84.7001C65.549 84.4418 66.8846 85.6043 67.4319 86.6285C67.8122 87.3297 67.942 88.1969 67.8215 89.1934C67.6731 90.4666 67.1351 91.7122 66.3281 92.681C65.5397 93.6221 64.5287 94.2956 63.5641 94.8769C61.8296 95.9194 59.5478 97.082 57.062 97.082ZM52.7212 88.9535C52.3965 90.2544 52.2203 91.3801 52.5171 92.4411C53.0551 94.3786 55.1328 95.4397 56.9044 95.4858C59.0562 95.5412 61.1432 94.4617 62.72 93.5206C63.5733 93.0131 64.4452 92.4411 65.076 91.6753C65.6881 90.9372 66.0962 89.9869 66.2168 89.0181C66.2725 88.5568 66.2817 87.9109 66.0035 87.3943C65.4099 86.2963 63.7403 86.1948 62.4417 86.2963C59.4365 86.5362 56.4777 87.2466 53.6673 88.3907C53.2035 88.5845 52.8974 88.769 52.7212 88.9535Z" fill="black"/>
<path d="M64.3153 102.304C63.1466 102.304 62.0429 102.018 61.1153 101.446C59.3067 100.339 58.2214 98.1338 58.4069 95.9656C58.444 95.5227 58.8336 95.1998 59.2788 95.2367C59.724 95.2736 60.0487 95.6611 60.0116 96.104C59.8817 97.6632 60.6794 99.3055 61.9594 100.09C63.1838 100.846 64.8626 100.92 66.5507 100.293C68.1553 99.6931 69.5559 98.6136 70.9751 97.451C72.9971 95.7995 74.8893 93.9542 75.0562 91.6292C75.0655 91.4908 75.0748 91.2878 75.0284 91.1678C74.982 91.0571 74.8522 90.9372 74.6295 90.7988C73.2104 89.9131 71.513 90.1345 70.6319 90.3375C69.2684 90.6604 68.1553 91.2601 66.8661 91.9613L66.6435 92.0813C66.2539 92.2935 65.7623 92.1459 65.5582 91.7583C65.3449 91.3708 65.4933 90.8911 65.8829 90.6789L66.1055 90.5589C67.4411 89.8393 68.7026 89.1565 70.2701 88.7874C72.218 88.3261 74.073 88.5568 75.4922 89.4517C75.8168 89.6547 76.2806 89.9961 76.5124 90.5589C76.6887 90.9833 76.6794 91.417 76.6609 91.7399C76.4475 94.6739 74.2864 96.8052 71.9953 98.6781C70.5298 99.8776 68.9438 101.095 67.1165 101.778C66.1704 102.129 65.2151 102.304 64.3153 102.304Z" fill="black"/>
<path d="M72.9415 104.5C71.8748 104.5 70.7988 104.242 69.8435 103.743C68.7304 103.171 67.5803 102.018 67.673 100.523C67.7009 100.081 68.0904 99.7484 68.5171 99.7761C68.9623 99.8038 69.2962 100.182 69.2684 100.616C69.222 101.354 69.9455 101.99 70.5855 102.323C71.578 102.839 72.7188 103.015 73.8133 102.821C75.5571 102.516 77.069 101.317 78.3212 100.182C79.7403 98.8996 80.3432 97.8385 80.2226 96.8421C80.0928 95.6888 78.9055 94.9138 77.8759 94.8584C76.8464 94.8031 75.789 95.2459 74.5368 96.2701C74.1936 96.5468 73.6928 96.5007 73.4052 96.1593C73.127 95.818 73.1733 95.3197 73.5165 95.0337C74.509 94.2218 76.0487 93.1423 77.9687 93.2622C79.6754 93.3637 81.5768 94.6554 81.8087 96.6576C82.0499 98.6966 80.538 100.32 79.3878 101.363C78.0522 102.572 76.2435 104.011 74.0823 104.389C73.7113 104.463 73.3217 104.5 72.9415 104.5Z" fill="black"/>
<path d="M52.2296 88.2708C51.84 88.2708 51.5061 87.994 51.4412 87.6065C51.1815 86.038 49.5304 85.0969 48.5751 84.6725C45.7832 83.4454 43.3531 83.4823 41.3588 84.7924C40.9971 85.0323 40.5055 84.94 40.2551 84.5802C37.4354 80.4929 33.9107 77.4666 29.8017 75.5937C29.4029 75.4092 29.2174 74.9386 29.4029 74.5326C29.5884 74.1359 30.0615 73.9514 30.4696 74.1359C34.6435 76.0365 38.2331 79.0351 41.1455 83.0578C43.4736 81.8307 46.1913 81.8769 49.2244 83.2147C51.3855 84.165 52.7397 85.632 53.0273 87.3481C53.1015 87.7818 52.8046 88.1969 52.3687 88.2615C52.3131 88.2615 52.276 88.2708 52.2296 88.2708Z" fill="black"/>
<path d="M41.5443 41.2438C41.1826 41.2438 40.858 40.9947 40.7652 40.6349C40.6632 40.2104 40.9229 39.7768 41.3588 39.6753C49.5397 37.7009 57.0527 34.9883 63.3229 32.5987L63.8794 32.3865C66.2725 31.473 68.749 30.5227 71.3646 30.2182C77.3843 29.5263 82.9217 32.2204 87.8098 34.6008C88.2087 34.7945 88.3756 35.2743 88.1809 35.671C87.9861 36.0678 87.5038 36.2339 87.1049 36.0401C82.4209 33.7612 77.1061 31.1686 71.5501 31.8144C69.1385 32.0912 66.764 33.0046 64.4638 33.8811L63.9072 34.0933C57.5814 36.5014 50.0127 39.2324 41.7484 41.2346C41.6742 41.2438 41.6093 41.2438 41.5443 41.2438Z" fill="black"/>
<path d="M154.852 80.7236C154.815 80.7236 154.787 80.7143 154.75 80.7051L146.727 77.5497C146.588 77.4943 146.523 77.3375 146.579 77.2083C146.634 77.0699 146.792 77.0053 146.922 77.0607L154.945 80.2161C155.084 80.2715 155.149 80.4283 155.093 80.5575C155.065 80.659 154.963 80.7236 154.852 80.7236Z" fill="black"/>
<path d="M157.57 77.5774C157.542 77.5774 157.514 77.5681 157.477 77.5589C153.062 75.9904 148.684 74.1359 144.473 72.0508C144.343 71.9862 144.288 71.8293 144.352 71.6909C144.417 71.5618 144.575 71.5064 144.714 71.571C148.907 73.6469 153.266 75.4922 157.663 77.0607C157.802 77.1068 157.876 77.2637 157.82 77.4021C157.783 77.5128 157.672 77.5774 157.57 77.5774Z" fill="black"/>
<path d="M158.247 72.6412C158.219 72.6412 158.191 72.6412 158.163 72.6228C153.257 70.9436 148.35 69.0337 143.601 66.9393C143.462 66.884 143.406 66.7271 143.462 66.5887C143.518 66.4503 143.685 66.395 143.814 66.4503C148.554 68.5355 153.442 70.4454 158.33 72.1153C158.47 72.1615 158.544 72.3183 158.497 72.4567C158.46 72.5674 158.358 72.6412 158.247 72.6412Z" fill="black"/>
<path d="M158.247 67.8989C158.21 67.8989 158.182 67.8896 158.145 67.8804C152.441 65.6476 148.007 63.7193 141.904 61.0252C141.765 60.9698 141.709 60.813 141.765 60.6746C141.82 60.5362 141.987 60.4808 142.117 60.5362C148.22 63.2211 152.635 65.1494 158.34 67.3822C158.479 67.4375 158.544 67.5944 158.488 67.7236C158.46 67.8343 158.358 67.8989 158.247 67.8989Z" fill="black"/>
<path d="M156.828 62.5476C156.791 62.5476 156.754 62.5383 156.726 62.5291L140.346 55.5539C140.206 55.4986 140.151 55.3417 140.206 55.2033C140.262 55.0649 140.42 55.0096 140.559 55.0649L156.939 62.0401C157.078 62.0955 157.134 62.2523 157.078 62.3907C157.032 62.483 156.93 62.5476 156.828 62.5476Z" fill="black"/>
<path d="M156.299 57.4269C156.262 57.4269 156.225 57.4177 156.188 57.3992L138.398 49.1693C138.268 49.1047 138.203 48.9478 138.268 48.8187C138.333 48.6895 138.49 48.6249 138.62 48.6895L156.41 56.9194C156.54 56.984 156.605 57.1409 156.54 57.27C156.494 57.3623 156.401 57.4269 156.299 57.4269Z" fill="black"/>
<path d="M154.565 50.9869C154.528 50.9869 154.49 50.9776 154.453 50.9592L136.505 42.5355C136.376 42.4709 136.311 42.314 136.376 42.1849C136.441 42.0465 136.598 42.0003 136.728 42.0557L154.676 50.4794C154.806 50.544 154.871 50.7008 154.806 50.83C154.759 50.9315 154.667 50.9869 154.565 50.9869Z" fill="black"/>
<path d="M150.53 42.5632C150.493 42.5632 150.465 42.5539 150.428 42.5447C145.966 40.7548 141.421 39.0294 136.914 37.4148C136.774 37.3687 136.7 37.2118 136.756 37.0735C136.802 36.9351 136.96 36.8612 137.099 36.9166C141.616 38.5312 146.17 40.2566 150.632 42.0465C150.771 42.1018 150.836 42.2587 150.78 42.3971C150.734 42.4986 150.632 42.5632 150.53 42.5632Z" fill="black"/>
<path d="M150.177 36.6398C150.14 36.6398 150.103 36.6306 150.066 36.6214L143.657 33.8258C143.518 33.7704 143.462 33.6136 143.518 33.4752C143.573 33.3368 143.731 33.2814 143.87 33.3368L150.279 36.1324C150.419 36.1877 150.474 36.3446 150.419 36.483C150.372 36.5845 150.279 36.6398 150.177 36.6398Z" fill="black"/>
<path d="M14.3582 28.2161C20.6933 30.4397 27.0933 32.451 33.1965 34.3609C32.1948 38.7711 29.6255 42.5816 27.9003 46.7427C26.982 48.9478 26.3049 51.2452 25.6371 53.5518C22.4927 64.3282 19.4875 75.1416 16.6029 85.9918C10.9542 83.9713 6.57622 82.9379 0.519409 81.8123C6.0939 63.6916 11.1211 46.2999 14.3582 28.2161Z" fill="#ACD4F7"/>
<g opacity="0.1294">
<path d="M40.1252 41.742C38.771 46.8627 36.378 50.6547 34.6157 56.292C33.549 59.5859 32.742 62.9535 32.1299 66.3673C31.7496 67.8804 31.4528 69.412 31.1467 70.9436C30.9241 72.2999 30.5438 73.6838 30.7757 75.0585C31.1096 76.3964 32.5287 77.0422 33.6789 76.6086C34.4116 77.4113 35.1815 78.1678 35.9606 78.9244C35.9606 78.8875 35.9606 78.8598 35.9606 78.8229C35.9049 77.3098 35.9235 75.8059 36.007 74.2928C35.7009 73.2317 35.5896 72.5397 35.5246 71.6725C35.8215 70.0025 36.2017 68.351 36.3965 66.6625C37.1571 61.2282 38.6319 55.9414 40.32 50.7562C40.8302 49.2062 41.2197 47.61 41.869 46.1153C42.3235 44.7683 43.0748 43.3935 43.0748 41.945C42.9357 40.275 40.5148 40.1089 40.1252 41.742Z" fill="black"/>
</g>
<g opacity="0.1294">
<path d="M41.6556 83.2793C41.5722 83.6114 41.2661 83.8605 40.9414 83.8421C41.2011 83.9897 41.4887 84.0635 41.7948 83.9713C42.2678 83.8421 42.5832 83.3439 42.5554 82.8456C42.2585 82.9933 41.9617 83.1409 41.6556 83.2793Z" fill="black"/>
</g>
<g opacity="0.1294">
<path d="M30.7845 75.0585C30.7568 74.8556 30.7292 74.6526 30.7107 74.4496C30.7015 74.6618 30.7292 74.8648 30.7845 75.0585Z" fill="black"/>
</g>
<path d="M26.1936 88.9443C26.1472 88.9443 26.0916 88.935 26.0452 88.9258C21.4817 88.0585 16.7605 87.1636 12.1043 85.835C10.3049 85.2076 8.56113 84.7924 6.72461 84.3588C4.72113 83.879 2.64345 83.39 0.528665 82.615C0.111274 82.4581 -0.102059 82.006 0.0556218 81.5908C0.213303 81.1756 0.667796 80.9634 1.08519 81.1203C3.11649 81.8676 5.14779 82.3474 7.1049 82.8087C8.90432 83.2331 10.7594 83.676 12.5959 84.3126C16.8904 85.5305 21.3055 86.3978 25.6 87.2097C27.4643 79.3488 29.9965 71.6725 32.4452 64.236C33.9014 59.8073 35.4133 55.231 36.7861 50.6086C36.7953 50.5901 36.7953 50.5717 36.8046 50.5532C37.2684 49.3538 37.76 48.1728 38.233 47.038C39.5316 43.9563 40.7559 41.0316 41.3588 37.6547C41.3403 37.627 41.3124 37.5994 41.2846 37.5809C41.1826 37.5809 41.1269 37.5717 41.0342 37.5255C36.9994 35.9201 32.7791 34.7484 28.6979 33.6228C23.8655 32.2849 18.8661 30.901 14.0058 28.7697C13.5976 28.5944 13.4214 28.1238 13.5976 27.7179C13.7739 27.3119 14.2469 27.1274 14.655 27.3119C19.404 29.3971 24.3478 30.7718 29.1246 32.0912C33.215 33.226 37.4353 34.3886 41.5165 36.0032C42.3049 36.1047 42.9727 36.852 42.9727 37.6639C42.9727 37.7101 42.9727 37.7562 42.9634 37.8023C42.3327 41.4099 40.9971 44.5837 39.7078 47.6469C39.2347 48.7633 38.7524 49.9166 38.3072 51.0884C36.9252 55.7292 35.4226 60.3055 33.9571 64.7342C31.3229 72.7243 28.8371 80.2622 26.9727 88.3169C26.8892 88.6952 26.5646 88.9443 26.1936 88.9443Z" fill="black"/>
<path d="M16.8348 86.4808C16.7699 86.4808 16.7142 86.4716 16.6493 86.4624C16.2226 86.3609 15.9536 85.9273 16.0557 85.5028C20.3038 67.8066 26.2864 48.994 32.4731 33.8996C32.64 33.4936 33.1131 33.2999 33.5212 33.4567C33.9293 33.6228 34.1333 34.0933 33.9664 34.4993C27.8168 49.5291 21.8528 68.2495 17.6232 85.8719C17.5212 86.241 17.1965 86.4808 16.8348 86.4808Z" fill="black"/>
<path d="M119.81 92.3119C119.504 92.3119 119.207 92.1366 119.077 91.8322C118.901 91.4262 119.086 90.9556 119.495 90.7803C124.819 88.4922 130.189 86.1118 135.448 83.7037C135.847 83.5192 136.329 83.6945 136.515 84.1004C136.7 84.4972 136.524 84.9769 136.116 85.1615C130.838 87.5696 125.459 89.95 120.125 92.2473C120.023 92.2843 119.912 92.3119 119.81 92.3119Z" fill="black"/>
<path d="M106.416 32.654C105.962 32.6448 105.609 32.285 105.619 31.8513L105.85 9.44038C105.86 9.00674 106.212 8.64691 106.648 8.64691H106.657C107.103 8.65614 107.455 9.01597 107.455 9.44961L107.223 31.8605C107.214 32.3034 106.861 32.654 106.416 32.654Z" fill="#42526D"/>
<path d="M101.908 15.9358C101.723 15.9358 101.537 15.8712 101.389 15.742C101.055 15.456 101.009 14.9485 101.296 14.6164C103.105 12.5128 104.719 10.2062 106.101 7.76117C106.249 7.50283 106.537 7.36444 106.815 7.35521C107.112 7.36444 107.381 7.53051 107.511 7.78885L107.659 8.0841C108.976 10.6306 109.839 12.3098 111.583 14.5426C111.852 14.8932 111.787 15.3914 111.443 15.659C111.091 15.9265 110.59 15.862 110.321 15.5206C108.735 13.4908 107.817 11.8485 106.75 9.81866C105.498 11.8854 104.07 13.8414 102.511 15.659C102.363 15.8435 102.131 15.9358 101.908 15.9358Z" fill="#42526D"/>
<path d="M85.7693 25.7896C85.76 25.7896 85.76 25.7896 85.7693 25.7896C85.3148 25.7896 84.9623 25.4205 84.9716 24.9869L85.2035 2.57594C85.2035 2.1423 85.5652 1.78247 86.0012 1.78247H86.0105C86.4557 1.7917 86.8081 2.15153 86.8081 2.58517L86.5762 24.9961C86.567 25.439 86.2052 25.7896 85.7693 25.7896Z" fill="#42526D"/>
<path d="M81.2522 9.08055C81.0667 9.08055 80.8812 9.01597 80.7328 8.8868C80.3989 8.60078 80.3525 8.09333 80.64 7.76118C82.4487 5.65756 84.0626 3.35096 85.4447 0.905962C85.5931 0.647622 85.862 0.5 86.1589 0.5C86.4557 0.509226 86.7247 0.675302 86.8545 0.933641L87.0029 1.21966C88.32 3.76615 89.1919 5.44535 90.9357 7.68737C91.2047 8.03797 91.1397 8.5362 90.7965 8.80376C90.4441 9.07133 89.9432 9.00674 89.6742 8.66537C88.0881 6.63556 87.1699 4.99326 86.1032 2.96345C84.851 5.03016 83.4226 6.98616 81.8644 8.80376C81.7067 8.97906 81.4841 9.08055 81.2522 9.08055Z" fill="#42526D"/>
<path d="M62.2748 28.7513C61.8203 28.7513 61.4678 28.3822 61.4771 27.9486L61.709 5.53763C61.7183 5.10399 62.0707 4.74416 62.5067 4.74416H62.516C62.9612 4.75338 63.3136 5.11321 63.3136 5.54685L63.0817 27.9578C63.0725 28.4006 62.72 28.7513 62.2748 28.7513Z" fill="#42526D"/>
<path d="M57.767 12.033C57.5815 12.033 57.3959 11.9684 57.2475 11.8393C56.9136 11.5532 56.8673 11.0458 57.1548 10.7136C58.9635 8.61001 60.5774 6.30341 61.9594 3.85842C62.1078 3.60008 62.3954 3.45245 62.6736 3.45245C62.9704 3.46168 63.2394 3.62776 63.3693 3.88609L63.5177 4.18134C64.8348 6.72783 65.6974 8.40703 67.4504 10.6398C67.7194 10.9904 67.6545 11.4886 67.3113 11.7562C66.9588 12.0238 66.458 11.9684 66.189 11.6178C64.6029 9.58801 63.6846 7.94571 62.618 5.9159C61.3658 7.98262 59.9374 9.93861 58.3791 11.7562C58.2122 11.9407 57.9896 12.033 57.767 12.033Z" fill="#42526D"/>
</g>
<defs>
<clipPath id="clip0_1_2918">
<rect width="160" height="104" fill="white" transform="translate(0 0.5)"/>
</clipPath>
</defs>
</svg>
