<svg width="169" height="65" viewBox="0 0 169 65" fill="none" xmlns="http://www.w3.org/2000/svg">
<g clip-path="url(#clip0_8_11022)">
<path d="M52.4403 42.7446C52.2023 42.7368 51.9705 42.6667 51.7681 42.5415C51.5657 42.4163 51.3997 42.2402 51.2869 42.031C50.9781 41.5817 50.8242 41.0443 50.8485 40.5C50.8189 40.019 50.9758 39.545 51.2869 39.1763C51.5742 38.896 51.9578 38.7355 52.3596 38.7274C53.0937 38.7428 53.8259 38.8082 54.5511 38.9231V37.5533C53.8253 37.4452 53.0933 37.3837 52.3596 37.3691C51.9426 37.373 51.5293 37.4469 51.1369 37.5878C50.759 37.717 50.413 37.9249 50.1219 38.1979C49.8307 38.4742 49.606 38.8126 49.4644 39.1878C49.2969 39.6047 49.2145 40.0509 49.2222 40.5C49.2214 40.7023 49.2485 40.9037 49.3029 41.0986C49.3512 41.2958 49.4168 41.4884 49.499 41.6741C49.5757 41.8488 49.6643 42.0181 49.7643 42.1806C49.8993 42.3587 50.0457 42.5279 50.2026 42.6871V42.7446H42.7398C42.5937 42.745 42.4489 42.7176 42.313 42.6641C42.1715 42.6144 42.0419 42.536 41.9324 42.4338C41.8192 42.3131 41.7293 42.1727 41.6671 42.0195C41.5934 41.8287 41.5581 41.6253 41.5633 41.4209V34.2957L39.9369 34.9288V41.6856C39.9406 41.8627 39.9092 42.0387 39.8446 42.2036C39.7861 42.326 39.7037 42.4356 39.6024 42.5259C39.5123 42.6053 39.4061 42.6642 39.291 42.6986C39.1913 42.7088 39.0908 42.7088 38.9911 42.6986H37.6992V37.3346L36.0844 37.9677V42.7446H34.5503V44.1259H38.8296C38.9986 44.1362 39.1681 44.1362 39.3371 44.1259C39.5404 44.1077 39.7413 44.0692 39.9369 44.0108C40.1481 43.9503 40.3528 43.8694 40.5482 43.7691C40.7591 43.65 40.9498 43.4985 41.1134 43.3202C41.3235 43.5714 41.5877 43.772 41.8862 43.9072C42.2016 44.0641 42.5489 44.1468 42.9013 44.149H55.3931V42.7446H52.4403Z" fill="#005E85"/>
<path d="M64.3785 41.4209V34.2957L62.7637 34.9288V41.6856C62.7698 41.864 62.7342 42.0413 62.6599 42.2036C62.6092 42.3306 62.5256 42.4418 62.4176 42.5259C62.3276 42.6053 62.2213 42.6642 62.1062 42.6986C62.0065 42.7088 61.906 42.7088 61.8063 42.6986H60.526V37.3346L58.8996 37.9677V42.7446H57.3655V44.1374H61.6448H62.1524C62.3558 44.1203 62.5568 44.0817 62.7521 44.0223C62.9688 43.967 63.1779 43.8859 63.375 43.7806C63.9171 43.4238 64.3785 42.8252 64.3785 41.4209Z" fill="#005E85"/>
<path d="M67.9312 34.2957L66.3625 34.9173V44.1374H67.9312V34.2957Z" fill="#005E85"/>
<path d="M77.4932 38.2324C77.1887 37.9399 76.8221 37.7195 76.4205 37.5878C75.5088 37.2977 74.5293 37.2977 73.6176 37.5878C73.2161 37.7195 72.8495 37.9399 72.5449 38.2324C72.2343 38.5264 71.9973 38.8892 71.8529 39.2914C71.6785 39.7705 71.5963 40.2782 71.6106 40.7878C71.5939 41.2759 71.6642 41.7631 71.8183 42.2266C71.9657 42.6274 72.2023 42.9894 72.5103 43.2856C72.8178 43.5743 73.1836 43.794 73.583 43.9302C74.4968 44.2065 75.4721 44.2065 76.3859 43.9302C76.7854 43.794 77.1511 43.5743 77.4586 43.2856C77.7667 42.9894 78.0033 42.6274 78.1507 42.2266C78.3325 41.7682 78.4302 41.2808 78.4391 40.7878C78.4456 40.289 78.3596 39.7934 78.1853 39.3259C78.0458 38.9113 77.8084 38.5363 77.4932 38.2324ZM76.3398 42.1921C76.1647 42.3706 75.9557 42.5125 75.7249 42.6094C75.4942 42.7062 75.2463 42.7561 74.996 42.7561C74.7457 42.7561 74.4979 42.7062 74.2671 42.6094C74.0364 42.5125 73.8273 42.3706 73.6523 42.1921C73.333 41.7819 73.1695 41.2722 73.1909 40.7533C73.1693 40.2378 73.3329 39.7316 73.6523 39.3259C73.8273 39.1474 74.0364 39.0055 74.2671 38.9087C74.4979 38.8118 74.7457 38.7619 74.996 38.7619C75.2463 38.7619 75.4942 38.8118 75.7249 38.9087C75.9557 39.0055 76.1647 39.1474 76.3398 39.3259C76.6592 39.7316 76.8228 40.2378 76.8012 40.7533C76.8291 41.2694 76.6739 41.7788 76.3629 42.1921H76.3398Z" fill="#005E85"/>
<path d="M81.4265 46.8424C81.8268 46.1437 82.0152 45.3439 81.9686 44.5403V37.3345L80.4 37.9446V44.4827C80.4057 44.8026 80.3825 45.1224 80.3307 45.4381C80.3028 45.6355 80.2403 45.8264 80.1462 46.0022C80.072 46.1202 79.9633 46.2126 79.8348 46.2669C79.7054 46.3138 79.5687 46.3372 79.4311 46.336H78.3929V47.6942H79.5464C79.9077 47.7356 80.2735 47.6782 80.6046 47.5281C80.9358 47.3781 81.2199 47.1411 81.4265 46.8424Z" fill="#005E85"/>
<path d="M85.5097 34.2957L83.941 34.9288V43.9993H85.5097V34.2957Z" fill="#005E85"/>
<path d="M88.5433 46.8424C88.9437 46.1437 89.132 45.3439 89.0855 44.5403V37.3345L87.5168 37.9561V44.4712C87.5225 44.7911 87.4993 45.1109 87.4476 45.4266C87.4196 45.624 87.3571 45.8149 87.263 45.9906C87.1889 46.1087 87.0801 46.2011 86.9516 46.2554C86.8222 46.3023 86.6855 46.3257 86.5479 46.3245H85.5098V47.6942H86.6632C87.0245 47.7356 87.3903 47.6782 87.7215 47.5281C88.0526 47.3781 88.3367 47.1411 88.5433 46.8424Z" fill="#005E85"/>
<path d="M89.0854 34.2957V36.1835L87.5167 35.5619V34.2957H89.0854Z" fill="#005E85"/>
<path d="M77.2972 34.2957V36.1835L75.7285 35.5619V34.2957H77.2972Z" fill="#005E85"/>
<path d="M74.3097 34.2957V36.1835L72.741 35.5619V34.2957H74.3097Z" fill="#005E85"/>
<path d="M59.7994 47.1072C59.7269 47.1132 59.6541 47.1029 59.5862 47.077C59.5183 47.0511 59.4571 47.0103 59.4072 46.9576C59.3104 46.8418 59.261 46.6938 59.2688 46.5432C59.2627 46.3982 59.3075 46.2557 59.3956 46.1403C59.4356 46.0945 59.4854 46.0583 59.5413 46.0343C59.5972 46.0104 59.6578 45.9994 59.7186 46.0022C59.9928 46.0078 60.2663 46.0308 60.5376 46.0713V45.5648C60.2663 45.5244 59.9928 45.5013 59.7186 45.4957C59.4232 45.472 59.1299 45.5627 58.8997 45.749C58.8007 45.8409 58.7235 45.9537 58.6736 46.0791C58.6237 46.2045 58.6024 46.3395 58.6113 46.4741C58.6137 46.5801 58.6332 46.6851 58.669 46.7849C58.7134 46.8822 58.7675 46.9748 58.8305 47.0612H58.3691V47.6943H60.8144V47.1418L59.7994 47.1072Z" fill="#005E85"/>
<path d="M97.3672 39.6942C97.2831 39.2392 97.1022 38.8074 96.8366 38.428C96.5792 38.0766 96.2273 37.8052 95.8216 37.6453C95.3255 37.4356 94.7916 37.3298 94.2529 37.3345C93.7194 37.3211 93.189 37.4191 92.6957 37.6223C92.3099 37.7943 91.973 38.0593 91.7153 38.3935C91.4625 38.7348 91.2891 39.128 91.2078 39.5446C91.1054 40.0212 91.0552 40.5075 91.0578 40.995C91.0514 41.4403 91.1338 41.8824 91.3001 42.2957C91.4573 42.6683 91.6888 43.0051 91.9806 43.2856C92.2754 43.5735 92.6297 43.7935 93.0187 43.9302C93.4442 44.0818 93.8935 44.1559 94.3452 44.1489H94.7835C95.1673 43.9589 95.5241 43.7189 95.8447 43.4352C95.7178 45.0237 95.4525 46.3475 93.2033 46.3475H91.8999V47.6942H93.4109C94.0707 47.7132 94.7281 47.6077 95.3487 47.3834C95.8683 47.1771 96.3142 46.8203 96.629 46.359C96.9827 45.7032 97.217 44.99 97.3211 44.2525C97.4715 43.3705 97.541 42.4766 97.5287 41.582C97.5342 40.9491 97.4802 40.3171 97.3672 39.6942ZM95.8908 42.7561H94.3452C94.1192 42.7764 93.8915 42.749 93.6768 42.6756C93.4622 42.6022 93.2655 42.4845 93.0994 42.3302C92.7972 41.9493 92.6528 41.4674 92.6957 40.9834C92.693 40.667 92.72 40.351 92.7765 40.0396C92.8166 39.8026 92.9028 39.5758 93.0302 39.3719C93.154 39.1792 93.3247 39.0208 93.5262 38.9115C93.7717 38.7981 94.0402 38.743 94.3106 38.7503C94.5631 38.7245 94.8177 38.7729 95.0431 38.8894C95.2685 39.006 95.4549 39.1857 95.5794 39.4065C95.8464 40.0674 95.9684 40.7779 95.9369 41.4899C95.9369 41.9388 95.9139 42.3762 95.8908 42.7561Z" fill="#005E85"/>
<path d="M32.9701 39.2338C32.8145 38.835 32.5699 38.4768 32.255 38.1863C31.9401 37.9071 31.5711 37.6955 31.1707 37.5648C30.727 37.4212 30.2645 37.3436 29.7981 37.3345C29.3314 37.3277 28.8669 37.4017 28.4255 37.5532C28.0232 37.6852 27.6536 37.901 27.3413 38.1863C27.0281 38.4738 26.7837 38.8278 26.6261 39.2223C26.4461 39.6641 26.3597 40.1383 26.3724 40.6151C26.3887 41.0984 26.5066 41.573 26.7184 42.0079C27.0582 42.3141 27.4484 42.5594 27.8719 42.7331C27.6646 42.7148 27.4562 42.7148 27.249 42.7331H26.9606C26.7179 42.7927 26.4821 42.8776 26.257 42.9863C25.9811 43.1265 25.7376 43.3225 25.5419 43.5619C25.1545 44.0784 24.9589 44.7131 24.9882 45.3576V47.6943H26.5569V45.4727C26.5584 45.3023 26.5777 45.1326 26.6146 44.9662C26.6563 44.8079 26.7354 44.6618 26.8453 44.5403C26.9646 44.4009 27.1203 44.2973 27.2951 44.241C27.5257 44.1653 27.7677 44.1302 28.0103 44.1374H29.8327C30.3097 44.1414 30.7844 44.0715 31.2399 43.9302C31.6352 43.8015 32.0002 43.5939 32.3126 43.3202C32.6199 43.03 32.86 42.6765 33.0163 42.2842C33.1865 41.7563 33.2684 41.2041 33.2585 40.6497C33.2611 40.1629 33.1629 39.6809 32.9701 39.2338ZM31.1361 42.2612C30.9683 42.446 30.7608 42.5906 30.5291 42.6843C30.2974 42.778 30.0476 42.8183 29.7981 42.8022C29.5471 42.8175 29.2957 42.777 29.0623 42.6834C28.8289 42.5898 28.6192 42.4456 28.4486 42.2612C28.1292 41.7856 27.9677 41.2218 27.9872 40.6497C27.9681 40.1416 28.1317 39.6435 28.4486 39.2453C28.8116 38.8978 29.2951 38.7038 29.7981 38.7038C30.3011 38.7038 30.7847 38.8978 31.1477 39.2453C31.4613 39.6446 31.6209 40.1429 31.5975 40.6497C31.6226 41.2225 31.4607 41.788 31.1361 42.2612Z" fill="#005E85"/>
<path d="M9.69347 52.7705V61.7374H8.13631V55.441C7.97292 55.8775 7.7842 56.3041 7.57112 56.7187L5.66792 60.4367H4.30685L2.43826 56.7187C2.20794 56.2981 2.00378 55.8637 1.82694 55.418V61.7374H0.304382V52.7705H2.01149L4.05309 56.7187C4.4169 57.4116 4.73665 58.1267 5.01046 58.8597C5.27222 58.1219 5.59235 57.4059 5.96782 56.7187L8.00943 52.7705H9.69347Z" fill="#005E85"/>
<path d="M10.9738 55.6252L12.4733 55.4756V61.7375H10.9738V55.6252Z" fill="#005E85"/>
<path d="M19.3017 57.3288V61.7374H17.8022V57.8123C17.8022 56.9144 17.5485 56.6612 16.8218 56.6612C16.273 56.6807 15.7361 56.8264 15.2531 57.0871V61.7374H13.7536V55.6252L15.2531 55.4756V56.0741C15.8989 55.6638 16.6446 55.4369 17.41 55.418C17.6682 55.3855 17.9305 55.4128 18.1764 55.4977C18.4224 55.5826 18.6454 55.7228 18.8283 55.9076C19.0112 56.0924 19.1491 56.3166 19.2312 56.5631C19.3132 56.8095 19.3374 57.0715 19.3017 57.3288Z" fill="#005E85"/>
<path d="M20.582 55.6252L22.0815 55.4756V61.7375H20.582V55.6252Z" fill="#005E85"/>
<path d="M23.3734 61.0928L24.0193 60.0799C24.6209 60.5344 25.3526 60.7845 26.1071 60.7936C26.8453 60.7936 27.2605 60.5403 27.2605 60.0914C27.2605 59.6425 27.0299 59.4698 25.9917 59.1936L25.5765 59.09C24.2846 58.7446 23.6964 58.2151 23.6964 57.2598C23.6964 56.3044 24.6999 55.418 26.0956 55.418C26.96 55.414 27.8093 55.6448 28.5524 56.0856L27.9757 57.0756C27.4185 56.7401 26.7809 56.5611 26.1302 56.5576C25.5419 56.5576 25.2305 56.7993 25.2305 57.1677C25.2305 57.536 25.4381 57.6511 26.1994 57.8353L26.6377 57.9504C28.1487 58.3533 28.7716 58.9633 28.7716 59.9533C28.7716 60.9432 27.918 61.9216 26.1994 61.9216C25.1913 61.9661 24.1971 61.6745 23.3734 61.0928Z" fill="#005E85"/>
<path d="M34.1697 61.5072C33.6551 61.7811 33.0804 61.9235 32.4972 61.9216C32.2365 61.9423 31.9744 61.9049 31.7299 61.8121C31.4855 61.7193 31.2647 61.5734 31.0837 61.385C30.9027 61.1967 30.7659 60.9705 30.6832 60.7229C30.6005 60.4752 30.5739 60.2124 30.6055 59.9533V56.7878H29.4521V55.6367H30.6055V54.2554L32.0935 54.0252V55.6367H34.0082L33.8583 56.7878H32.0935V59.7231C32.0935 60.4137 32.3588 60.7015 32.8317 60.7015C33.1507 60.6897 33.4642 60.6153 33.7545 60.4828L34.1697 61.5072Z" fill="#005E85"/>
<path d="M39.5217 55.5446L39.2679 57.0641C38.9806 56.9552 38.6755 56.9005 38.3682 56.9029C38.0702 56.9017 37.7772 56.9801 37.5196 57.1298C37.2621 57.2796 37.0493 57.4953 36.9034 57.7547V61.7374H35.4039V55.6137L36.9034 55.4756V56.3504C37.0965 56.0633 37.3574 55.8281 37.6632 55.6655C37.969 55.5029 38.3101 55.4179 38.6566 55.418C38.9498 55.4148 39.2417 55.4575 39.5217 55.5446Z" fill="#005E85"/>
<path d="M46.1656 55.6137V55.7518L44.0432 61.9446C43.3973 63.8094 42.6245 64.5576 41.2173 64.5576C40.7764 64.5572 40.3391 64.4793 39.9254 64.3273L40.3061 63.2453C40.5602 63.3229 40.8246 63.3617 41.0904 63.3604C41.6671 63.3604 42.14 63.2108 42.6014 61.9906L42.6706 61.795H42.2669L39.96 55.7518V55.6712H41.5402L42.7975 59.205C42.9475 59.6309 43.0513 59.9993 43.1435 60.3561C43.2358 60.0108 43.3512 59.6079 43.455 59.205L44.6084 55.5676L46.1656 55.6137Z" fill="#005E85"/>
<path d="M22.093 52.7705V54.6583L20.5244 54.0367V52.7705H22.093Z" fill="#005E85"/>
<path d="M12.5079 52.7705V54.6583L10.9392 54.0367V52.7705H12.5079Z" fill="#005E85"/>
<path d="M48.9684 58.7676C48.9228 58.342 48.9702 57.9115 49.1076 57.5059C49.2449 57.1003 49.4688 56.7293 49.7638 56.4185C50.0588 56.1076 50.4179 55.8644 50.8163 55.7056C51.2146 55.5468 51.6428 55.4761 52.0712 55.4986C54.0782 55.4986 55.1048 56.8684 55.1048 58.8022C55.1048 59.6142 54.7815 60.393 54.2061 60.9672C53.6307 61.5414 52.8503 61.864 52.0366 61.864C51.2229 61.864 50.4425 61.5414 49.8671 60.9672C49.2917 60.393 48.9684 59.6142 48.9684 58.8022V58.7676ZM53.7091 58.7676C53.7091 57.5245 53.1785 56.6727 52.0712 56.6727C50.9639 56.6727 50.3526 57.513 50.3526 58.7216C50.3526 59.9302 50.8832 60.7014 52.002 60.7014C53.1209 60.7014 53.7091 60.0108 53.7091 58.8022V58.7676Z" fill="#005E85"/>
<path d="M58.8997 55.2108V56.2698H60.6644L60.5145 57.4209H58.8997V61.749H57.4002V57.4439H56.3736V56.2929H57.4002V55.2569C57.3687 54.9399 57.4056 54.6198 57.5083 54.3182C57.611 54.0166 57.7772 53.7404 57.9957 53.5082C58.2142 53.2759 58.4799 53.0931 58.7751 52.9718C59.0703 52.8505 59.3881 52.7937 59.7071 52.8051C60.2117 52.798 60.7129 52.8879 61.1835 53.0698L60.8028 54.2209C60.4968 54.0899 60.167 54.0233 59.8339 54.0252C59.2342 54.0252 58.8997 54.4741 58.8997 55.2108Z" fill="#005E85"/>
<path d="M73.9868 52.8051V61.772H72.4412V55.4756C72.2704 55.907 72.0779 56.3296 71.8645 56.7417L69.9728 60.4712H68.6117L66.7316 56.7417C66.4994 56.3237 66.2989 55.8889 66.1318 55.441V61.772H64.5977V52.8051H66.3048L68.358 56.7417C68.7289 57.4352 69.0489 58.1546 69.3153 58.8943C69.5796 58.1537 69.8997 57.4342 70.2727 56.7417L72.3258 52.8051H73.9868Z" fill="#005E85"/>
<path d="M80.8959 58.9979H76.7666C76.8358 60.2986 77.597 60.7706 78.4391 60.7706C79.0871 60.7646 79.7197 60.5728 80.2615 60.218L80.7921 61.1849C80.0703 61.6829 79.2128 61.9481 78.3353 61.9447C77.9138 61.9847 77.4887 61.9293 77.0916 61.7826C76.6945 61.636 76.3358 61.4018 76.042 61.0975C75.7482 60.7933 75.527 60.4268 75.3948 60.0254C75.2626 59.624 75.2229 59.198 75.2786 58.7792C75.2786 56.8569 76.3167 55.4411 78.2891 55.4411C78.6415 55.414 78.9955 55.4627 79.3274 55.5839C79.6592 55.7052 79.9611 55.8961 80.2126 56.1439C80.4641 56.3916 80.6594 56.6903 80.7852 57.0199C80.9111 57.3494 80.9646 57.7021 80.9421 58.054C80.9421 58.3072 80.9305 58.6641 80.8959 58.9979ZM76.8358 57.9619H79.5002C79.5002 56.972 78.9927 56.5691 78.3468 56.5691C77.7009 56.5691 76.9857 57.0756 76.8358 57.9619Z" fill="#005E85"/>
<path d="M88.0358 52.782V61.772H86.7209L86.6286 61.3115C86.0612 61.7037 85.3922 61.9235 84.7023 61.9446C83.0183 61.9446 82.1302 60.7936 82.1302 58.8482C82.0763 58.4044 82.1197 57.9542 82.2575 57.5289C82.3952 57.1035 82.6239 56.713 82.9278 56.3846C83.2317 56.0561 83.6035 55.7975 84.0174 55.6267C84.4314 55.4558 84.8776 55.3767 85.3252 55.395C85.7357 55.3973 86.1437 55.4593 86.5363 55.5792V52.9432L88.0358 52.782ZM85.0945 60.759C85.6036 60.7631 86.1034 60.6234 86.5363 60.3561V56.7302C86.2029 56.6145 85.8512 56.56 85.4982 56.5691C84.4717 56.5691 83.6988 57.2828 83.6988 58.8713C83.6988 60.172 84.2064 60.759 85.0945 60.759Z" fill="#005E85"/>
<path d="M89.3161 55.6482L90.8156 55.4986V61.772H89.3161V55.6482Z" fill="#005E85"/>
<path d="M97.5287 57.4784V61.7719H96.2253L96.1099 61.254C95.4921 61.7167 94.7369 61.9598 93.9645 61.9446C93.729 61.9724 93.4902 61.9498 93.2641 61.8784C93.038 61.8071 92.8297 61.6886 92.6529 61.5307C92.4762 61.3729 92.3352 61.1793 92.2391 60.9629C92.1431 60.7465 92.0943 60.5122 92.0959 60.2755C92.0959 58.7101 93.9068 58.0424 96.0292 57.9734V57.7432C96.0292 56.9719 95.7985 56.5921 95.0372 56.5921C94.2988 56.621 93.5851 56.8651 92.9841 57.2942L92.3728 56.3388C93.2082 55.7249 94.2188 55.3941 95.2564 55.395C96.7213 55.441 97.5287 56.0281 97.5287 57.4784ZM94.449 60.782C95.0086 60.7882 95.5592 60.6408 96.0407 60.3561V58.9863C94.5989 59.0554 93.7338 59.4237 93.7338 60.1374C93.6646 60.5518 93.9414 60.782 94.449 60.782Z" fill="#005E85"/>
<path d="M90.8502 52.8051V54.6813L89.2815 54.0597V52.8051H90.8502Z" fill="#005E85"/>
<path d="M151.729 16.6151C151.253 14.9837 150.383 13.4941 149.194 12.2777C148.005 11.0612 146.535 10.1552 144.912 9.63958C146.651 9.08568 148.507 9.0062 150.287 9.40936C150.334 9.42136 150.384 9.41761 150.428 9.39869C150.472 9.37978 150.509 9.34676 150.533 9.30477C150.557 9.26277 150.566 9.21415 150.559 9.16646C150.552 9.11876 150.53 9.07467 150.495 9.04102C150.043 8.61363 149.553 8.22834 149.03 7.88994C147.341 6.77144 145.36 6.1712 143.332 6.16332H143.113C144.14 5.33428 145.314 4.70558 146.573 4.31008C146.617 4.29544 146.655 4.26757 146.681 4.2304C146.708 4.19323 146.722 4.14864 146.722 4.10289C146.722 4.05714 146.708 4.01254 146.681 3.97538C146.655 3.93821 146.617 3.91034 146.573 3.89569C144.626 3.47984 142.6 3.63168 140.737 4.3331C141.055 3.30878 141.684 2.40803 142.536 1.75469C142.574 1.72598 142.601 1.68601 142.613 1.64073C142.626 1.59545 142.624 1.54726 142.607 1.50332C142.59 1.45937 142.56 1.42202 142.52 1.3968C142.48 1.37158 142.433 1.35984 142.386 1.36332C141.591 1.41221 140.817 1.63814 140.12 2.02455C139.423 2.41095 138.822 2.94803 138.361 3.59641C138.307 2.49086 137.903 1.43083 137.207 0.569074C137.187 0.544828 137.161 0.525346 137.132 0.511984C137.103 0.498621 137.072 0.491699 137.04 0.491699C137.008 0.491699 136.977 0.498621 136.948 0.511984C136.919 0.525346 136.893 0.544828 136.873 0.569074C136.181 1.43319 135.778 2.49184 135.719 3.59641C135.254 2.94724 134.649 2.41059 133.948 2.02608C133.248 1.64157 132.469 1.41901 131.671 1.37483C131.624 1.37135 131.577 1.38309 131.537 1.40831C131.497 1.43353 131.467 1.47089 131.45 1.51483C131.433 1.55877 131.431 1.60696 131.444 1.65224C131.456 1.69753 131.483 1.73749 131.521 1.7662C132.373 2.41955 133.002 3.32029 133.32 4.34461C131.453 3.65854 129.427 3.52269 127.484 3.95325C127.44 3.96789 127.403 3.99576 127.376 4.03293C127.349 4.0701 127.335 4.11469 127.335 4.16044C127.335 4.20619 127.349 4.25079 127.376 4.28795C127.403 4.32512 127.44 4.35299 127.484 4.36764C128.72 4.76801 129.871 5.39666 130.875 6.22087H130.644C128.623 6.22416 126.647 6.81625 124.958 7.92447C124.435 8.26287 123.945 8.64816 123.493 9.07555C123.458 9.1092 123.436 9.1533 123.429 9.20099C123.422 9.24868 123.431 9.2973 123.455 9.3393C123.479 9.38129 123.515 9.41431 123.56 9.43323C123.604 9.45214 123.654 9.45589 123.7 9.4439C124.458 9.2737 125.231 9.18876 126.007 9.19066C127.06 9.19132 128.107 9.35439 129.11 9.67411C127.49 10.1914 126.022 11.0981 124.835 12.3144C123.649 13.5308 122.78 15.0195 122.305 16.6497C122.288 16.6972 122.289 16.749 122.306 16.7963C122.324 16.8435 122.357 16.8834 122.4 16.909C122.443 16.9347 122.494 16.9447 122.544 16.9373C122.594 16.9299 122.64 16.9055 122.674 16.8684C124.376 15.0462 126.693 13.915 129.179 13.6914C127.667 14.6859 126.444 16.0609 125.634 17.6777C124.824 19.2944 124.455 21.0958 124.566 22.9C124.566 22.9518 124.584 23.0018 124.618 23.0412C124.652 23.0805 124.698 23.1067 124.75 23.115C124.801 23.1232 124.853 23.1131 124.898 23.0864C124.942 23.0597 124.976 23.0181 124.992 22.9691C125.529 21.6417 126.34 20.4426 127.374 19.4506C128.408 18.4587 129.64 17.6963 130.99 17.2137C129.321 19.0334 128.377 21.4002 128.337 23.8669C128.333 25.0432 128.532 26.2114 128.926 27.3202C128.937 27.3682 128.964 27.411 129.003 27.4417C129.042 27.4723 129.09 27.489 129.139 27.489C129.188 27.489 129.236 27.4723 129.275 27.4417C129.314 27.411 129.341 27.3682 129.352 27.3202C129.528 25.7473 130.082 24.2399 130.965 22.9255C131.848 21.6111 133.036 20.5284 134.428 19.7691L134.785 19.5734C134.794 19.5636 134.804 19.5557 134.816 19.5504C134.828 19.545 134.841 19.5422 134.854 19.5422C134.867 19.5422 134.88 19.545 134.892 19.5504C134.904 19.5557 134.915 19.5636 134.924 19.5734C135.306 21.5522 135.461 23.5682 135.385 25.582C135.385 30.7043 134.97 40.6151 134.924 41.0295L136.988 42.5374H137.057L139.111 41.0295C139.111 40.6036 138.649 30.6698 138.649 25.582C138.573 23.5682 138.728 21.5522 139.111 19.5734C139.118 19.5638 139.128 19.5561 139.139 19.5507C139.15 19.5454 139.162 19.5427 139.174 19.5427C139.186 19.5427 139.198 19.5454 139.209 19.5507C139.22 19.5561 139.23 19.5638 139.237 19.5734L139.607 19.7691C140.998 20.5284 142.186 21.6111 143.069 22.9255C143.952 24.2399 144.506 25.7473 144.682 27.3202C144.693 27.3682 144.72 27.411 144.759 27.4417C144.798 27.4723 144.846 27.489 144.895 27.489C144.945 27.489 144.993 27.4723 145.031 27.4417C145.07 27.411 145.097 27.3682 145.108 27.3202C145.502 26.2114 145.701 25.0432 145.697 23.8669C145.7 21.357 144.767 18.9358 143.078 17.0755C144.429 17.5582 145.661 18.3206 146.695 19.3125C147.728 20.3045 148.54 21.5036 149.076 22.8309C149.093 22.88 149.126 22.9216 149.171 22.9483C149.215 22.975 149.268 22.9851 149.319 22.9768C149.37 22.9685 149.417 22.9424 149.451 22.903C149.484 22.8637 149.503 22.8137 149.503 22.7619C149.613 20.9576 149.245 19.1563 148.435 17.5396C147.625 15.9228 146.402 14.5478 144.889 13.5532C147.394 13.8014 149.717 14.9708 151.406 16.8338C151.442 16.8532 151.482 16.8625 151.522 16.8606C151.562 16.8587 151.601 16.8457 151.635 16.8231C151.668 16.8005 151.695 16.7691 151.711 16.7324C151.728 16.6957 151.734 16.6551 151.729 16.6151Z" fill="#00AF7C"/>
<path d="M143.967 57.1216C143.852 57.2346 143.728 57.3385 143.598 57.4324C143.493 57.5152 143.376 57.5812 143.251 57.6281C143.149 57.6521 143.042 57.6521 142.94 57.6281C142.841 57.6162 142.746 57.5807 142.663 57.5245C142.559 57.432 142.466 57.3277 142.386 57.2137C142.257 57.0499 142.096 56.913 141.913 56.8108C141.707 56.6972 141.479 56.6268 141.244 56.6036C141.027 56.5638 140.804 56.5638 140.587 56.6036C140.386 56.6645 140.198 56.7621 140.033 56.8914C139.739 57.1219 139.535 57.4476 139.457 57.8123C139.377 58.1406 139.397 58.4852 139.514 58.8022C139.705 59.2369 140.035 59.596 140.453 59.8231C140.87 60.0502 141.352 60.1325 141.821 60.0569C142.901 59.7838 143.858 59.1601 144.543 58.2842C144.696 58.0203 144.76 57.7143 144.725 57.4115C144.689 57.1087 144.557 56.8254 144.347 56.6036C144.232 56.9029 144.105 56.995 143.967 57.1216Z" fill="#00AF7C"/>
<path d="M134.37 57.4554C134.265 57.2854 134.132 57.1338 133.978 57.0065C133.811 56.8793 133.624 56.782 133.424 56.7187C133.211 56.6786 132.992 56.6786 132.778 56.7187C132.543 56.7385 132.314 56.8092 132.109 56.9259C131.927 57.0281 131.766 57.165 131.636 57.3288C131.556 57.4428 131.463 57.5471 131.359 57.6396C131.273 57.6959 131.174 57.7314 131.071 57.7432C130.972 57.7663 130.87 57.7663 130.771 57.7432C130.646 57.6964 130.53 57.6303 130.425 57.5475C130.294 57.4537 130.171 57.3497 130.056 57.2367C129.918 57.1101 129.791 56.972 129.664 56.8338C129.483 57.0484 129.37 57.3117 129.339 57.5904C129.308 57.8691 129.361 58.1506 129.491 58.3993C130.176 59.2753 131.134 59.8989 132.213 60.172C132.682 60.2456 133.163 60.1625 133.58 59.9356C133.997 59.7087 134.327 59.3508 134.52 58.9173C134.605 58.6789 134.638 58.4248 134.616 58.1726C134.594 57.9203 134.518 57.6757 134.393 57.4554H134.37Z" fill="#00AF7C"/>
<path d="M168.143 38.877C156.389 34.2727 145.074 39.5101 137 45.3116C128.926 39.5562 117.61 34.2727 105.857 38.877C105.801 38.902 105.755 38.9456 105.727 39.0004C105.7 39.0552 105.692 39.1178 105.706 39.1775C105.719 39.2373 105.753 39.2905 105.802 39.328C105.85 39.3656 105.911 39.3852 105.972 39.3835C116.284 38.5662 124.427 40.7993 134.116 47.4411C131.209 49.7432 128.856 52.0454 127.195 53.5303C126.953 53.1849 126.538 52.6439 126.319 52.3792C125.634 51.5032 124.676 50.8796 123.597 50.6065C123.127 50.5309 122.646 50.6131 122.228 50.8403C121.811 51.0674 121.481 51.4265 121.29 51.8612C121.175 52.1784 121.151 52.5211 121.221 52.8511C121.248 53.0611 121.315 53.2641 121.417 53.4497C121.522 53.6197 121.654 53.7713 121.809 53.8986C121.974 54.0279 122.162 54.1255 122.362 54.1864C122.58 54.2262 122.803 54.2262 123.02 54.1864C123.255 54.1632 123.482 54.0928 123.689 53.9792C123.871 53.877 124.032 53.7401 124.162 53.5763C124.242 53.4623 124.335 53.358 124.439 53.2655C124.528 53.2128 124.629 53.185 124.733 53.185C124.836 53.185 124.938 53.2128 125.027 53.2655C125.148 53.3154 125.264 53.3771 125.373 53.4497C125.844 53.8713 126.273 54.3378 126.653 54.8425L127.126 55.4295L127.334 55.7058C127.334 55.7058 125.673 55.0957 125.419 55.326C124.266 56.477 123.239 57.3864 122.351 58.1921C122.091 58.4268 121.818 58.6459 121.532 58.8483C121.3 59.0077 121.058 59.1501 120.805 59.2742C120.594 59.3693 120.374 59.4426 120.148 59.4929C119.955 59.5385 119.758 59.5617 119.56 59.5619C119.381 59.5559 119.203 59.5328 119.029 59.4929C118.86 59.4552 118.694 59.4052 118.533 59.3432L118.072 59.136C117.924 59.0479 117.77 58.971 117.61 58.9058C117.454 58.8494 117.291 58.8146 117.126 58.8022H116.803C116.491 58.8327 116.193 58.9438 115.938 59.1245C115.674 59.3111 115.467 59.5658 115.338 59.8612C115.215 60.1437 115.163 60.452 115.188 60.759C115.223 61.0744 115.338 61.3756 115.523 61.6339C115.656 61.8204 115.815 61.987 115.995 62.1288C116.196 62.2824 116.412 62.4137 116.641 62.5202C116.892 62.6431 117.155 62.7395 117.426 62.808C117.717 62.8848 118.014 62.9386 118.314 62.9691C118.633 62.9923 118.953 62.9923 119.271 62.9691C119.413 62.9805 119.556 62.9805 119.698 62.9691C121.786 62.7734 123.827 61.0008 124.877 60.0108C128.719 56.3501 132.75 52.8922 136.954 49.6511C141.157 52.8922 145.188 56.3501 149.03 60.0108C150.08 61.0008 152.121 62.7734 154.198 62.9691C154.344 62.9805 154.49 62.9805 154.636 62.9691C154.955 62.9923 155.275 62.9923 155.593 62.9691C155.893 62.9386 156.19 62.8848 156.482 62.808C156.752 62.7395 157.015 62.6431 157.266 62.5202C157.493 62.4162 157.706 62.2847 157.9 62.1288C158.087 61.9904 158.25 61.8233 158.385 61.6339C158.565 61.3731 158.679 61.0731 158.719 60.759C158.744 60.452 158.692 60.1437 158.569 59.8612C158.44 59.5658 158.233 59.3111 157.969 59.1245C157.714 58.9438 157.416 58.8327 157.104 58.8022H156.793C156.628 58.8146 156.465 58.8494 156.309 58.9058C156.149 58.971 155.995 59.0479 155.847 59.136L155.374 59.3432C155.217 59.4052 155.055 59.4552 154.89 59.4929C154.716 59.5328 154.538 59.5559 154.359 59.5619C154.161 59.563 153.963 59.5398 153.771 59.4929C153.544 59.4443 153.324 59.371 153.113 59.2742C152.861 59.1501 152.618 59.0077 152.387 58.8483C152.101 58.6459 151.828 58.4268 151.568 58.1921C150.68 57.3864 149.711 56.477 148.5 55.326C148.246 55.0957 146.585 55.7058 146.585 55.7058L146.793 55.4295L147.265 54.8425C147.657 54.3327 148.102 53.8658 148.592 53.4497C148.701 53.3771 148.817 53.3154 148.938 53.2655C149.034 53.2171 149.142 53.1971 149.249 53.208C149.349 53.2198 149.444 53.2554 149.526 53.3116C149.63 53.404 149.723 53.5083 149.803 53.6224C149.933 53.7862 150.093 53.923 150.276 54.0252C150.483 54.1388 150.71 54.2093 150.945 54.2324C151.162 54.2722 151.385 54.2722 151.602 54.2324C151.803 54.1715 151.991 54.0739 152.156 53.9447C152.319 53.8045 152.455 53.637 152.56 53.4497C152.645 53.3026 152.707 53.1435 152.744 52.9777C152.843 52.655 152.843 52.3105 152.744 51.9878C152.552 51.5544 152.222 51.1964 151.804 50.9695C151.387 50.7427 150.907 50.6596 150.437 50.7331C149.358 51.0062 148.4 51.6299 147.715 52.5058C147.496 52.759 147.081 53.3001 146.827 53.6569C145.212 52.1144 142.871 49.8929 139.906 47.5677C149.595 40.8684 157.75 38.6353 168.062 39.5101C168.146 39.5208 168.231 39.4977 168.298 39.4459C168.365 39.3941 168.409 39.3178 168.42 39.2339C168.43 39.1499 168.407 39.0651 168.355 38.9982C168.303 38.9313 168.227 38.8877 168.143 38.877Z" fill="#00AF7C"/>
</g>
<defs>
<clipPath id="clip0_8_11022">
<rect width="168" height="64" fill="white" transform="translate(0.304382 0.5)"/>
</clipPath>
</defs>
</svg>
