<svg width="81" height="73" viewBox="0 0 81 73" fill="none" xmlns="http://www.w3.org/2000/svg">
<g clip-path="url(#clip0_8_10804)">
<path d="M26.1715 70.0183C25.8909 70.1914 25.4911 70.0991 25.3491 69.7677C25.2717 69.5879 25.3208 69.6708 25.3067 65.9394H26.4555V65.5097H25.3067V63.7578H25.0153C24.8033 64.8395 24.524 65.6868 23.4028 65.6868V65.9394H24.2898C24.3087 69.6081 24.2454 69.6566 24.3497 70.0399C24.4729 70.4851 24.7851 70.7471 25.2919 70.7471C25.9319 70.7471 26.3875 70.4702 26.6709 69.9826L26.4178 69.8102C26.3478 69.8944 26.2651 69.9637 26.1715 70.0183ZM17.0296 63.5935C17.4233 64.333 18.6165 63.6157 17.9771 63.0345C17.5007 62.6303 16.7886 63.1059 17.0296 63.5935ZM19.9308 66.4264C19.9308 65.7124 21.4276 65.2221 22.3301 66.689L22.7022 66.3543C22.3577 65.9017 21.9586 65.5312 21.3993 65.441C20.0459 65.2214 19.1724 65.9636 19.1724 66.8372C19.1724 67.8684 20.1119 68.2227 21.0467 68.6557C22.6639 69.3993 21.7358 70.6824 20.548 70.3389C20.0937 70.2042 19.7599 69.8122 19.4826 69.4202L19.0667 69.7967C19.3245 70.1348 19.63 70.409 20.019 70.5719C20.7021 70.8676 21.8448 70.8016 22.4303 70.3005C22.9802 69.8324 23.1747 68.8416 22.4485 68.2153C21.6497 67.5054 19.9308 67.3498 19.9308 66.4264ZM29.7619 65.4053C29.1683 65.4053 28.632 65.9886 28.2968 66.4789V65.5097H27.2853V70.6366H28.2968V67.0857C28.4119 66.8985 28.5626 66.6742 28.7141 66.5146C28.9893 66.231 29.1811 66.2337 29.5069 66.4048C29.844 66.59 30.2249 66.5375 30.3992 66.3947C30.6119 66.2203 30.626 65.8235 30.3225 65.5892C30.1597 65.4619 29.9638 65.4053 29.7619 65.4053ZM9.39514 63.0351C9.15488 63.2507 9.1744 63.5612 9.39514 63.7565C9.9369 64.23 10.7633 63.5201 10.2162 63.0351C10.0035 62.8492 9.64549 62.8223 9.39514 63.0351ZM12.5744 66.4459V65.5097H11.5595V70.6366H12.5744V66.8372C13.6572 65.7912 14.8316 65.8316 14.8316 67.1289V70.6366H15.8518V66.9564C15.8518 66.5267 15.7038 66.1374 15.4729 65.8586C14.7266 64.956 13.4089 65.511 12.5744 66.4459ZM4.1707 69.0909H4.1182L1.53257 63.9875H0.392517V70.6366H0.883802V65.2288H0.960523L3.7171 70.6366H3.94592L6.66952 65.1904H6.70721V70.6366H7.82841V63.9875H6.70721M17.0686 65.6976V70.6366H18.0794V65.4053H17.7833M9.30765 65.6976V70.6366H10.3185V65.4053H10.023M70.4457 63.1752V70.6366H71.4612V62.8856H71.1705M74.9319 70.0183C74.6452 70.1914 74.2467 70.0964 74.1088 69.7677C74.0307 69.5899 74.0798 69.6842 74.0657 65.9394H75.2159V65.5097H74.0657V63.7578H73.775C73.5637 64.851 73.279 65.6868 72.1618 65.6868V65.9394H73.0502C73.069 69.6142 73.0064 69.6519 73.1087 70.0399C73.1854 70.3167 73.3382 70.5416 73.6054 70.6609C73.919 70.8043 74.5038 70.774 74.8861 70.541C75.1122 70.4056 75.2933 70.219 75.4305 69.9826L75.1768 69.8102C75.1068 69.8944 75.0254 69.9637 74.9319 70.0183ZM68.632 65.7771C68.1016 65.3433 67.045 65.3433 66.4239 65.4982C64.7522 65.9098 64.9756 67.2043 65.6843 67.2043C66.0726 67.2043 66.1903 66.9073 66.1903 66.522C66.1903 66.3294 66.2253 66.1354 66.3505 65.9879C66.5854 65.7064 67.1285 65.7003 67.4374 65.8087C67.714 65.9064 67.8695 66.1314 67.9496 66.4102C68.0391 66.7342 68.0195 67.3882 68.0175 67.3201C67.2759 67.5054 66.6217 67.6798 65.9736 68.0253C63.7104 69.241 65.5779 71.9284 67.6622 70.2163C67.7773 70.1227 67.8964 70.0277 68.0175 69.9355V70.6366H69.0385C69.0082 66.648 69.1986 66.2432 68.632 65.7771ZM68.0175 69.5623C67.7322 69.7765 67.4677 69.9806 67.1285 70.0809C66.2819 70.3342 65.7509 69.4249 66.0611 68.8517C66.3808 68.2584 67.3802 67.8569 68.0175 67.6488V69.5623ZM80.233 66.3529C79.7188 64.8873 78.099 65.2793 77.0605 66.4459V62.8856H76.7705L76.0457 63.1752V70.6366H77.0605V66.8372C78.1265 65.8013 79.3177 65.8215 79.3177 67.1289V70.6366H80.334C80.3037 66.9288 80.4073 66.8433 80.233 66.3529ZM40.0392 66.2048C38.4193 67.8623 39.4571 70.7471 41.9828 70.7471C44.4143 70.7471 45.5705 67.7027 43.919 66.1374C42.9102 65.1871 41.1039 65.1096 40.0392 66.2048ZM43.4425 69.1905C43.2662 69.8061 42.8126 70.3706 42.1733 70.3706C40.338 70.3706 39.7895 66.8338 41.2385 65.9347C41.7446 65.6208 42.6713 65.7798 43.137 66.5651C43.5509 67.2656 43.6384 68.5082 43.4425 69.1905ZM33.8302 69.2148L31.8516 65.5151H30.6927L33.3153 70.3975C32.9102 71.3034 32.7615 71.75 32.433 71.9924C32.2681 72.1143 32.0292 72.0955 31.9182 72.0483C31.756 71.981 31.756 71.9513 31.5857 71.8853C31.2001 71.7412 30.725 71.9803 30.725 72.4087C30.725 73.2088 32.5266 73.4392 33.3732 71.5351L35.9871 65.5151H35.4433L33.8302 69.2148ZM49.2424 63.1402C48.6548 62.761 47.5458 62.7267 46.8425 63.4743C46.1513 64.2071 46.3041 65.0645 46.2846 65.5097H45.2125V65.9394H46.2846V70.6366H47.3055V65.9394H48.675V65.5097H47.3055C47.3169 64.5391 47.2173 64.0165 47.504 63.5814C47.6137 63.4096 47.7961 63.2601 48.0115 63.2601C48.813 63.2601 48.3392 64.2401 49.0896 64.2401C49.6919 64.2401 49.8185 63.508 49.2424 63.1402ZM63.775 69.1791C63.5468 69.4748 63.2117 69.7193 62.7978 69.8607C61.3852 70.3618 60.3521 69.167 60.3521 67.5673H64.1727C64.1727 65.4592 61.4148 64.6577 60.0648 66.2155C58.5559 67.9762 59.591 70.7471 61.8832 70.7471C62.9479 70.7471 64.0273 69.8769 64.3107 68.8416L64.0199 68.7137C63.9728 68.872 63.8907 69.0275 63.775 69.1791ZM60.4874 66.6102C61.1012 65.179 62.8987 65.7737 62.8987 67.1571L60.3568 67.1518C60.3723 66.9571 60.4154 66.7773 60.4874 66.6102ZM57.0646 67.0184H53.7258V63.9875H52.61V70.6366H53.7258V67.4488H57.0646V70.6366H58.1817V63.9875H57.0646" fill="#9B945F"/>
<path fill-rule="evenodd" clip-rule="evenodd" d="M59.2673 19.1613C50.1489 20.4767 30.2848 37.6322 30.2848 37.6322H38.4005C43.5603 31.8277 51.2755 25.6434 55.3632 23.1722C58.6353 21.1954 60.9726 21.0984 60.9726 21.0984C66.0786 20.6249 70.4416 24.8412 69.875 30.2045C70.5439 23.8713 67.393 17.9907 59.2673 19.1613Z" fill="#9B945F"/>
<path fill-rule="evenodd" clip-rule="evenodd" d="M21.4134 19.1613C13.2877 17.9907 10.1354 23.8713 10.8064 30.2045C10.2344 24.8318 14.627 20.6269 19.7081 21.0984C19.7081 21.0984 22.0454 21.1954 25.3175 23.1722C29.095 25.4561 36.8983 31.5778 42.2803 37.6322H50.3952C50.3952 37.6322 30.5318 20.4767 21.4134 19.1613Z" fill="#9B945F"/>
<path d="M39.9409 56.6311H36.333C36.3418 56.5638 36.5329 55.6 36.5329 54.7405C36.5329 50.4468 33.3221 48.6754 30.1825 50.8967C27.9321 52.4849 27.465 54.0219 26.0941 56.6311H26.0369V52.3589H24.9164V56.6311H21.6497V56.2041C21.6497 51.6881 18.385 50.0851 15.5907 50.0851H11.2863V51.0388C11.5999 51.0152 15.2603 51.0051 15.4447 51.0051C20.8286 51.0051 20.4342 56.5631 20.4571 56.6311H6.64732V49.4372C6.3189 49.3981 5.73676 49.3718 5.48237 49.3718C3.44387 49.3718 0.428192 50.8395 0.428192 53.9909C0.428192 56.1624 2.06155 57.4596 4.13167 57.4596H4.48768C4.55027 57.3922 5.3222 56.5638 5.25961 56.6311H4.44125C1.19271 56.6311 0.838718 52.7711 2.96134 51.1001C3.72047 50.5034 4.60748 50.2925 5.13578 50.2925H5.52611V57.4596H41.0628V44.6362H39.9409V56.6311ZM35.2051 56.4877L35.1701 56.6311H27.1682L27.22 56.4001C27.9186 53.2797 30.7203 50.859 32.6659 50.859C33.2924 50.859 35.3383 51.1533 35.3383 54.9413C35.3383 55.1783 35.3296 55.9893 35.2051 56.4877Z" fill="#008755"/>
<path d="M5.9225 47.5931C6.39306 47.5931 6.77451 47.2113 6.77451 46.7404C6.77451 46.2695 6.39306 45.8877 5.9225 45.8877C5.45195 45.8877 5.0705 46.2695 5.0705 46.7404C5.0705 47.2113 5.45195 47.5931 5.9225 47.5931Z" fill="#008755"/>
<path d="M44.6007 44.637H45.7213V57.4596H44.6007V44.637Z" fill="#008755"/>
<path d="M54.2441 47.6005C54.7146 47.6005 55.0961 47.2187 55.0961 46.7478C55.0961 46.2768 54.7146 45.8951 54.2441 45.8951C53.7735 45.8951 53.392 46.2768 53.392 46.7478C53.392 47.2187 53.7735 47.6005 54.2441 47.6005Z" fill="#008755"/>
<path d="M3.37387 47.5931C3.84443 47.5931 4.22588 47.2113 4.22588 46.7404C4.22588 46.2695 3.84443 45.8877 3.37387 45.8877C2.90332 45.8877 2.52187 46.2695 2.52187 46.7404C2.52187 47.2113 2.90332 47.5931 3.37387 47.5931Z" fill="#008755"/>
<path d="M71.3374 47.6011C71.8083 47.6011 72.1901 47.2191 72.1901 46.7478C72.1901 46.2765 71.8083 45.8944 71.3374 45.8944C70.8665 45.8944 70.4847 46.2765 70.4847 46.7478C70.4847 47.2191 70.8665 47.6011 71.3374 47.6011Z" fill="#008755"/>
<path d="M79.6139 49.6265C76.6964 49.6265 74.4123 51.6161 74.4123 54.156C74.4123 56.4433 76.4151 57.6125 78.391 57.4489C78.457 57.3808 79.2525 56.5632 79.1865 56.6312H78.4442C77.0316 56.6312 75.6062 55.8263 75.6062 54.0287C75.6062 52.4196 77.0928 50.6206 79.0835 50.6206H79.2727V57.63C79.2727 58.9724 79.0216 60.215 77.2019 60.215C77.045 60.215 76.8418 60.1935 76.6258 60.1565L76.4844 61.0132C76.7536 61.0664 77.043 61.0974 77.4939 61.0974C78.3668 61.0974 80.3925 60.8057 80.3925 58.1055V49.6918C80.0809 49.648 79.8306 49.6265 79.6139 49.6265ZM70.7781 58.1608C70.7781 59.6318 70.1873 60.2312 68.7437 60.2312C68.5916 60.2312 68.3634 60.2049 68.1871 60.1746L68.0465 61.0731C70.7788 61.4678 71.898 60.2541 71.898 58.507V50.5775H70.7781V58.1608ZM61.297 58.1608C61.297 59.6318 60.7068 60.2312 59.2626 60.2312C59.1105 60.2312 58.8843 60.2049 58.7053 60.1746L58.5647 61.0731C61.3017 61.4678 62.4155 60.2501 62.4155 58.507V50.5775H61.297V58.1608Z" fill="#008755"/>
<path d="M56.792 47.6005C57.2626 47.6005 57.644 47.2187 57.644 46.7478C57.644 46.2768 57.2626 45.8951 56.792 45.8951C56.3215 45.8951 55.94 46.2768 55.94 46.7478C55.94 47.2187 56.3215 47.6005 56.792 47.6005Z" fill="#008755"/>
<path d="M65.8451 44.6369H66.965V57.4596H65.8451V44.6369ZM51.2856 54.0825C51.2856 56.0068 52.8779 57.4596 54.9877 57.4596H57.504V49.4372C53.8463 48.9287 51.2856 51.2827 51.2856 54.0825ZM56.3835 56.6312H55.3168C51.079 56.6312 51.8738 50.2926 55.975 50.2926H56.3835V56.6312ZM20.7856 24.6681L18.3547 27.1029L15.9225 24.6681L13.1518 27.4383L15.9225 30.2085L18.3547 27.7744L20.7856 30.2085L23.5549 27.4383M46.3882 3.62764C48.9025 3.77177 51.3313 4.87232 53.098 6.81411C51.0473 2.0307 45.6479 -0.264024 40.8387 1.42182C40.5931 0.52266 40.4006 0 40.4006 0C40.4006 0 40.2048 0.52266 39.9605 1.42182C35.1351 -0.270759 29.737 2.05225 27.7026 6.81411C29.4672 4.87232 31.898 3.77177 34.411 3.62764C31.4929 5.87993 30.1132 9.51363 30.7115 13.0503C31.1914 10.1818 32.9149 7.7355 35.304 6.27933C33.4869 9.90293 34.0428 14.2789 36.8203 17.332C35.1883 13.5548 36.1002 9.13712 39.0782 6.31503C39.0102 7.04648 38.9691 7.817 38.9691 8.61042C38.9691 13.3676 40.4006 17.2215 40.4006 17.2215C40.41 17.1501 42.2695 12.1357 41.723 6.31503C44.6997 9.13712 45.6123 13.5548 43.9796 17.332C46.7207 14.3354 47.3324 9.93863 45.4952 6.27933C47.887 7.7355 49.6105 10.1818 50.089 13.0503C50.6819 9.54461 49.3285 5.89609 46.3882 3.62764Z" fill="#008755"/>
<path fill-rule="evenodd" clip-rule="evenodd" d="M49.9389 26.0165C37.5249 12.7843 30.4605 22.9849 30.4605 22.9849C30.4605 22.9849 36.5154 16.9905 48.0222 29.7162C53.1922 35.4365 57.8109 37.6713 61.5339 37.6329C64.3914 37.6032 67.0181 36.2643 68.8655 33.3694C69.1636 32.902 69.342 32.4177 69.342 32.4177C66.0154 36.3767 61.6308 38.4775 49.9389 26.0165Z" fill="#008755"/>
</g>
<defs>
<clipPath id="clip0_8_10804">
<rect width="80" height="73" fill="white" transform="translate(0.392517)"/>
</clipPath>
</defs>
</svg>
