<svg width="344" height="60" viewBox="0 0 344 60" fill="none" xmlns="http://www.w3.org/2000/svg">
<g clip-path="url(#clip0_8_11184)">
<path d="M8.97397 55.3708C8.97397 55.6064 8.86319 55.7428 8.64161 55.78C8.19846 55.8544 7.70607 55.9288 7.15212 55.9784C6.59818 56.0404 5.89653 56.0652 5.03484 56.0652C4.46859 56.0652 3.90234 55.966 3.33609 55.7552C2.76984 55.5568 2.26514 55.222 1.82199 54.7756C1.37883 54.3292 1.02185 53.734 0.738723 52.99C0.455598 52.2584 0.32019 51.3656 0.32019 50.2992V47.8191C0.32019 46.6907 0.467908 45.7607 0.751033 45.0167C1.04647 44.2727 1.41576 43.6775 1.88353 43.2311C2.339 42.7847 2.86832 42.4747 3.44688 42.3011C4.02544 42.1275 4.61631 42.0283 5.19487 42.0283C6.04424 42.0283 6.7459 42.0531 7.29984 42.1151C7.85378 42.1647 8.29694 42.2267 8.65392 42.2887C8.74009 42.3011 8.81395 42.3259 8.87549 42.3631C8.93704 42.4003 8.96166 42.4623 8.96166 42.5615V43.4915C8.96166 43.6155 8.8878 43.6775 8.72778 43.6775H8.65392C8.3831 43.6527 8.1246 43.6279 7.8784 43.6155C7.63221 43.5907 7.3737 43.5783 7.10289 43.5783C6.83207 43.5783 6.54894 43.5659 6.2412 43.5659C5.93345 43.5659 5.58878 43.5535 5.19487 43.5535C4.76403 43.5535 4.3578 43.6155 3.9762 43.7519C3.58229 43.8759 3.24992 44.1115 2.94218 44.4339C2.64674 44.7563 2.41285 45.2027 2.22821 45.7483C2.05587 46.2939 1.9697 46.9883 1.9697 47.8191V50.2992C1.9697 51.068 2.04356 51.7128 2.20359 52.2584C2.36362 52.7916 2.58519 53.238 2.85601 53.5852C3.15144 53.92 3.4715 54.1804 3.84079 54.3292C4.21008 54.478 4.604 54.5648 5.03484 54.5648C5.58878 54.5648 6.05655 54.5524 6.43816 54.5276C6.81976 54.5028 7.1152 54.478 7.32446 54.4532V49.146C7.32446 49.0468 7.34908 48.96 7.41063 48.8856C7.47218 48.8111 7.54604 48.7739 7.64452 48.7739H8.6293C8.72778 48.7739 8.81395 48.8111 8.87549 48.8856C8.94935 48.96 8.97397 49.0468 8.97397 49.146V55.3708Z" fill="#2B3A85"/>
<path d="M17.7262 49.9396C17.7262 48.8855 17.5293 48.1415 17.1354 47.6951C16.7415 47.2487 16.1383 47.0255 15.3381 47.0255C14.5503 47.0255 13.9471 47.2611 13.5286 47.7323C13.1101 48.2035 12.9008 48.9351 12.9008 49.9396V50.1008H17.7262V49.9396ZM19.3511 50.944C19.3511 51.2168 19.2403 51.3532 19.0065 51.3532H12.9131V51.6136C12.9131 52.7172 13.1224 53.4984 13.5532 53.9448C13.9717 54.4036 14.6119 54.6268 15.4489 54.6268C15.9782 54.6268 16.5445 54.6144 17.1477 54.5648C17.7509 54.5276 18.2556 54.478 18.6864 54.416H18.7726C18.8464 54.416 18.908 54.4284 18.9695 54.4656C19.0311 54.5028 19.0557 54.5648 19.0557 54.664V55.2964C19.0557 55.4204 19.0311 55.5196 18.9818 55.5816C18.9326 55.656 18.8341 55.6932 18.6864 55.718C18.1694 55.8172 17.6524 55.8916 17.1354 55.9536C16.6184 56.0032 16.0521 56.0404 15.4366 56.0404C14.9196 56.0404 14.4026 55.966 13.9102 55.8296C13.4178 55.6932 12.9747 55.4452 12.5931 55.1104C12.2115 54.7756 11.9037 54.3168 11.6698 53.7464C11.4359 53.176 11.3128 52.4568 11.3128 51.6012V49.9272C11.3128 48.5879 11.6575 47.5339 12.3469 46.7527C13.0362 45.9715 14.0333 45.5871 15.3504 45.5871C16.0152 45.5871 16.5937 45.6863 17.0984 45.8971C17.5908 46.1079 18.0094 46.3931 18.3417 46.7651C18.6741 47.1371 18.9326 47.5959 19.0926 48.1415C19.265 48.6747 19.3511 49.2699 19.3511 49.9272V50.944Z" fill="#2B3A85"/>
<path d="M29.1867 55.5568C29.1867 55.656 29.1497 55.7428 29.0759 55.8172C29.002 55.8916 28.9158 55.9288 28.8174 55.9288H27.9434C27.8449 55.9288 27.7587 55.8916 27.6849 55.8172C27.611 55.7428 27.5741 55.656 27.5741 55.5568V49.4559C27.5741 48.9847 27.5371 48.6003 27.451 48.2779C27.3771 47.9679 27.254 47.7075 27.0817 47.5215C26.9216 47.3355 26.7124 47.1991 26.4539 47.1247C26.1954 47.0503 25.8999 47.0007 25.5676 47.0007C25.1737 47.0007 24.7797 47.0751 24.3612 47.2115C23.955 47.3479 23.5365 47.5215 23.1056 47.7323V55.5568C23.1056 55.656 23.0687 55.7428 22.9948 55.8172C22.921 55.8916 22.8348 55.9288 22.7363 55.9288H21.85C21.7515 55.9288 21.6777 55.8916 21.6038 55.8172C21.5423 55.7428 21.5053 55.656 21.5053 55.5568V46.1079C21.5053 46.0087 21.5423 45.9219 21.6038 45.8475C21.6777 45.7731 21.7515 45.7359 21.85 45.7359H22.7609C22.8594 45.7359 22.9333 45.7731 23.0071 45.8475C23.081 45.9219 23.1056 46.0087 23.1056 46.1079V46.4551C23.6103 46.1699 24.0904 45.9591 24.5212 45.8103C24.9521 45.6739 25.4445 45.5995 25.9984 45.5995C27.1063 45.5995 27.9064 45.9343 28.4111 46.6039C28.9158 47.2735 29.162 48.2283 29.162 49.4559V55.5568H29.1867Z" fill="#2B3A85"/>
<path d="M37.7543 49.9396C37.7543 48.8855 37.5573 48.1415 37.1634 47.6951C36.7695 47.2487 36.1663 47.0255 35.3785 47.0255C34.5906 47.0255 33.9875 47.2611 33.5689 47.7323C33.1504 48.2035 32.9411 48.9351 32.9411 49.9396V50.1008H37.7666V49.9396H37.7543ZM39.3792 50.944C39.3792 51.2168 39.2684 51.3532 39.0345 51.3532H32.9411V51.6136C32.9411 52.7172 33.1504 53.4984 33.5812 53.9448C34.0121 54.4036 34.6399 54.6268 35.477 54.6268C36.0063 54.6268 36.5725 54.6144 37.1757 54.5648C37.7789 54.5276 38.2836 54.478 38.7144 54.416H38.8006C38.8745 54.416 38.936 54.4284 38.9976 54.4656C39.0591 54.5028 39.0837 54.5648 39.0837 54.664V55.2964C39.0837 55.4204 39.0591 55.5196 39.0099 55.5816C38.9606 55.656 38.8621 55.6932 38.7144 55.718C38.1974 55.8172 37.6681 55.8916 37.1634 55.9536C36.6464 56.0032 36.0801 56.0404 35.4646 56.0404C34.9476 56.0404 34.4306 55.966 33.9382 55.8296C33.4458 55.6932 33.0027 55.4452 32.6211 55.1104C32.2395 54.7756 31.9317 54.3168 31.6978 53.7464C31.464 53.176 31.3409 52.4568 31.3409 51.6012V49.9272C31.3409 48.5879 31.6855 47.5339 32.3749 46.7527C33.0642 45.9715 34.0613 45.5871 35.3785 45.5871C36.0432 45.5871 36.6218 45.6863 37.1265 45.8971C37.6189 46.1079 38.0374 46.3931 38.3698 46.7651C38.7021 47.1371 38.9483 47.5959 39.1207 48.1415C39.293 48.6747 39.3792 49.2699 39.3792 49.9272V50.944Z" fill="#2B3A85"/>
<path d="M46.0511 46.7032C46.0511 46.914 45.928 47.0132 45.6695 47.0132C45.2386 47.0132 44.8324 47.0752 44.4385 47.1868C44.0446 47.2984 43.6137 47.5092 43.1583 47.7944V55.5569C43.1583 55.6561 43.1213 55.7429 43.0475 55.8173C42.9736 55.8917 42.8874 55.9289 42.789 55.9289H41.9027C41.8042 55.9289 41.718 55.8917 41.6565 55.8173C41.5826 55.7429 41.558 55.6561 41.558 55.5569V46.1079C41.558 46.0087 41.5949 45.9219 41.6565 45.8475C41.718 45.7731 41.8042 45.7359 41.9027 45.7359H42.752C42.8505 45.7359 42.9244 45.7731 42.9982 45.8475C43.0721 45.9219 43.0967 46.0087 43.0967 46.1079V46.4923C43.5522 46.1699 43.9953 45.9467 44.4139 45.8103C44.8324 45.6739 45.2509 45.6119 45.6571 45.6119C45.9157 45.6119 46.0387 45.7235 46.0387 45.9467V46.7032H46.0511Z" fill="#2B3A85"/>
<path d="M52.6614 51.006H51.3196C50.778 51.006 50.3225 51.0432 49.9533 51.1052C49.584 51.1796 49.3008 51.2788 49.1039 51.4152C48.8946 51.5516 48.7469 51.7376 48.673 51.9732C48.5869 52.2088 48.5499 52.4816 48.5499 52.8164V53.0396C48.5499 53.7092 48.6977 54.1556 48.9931 54.3788C49.2885 54.602 49.6948 54.726 50.2241 54.726C50.6549 54.726 51.0488 54.664 51.4427 54.54C51.8367 54.416 52.2429 54.23 52.686 53.982V51.006H52.6614ZM54.2617 55.5568C54.2617 55.656 54.2248 55.7428 54.1509 55.8172C54.077 55.8916 53.9909 55.9288 53.8924 55.9288H53.0553C52.9568 55.9288 52.8707 55.8916 52.7968 55.8172C52.723 55.7428 52.686 55.656 52.686 55.5568V55.1476C52.2429 55.408 51.7997 55.6188 51.3443 55.7924C50.8888 55.966 50.3964 56.0528 49.8917 56.0528C49.5101 56.0528 49.1285 56.0032 48.7715 55.9164C48.4145 55.8296 48.0945 55.656 47.8237 55.4204C47.5528 55.1848 47.3313 54.8748 47.1712 54.4904C47.0112 54.106 46.925 53.6224 46.925 53.0396V52.8164C46.925 52.3204 46.9989 51.8864 47.1466 51.5144C47.2943 51.1424 47.5528 50.82 47.8975 50.572C48.2422 50.3239 48.6977 50.1255 49.2516 50.0015C49.8055 49.8775 50.4949 49.8155 51.3073 49.8155H52.6491V49.0715C52.6491 48.2903 52.5014 47.7447 52.2059 47.4347C51.9105 47.1247 51.4058 46.9759 50.6918 46.9759C50.101 46.9759 49.5717 46.9883 49.1285 47.0255C48.6853 47.0627 48.2791 47.0875 47.9098 47.1247H47.836C47.7498 47.1247 47.6759 47.0999 47.6021 47.0627C47.5405 47.0255 47.5036 46.9511 47.5036 46.8271V46.1823C47.5036 45.9839 47.6267 45.8723 47.8852 45.8351C48.2668 45.7731 48.673 45.7235 49.1162 45.6739C49.5593 45.6243 50.0887 45.5995 50.7042 45.5995C51.9721 45.5995 52.8707 45.9095 53.4246 46.5295C53.9786 47.1495 54.2494 48.0051 54.2494 49.0839V55.5568H54.2617Z" fill="#2B3A85"/>
<path d="M58.5086 55.5569C58.5086 55.6561 58.484 55.7429 58.4224 55.8173C58.3609 55.8917 58.287 55.9289 58.1885 55.9289H57.2407C57.1422 55.9289 57.0683 55.8917 57.0068 55.8173C56.9452 55.7429 56.9206 55.6561 56.9206 55.5569V42.3383C56.9206 42.2391 56.9452 42.1523 57.0068 42.0903C57.0683 42.0283 57.1422 41.9911 57.2407 41.9911H58.1885C58.287 41.9911 58.3609 42.0283 58.4224 42.0903C58.484 42.1647 58.5086 42.2391 58.5086 42.3383V55.5569Z" fill="#2B3A85"/>
<path d="M73.4527 55.7057C73.4527 55.7677 73.4403 55.8173 73.4034 55.8669C73.3788 55.9165 73.3296 55.9413 73.268 55.9661C73.0957 55.9909 72.8618 56.0033 72.5787 56.0157C72.2832 56.0157 71.9755 56.0281 71.6431 56.0405C71.3107 56.0529 70.9784 56.0529 70.6337 56.0529H69.7228C68.4426 56.0529 67.4701 55.7925 66.8177 55.2592C66.1653 54.726 65.8452 53.8456 65.8452 52.6056V45.4631C65.8452 44.2231 66.1653 43.3427 66.8177 42.8095C67.4701 42.2763 68.4303 42.0159 69.7228 42.0159H70.6091L71.6062 42.0531C71.9385 42.0531 72.2463 42.0655 72.5294 42.0903L73.2557 42.1275C73.3172 42.1399 73.3665 42.1647 73.3911 42.2143C73.4157 42.2639 73.4403 42.3135 73.4403 42.3755V43.3055C73.4403 43.4543 73.3788 43.5287 73.2434 43.5287H69.7351C69.255 43.5287 68.8611 43.5659 68.5657 43.6279C68.2702 43.7023 68.0487 43.8015 67.8886 43.9627C67.7286 44.1239 67.6178 44.3223 67.5686 44.5703C67.5193 44.8183 67.4824 45.1159 67.4824 45.4631V48.0423H73.071C73.1695 48.0423 73.2557 48.0795 73.3296 48.1539C73.4034 48.2283 73.4403 48.3152 73.4403 48.4144V49.1212C73.4403 49.2204 73.4034 49.3072 73.3296 49.3816C73.2557 49.456 73.1695 49.4932 73.071 49.4932H67.4824V52.6056C67.4824 52.9652 67.507 53.2628 67.5686 53.5108C67.6178 53.7464 67.7286 53.9448 67.8886 54.106C68.0487 54.2548 68.2702 54.3664 68.5657 54.4408C68.8611 54.5152 69.2427 54.54 69.7351 54.54H73.2434C73.3788 54.54 73.4403 54.6144 73.4403 54.7632V55.7057H73.4527Z" fill="#2B3A85"/>
<path d="M83.3497 55.5568C83.3497 55.656 83.3128 55.7428 83.2389 55.8172C83.1651 55.8916 83.0789 55.9288 82.9804 55.9288H82.1064C82.008 55.9288 81.9218 55.8916 81.8479 55.8172C81.7741 55.7428 81.7371 55.656 81.7371 55.5568V49.4559C81.7371 48.9847 81.7002 48.6003 81.614 48.2779C81.5402 47.9679 81.4171 47.7075 81.2447 47.5215C81.0847 47.3355 80.8755 47.1991 80.617 47.1247C80.3584 47.0503 80.063 47.0007 79.7306 47.0007C79.3367 47.0007 78.9428 47.0751 78.5243 47.2115C78.1181 47.3479 77.6995 47.5215 77.2687 47.7323V55.5568C77.2687 55.656 77.2318 55.7428 77.1579 55.8172C77.084 55.8916 76.9979 55.9288 76.8994 55.9288H76.0131C75.9146 55.9288 75.8284 55.8916 75.7669 55.8172C75.7053 55.7428 75.6684 55.656 75.6684 55.5568V46.1079C75.6684 46.0087 75.7053 45.9219 75.7669 45.8475C75.8284 45.7731 75.9146 45.7359 76.0131 45.7359H76.924C77.0225 45.7359 77.1087 45.7731 77.1702 45.8475C77.2318 45.9219 77.2687 46.0087 77.2687 46.1079V46.4551C77.7734 46.1699 78.2535 45.9591 78.6843 45.8103C79.1152 45.6739 79.6075 45.5995 80.1615 45.5995C81.2694 45.5995 82.0695 45.9343 82.5742 46.6039C83.0789 47.2735 83.3251 48.2283 83.3251 49.4559V55.5568H83.3497Z" fill="#2B3A85"/>
<path d="M90.7725 55.656C90.7725 55.8296 90.6617 55.9288 90.4402 55.966C90.2555 55.9908 90.0585 56.0156 89.837 56.028C89.6154 56.0404 89.4184 56.0528 89.2584 56.0528C88.8399 56.0528 88.4706 56.0156 88.1628 55.9536C87.8551 55.8792 87.5966 55.7552 87.3996 55.5692C87.2027 55.3832 87.0427 55.1352 86.9442 54.8128C86.8457 54.4904 86.7841 54.0812 86.7841 53.5728V47.0999L85.0238 46.9015C84.79 46.8767 84.6792 46.7651 84.6792 46.5667V46.0707C84.6792 45.8475 84.79 45.7359 85.0238 45.7359H86.7841V43.9131C86.7841 43.7023 86.8949 43.5783 87.1165 43.5411L88.0644 43.3923H88.1136C88.1875 43.3923 88.249 43.4171 88.3106 43.4791C88.3598 43.5287 88.3967 43.6155 88.3967 43.7147V45.7359H90.3663C90.4648 45.7359 90.5509 45.7731 90.6248 45.8475C90.6987 45.9219 90.7356 46.0087 90.7356 46.1079V46.7403C90.7356 46.8395 90.6987 46.9263 90.6248 47.0007C90.5509 47.0751 90.4648 47.1123 90.3663 47.1123H88.3967V53.5852C88.3967 54.0936 88.4706 54.416 88.6183 54.5524C88.766 54.6888 89.0245 54.7508 89.3815 54.7508H90.4032C90.6617 54.7508 90.7848 54.8376 90.7848 55.0112V55.656H90.7725Z" fill="#2B3A85"/>
<path d="M98.5523 49.9396C98.5523 48.8855 98.3554 48.1415 97.9615 47.6951C97.5675 47.2487 96.9644 47.0255 96.1642 47.0255C95.3764 47.0255 94.7732 47.2611 94.3547 47.7323C93.9361 48.2035 93.7269 48.9351 93.7269 49.9396V50.1008H98.5523V49.9396ZM100.177 50.944C100.177 51.2168 100.066 51.3532 99.8325 51.3532H93.7392V51.6136C93.7392 52.7172 93.9485 53.4984 94.3793 53.9448C94.7978 54.4036 95.4379 54.6268 96.275 54.6268C96.8043 54.6268 97.3706 54.6144 97.9738 54.5648C98.5769 54.5276 99.0816 54.478 99.5125 54.416H99.5987C99.6725 54.416 99.7341 54.4284 99.7956 54.4656C99.8572 54.5028 99.8818 54.5648 99.8818 54.664V55.2964C99.8818 55.4204 99.8572 55.5196 99.8079 55.5816C99.7587 55.656 99.6602 55.6932 99.5125 55.718C98.9955 55.8172 98.4785 55.8916 97.9615 55.9536C97.4444 56.0032 96.8782 56.0404 96.2627 56.0404C95.7457 56.0404 95.2287 55.966 94.7363 55.8296C94.2439 55.6932 93.8007 55.4452 93.4191 55.1104C93.0375 54.7756 92.7298 54.3168 92.4959 53.7464C92.262 53.176 92.1389 52.4568 92.1389 51.6012V49.9272C92.1389 48.5879 92.4836 47.5339 93.1729 46.7527C93.8623 45.9715 94.8594 45.5871 96.1765 45.5871C96.8413 45.5871 97.4198 45.6863 97.9245 45.8971C98.4169 46.1079 98.8354 46.3931 99.1678 46.7651C99.5002 47.1371 99.7587 47.5959 99.9187 48.1415C100.091 48.6747 100.177 49.2699 100.177 49.9272V50.944Z" fill="#2B3A85"/>
<path d="M106.849 46.7032C106.849 46.914 106.726 47.0132 106.467 47.0132C106.037 47.0132 105.63 47.0752 105.237 47.1868C104.843 47.2984 104.412 47.5092 103.956 47.7944V55.5569C103.956 55.6561 103.919 55.7429 103.846 55.8173C103.772 55.8917 103.685 55.9289 103.587 55.9289H102.701C102.602 55.9289 102.516 55.8917 102.454 55.8173C102.393 55.7429 102.356 55.6561 102.356 55.5569V46.1079C102.356 46.0087 102.393 45.9219 102.454 45.8475C102.516 45.7731 102.602 45.7359 102.701 45.7359H103.55C103.649 45.7359 103.735 45.7731 103.796 45.8475C103.858 45.9219 103.895 46.0087 103.895 46.1079V46.4923C104.35 46.1699 104.793 45.9467 105.212 45.8103C105.63 45.6739 106.049 45.6119 106.455 45.6119C106.714 45.6119 106.837 45.7235 106.837 45.9467V46.7032H106.849Z" fill="#2B3A85"/>
<path d="M113.89 55.656C113.89 55.8296 113.78 55.9288 113.558 55.966C113.373 55.9908 113.176 56.0156 112.955 56.028C112.733 56.0404 112.549 56.0528 112.376 56.0528C111.958 56.0528 111.588 56.0156 111.281 55.9536C110.973 55.8792 110.714 55.7552 110.517 55.5692C110.32 55.3832 110.16 55.1352 110.062 54.8128C109.963 54.4904 109.902 54.0812 109.902 53.5728V47.0999L108.142 46.9015C107.908 46.8767 107.797 46.7651 107.797 46.5667V46.0707C107.797 45.8475 107.908 45.7359 108.142 45.7359H109.902V43.9131C109.902 43.7023 110.013 43.5783 110.234 43.5411L111.182 43.3923H111.231C111.305 43.3923 111.367 43.4171 111.416 43.4791C111.465 43.5287 111.502 43.6155 111.502 43.7147V45.7359H113.472C113.57 45.7359 113.656 45.7731 113.73 45.8475C113.804 45.9219 113.841 46.0087 113.841 46.1079V46.7403C113.841 46.8395 113.804 46.9263 113.73 47.0007C113.656 47.0751 113.57 47.1123 113.472 47.1123H111.502V53.5852C111.502 54.0936 111.576 54.416 111.724 54.5524C111.872 54.6888 112.13 54.7508 112.487 54.7508H113.509C113.767 54.7508 113.89 54.8376 113.89 55.0112V55.656Z" fill="#2B3A85"/>
<path d="M120.944 51.006H119.602C119.06 51.006 118.605 51.0432 118.236 51.1052C117.866 51.1796 117.583 51.2788 117.386 51.4152C117.177 51.5516 117.029 51.7376 116.943 51.9732C116.857 52.2088 116.82 52.4816 116.82 52.8164V53.0396C116.82 53.7092 116.968 54.1556 117.263 54.3788C117.559 54.602 117.965 54.726 118.494 54.726C118.925 54.726 119.319 54.664 119.713 54.54C120.107 54.416 120.513 54.23 120.956 53.982V51.006H120.944ZM122.544 55.5568C122.544 55.656 122.507 55.7428 122.433 55.8172C122.359 55.8916 122.273 55.9288 122.175 55.9288H121.338C121.239 55.9288 121.153 55.8916 121.079 55.8172C121.005 55.7428 120.968 55.656 120.968 55.5568V55.1476C120.525 55.408 120.082 55.6188 119.627 55.7924C119.171 55.966 118.679 56.0528 118.174 56.0528C117.78 56.0528 117.411 56.0032 117.054 55.9164C116.697 55.8296 116.377 55.656 116.106 55.4204C115.835 55.1848 115.614 54.8748 115.454 54.4904C115.294 54.106 115.207 53.6224 115.207 53.0396V52.8164C115.207 52.3204 115.281 51.8864 115.429 51.5144C115.577 51.1424 115.835 50.82 116.18 50.572C116.525 50.3239 116.98 50.1255 117.534 50.0015C118.088 49.8775 118.777 49.8155 119.59 49.8155H120.932V49.0715C120.932 48.2903 120.784 47.7447 120.488 47.4347C120.193 47.1247 119.688 46.9759 118.974 46.9759C118.383 46.9759 117.854 46.9883 117.411 47.0255C116.968 47.0627 116.562 47.0875 116.192 47.1247H116.106C116.02 47.1247 115.946 47.0999 115.872 47.0627C115.811 47.0255 115.774 46.9511 115.774 46.8271V46.1823C115.774 45.9839 115.897 45.8723 116.155 45.8351C116.537 45.7731 116.943 45.7235 117.386 45.6739C117.829 45.6243 118.359 45.5995 118.974 45.5995C120.23 45.5995 121.141 45.9095 121.695 46.5295C122.249 47.1495 122.519 48.0051 122.519 49.0839V55.5568H122.544Z" fill="#2B3A85"/>
<path d="M126.828 55.5568C126.828 55.656 126.791 55.7428 126.717 55.8172C126.643 55.8916 126.557 55.9288 126.459 55.9288H125.585C125.486 55.9288 125.4 55.8916 125.326 55.8172C125.252 55.7428 125.215 55.656 125.215 55.5568V46.1079C125.215 46.0087 125.252 45.9219 125.326 45.8475C125.4 45.7731 125.486 45.7359 125.585 45.7359H126.459C126.557 45.7359 126.643 45.7731 126.717 45.8475C126.791 45.9219 126.828 46.0087 126.828 46.1079V55.5568ZM126.865 43.7395C126.865 43.8387 126.828 43.9255 126.754 43.9999C126.68 44.0743 126.594 44.1115 126.496 44.1115H125.572C125.474 44.1115 125.388 44.0743 125.314 43.9999C125.24 43.9255 125.203 43.8387 125.203 43.7395V42.2515C125.203 42.1523 125.24 42.0655 125.314 41.9911C125.388 41.9167 125.474 41.8795 125.572 41.8795H126.496C126.594 41.8795 126.68 41.9167 126.754 41.9911C126.828 42.0655 126.865 42.1523 126.865 42.2515V43.7395Z" fill="#2B3A85"/>
<path d="M137.18 55.5568C137.18 55.656 137.143 55.7428 137.07 55.8172C136.996 55.8916 136.91 55.9288 136.811 55.9288H135.937C135.839 55.9288 135.752 55.8916 135.679 55.8172C135.605 55.7428 135.568 55.656 135.568 55.5568V49.4559C135.568 48.9847 135.531 48.6003 135.445 48.2779C135.371 47.9679 135.248 47.7075 135.088 47.5215C134.928 47.3355 134.718 47.1991 134.46 47.1247C134.201 47.0503 133.906 47.0007 133.574 47.0007C133.18 47.0007 132.786 47.0751 132.367 47.2115C131.961 47.3479 131.543 47.5215 131.112 47.7323V55.5568C131.112 55.656 131.075 55.7428 131.001 55.8172C130.927 55.8916 130.841 55.9288 130.742 55.9288H129.856C129.758 55.9288 129.684 55.8916 129.61 55.8172C129.548 55.7428 129.511 55.656 129.511 55.5568V46.1079C129.511 46.0087 129.548 45.9219 129.61 45.8475C129.684 45.7731 129.758 45.7359 129.856 45.7359H130.767C130.865 45.7359 130.952 45.7731 131.013 45.8475C131.087 45.9219 131.112 46.0087 131.112 46.1079V46.4551C131.616 46.1699 132.096 45.9591 132.527 45.8103C132.958 45.6739 133.451 45.5995 134.004 45.5995C135.112 45.5995 135.913 45.9343 136.417 46.6039C136.922 47.2735 137.168 48.2283 137.168 49.4559V55.5568H137.18Z" fill="#2B3A85"/>
<path d="M151.694 55.5568C151.694 55.656 151.657 55.7428 151.583 55.8172C151.509 55.8916 151.423 55.9288 151.324 55.9288H150.45C150.352 55.9288 150.266 55.8916 150.192 55.8172C150.118 55.7428 150.081 55.656 150.081 55.5568V48.9972C150.081 48.6127 150.044 48.2903 149.958 48.0299C149.872 47.7695 149.761 47.5711 149.613 47.4223C149.466 47.2735 149.293 47.1743 149.084 47.1123C148.875 47.0503 148.665 47.0131 148.432 47.0131C148.099 47.0131 147.755 47.0627 147.385 47.1619C147.016 47.2611 146.659 47.3727 146.302 47.5091C146.413 47.9183 146.462 48.4019 146.462 48.96V55.5568C146.462 55.656 146.437 55.7428 146.376 55.8172C146.314 55.8916 146.24 55.9288 146.142 55.9288H145.182C145.083 55.9288 145.009 55.8916 144.948 55.8172C144.899 55.7428 144.862 55.656 144.862 55.5568V48.96C144.862 48.5507 144.837 48.2283 144.776 47.9679C144.726 47.7199 144.628 47.5215 144.517 47.3727C144.394 47.2363 144.246 47.1371 144.074 47.0875C143.902 47.0379 143.692 47.0131 143.471 47.0131C143.138 47.0131 142.794 47.0875 142.412 47.2239C142.031 47.3603 141.649 47.5339 141.255 47.7323V55.5568C141.255 55.656 141.218 55.7428 141.169 55.8172C141.107 55.8916 141.033 55.9288 140.935 55.9288H139.975C139.876 55.9288 139.802 55.8916 139.741 55.8172C139.692 55.7428 139.655 55.656 139.655 55.5568V46.1079C139.655 46.0087 139.692 45.9219 139.753 45.8475C139.815 45.7731 139.901 45.7359 139.999 45.7359H140.91C141.009 45.7359 141.095 45.7731 141.157 45.8475C141.218 45.9219 141.255 46.0087 141.255 46.1079V46.4551C141.624 46.2195 142.031 46.0211 142.474 45.8475C142.917 45.6739 143.397 45.5871 143.914 45.5871C144.296 45.5871 144.64 45.6491 144.936 45.7607C145.231 45.8847 145.502 46.0707 145.723 46.3435C146.228 46.0955 146.745 45.9095 147.262 45.7731C147.779 45.6367 148.272 45.5747 148.739 45.5747C149.146 45.5747 149.539 45.6243 149.896 45.7359C150.253 45.8475 150.561 46.0335 150.832 46.3063C151.103 46.5667 151.312 46.9263 151.46 47.3603C151.608 47.7943 151.694 48.3399 151.694 48.9848V55.5568Z" fill="#2B3A85"/>
<path d="M160.261 49.9396C160.261 48.8855 160.064 48.1415 159.67 47.6951C159.276 47.2487 158.686 47.0255 157.873 47.0255C157.085 47.0255 156.482 47.2611 156.064 47.7323C155.645 48.2035 155.436 48.9351 155.436 49.9396V50.1008H160.261V49.9396ZM161.874 50.944C161.874 51.2168 161.763 51.3532 161.529 51.3532H155.436V51.6136C155.436 52.7172 155.645 53.4984 156.076 53.9448C156.507 54.4036 157.135 54.6268 157.972 54.6268C158.501 54.6268 159.067 54.6144 159.67 54.5648C160.274 54.5276 160.778 54.478 161.209 54.416H161.295C161.369 54.416 161.431 54.4284 161.492 54.4656C161.554 54.5028 161.578 54.5648 161.578 54.664V55.2964C161.578 55.4204 161.554 55.5196 161.505 55.5816C161.455 55.656 161.357 55.6932 161.209 55.718C160.692 55.8172 160.175 55.8916 159.658 55.9536C159.141 56.0032 158.575 56.0404 157.959 56.0404C157.442 56.0404 156.925 55.966 156.433 55.8296C155.941 55.6932 155.497 55.4452 155.116 55.1104C154.734 54.7756 154.426 54.3168 154.193 53.7464C153.959 53.176 153.836 52.4568 153.836 51.6012V49.9272C153.836 48.5879 154.18 47.5339 154.87 46.7527C155.559 45.9715 156.556 45.5871 157.873 45.5871C158.538 45.5871 159.129 45.6863 159.621 45.8971C160.114 46.1079 160.532 46.3931 160.864 46.7651C161.197 47.1371 161.443 47.5959 161.615 48.1415C161.788 48.6747 161.874 49.2699 161.874 49.9272V50.944Z" fill="#2B3A85"/>
<path d="M171.722 55.5568C171.722 55.656 171.685 55.7428 171.611 55.8172C171.537 55.8916 171.451 55.9288 171.352 55.9288H170.478C170.38 55.9288 170.294 55.8916 170.22 55.8172C170.146 55.7428 170.109 55.656 170.109 55.5568V49.4559C170.109 48.9847 170.072 48.6003 169.986 48.2779C169.912 47.9679 169.789 47.7075 169.617 47.5215C169.457 47.3355 169.247 47.1991 168.989 47.1247C168.73 47.0503 168.435 47.0007 168.103 47.0007C167.709 47.0007 167.315 47.0751 166.896 47.2115C166.49 47.3479 166.059 47.5215 165.641 47.7323V55.5568C165.641 55.656 165.604 55.7428 165.53 55.8172C165.456 55.8916 165.37 55.9288 165.271 55.9288H164.385C164.287 55.9288 164.213 55.8916 164.139 55.8172C164.077 55.7428 164.04 55.656 164.04 55.5568V46.1079C164.04 46.0087 164.077 45.9219 164.139 45.8475C164.213 45.7731 164.287 45.7359 164.385 45.7359H165.296C165.394 45.7359 165.481 45.7731 165.542 45.8475C165.604 45.9219 165.641 46.0087 165.641 46.1079V46.4551C166.145 46.1699 166.625 45.9591 167.056 45.8103C167.487 45.6739 167.98 45.5995 168.533 45.5995C169.641 45.5995 170.441 45.9343 170.946 46.6039C171.451 47.2735 171.697 48.2283 171.697 49.4559V55.5568H171.722Z" fill="#2B3A85"/>
<path d="M179.145 55.656C179.145 55.8296 179.034 55.9288 178.812 55.966C178.627 55.9908 178.431 56.0156 178.209 56.028C177.987 56.0404 177.803 56.0528 177.63 56.0528C177.212 56.0528 176.843 56.0156 176.535 55.9536C176.227 55.8792 175.969 55.7552 175.772 55.5692C175.575 55.3832 175.415 55.1352 175.316 54.8128C175.218 54.4904 175.168 54.0812 175.168 53.5728V47.0999L173.408 46.9015C173.174 46.8767 173.063 46.7651 173.063 46.5667V46.0707C173.063 45.8475 173.174 45.7359 173.408 45.7359H175.168V43.9131C175.168 43.7023 175.279 43.5783 175.501 43.5411L176.449 43.3923H176.498C176.572 43.3923 176.633 43.4171 176.695 43.4791C176.744 43.5287 176.781 43.6155 176.781 43.7147V45.7359H178.751C178.849 45.7359 178.935 45.7731 179.009 45.8475C179.083 45.9219 179.12 46.0087 179.12 46.1079V46.7403C179.12 46.8395 179.083 46.9263 179.009 47.0007C178.935 47.0751 178.849 47.1123 178.751 47.1123H176.781V53.5852C176.781 54.0936 176.855 54.416 177.003 54.5524C177.15 54.6888 177.409 54.7508 177.766 54.7508H178.788C179.046 54.7508 179.169 54.8376 179.169 55.0112V55.656H179.145Z" fill="#2B3A85"/>
<path d="M190.199 43.8263C190.137 43.6031 190.026 43.4915 189.854 43.4915C189.669 43.4915 189.546 43.6031 189.485 43.8263L187.823 49.9272H191.848L190.199 43.8263ZM195.073 55.6312C195.073 55.8296 194.975 55.9288 194.766 55.9288H193.695C193.609 55.9288 193.547 55.904 193.498 55.842C193.448 55.7924 193.412 55.718 193.387 55.6436L192.205 51.378H187.491L186.321 55.6436C186.297 55.718 186.247 55.78 186.198 55.842C186.136 55.904 186.075 55.9288 186.001 55.9288H184.93C184.721 55.9288 184.622 55.8296 184.622 55.6312C184.622 55.5692 184.622 55.532 184.647 55.5072L188.008 43.4419C188.081 43.1567 188.18 42.9211 188.328 42.7475C188.463 42.5739 188.623 42.4251 188.795 42.3259C188.968 42.2267 189.14 42.1523 189.337 42.1027C189.522 42.0655 189.706 42.0406 189.879 42.0406C190.051 42.0406 190.223 42.0655 190.408 42.0903C190.593 42.1275 190.765 42.2019 190.937 42.3011C191.11 42.4003 191.257 42.5491 191.405 42.7227C191.54 42.8963 191.651 43.1319 191.725 43.4171L195.086 55.5072C195.073 55.532 195.073 55.5692 195.073 55.6312Z" fill="#2B3A85"/>
<path d="M204.318 55.5568C204.318 55.656 204.281 55.7428 204.22 55.8172C204.158 55.8916 204.072 55.9288 203.973 55.9288H203.062C202.964 55.9288 202.89 55.8916 202.816 55.8172C202.755 55.7428 202.718 55.656 202.718 55.5568V55.2096C202.213 55.4948 201.733 55.7056 201.302 55.8544C200.859 55.9908 200.379 56.0652 199.825 56.0652C198.717 56.0652 197.917 55.7304 197.412 55.0608C196.908 54.3912 196.661 53.4364 196.661 52.2088V46.1079C196.661 46.0087 196.698 45.9219 196.772 45.8475C196.846 45.7731 196.932 45.7359 197.031 45.7359H197.905C198.003 45.7359 198.089 45.7731 198.163 45.8475C198.237 45.9219 198.274 46.0087 198.274 46.1079V52.2088C198.274 52.68 198.311 53.0768 198.397 53.3868C198.471 53.6968 198.594 53.9572 198.766 54.1432C198.926 54.3292 199.136 54.4656 199.382 54.54C199.628 54.6144 199.936 54.664 200.28 54.664C200.662 54.664 201.068 54.602 201.474 54.4656C201.881 54.3292 202.299 54.1556 202.73 53.9448V46.1079C202.73 46.0087 202.767 45.9219 202.841 45.8475C202.915 45.7731 203.001 45.7359 203.099 45.7359H203.986C204.084 45.7359 204.17 45.7731 204.232 45.8475C204.306 45.9219 204.33 46.0087 204.33 46.1079V55.5568H204.318Z" fill="#2B3A85"/>
<path d="M212.11 55.656C212.11 55.8296 211.999 55.9288 211.778 55.966C211.593 55.9908 211.396 56.0156 211.175 56.028C210.953 56.0404 210.756 56.0528 210.596 56.0528C210.177 56.0528 209.808 56.0156 209.5 55.9536C209.193 55.8792 208.934 55.7552 208.737 55.5692C208.54 55.3832 208.38 55.1352 208.282 54.8128C208.183 54.4904 208.122 54.0812 208.122 53.5728V47.0999L206.361 46.9015C206.128 46.8767 206.017 46.7651 206.017 46.5667V46.0707C206.017 45.8475 206.128 45.7359 206.361 45.7359H208.122V43.9131C208.122 43.7023 208.233 43.5783 208.454 43.5411L209.402 43.3923H209.451C209.525 43.3923 209.587 43.4171 209.636 43.4791C209.685 43.5287 209.722 43.6155 209.722 43.7147V45.7359H211.692C211.79 45.7359 211.876 45.7731 211.95 45.8475C212.024 45.9219 212.061 46.0087 212.061 46.1079V46.7403C212.061 46.8395 212.024 46.9263 211.95 47.0007C211.876 47.0751 211.79 47.1123 211.692 47.1123H209.722V53.5852C209.722 54.0936 209.796 54.416 209.944 54.5524C210.091 54.6888 210.35 54.7508 210.707 54.7508H211.729C211.987 54.7508 212.11 54.8376 212.11 55.0112V55.656Z" fill="#2B3A85"/>
<path d="M221.453 55.5569C221.453 55.6561 221.416 55.7429 221.342 55.8173C221.269 55.8917 221.182 55.9289 221.084 55.9289H220.21C220.112 55.9289 220.025 55.8917 219.951 55.8173C219.878 55.7429 219.841 55.6561 219.841 55.5569V49.456C219.841 48.526 219.668 47.8936 219.311 47.5464C218.967 47.1992 218.487 47.0256 217.896 47.0256C217.748 47.0256 217.576 47.038 217.379 47.0504C217.182 47.0628 216.96 47.1 216.739 47.1372C216.505 47.1744 216.271 47.2364 216.037 47.2984C215.803 47.3728 215.581 47.4472 215.397 47.534V55.5445C215.397 55.6437 215.36 55.7305 215.286 55.8049C215.212 55.8793 215.126 55.9165 215.028 55.9165H214.141C214.043 55.9165 213.969 55.8793 213.895 55.8049C213.834 55.7305 213.797 55.6437 213.797 55.5445V42.3631C213.797 42.2639 213.834 42.1771 213.895 42.1027C213.957 42.0283 214.043 41.9911 214.141 41.9911H215.052C215.151 41.9911 215.237 42.0283 215.298 42.1027C215.36 42.1771 215.397 42.2639 215.397 42.3631V46.1823C215.828 45.9839 216.308 45.8351 216.825 45.7483C217.342 45.6615 217.785 45.6119 218.179 45.6119C218.659 45.6119 219.102 45.6863 219.508 45.8351C219.915 45.9839 220.259 46.2071 220.542 46.5171C220.838 46.8272 221.059 47.224 221.219 47.7076C221.379 48.1912 221.453 48.774 221.453 49.456V55.5569Z" fill="#2B3A85"/>
<path d="M230.095 50.1256C230.095 49.1708 229.898 48.4268 229.516 47.8688C229.122 47.3108 228.507 47.038 227.645 47.038C226.796 47.038 226.18 47.3108 225.786 47.8688C225.405 48.4144 225.208 49.1708 225.208 50.138V51.5516C225.208 52.5064 225.405 53.2504 225.786 53.8084C226.168 54.3665 226.783 54.6393 227.645 54.6393C228.494 54.6393 229.11 54.3665 229.504 53.8084C229.898 53.2628 230.095 52.5064 230.095 51.5392V50.1256ZM231.695 51.5392C231.695 52.2212 231.609 52.8412 231.436 53.3992C231.264 53.9573 231.006 54.4285 230.673 54.8253C230.329 55.2221 229.91 55.5321 229.405 55.7429C228.901 55.9537 228.31 56.0653 227.645 56.0653C226.98 56.0653 226.389 55.9537 225.885 55.7429C225.38 55.5321 224.962 55.2221 224.617 54.8253C224.272 54.4285 224.026 53.9573 223.854 53.3992C223.681 52.8412 223.595 52.2212 223.595 51.5392V50.1256C223.595 49.4436 223.681 48.8236 223.854 48.278C224.026 47.72 224.272 47.2488 224.617 46.852C224.962 46.4551 225.38 46.1575 225.885 45.9343C226.389 45.7235 226.968 45.6119 227.645 45.6119C228.31 45.6119 228.901 45.7235 229.405 45.9343C229.91 46.1451 230.341 46.4551 230.673 46.852C231.018 47.2488 231.264 47.72 231.436 48.278C231.609 48.836 231.695 49.456 231.695 50.1256V51.5392Z" fill="#2B3A85"/>
<path d="M238.342 46.7032C238.342 46.914 238.219 47.0132 237.961 47.0132C237.53 47.0132 237.124 47.0752 236.73 47.1868C236.336 47.2984 235.905 47.5092 235.45 47.7944V55.5569C235.45 55.6561 235.413 55.7429 235.339 55.8173C235.265 55.8917 235.179 55.9289 235.08 55.9289H234.194C234.095 55.9289 234.009 55.8917 233.948 55.8173C233.886 55.7429 233.849 55.6561 233.849 55.5569V46.1079C233.849 46.0087 233.886 45.9219 233.948 45.8475C234.009 45.7731 234.095 45.7359 234.194 45.7359H235.043C235.142 45.7359 235.216 45.7731 235.289 45.8475C235.351 45.9219 235.388 46.0087 235.388 46.1079V46.4923C235.843 46.1699 236.287 45.9467 236.705 45.8103C237.124 45.6739 237.542 45.6119 237.948 45.6119C238.207 45.6119 238.33 45.7235 238.33 45.9467V46.7032H238.342Z" fill="#2B3A85"/>
<path d="M241.863 55.5568C241.863 55.656 241.826 55.7428 241.752 55.8172C241.678 55.8916 241.592 55.9288 241.494 55.9288H240.62C240.521 55.9288 240.435 55.8916 240.361 55.8172C240.287 55.7428 240.25 55.656 240.25 55.5568V46.1079C240.25 46.0087 240.287 45.9219 240.361 45.8475C240.435 45.7731 240.521 45.7359 240.62 45.7359H241.494C241.592 45.7359 241.678 45.7731 241.752 45.8475C241.826 45.9219 241.863 46.0087 241.863 46.1079V55.5568ZM241.9 43.7395C241.9 43.8387 241.863 43.9255 241.789 43.9999C241.715 44.0743 241.629 44.1115 241.531 44.1115H240.607C240.509 44.1115 240.423 44.0743 240.349 43.9999C240.275 43.9255 240.238 43.8387 240.238 43.7395V42.2515C240.238 42.1523 240.275 42.0655 240.349 41.9911C240.423 41.9167 240.509 41.8795 240.607 41.8795H241.531C241.629 41.8795 241.715 41.9167 241.789 41.9911C241.863 42.0655 241.9 42.1523 241.9 42.2515V43.7395Z" fill="#2B3A85"/>
<path d="M249.877 55.656C249.877 55.8296 249.766 55.9288 249.544 55.966C249.36 55.9908 249.163 56.0156 248.941 56.028C248.719 56.0404 248.535 56.0528 248.362 56.0528C247.944 56.0528 247.575 56.0156 247.267 55.9536C246.959 55.8792 246.701 55.7552 246.504 55.5692C246.307 55.3832 246.147 55.1352 246.048 54.8128C245.95 54.4904 245.888 54.0812 245.888 53.5728V47.0999L244.128 46.9015C243.894 46.8767 243.783 46.7651 243.783 46.5667V46.0707C243.783 45.8475 243.894 45.7359 244.128 45.7359H245.888V43.9131C245.888 43.7023 245.999 43.5783 246.221 43.5411L247.168 43.3923H247.218C247.292 43.3923 247.353 43.4171 247.402 43.4791C247.464 43.5287 247.488 43.6155 247.488 43.7147V45.7359H249.458C249.556 45.7359 249.643 45.7731 249.717 45.8475C249.79 45.9219 249.827 46.0087 249.827 46.1079V46.7403C249.827 46.8395 249.79 46.9263 249.717 47.0007C249.643 47.0751 249.556 47.1123 249.458 47.1123H247.488V53.5852C247.488 54.0936 247.562 54.416 247.71 54.5524C247.858 54.6888 248.116 54.7508 248.473 54.7508H249.495C249.753 54.7508 249.877 54.8376 249.877 55.0112V55.656Z" fill="#2B3A85"/>
<path d="M259.33 46.046C259.33 46.108 259.318 46.1452 259.306 46.17L256.302 56.8465C256.155 57.3549 256.007 57.7765 255.834 58.1237C255.674 58.4709 255.465 58.7561 255.207 58.9669C254.948 59.1777 254.64 59.3389 254.283 59.4381C253.926 59.5373 253.483 59.5869 252.966 59.5869C252.708 59.5869 252.437 59.5745 252.154 59.5373C251.871 59.5125 251.625 59.4629 251.44 59.4133C251.329 59.3885 251.243 59.3637 251.169 59.3265C251.095 59.2893 251.058 59.2273 251.058 59.1157V58.4337C251.058 58.2353 251.169 58.1361 251.403 58.1361H251.452C251.661 58.1609 251.932 58.1857 252.265 58.2105C252.597 58.2353 252.868 58.2477 253.077 58.2477C253.336 58.2477 253.557 58.2229 253.754 58.1857C253.951 58.1485 254.111 58.0617 254.259 57.9501C254.394 57.8385 254.517 57.6773 254.628 57.4665C254.727 57.2557 254.825 56.9953 254.887 56.6729L255.071 55.9165H254.813C254.677 55.9165 254.542 55.9041 254.419 55.8793C254.296 55.8545 254.173 55.8049 254.05 55.7181C253.939 55.6313 253.828 55.5073 253.73 55.3337C253.631 55.1601 253.545 54.9369 253.459 54.6517L251.034 46.1824C251.021 46.1576 251.021 46.108 251.021 46.0584C251.021 45.8475 251.132 45.7483 251.354 45.7483H252.351C252.425 45.7483 252.486 45.7856 252.535 45.8476C252.585 45.9096 252.634 45.9716 252.659 46.046L254.8 54.0937C254.85 54.2797 254.899 54.3913 254.96 54.4409C255.022 54.4781 255.084 54.5029 255.145 54.5029H255.441L257.656 46.0336C257.681 45.9592 257.718 45.8971 257.779 45.8351C257.841 45.7731 257.915 45.7483 258.001 45.7483H259.023C259.232 45.7359 259.33 45.8352 259.33 46.046Z" fill="#2B3A85"/>
<path d="M31.464 32.1826H30.4669C30.3068 32.1826 30.1714 32.2322 30.0483 32.3438C29.9252 32.443 29.8514 32.5918 29.8514 32.7654V34.179C29.8514 34.3154 29.9129 34.4394 30.0483 34.5634C30.1714 34.675 30.3192 34.737 30.4669 34.737H31.464C31.624 34.737 31.7594 34.675 31.8702 34.5634C31.9933 34.4518 32.0548 34.3278 32.0548 34.179V32.7654C32.0548 32.5918 31.9933 32.4554 31.8702 32.3438C31.7471 32.2446 31.6117 32.1826 31.464 32.1826Z" fill="#2B3A85"/>
<path d="M27.254 32.1826H26.2569C26.0846 32.1826 25.9492 32.2322 25.8384 32.3438C25.7276 32.443 25.666 32.5918 25.666 32.7654V34.179C25.666 34.3154 25.7276 34.4394 25.8384 34.5634C25.9492 34.675 26.0846 34.737 26.2569 34.737H27.254C27.414 34.737 27.5494 34.675 27.6602 34.5634C27.7833 34.4518 27.8449 34.3278 27.8449 34.179V32.7654C27.8449 32.5918 27.7833 32.4554 27.6725 32.3438C27.5618 32.2446 27.4263 32.1826 27.254 32.1826Z" fill="#2B3A85"/>
<path d="M39.4653 14.7231H40.5732C40.7455 14.7231 40.8809 14.6735 40.9917 14.5619C41.1025 14.4627 41.1641 14.3263 41.1641 14.1651V12.7515C41.1641 12.5779 41.1025 12.4415 40.9917 12.3299C40.8809 12.2307 40.7455 12.1687 40.5978 12.1687H39.4653C39.3176 12.1687 39.1699 12.2183 39.0591 12.3299C38.936 12.4291 38.8745 12.5779 38.8745 12.7515V14.1651C38.8745 14.3263 38.9237 14.4503 39.0468 14.5619C39.1576 14.6611 39.293 14.7231 39.4653 14.7231Z" fill="#2B3A85"/>
<path d="M44.2661 17.9844C43.7984 17.848 43.2321 17.7488 42.5428 17.6868C41.8534 17.6248 41.1518 17.6 40.4378 17.6C38.5913 17.6 37.1388 18.096 36.0924 19.088C35.0338 20.08 34.5168 21.4564 34.5168 23.2173V23.8497C34.5168 24.7425 34.6276 25.4865 34.8368 26.0693C35.0461 26.6645 35.3169 27.1357 35.6493 27.5077H32.6703H32.5226H32.3133C32.1656 27.5077 31.981 27.4953 31.7717 27.4829C31.5624 27.4705 31.3655 27.4333 31.1685 27.3961C30.9716 27.3465 30.7869 27.2969 30.6269 27.2101C30.4669 27.1357 30.3561 27.0241 30.3068 26.8877V19.6956C30.3068 19.5592 30.2576 19.4352 30.1714 19.3484C30.073 19.2492 29.9622 19.1996 29.8268 19.1996H28.6327C28.4973 19.1996 28.3865 19.2492 28.288 19.3484C28.1896 19.4476 28.1526 19.5592 28.1526 19.6956V26.5529C28.1526 26.7761 28.0911 26.9621 27.9557 27.0861C27.8326 27.2225 27.6725 27.3093 27.4756 27.3713C27.2909 27.4333 27.094 27.4705 26.8847 27.4953C26.6755 27.5077 26.4908 27.5201 26.3185 27.5201H25.1613H19.8066H19.6466H14.2795H13.6886C13.147 27.5201 12.7038 27.4209 12.3838 27.2225C12.0637 27.0241 11.8914 26.5777 11.8914 25.8709V18.5176C11.8914 18.3812 11.8668 18.2696 11.8298 18.1952C11.7929 18.1208 11.6821 18.0588 11.5098 18.0216C11.3375 17.9596 11.1036 17.91 10.8574 17.8728C10.5989 17.8356 10.3281 17.786 10.0449 17.7612C9.7618 17.724 9.47867 17.6992 9.18324 17.6868C8.8878 17.6744 8.64161 17.662 8.42003 17.662C7.44756 17.662 6.54895 17.7736 5.7365 17.9844C4.92405 18.2076 4.22239 18.5424 3.63153 19.0012C3.04066 19.46 2.58519 20.0552 2.25283 20.7868C1.93277 21.5184 1.76044 22.3988 1.76044 23.4281V24.1101C1.76044 25.7965 2.19128 27.0861 3.04066 27.9789C3.89003 28.8717 5.12101 29.3181 6.70897 29.3181H6.94286C7.65683 29.3181 8.32155 29.2313 8.92473 29.0701C9.52791 28.9089 9.98338 28.6237 10.2788 28.2517C10.5496 28.8097 10.9435 29.2065 11.4729 29.4297C11.9899 29.6529 12.6423 29.7645 13.4055 29.7645H14.1195H19.6343H19.7943H25.1613H26.0107C26.4908 29.7645 27.0201 29.7025 27.611 29.5909C28.2019 29.4793 28.7066 29.2437 29.1374 28.8965C29.5313 29.2437 30.036 29.4793 30.6392 29.5909C31.2424 29.7025 31.8209 29.7645 32.3503 29.7645H32.498H32.6457H39.9085C40.5978 29.7645 41.2626 29.7645 41.9273 29.7521C42.5797 29.7397 43.2691 29.7025 43.9953 29.6405C44.3523 29.6033 44.537 29.4421 44.5616 29.1445C44.5739 28.8841 44.5985 28.5989 44.6108 28.2765C44.6231 27.9665 44.6354 27.6317 44.6477 27.2969C44.6601 26.9497 44.6601 26.6149 44.6601 26.2925V25.3253V18.4556C44.6601 18.3192 44.6354 18.2076 44.5862 18.1456C44.5493 18.0712 44.4385 18.0216 44.2661 17.9844ZM9.74949 25.7593C9.74949 26.0321 9.67563 26.2677 9.54022 26.4537C9.40482 26.6397 9.22017 26.7761 8.99859 26.8877C8.77702 26.9869 8.53082 27.0613 8.26001 27.0985C7.98919 27.1233 7.71838 27.1357 7.45987 27.1357H6.96748C5.8596 27.1357 5.07177 26.8381 4.604 26.2553C4.13623 25.6725 3.91465 24.8541 3.91465 23.8125V23.2669C3.91465 22.5724 4.02544 21.9896 4.2347 21.5308C4.44397 21.072 4.73941 20.7 5.1087 20.4272C5.47799 20.1544 5.92115 19.9684 6.42585 19.8692C6.94286 19.77 7.50911 19.708 8.1246 19.708C8.34617 19.708 8.58006 19.7204 8.83857 19.7328C9.09707 19.7452 9.39251 19.7824 9.73718 19.8072V25.7593H9.74949ZM42.5182 27.4829C42.1612 27.5201 41.7426 27.5449 41.2872 27.5449C40.8317 27.5573 40.4009 27.5573 40.007 27.5573C38.8621 27.5573 38.0251 27.2349 37.4834 26.6025C36.9418 25.9701 36.671 25.0401 36.671 23.8373V23.2669C36.671 22.0764 36.9787 21.1836 37.5819 20.576C38.1851 19.9684 39.0837 19.6584 40.2655 19.6584C40.7086 19.6584 41.1148 19.6708 41.4718 19.6832C41.8288 19.6956 42.1858 19.7328 42.5182 19.7824V27.4829Z" fill="#2B3A85"/>
<path d="M60.8967 15.7895H61.8938C62.0538 15.7895 62.1892 15.7399 62.3 15.6283C62.4231 15.5291 62.4846 15.3927 62.4846 15.2315V13.8179C62.4846 13.6443 62.4231 13.5079 62.3123 13.3963C62.2015 13.2971 62.0538 13.2351 61.8938 13.2351H60.8967C60.7243 13.2351 60.5889 13.2847 60.4781 13.3963C60.3673 13.4955 60.3058 13.6443 60.3058 13.8179V15.2315C60.3058 15.3927 60.355 15.5167 60.4781 15.6283C60.5889 15.7399 60.7243 15.7895 60.8967 15.7895Z" fill="#2B3A85"/>
<path d="M65.1066 15.7895H66.1037C66.2637 15.7895 66.3992 15.7399 66.5099 15.6283C66.633 15.5291 66.6946 15.3927 66.6946 15.2315V13.8179C66.6946 13.6443 66.633 13.5079 66.5099 13.3963C66.3868 13.2971 66.2514 13.2351 66.1037 13.2351H65.1066C64.9466 13.2351 64.8112 13.2847 64.6881 13.3963C64.565 13.5079 64.4911 13.6443 64.4911 13.8179V15.2315C64.4911 15.3927 64.5527 15.5167 64.6881 15.6283C64.8112 15.7399 64.9466 15.7895 65.1066 15.7895Z" fill="#2B3A85"/>
<path d="M79.3737 10.1102H78.1181C77.9827 10.1102 77.8719 10.1598 77.7734 10.259C77.6749 10.3582 77.638 10.4698 77.638 10.6062V26.5529C77.638 27.0117 77.5764 27.2721 77.441 27.3589C77.3056 27.4457 76.9979 27.4953 76.5055 27.4953H74.6098H74.4621H74.2528C74.0928 27.4953 73.9204 27.4829 73.7112 27.4705C73.5019 27.4581 73.3049 27.4209 73.108 27.3837C72.911 27.3341 72.7264 27.2845 72.5664 27.1977C72.4063 27.1233 72.2955 27.0117 72.2463 26.8753V10.6186C72.2463 10.4822 72.2094 10.3582 72.1232 10.2714C72.037 10.1722 71.9262 10.1226 71.7908 10.1226H70.5352C70.3998 10.1226 70.2767 10.1722 70.1906 10.2714C70.0921 10.3706 70.0428 10.4822 70.0428 10.6186V26.5405C70.0428 26.7637 69.9813 26.9497 69.8459 27.0737C69.7228 27.2101 69.5628 27.2969 69.3658 27.3589C69.1812 27.4209 68.9842 27.4581 68.7749 27.4829C68.5657 27.4953 68.381 27.5077 68.2087 27.5077H67.0023H66.8546H66.6453C66.4976 27.5077 66.313 27.4953 66.1037 27.4829C65.8944 27.4705 65.6975 27.4333 65.5005 27.3961C65.3036 27.3465 65.1189 27.2969 64.9589 27.2101C64.7989 27.1357 64.6881 27.0241 64.6388 26.8877V19.6956C64.6388 19.5592 64.5896 19.4352 64.5034 19.3484C64.405 19.2492 64.2942 19.1996 64.1588 19.1996H62.977C62.8416 19.1996 62.7308 19.2492 62.6324 19.3484C62.5339 19.4476 62.4969 19.5592 62.4969 19.6956V26.5529C62.4969 26.7761 62.4354 26.9621 62.3 27.0861C62.1769 27.2225 62.0169 27.3093 61.8199 27.3713C61.6353 27.4333 61.4383 27.4705 61.229 27.4953C61.0198 27.5077 60.8351 27.5201 60.6628 27.5201H59.5057H54.1509H51.7874V19.6956C51.7874 19.5592 51.7505 19.4352 51.6643 19.3484C51.5782 19.2492 51.4797 19.1996 51.3566 19.1996H50.101C49.9656 19.1996 49.8548 19.2492 49.7686 19.3484C49.6825 19.4476 49.6455 19.5592 49.6455 19.6956V31.2773C49.6455 31.8477 49.6086 32.3065 49.5224 32.6537C49.4363 32.9885 49.2885 33.2489 49.0547 33.4225C48.8331 33.5961 48.5376 33.7077 48.1807 33.7573C47.8237 33.8069 47.3559 33.8318 46.7897 33.8318H46.2357C45.9403 33.8318 45.8049 33.9558 45.8049 34.2038V35.3322C45.8049 35.4562 45.8295 35.543 45.8787 35.605C45.928 35.667 46.0388 35.7166 46.2111 35.7538C46.3834 35.791 46.605 35.8158 46.8881 35.8282C47.1713 35.8406 47.3559 35.853 47.4421 35.853C48.4392 35.853 49.2393 35.729 49.8425 35.481C50.4457 35.233 50.9257 34.8114 51.2704 34.2038C51.4551 33.8566 51.5905 33.4473 51.652 32.9761C51.7136 32.5049 51.7505 31.9965 51.7505 31.4385V29.7645H53.9786H59.4934H60.3427C60.8228 29.7645 61.3521 29.7025 61.943 29.5909C62.5339 29.4793 63.0386 29.2437 63.4694 28.8965C63.8633 29.2437 64.368 29.4793 64.9712 29.5909C65.5744 29.7025 66.153 29.7645 66.6823 29.7645H66.8423H66.99H67.9625C68.4426 29.7645 68.9719 29.7025 69.5628 29.5909C70.1536 29.4793 70.6583 29.2437 71.0892 28.8965C71.2738 29.0701 71.5077 29.2189 71.7662 29.3305C72.037 29.4421 72.3078 29.5289 72.591 29.5909C72.8741 29.6529 73.1572 29.6901 73.4527 29.7273C73.7481 29.7521 74.0189 29.7645 74.2774 29.7645H74.4251H74.5728H75.7792C76.0746 29.7645 76.3824 29.7645 76.7148 29.7521C77.0471 29.7397 77.3672 29.7273 77.6749 29.7025C77.9827 29.6777 78.2658 29.6529 78.5243 29.6281C78.7828 29.6033 78.9798 29.5661 79.1152 29.5041C79.3244 29.4173 79.4598 29.3181 79.5214 29.1941C79.5829 29.0701 79.6445 28.9213 79.6691 28.7477C79.706 28.5369 79.7306 28.3013 79.743 28.0409C79.7553 27.7805 79.7799 27.5077 79.7799 27.2349C79.7922 26.9621 79.7922 26.6893 79.7922 26.4289V25.722V10.6186C79.7922 10.4822 79.7553 10.3582 79.6691 10.2714C79.6199 10.1598 79.5091 10.1102 79.3737 10.1102Z" fill="#2B3A85"/>
<path d="M92.6436 14.7727H93.6407C93.8007 14.7727 93.9361 14.7231 94.0469 14.6115C94.17 14.5123 94.2316 14.3759 94.2316 14.2147V12.8135C94.2316 12.6399 94.1823 12.5035 94.0592 12.3919C93.9484 12.2927 93.813 12.2307 93.6407 12.2307H92.6436C92.4713 12.2307 92.3359 12.2803 92.2251 12.3919C92.1143 12.4911 92.0527 12.6399 92.0527 12.8135V14.2271C92.0527 14.3883 92.102 14.5123 92.2251 14.6239C92.3236 14.7231 92.4713 14.7727 92.6436 14.7727Z" fill="#2B3A85"/>
<path d="M96.8536 14.7727H97.8507C98.0107 14.7727 98.1461 14.7231 98.2569 14.6115C98.38 14.5123 98.4415 14.3759 98.4415 14.2147V12.8135C98.4415 12.6399 98.38 12.5035 98.2569 12.3919C98.1338 12.2927 97.9984 12.2307 97.8507 12.2307H96.8536C96.7058 12.2307 96.5581 12.2803 96.435 12.3919C96.3119 12.4911 96.2381 12.6399 96.2381 12.8135V14.2271C96.2381 14.3883 96.2996 14.5123 96.435 14.6239C96.5581 14.7231 96.6935 14.7727 96.8536 14.7727Z" fill="#2B3A85"/>
<path d="M126.791 17.7487C125.08 17.7487 123.763 18.2323 122.852 19.1872C121.941 20.142 121.485 21.5184 121.485 23.3164V25.8336C121.485 26.1313 121.461 26.3793 121.412 26.5901C121.362 26.8009 121.264 26.9621 121.116 27.0737C120.968 27.1853 120.808 27.2845 120.611 27.3465C120.427 27.4209 120.242 27.4581 120.045 27.4829C119.861 27.4953 119.701 27.5077 119.577 27.5077H118.753H113.398H113.238H107.871H107.723H102.368H101.777C101.236 27.5077 100.793 27.4085 100.473 27.2101C100.153 27.0117 99.9802 26.5653 99.9802 25.8584V18.5051C99.9802 18.3687 99.9556 18.2571 99.9187 18.1827C99.8818 18.1083 99.771 18.0463 99.5986 18.0091C99.414 17.9595 99.1924 17.9099 98.9339 17.8603C98.6754 17.8231 98.4046 17.7735 98.1215 17.7487C97.8383 17.7115 97.5552 17.6867 97.2598 17.6743C96.9643 17.6619 96.7181 17.6495 96.4966 17.6495C95.5241 17.6495 94.6255 17.7611 93.813 17.9719C93.0006 18.1951 92.2989 18.5299 91.7081 18.9888C91.1172 19.4476 90.6617 20.0428 90.3294 20.7744C90.0093 21.506 89.837 22.3864 89.837 23.4156V24.0976C89.837 25.784 90.2678 27.0737 91.1172 27.9665C91.9666 28.8593 93.1975 29.3057 94.7855 29.3057H95.0194C95.7334 29.3057 96.3981 29.2189 97.0136 29.0577C97.6168 28.8965 98.0722 28.6113 98.3553 28.2393C98.6262 28.7973 99.0201 29.1941 99.5494 29.4173C100.066 29.6405 100.719 29.7521 101.482 29.7521H102.196H107.711H107.859H113.226H113.386H118.753H119.159C119.873 29.7521 120.538 29.6653 121.141 29.4793C121.744 29.2933 122.187 28.9709 122.47 28.4997C122.901 29.0577 123.48 29.4669 124.206 29.7397C124.932 30.0125 125.782 30.1489 126.729 30.1489C128.576 30.1489 129.905 29.6777 130.73 28.7477C131.555 27.8177 131.961 26.4413 131.961 24.6308V23.2916C131.961 21.4812 131.53 20.1048 130.656 19.1624C129.795 18.2199 128.502 17.7487 126.791 17.7487ZM97.826 25.7592C97.826 26.0321 97.7522 26.2677 97.6168 26.4537C97.4814 26.6397 97.2967 26.7761 97.0751 26.8877C96.8536 26.9869 96.6074 27.0613 96.3365 27.0985C96.0657 27.1357 95.7949 27.1481 95.5364 27.1481H95.044C93.9361 27.1481 93.1483 26.8505 92.6805 26.2677C92.2128 25.6848 91.9912 24.8664 91.9912 23.8248V23.2792C91.9912 22.5848 92.102 22.002 92.3112 21.5432C92.5205 21.0844 92.8159 20.7124 93.1852 20.4396C93.5545 20.1668 93.9977 19.9808 94.5024 19.8816C95.0194 19.7824 95.5856 19.7204 96.2011 19.7204C96.4227 19.7204 96.6566 19.7328 96.9151 19.7452C97.1736 19.7576 97.469 19.7948 97.8137 19.8196V25.7592H97.826ZM129.819 24.4944C129.819 25.784 129.585 26.7017 129.13 27.2473C128.662 27.7929 127.874 28.0657 126.742 28.0657C125.942 28.0657 125.277 27.9293 124.76 27.6565C124.243 27.3837 123.91 26.8629 123.738 26.1065C123.664 25.7096 123.64 25.226 123.64 24.668V23.5148C123.64 22.312 123.886 21.3944 124.366 20.762C124.858 20.1296 125.658 19.8072 126.791 19.8072C127.899 19.8072 128.687 20.1296 129.142 20.7744C129.598 21.4192 129.819 22.3368 129.819 23.5148V24.4944Z" fill="#2B3A85"/>
<path d="M165.419 10.1102H164.164C164.028 10.1102 163.905 10.1599 163.819 10.2591C163.72 10.3583 163.683 10.4699 163.683 10.6063V26.5529C163.683 27.0117 163.622 27.2721 163.486 27.3589C163.363 27.4457 163.043 27.4953 162.551 27.4953H160.655H160.495H157.418C157.676 27.3217 157.91 27.0737 158.119 26.7513C158.329 26.4289 158.513 26.0693 158.673 25.6849C158.833 25.2881 158.944 24.8788 159.03 24.4448C159.116 24.0108 159.153 23.5768 159.153 23.1676V22.6716C159.153 21.7788 159.018 21.0224 158.735 20.3652C158.452 19.7204 158.058 19.1872 157.541 18.778C157.024 18.3688 156.421 18.0712 155.707 17.8728C154.993 17.6868 154.217 17.5876 153.38 17.5876C152.863 17.5876 152.358 17.6248 151.841 17.724C151.324 17.8108 150.832 17.9348 150.352 18.0712C149.872 18.22 149.429 18.406 149.035 18.6168C148.629 18.84 148.284 19.0756 148.001 19.336C147.73 19.5592 147.582 19.7948 147.57 20.018L147.545 20.7744C147.545 20.8488 147.545 20.9232 147.558 21.01C147.57 21.0968 147.582 21.1712 147.619 21.2208L150.032 27.4953H145.896H140.541H139.901C139.63 27.4953 139.384 27.4829 139.175 27.4457C138.965 27.4085 138.781 27.3465 138.633 27.2349C138.485 27.1357 138.374 26.9745 138.301 26.7761C138.227 26.5777 138.19 26.3049 138.19 25.9577V10.6187C138.19 10.4823 138.153 10.3583 138.067 10.2467C137.981 10.1351 137.87 10.0854 137.734 10.0854H136.479C136.343 10.0854 136.22 10.1351 136.134 10.2467C136.036 10.3459 135.986 10.4699 135.986 10.6187V26.4661C135.986 27.1233 136.06 27.6689 136.208 28.0905C136.356 28.5121 136.565 28.8469 136.86 29.0949C137.156 29.3429 137.5 29.5165 137.919 29.6157C138.325 29.7149 138.805 29.7645 139.359 29.7645H140.406H145.92H160.52H160.68H161.886C162.182 29.7645 162.489 29.7645 162.822 29.7521C163.154 29.7397 163.474 29.7273 163.782 29.7025C164.09 29.6777 164.373 29.6529 164.631 29.6281C164.89 29.6033 165.087 29.5661 165.222 29.5041C165.431 29.4173 165.567 29.3181 165.628 29.1941C165.69 29.0701 165.751 28.9213 165.788 28.7477C165.825 28.5369 165.85 28.3013 165.862 28.0409C165.875 27.7805 165.887 27.5077 165.899 27.2349C165.911 26.9621 165.911 26.6893 165.911 26.4289V25.7221V10.6187C165.911 10.4823 165.875 10.3583 165.788 10.2715C165.665 10.1599 165.554 10.1102 165.419 10.1102ZM157.024 23.2172C157.024 24.2836 156.765 25.2137 156.273 26.0197C155.768 26.8257 155.067 27.3341 154.18 27.5325H152.285L149.663 20.6876C150.29 20.2536 150.967 19.9684 151.669 19.8444C152.371 19.7204 152.949 19.6584 153.392 19.6584C154.525 19.6584 155.411 19.9188 156.064 20.4272C156.716 20.9356 157.036 21.7788 157.036 22.9196V23.2172H157.024Z" fill="#2B3A85"/>
<path d="M171.993 10.0854H170.737C170.602 10.0854 170.478 10.1351 170.392 10.2467C170.294 10.3459 170.245 10.4699 170.245 10.6187V29.2437C170.245 29.3801 170.294 29.5041 170.392 29.6157C170.478 29.7149 170.602 29.7769 170.737 29.7769H171.993C172.128 29.7769 172.239 29.7273 172.325 29.6157C172.411 29.5165 172.448 29.3925 172.448 29.2437V10.6187C172.448 10.4823 172.411 10.3583 172.325 10.2467C172.239 10.1475 172.128 10.0854 171.993 10.0854Z" fill="#2B3A85"/>
<path d="M189.719 14.7727H190.716C190.876 14.7727 191.011 14.7231 191.122 14.6115C191.245 14.5123 191.307 14.3759 191.307 14.2147V12.8135C191.307 12.6399 191.245 12.5035 191.122 12.3919C190.999 12.2927 190.863 12.2307 190.716 12.2307H189.719C189.571 12.2307 189.423 12.2803 189.3 12.3919C189.177 12.4911 189.103 12.6399 189.103 12.8135V14.2271C189.103 14.3883 189.165 14.5123 189.3 14.6239C189.423 14.7231 189.571 14.7727 189.719 14.7727Z" fill="#2B3A85"/>
<path d="M185.509 14.7727H186.506C186.666 14.7727 186.801 14.7231 186.912 14.6115C187.035 14.5123 187.084 14.3759 187.084 14.2147V12.8135C187.084 12.6399 187.035 12.5035 186.912 12.3919C186.801 12.2927 186.666 12.2307 186.493 12.2307H185.496C185.324 12.2307 185.189 12.2803 185.078 12.3919C184.967 12.4911 184.905 12.6399 184.905 12.8135V14.2271C184.905 14.3883 184.955 14.5123 185.078 14.6239C185.201 14.7231 185.336 14.7727 185.509 14.7727Z" fill="#2B3A85"/>
<path d="M208.196 15.9507H211.655C211.79 15.9507 211.901 15.9383 211.975 15.9011C212.049 15.8639 212.085 15.7771 212.085 15.6407V15.2191C212.085 15.0083 211.938 14.9091 211.655 14.9091H209.931C209.796 14.8347 209.66 14.6859 209.55 14.4503C209.427 14.2147 209.365 13.9171 209.365 13.5451C209.365 12.7639 209.82 12.3671 210.731 12.3671C210.818 12.3671 210.965 12.3671 211.162 12.3795C211.372 12.3919 211.482 12.3919 211.519 12.3919C211.741 12.3919 211.852 12.2927 211.852 12.1067V11.7346C211.852 11.5982 211.753 11.4866 211.568 11.4246C211.396 11.3874 211.224 11.3626 211.051 11.3502C210.879 11.3378 210.731 11.3254 210.584 11.3254C209.808 11.3254 209.217 11.499 208.799 11.8338C208.38 12.1687 208.171 12.7143 208.171 13.4459C208.171 13.7063 208.208 13.9791 208.269 14.2395C208.343 14.5123 208.454 14.7355 208.602 14.9339H208.171C207.863 14.9339 207.703 15.0207 207.703 15.1943V15.6407C207.74 15.8391 207.888 15.9507 208.196 15.9507Z" fill="#2B3A85"/>
<path d="M225.269 32.1826H224.272C224.112 32.1826 223.977 32.2322 223.854 32.3438C223.731 32.443 223.657 32.5918 223.657 32.7654V34.179C223.657 34.3154 223.718 34.4394 223.854 34.5634C223.977 34.675 224.124 34.737 224.272 34.737H225.269C225.429 34.737 225.565 34.675 225.676 34.5634C225.799 34.4518 225.86 34.3278 225.86 34.179V32.7654C225.86 32.5918 225.799 32.4554 225.676 32.3438C225.552 32.2446 225.417 32.1826 225.269 32.1826Z" fill="#2B3A85"/>
<path d="M221.059 32.1826H220.062C219.89 32.1826 219.754 32.2322 219.644 32.3438C219.533 32.443 219.471 32.5918 219.471 32.7654V34.179C219.471 34.3154 219.533 34.4394 219.644 34.5634C219.754 34.675 219.902 34.737 220.062 34.737H221.059C221.219 34.737 221.355 34.675 221.466 34.5634C221.589 34.4518 221.65 34.3278 221.65 34.179V32.7654C221.65 32.5918 221.589 32.4554 221.478 32.3438C221.367 32.2446 221.232 32.1826 221.059 32.1826Z" fill="#2B3A85"/>
<path d="M251.674 10.1102H250.418C250.283 10.1102 250.16 10.1598 250.074 10.259C249.975 10.3582 249.926 10.4698 249.926 10.6062V26.5529C249.926 27.0117 249.864 27.2721 249.729 27.3589C249.606 27.4457 249.286 27.4953 248.793 27.4953H246.738H245.814C245.42 27.4953 245.063 27.5077 244.731 27.5449C244.411 27.5821 244.128 27.6565 243.882 27.7805C243.389 28.0037 243.057 28.4377 242.885 29.0825C242.872 29.1321 242.848 29.2313 242.835 29.3677C242.823 29.5041 242.798 29.6529 242.786 29.8141L242.762 30.2357V30.5457C242.725 31.8353 242.515 32.7777 242.121 33.3729C241.727 33.9682 240.977 34.2658 239.869 34.2658C238.724 34.2658 237.948 33.9434 237.53 33.3109C237.124 32.6785 236.914 31.6989 236.914 30.3969V29.7397C237.234 29.7397 237.591 29.7397 237.973 29.7273C238.355 29.7149 238.749 29.7025 239.13 29.6777C239.512 29.6529 239.881 29.6157 240.25 29.5785C240.607 29.5413 240.915 29.4669 241.174 29.3801C242.441 29.0081 243.377 28.2889 243.98 27.2101C244.583 26.1312 244.891 24.8168 244.891 23.2916V22.8948C244.891 21.0596 244.362 19.7452 243.315 18.9143C242.269 18.0959 240.829 17.6867 239.019 17.6867C238.355 17.6867 237.715 17.7115 237.099 17.7611C236.484 17.8107 235.905 17.9223 235.351 18.0711C234.957 18.1703 234.76 18.4059 234.76 18.7531V27.4829H231.99H231.83H226.463H226.106C225.959 27.4829 225.774 27.4705 225.565 27.4581C225.355 27.4457 225.159 27.4085 224.962 27.3713C224.765 27.3217 224.58 27.2721 224.42 27.1853C224.26 27.1109 224.149 26.9993 224.1 26.8629V19.6708C224.1 19.5344 224.051 19.4104 223.964 19.3236C223.866 19.2244 223.755 19.1748 223.62 19.1748H222.438C222.303 19.1748 222.192 19.2244 222.093 19.3236C221.995 19.4228 221.958 19.5344 221.958 19.6708V26.5281C221.958 26.7513 221.896 26.9373 221.761 27.0613C221.638 27.1977 221.478 27.2845 221.281 27.3465C221.096 27.4085 220.899 27.4457 220.69 27.4705C220.481 27.4829 220.296 27.4953 220.124 27.4953H218.967H213.612H213.255C213.095 27.4953 212.923 27.4829 212.713 27.4705C212.504 27.4581 212.307 27.4209 212.11 27.3837C211.913 27.3341 211.729 27.2845 211.569 27.1977C211.408 27.1233 211.298 27.0117 211.248 26.8753V19.6832C211.248 19.5468 211.199 19.4228 211.113 19.336C211.015 19.2368 210.904 19.1872 210.768 19.1872H209.587C209.451 19.1872 209.34 19.2368 209.242 19.336C209.143 19.4352 209.107 19.5468 209.107 19.6832V26.5405C209.107 26.7637 209.045 26.9497 208.91 27.0737C208.786 27.2101 208.626 27.2969 208.43 27.3589C208.245 27.4209 208.048 27.4581 207.839 27.4829C207.629 27.4953 207.445 27.5077 207.272 27.5077H206.115H200.761H200.613H195.246H194.655C194.113 27.5077 193.67 27.4085 193.35 27.2101C193.03 27.0117 192.87 26.5653 192.87 25.8584V18.5051C192.87 18.3687 192.845 18.2571 192.808 18.1827C192.771 18.1083 192.661 18.0463 192.488 18.0091C192.304 17.9595 192.082 17.9099 191.824 17.8603C191.565 17.8231 191.294 17.7735 191.011 17.7487C190.728 17.7115 190.445 17.6867 190.149 17.6743C189.854 17.6619 189.608 17.6495 189.386 17.6495C188.414 17.6495 187.515 17.7611 186.703 17.9719C185.89 18.1951 185.189 18.5299 184.598 18.9887C184.007 19.4476 183.551 20.0428 183.219 20.7744C182.899 21.506 182.727 22.3864 182.727 23.4156V24.0976C182.727 25.784 183.158 27.0737 184.007 27.9665C184.856 28.8593 186.087 29.3057 187.675 29.3057H187.909C188.623 29.3057 189.288 29.2189 189.903 29.0577C190.506 28.8965 190.962 28.6113 191.245 28.2393C191.516 28.7973 191.91 29.1941 192.439 29.4173C192.956 29.6405 193.609 29.7521 194.372 29.7521H195.086H200.6H200.748H206.115H206.965C207.445 29.7521 207.974 29.6901 208.565 29.5785C209.156 29.4669 209.66 29.2313 210.091 28.8841C210.485 29.2313 210.99 29.4669 211.593 29.5785C212.196 29.6901 212.775 29.7521 213.304 29.7521H213.612H218.979H219.828C220.308 29.7521 220.838 29.6901 221.429 29.5785C222.02 29.4669 222.524 29.2313 222.955 28.8841C223.349 29.2313 223.854 29.4669 224.457 29.5785C225.06 29.6901 225.639 29.7521 226.168 29.7521H226.476H231.843H232.003H234.772V30.6201C234.772 31.5129 234.859 32.3065 235.019 33.0133C235.179 33.7201 235.462 34.3154 235.856 34.8238C236.25 35.3198 236.779 35.7042 237.431 35.9646C238.096 36.225 238.921 36.3614 239.906 36.3614C241.629 36.3614 242.872 35.8902 243.623 34.9354C244.374 33.9806 244.78 32.6041 244.83 30.7937L244.854 29.8265C244.953 29.8141 245.162 29.7893 245.482 29.7893C245.802 29.7769 246.097 29.7769 246.368 29.7769H246.75H248.104C248.399 29.7769 248.707 29.7769 249.04 29.7645C249.372 29.7521 249.692 29.7397 250 29.7149C250.307 29.6901 250.591 29.6653 250.849 29.6405C251.108 29.6157 251.305 29.5785 251.44 29.5165C251.649 29.4297 251.785 29.3305 251.846 29.2065C251.92 29.0825 251.969 28.9337 251.994 28.7601C252.031 28.5493 252.055 28.3137 252.068 28.0533C252.08 27.7929 252.105 27.5201 252.105 27.2473C252.117 26.9745 252.117 26.7017 252.117 26.4413V25.7344V10.6186C252.117 10.4822 252.068 10.3582 251.982 10.2714C251.92 10.1598 251.809 10.1102 251.674 10.1102ZM236.914 19.894C237.259 19.8444 237.579 19.8072 237.887 19.7948C238.195 19.7824 238.576 19.77 239.044 19.77C239.61 19.77 240.115 19.8196 240.57 19.9312C241.026 20.0304 241.407 20.2164 241.727 20.4644C242.048 20.7124 242.294 21.0472 242.466 21.4688C242.651 21.8904 242.737 22.4112 242.737 23.0436V23.5148C242.737 24.8044 242.441 25.7964 241.863 26.4785C241.284 27.1729 240.312 27.5077 238.958 27.5077H236.902V19.894H236.914ZM190.703 25.7592C190.703 26.032 190.63 26.2676 190.494 26.4537C190.359 26.6397 190.174 26.7761 189.953 26.8877C189.731 26.9869 189.485 27.0613 189.214 27.0985C188.943 27.1357 188.672 27.1481 188.414 27.1481H187.921C186.814 27.1481 186.026 26.8505 185.558 26.2676C185.102 25.6848 184.869 24.8664 184.869 23.8248V23.2792C184.869 22.5848 184.979 22.002 185.189 21.5432C185.398 21.0844 185.693 20.7124 186.063 20.4396C186.432 20.1668 186.875 19.9808 187.38 19.8816C187.897 19.7824 188.463 19.7204 189.079 19.7204C189.3 19.7204 189.534 19.7328 189.792 19.7452C190.051 19.7576 190.346 19.7948 190.691 19.8196V25.7592H190.703Z" fill="#2B3A85"/>
<path d="M258.58 10.2467C258.493 10.1475 258.383 10.0854 258.247 10.0854H256.992C256.856 10.0854 256.733 10.1351 256.647 10.2467C256.548 10.3459 256.499 10.4699 256.499 10.6187V29.2437C256.499 29.3801 256.548 29.5041 256.647 29.6157C256.745 29.7149 256.856 29.7769 256.992 29.7769H258.247C258.383 29.7769 258.493 29.7273 258.58 29.6157C258.666 29.5165 258.715 29.3925 258.715 29.2437V10.6187C258.703 10.4699 258.666 10.3459 258.58 10.2467Z" fill="#2B3A85"/>
<path d="M316.657 37.8742L314.725 36.9566L314.835 36.7086L314.601 36.597L314.454 36.8326L313.149 36.2126L312.472 35.8902L312.275 35.791L312.066 35.6918H312.041L311.352 35.357L311.29 35.3322L311.142 35.2578L310.933 35.1586L310.761 35.0842L310.515 34.9602L309.124 34.303L308.754 34.1294L308.557 34.0302L306.871 33.2365L306.391 33.0133L305.665 32.6661L305.012 32.3561L304.889 32.2941L304.15 32.3561L303.904 32.3685L305.061 32.9389L305.985 33.3977L306.612 33.7077L307.893 34.3402L308.311 34.551L309.124 34.9478L310.219 35.4934H310.231L310.428 35.5926L310.625 35.6918L311.352 36.0514L311.549 36.1506L311.746 36.2498H311.758L313.26 36.9938L313.284 37.0062L313.58 37.0682L313.961 37.1426L314.134 37.3162L313.937 37.6262L314.294 37.8122L314.404 37.589L316.349 38.5438L316.657 37.8742Z" fill="#52B0B4"/>
<path d="M312.029 24.1844L312.829 23.4404L313.149 22.6964L313.235 22.4608L313.149 22.4484L312.964 22.4236L312.62 22.374L311.819 24.1968L311.844 24.3581L312.029 24.1844Z" fill="#52B0B4"/>
<path d="M311.573 34.8486L311.93 34.6873V33.4101V32.4677V32.3561V32.3065V31.6617V30.3969V29.7893V28.8841V28.4501V28.0285L311.401 27.5573H311.315L310.761 28.0781V28.3137V29.5413V29.7893V30.9425V32.2321V32.3561V32.8397V33.0009V33.4473V34.5013V34.6873L311.352 34.9602L311.573 34.8486Z" fill="#52B0B4"/>
<path d="M308.348 29.8761L308.447 29.7893L309.124 29.1445L309.665 28.6237L310.268 28.0656L310.761 27.582V27.5696H310.231L309.308 27.5944H309.124H308.89L307.683 28.7229L307.154 29.2189L307.019 29.7893L306.637 31.4509L306.625 31.5253L306.674 31.4633L308.348 29.8761Z" fill="#52B0B4"/>
<path d="M313.124 23.6512L312.817 23.9488L312.496 24.2464L311.918 24.7796L311.943 24.978L312.238 24.854L312.472 24.7548L312.706 24.6556L313.149 24.4696L314.737 23.8124L316.226 22.3988L314.848 22.0516L313.149 23.6388L313.124 23.6512Z" fill="#52B0B4"/>
<path d="M314.466 24.3084L314.011 24.5068L313.149 24.8664L312.509 25.1268L312.275 25.226L312.041 25.3252L311.906 25.3872L311.992 25.4492L312.066 25.5112H312.152H312.349L312.952 25.4988H313.149H313.21H313.481L315.082 25.474H315.315L316.066 25.1764L317.974 24.42L316.903 23.7628L316.842 23.7256L316.436 23.4776L314.934 24.11L314.466 24.3084Z" fill="#52B0B4"/>
<path d="M310.835 24.4448L310.872 24.1844L310.145 22.5476L309.53 22.6468L309.973 23.7008L310.835 24.4448Z" fill="#52B0B4"/>
<path d="M317.31 25.7964L315.722 25.8212H315.377L314.872 25.8336H314.7L314.368 25.846L313.149 25.8585H313.1H312.829L312.57 25.8708H312.472L312.521 25.908L312.656 26.0321L312.792 26.1437L313.038 26.3545L313.149 26.4537L313.198 26.4909L313.346 26.6273L313.617 26.8629L313.961 27.1605L315.02 27.1481L316.891 27.1109L318.639 27.0861L317.79 26.2677L317.31 25.7964Z" fill="#52B0B4"/>
<path d="M308.607 27.2473L308.754 27.2349H309.013H309.124H309.284L310.416 27.2101L309.628 26.9125L309.444 26.8381L309.247 26.7761L309.124 26.7265L307.08 25.9453L306.108 25.9577H306.034L305.665 25.9701L304.163 27.3093L306.859 27.2721L308.607 27.2473Z" fill="#52B0B4"/>
<path d="M307.142 25.5856L307.597 25.7592L308.053 25.9328L309.124 26.342L309.542 26.5032L309.727 26.5652L309.911 26.6396L310.588 26.9L310.712 26.9496L310.613 26.8504L310.133 26.4412L309.998 26.3172L309.862 26.2056L309.542 25.908L309.345 25.7344L309.136 25.5608L309.124 25.536L307.856 24.42L305.628 23.4776L304.926 23.9116L304.089 24.42L305.541 24.978L307.142 25.5856Z" fill="#52B0B4"/>
<path d="M311.278 23.8744L311.241 24.1348L311.192 24.4572L311.142 24.7176L311.179 24.7424L311.302 24.8664H311.315L311.401 24.9408L311.438 24.978L311.45 24.9904H311.462H311.586L311.573 24.8788L311.561 24.8664L311.549 24.7796L311.536 24.6556L311.499 24.4696L311.45 24.1472L311.401 23.8744H311.278Z" fill="#52B0B4"/>
<path d="M308.459 24.482L308.877 24.854L309.124 25.0648L309.665 25.5484L309.874 25.722L310.071 25.908L310.133 25.9576L310.268 26.0692L310.404 26.1932L310.761 26.5156L310.773 26.528H310.785L311.007 26.7388L311.019 26.7264V26.7388L311.105 26.8132L311.167 26.8752L311.315 26.9992L311.352 27.024L311.413 27.086L311.426 27.0984L311.475 27.148L311.487 27.1604L311.536 27.1976L311.61 27.272L311.647 27.2968L311.733 27.3712L311.93 27.5448L312.423 27.9789L313.149 28.6237L313.887 29.2809L314.047 29.4173L314.257 29.6033L314.466 29.7893L315.389 30.5953L316.054 31.1905L316.251 31.3641L316.189 31.1409L316.14 30.9797L315.82 29.7893L315.635 29.0701L315.328 28.8097L315.205 28.7105L314.515 28.1029L313.838 27.52L313.629 27.3464L313.432 27.1728L313.358 27.0984L313.149 26.9248L312.977 26.776L312.817 26.6396L312.669 26.5032L312.533 26.3916L312.398 26.28L312.263 26.156L312.127 26.0444L311.992 25.9204L311.93 25.8708L311.844 25.7964L311.733 25.6972L311.659 25.6352L311.549 25.536L311.524 25.5236L311.389 25.3996L311.327 25.35L311.315 25.3376L311.241 25.2756L311.179 25.226V25.2136L311.118 25.164L311.044 25.102L311.032 25.0896L310.921 25.0028L310.761 24.8664L310.281 24.4448L309.973 24.1844L309.678 23.924L309.542 23.8L309.124 23.4404L307.683 22.2004L306.329 22.5972L308.04 24.11L308.459 24.482Z" fill="#52B0B4"/>
<path d="M310.219 35.8902L309.961 36.0142L309.124 36.411L308.25 36.8326L308.09 36.597L307.856 36.7086L307.979 36.9566L306.034 37.8742L306.342 38.5438L308.286 37.589L308.397 37.8122L308.754 37.6262L308.557 37.3162L308.73 37.1426L309.124 37.0682L309.407 37.0062L309.431 36.9938L310.945 36.2498L310.219 35.8902Z" fill="#52B0B4"/>
<path d="M312.472 35.4934L313.149 35.1586L314.306 34.5882L315.697 33.9062L318.787 32.3685L318.541 32.3561L317.802 32.2941L317.679 32.3561L315.426 33.4225L313.641 34.2658L313.149 34.5014L311.93 35.0842L311.77 35.1586L311.93 35.233L312.472 35.4934Z" fill="#52B0B4"/>
<path d="M299.756 29.2189H295.927C295.903 29.5785 295.891 29.9505 295.891 30.3225C295.891 31.1905 295.964 32.0461 296.1 32.8893H299.99C299.805 32.0585 299.707 31.2029 299.707 30.3225C299.707 29.9505 299.731 29.5785 299.756 29.2189Z" fill="#E62855"/>
<path d="M327.49 30.3225C327.49 31.1905 327.416 32.0461 327.293 32.8893H332.414C332.537 31.9593 332.586 31.0293 332.586 30.0745C332.586 29.7893 332.574 29.5041 332.574 29.2189H327.453C327.477 29.5909 327.49 29.9505 327.49 30.3225Z" fill="#E62855"/>
<path d="M289.699 29.2189C289.686 29.5041 289.686 29.7893 289.686 30.0745C289.686 31.0169 289.748 31.9593 289.871 32.8893H295.324C295.189 32.0461 295.127 31.1905 295.127 30.3225C295.127 29.9505 295.14 29.5909 295.164 29.2189H289.699Z" fill="#E62855"/>
<path d="M322.751 32.8893H326.505C326.64 32.0461 326.714 31.1905 326.714 30.3225C326.714 29.9505 326.702 29.5909 326.677 29.2189H322.984C323.021 29.5785 323.034 29.9505 323.034 30.3225C323.034 31.2029 322.935 32.0585 322.751 32.8893Z" fill="#E62855"/>
<path d="M340.686 32.8893V29.2189H334.716C334.728 29.5041 334.728 29.7893 334.728 30.0745C334.728 31.0169 334.666 31.9593 334.568 32.8893H340.686Z" fill="#E62855"/>
<path d="M287.532 30.0869C287.532 29.8017 287.545 29.5165 287.545 29.2313H281.303V32.9017H287.692C287.581 31.9593 287.532 31.0293 287.532 30.0869Z" fill="#E62855"/>
<path d="M295.669 26.0568C296.124 24.3332 296.863 22.7088 297.848 21.2208L292.838 18.7407C291.914 20.2535 291.176 21.878 290.647 23.5644L295.669 26.0568Z" fill="#F18B26"/>
<path d="M298.562 21.5804C297.565 23.056 296.826 24.6928 296.383 26.4164L299.904 28.1649C300.236 26.3668 300.974 24.7176 302.021 23.304L298.562 21.5804Z" fill="#F18B26"/>
<path d="M326.653 35.5058C326.099 37.1922 325.274 38.767 324.191 40.1931L328.745 42.4499C329.755 40.9867 330.58 39.4119 331.207 37.7626L326.653 35.5058Z" fill="#F18B26"/>
<path d="M332.881 39.3498C332.278 40.7758 331.552 42.1399 330.69 43.4171L341.006 48.5259L343.32 43.7643L333.128 38.7174C333.054 38.9282 332.968 39.139 332.881 39.3498Z" fill="#F18B26"/>
<path d="M289.391 20.8116C289.834 19.7575 290.339 18.7531 290.917 17.7859L284.467 14.5867L282.153 19.3483L288.726 22.6096C288.911 22.002 289.145 21.4068 289.391 20.8116Z" fill="#F18B26"/>
<path d="M323.477 39.8458C324.572 38.4322 325.397 36.845 325.951 35.1586L322.603 33.4969C322.123 35.2454 321.236 36.8326 320.067 38.1594L323.477 39.8458Z" fill="#F18B26"/>
<path d="M317.531 45.4011L319.956 49.3816L323.883 46.9511L321.495 43.0203C320.276 43.9999 318.947 44.8059 317.531 45.4011Z" fill="#FBC010"/>
<path d="M317.113 44.7191C318.541 44.1363 319.87 43.3303 321.076 42.3382L319.119 39.1142C317.974 40.1434 316.62 40.9494 315.143 41.4578L317.113 44.7191Z" fill="#FBC010"/>
<path d="M304.68 15.4051L302.009 11.0154L298.082 13.4459L300.79 17.8975C301.972 16.8683 303.276 16.0375 304.68 15.4051Z" fill="#FBC010"/>
<path d="M305.098 16.0747C303.695 16.6947 302.39 17.5379 301.208 18.5671L303.24 21.9028C304.335 20.824 305.652 19.956 307.105 19.3732L305.098 16.0747Z" fill="#FBC010"/>
<path d="M308.705 53.7712V59.5993H313.297V53.796C312.583 53.858 311.869 53.8952 311.142 53.8952C310.318 53.8952 309.505 53.858 308.705 53.7712Z" fill="#2B3A85"/>
<path d="M313.284 18.7159V14.9091C312.632 14.8223 311.967 14.7851 311.302 14.7851C310.416 14.7851 309.554 14.8595 308.705 15.0083V18.8772C309.567 18.6787 310.453 18.5671 311.376 18.5671C312.016 18.5547 312.669 18.6043 313.284 18.7159Z" fill="#2B3A85"/>
<path d="M308.705 46.4427V51.5888C309.505 51.6756 310.318 51.7252 311.13 51.7252C311.856 51.7252 312.57 51.688 313.284 51.6136V46.5171C312.632 46.5915 311.967 46.6412 311.302 46.6412C310.416 46.6536 309.554 46.5792 308.705 46.4427Z" fill="#2B3A85"/>
<path d="M308.705 41.7679V45.6367C309.554 45.7855 310.428 45.8599 311.302 45.8599C311.967 45.8599 312.632 45.8227 313.284 45.7359V41.9167C312.656 42.0159 312.016 42.0779 311.364 42.0779C310.453 42.0903 309.554 41.9787 308.705 41.7679Z" fill="#2B3A85"/>
<path d="M313.284 14.1031V8.53543C312.57 8.46103 311.856 8.42383 311.13 8.42383C310.318 8.42383 309.505 8.47343 308.705 8.56023V14.1899C309.554 14.0535 310.428 13.9791 311.302 13.9791C311.967 13.9915 312.632 14.0287 313.284 14.1031Z" fill="#2B3A85"/>
<path d="M313.284 6.36538V0.599304H308.693V6.39018C309.493 6.30338 310.305 6.26618 311.118 6.26618C311.856 6.26618 312.57 6.30338 313.284 6.36538Z" fill="#2B3A85"/>
<path d="M320.572 17.9348C319.341 16.9924 317.987 16.2483 316.534 15.7275L314.601 19.026C316.103 19.46 317.482 20.204 318.676 21.1712L320.572 17.9348Z" fill="#52B0B4"/>
<path d="M303.092 38.5934L301.098 41.9911C302.255 43.0327 303.56 43.8759 304.951 44.5083L306.908 41.1851C305.455 40.5775 304.163 39.6971 303.092 38.5934Z" fill="#52B0B4"/>
<path d="M298.008 47.2363C299.227 48.1912 300.531 48.9972 301.91 49.6668L304.532 45.2027C303.141 44.5579 301.848 43.7147 300.679 42.6855L298.008 47.2363Z" fill="#52B0B4"/>
<path d="M324.831 10.7055L327.662 5.89419L323.723 3.52576L320.867 8.38662C321.003 8.44862 321.126 8.51062 321.261 8.57262C322.504 9.18023 323.698 9.88704 324.831 10.7055Z" fill="#52B0B4"/>
<path d="M293.872 54.2672L297.811 56.6357L300.814 51.5268C299.423 50.8448 298.119 50.0388 296.9 49.1088L293.872 54.2672Z" fill="#52B0B4"/>
<path d="M323.735 12.5655C322.492 11.6479 321.163 10.879 319.759 10.259L316.953 15.0331C318.393 15.5787 319.747 16.3227 320.978 17.2527L323.735 12.5655Z" fill="#52B0B4"/>
<path d="M321.224 24.0356L324.068 21.6176C323.723 21.134 323.354 20.6627 322.947 20.2039C322.726 19.9559 322.504 19.7203 322.27 19.4971L319.476 21.8656C320.141 22.5228 320.732 23.242 321.224 24.0356Z" fill="#009B7C"/>
<path d="M322.874 19.0012C323.095 19.2244 323.317 19.4476 323.526 19.6956C323.932 20.1544 324.314 20.638 324.671 21.1216L328.228 18.1084L326.456 15.9755L322.874 19.0012Z" fill="#009B7C"/>
<path d="M326.96 26.0072L331.749 23.8868C331.417 22.8948 331.097 22.002 330.555 20.824L325.779 22.932C326.345 24.1224 326.653 25.0152 326.96 26.0072Z" fill="#A32482"/>
<path d="M296.863 35.6918C297.38 36.9194 297.823 37.7502 298.352 38.6554L301.824 37.1178C301.196 36.2126 300.691 35.2206 300.322 34.1666L296.863 35.6918Z" fill="#A32482"/>
<path d="M326.234 26.3296C325.926 25.3252 325.631 24.4324 325.065 23.2544L321.63 24.7796C322.147 25.7344 322.529 26.776 322.763 27.8797L326.234 26.3296Z" fill="#A32482"/>
<path d="M281.784 42.363L283.051 45.4259L290.757 42.0158C290.277 41.0982 289.846 40.2674 289.317 39.0398L281.784 42.363Z" fill="#A32482"/>
<path d="M333.719 23.0312L343.197 18.8648L341.806 15.8391L332.512 19.9436C332.549 19.9932 332.635 20.1792 332.709 20.3652C333.005 21.0596 333.325 21.8904 333.719 23.0312Z" fill="#A32482"/>
<path d="M296.149 36.0142L291.274 38.1718C291.804 39.3994 292.247 40.2302 292.739 41.1478L297.626 38.9778C297.109 38.0726 296.666 37.2418 296.149 36.0142Z" fill="#A32482"/>
</g>
<defs>
<clipPath id="clip0_8_11184">
<rect width="343" height="59" fill="white" transform="translate(0.32019 0.599304)"/>
</clipPath>
</defs>
</svg>
